<svg width="2168" height="1296" viewBox="0 0 2168 1296" fill="none" xmlns="http://www.w3.org/2000/svg">
<rect width="2168" height="1296" fill="#1E1E1E"/>
<rect x="341.5" y="120.5" width="605" height="107" rx="22.5" fill="#252526" stroke="white"/>
<path d="M398.358 191.48C395.734 191.48 393.222 191.112 390.822 190.376C388.422 189.608 386.518 188.632 385.11 187.448L387.27 182.6C388.614 183.656 390.278 184.536 392.262 185.24C394.246 185.944 396.278 186.296 398.358 186.296C400.118 186.296 401.542 186.104 402.63 185.72C403.718 185.336 404.518 184.824 405.03 184.184C405.542 183.512 405.798 182.76 405.798 181.928C405.798 180.904 405.43 180.088 404.694 179.48C403.958 178.84 402.998 178.344 401.814 177.992C400.662 177.608 399.366 177.256 397.926 176.936C396.518 176.616 395.094 176.248 393.654 175.832C392.246 175.384 390.95 174.824 389.766 174.152C388.614 173.448 387.67 172.52 386.934 171.368C386.198 170.216 385.83 168.744 385.83 166.952C385.83 165.128 386.31 163.464 387.27 161.96C388.262 160.424 389.75 159.208 391.734 158.312C393.75 157.384 396.294 156.92 399.366 156.92C401.382 156.92 403.382 157.176 405.366 157.688C407.35 158.2 409.078 158.936 410.55 159.896L408.582 164.744C407.078 163.848 405.526 163.192 403.926 162.776C402.326 162.328 400.79 162.104 399.318 162.104C397.59 162.104 396.182 162.312 395.094 162.728C394.038 163.144 393.254 163.688 392.742 164.36C392.262 165.032 392.022 165.8 392.022 166.664C392.022 167.688 392.374 168.52 393.078 169.16C393.814 169.768 394.758 170.248 395.91 170.6C397.094 170.952 398.406 171.304 399.846 171.656C401.286 171.976 402.71 172.344 404.118 172.76C405.558 173.176 406.854 173.72 408.006 174.392C409.19 175.064 410.134 175.976 410.838 177.128C411.574 178.28 411.942 179.736 411.942 181.496C411.942 183.288 411.446 184.952 410.454 186.488C409.494 187.992 408.006 189.208 405.99 190.136C403.974 191.032 401.43 191.48 398.358 191.48ZM420.636 191V159.8L423.372 162.632H413.532V157.4H426.876V191H420.636ZM447.815 170.792V165.992H469.943V170.792H447.815ZM447.815 182.408V177.608H469.943V182.408H447.815ZM532.695 180.152V175.16H545.895V180.152H532.695ZM580.269 165.08C582.317 165.08 584.141 165.48 585.741 166.28C587.373 167.08 588.653 168.312 589.581 169.976C590.509 171.608 590.973 173.72 590.973 176.312V191H584.973V177.08C584.973 174.808 584.429 173.112 583.341 171.992C582.285 170.872 580.797 170.312 578.877 170.312C577.469 170.312 576.221 170.6 575.133 171.176C574.045 171.752 573.197 172.616 572.589 173.768C572.013 174.888 571.725 176.312 571.725 178.04V191H565.725V155.384H571.725V172.28L570.429 170.168C571.325 168.536 572.621 167.288 574.317 166.424C576.045 165.528 578.029 165.08 580.269 165.08ZM603.448 198.76C601.982 196.333 600.835 193.533 600.008 190.36C599.208 187.16 598.808 183.72 598.808 180.04C598.808 176.36 599.208 172.92 600.008 169.72C600.835 166.493 601.982 163.693 603.448 161.32H606.168C604.595 164.067 603.435 166.987 602.688 170.08C601.968 173.147 601.608 176.467 601.608 180.04C601.608 183.613 601.968 186.947 602.688 190.04C603.435 193.107 604.595 196.013 606.168 198.76H603.448ZM612.373 191V163H622.853C625.226 163 627.266 163.387 628.973 164.16C630.679 164.907 631.986 166 632.893 167.44C633.826 168.853 634.293 170.573 634.293 172.6C634.293 174.573 633.826 176.28 632.893 177.72C631.986 179.133 630.679 180.227 628.973 181C627.266 181.747 625.226 182.12 622.853 182.12H614.013L615.333 180.76V191H612.373ZM631.493 191L624.293 180.84H627.493L634.733 191H631.493ZM615.333 181L614.013 179.6H622.773C625.573 179.6 627.693 178.987 629.133 177.76C630.599 176.533 631.332 174.813 631.332 172.6C631.332 170.36 630.599 168.627 629.133 167.4C627.693 166.173 625.573 165.56 622.773 165.56H614.013L615.333 164.16V181ZM651.748 198.76V161.32H654.388V198.76H651.748ZM663.505 198.76V161.32H666.145V198.76H663.505ZM685.732 191V163H696.212C698.585 163 700.625 163.387 702.332 164.16C704.039 164.907 705.345 166 706.252 167.44C707.185 168.853 707.652 170.573 707.652 172.6C707.652 174.573 707.185 176.28 706.252 177.72C705.345 179.133 704.039 180.227 702.332 181C700.625 181.773 698.585 182.16 696.212 182.16H687.372L688.692 180.76V191H685.732ZM688.692 181L687.372 179.56H696.132C698.932 179.56 701.052 178.96 702.492 177.76C703.959 176.533 704.692 174.813 704.692 172.6C704.692 170.36 703.959 168.627 702.492 167.4C701.052 166.173 698.932 165.56 696.132 165.56H687.372L688.692 164.16V181ZM724.912 198.76V161.32H727.552V198.76H724.912ZM736.669 198.76V161.32H739.309V198.76H736.669ZM816.273 198.76H813.553C815.153 196.013 816.313 193.107 817.033 190.04C817.78 186.947 818.153 183.613 818.153 180.04C818.153 176.467 817.78 173.147 817.033 170.08C816.313 166.987 815.153 164.067 813.553 161.32H816.273C817.793 163.693 818.953 166.493 819.753 169.72C820.553 172.92 820.953 176.36 820.953 180.04C820.953 183.72 820.553 187.16 819.753 190.36C818.953 193.533 817.793 196.333 816.273 198.76ZM857.583 161.576L851.151 165.128V164.072L857.583 167.624L855.711 170.888L849.519 167.288L850.143 166.952L850.191 173.816H846.543L846.591 166.952L847.215 167.288L841.071 170.888L839.151 167.624L845.631 164.072V165.128L839.151 161.576L841.071 158.264L847.215 161.912L846.591 162.296L846.543 155.384H850.191L850.143 162.296L849.519 161.912L855.711 158.264L857.583 161.576ZM886.401 191.336C883.937 191.336 881.713 190.792 879.729 189.704C877.777 188.584 876.241 187.048 875.121 185.096C874.001 183.144 873.441 180.84 873.441 178.184C873.441 175.528 874.001 173.224 875.121 171.272C876.241 169.32 877.777 167.8 879.729 166.712C881.713 165.624 883.937 165.08 886.401 165.08C888.545 165.08 890.465 165.56 892.161 166.52C893.857 167.448 895.201 168.872 896.193 170.792C897.185 172.712 897.681 175.176 897.681 178.184C897.681 181.16 897.201 183.624 896.241 185.576C895.281 187.496 893.953 188.936 892.257 189.896C890.561 190.856 888.609 191.336 886.401 191.336ZM887.121 186.2C888.561 186.2 889.841 185.88 890.961 185.24C892.113 184.6 893.025 183.672 893.697 182.456C894.401 181.24 894.753 179.816 894.753 178.184C894.753 176.52 894.401 175.096 893.697 173.912C893.025 172.696 892.113 171.768 890.961 171.128C889.841 170.488 888.561 170.168 887.121 170.168C885.681 170.168 884.385 170.488 883.233 171.128C882.113 171.768 881.201 172.696 880.497 173.912C879.825 175.096 879.489 176.52 879.489 178.184C879.489 179.816 879.825 181.24 880.497 182.456C881.201 183.672 882.113 184.6 883.233 185.24C884.385 185.88 885.681 186.2 887.121 186.2ZM894.897 191V184.952L895.137 178.136L894.657 171.32V155.384H900.609V191H894.897Z" fill="#F7931A"/>
<path d="M495.105 185.288L495.249 177.752L508.641 165.368H515.841L504.465 176.792L501.297 179.432L495.105 185.288ZM490.209 191V155.384H496.209V191H490.209ZM509.553 191L500.193 179.432L503.985 174.632L516.849 191H509.553Z" fill="#FF6262"/>
<path d="M764.336 191V165.56H754.496V163H777.136V165.56H767.296V191H764.336ZM776.698 191L785.578 179.48L785.538 180.88L777.098 170H780.298L787.218 179L786.018 178.96L792.938 170H796.058L787.538 181L787.578 179.48L796.538 191H793.298L785.978 181.4L787.098 181.56L779.898 191H776.698ZM804.46 191V164.2L805.74 165.56H797.86V163H807.34V191H804.46Z" fill="white"/>
<rect x="1215.5" y="120.5" width="605" height="107" rx="22.5" fill="#252526" stroke="white"/>
<path d="M1263.33 191.48C1260.71 191.48 1258.19 191.112 1255.79 190.376C1253.39 189.608 1251.49 188.632 1250.08 187.448L1252.24 182.6C1253.59 183.656 1255.25 184.536 1257.23 185.24C1259.22 185.944 1261.25 186.296 1263.33 186.296C1265.09 186.296 1266.51 186.104 1267.6 185.72C1268.69 185.336 1269.49 184.824 1270 184.184C1270.51 183.512 1270.77 182.76 1270.77 181.928C1270.77 180.904 1270.4 180.088 1269.67 179.48C1268.93 178.84 1267.97 178.344 1266.79 177.992C1265.63 177.608 1264.34 177.256 1262.9 176.936C1261.49 176.616 1260.07 176.248 1258.63 175.832C1257.22 175.384 1255.92 174.824 1254.74 174.152C1253.59 173.448 1252.64 172.52 1251.91 171.368C1251.17 170.216 1250.8 168.744 1250.8 166.952C1250.8 165.128 1251.28 163.464 1252.24 161.96C1253.23 160.424 1254.72 159.208 1256.71 158.312C1258.72 157.384 1261.27 156.92 1264.34 156.92C1266.35 156.92 1268.35 157.176 1270.34 157.688C1272.32 158.2 1274.05 158.936 1275.52 159.896L1273.55 164.744C1272.05 163.848 1270.5 163.192 1268.9 162.776C1267.3 162.328 1265.76 162.104 1264.29 162.104C1262.56 162.104 1261.15 162.312 1260.07 162.728C1259.01 163.144 1258.23 163.688 1257.71 164.36C1257.23 165.032 1256.99 165.8 1256.99 166.664C1256.99 167.688 1257.35 168.52 1258.05 169.16C1258.79 169.768 1259.73 170.248 1260.88 170.6C1262.07 170.952 1263.38 171.304 1264.82 171.656C1266.26 171.976 1267.68 172.344 1269.09 172.76C1270.53 173.176 1271.83 173.72 1272.98 174.392C1274.16 175.064 1275.11 175.976 1275.81 177.128C1276.55 178.28 1276.91 179.736 1276.91 181.496C1276.91 183.288 1276.42 184.952 1275.43 186.488C1274.47 187.992 1272.98 189.208 1270.96 190.136C1268.95 191.032 1266.4 191.48 1263.33 191.48ZM1280.27 191V186.824L1293.61 174.152C1294.73 173.096 1295.57 172.168 1296.11 171.368C1296.65 170.568 1297.01 169.832 1297.17 169.16C1297.36 168.456 1297.45 167.8 1297.45 167.192C1297.45 165.656 1296.93 164.472 1295.87 163.64C1294.81 162.776 1293.26 162.344 1291.21 162.344C1289.58 162.344 1288.09 162.632 1286.75 163.208C1285.44 163.784 1284.3 164.664 1283.34 165.848L1278.97 162.488C1280.29 160.728 1282.05 159.368 1284.25 158.408C1286.49 157.416 1288.99 156.92 1291.74 156.92C1294.17 156.92 1296.29 157.32 1298.08 158.12C1299.9 158.888 1301.29 159.992 1302.25 161.432C1303.25 162.872 1303.74 164.584 1303.74 166.568C1303.74 167.656 1303.6 168.744 1303.31 169.832C1303.02 170.888 1302.48 172.008 1301.68 173.192C1300.88 174.376 1299.71 175.704 1298.17 177.176L1286.7 188.072L1285.41 185.72H1305.04V191H1280.27ZM1322.91 170.792V165.992H1345.04V170.792H1322.91ZM1322.91 182.408V177.608H1345.04V182.408H1322.91ZM1407.79 180.152V175.16H1420.99V180.152H1407.79ZM1455.37 165.08C1457.41 165.08 1459.24 165.48 1460.84 166.28C1462.47 167.08 1463.75 168.312 1464.68 169.976C1465.61 171.608 1466.07 173.72 1466.07 176.312V191H1460.07V177.08C1460.07 174.808 1459.53 173.112 1458.44 171.992C1457.38 170.872 1455.89 170.312 1453.97 170.312C1452.57 170.312 1451.32 170.6 1450.23 171.176C1449.14 171.752 1448.29 172.616 1447.69 173.768C1447.11 174.888 1446.82 176.312 1446.82 178.04V191H1440.82V155.384H1446.82V172.28L1445.53 170.168C1446.42 168.536 1447.72 167.288 1449.41 166.424C1451.14 165.528 1453.13 165.08 1455.37 165.08ZM1478.55 198.76C1477.08 196.333 1475.93 193.533 1475.11 190.36C1474.31 187.16 1473.91 183.72 1473.91 180.04C1473.91 176.36 1474.31 172.92 1475.11 169.72C1475.93 166.493 1477.08 163.693 1478.55 161.32H1481.27C1479.69 164.067 1478.53 166.987 1477.79 170.08C1477.07 173.147 1476.71 176.467 1476.71 180.04C1476.71 183.613 1477.07 186.947 1477.79 190.04C1478.53 193.107 1479.69 196.013 1481.27 198.76H1478.55ZM1487.47 191V163H1497.95C1500.32 163 1502.36 163.387 1504.07 164.16C1505.78 164.907 1507.08 166 1507.99 167.44C1508.92 168.853 1509.39 170.573 1509.39 172.6C1509.39 174.573 1508.92 176.28 1507.99 177.72C1507.08 179.133 1505.78 180.227 1504.07 181C1502.36 181.747 1500.32 182.12 1497.95 182.12H1489.11L1490.43 180.76V191H1487.47ZM1506.59 191L1499.39 180.84H1502.59L1509.83 191H1506.59ZM1490.43 181L1489.11 179.6H1497.87C1500.67 179.6 1502.79 178.987 1504.23 177.76C1505.7 176.533 1506.43 174.813 1506.43 172.6C1506.43 170.36 1505.7 168.627 1504.23 167.4C1502.79 166.173 1500.67 165.56 1497.87 165.56H1489.11L1490.43 164.16V181ZM1526.85 198.76V161.32H1529.49V198.76H1526.85ZM1538.6 198.76V161.32H1541.24V198.76H1538.6ZM1560.83 191V163H1571.31C1573.68 163 1575.72 163.387 1577.43 164.16C1579.14 164.907 1580.44 166 1581.35 167.44C1582.28 168.853 1582.75 170.573 1582.75 172.6C1582.75 174.573 1582.28 176.28 1581.35 177.72C1580.44 179.133 1579.14 180.227 1577.43 181C1575.72 181.773 1573.68 182.16 1571.31 182.16H1562.47L1563.79 180.76V191H1560.83ZM1563.79 181L1562.47 179.56H1571.23C1574.03 179.56 1576.15 178.96 1577.59 177.76C1579.06 176.533 1579.79 174.813 1579.79 172.6C1579.79 170.36 1579.06 168.627 1577.59 167.4C1576.15 166.173 1574.03 165.56 1571.23 165.56H1562.47L1563.79 164.16V181ZM1600.01 198.76V161.32H1602.65V198.76H1600.01ZM1611.77 198.76V161.32H1614.41V198.76H1611.77ZM1699.3 198.76H1696.58C1698.18 196.013 1699.34 193.107 1700.06 190.04C1700.81 186.947 1701.18 183.613 1701.18 180.04C1701.18 176.467 1700.81 173.147 1700.06 170.08C1699.34 166.987 1698.18 164.067 1696.58 161.32H1699.3C1700.82 163.693 1701.98 166.493 1702.78 169.72C1703.58 172.92 1703.98 176.36 1703.98 180.04C1703.98 183.72 1703.58 187.16 1702.78 190.36C1701.98 193.533 1700.82 196.333 1699.3 198.76ZM1740.61 161.576L1734.18 165.128V164.072L1740.61 167.624L1738.74 170.888L1732.55 167.288L1733.17 166.952L1733.22 173.816H1729.57L1729.62 166.952L1730.24 167.288L1724.1 170.888L1722.18 167.624L1728.66 164.072V165.128L1722.18 161.576L1724.1 158.264L1730.24 161.912L1729.62 162.296L1729.57 155.384H1733.22L1733.17 162.296L1732.55 161.912L1738.74 158.264L1740.61 161.576ZM1769.43 191.336C1766.96 191.336 1764.74 190.792 1762.76 189.704C1760.8 188.584 1759.27 187.048 1758.15 185.096C1757.03 183.144 1756.47 180.84 1756.47 178.184C1756.47 175.528 1757.03 173.224 1758.15 171.272C1759.27 169.32 1760.8 167.8 1762.76 166.712C1764.74 165.624 1766.96 165.08 1769.43 165.08C1771.57 165.08 1773.49 165.56 1775.19 166.52C1776.88 167.448 1778.23 168.872 1779.22 170.792C1780.21 172.712 1780.71 175.176 1780.71 178.184C1780.71 181.16 1780.23 183.624 1779.27 185.576C1778.31 187.496 1776.98 188.936 1775.28 189.896C1773.59 190.856 1771.64 191.336 1769.43 191.336ZM1770.15 186.2C1771.59 186.2 1772.87 185.88 1773.99 185.24C1775.14 184.6 1776.05 183.672 1776.72 182.456C1777.43 181.24 1777.78 179.816 1777.78 178.184C1777.78 176.52 1777.43 175.096 1776.72 173.912C1776.05 172.696 1775.14 171.768 1773.99 171.128C1772.87 170.488 1771.59 170.168 1770.15 170.168C1768.71 170.168 1767.41 170.488 1766.26 171.128C1765.14 171.768 1764.23 172.696 1763.52 173.912C1762.85 175.096 1762.52 176.52 1762.52 178.184C1762.52 179.816 1762.85 181.24 1763.52 182.456C1764.23 183.672 1765.14 184.6 1766.26 185.24C1767.41 185.88 1768.71 186.2 1770.15 186.2ZM1777.92 191V184.952L1778.16 178.136L1777.68 171.32V155.384H1783.64V191H1777.92Z" fill="#F7931A"/>
<path d="M1370.2 185.288L1370.35 177.752L1383.74 165.368H1390.94L1379.56 176.792L1376.4 179.432L1370.2 185.288ZM1365.31 191V155.384H1371.31V191H1365.31ZM1384.65 191L1375.29 179.432L1379.08 174.632L1391.95 191H1384.65Z" fill="#FF6262"/>
<path d="M1639.43 191V165.56H1629.59V163H1652.23V165.56H1642.39V191H1639.43ZM1651.8 191L1660.68 179.48L1660.64 180.88L1652.2 170H1655.4L1662.32 179L1661.12 178.96L1668.04 170H1671.16L1662.64 181L1662.68 179.48L1671.64 191H1668.4L1661.08 181.4L1662.2 181.56L1655 191H1651.8ZM1673.81 191V188.96L1685.45 177.56C1686.51 176.52 1687.31 175.613 1687.85 174.84C1688.38 174.04 1688.74 173.293 1688.93 172.6C1689.11 171.907 1689.21 171.253 1689.21 170.64C1689.21 169.013 1688.65 167.733 1687.53 166.8C1686.43 165.867 1684.81 165.4 1682.65 165.4C1680.99 165.4 1679.53 165.653 1678.25 166.16C1676.99 166.667 1675.91 167.453 1675.01 168.52L1672.97 166.76C1674.06 165.48 1675.46 164.493 1677.17 163.8C1678.87 163.107 1680.78 162.76 1682.89 162.76C1684.78 162.76 1686.42 163.067 1687.81 163.68C1689.19 164.267 1690.26 165.133 1691.01 166.28C1691.78 167.427 1692.17 168.773 1692.17 170.32C1692.17 171.227 1692.03 172.12 1691.77 173C1691.53 173.88 1691.07 174.813 1690.41 175.8C1689.77 176.76 1688.82 177.853 1687.57 179.08L1676.89 189.56L1676.09 188.44H1693.45V191H1673.81Z" fill="white"/>
<path d="M336.5 270.5V296.5C336.5 309.755 347.245 320.5 360.5 320.5H1055.39C1059.19 320.5 1062.72 322.458 1064.73 325.681L1085.5 359L1106.27 325.681C1108.28 322.458 1111.81 320.5 1115.61 320.5H1806.5C1819.75 320.5 1830.5 309.755 1830.5 296.5V270.5" stroke="white" stroke-width="2"/>
<path d="M1069.5 648V561H1099V648H1125L1086.5 707L1043 648H1069.5Z" stroke="white" stroke-width="2"/>
<rect x="658" y="731" width="807" height="203" fill="#FF6262" fill-opacity="0.17"/>
<rect x="658" y="731" width="807" height="203" stroke="white"/>
<path d="M1037.87 787.48C1035.24 787.48 1032.73 787.112 1030.33 786.376C1027.93 785.608 1026.03 784.632 1024.62 783.448L1026.78 778.6C1028.12 779.656 1029.79 780.536 1031.77 781.24C1033.75 781.944 1035.79 782.296 1037.87 782.296C1039.63 782.296 1041.05 782.104 1042.14 781.72C1043.23 781.336 1044.03 780.824 1044.54 780.184C1045.05 779.512 1045.31 778.76 1045.31 777.928C1045.31 776.904 1044.94 776.088 1044.2 775.48C1043.47 774.84 1042.51 774.344 1041.32 773.992C1040.17 773.608 1038.87 773.256 1037.43 772.936C1036.03 772.616 1034.6 772.248 1033.16 771.832C1031.75 771.384 1030.46 770.824 1029.27 770.152C1028.12 769.448 1027.18 768.52 1026.44 767.368C1025.71 766.216 1025.34 764.744 1025.34 762.952C1025.34 761.128 1025.82 759.464 1026.78 757.96C1027.77 756.424 1029.26 755.208 1031.24 754.312C1033.26 753.384 1035.8 752.92 1038.87 752.92C1040.89 752.92 1042.89 753.176 1044.87 753.688C1046.86 754.2 1048.59 754.936 1050.06 755.896L1048.09 760.744C1046.59 759.848 1045.03 759.192 1043.43 758.776C1041.83 758.328 1040.3 758.104 1038.83 758.104C1037.1 758.104 1035.69 758.312 1034.6 758.728C1033.55 759.144 1032.76 759.688 1032.25 760.36C1031.77 761.032 1031.53 761.8 1031.53 762.664C1031.53 763.688 1031.88 764.52 1032.59 765.16C1033.32 765.768 1034.27 766.248 1035.42 766.6C1036.6 766.952 1037.91 767.304 1039.35 767.656C1040.79 767.976 1042.22 768.344 1043.63 768.76C1045.07 769.176 1046.36 769.72 1047.51 770.392C1048.7 771.064 1049.64 771.976 1050.35 773.128C1051.08 774.28 1051.45 775.736 1051.45 777.496C1051.45 779.288 1050.95 780.952 1049.96 782.488C1049 783.992 1047.51 785.208 1045.5 786.136C1043.48 787.032 1040.94 787.48 1037.87 787.48ZM1060.14 787V755.8L1062.88 758.632H1053.04V753.4H1066.38V787H1060.14ZM1086.84 776.152V771.16H1100.04V776.152H1086.84ZM1130.87 787.48C1128.24 787.48 1125.73 787.112 1123.33 786.376C1120.93 785.608 1119.03 784.632 1117.62 783.448L1119.78 778.6C1121.12 779.656 1122.79 780.536 1124.77 781.24C1126.75 781.944 1128.79 782.296 1130.87 782.296C1132.63 782.296 1134.05 782.104 1135.14 781.72C1136.23 781.336 1137.03 780.824 1137.54 780.184C1138.05 779.512 1138.31 778.76 1138.31 777.928C1138.31 776.904 1137.94 776.088 1137.2 775.48C1136.47 774.84 1135.51 774.344 1134.32 773.992C1133.17 773.608 1131.87 773.256 1130.43 772.936C1129.03 772.616 1127.6 772.248 1126.16 771.832C1124.75 771.384 1123.46 770.824 1122.27 770.152C1121.12 769.448 1120.18 768.52 1119.44 767.368C1118.71 766.216 1118.34 764.744 1118.34 762.952C1118.34 761.128 1118.82 759.464 1119.78 757.96C1120.77 756.424 1122.26 755.208 1124.24 754.312C1126.26 753.384 1128.8 752.92 1131.87 752.92C1133.89 752.92 1135.89 753.176 1137.87 753.688C1139.86 754.2 1141.59 754.936 1143.06 755.896L1141.09 760.744C1139.59 759.848 1138.03 759.192 1136.43 758.776C1134.83 758.328 1133.3 758.104 1131.83 758.104C1130.1 758.104 1128.69 758.312 1127.6 758.728C1126.55 759.144 1125.76 759.688 1125.25 760.36C1124.77 761.032 1124.53 761.8 1124.53 762.664C1124.53 763.688 1124.88 764.52 1125.59 765.16C1126.32 765.768 1127.27 766.248 1128.42 766.6C1129.6 766.952 1130.91 767.304 1132.35 767.656C1133.79 767.976 1135.22 768.344 1136.63 768.76C1138.07 769.176 1139.36 769.72 1140.51 770.392C1141.7 771.064 1142.64 771.976 1143.35 773.128C1144.08 774.28 1144.45 775.736 1144.45 777.496C1144.45 779.288 1143.95 780.952 1142.96 782.488C1142 783.992 1140.51 785.208 1138.5 786.136C1136.48 787.032 1133.94 787.48 1130.87 787.48ZM1147.81 787V782.824L1161.15 770.152C1162.27 769.096 1163.1 768.168 1163.65 767.368C1164.19 766.568 1164.54 765.832 1164.7 765.16C1164.89 764.456 1164.99 763.8 1164.99 763.192C1164.99 761.656 1164.46 760.472 1163.41 759.64C1162.35 758.776 1160.8 758.344 1158.75 758.344C1157.12 758.344 1155.63 758.632 1154.29 759.208C1152.97 759.784 1151.84 760.664 1150.88 761.848L1146.51 758.488C1147.82 756.728 1149.58 755.368 1151.79 754.408C1154.03 753.416 1156.53 752.92 1159.28 752.92C1161.71 752.92 1163.82 753.32 1165.61 754.12C1167.44 754.888 1168.83 755.992 1169.79 757.432C1170.78 758.872 1171.28 760.584 1171.28 762.568C1171.28 763.656 1171.13 764.744 1170.85 765.832C1170.56 766.888 1170.01 768.008 1169.21 769.192C1168.41 770.376 1167.25 771.704 1165.71 773.176L1154.24 784.072L1152.94 781.72H1172.57V787H1147.81Z" fill="#F7931A"/>
<path d="M708.018 835.336C705.554 835.336 703.33 834.792 701.346 833.704C699.394 832.584 697.858 831.048 696.738 829.096C695.618 827.144 695.058 824.84 695.058 822.184C695.058 819.528 695.618 817.224 696.738 815.272C697.858 813.32 699.394 811.8 701.346 810.712C703.33 809.624 705.554 809.08 708.018 809.08C710.162 809.08 712.082 809.56 713.778 810.52C715.474 811.448 716.818 812.872 717.81 814.792C718.802 816.712 719.298 819.176 719.298 822.184C719.298 825.16 718.818 827.624 717.858 829.576C716.898 831.496 715.57 832.936 713.874 833.896C712.178 834.856 710.226 835.336 708.018 835.336ZM708.738 830.2C710.178 830.2 711.458 829.88 712.578 829.24C713.73 828.6 714.642 827.672 715.314 826.456C716.018 825.24 716.37 823.816 716.37 822.184C716.37 820.52 716.018 819.096 715.314 817.912C714.642 816.696 713.73 815.768 712.578 815.128C711.458 814.488 710.178 814.168 708.738 814.168C707.298 814.168 706.002 814.488 704.85 815.128C703.73 815.768 702.818 816.696 702.114 817.912C701.442 819.096 701.106 820.52 701.106 822.184C701.106 823.816 701.442 825.24 702.114 826.456C702.818 827.672 703.73 828.6 704.85 829.24C706.002 829.88 707.298 830.2 708.738 830.2ZM716.514 835V828.952L716.754 822.136L716.274 815.32V799.384H722.226V835H716.514ZM742.573 814.792V809.992H764.701V814.792H742.573ZM742.573 826.408V821.608H764.701V826.408H742.573Z" fill="#F7931A"/>
<path d="M819 818L1380 818" stroke="#F7931A" stroke-width="2"/>
<path d="M664.338 834.191C664.72 833.456 664.434 832.551 663.698 832.169L651.717 825.948C650.982 825.566 650.077 825.853 649.695 826.588C649.313 827.323 649.6 828.228 650.335 828.61L660.985 834.14L655.455 844.79C655.073 845.525 655.36 846.431 656.095 846.812C656.83 847.194 657.736 846.908 658.117 846.172L664.338 834.191ZM662.555 832.07C652.465 835.263 636.192 843.813 618.213 856.821C600.209 869.846 580.402 887.407 563.273 908.697C529.015 951.276 505.354 1008.94 528.586 1075L531.416 1074C508.648 1009.26 531.74 952.674 565.61 910.578C582.545 889.53 602.146 872.148 619.971 859.251C637.822 846.337 653.799 837.987 663.46 834.93L662.555 832.07Z" fill="#FF6262"/>
<path d="M831.582 855.08C833.63 855.08 835.454 855.48 837.054 856.28C838.686 857.08 839.966 858.312 840.894 859.976C841.822 861.608 842.286 863.72 842.286 866.312V881H836.286V867.08C836.286 864.808 835.742 863.112 834.654 861.992C833.598 860.872 832.11 860.312 830.19 860.312C828.782 860.312 827.534 860.6 826.446 861.176C825.358 861.752 824.51 862.616 823.902 863.768C823.326 864.888 823.038 866.312 823.038 868.04V881H817.038V845.384H823.038V862.28L821.742 860.168C822.638 858.536 823.934 857.288 825.63 856.424C827.358 855.528 829.342 855.08 831.582 855.08ZM854.761 888.76C853.294 886.333 852.148 883.533 851.321 880.36C850.521 877.16 850.121 873.72 850.121 870.04C850.121 866.36 850.521 862.92 851.321 859.72C852.148 856.493 853.294 853.693 854.761 851.32H857.481C855.908 854.067 854.748 856.987 854.001 860.08C853.281 863.147 852.921 866.467 852.921 870.04C852.921 873.613 853.281 876.947 854.001 880.04C854.748 883.107 855.908 886.013 857.481 888.76H854.761ZM863.685 881V853H874.165C876.538 853 878.578 853.387 880.285 854.16C881.992 854.907 883.298 856 884.205 857.44C885.138 858.853 885.605 860.573 885.605 862.6C885.605 864.573 885.138 866.28 884.205 867.72C883.298 869.133 881.992 870.227 880.285 871C878.578 871.747 876.538 872.12 874.165 872.12H865.325L866.645 870.76V881H863.685ZM882.805 881L875.605 870.84H878.805L886.045 881H882.805ZM866.645 871L865.325 869.6H874.085C876.885 869.6 879.005 868.987 880.445 867.76C881.912 866.533 882.645 864.813 882.645 862.6C882.645 860.36 881.912 858.627 880.445 857.4C879.005 856.173 876.885 855.56 874.085 855.56H865.325L866.645 854.16V871ZM903.06 888.76V851.32H905.7V888.76H903.06ZM914.818 888.76V851.32H917.458V888.76H914.818ZM937.044 881V853H947.524C949.898 853 951.938 853.387 953.644 854.16C955.351 854.907 956.658 856 957.564 857.44C958.498 858.853 958.964 860.573 958.964 862.6C958.964 864.573 958.498 866.28 957.564 867.72C956.658 869.133 955.351 870.227 953.644 871C951.938 871.773 949.898 872.16 947.524 872.16H938.684L940.004 870.76V881H937.044ZM940.004 871L938.684 869.56H947.444C950.244 869.56 952.364 868.96 953.804 867.76C955.271 866.533 956.004 864.813 956.004 862.6C956.004 860.36 955.271 858.627 953.804 857.4C952.364 856.173 950.244 855.56 947.444 855.56H938.684L940.004 854.16V871ZM976.224 888.76V851.32H978.864V888.76H976.224ZM987.982 888.76V851.32H990.622V888.76H987.982ZM1067.59 888.76H1064.87C1066.47 886.013 1067.63 883.107 1068.35 880.04C1069.09 876.947 1069.47 873.613 1069.47 870.04C1069.47 866.467 1069.09 863.147 1068.35 860.08C1067.63 856.987 1066.47 854.067 1064.87 851.32H1067.59C1069.11 853.693 1070.27 856.493 1071.07 859.72C1071.87 862.92 1072.27 866.36 1072.27 870.04C1072.27 873.72 1071.87 877.16 1071.07 880.36C1070.27 883.533 1069.11 886.333 1067.59 888.76ZM1089.3 871.4V868.92H1099.78V871.4H1089.3ZM1131.12 855.08C1133.17 855.08 1134.99 855.48 1136.59 856.28C1138.22 857.08 1139.5 858.312 1140.43 859.976C1141.36 861.608 1141.82 863.72 1141.82 866.312V881H1135.82V867.08C1135.82 864.808 1135.28 863.112 1134.19 861.992C1133.14 860.872 1131.65 860.312 1129.73 860.312C1128.32 860.312 1127.07 860.6 1125.98 861.176C1124.9 861.752 1124.05 862.616 1123.44 863.768C1122.86 864.888 1122.58 866.312 1122.58 868.04V881H1116.58V845.384H1122.58V862.28L1121.28 860.168C1122.18 858.536 1123.47 857.288 1125.17 856.424C1126.9 855.528 1128.88 855.08 1131.12 855.08ZM1154.3 888.76C1152.83 886.333 1151.69 883.533 1150.86 880.36C1150.06 877.16 1149.66 873.72 1149.66 870.04C1149.66 866.36 1150.06 862.92 1150.86 859.72C1151.69 856.493 1152.83 853.693 1154.3 851.32H1157.02C1155.45 854.067 1154.29 856.987 1153.54 860.08C1152.82 863.147 1152.46 866.467 1152.46 870.04C1152.46 873.613 1152.82 876.947 1153.54 880.04C1154.29 883.107 1155.45 886.013 1157.02 888.76H1154.3ZM1163.22 881V853H1173.7C1176.08 853 1178.12 853.387 1179.82 854.16C1181.53 854.907 1182.84 856 1183.74 857.44C1184.68 858.853 1185.14 860.573 1185.14 862.6C1185.14 864.573 1184.68 866.28 1183.74 867.72C1182.84 869.133 1181.53 870.227 1179.82 871C1178.12 871.747 1176.08 872.12 1173.7 872.12H1164.86L1166.18 870.76V881H1163.22ZM1182.34 881L1175.14 870.84H1178.34L1185.58 881H1182.34ZM1166.18 871L1164.86 869.6H1173.62C1176.42 869.6 1178.54 868.987 1179.98 867.76C1181.45 866.533 1182.18 864.813 1182.18 862.6C1182.18 860.36 1181.45 858.627 1179.98 857.4C1178.54 856.173 1176.42 855.56 1173.62 855.56H1164.86L1166.18 854.16V871ZM1202.6 888.76V851.32H1205.24V888.76H1202.6ZM1214.36 888.76V851.32H1217V888.76H1214.36ZM1236.58 881V853H1247.06C1249.44 853 1251.48 853.387 1253.18 854.16C1254.89 854.907 1256.2 856 1257.1 857.44C1258.04 858.853 1258.5 860.573 1258.5 862.6C1258.5 864.573 1258.04 866.28 1257.1 867.72C1256.2 869.133 1254.89 870.227 1253.18 871C1251.48 871.773 1249.44 872.16 1247.06 872.16H1238.22L1239.54 870.76V881H1236.58ZM1239.54 871L1238.22 869.56H1246.98C1249.78 869.56 1251.9 868.96 1253.34 867.76C1254.81 866.533 1255.54 864.813 1255.54 862.6C1255.54 860.36 1254.81 858.627 1253.34 857.4C1251.9 856.173 1249.78 855.56 1246.98 855.56H1238.22L1239.54 854.16V871ZM1275.76 888.76V851.32H1278.4V888.76H1275.76ZM1287.52 888.76V851.32H1290.16V888.76H1287.52ZM1375.05 888.76H1372.33C1373.93 886.013 1375.09 883.107 1375.81 880.04C1376.56 876.947 1376.93 873.613 1376.93 870.04C1376.93 866.467 1376.56 863.147 1375.81 860.08C1375.09 856.987 1373.93 854.067 1372.33 851.32H1375.05C1376.57 853.693 1377.73 856.493 1378.53 859.72C1379.33 862.92 1379.73 866.36 1379.73 870.04C1379.73 873.72 1379.33 877.16 1378.53 880.36C1377.73 883.533 1376.57 886.333 1375.05 888.76Z" fill="#F7931A"/>
<path d="M1015.65 881V855.56H1005.81V853H1028.45V855.56H1018.61V881H1015.65ZM1028.01 881L1036.89 869.48L1036.85 870.88L1028.41 860H1031.61L1038.53 869L1037.33 868.96L1044.25 860H1047.37L1038.85 871L1038.89 869.48L1047.85 881H1044.61L1037.29 871.4L1038.41 871.56L1031.21 881H1028.01ZM1055.77 881V854.2L1057.05 855.56H1049.17V853H1058.65V881H1055.77ZM1315.19 881V855.56H1305.35V853H1327.99V855.56H1318.15V881H1315.19ZM1327.55 881L1336.43 869.48L1336.39 870.88L1327.95 860H1331.15L1338.07 869L1336.87 868.96L1343.79 860H1346.91L1338.39 871L1338.43 869.48L1347.39 881H1344.15L1336.83 871.4L1337.95 871.56L1330.75 881H1327.55ZM1349.56 881V878.96L1361.2 867.56C1362.27 866.52 1363.07 865.613 1363.6 864.84C1364.13 864.04 1364.49 863.293 1364.68 862.6C1364.87 861.907 1364.96 861.253 1364.96 860.64C1364.96 859.013 1364.4 857.733 1363.28 856.8C1362.19 855.867 1360.56 855.4 1358.4 855.4C1356.75 855.4 1355.28 855.653 1354 856.16C1352.75 856.667 1351.67 857.453 1350.76 858.52L1348.72 856.76C1349.81 855.48 1351.21 854.493 1352.92 853.8C1354.63 853.107 1356.53 852.76 1358.64 852.76C1360.53 852.76 1362.17 853.067 1363.56 853.68C1364.95 854.267 1366.01 855.133 1366.76 856.28C1367.53 857.427 1367.92 858.773 1367.92 860.32C1367.92 861.227 1367.79 862.12 1367.52 863C1367.28 863.88 1366.83 864.813 1366.16 865.8C1365.52 866.76 1364.57 867.853 1363.32 869.08L1352.64 879.56L1351.84 878.44H1369.2V881H1349.56Z" fill="white"/>
<path d="M392.564 975.91C389.605 958.536 386.369 939.66 385.385 934.294C382.978 921.196 365.731 913.874 352.916 923.313C346.197 928.269 340.186 928.623 337 928.623C333.814 928.623 330.281 929.331 321.084 923.313C307.766 914.604 291.022 921.196 288.615 934.294C287.631 939.66 284.395 958.536 281.436 975.91C245.426 980.42 221 989.193 221 999.268C221 1013.97 272.939 1025.87 337 1025.87C401.068 1025.87 453 1013.97 453 999.268C453 989.193 428.574 980.42 392.564 975.91Z" fill="#FF6262"/>
<path d="M270.445 1030.73L273.865 1069.94C291.792 1072.98 309.995 1074.57 328.105 1074.96L336.998 1062.83L345.891 1074.96C364.002 1074.57 382.205 1072.98 400.131 1069.94L403.551 1030.73C381.631 1034.98 359.187 1036.85 336.998 1036.85C314.802 1036.85 292.372 1034.98 270.445 1030.73ZM305.591 1063.15C290.425 1062.44 289.477 1044.23 289.477 1044.23L323.518 1050.88C323.518 1050.88 320.756 1063.88 305.591 1063.15ZM384.52 1044.23C384.52 1044.23 383.571 1062.44 368.405 1063.15C353.239 1063.88 350.478 1050.88 350.478 1050.88L384.52 1044.23Z" fill="#FF6262"/>
<path d="M1093.61 185.623H1076.97C1075.49 185.623 1074.23 185.682 1073.19 185.799V176.102C1074.21 176.355 1075.88 176.482 1078.2 176.482H1092.35C1094.58 176.482 1096.2 176.355 1097.22 176.102V185.799C1096.2 185.682 1095 185.623 1093.61 185.623Z" fill="white"/>
<path d="M620.565 474.48C617.941 474.48 615.429 474.112 613.029 473.376C610.629 472.608 608.725 471.632 607.317 470.448L609.477 465.6C610.821 466.656 612.485 467.536 614.469 468.24C616.453 468.944 618.485 469.296 620.565 469.296C622.325 469.296 623.749 469.104 624.837 468.72C625.925 468.336 626.725 467.824 627.237 467.184C627.749 466.512 628.005 465.76 628.005 464.928C628.005 463.904 627.637 463.088 626.901 462.48C626.165 461.84 625.205 461.344 624.021 460.992C622.869 460.608 621.573 460.256 620.133 459.936C618.725 459.616 617.301 459.248 615.861 458.832C614.453 458.384 613.157 457.824 611.973 457.152C610.821 456.448 609.877 455.52 609.141 454.368C608.405 453.216 608.037 451.744 608.037 449.952C608.037 448.128 608.517 446.464 609.477 444.96C610.469 443.424 611.957 442.208 613.941 441.312C615.957 440.384 618.501 439.92 621.573 439.92C623.589 439.92 625.589 440.176 627.573 440.688C629.557 441.2 631.285 441.936 632.757 442.896L630.789 447.744C629.285 446.848 627.733 446.192 626.133 445.776C624.533 445.328 622.997 445.104 621.525 445.104C619.797 445.104 618.389 445.312 617.301 445.728C616.245 446.144 615.461 446.688 614.949 447.36C614.469 448.032 614.229 448.8 614.229 449.664C614.229 450.688 614.581 451.52 615.285 452.16C616.021 452.768 616.965 453.248 618.117 453.6C619.301 453.952 620.613 454.304 622.053 454.656C623.493 454.976 624.917 455.344 626.325 455.76C627.765 456.176 629.061 456.72 630.213 457.392C631.397 458.064 632.341 458.976 633.045 460.128C633.781 461.28 634.149 462.736 634.149 464.496C634.149 466.288 633.653 467.952 632.661 469.488C631.701 470.992 630.213 472.208 628.197 473.136C626.181 474.032 623.637 474.48 620.565 474.48ZM642.843 474V442.8L645.579 445.632H635.739V440.4H649.083V474H642.843ZM669.542 463.152V458.16H682.742V463.152H669.542ZM713.565 474.48C710.941 474.48 708.429 474.112 706.029 473.376C703.629 472.608 701.725 471.632 700.317 470.448L702.477 465.6C703.821 466.656 705.485 467.536 707.469 468.24C709.453 468.944 711.485 469.296 713.565 469.296C715.325 469.296 716.749 469.104 717.837 468.72C718.925 468.336 719.725 467.824 720.237 467.184C720.749 466.512 721.005 465.76 721.005 464.928C721.005 463.904 720.637 463.088 719.901 462.48C719.165 461.84 718.205 461.344 717.021 460.992C715.869 460.608 714.573 460.256 713.133 459.936C711.725 459.616 710.301 459.248 708.861 458.832C707.453 458.384 706.157 457.824 704.973 457.152C703.821 456.448 702.877 455.52 702.141 454.368C701.405 453.216 701.037 451.744 701.037 449.952C701.037 448.128 701.517 446.464 702.477 444.96C703.469 443.424 704.957 442.208 706.941 441.312C708.957 440.384 711.501 439.92 714.573 439.92C716.589 439.92 718.589 440.176 720.573 440.688C722.557 441.2 724.285 441.936 725.757 442.896L723.789 447.744C722.285 446.848 720.733 446.192 719.133 445.776C717.533 445.328 715.997 445.104 714.525 445.104C712.797 445.104 711.389 445.312 710.301 445.728C709.245 446.144 708.461 446.688 707.949 447.36C707.469 448.032 707.229 448.8 707.229 449.664C707.229 450.688 707.581 451.52 708.285 452.16C709.021 452.768 709.965 453.248 711.117 453.6C712.301 453.952 713.613 454.304 715.053 454.656C716.493 454.976 717.917 455.344 719.325 455.76C720.765 456.176 722.061 456.72 723.213 457.392C724.397 458.064 725.341 458.976 726.045 460.128C726.781 461.28 727.149 462.736 727.149 464.496C727.149 466.288 726.653 467.952 725.661 469.488C724.701 470.992 723.213 472.208 721.197 473.136C719.181 474.032 716.637 474.48 713.565 474.48ZM730.504 474V469.824L743.848 457.152C744.968 456.096 745.8 455.168 746.344 454.368C746.888 453.568 747.24 452.832 747.4 452.16C747.592 451.456 747.688 450.8 747.688 450.192C747.688 448.656 747.16 447.472 746.104 446.64C745.048 445.776 743.496 445.344 741.448 445.344C739.816 445.344 738.328 445.632 736.984 446.208C735.672 446.784 734.536 447.664 733.576 448.848L729.208 445.488C730.52 443.728 732.28 442.368 734.488 441.408C736.728 440.416 739.224 439.92 741.976 439.92C744.408 439.92 746.52 440.32 748.312 441.12C750.136 441.888 751.528 442.992 752.488 444.432C753.48 445.872 753.976 447.584 753.976 449.568C753.976 450.656 753.832 451.744 753.544 452.832C753.256 453.888 752.712 455.008 751.912 456.192C751.112 457.376 749.944 458.704 748.408 460.176L736.936 471.072L735.64 468.72H755.272V474H730.504ZM773.147 453.792V448.992H795.275V453.792H773.147ZM773.147 465.408V460.608H795.275V465.408H773.147ZM830.085 448.08C832.133 448.08 833.957 448.48 835.557 449.28C837.189 450.08 838.469 451.312 839.397 452.976C840.325 454.608 840.789 456.72 840.789 459.312V474H834.789V460.08C834.789 457.808 834.245 456.112 833.157 454.992C832.101 453.872 830.613 453.312 828.693 453.312C827.285 453.312 826.037 453.6 824.949 454.176C823.861 454.752 823.013 455.616 822.405 456.768C821.829 457.888 821.541 459.312 821.541 461.04V474H815.541V438.384H821.541V455.28L820.245 453.168C821.141 451.536 822.437 450.288 824.133 449.424C825.861 448.528 827.845 448.08 830.085 448.08ZM853.265 481.76C851.798 479.333 850.652 476.533 849.825 473.36C849.025 470.16 848.625 466.72 848.625 463.04C848.625 459.36 849.025 455.92 849.825 452.72C850.652 449.493 851.798 446.693 853.265 444.32H855.985C854.412 447.067 853.252 449.987 852.505 453.08C851.785 456.147 851.425 459.467 851.425 463.04C851.425 466.613 851.785 469.947 852.505 473.04C853.252 476.107 854.412 479.013 855.985 481.76H853.265ZM862.189 474V446H872.669C875.042 446 877.082 446.387 878.789 447.16C880.496 447.907 881.802 449 882.709 450.44C883.642 451.853 884.109 453.573 884.109 455.6C884.109 457.573 883.642 459.28 882.709 460.72C881.802 462.133 880.496 463.227 878.789 464C877.082 464.747 875.042 465.12 872.669 465.12H863.829L865.149 463.76V474H862.189ZM881.309 474L874.109 463.84H877.309L884.549 474H881.309ZM865.149 464L863.829 462.6H872.589C875.389 462.6 877.509 461.987 878.949 460.76C880.416 459.533 881.149 457.813 881.149 455.6C881.149 453.36 880.416 451.627 878.949 450.4C877.509 449.173 875.389 448.56 872.589 448.56H863.829L865.149 447.16V464ZM901.564 481.76V444.32H904.204V481.76H901.564ZM913.322 481.76V444.32H915.962V481.76H913.322ZM935.548 474V446H946.028C948.402 446 950.442 446.387 952.148 447.16C953.855 447.907 955.162 449 956.068 450.44C957.002 451.853 957.468 453.573 957.468 455.6C957.468 457.573 957.002 459.28 956.068 460.72C955.162 462.133 953.855 463.227 952.148 464C950.442 464.773 948.402 465.16 946.028 465.16H937.188L938.508 463.76V474H935.548ZM938.508 464L937.188 462.56H945.948C948.748 462.56 950.868 461.96 952.308 460.76C953.775 459.533 954.508 457.813 954.508 455.6C954.508 453.36 953.775 451.627 952.308 450.4C950.868 449.173 948.748 448.56 945.948 448.56H937.188L938.508 447.16V464ZM974.728 481.76V444.32H977.368V481.76H974.728ZM986.486 481.76V444.32H989.126V481.76H986.486ZM1066.09 481.76H1063.37C1064.97 479.013 1066.13 476.107 1066.85 473.04C1067.6 469.947 1067.97 466.613 1067.97 463.04C1067.97 459.467 1067.6 456.147 1066.85 453.08C1066.13 449.987 1064.97 447.067 1063.37 444.32H1066.09C1067.61 446.693 1068.77 449.493 1069.57 452.72C1070.37 455.92 1070.77 459.36 1070.77 463.04C1070.77 466.72 1070.37 470.16 1069.57 473.36C1068.77 476.533 1067.61 479.333 1066.09 481.76ZM1107.4 444.576L1100.97 448.128V447.072L1107.4 450.624L1105.53 453.888L1099.34 450.288L1099.96 449.952L1100.01 456.816H1096.36L1096.41 449.952L1097.03 450.288L1090.89 453.888L1088.97 450.624L1095.45 447.072V448.128L1088.97 444.576L1090.89 441.264L1097.03 444.912L1096.41 445.296L1096.36 438.384H1100.01L1099.96 445.296L1099.34 444.912L1105.53 441.264L1107.4 444.576ZM1136.22 474.336C1133.75 474.336 1131.53 473.792 1129.55 472.704C1127.59 471.584 1126.06 470.048 1124.94 468.096C1123.82 466.144 1123.26 463.84 1123.26 461.184C1123.26 458.528 1123.82 456.224 1124.94 454.272C1126.06 452.32 1127.59 450.8 1129.55 449.712C1131.53 448.624 1133.75 448.08 1136.22 448.08C1138.36 448.08 1140.28 448.56 1141.98 449.52C1143.67 450.448 1145.02 451.872 1146.01 453.792C1147 455.712 1147.5 458.176 1147.5 461.184C1147.5 464.16 1147.02 466.624 1146.06 468.576C1145.1 470.496 1143.77 471.936 1142.07 472.896C1140.38 473.856 1138.43 474.336 1136.22 474.336ZM1136.94 469.2C1138.38 469.2 1139.66 468.88 1140.78 468.24C1141.93 467.6 1142.84 466.672 1143.51 465.456C1144.22 464.24 1144.57 462.816 1144.57 461.184C1144.57 459.52 1144.22 458.096 1143.51 456.912C1142.84 455.696 1141.93 454.768 1140.78 454.128C1139.66 453.488 1138.38 453.168 1136.94 453.168C1135.5 453.168 1134.2 453.488 1133.05 454.128C1131.93 454.768 1131.02 455.696 1130.31 456.912C1129.64 458.096 1129.31 459.52 1129.31 461.184C1129.31 462.816 1129.64 464.24 1130.31 465.456C1131.02 466.672 1131.93 467.6 1133.05 468.24C1134.2 468.88 1135.5 469.2 1136.94 469.2ZM1144.71 474V467.952L1144.95 461.136L1144.47 454.32V438.384H1150.43V474H1144.71ZM1183.56 463.152V458.16H1196.76V463.152H1183.56ZM1231.13 448.08C1233.18 448.08 1235 448.48 1236.6 449.28C1238.24 450.08 1239.52 451.312 1240.44 452.976C1241.37 454.608 1241.84 456.72 1241.84 459.312V474H1235.84V460.08C1235.84 457.808 1235.29 456.112 1234.2 454.992C1233.15 453.872 1231.66 453.312 1229.74 453.312C1228.33 453.312 1227.08 453.6 1226 454.176C1224.91 454.752 1224.06 455.616 1223.45 456.768C1222.88 457.888 1222.59 459.312 1222.59 461.04V474H1216.59V438.384H1222.59V455.28L1221.29 453.168C1222.19 451.536 1223.48 450.288 1225.18 449.424C1226.91 448.528 1228.89 448.08 1231.13 448.08ZM1254.31 481.76C1252.85 479.333 1251.7 476.533 1250.87 473.36C1250.07 470.16 1249.67 466.72 1249.67 463.04C1249.67 459.36 1250.07 455.92 1250.87 452.72C1251.7 449.493 1252.85 446.693 1254.31 444.32H1257.03C1255.46 447.067 1254.3 449.987 1253.55 453.08C1252.83 456.147 1252.47 459.467 1252.47 463.04C1252.47 466.613 1252.83 469.947 1253.55 473.04C1254.3 476.107 1255.46 479.013 1257.03 481.76H1254.31ZM1263.24 474V446H1273.72C1276.09 446 1278.13 446.387 1279.84 447.16C1281.54 447.907 1282.85 449 1283.76 450.44C1284.69 451.853 1285.16 453.573 1285.16 455.6C1285.16 457.573 1284.69 459.28 1283.76 460.72C1282.85 462.133 1281.54 463.227 1279.84 464C1278.13 464.747 1276.09 465.12 1273.72 465.12H1264.88L1266.2 463.76V474H1263.24ZM1282.36 474L1275.16 463.84H1278.36L1285.6 474H1282.36ZM1266.2 464L1264.88 462.6H1273.64C1276.44 462.6 1278.56 461.987 1280 460.76C1281.46 459.533 1282.2 457.813 1282.2 455.6C1282.2 453.36 1281.46 451.627 1280 450.4C1278.56 449.173 1276.44 448.56 1273.64 448.56H1264.88L1266.2 447.16V464ZM1302.61 481.76V444.32H1305.25V481.76H1302.61ZM1314.37 481.76V444.32H1317.01V481.76H1314.37ZM1336.6 474V446H1347.08C1349.45 446 1351.49 446.387 1353.2 447.16C1354.9 447.907 1356.21 449 1357.12 450.44C1358.05 451.853 1358.52 453.573 1358.52 455.6C1358.52 457.573 1358.05 459.28 1357.12 460.72C1356.21 462.133 1354.9 463.227 1353.2 464C1351.49 464.773 1349.45 465.16 1347.08 465.16H1338.24L1339.56 463.76V474H1336.6ZM1339.56 464L1338.24 462.56H1347C1349.8 462.56 1351.92 461.96 1353.36 460.76C1354.82 459.533 1355.56 457.813 1355.56 455.6C1355.56 453.36 1354.82 451.627 1353.36 450.4C1351.92 449.173 1349.8 448.56 1347 448.56H1338.24L1339.56 447.16V464ZM1375.77 481.76V444.32H1378.41V481.76H1375.77ZM1387.53 481.76V444.32H1390.17V481.76H1387.53ZM1475.07 481.76H1472.35C1473.95 479.013 1475.11 476.107 1475.83 473.04C1476.57 469.947 1476.95 466.613 1476.95 463.04C1476.95 459.467 1476.57 456.147 1475.83 453.08C1475.11 449.987 1473.95 447.067 1472.35 444.32H1475.07C1476.59 446.693 1477.75 449.493 1478.55 452.72C1479.35 455.92 1479.75 459.36 1479.75 463.04C1479.75 466.72 1479.35 470.16 1478.55 473.36C1477.75 476.533 1476.59 479.333 1475.07 481.76ZM1516.38 444.576L1509.94 448.128V447.072L1516.38 450.624L1514.5 453.888L1508.31 450.288L1508.94 449.952L1508.98 456.816H1505.34L1505.38 449.952L1506.01 450.288L1499.86 453.888L1497.94 450.624L1504.42 447.072V448.128L1497.94 444.576L1499.86 441.264L1506.01 444.912L1505.38 445.296L1505.34 438.384H1508.98L1508.94 445.296L1508.31 444.912L1514.5 441.264L1516.38 444.576ZM1545.19 474.336C1542.73 474.336 1540.51 473.792 1538.52 472.704C1536.57 471.584 1535.03 470.048 1533.91 468.096C1532.79 466.144 1532.23 463.84 1532.23 461.184C1532.23 458.528 1532.79 456.224 1533.91 454.272C1535.03 452.32 1536.57 450.8 1538.52 449.712C1540.51 448.624 1542.73 448.08 1545.19 448.08C1547.34 448.08 1549.26 448.56 1550.95 449.52C1552.65 450.448 1553.99 451.872 1554.99 453.792C1555.98 455.712 1556.47 458.176 1556.47 461.184C1556.47 464.16 1555.99 466.624 1555.03 468.576C1554.07 470.496 1552.75 471.936 1551.05 472.896C1549.35 473.856 1547.4 474.336 1545.19 474.336ZM1545.91 469.2C1547.35 469.2 1548.63 468.88 1549.75 468.24C1550.91 467.6 1551.82 466.672 1552.49 465.456C1553.19 464.24 1553.55 462.816 1553.55 461.184C1553.55 459.52 1553.19 458.096 1552.49 456.912C1551.82 455.696 1550.91 454.768 1549.75 454.128C1548.63 453.488 1547.35 453.168 1545.91 453.168C1544.47 453.168 1543.18 453.488 1542.03 454.128C1540.91 454.768 1539.99 455.696 1539.29 456.912C1538.62 458.096 1538.28 459.52 1538.28 461.184C1538.28 462.816 1538.62 464.24 1539.29 465.456C1539.99 466.672 1540.91 467.6 1542.03 468.24C1543.18 468.88 1544.47 469.2 1545.91 469.2ZM1553.69 474V467.952L1553.93 461.136L1553.45 454.32V438.384H1559.4V474H1553.69Z" fill="#F7931A"/>
<path d="M1014.15 474V448.56H1004.31V446H1026.95V448.56H1017.11V474H1014.15ZM1026.51 474L1035.39 462.48L1035.35 463.88L1026.91 453H1030.11L1037.03 462L1035.83 461.96L1042.75 453H1045.87L1037.35 464L1037.39 462.48L1046.35 474H1043.11L1035.79 464.4L1036.91 464.56L1029.71 474H1026.51ZM1054.28 474V447.2L1055.56 448.56H1047.68V446H1057.16V474H1054.28ZM1415.2 474V448.56H1405.36V446H1428V448.56H1418.16V474H1415.2ZM1427.56 474L1436.44 462.48L1436.4 463.88L1427.96 453H1431.16L1438.08 462L1436.88 461.96L1443.8 453H1446.92L1438.4 464L1438.44 462.48L1447.4 474H1444.16L1436.84 464.4L1437.96 464.56L1430.76 474H1427.56ZM1449.57 474V471.96L1461.21 460.56C1462.28 459.52 1463.08 458.613 1463.61 457.84C1464.15 457.04 1464.51 456.293 1464.69 455.6C1464.88 454.907 1464.97 454.253 1464.97 453.64C1464.97 452.013 1464.41 450.733 1463.29 449.8C1462.2 448.867 1460.57 448.4 1458.41 448.4C1456.76 448.4 1455.29 448.653 1454.01 449.16C1452.76 449.667 1451.68 450.453 1450.77 451.52L1448.73 449.76C1449.83 448.48 1451.23 447.493 1452.93 446.8C1454.64 446.107 1456.55 445.76 1458.65 445.76C1460.55 445.76 1462.19 446.067 1463.57 446.68C1464.96 447.267 1466.03 448.133 1466.77 449.28C1467.55 450.427 1467.93 451.773 1467.93 453.32C1467.93 454.227 1467.8 455.12 1467.53 456C1467.29 456.88 1466.84 457.813 1466.17 458.8C1465.53 459.76 1464.59 460.853 1463.33 462.08L1452.65 472.56L1451.85 471.44H1469.21V474H1449.57Z" fill="white"/>
<path d="M269.265 1162.48C264.657 1162.48 261.041 1161.18 258.417 1158.59C255.825 1156 254.529 1152.26 254.529 1147.36V1128.4H260.769V1147.12C260.769 1150.58 261.505 1153.09 262.977 1154.66C264.481 1156.22 266.593 1157.01 269.313 1157.01C272.033 1157.01 274.129 1156.22 275.601 1154.66C277.073 1153.09 277.809 1150.58 277.809 1147.12V1128.4H283.953V1147.36C283.953 1152.26 282.641 1156 280.017 1158.59C277.425 1161.18 273.841 1162.48 269.265 1162.48ZM306.66 1136.08C308.708 1136.08 310.532 1136.48 312.132 1137.28C313.764 1138.08 315.044 1139.31 315.972 1140.98C316.9 1142.61 317.364 1144.72 317.364 1147.31V1162H311.364V1148.08C311.364 1145.81 310.82 1144.11 309.732 1142.99C308.676 1141.87 307.188 1141.31 305.268 1141.31C303.86 1141.31 302.612 1141.6 301.524 1142.18C300.436 1142.75 299.588 1143.62 298.98 1144.77C298.404 1145.89 298.116 1147.31 298.116 1149.04V1162H292.116V1126.38H298.116V1143.28L296.82 1141.17C297.716 1139.54 299.012 1138.29 300.708 1137.42C302.436 1136.53 304.42 1136.08 306.66 1136.08ZM323.679 1151.15V1146.16H336.879V1151.15H323.679ZM355.433 1162.34C352.809 1162.34 350.473 1161.78 348.425 1160.66C346.377 1159.5 344.761 1157.94 343.577 1155.95C342.393 1153.97 341.801 1151.71 341.801 1149.18C341.801 1146.62 342.393 1144.37 343.577 1142.42C344.761 1140.43 346.377 1138.88 348.425 1137.76C350.473 1136.64 352.809 1136.08 355.433 1136.08C358.089 1136.08 360.441 1136.64 362.489 1137.76C364.569 1138.88 366.185 1140.42 367.337 1142.37C368.521 1144.32 369.113 1146.59 369.113 1149.18C369.113 1151.71 368.521 1153.97 367.337 1155.95C366.185 1157.94 364.569 1159.5 362.489 1160.66C360.441 1161.78 358.089 1162.34 355.433 1162.34ZM355.433 1157.2C356.905 1157.2 358.217 1156.88 359.369 1156.24C360.521 1155.6 361.417 1154.67 362.057 1153.46C362.729 1152.24 363.065 1150.82 363.065 1149.18C363.065 1147.52 362.729 1146.1 362.057 1144.91C361.417 1143.7 360.521 1142.77 359.369 1142.13C358.217 1141.49 356.921 1141.17 355.481 1141.17C354.009 1141.17 352.697 1141.49 351.545 1142.13C350.425 1142.77 349.529 1143.7 348.857 1144.91C348.185 1146.1 347.849 1147.52 347.849 1149.18C347.849 1150.82 348.185 1152.24 348.857 1153.46C349.529 1154.67 350.425 1155.6 351.545 1156.24C352.697 1156.88 353.993 1157.2 355.433 1157.2ZM389.394 1136.08C391.442 1136.08 393.266 1136.48 394.866 1137.28C396.498 1138.08 397.778 1139.31 398.706 1140.98C399.634 1142.61 400.098 1144.72 400.098 1147.31V1162H394.098V1148.08C394.098 1145.81 393.554 1144.11 392.466 1142.99C391.41 1141.87 389.922 1141.31 388.002 1141.31C386.594 1141.31 385.346 1141.6 384.258 1142.18C383.17 1142.75 382.322 1143.62 381.714 1144.77C381.138 1145.89 380.85 1147.31 380.85 1149.04V1162H374.85V1126.38H380.85V1143.28L379.554 1141.17C380.45 1139.54 381.746 1138.29 383.442 1137.42C385.17 1136.53 387.154 1136.08 389.394 1136.08ZM406.125 1169.25L408.909 1158.64L409.725 1162.19C408.605 1162.19 407.661 1161.86 406.893 1161.18C406.157 1160.48 405.789 1159.54 405.789 1158.35C405.789 1157.14 406.157 1156.18 406.893 1155.47C407.661 1154.74 408.589 1154.37 409.677 1154.37C410.797 1154.37 411.725 1154.74 412.461 1155.47C413.197 1156.21 413.565 1157.17 413.565 1158.35C413.565 1158.67 413.533 1159.02 413.469 1159.41C413.405 1159.76 413.293 1160.18 413.133 1160.66C413.005 1161.14 412.781 1161.74 412.461 1162.48L410.013 1169.25H406.125ZM442.342 1162.34C439.526 1162.34 437.35 1161.62 435.814 1160.18C434.278 1158.7 433.51 1156.54 433.51 1153.7V1130.7H439.51V1153.55C439.51 1154.77 439.814 1155.71 440.422 1156.38C441.062 1157.06 441.942 1157.39 443.062 1157.39C444.406 1157.39 445.526 1157.04 446.422 1156.34L448.102 1160.61C447.398 1161.18 446.534 1161.62 445.51 1161.9C444.486 1162.19 443.43 1162.34 442.342 1162.34ZM429.286 1141.36V1136.56H446.374V1141.36H429.286ZM467.582 1136.08C469.63 1136.08 471.454 1136.48 473.054 1137.28C474.686 1138.08 475.966 1139.31 476.894 1140.98C477.822 1142.61 478.286 1144.72 478.286 1147.31V1162H472.286V1148.08C472.286 1145.81 471.742 1144.11 470.654 1142.99C469.598 1141.87 468.11 1141.31 466.19 1141.31C464.782 1141.31 463.534 1141.6 462.446 1142.18C461.358 1142.75 460.51 1143.62 459.902 1144.77C459.326 1145.89 459.038 1147.31 459.038 1149.04V1162H453.038V1126.38H459.038V1143.28L457.742 1141.17C458.638 1139.54 459.934 1138.29 461.63 1137.42C463.358 1136.53 465.342 1136.08 467.582 1136.08ZM497.992 1162.34C495.144 1162.34 492.648 1161.78 490.504 1160.66C488.392 1159.5 486.744 1157.94 485.56 1155.95C484.408 1153.97 483.832 1151.71 483.832 1149.18C483.832 1146.62 484.392 1144.37 485.512 1142.42C486.664 1140.43 488.232 1138.88 490.216 1137.76C492.232 1136.64 494.52 1136.08 497.08 1136.08C499.576 1136.08 501.8 1136.62 503.752 1137.71C505.704 1138.8 507.24 1140.34 508.36 1142.32C509.48 1144.3 510.04 1146.64 510.04 1149.33C510.04 1149.58 510.024 1149.87 509.992 1150.19C509.992 1150.51 509.976 1150.82 509.944 1151.1H488.584V1147.12H506.776L504.424 1148.37C504.456 1146.9 504.152 1145.6 503.512 1144.48C502.872 1143.36 501.992 1142.48 500.872 1141.84C499.784 1141.2 498.52 1140.88 497.08 1140.88C495.608 1140.88 494.312 1141.2 493.192 1141.84C492.104 1142.48 491.24 1143.38 490.6 1144.53C489.992 1145.65 489.688 1146.98 489.688 1148.51V1149.47C489.688 1151.01 490.04 1152.37 490.744 1153.55C491.448 1154.74 492.44 1155.65 493.72 1156.29C495 1156.93 496.472 1157.25 498.136 1157.25C499.576 1157.25 500.872 1157.02 502.024 1156.58C503.176 1156.13 504.2 1155.42 505.096 1154.46L508.312 1158.16C507.16 1159.5 505.704 1160.54 503.944 1161.28C502.216 1161.98 500.232 1162.34 497.992 1162.34ZM543.277 1162.34C541.197 1162.34 539.293 1161.86 537.565 1160.9C535.869 1159.94 534.509 1158.5 533.485 1156.58C532.493 1154.62 531.997 1152.16 531.997 1149.18C531.997 1146.18 532.477 1143.71 533.437 1141.79C534.429 1139.87 535.773 1138.45 537.469 1137.52C539.165 1136.56 541.101 1136.08 543.277 1136.08C545.805 1136.08 548.029 1136.62 549.949 1137.71C551.901 1138.8 553.437 1140.32 554.557 1142.27C555.709 1144.22 556.285 1146.53 556.285 1149.18C556.285 1151.84 555.709 1154.16 554.557 1156.14C553.437 1158.1 551.901 1159.62 549.949 1160.7C548.029 1161.79 545.805 1162.34 543.277 1162.34ZM529.069 1171.31V1136.37H534.781V1142.42L534.589 1149.23L535.069 1156.05V1171.31H529.069ZM542.605 1157.2C544.045 1157.2 545.325 1156.88 546.445 1156.24C547.597 1155.6 548.509 1154.67 549.181 1153.46C549.853 1152.24 550.189 1150.82 550.189 1149.18C550.189 1147.52 549.853 1146.1 549.181 1144.91C548.509 1143.7 547.597 1142.77 546.445 1142.13C545.325 1141.49 544.045 1141.17 542.605 1141.17C541.165 1141.17 539.869 1141.49 538.717 1142.13C537.565 1142.77 536.653 1143.7 535.981 1144.91C535.309 1146.1 534.973 1147.52 534.973 1149.18C534.973 1150.82 535.309 1152.24 535.981 1153.46C536.653 1154.67 537.565 1155.6 538.717 1156.24C539.869 1156.88 541.165 1157.2 542.605 1157.2ZM561.975 1162V1136.37H567.687V1143.42L567.015 1141.36C567.783 1139.63 568.983 1138.32 570.615 1137.42C572.279 1136.53 574.343 1136.08 576.807 1136.08V1141.79C576.551 1141.73 576.311 1141.7 576.087 1141.7C575.863 1141.66 575.639 1141.65 575.415 1141.65C573.143 1141.65 571.335 1142.32 569.991 1143.66C568.647 1144.98 567.975 1146.94 567.975 1149.57V1162H561.975ZM581.897 1162V1136.37H587.897V1162H581.897ZM584.921 1132.14C583.801 1132.14 582.873 1131.79 582.137 1131.09C581.433 1130.38 581.081 1129.54 581.081 1128.54C581.081 1127.52 581.433 1126.67 582.137 1126C582.873 1125.3 583.801 1124.94 584.921 1124.94C586.041 1124.94 586.953 1125.28 587.657 1125.95C588.393 1126.59 588.761 1127.41 588.761 1128.4C588.761 1129.46 588.409 1130.35 587.705 1131.09C587.001 1131.79 586.073 1132.14 584.921 1132.14ZM602.588 1162L591.596 1136.37H597.836L607.292 1158.98H604.22L614.012 1136.37H619.772L608.78 1162H602.588ZM638.517 1162V1156.82L638.181 1155.71V1146.64C638.181 1144.88 637.653 1143.52 636.597 1142.56C635.541 1141.57 633.941 1141.07 631.797 1141.07C630.357 1141.07 628.933 1141.3 627.525 1141.74C626.149 1142.19 624.981 1142.82 624.021 1143.62L621.669 1139.25C623.045 1138.19 624.677 1137.41 626.565 1136.9C628.485 1136.35 630.469 1136.08 632.517 1136.08C636.229 1136.08 639.093 1136.98 641.109 1138.77C643.157 1140.53 644.181 1143.26 644.181 1146.98V1162H638.517ZM630.453 1162.34C628.533 1162.34 626.853 1162.02 625.413 1161.38C623.973 1160.7 622.853 1159.79 622.053 1158.64C621.285 1157.46 620.901 1156.13 620.901 1154.66C620.901 1153.22 621.237 1151.92 621.909 1150.77C622.613 1149.62 623.749 1148.7 625.317 1148.03C626.885 1147.36 628.965 1147.02 631.557 1147.02H638.997V1151.01H631.989C629.941 1151.01 628.565 1151.34 627.861 1152.02C627.157 1152.66 626.805 1153.46 626.805 1154.42C626.805 1155.5 627.237 1156.37 628.101 1157.01C628.965 1157.65 630.165 1157.97 631.701 1157.97C633.173 1157.97 634.485 1157.63 635.637 1156.96C636.821 1156.29 637.669 1155.3 638.181 1153.98L639.189 1157.58C638.613 1159.09 637.573 1160.26 636.069 1161.09C634.597 1161.92 632.725 1162.34 630.453 1162.34ZM661.529 1162.34C658.713 1162.34 656.537 1161.62 655.001 1160.18C653.465 1158.7 652.697 1156.54 652.697 1153.7V1130.7H658.697V1153.55C658.697 1154.77 659.001 1155.71 659.609 1156.38C660.249 1157.06 661.129 1157.39 662.249 1157.39C663.593 1157.39 664.713 1157.04 665.609 1156.34L667.289 1160.61C666.585 1161.18 665.721 1161.62 664.697 1161.9C663.673 1162.19 662.617 1162.34 661.529 1162.34ZM648.473 1141.36V1136.56H665.561V1141.36H648.473ZM683.429 1162.34C680.581 1162.34 678.085 1161.78 675.941 1160.66C673.829 1159.5 672.181 1157.94 670.997 1155.95C669.845 1153.97 669.269 1151.71 669.269 1149.18C669.269 1146.62 669.829 1144.37 670.949 1142.42C672.101 1140.43 673.669 1138.88 675.653 1137.76C677.669 1136.64 679.957 1136.08 682.517 1136.08C685.013 1136.08 687.237 1136.62 689.189 1137.71C691.141 1138.8 692.677 1140.34 693.797 1142.32C694.917 1144.3 695.477 1146.64 695.477 1149.33C695.477 1149.58 695.461 1149.87 695.429 1150.19C695.429 1150.51 695.413 1150.82 695.381 1151.1H674.021V1147.12H692.213L689.861 1148.37C689.893 1146.9 689.589 1145.6 688.949 1144.48C688.309 1143.36 687.429 1142.48 686.309 1141.84C685.221 1141.2 683.957 1140.88 682.517 1140.88C681.045 1140.88 679.749 1141.2 678.629 1141.84C677.541 1142.48 676.677 1143.38 676.037 1144.53C675.429 1145.65 675.125 1146.98 675.125 1148.51V1149.47C675.125 1151.01 675.477 1152.37 676.181 1153.55C676.885 1154.74 677.877 1155.65 679.157 1156.29C680.437 1156.93 681.909 1157.25 683.573 1157.25C685.013 1157.25 686.309 1157.02 687.461 1156.58C688.613 1156.13 689.637 1155.42 690.533 1154.46L693.749 1158.16C692.597 1159.5 691.141 1160.54 689.381 1161.28C687.653 1161.98 685.669 1162.34 683.429 1162.34ZM719.402 1156.29L719.546 1148.75L732.938 1136.37H740.138L728.762 1147.79L725.594 1150.43L719.402 1156.29ZM714.506 1162V1126.38H720.506V1162H714.506ZM733.85 1162L724.49 1150.43L728.282 1145.63L741.146 1162H733.85ZM756.039 1162.34C753.191 1162.34 750.695 1161.78 748.551 1160.66C746.439 1159.5 744.791 1157.94 743.607 1155.95C742.455 1153.97 741.879 1151.71 741.879 1149.18C741.879 1146.62 742.439 1144.37 743.559 1142.42C744.711 1140.43 746.279 1138.88 748.263 1137.76C750.279 1136.64 752.567 1136.08 755.127 1136.08C757.623 1136.08 759.847 1136.62 761.799 1137.71C763.751 1138.8 765.287 1140.34 766.407 1142.32C767.527 1144.3 768.087 1146.64 768.087 1149.33C768.087 1149.58 768.071 1149.87 768.039 1150.19C768.039 1150.51 768.023 1150.82 767.991 1151.1H746.631V1147.12H764.823L762.471 1148.37C762.503 1146.9 762.199 1145.6 761.559 1144.48C760.919 1143.36 760.039 1142.48 758.919 1141.84C757.831 1141.2 756.567 1140.88 755.127 1140.88C753.655 1140.88 752.359 1141.2 751.239 1141.84C750.151 1142.48 749.287 1143.38 748.647 1144.53C748.039 1145.65 747.735 1146.98 747.735 1148.51V1149.47C747.735 1151.01 748.087 1152.37 748.791 1153.55C749.495 1154.74 750.487 1155.65 751.767 1156.29C753.047 1156.93 754.519 1157.25 756.183 1157.25C757.623 1157.25 758.919 1157.02 760.071 1156.58C761.223 1156.13 762.247 1155.42 763.143 1154.46L766.359 1158.16C765.207 1159.5 763.751 1160.54 761.991 1161.28C760.263 1161.98 758.279 1162.34 756.039 1162.34ZM775.493 1171.65C774.245 1171.65 772.997 1171.44 771.749 1171.02C770.501 1170.61 769.461 1170.03 768.629 1169.3L771.029 1164.88C771.637 1165.42 772.325 1165.86 773.093 1166.18C773.861 1166.5 774.645 1166.66 775.445 1166.66C776.533 1166.66 777.413 1166.38 778.085 1165.84C778.757 1165.3 779.381 1164.38 779.957 1163.1L781.445 1159.74L781.925 1159.02L791.621 1136.37H797.381L785.381 1164.06C784.581 1165.98 783.685 1167.5 782.693 1168.62C781.733 1169.74 780.645 1170.53 779.429 1170.98C778.245 1171.42 776.933 1171.65 775.493 1171.65ZM780.773 1162.91L769.205 1136.37H775.445L784.853 1158.5L780.773 1162.91ZM814.397 1162V1136.37H820.397V1162H814.397ZM817.421 1132.14C816.301 1132.14 815.373 1131.79 814.637 1131.09C813.933 1130.38 813.581 1129.54 813.581 1128.54C813.581 1127.52 813.933 1126.67 814.637 1126C815.373 1125.3 816.301 1124.94 817.421 1124.94C818.541 1124.94 819.453 1125.28 820.157 1125.95C820.893 1126.59 821.261 1127.41 821.261 1128.4C821.261 1129.46 820.909 1130.35 820.205 1131.09C819.501 1131.79 818.573 1132.14 817.421 1132.14ZM836.192 1162.34C834.048 1162.34 831.984 1162.06 830 1161.52C828.048 1160.94 826.496 1160.26 825.344 1159.46L827.648 1154.9C828.8 1155.63 830.176 1156.24 831.776 1156.72C833.376 1157.2 834.976 1157.44 836.576 1157.44C838.464 1157.44 839.824 1157.18 840.656 1156.67C841.52 1156.16 841.952 1155.47 841.952 1154.61C841.952 1153.9 841.664 1153.38 841.088 1153.02C840.512 1152.64 839.76 1152.35 838.832 1152.16C837.904 1151.97 836.864 1151.79 835.712 1151.63C834.592 1151.47 833.456 1151.26 832.304 1151.01C831.184 1150.72 830.16 1150.32 829.232 1149.81C828.304 1149.26 827.552 1148.54 826.976 1147.65C826.4 1146.75 826.112 1145.57 826.112 1144.1C826.112 1142.46 826.576 1141.06 827.504 1139.87C828.432 1138.66 829.728 1137.73 831.392 1137.09C833.088 1136.42 835.088 1136.08 837.392 1136.08C839.12 1136.08 840.864 1136.27 842.624 1136.66C844.384 1137.04 845.84 1137.58 846.992 1138.29L844.688 1142.85C843.472 1142.11 842.24 1141.62 840.992 1141.36C839.776 1141.07 838.56 1140.93 837.344 1140.93C835.52 1140.93 834.16 1141.2 833.264 1141.74C832.4 1142.29 831.968 1142.98 831.968 1143.81C831.968 1144.58 832.256 1145.15 832.832 1145.54C833.408 1145.92 834.16 1146.22 835.088 1146.45C836.016 1146.67 837.04 1146.86 838.16 1147.02C839.312 1147.15 840.448 1147.36 841.568 1147.65C842.688 1147.94 843.712 1148.34 844.64 1148.85C845.6 1149.33 846.368 1150.02 846.944 1150.91C847.52 1151.81 847.808 1152.98 847.808 1154.42C847.808 1156.02 847.328 1157.41 846.368 1158.59C845.44 1159.78 844.112 1160.7 842.384 1161.38C840.656 1162.02 838.592 1162.34 836.192 1162.34ZM878.289 1162.34C875.441 1162.34 872.945 1161.78 870.801 1160.66C868.689 1159.5 867.041 1157.94 865.857 1155.95C864.705 1153.97 864.129 1151.71 864.129 1149.18C864.129 1146.62 864.689 1144.37 865.809 1142.42C866.961 1140.43 868.529 1138.88 870.513 1137.76C872.529 1136.64 874.817 1136.08 877.377 1136.08C879.873 1136.08 882.097 1136.62 884.049 1137.71C886.001 1138.8 887.537 1140.34 888.657 1142.32C889.777 1144.3 890.337 1146.64 890.337 1149.33C890.337 1149.58 890.321 1149.87 890.289 1150.19C890.289 1150.51 890.273 1150.82 890.241 1151.1H868.881V1147.12H887.073L884.721 1148.37C884.753 1146.9 884.449 1145.6 883.809 1144.48C883.169 1143.36 882.289 1142.48 881.169 1141.84C880.081 1141.2 878.817 1140.88 877.377 1140.88C875.905 1140.88 874.609 1141.2 873.489 1141.84C872.401 1142.48 871.537 1143.38 870.897 1144.53C870.289 1145.65 869.985 1146.98 869.985 1148.51V1149.47C869.985 1151.01 870.337 1152.37 871.041 1153.55C871.745 1154.74 872.737 1155.65 874.017 1156.29C875.297 1156.93 876.769 1157.25 878.433 1157.25C879.873 1157.25 881.169 1157.02 882.321 1156.58C883.473 1156.13 884.497 1155.42 885.393 1154.46L888.609 1158.16C887.457 1159.5 886.001 1160.54 884.241 1161.28C882.513 1161.98 880.529 1162.34 878.289 1162.34ZM891.893 1162L903.173 1147.31L903.077 1150.53L892.325 1136.37H898.997L906.533 1146.45H903.989L911.573 1136.37H918.053L907.205 1150.53L907.253 1147.31L918.485 1162H911.717L903.797 1151.3L906.293 1151.63L898.517 1162H891.893ZM937.121 1162.34C935.041 1162.34 933.137 1161.86 931.409 1160.9C929.713 1159.94 928.353 1158.5 927.329 1156.58C926.337 1154.62 925.841 1152.16 925.841 1149.18C925.841 1146.18 926.321 1143.71 927.281 1141.79C928.273 1139.87 929.617 1138.45 931.313 1137.52C933.009 1136.56 934.945 1136.08 937.121 1136.08C939.649 1136.08 941.873 1136.62 943.793 1137.71C945.745 1138.8 947.281 1140.32 948.401 1142.27C949.553 1144.22 950.129 1146.53 950.129 1149.18C950.129 1151.84 949.553 1154.16 948.401 1156.14C947.281 1158.1 945.745 1159.62 943.793 1160.7C941.873 1161.79 939.649 1162.34 937.121 1162.34ZM922.913 1171.31V1136.37H928.625V1142.42L928.433 1149.23L928.913 1156.05V1171.31H922.913ZM936.449 1157.2C937.889 1157.2 939.169 1156.88 940.289 1156.24C941.441 1155.6 942.353 1154.67 943.025 1153.46C943.697 1152.24 944.033 1150.82 944.033 1149.18C944.033 1147.52 943.697 1146.1 943.025 1144.91C942.353 1143.7 941.441 1142.77 940.289 1142.13C939.169 1141.49 937.889 1141.17 936.449 1141.17C935.009 1141.17 933.713 1141.49 932.561 1142.13C931.409 1142.77 930.497 1143.7 929.825 1144.91C929.153 1146.1 928.817 1147.52 928.817 1149.18C928.817 1150.82 929.153 1152.24 929.825 1153.46C930.497 1154.67 931.409 1155.6 932.561 1156.24C933.713 1156.88 935.009 1157.2 936.449 1157.2ZM967.339 1162.34C964.715 1162.34 962.379 1161.78 960.331 1160.66C958.283 1159.5 956.667 1157.94 955.483 1155.95C954.299 1153.97 953.707 1151.71 953.707 1149.18C953.707 1146.62 954.299 1144.37 955.483 1142.42C956.667 1140.43 958.283 1138.88 960.331 1137.76C962.379 1136.64 964.715 1136.08 967.339 1136.08C969.995 1136.08 972.347 1136.64 974.395 1137.76C976.475 1138.88 978.091 1140.42 979.243 1142.37C980.427 1144.32 981.019 1146.59 981.019 1149.18C981.019 1151.71 980.427 1153.97 979.243 1155.95C978.091 1157.94 976.475 1159.5 974.395 1160.66C972.347 1161.78 969.995 1162.34 967.339 1162.34ZM967.339 1157.2C968.811 1157.2 970.123 1156.88 971.275 1156.24C972.427 1155.6 973.323 1154.67 973.963 1153.46C974.635 1152.24 974.971 1150.82 974.971 1149.18C974.971 1147.52 974.635 1146.1 973.963 1144.91C973.323 1143.7 972.427 1142.77 971.275 1142.13C970.123 1141.49 968.827 1141.17 967.387 1141.17C965.915 1141.17 964.603 1141.49 963.451 1142.13C962.331 1142.77 961.435 1143.7 960.763 1144.91C960.091 1146.1 959.755 1147.52 959.755 1149.18C959.755 1150.82 960.091 1152.24 960.763 1153.46C961.435 1154.67 962.331 1155.6 963.451 1156.24C964.603 1156.88 965.899 1157.2 967.339 1157.2ZM994.676 1162.34C992.532 1162.34 990.468 1162.06 988.484 1161.52C986.532 1160.94 984.98 1160.26 983.828 1159.46L986.132 1154.9C987.284 1155.63 988.66 1156.24 990.26 1156.72C991.86 1157.2 993.46 1157.44 995.06 1157.44C996.948 1157.44 998.308 1157.18 999.14 1156.67C1000 1156.16 1000.44 1155.47 1000.44 1154.61C1000.44 1153.9 1000.15 1153.38 999.572 1153.02C998.996 1152.64 998.244 1152.35 997.316 1152.16C996.388 1151.97 995.348 1151.79 994.196 1151.63C993.076 1151.47 991.94 1151.26 990.788 1151.01C989.668 1150.72 988.644 1150.32 987.716 1149.81C986.788 1149.26 986.036 1148.54 985.46 1147.65C984.884 1146.75 984.596 1145.57 984.596 1144.1C984.596 1142.46 985.06 1141.06 985.988 1139.87C986.916 1138.66 988.212 1137.73 989.876 1137.09C991.572 1136.42 993.572 1136.08 995.876 1136.08C997.604 1136.08 999.348 1136.27 1001.11 1136.66C1002.87 1137.04 1004.32 1137.58 1005.48 1138.29L1003.17 1142.85C1001.96 1142.11 1000.72 1141.62 999.476 1141.36C998.26 1141.07 997.044 1140.93 995.828 1140.93C994.004 1140.93 992.644 1141.2 991.748 1141.74C990.884 1142.29 990.452 1142.98 990.452 1143.81C990.452 1144.58 990.74 1145.15 991.316 1145.54C991.892 1145.92 992.644 1146.22 993.572 1146.45C994.5 1146.67 995.524 1146.86 996.644 1147.02C997.796 1147.15 998.932 1147.36 1000.05 1147.65C1001.17 1147.94 1002.2 1148.34 1003.12 1148.85C1004.08 1149.33 1004.85 1150.02 1005.43 1150.91C1006 1151.81 1006.29 1152.98 1006.29 1154.42C1006.29 1156.02 1005.81 1157.41 1004.85 1158.59C1003.92 1159.78 1002.6 1160.7 1000.87 1161.38C999.14 1162.02 997.076 1162.34 994.676 1162.34ZM1023.51 1162.34C1020.66 1162.34 1018.16 1161.78 1016.02 1160.66C1013.91 1159.5 1012.26 1157.94 1011.08 1155.95C1009.92 1153.97 1009.35 1151.71 1009.35 1149.18C1009.35 1146.62 1009.91 1144.37 1011.03 1142.42C1012.18 1140.43 1013.75 1138.88 1015.73 1137.76C1017.75 1136.64 1020.04 1136.08 1022.6 1136.08C1025.09 1136.08 1027.32 1136.62 1029.27 1137.71C1031.22 1138.8 1032.76 1140.34 1033.88 1142.32C1035 1144.3 1035.56 1146.64 1035.56 1149.33C1035.56 1149.58 1035.54 1149.87 1035.51 1150.19C1035.51 1150.51 1035.49 1150.82 1035.46 1151.1H1014.1V1147.12H1032.29L1029.94 1148.37C1029.97 1146.9 1029.67 1145.6 1029.03 1144.48C1028.39 1143.36 1027.51 1142.48 1026.39 1141.84C1025.3 1141.2 1024.04 1140.88 1022.6 1140.88C1021.12 1140.88 1019.83 1141.2 1018.71 1141.84C1017.62 1142.48 1016.76 1143.38 1016.12 1144.53C1015.51 1145.65 1015.2 1146.98 1015.2 1148.51V1149.47C1015.2 1151.01 1015.56 1152.37 1016.26 1153.55C1016.96 1154.74 1017.96 1155.65 1019.24 1156.29C1020.52 1156.93 1021.99 1157.25 1023.65 1157.25C1025.09 1157.25 1026.39 1157.02 1027.54 1156.58C1028.69 1156.13 1029.72 1155.42 1030.61 1154.46L1033.83 1158.16C1032.68 1159.5 1031.22 1160.54 1029.46 1161.28C1027.73 1161.98 1025.75 1162.34 1023.51 1162.34ZM1052.17 1162.34C1049.7 1162.34 1047.48 1161.79 1045.49 1160.7C1043.54 1159.58 1042.01 1158.05 1040.89 1156.1C1039.77 1154.14 1039.21 1151.84 1039.21 1149.18C1039.21 1146.53 1039.77 1144.22 1040.89 1142.27C1042.01 1140.32 1043.54 1138.8 1045.49 1137.71C1047.48 1136.62 1049.7 1136.08 1052.17 1136.08C1054.31 1136.08 1056.23 1136.56 1057.93 1137.52C1059.62 1138.45 1060.97 1139.87 1061.96 1141.79C1062.95 1143.71 1063.45 1146.18 1063.45 1149.18C1063.45 1152.16 1062.97 1154.62 1062.01 1156.58C1061.05 1158.5 1059.72 1159.94 1058.02 1160.9C1056.33 1161.86 1054.37 1162.34 1052.17 1162.34ZM1052.89 1157.2C1054.33 1157.2 1055.61 1156.88 1056.73 1156.24C1057.88 1155.6 1058.79 1154.67 1059.46 1153.46C1060.17 1152.24 1060.52 1150.82 1060.52 1149.18C1060.52 1147.52 1060.17 1146.1 1059.46 1144.91C1058.79 1143.7 1057.88 1142.77 1056.73 1142.13C1055.61 1141.49 1054.33 1141.17 1052.89 1141.17C1051.45 1141.17 1050.15 1141.49 1049 1142.13C1047.88 1142.77 1046.97 1143.7 1046.26 1144.91C1045.59 1146.1 1045.25 1147.52 1045.25 1149.18C1045.25 1150.82 1045.59 1152.24 1046.26 1153.46C1046.97 1154.67 1047.88 1155.6 1049 1156.24C1050.15 1156.88 1051.45 1157.2 1052.89 1157.2ZM1060.66 1162V1155.95L1060.9 1149.14L1060.42 1142.32V1126.38H1066.37V1162H1060.66ZM1074.66 1150.86L1073.5 1128.4H1080.61L1079.41 1150.86H1074.66ZM1077.06 1162.34C1075.94 1162.34 1075.01 1161.97 1074.27 1161.23C1073.54 1160.5 1073.17 1159.62 1073.17 1158.59C1073.17 1157.57 1073.54 1156.7 1074.27 1156C1075.01 1155.26 1075.94 1154.9 1077.06 1154.9C1078.18 1154.9 1079.09 1155.26 1079.79 1156C1080.5 1156.7 1080.85 1157.57 1080.85 1158.59C1080.85 1159.62 1080.5 1160.5 1079.79 1161.23C1079.09 1161.97 1078.18 1162.34 1077.06 1162.34Z" fill="#FF6262"/>
</svg>
