<svg width="2030" height="622" viewBox="0 0 2030 622" fill="none" xmlns="http://www.w3.org/2000/svg">
<rect width="2030" height="622" fill="white"/>
<rect x="377.5" y="231.5" width="1274" height="151" rx="22.5" fill="#F3F3F3" stroke="#1E1E1E"/>
<path d="M479.782 337.96C474.534 337.96 469.51 337.224 464.71 335.752C459.91 334.216 456.102 332.264 453.286 329.896L457.606 320.2C460.294 322.312 463.622 324.072 467.59 325.48C471.558 326.888 475.622 327.592 479.782 327.592C483.302 327.592 486.15 327.208 488.326 326.44C490.502 325.672 492.102 324.648 493.126 323.368C494.15 322.024 494.662 320.52 494.662 318.856C494.662 316.808 493.926 315.176 492.454 313.96C490.982 312.68 489.062 311.688 486.694 310.984C484.39 310.216 481.798 309.512 478.918 308.872C476.102 308.232 473.254 307.496 470.374 306.664C467.558 305.768 464.966 304.648 462.598 303.304C460.294 301.896 458.406 300.04 456.934 297.736C455.462 295.432 454.726 292.488 454.726 288.904C454.726 285.256 455.686 281.928 457.606 278.92C459.59 275.848 462.566 273.416 466.534 271.624C470.566 269.768 475.654 268.84 481.798 268.84C485.83 268.84 489.83 269.352 493.798 270.376C497.766 271.4 501.222 272.872 504.166 274.792L500.23 284.488C497.222 282.696 494.118 281.384 490.918 280.552C487.718 279.656 484.646 279.208 481.702 279.208C478.246 279.208 475.43 279.624 473.254 280.456C471.142 281.288 469.574 282.376 468.55 283.72C467.59 285.064 467.11 286.6 467.11 288.328C467.11 290.376 467.814 292.04 469.222 293.32C470.694 294.536 472.582 295.496 474.886 296.2C477.254 296.904 479.878 297.608 482.758 298.312C485.638 298.952 488.486 299.688 491.302 300.52C494.182 301.352 496.774 302.44 499.078 303.784C501.446 305.128 503.334 306.952 504.742 309.256C506.214 311.56 506.95 314.472 506.95 317.992C506.95 321.576 505.958 324.904 503.974 327.976C502.054 330.984 499.078 333.416 495.046 335.272C491.014 337.064 485.926 337.96 479.782 337.96ZM543.072 296.584V286.984H587.328V296.584H543.072ZM543.072 319.816V310.216H587.328V319.816H543.072ZM712.831 315.304V305.32H739.231V315.304H712.831ZM807.98 285.16C812.076 285.16 815.724 285.96 818.924 287.56C822.188 289.16 824.748 291.624 826.604 294.952C828.46 298.216 829.388 302.44 829.388 307.624V337H817.388V309.16C817.388 304.616 816.3 301.224 814.124 298.984C812.012 296.744 809.036 295.624 805.196 295.624C802.38 295.624 799.884 296.2 797.708 297.352C795.532 298.504 793.836 300.232 792.62 302.536C791.468 304.776 790.892 307.624 790.892 311.08V337H778.892V265.768H790.892V299.56L788.3 295.336C790.092 292.072 792.684 289.576 796.076 287.848C799.532 286.056 803.5 285.16 807.98 285.16ZM851.258 349.804C848.838 345.8 846.946 341.18 845.582 335.944C844.262 330.664 843.602 324.988 843.602 318.916C843.602 312.844 844.262 307.168 845.582 301.888C846.946 296.564 848.838 291.944 851.258 288.028H855.746C853.15 292.56 851.236 297.378 850.004 302.482C848.816 307.542 848.222 313.02 848.222 318.916C848.222 324.812 848.816 330.312 850.004 335.416C851.236 340.476 853.15 345.272 855.746 349.804H851.258ZM865.983 337V290.8H883.275C887.191 290.8 890.557 291.438 893.373 292.714C896.189 293.946 898.345 295.75 899.841 298.126C901.381 300.458 902.151 303.296 902.151 306.64C902.151 309.896 901.381 312.712 899.841 315.088C898.345 317.42 896.189 319.224 893.373 320.5C890.557 321.732 887.191 322.348 883.275 322.348H868.689L870.867 320.104V337H865.983ZM897.531 337L885.651 320.236H890.931L902.877 337H897.531ZM870.867 320.5L868.689 318.19H883.143C887.763 318.19 891.261 317.178 893.637 315.154C896.057 313.13 897.267 310.292 897.267 306.64C897.267 302.944 896.057 300.084 893.637 298.06C891.261 296.036 887.763 295.024 883.143 295.024H868.689L870.867 292.714V320.5ZM930.952 349.804V288.028H935.308V349.804H930.952ZM950.352 349.804V288.028H954.708V349.804H950.352ZM987.026 337V290.8H1004.32C1008.23 290.8 1011.6 291.438 1014.42 292.714C1017.23 293.946 1019.39 295.75 1020.88 298.126C1022.42 300.458 1023.19 303.296 1023.19 306.64C1023.19 309.896 1022.42 312.712 1020.88 315.088C1019.39 317.42 1017.23 319.224 1014.42 320.5C1011.6 321.776 1008.23 322.414 1004.32 322.414H989.732L991.91 320.104V337H987.026ZM991.91 320.5L989.732 318.124H1004.19C1008.81 318.124 1012.3 317.134 1014.68 315.154C1017.1 313.13 1018.31 310.292 1018.31 306.64C1018.31 302.944 1017.1 300.084 1014.68 298.06C1012.3 296.036 1008.81 295.024 1004.19 295.024H989.732L991.91 292.714V320.5ZM1051.67 349.804V288.028H1056.03V349.804H1051.67ZM1071.07 349.804V288.028H1075.43V349.804H1071.07ZM1150.05 302.02C1152.87 302.02 1155.31 302.57 1157.38 303.67C1159.49 304.726 1161.12 306.354 1162.26 308.554C1163.45 310.754 1164.04 313.526 1164.04 316.87V337H1159.36V317.332C1159.36 313.68 1158.48 310.93 1156.72 309.082C1155 307.19 1152.56 306.244 1149.39 306.244C1147.02 306.244 1144.95 306.75 1143.19 307.762C1141.47 308.73 1140.13 310.16 1139.16 312.052C1138.24 313.9 1137.78 316.144 1137.78 318.784V337H1133.09V317.332C1133.09 313.68 1132.21 310.93 1130.45 309.082C1128.69 307.19 1126.23 306.244 1123.06 306.244C1120.73 306.244 1118.68 306.75 1116.92 307.762C1115.16 308.73 1113.8 310.16 1112.83 312.052C1111.9 313.9 1111.44 316.144 1111.44 318.784V337H1106.76V302.35H1111.24V311.722L1110.52 310.072C1111.57 307.564 1113.27 305.606 1115.6 304.198C1117.98 302.746 1120.77 302.02 1123.98 302.02C1127.37 302.02 1130.25 302.878 1132.63 304.594C1135 306.266 1136.54 308.796 1137.25 312.184L1135.4 311.458C1136.41 308.642 1138.19 306.376 1140.75 304.66C1143.34 302.9 1146.44 302.02 1150.05 302.02ZM1191.47 337.33C1187.86 337.33 1184.69 336.582 1181.97 335.086C1179.24 333.546 1177.1 331.456 1175.56 328.816C1174.02 326.132 1173.25 323.074 1173.25 319.642C1173.25 316.21 1173.98 313.174 1175.43 310.534C1176.93 307.894 1178.95 305.826 1181.5 304.33C1184.1 302.79 1187 302.02 1190.22 302.02C1193.47 302.02 1196.35 302.768 1198.86 304.264C1201.41 305.716 1203.42 307.784 1204.87 310.468C1206.32 313.108 1207.05 316.166 1207.05 319.642C1207.05 319.862 1207.02 320.104 1206.98 320.368C1206.98 320.588 1206.98 320.83 1206.98 321.094H1176.82V317.596H1204.47L1202.62 318.982C1202.62 316.474 1202.07 314.252 1200.97 312.316C1199.92 310.336 1198.47 308.796 1196.62 307.696C1194.77 306.596 1192.64 306.046 1190.22 306.046C1187.84 306.046 1185.71 306.596 1183.81 307.696C1181.92 308.796 1180.45 310.336 1179.39 312.316C1178.34 314.296 1177.81 316.562 1177.81 319.114V319.84C1177.81 322.48 1178.38 324.812 1179.52 326.836C1180.71 328.816 1182.34 330.378 1184.41 331.522C1186.52 332.622 1188.92 333.172 1191.6 333.172C1193.71 333.172 1195.67 332.798 1197.48 332.05C1199.32 331.302 1200.91 330.158 1202.23 328.618L1204.87 331.654C1203.33 333.502 1201.39 334.91 1199.06 335.878C1196.77 336.846 1194.24 337.33 1191.47 337.33ZM1225.89 337.33C1223.03 337.33 1220.32 336.934 1217.77 336.142C1215.22 335.306 1213.22 334.272 1211.77 333.04L1213.88 329.344C1215.29 330.4 1217.09 331.324 1219.29 332.116C1221.49 332.864 1223.8 333.238 1226.22 333.238C1229.52 333.238 1231.9 332.732 1233.35 331.72C1234.8 330.664 1235.53 329.278 1235.53 327.562C1235.53 326.286 1235.11 325.296 1234.27 324.592C1233.48 323.844 1232.42 323.294 1231.1 322.942C1229.78 322.546 1228.31 322.216 1226.68 321.952C1225.05 321.688 1223.43 321.38 1221.8 321.028C1220.21 320.676 1218.76 320.17 1217.44 319.51C1216.12 318.806 1215.04 317.86 1214.21 316.672C1213.42 315.484 1213.02 313.9 1213.02 311.92C1213.02 310.028 1213.55 308.334 1214.6 306.838C1215.66 305.342 1217.2 304.176 1219.22 303.34C1221.29 302.46 1223.8 302.02 1226.75 302.02C1228.99 302.02 1231.24 302.328 1233.48 302.944C1235.72 303.516 1237.57 304.286 1239.02 305.254L1236.98 309.016C1235.44 307.96 1233.79 307.212 1232.03 306.772C1230.27 306.288 1228.51 306.046 1226.75 306.046C1223.62 306.046 1221.31 306.596 1219.82 307.696C1218.37 308.752 1217.64 310.116 1217.64 311.788C1217.64 313.108 1218.04 314.142 1218.83 314.89C1219.66 315.638 1220.74 316.232 1222.06 316.672C1223.43 317.068 1224.9 317.398 1226.48 317.662C1228.11 317.926 1229.72 318.256 1231.3 318.652C1232.93 319.004 1234.4 319.51 1235.72 320.17C1237.09 320.786 1238.17 321.688 1238.96 322.876C1239.79 324.02 1240.21 325.538 1240.21 327.43C1240.21 329.454 1239.64 331.214 1238.5 332.71C1237.4 334.162 1235.77 335.306 1233.61 336.142C1231.5 336.934 1228.93 337.33 1225.89 337.33ZM1258.12 337.33C1255.26 337.33 1252.55 336.934 1250 336.142C1247.45 335.306 1245.45 334.272 1243.99 333.04L1246.11 329.344C1247.51 330.4 1249.32 331.324 1251.52 332.116C1253.72 332.864 1256.03 333.238 1258.45 333.238C1261.75 333.238 1264.12 332.732 1265.58 331.72C1267.03 330.664 1267.75 329.278 1267.75 327.562C1267.75 326.286 1267.34 325.296 1266.5 324.592C1265.71 323.844 1264.65 323.294 1263.33 322.942C1262.01 322.546 1260.54 322.216 1258.91 321.952C1257.28 321.688 1255.65 321.38 1254.03 321.028C1252.44 320.676 1250.99 320.17 1249.67 319.51C1248.35 318.806 1247.27 317.86 1246.44 316.672C1245.64 315.484 1245.25 313.9 1245.25 311.92C1245.25 310.028 1245.78 308.334 1246.83 306.838C1247.89 305.342 1249.43 304.176 1251.45 303.34C1253.52 302.46 1256.03 302.02 1258.98 302.02C1261.22 302.02 1263.46 302.328 1265.71 302.944C1267.95 303.516 1269.8 304.286 1271.25 305.254L1269.21 309.016C1267.67 307.96 1266.02 307.212 1264.26 306.772C1262.5 306.288 1260.74 306.046 1258.98 306.046C1255.85 306.046 1253.54 306.596 1252.05 307.696C1250.59 308.752 1249.87 310.116 1249.87 311.788C1249.87 313.108 1250.26 314.142 1251.06 314.89C1251.89 315.638 1252.97 316.232 1254.29 316.672C1255.65 317.068 1257.13 317.398 1258.71 317.662C1260.34 317.926 1261.95 318.256 1263.53 318.652C1265.16 319.004 1266.63 319.51 1267.95 320.17C1269.32 320.786 1270.39 321.688 1271.19 322.876C1272.02 324.02 1272.44 325.538 1272.44 327.43C1272.44 329.454 1271.87 331.214 1270.72 332.71C1269.62 334.162 1268 335.306 1265.84 336.142C1263.73 336.934 1261.15 337.33 1258.12 337.33ZM1302.75 337V329.344L1302.55 328.09V315.286C1302.55 312.338 1301.72 310.072 1300.05 308.488C1298.42 306.904 1295.98 306.112 1292.72 306.112C1290.48 306.112 1288.34 306.486 1286.32 307.234C1284.29 307.982 1282.58 308.972 1281.17 310.204L1279.06 306.706C1280.82 305.21 1282.93 304.066 1285.39 303.274C1287.86 302.438 1290.45 302.02 1293.18 302.02C1297.67 302.02 1301.12 303.142 1303.54 305.386C1306.01 307.586 1307.24 310.952 1307.24 315.484V337H1302.75ZM1290.81 337.33C1288.21 337.33 1285.94 336.912 1284.01 336.076C1282.12 335.196 1280.66 334.008 1279.65 332.512C1278.64 330.972 1278.13 329.212 1278.13 327.232C1278.13 325.428 1278.55 323.8 1279.39 322.348C1280.27 320.852 1281.68 319.664 1283.61 318.784C1285.59 317.86 1288.23 317.398 1291.53 317.398H1303.48V320.896H1291.66C1288.32 320.896 1285.99 321.49 1284.67 322.678C1283.39 323.866 1282.75 325.34 1282.75 327.1C1282.75 329.08 1283.52 330.664 1285.06 331.852C1286.6 333.04 1288.76 333.634 1291.53 333.634C1294.17 333.634 1296.44 333.04 1298.33 331.852C1300.27 330.62 1301.67 328.86 1302.55 326.572L1303.61 329.806C1302.73 332.094 1301.19 333.92 1298.99 335.284C1296.83 336.648 1294.11 337.33 1290.81 337.33ZM1334.75 350.134C1331.58 350.134 1328.55 349.672 1325.64 348.748C1322.74 347.824 1320.39 346.504 1318.58 344.788L1320.96 341.224C1322.59 342.676 1324.59 343.82 1326.96 344.656C1329.38 345.536 1331.94 345.976 1334.62 345.976C1339.02 345.976 1342.25 344.942 1344.32 342.874C1346.39 340.85 1347.42 337.682 1347.42 333.37V324.724L1348.08 318.784L1347.62 312.844V302.35H1352.11V332.776C1352.11 338.76 1350.64 343.138 1347.69 345.91C1344.78 348.726 1340.47 350.134 1334.75 350.134ZM1333.89 335.68C1330.59 335.68 1327.62 334.976 1324.98 333.568C1322.34 332.116 1320.25 330.114 1318.71 327.562C1317.22 325.01 1316.47 322.084 1316.47 318.784C1316.47 315.484 1317.22 312.58 1318.71 310.072C1320.25 307.52 1322.34 305.54 1324.98 304.132C1327.62 302.724 1330.59 302.02 1333.89 302.02C1336.97 302.02 1339.75 302.658 1342.21 303.934C1344.67 305.21 1346.63 307.102 1348.08 309.61C1349.54 312.118 1350.26 315.176 1350.26 318.784C1350.26 322.392 1349.54 325.45 1348.08 327.958C1346.63 330.466 1344.67 332.38 1342.21 333.7C1339.75 335.02 1336.97 335.68 1333.89 335.68ZM1334.36 331.522C1336.91 331.522 1339.17 330.994 1341.15 329.938C1343.13 328.838 1344.7 327.342 1345.84 325.45C1346.98 323.514 1347.56 321.292 1347.56 318.784C1347.56 316.276 1346.98 314.076 1345.84 312.184C1344.7 310.292 1343.13 308.818 1341.15 307.762C1339.17 306.662 1336.91 306.112 1334.36 306.112C1331.85 306.112 1329.58 306.662 1327.56 307.762C1325.58 308.818 1324.02 310.292 1322.87 312.184C1321.77 314.076 1321.22 316.276 1321.22 318.784C1321.22 321.292 1321.77 323.514 1322.87 325.45C1324.02 327.342 1325.58 328.838 1327.56 329.938C1329.58 330.994 1331.85 331.522 1334.36 331.522ZM1379.87 337.33C1376.26 337.33 1373.09 336.582 1370.36 335.086C1367.64 333.546 1365.5 331.456 1363.96 328.816C1362.42 326.132 1361.65 323.074 1361.65 319.642C1361.65 316.21 1362.38 313.174 1363.83 310.534C1365.33 307.894 1367.35 305.826 1369.9 304.33C1372.5 302.79 1375.4 302.02 1378.61 302.02C1381.87 302.02 1384.75 302.768 1387.26 304.264C1389.81 305.716 1391.81 307.784 1393.27 310.468C1394.72 313.108 1395.44 316.166 1395.44 319.642C1395.44 319.862 1395.42 320.104 1395.38 320.368C1395.38 320.588 1395.38 320.83 1395.38 321.094H1365.22V317.596H1392.87L1391.02 318.982C1391.02 316.474 1390.47 314.252 1389.37 312.316C1388.32 310.336 1386.86 308.796 1385.02 307.696C1383.17 306.596 1381.03 306.046 1378.61 306.046C1376.24 306.046 1374.1 306.596 1372.21 307.696C1370.32 308.796 1368.85 310.336 1367.79 312.316C1366.73 314.296 1366.21 316.562 1366.21 319.114V319.84C1366.21 322.48 1366.78 324.812 1367.92 326.836C1369.11 328.816 1370.74 330.378 1372.81 331.522C1374.92 332.622 1377.32 333.172 1380 333.172C1382.11 333.172 1384.07 332.798 1385.87 332.05C1387.72 331.302 1389.31 330.158 1390.63 328.618L1393.27 331.654C1391.73 333.502 1389.79 334.91 1387.46 335.878C1385.17 336.846 1382.64 337.33 1379.87 337.33ZM1405.58 349.804H1401.09C1403.73 345.272 1405.64 340.476 1406.83 335.416C1408.06 330.312 1408.68 324.812 1408.68 318.916C1408.68 313.02 1408.06 307.542 1406.83 302.482C1405.64 297.378 1403.73 292.56 1401.09 288.028H1405.58C1408.08 291.944 1410 296.564 1411.32 301.888C1412.64 307.168 1413.3 312.844 1413.3 318.916C1413.3 324.988 1412.64 330.664 1411.32 335.944C1410 341.18 1408.08 345.8 1405.58 349.804ZM1485.1 278.152L1472.24 285.256V283.144L1485.1 290.248L1481.36 296.776L1468.97 289.576L1470.22 288.904L1470.32 302.632H1463.02L1463.12 288.904L1464.36 289.576L1452.08 296.776L1448.24 290.248L1461.2 283.144V285.256L1448.24 278.152L1452.08 271.528L1464.36 278.824L1463.12 279.592L1463.02 265.768H1470.32L1470.22 279.592L1468.97 278.824L1481.36 271.528L1485.1 278.152ZM1542.74 337.672C1537.81 337.672 1533.36 336.584 1529.39 334.408C1525.49 332.168 1522.42 329.096 1520.18 325.192C1517.94 321.288 1516.82 316.68 1516.82 311.368C1516.82 306.056 1517.94 301.448 1520.18 297.544C1522.42 293.64 1525.49 290.6 1529.39 288.424C1533.36 286.248 1537.81 285.16 1542.74 285.16C1547.02 285.16 1550.86 286.12 1554.26 288.04C1557.65 289.896 1560.34 292.744 1562.32 296.584C1564.3 300.424 1565.3 305.352 1565.3 311.368C1565.3 317.32 1564.34 322.248 1562.42 326.152C1560.5 329.992 1557.84 332.872 1554.45 334.792C1551.06 336.712 1547.15 337.672 1542.74 337.672ZM1544.18 327.4C1547.06 327.4 1549.62 326.76 1551.86 325.48C1554.16 324.2 1555.98 322.344 1557.33 319.912C1558.74 317.48 1559.44 314.632 1559.44 311.368C1559.44 308.04 1558.74 305.192 1557.33 302.824C1555.98 300.392 1554.16 298.536 1551.86 297.256C1549.62 295.976 1547.06 295.336 1544.18 295.336C1541.3 295.336 1538.7 295.976 1536.4 297.256C1534.16 298.536 1532.34 300.392 1530.93 302.824C1529.58 305.192 1528.91 308.04 1528.91 311.368C1528.91 314.632 1529.58 317.48 1530.93 319.912C1532.34 322.344 1534.16 324.2 1536.4 325.48C1538.7 326.76 1541.3 327.4 1544.18 327.4ZM1559.73 337V324.904L1560.21 311.272L1559.25 297.64V265.768H1571.15V337H1559.73Z" fill="#F7931A"/>
<path d="M637.652 325.576L637.94 310.504L664.724 285.736H679.124L656.372 308.584L650.036 313.864L637.652 325.576ZM627.86 337V265.768H639.86V337H627.86ZM666.548 337L647.828 313.864L655.412 304.264L681.14 337H666.548Z" fill="#FF6262"/>
<path d="M408.233 545.24C405.966 545.24 403.979 544.747 402.273 543.76C400.593 542.747 399.419 541.44 398.753 539.84C398.619 539.52 398.553 539.28 398.553 539.12C398.553 538.88 398.646 538.667 398.833 538.48C399.019 538.293 399.246 538.2 399.513 538.2C399.993 538.2 400.299 538.44 400.433 538.92C400.939 540.36 401.953 541.507 403.473 542.36C404.993 543.213 406.633 543.64 408.393 543.64C409.753 543.64 410.979 543.4 412.073 542.92C413.166 542.413 414.019 541.72 414.633 540.84C415.273 539.96 415.593 538.96 415.593 537.84C415.593 536.48 415.059 535.307 413.993 534.32C412.926 533.333 411.179 532.507 408.753 531.84C406.193 531.12 404.113 530.187 402.513 529.04C400.913 527.867 400.113 526.32 400.113 524.4C400.113 523.147 400.473 522.04 401.193 521.08C401.939 520.093 402.979 519.333 404.313 518.8C405.646 518.24 407.193 517.96 408.953 517.96C411.566 517.96 413.593 518.44 415.033 519.4C416.473 520.333 417.233 521.6 417.313 523.2V523.28C417.313 523.493 417.233 523.68 417.073 523.84C416.913 524 416.726 524.08 416.513 524.08C416.273 524.08 416.073 524.013 415.913 523.88C415.779 523.747 415.699 523.573 415.673 523.36C415.539 522.267 414.886 521.347 413.713 520.6C412.566 519.853 411.006 519.48 409.033 519.48C406.766 519.48 405.006 519.92 403.753 520.8C402.499 521.68 401.873 522.827 401.873 524.24C401.873 525.6 402.433 526.733 403.553 527.64C404.699 528.52 406.579 529.347 409.193 530.12C411.993 530.947 414.046 531.96 415.353 533.16C416.686 534.36 417.353 535.867 417.353 537.68C417.353 539.12 416.939 540.413 416.113 541.56C415.313 542.707 414.219 543.613 412.833 544.28C411.446 544.92 409.913 545.24 408.233 545.24ZM424.224 521.16C424.011 521.16 423.824 521.08 423.664 520.92C423.504 520.733 423.424 520.533 423.424 520.32L423.464 518.6C423.464 518.387 423.544 518.2 423.704 518.04C423.891 517.88 424.091 517.8 424.304 517.8C424.544 517.8 424.744 517.893 424.904 518.08C425.064 518.24 425.144 518.427 425.144 518.64L425.104 520.36C425.104 520.6 425.011 520.8 424.824 520.96C424.664 521.093 424.464 521.16 424.224 521.16ZM423.984 545.24C423.771 545.24 423.571 545.147 423.384 544.96C423.197 544.773 423.104 544.56 423.104 544.32L423.384 526.2C423.384 525.96 423.464 525.747 423.624 525.56C423.811 525.373 424.011 525.28 424.224 525.28C424.464 525.28 424.664 525.373 424.824 525.56C425.011 525.72 425.104 525.933 425.104 526.2L424.864 544.32C424.864 544.56 424.771 544.773 424.584 544.96C424.424 545.147 424.224 545.24 423.984 545.24ZM438.401 552.84C436.827 552.84 435.161 552.64 433.401 552.24C432.947 552.107 432.721 551.827 432.721 551.4C432.721 551.16 432.801 550.96 432.961 550.8C433.121 550.64 433.321 550.56 433.561 550.56C433.747 550.56 434.254 550.653 435.081 550.84C435.934 551.027 437.027 551.12 438.361 551.12C440.627 551.12 442.254 550.547 443.241 549.4C444.227 548.253 444.747 546.64 444.801 544.56L444.881 541.2C444.294 542.373 443.427 543.347 442.281 544.12C441.161 544.867 439.987 545.253 438.761 545.28C437.241 545.28 435.881 544.853 434.681 544C433.481 543.147 432.547 541.987 431.881 540.52C431.214 539.053 430.881 537.413 430.881 535.6C430.881 533.84 431.294 532.16 432.121 530.56C432.974 528.96 434.121 527.68 435.561 526.72C437.027 525.733 438.627 525.24 440.361 525.24C441.241 525.24 442.107 525.387 442.961 525.68C443.814 525.973 444.561 526.347 445.201 526.8C445.201 526.08 445.267 525.56 445.401 525.24C445.534 524.92 445.801 524.76 446.201 524.76C446.387 524.76 446.561 524.84 446.721 525C446.881 525.16 446.961 525.387 446.961 525.68L446.521 544.76C446.467 547.427 445.694 549.44 444.201 550.8C442.734 552.16 440.801 552.84 438.401 552.84ZM438.441 543.68C439.534 543.68 440.574 543.387 441.561 542.8C442.574 542.213 443.401 541.24 444.041 539.88C444.707 538.52 445.041 536.733 445.041 534.52V528.44C444.561 527.987 443.894 527.627 443.041 527.36C442.187 527.067 441.347 526.92 440.521 526.92C439.054 526.92 437.694 527.307 436.441 528.08C435.187 528.853 434.201 529.92 433.481 531.28C432.761 532.613 432.401 534.107 432.401 535.76C432.401 536.907 432.614 538.093 433.041 539.32C433.467 540.547 434.134 541.587 435.041 542.44C435.947 543.267 437.081 543.68 438.441 543.68ZM454.686 545.24C454.473 545.24 454.273 545.16 454.086 545C453.926 544.84 453.846 544.653 453.846 544.44V526.08C453.846 525.84 453.926 525.64 454.086 525.48C454.273 525.32 454.473 525.24 454.686 525.24C454.953 525.24 455.166 525.32 455.326 525.48C455.486 525.64 455.566 525.84 455.566 526.08V534.2C455.939 532.547 456.566 531.04 457.446 529.68C458.353 528.32 459.406 527.253 460.606 526.48C461.806 525.68 463.059 525.28 464.366 525.28C465.913 525.28 467.086 525.733 467.886 526.64C468.686 527.547 469.233 528.933 469.526 530.8C469.819 532.667 469.966 535.213 469.966 538.44L469.926 544.32C469.926 544.587 469.846 544.813 469.686 545C469.553 545.16 469.366 545.24 469.126 545.24C468.913 545.24 468.713 545.16 468.526 545C468.366 544.813 468.286 544.6 468.286 544.36L468.246 538.52C468.246 535.48 468.153 533.173 467.966 531.6C467.779 530 467.393 528.813 466.806 528.04C466.246 527.267 465.353 526.88 464.126 526.88C463.006 526.88 461.913 527.293 460.846 528.12C459.806 528.92 458.859 530.107 458.006 531.68C457.233 533.067 456.633 534.573 456.206 536.2C455.806 537.8 455.593 539.347 455.566 540.84L455.526 544.28C455.526 544.573 455.446 544.813 455.286 545C455.153 545.16 454.953 545.24 454.686 545.24ZM489.816 545.48C489.549 545.48 489.336 545.373 489.176 545.16C489.016 544.973 488.936 544.733 488.936 544.44V542.84C488.056 543.507 487.042 544.08 485.896 544.56C484.776 545.013 483.696 545.24 482.656 545.24C481.242 545.24 479.962 544.88 478.816 544.16C477.696 543.44 476.816 542.44 476.176 541.16C475.536 539.853 475.216 538.36 475.216 536.68C475.216 534.787 475.602 532.96 476.376 531.2C477.176 529.44 478.296 528.013 479.736 526.92C481.202 525.827 482.882 525.28 484.776 525.28C485.896 525.28 486.989 525.453 488.056 525.8C489.122 526.147 490.002 526.507 490.696 526.88V544.52C490.696 544.787 490.616 545.013 490.456 545.2C490.296 545.387 490.082 545.48 489.816 545.48ZM482.576 543.56C483.696 543.56 484.802 543.293 485.896 542.76C487.016 542.227 488.002 541.653 488.856 541.04L489.016 527.92C488.536 527.68 487.896 527.467 487.096 527.28C486.296 527.067 485.562 526.96 484.896 526.96C483.269 526.96 481.856 527.427 480.656 528.36C479.456 529.267 478.536 530.453 477.896 531.92C477.282 533.387 476.976 534.947 476.976 536.6C476.976 538.067 477.229 539.32 477.736 540.36C478.242 541.4 478.922 542.2 479.776 542.76C480.629 543.293 481.562 543.56 482.576 543.56ZM499.431 545.28C499.218 545.28 499.018 545.2 498.831 545.04C498.671 544.88 498.591 544.68 498.591 544.44V526.96H493.551C493.311 526.96 493.111 526.88 492.951 526.72C492.765 526.533 492.671 526.333 492.671 526.12C492.671 525.853 492.765 525.64 492.951 525.48C493.138 525.32 493.365 525.24 493.631 525.24H498.591V519.04C498.591 518.8 498.671 518.6 498.831 518.44C498.991 518.253 499.191 518.16 499.431 518.16C499.698 518.16 499.911 518.253 500.071 518.44C500.231 518.6 500.311 518.8 500.311 519.04V525.24H505.431C505.698 525.24 505.911 525.32 506.071 525.48C506.231 525.64 506.311 525.853 506.311 526.12C506.311 526.333 506.231 526.533 506.071 526.72C505.911 526.88 505.698 526.96 505.431 526.96H500.311V544.44C500.311 544.68 500.218 544.88 500.031 545.04C499.871 545.2 499.671 545.28 499.431 545.28ZM514.402 545.36C512.909 545.36 511.722 545.04 510.842 544.4C509.989 543.733 509.362 542.6 508.962 541C508.562 539.4 508.362 537.16 508.362 534.28C508.362 531.48 508.522 528.853 508.842 526.4C508.922 525.973 509.029 525.68 509.162 525.52C509.296 525.333 509.482 525.24 509.722 525.24C509.962 525.24 510.162 525.32 510.322 525.48C510.482 525.613 510.562 525.8 510.562 526.04L510.482 526.96C510.162 529.84 510.002 532.587 510.002 535.2C510.002 537.467 510.176 539.24 510.522 540.52C510.869 541.773 511.362 542.653 512.002 543.16C512.669 543.667 513.522 543.92 514.562 543.92C516.909 543.92 519.096 542.813 521.122 540.6C521.496 540.147 521.682 539.467 521.682 538.56L521.802 526.04C521.802 525.827 521.882 525.64 522.042 525.48C522.229 525.32 522.429 525.24 522.642 525.24C522.856 525.24 523.042 525.32 523.202 525.48C523.389 525.64 523.482 525.827 523.482 526.04V544.36C523.482 544.6 523.389 544.813 523.202 545C523.016 545.16 522.789 545.24 522.522 545.24C522.229 545.24 521.989 545.133 521.802 544.92C521.616 544.707 521.522 544.453 521.522 544.16V541.92C520.882 542.88 519.909 543.693 518.602 544.36C517.322 545.027 515.922 545.36 514.402 545.36ZM531.327 545.24C531.113 545.24 530.913 545.16 530.727 545C530.567 544.84 530.487 544.653 530.487 544.44V526.12C530.487 525.88 530.567 525.68 530.727 525.52C530.913 525.36 531.113 525.28 531.327 525.28C531.593 525.28 531.807 525.36 531.967 525.52C532.153 525.68 532.247 525.88 532.247 526.12V531.12C532.593 530.213 533.14 529.307 533.887 528.4C534.633 527.467 535.513 526.693 536.527 526.08C537.54 525.467 538.593 525.16 539.687 525.16C541.713 525.16 542.727 526.253 542.727 528.44V529.48C542.727 529.72 542.647 529.933 542.487 530.12C542.327 530.28 542.127 530.36 541.887 530.36C541.327 530.36 541.047 530.053 541.047 529.44V528.6C541.047 528.04 540.94 527.613 540.727 527.32C540.513 527 540.033 526.84 539.287 526.84C537.473 526.84 535.62 528.107 533.727 530.64C533.3 531.2 532.94 531.92 532.647 532.8C532.38 533.653 532.247 534.427 532.247 535.12L532.207 544.44C532.207 544.653 532.113 544.84 531.927 545C531.767 545.16 531.567 545.24 531.327 545.24ZM555.1 545.24C553.1 545.24 551.34 544.813 549.82 543.96C548.3 543.107 547.126 541.96 546.3 540.52C545.473 539.053 545.06 537.453 545.06 535.72C545.06 533.827 545.433 532.093 546.18 530.52C546.926 528.92 547.98 527.653 549.34 526.72C550.7 525.76 552.273 525.28 554.06 525.28C555.633 525.28 556.98 525.573 558.1 526.16C559.246 526.747 560.1 527.453 560.66 528.28C561.246 529.107 561.54 529.84 561.54 530.48C561.54 530.773 561.286 531.08 560.78 531.4L547.46 539.04C548.153 540.587 549.14 541.747 550.42 542.52C551.726 543.293 553.273 543.68 555.06 543.68C555.993 543.68 556.993 543.453 558.06 543C559.153 542.52 559.98 541.947 560.54 541.28C560.673 541.12 560.846 541.04 561.06 541.04C561.273 541.04 561.46 541.12 561.62 541.28C561.78 541.413 561.86 541.6 561.86 541.84C561.86 542.027 561.78 542.2 561.62 542.36C560.9 543.187 559.926 543.88 558.7 544.44C557.5 544.973 556.3 545.24 555.1 545.24ZM559.86 530.36C559.406 529.213 558.713 528.347 557.78 527.76C556.846 527.173 555.606 526.88 554.06 526.88C552.673 526.88 551.42 527.28 550.3 528.08C549.18 528.853 548.3 529.92 547.66 531.28C547.046 532.613 546.74 534.107 546.74 535.76C546.74 536.32 546.806 536.893 546.94 537.48L559.86 530.36Z" fill="#1E1E1E"/>
<path d="M852.549 545.28C852.336 545.28 852.136 545.187 851.949 545C851.789 544.84 851.709 544.64 851.709 544.4V518.32C851.709 518.08 851.789 517.88 851.949 517.72C852.136 517.533 852.336 517.44 852.549 517.44C852.816 517.44 853.029 517.533 853.189 517.72C853.349 517.88 853.429 518.08 853.429 518.32V532.48C853.883 531.36 854.563 530.24 855.469 529.12C856.403 527.973 857.443 527.027 858.589 526.28C859.736 525.533 860.856 525.16 861.949 525.16C863.843 525.16 865.176 526.267 865.949 528.48C866.723 530.693 867.109 534.16 867.109 538.88C867.109 541.68 867.069 543.507 866.989 544.36C866.963 544.627 866.869 544.84 866.709 545C866.576 545.16 866.389 545.24 866.149 545.24C865.936 545.24 865.749 545.16 865.589 545C865.429 544.84 865.349 544.64 865.349 544.4C865.349 543.84 865.363 543.36 865.389 542.96L865.429 539.2C865.429 534.293 865.069 531.013 864.349 529.36C863.656 527.68 862.789 526.84 861.749 526.84C860.656 526.84 859.576 527.28 858.509 528.16C857.443 529.013 856.523 529.987 855.749 531.08C854.976 532.173 854.429 533.08 854.109 533.8C853.656 534.787 853.429 536.04 853.429 537.56V544.32C853.429 544.64 853.349 544.88 853.189 545.04C853.029 545.2 852.816 545.28 852.549 545.28ZM886.937 545.48C886.67 545.48 886.457 545.373 886.297 545.16C886.137 544.973 886.057 544.733 886.057 544.44V542.84C885.177 543.507 884.164 544.08 883.017 544.56C881.897 545.013 880.817 545.24 879.777 545.24C878.364 545.24 877.084 544.88 875.937 544.16C874.817 543.44 873.937 542.44 873.297 541.16C872.657 539.853 872.337 538.36 872.337 536.68C872.337 534.787 872.724 532.96 873.497 531.2C874.297 529.44 875.417 528.013 876.857 526.92C878.324 525.827 880.004 525.28 881.897 525.28C883.017 525.28 884.11 525.453 885.177 525.8C886.244 526.147 887.124 526.507 887.817 526.88V544.52C887.817 544.787 887.737 545.013 887.577 545.2C887.417 545.387 887.204 545.48 886.937 545.48ZM879.697 543.56C880.817 543.56 881.924 543.293 883.017 542.76C884.137 542.227 885.124 541.653 885.977 541.04L886.137 527.92C885.657 527.68 885.017 527.467 884.217 527.28C883.417 527.067 882.684 526.96 882.017 526.96C880.39 526.96 878.977 527.427 877.777 528.36C876.577 529.267 875.657 530.453 875.017 531.92C874.404 533.387 874.097 534.947 874.097 536.6C874.097 538.067 874.35 539.32 874.857 540.36C875.364 541.4 876.044 542.2 876.897 542.76C877.75 543.293 878.684 543.56 879.697 543.56ZM899.593 545.32C898.099 545.32 896.806 545.027 895.713 544.44C894.619 543.827 893.793 543.12 893.233 542.32C892.673 541.493 892.393 540.8 892.393 540.24C892.393 540.027 892.473 539.84 892.632 539.68C892.793 539.52 892.979 539.44 893.193 539.44C893.566 539.44 893.819 539.627 893.952 540C894.326 541.173 895.006 542.093 895.993 542.76C897.006 543.427 898.219 543.76 899.633 543.76C901.126 543.76 902.339 543.36 903.273 542.56C904.233 541.733 904.713 540.747 904.713 539.6C904.713 538.667 904.366 537.907 903.673 537.32C902.979 536.707 901.646 536.107 899.673 535.52C897.566 534.88 896.019 534.133 895.033 533.28C894.046 532.4 893.553 531.333 893.553 530.08C893.553 528.613 894.126 527.453 895.273 526.6C896.446 525.72 898.059 525.28 900.113 525.28C902.139 525.28 903.686 525.667 904.753 526.44C905.846 527.213 906.393 528.267 906.393 529.6C906.393 530.667 906.099 531.2 905.513 531.2C905.273 531.2 905.073 531.12 904.913 530.96C904.753 530.8 904.673 530.613 904.673 530.4C904.673 530.293 904.686 530.187 904.713 530.08C904.739 529.947 904.753 529.773 904.753 529.56C904.753 527.72 903.233 526.8 900.193 526.8C898.486 526.8 897.219 527.093 896.393 527.68C895.566 528.24 895.153 529.04 895.153 530.08C895.153 530.933 895.513 531.653 896.233 532.24C896.979 532.8 898.353 533.4 900.353 534.04C902.646 534.787 904.219 535.573 905.073 536.4C905.926 537.2 906.353 538.253 906.353 539.56C906.353 540.52 906.073 541.453 905.513 542.36C904.953 543.24 904.153 543.96 903.113 544.52C902.099 545.053 900.926 545.32 899.593 545.32ZM912.51 545.28C912.297 545.28 912.097 545.187 911.91 545C911.75 544.84 911.67 544.64 911.67 544.4V518.32C911.67 518.08 911.75 517.88 911.91 517.72C912.097 517.533 912.297 517.44 912.51 517.44C912.777 517.44 912.99 517.533 913.15 517.72C913.31 517.88 913.39 518.08 913.39 518.32V532.48C913.844 531.36 914.524 530.24 915.43 529.12C916.364 527.973 917.404 527.027 918.55 526.28C919.697 525.533 920.817 525.16 921.91 525.16C923.804 525.16 925.137 526.267 925.91 528.48C926.684 530.693 927.07 534.16 927.07 538.88C927.07 541.68 927.03 543.507 926.95 544.36C926.924 544.627 926.83 544.84 926.67 545C926.537 545.16 926.35 545.24 926.11 545.24C925.897 545.24 925.71 545.16 925.55 545C925.39 544.84 925.31 544.64 925.31 544.4C925.31 543.84 925.324 543.36 925.35 542.96L925.39 539.2C925.39 534.293 925.03 531.013 924.31 529.36C923.617 527.68 922.75 526.84 921.71 526.84C920.617 526.84 919.537 527.28 918.47 528.16C917.404 529.013 916.484 529.987 915.71 531.08C914.937 532.173 914.39 533.08 914.07 533.8C913.617 534.787 913.39 536.04 913.39 537.56V544.32C913.39 544.64 913.31 544.88 913.15 545.04C912.99 545.2 912.777 545.28 912.51 545.28ZM947.948 545.24C947.734 545.24 947.534 545.16 947.348 545C947.188 544.84 947.108 544.653 947.108 544.44V526.76H943.748C943.534 526.76 943.348 526.68 943.188 526.52C943.027 526.36 942.947 526.173 942.947 525.96C942.947 525.773 943.027 525.6 943.188 525.44C943.321 525.28 943.481 525.2 943.668 525.2H947.108C947.108 523.253 947.374 521.72 947.908 520.6C948.468 519.453 949.321 518.64 950.468 518.16C951.641 517.653 953.188 517.4 955.108 517.4C955.534 517.4 955.854 517.453 956.068 517.56C956.308 517.667 956.428 517.867 956.428 518.16C956.428 518.4 956.348 518.6 956.188 518.76C956.054 518.92 955.854 519 955.588 519C953.721 519 952.321 519.147 951.388 519.44C950.481 519.707 949.828 520.28 949.428 521.16C949.028 522.013 948.828 523.36 948.828 525.2L954.788 525.24C954.974 525.24 955.148 525.32 955.308 525.48C955.468 525.613 955.548 525.773 955.548 525.96C955.548 526.173 955.468 526.36 955.308 526.52C955.174 526.68 955.001 526.76 954.788 526.76H948.828V544.44C948.828 544.653 948.748 544.84 948.588 545C948.428 545.16 948.214 545.24 947.948 545.24ZM963.711 545.36C962.218 545.36 961.031 545.04 960.151 544.4C959.298 543.733 958.671 542.6 958.271 541C957.871 539.4 957.671 537.16 957.671 534.28C957.671 531.48 957.831 528.853 958.151 526.4C958.231 525.973 958.338 525.68 958.471 525.52C958.604 525.333 958.791 525.24 959.031 525.24C959.271 525.24 959.471 525.32 959.631 525.48C959.791 525.613 959.871 525.8 959.871 526.04L959.791 526.96C959.471 529.84 959.311 532.587 959.311 535.2C959.311 537.467 959.484 539.24 959.831 540.52C960.178 541.773 960.671 542.653 961.311 543.16C961.978 543.667 962.831 543.92 963.871 543.92C966.218 543.92 968.404 542.813 970.431 540.6C970.804 540.147 970.991 539.467 970.991 538.56L971.111 526.04C971.111 525.827 971.191 525.64 971.351 525.48C971.538 525.32 971.738 525.24 971.951 525.24C972.164 525.24 972.351 525.32 972.511 525.48C972.698 525.64 972.791 525.827 972.791 526.04V544.36C972.791 544.6 972.698 544.813 972.511 545C972.324 545.16 972.098 545.24 971.831 545.24C971.538 545.24 971.298 545.133 971.111 544.92C970.924 544.707 970.831 544.453 970.831 544.16V541.92C970.191 542.88 969.218 543.693 967.911 544.36C966.631 545.027 965.231 545.36 963.711 545.36ZM980.635 545.24C980.422 545.24 980.222 545.16 980.035 545C979.875 544.84 979.795 544.653 979.795 544.44V526.08C979.795 525.84 979.875 525.64 980.035 525.48C980.222 525.32 980.422 525.24 980.635 525.24C980.902 525.24 981.115 525.32 981.275 525.48C981.435 525.64 981.515 525.84 981.515 526.08V534.2C981.889 532.547 982.515 531.04 983.395 529.68C984.302 528.32 985.355 527.253 986.555 526.48C987.755 525.68 989.009 525.28 990.315 525.28C991.862 525.28 993.035 525.733 993.835 526.64C994.635 527.547 995.182 528.933 995.475 530.8C995.769 532.667 995.915 535.213 995.915 538.44L995.875 544.32C995.875 544.587 995.795 544.813 995.635 545C995.502 545.16 995.315 545.24 995.075 545.24C994.862 545.24 994.662 545.16 994.475 545C994.315 544.813 994.235 544.6 994.235 544.36L994.195 538.52C994.195 535.48 994.102 533.173 993.915 531.6C993.729 530 993.342 528.813 992.755 528.04C992.195 527.267 991.302 526.88 990.075 526.88C988.955 526.88 987.862 527.293 986.795 528.12C985.755 528.92 984.809 530.107 983.955 531.68C983.182 533.067 982.582 534.573 982.155 536.2C981.755 537.8 981.542 539.347 981.515 540.84L981.475 544.28C981.475 544.573 981.395 544.813 981.235 545C981.102 545.16 980.902 545.24 980.635 545.24ZM1009.81 545.24C1008.34 545.24 1006.94 544.88 1005.61 544.16C1004.3 543.413 1003.25 542.387 1002.45 541.08C1001.65 539.773 1001.25 538.293 1001.25 536.64C1001.25 534.827 1001.66 533.04 1002.49 531.28C1003.34 529.52 1004.45 528.08 1005.81 526.96C1007.19 525.84 1008.62 525.28 1010.09 525.28C1011.47 525.28 1012.61 525.507 1013.49 525.96C1014.37 526.413 1015.22 527.12 1016.05 528.08C1016.18 528.213 1016.25 528.4 1016.25 528.64C1016.25 528.88 1016.17 529.08 1016.01 529.24C1015.85 529.4 1015.66 529.48 1015.45 529.48C1015.26 529.48 1015.06 529.4 1014.85 529.24C1014.21 528.467 1013.53 527.88 1012.81 527.48C1012.09 527.053 1011.21 526.84 1010.17 526.84C1008.97 526.84 1007.81 527.307 1006.69 528.24C1005.57 529.173 1004.65 530.4 1003.93 531.92C1003.23 533.413 1002.89 534.96 1002.89 536.56C1002.89 538.027 1003.22 539.307 1003.89 540.4C1004.58 541.467 1005.46 542.28 1006.53 542.84C1007.59 543.4 1008.67 543.68 1009.77 543.68C1012.33 543.68 1014.35 542.667 1015.85 540.64C1016.11 540.267 1016.39 540.08 1016.69 540.08C1016.9 540.08 1017.09 540.16 1017.25 540.32C1017.43 540.48 1017.53 540.667 1017.53 540.88C1017.53 541.013 1017.42 541.24 1017.21 541.56C1016.49 542.573 1015.45 543.44 1014.09 544.16C1012.75 544.88 1011.33 545.24 1009.81 545.24ZM1024.13 545.28C1023.92 545.28 1023.72 545.2 1023.53 545.04C1023.37 544.88 1023.29 544.68 1023.29 544.44V526.96H1018.25C1018.01 526.96 1017.81 526.88 1017.65 526.72C1017.46 526.533 1017.37 526.333 1017.37 526.12C1017.37 525.853 1017.46 525.64 1017.65 525.48C1017.84 525.32 1018.06 525.24 1018.33 525.24H1023.29V519.04C1023.29 518.8 1023.37 518.6 1023.53 518.44C1023.69 518.253 1023.89 518.16 1024.13 518.16C1024.4 518.16 1024.61 518.253 1024.77 518.44C1024.93 518.6 1025.01 518.8 1025.01 519.04V525.24H1030.13C1030.4 525.24 1030.61 525.32 1030.77 525.48C1030.93 525.64 1031.01 525.853 1031.01 526.12C1031.01 526.333 1030.93 526.533 1030.77 526.72C1030.61 526.88 1030.4 526.96 1030.13 526.96H1025.01V544.44C1025.01 544.68 1024.92 544.88 1024.73 545.04C1024.57 545.2 1024.37 545.28 1024.13 545.28ZM1034.82 521.16C1034.61 521.16 1034.42 521.08 1034.26 520.92C1034.1 520.733 1034.02 520.533 1034.02 520.32L1034.06 518.6C1034.06 518.387 1034.14 518.2 1034.3 518.04C1034.49 517.88 1034.69 517.8 1034.9 517.8C1035.14 517.8 1035.34 517.893 1035.5 518.08C1035.66 518.24 1035.74 518.427 1035.74 518.64L1035.7 520.36C1035.7 520.6 1035.61 520.8 1035.42 520.96C1035.26 521.093 1035.06 521.16 1034.82 521.16ZM1034.58 545.24C1034.37 545.24 1034.17 545.147 1033.98 544.96C1033.79 544.773 1033.7 544.56 1033.7 544.32L1033.98 526.2C1033.98 525.96 1034.06 525.747 1034.22 525.56C1034.41 525.373 1034.61 525.28 1034.82 525.28C1035.06 525.28 1035.26 525.373 1035.42 525.56C1035.61 525.72 1035.7 525.933 1035.7 526.2L1035.46 544.32C1035.46 544.56 1035.37 544.773 1035.18 544.96C1035.02 545.147 1034.82 545.24 1034.58 545.24ZM1049.52 545.24C1048.03 545.24 1046.67 544.84 1045.44 544.04C1044.21 543.213 1043.25 542.107 1042.56 540.72C1041.87 539.307 1041.52 537.76 1041.52 536.08C1041.52 534.213 1041.93 532.453 1042.76 530.8C1043.59 529.12 1044.71 527.787 1046.12 526.8C1047.56 525.787 1049.12 525.28 1050.8 525.28C1052.27 525.28 1053.61 525.693 1054.84 526.52C1056.09 527.347 1057.07 528.453 1057.76 529.84C1058.48 531.227 1058.84 532.747 1058.84 534.4C1058.84 536.347 1058.41 538.147 1057.56 539.8C1056.71 541.453 1055.56 542.773 1054.12 543.76C1052.71 544.747 1051.17 545.24 1049.52 545.24ZM1049.6 543.72C1050.88 543.72 1052.09 543.307 1053.24 542.48C1054.39 541.627 1055.31 540.493 1056 539.08C1056.69 537.667 1057.04 536.173 1057.04 534.6C1057.04 533.24 1056.75 531.96 1056.16 530.76C1055.6 529.56 1054.83 528.6 1053.84 527.88C1052.85 527.16 1051.77 526.8 1050.6 526.8C1049.32 526.8 1048.11 527.24 1046.96 528.12C1045.84 528.973 1044.95 530.107 1044.28 531.52C1043.61 532.933 1043.28 534.427 1043.28 536C1043.28 537.413 1043.55 538.707 1044.08 539.88C1044.64 541.053 1045.4 541.987 1046.36 542.68C1047.32 543.373 1048.4 543.72 1049.6 543.72ZM1065.4 545.24C1065.19 545.24 1064.99 545.16 1064.8 545C1064.64 544.84 1064.56 544.653 1064.56 544.44V526.08C1064.56 525.84 1064.64 525.64 1064.8 525.48C1064.99 525.32 1065.19 525.24 1065.4 525.24C1065.67 525.24 1065.88 525.32 1066.04 525.48C1066.2 525.64 1066.28 525.84 1066.28 526.08V534.2C1066.65 532.547 1067.28 531.04 1068.16 529.68C1069.07 528.32 1070.12 527.253 1071.32 526.48C1072.52 525.68 1073.77 525.28 1075.08 525.28C1076.63 525.28 1077.8 525.733 1078.6 526.64C1079.4 527.547 1079.95 528.933 1080.24 530.8C1080.53 532.667 1080.68 535.213 1080.68 538.44L1080.64 544.32C1080.64 544.587 1080.56 544.813 1080.4 545C1080.27 545.16 1080.08 545.24 1079.84 545.24C1079.63 545.24 1079.43 545.16 1079.24 545C1079.08 544.813 1079 544.6 1079 544.36L1078.96 538.52C1078.96 535.48 1078.87 533.173 1078.68 531.6C1078.49 530 1078.11 528.813 1077.52 528.04C1076.96 527.267 1076.07 526.88 1074.84 526.88C1073.72 526.88 1072.63 527.293 1071.56 528.12C1070.52 528.92 1069.57 530.107 1068.72 531.68C1067.95 533.067 1067.35 534.573 1066.92 536.2C1066.52 537.8 1066.31 539.347 1066.28 540.84L1066.24 544.28C1066.24 544.573 1066.16 544.813 1066 545C1065.87 545.16 1065.67 545.24 1065.4 545.24Z" fill="#1E1E1E"/>
<path d="M1467.27 545.24C1467.06 545.24 1466.86 545.16 1466.67 545C1466.51 544.813 1466.43 544.6 1466.43 544.36V519.36C1466.43 518.96 1466.48 518.667 1466.59 518.48C1466.7 518.293 1466.95 518.16 1467.35 518.08C1467.78 518 1468.46 517.96 1469.39 517.96C1474.35 517.96 1478.07 518.653 1480.55 520.04C1483.06 521.427 1484.31 523.427 1484.31 526.04C1484.31 528.307 1483.42 530.147 1481.63 531.56C1479.87 532.973 1477.75 533.987 1475.27 534.6C1472.79 535.187 1470.42 535.48 1468.15 535.48V544.36C1468.15 544.627 1468.07 544.84 1467.91 545C1467.75 545.16 1467.54 545.24 1467.27 545.24ZM1468.15 533.76C1469.88 533.76 1471.86 533.547 1474.07 533.12C1476.28 532.693 1478.26 531.907 1479.99 530.76C1481.72 529.613 1482.59 528.04 1482.59 526.04C1482.59 524.013 1481.5 522.453 1479.31 521.36C1477.15 520.24 1474.07 519.68 1470.07 519.68C1469.19 519.68 1468.55 519.707 1468.15 519.76V533.76ZM1489.57 545.24C1489.35 545.24 1489.15 545.16 1488.97 545C1488.81 544.84 1488.73 544.653 1488.73 544.44V526.12C1488.73 525.88 1488.81 525.68 1488.97 525.52C1489.15 525.36 1489.35 525.28 1489.57 525.28C1489.83 525.28 1490.05 525.36 1490.21 525.52C1490.39 525.68 1490.49 525.88 1490.49 526.12V531.12C1490.83 530.213 1491.38 529.307 1492.13 528.4C1492.87 527.467 1493.75 526.693 1494.77 526.08C1495.78 525.467 1496.83 525.16 1497.93 525.16C1499.95 525.16 1500.97 526.253 1500.97 528.44V529.48C1500.97 529.72 1500.89 529.933 1500.73 530.12C1500.57 530.28 1500.37 530.36 1500.13 530.36C1499.57 530.36 1499.29 530.053 1499.29 529.44V528.6C1499.29 528.04 1499.18 527.613 1498.97 527.32C1498.75 527 1498.27 526.84 1497.53 526.84C1495.71 526.84 1493.86 528.107 1491.97 530.64C1491.54 531.2 1491.18 531.92 1490.89 532.8C1490.62 533.653 1490.49 534.427 1490.49 535.12L1490.45 544.44C1490.45 544.653 1490.35 544.84 1490.17 545C1490.01 545.16 1489.81 545.24 1489.57 545.24ZM1506.17 521.16C1505.96 521.16 1505.77 521.08 1505.61 520.92C1505.45 520.733 1505.37 520.533 1505.37 520.32L1505.41 518.6C1505.41 518.387 1505.49 518.2 1505.65 518.04C1505.84 517.88 1506.04 517.8 1506.25 517.8C1506.49 517.8 1506.69 517.893 1506.85 518.08C1507.01 518.24 1507.09 518.427 1507.09 518.64L1507.05 520.36C1507.05 520.6 1506.96 520.8 1506.77 520.96C1506.61 521.093 1506.41 521.16 1506.17 521.16ZM1505.93 545.24C1505.72 545.24 1505.52 545.147 1505.33 544.96C1505.15 544.773 1505.05 544.56 1505.05 544.32L1505.33 526.2C1505.33 525.96 1505.41 525.747 1505.57 525.56C1505.76 525.373 1505.96 525.28 1506.17 525.28C1506.41 525.28 1506.61 525.373 1506.77 525.56C1506.96 525.72 1507.05 525.933 1507.05 526.2L1506.81 544.32C1506.81 544.56 1506.72 544.773 1506.53 544.96C1506.37 545.147 1506.17 545.24 1505.93 545.24ZM1518.55 545.28C1518.18 545.28 1517.91 545.067 1517.75 544.64L1510.35 526.48C1510.3 526.32 1510.27 526.187 1510.27 526.08C1510.27 525.84 1510.38 525.653 1510.59 525.52C1510.78 525.36 1510.99 525.28 1511.23 525.28C1511.58 525.28 1511.84 525.48 1512.03 525.88L1518.59 542.44L1525.11 525.76C1525.24 525.413 1525.52 525.24 1525.95 525.24C1526.19 525.24 1526.39 525.32 1526.55 525.48C1526.74 525.64 1526.83 525.827 1526.83 526.04C1526.83 526.12 1526.8 526.267 1526.75 526.48L1519.35 544.72C1519.22 545.093 1518.95 545.28 1518.55 545.28ZM1543.09 545.48C1542.83 545.48 1542.61 545.373 1542.45 545.16C1542.29 544.973 1542.21 544.733 1542.21 544.44V542.84C1541.33 543.507 1540.32 544.08 1539.17 544.56C1538.05 545.013 1536.97 545.24 1535.93 545.24C1534.52 545.24 1533.24 544.88 1532.09 544.16C1530.97 543.44 1530.09 542.44 1529.45 541.16C1528.81 539.853 1528.49 538.36 1528.49 536.68C1528.49 534.787 1528.88 532.96 1529.65 531.2C1530.45 529.44 1531.57 528.013 1533.01 526.92C1534.48 525.827 1536.16 525.28 1538.05 525.28C1539.17 525.28 1540.27 525.453 1541.33 525.8C1542.4 526.147 1543.28 526.507 1543.97 526.88V544.52C1543.97 544.787 1543.89 545.013 1543.73 545.2C1543.57 545.387 1543.36 545.48 1543.09 545.48ZM1535.85 543.56C1536.97 543.56 1538.08 543.293 1539.17 542.76C1540.29 542.227 1541.28 541.653 1542.13 541.04L1542.29 527.92C1541.81 527.68 1541.17 527.467 1540.37 527.28C1539.57 527.067 1538.84 526.96 1538.17 526.96C1536.55 526.96 1535.13 527.427 1533.93 528.36C1532.73 529.267 1531.81 530.453 1531.17 531.92C1530.56 533.387 1530.25 534.947 1530.25 536.6C1530.25 538.067 1530.51 539.32 1531.01 540.36C1531.52 541.4 1532.2 542.2 1533.05 542.76C1533.91 543.293 1534.84 543.56 1535.85 543.56ZM1552.71 545.28C1552.5 545.28 1552.3 545.2 1552.11 545.04C1551.95 544.88 1551.87 544.68 1551.87 544.44V526.96H1546.83C1546.59 526.96 1546.39 526.88 1546.23 526.72C1546.04 526.533 1545.95 526.333 1545.95 526.12C1545.95 525.853 1546.04 525.64 1546.23 525.48C1546.42 525.32 1546.64 525.24 1546.91 525.24H1551.87V519.04C1551.87 518.8 1551.95 518.6 1552.11 518.44C1552.27 518.253 1552.47 518.16 1552.71 518.16C1552.98 518.16 1553.19 518.253 1553.35 518.44C1553.51 518.6 1553.59 518.8 1553.59 519.04V525.24H1558.71C1558.98 525.24 1559.19 525.32 1559.35 525.48C1559.51 525.64 1559.59 525.853 1559.59 526.12C1559.59 526.333 1559.51 526.533 1559.35 526.72C1559.19 526.88 1558.98 526.96 1558.71 526.96H1553.59V544.44C1553.59 544.68 1553.5 544.88 1553.31 545.04C1553.15 545.2 1552.95 545.28 1552.71 545.28ZM1570.13 545.24C1568.13 545.24 1566.37 544.813 1564.85 543.96C1563.33 543.107 1562.16 541.96 1561.33 540.52C1560.51 539.053 1560.09 537.453 1560.09 535.72C1560.09 533.827 1560.47 532.093 1561.21 530.52C1561.96 528.92 1563.01 527.653 1564.37 526.72C1565.73 525.76 1567.31 525.28 1569.09 525.28C1570.67 525.28 1572.01 525.573 1573.13 526.16C1574.28 526.747 1575.13 527.453 1575.69 528.28C1576.28 529.107 1576.57 529.84 1576.57 530.48C1576.57 530.773 1576.32 531.08 1575.81 531.4L1562.49 539.04C1563.19 540.587 1564.17 541.747 1565.45 542.52C1566.76 543.293 1568.31 543.68 1570.09 543.68C1571.03 543.68 1572.03 543.453 1573.09 543C1574.19 542.52 1575.01 541.947 1575.57 541.28C1575.71 541.12 1575.88 541.04 1576.09 541.04C1576.31 541.04 1576.49 541.12 1576.65 541.28C1576.81 541.413 1576.89 541.6 1576.89 541.84C1576.89 542.027 1576.81 542.2 1576.65 542.36C1575.93 543.187 1574.96 543.88 1573.73 544.44C1572.53 544.973 1571.33 545.24 1570.13 545.24ZM1574.89 530.36C1574.44 529.213 1573.75 528.347 1572.81 527.76C1571.88 527.173 1570.64 526.88 1569.09 526.88C1567.71 526.88 1566.45 527.28 1565.33 528.08C1564.21 528.853 1563.33 529.92 1562.69 531.28C1562.08 532.613 1561.77 534.107 1561.77 535.76C1561.77 536.32 1561.84 536.893 1561.97 537.48L1574.89 530.36ZM1612.69 545.28C1612.51 545.28 1612.31 545.2 1612.09 545.04L1597.25 533.44V544.36C1597.25 544.6 1597.17 544.813 1597.01 545C1596.85 545.16 1596.64 545.24 1596.37 545.24C1596.16 545.24 1595.97 545.16 1595.81 545C1595.65 544.813 1595.57 544.6 1595.57 544.36V518.8C1595.57 518.587 1595.65 518.4 1595.81 518.24C1595.97 518.08 1596.16 518 1596.37 518C1596.64 518 1596.85 518.08 1597.01 518.24C1597.17 518.4 1597.25 518.587 1597.25 518.8V530.28L1611.37 518.2C1611.59 518.04 1611.79 517.96 1611.97 517.96C1612.16 517.96 1612.33 518.053 1612.49 518.24C1612.68 518.4 1612.77 518.587 1612.77 518.8C1612.77 519.093 1612.67 519.307 1612.45 519.44L1597.89 531.88L1613.17 543.68C1613.44 543.893 1613.57 544.147 1613.57 544.44C1613.57 544.653 1613.49 544.84 1613.33 545C1613.17 545.187 1612.96 545.28 1612.69 545.28ZM1625.45 545.24C1623.45 545.24 1621.69 544.813 1620.17 543.96C1618.65 543.107 1617.47 541.96 1616.65 540.52C1615.82 539.053 1615.41 537.453 1615.41 535.72C1615.41 533.827 1615.78 532.093 1616.53 530.52C1617.27 528.92 1618.33 527.653 1619.69 526.72C1621.05 525.76 1622.62 525.28 1624.41 525.28C1625.98 525.28 1627.33 525.573 1628.45 526.16C1629.59 526.747 1630.45 527.453 1631.01 528.28C1631.59 529.107 1631.89 529.84 1631.89 530.48C1631.89 530.773 1631.63 531.08 1631.13 531.4L1617.81 539.04C1618.5 540.587 1619.49 541.747 1620.77 542.52C1622.07 543.293 1623.62 543.68 1625.41 543.68C1626.34 543.68 1627.34 543.453 1628.41 543C1629.5 542.52 1630.33 541.947 1630.89 541.28C1631.02 541.12 1631.19 541.04 1631.41 541.04C1631.62 541.04 1631.81 541.12 1631.97 541.28C1632.13 541.413 1632.21 541.6 1632.21 541.84C1632.21 542.027 1632.13 542.2 1631.97 542.36C1631.25 543.187 1630.27 543.88 1629.05 544.44C1627.85 544.973 1626.65 545.24 1625.45 545.24ZM1630.21 530.36C1629.75 529.213 1629.06 528.347 1628.13 527.76C1627.19 527.173 1625.95 526.88 1624.41 526.88C1623.02 526.88 1621.77 527.28 1620.65 528.08C1619.53 528.853 1618.65 529.92 1618.01 531.28C1617.39 532.613 1617.09 534.107 1617.09 535.76C1617.09 536.32 1617.15 536.893 1617.29 537.48L1630.21 530.36ZM1638.6 553.32C1638.38 553.32 1638.18 553.24 1638 553.08C1637.84 552.92 1637.76 552.72 1637.76 552.48C1637.76 552.347 1637.81 552.173 1637.92 551.96L1642.04 543L1633.83 526.64C1633.73 526.427 1633.67 526.267 1633.67 526.16C1633.67 525.893 1633.75 525.68 1633.92 525.52C1634.1 525.333 1634.3 525.24 1634.52 525.24C1634.92 525.24 1635.21 525.44 1635.4 525.84L1643 540.88L1649.96 525.76C1650.01 525.6 1650.1 525.467 1650.24 525.36C1650.4 525.253 1650.57 525.2 1650.76 525.2C1651.02 525.2 1651.22 525.28 1651.36 525.44C1651.49 525.6 1651.56 525.813 1651.56 526.08C1651.56 526.24 1651.53 526.4 1651.48 526.56L1639.44 552.8C1639.22 553.147 1638.94 553.32 1638.6 553.32Z" fill="#1E1E1E"/>
<path d="M480 361L474.226 371H485.774L480 361ZM481 478V370H479V478H481Z" fill="#1E1E1E"/>
<path d="M650 252.037L655.774 242.037H644.226L650 252.037ZM651 243.037V134.969H649V243.037H651Z" fill="#FF6262"/>
<path d="M1557 361L1551.23 371H1562.77L1557 361ZM1558 478V370H1556V478H1558Z" fill="#1E1E1E"/>
<path d="M806 361L800.702 371.26L812.237 370.718L806 361ZM805.427 370.082C806.334 380.062 808.888 392.708 814.929 402.89C820.998 413.12 830.623 420.898 845.549 420.898V418.898C831.481 418.898 822.443 411.636 816.649 401.87C810.826 392.055 808.314 379.748 807.419 369.901L805.427 370.082ZM845.549 420.898C856.354 420.898 865.365 421.291 872.774 422.67C880.177 424.048 885.903 426.398 890.202 430.255C898.792 437.959 902.064 452.029 900.701 477.947L902.698 478.053C904.061 452.135 900.889 437.154 891.538 428.766C886.867 424.577 880.748 422.12 873.14 420.704C865.54 419.289 856.375 418.898 845.549 418.898V420.898Z" fill="#1E1E1E"/>
<path d="M603.003 103.24C602.496 103.24 602.043 103.04 601.643 102.64C601.243 102.24 601.043 101.787 601.043 101.28L601.083 77.96C601.083 77.4267 601.256 76.9733 601.603 76.6C601.976 76.2 602.443 76 603.003 76C603.323 76 603.63 76.08 603.923 76.24C604.216 76.3733 604.456 76.5733 604.643 76.84L617.163 94.96V77.96C617.163 77.4267 617.35 76.96 617.723 76.56C618.123 76.16 618.603 75.96 619.163 75.96C619.696 75.96 620.15 76.16 620.523 76.56C620.923 76.96 621.123 77.4267 621.123 77.96V101.28C621.123 101.84 620.936 102.307 620.563 102.68C620.19 103.053 619.723 103.24 619.163 103.24C618.87 103.24 618.563 103.16 618.243 103C617.95 102.84 617.71 102.627 617.523 102.36L605.043 84.32L605.003 101.28C605.003 101.84 604.803 102.307 604.403 102.68C604.03 103.053 603.563 103.24 603.003 103.24ZM633.897 103.24C632.377 103.24 630.977 102.827 629.697 102C628.443 101.173 627.457 100.053 626.737 98.64C626.017 97.2 625.657 95.64 625.657 93.96C625.657 92.0667 626.083 90.3067 626.937 88.68C627.79 87.0267 628.937 85.72 630.377 84.76C631.817 83.7733 633.363 83.28 635.017 83.28C636.537 83.28 637.923 83.7067 639.177 84.56C640.457 85.4133 641.457 86.5467 642.177 87.96C642.923 89.3733 643.297 90.8933 643.297 92.52C643.297 94.44 642.87 96.2267 642.017 97.88C641.163 99.5067 640.003 100.813 638.537 101.8C637.097 102.76 635.55 103.24 633.897 103.24ZM633.897 99.64C634.83 99.64 635.723 99.32 636.577 98.68C637.43 98.04 638.11 97.1867 638.617 96.12C639.123 95.0533 639.377 93.92 639.377 92.72C639.377 91.7067 639.177 90.76 638.777 89.88C638.377 88.9733 637.83 88.2533 637.137 87.72C636.443 87.16 635.683 86.88 634.857 86.88C633.923 86.88 633.043 87.2133 632.217 87.88C631.417 88.52 630.777 89.3867 630.297 90.48C629.817 91.5467 629.577 92.6933 629.577 93.92C629.577 95.12 629.777 96.1467 630.177 97C630.603 97.8533 631.137 98.5067 631.777 98.96C632.443 99.4133 633.15 99.64 633.897 99.64ZM649.521 103.24C649.014 103.24 648.561 103.053 648.161 102.68C647.787 102.307 647.601 101.88 647.601 101.4V85.16C647.601 84.6267 647.801 84.1733 648.201 83.8C648.601 83.4267 649.067 83.24 649.601 83.24C650.107 83.24 650.534 83.4267 650.881 83.8C651.254 84.1733 651.441 84.6267 651.441 85.16V88.2C652.187 86.6 653.134 85.3867 654.281 84.56C655.427 83.7067 656.681 83.28 658.041 83.28C659.534 83.28 660.721 83.6267 661.601 84.32C662.481 85.0133 663.121 86.16 663.521 87.76C663.921 89.3333 664.121 91.52 664.121 94.32L664.081 101.32C664.081 101.827 663.907 102.28 663.561 102.68C663.214 103.053 662.774 103.24 662.241 103.24C661.734 103.24 661.281 103.053 660.881 102.68C660.507 102.28 660.321 101.84 660.321 101.36V94.72C660.321 92.64 660.227 91.04 660.041 89.92C659.854 88.8 659.574 88.04 659.201 87.64C658.827 87.2133 658.321 87 657.681 87C656.881 87 656.081 87.3467 655.281 88.04C654.481 88.7067 653.734 89.6667 653.041 90.92C652.427 92.0133 652.001 93.08 651.761 94.12C651.521 95.16 651.401 96.4133 651.401 97.88V101.24C651.401 101.827 651.227 102.307 650.881 102.68C650.561 103.053 650.107 103.24 649.521 103.24ZM676.76 103.24C675.16 103.24 673.693 102.853 672.36 102.08C671.026 101.307 669.973 100.253 669.2 98.92C668.426 97.56 668.04 96.08 668.04 94.48C668.04 92.6667 668.466 90.8933 669.32 89.16C670.173 87.4267 671.293 86.0133 672.68 84.92C674.066 83.8267 675.533 83.28 677.08 83.28C678.493 83.28 679.626 83.5067 680.48 83.96C681.36 84.3867 682.213 85.08 683.04 86.04C683.44 86.4667 683.64 86.9333 683.64 87.44C683.64 87.9467 683.453 88.3867 683.08 88.76C682.706 89.1067 682.253 89.28 681.72 89.28C681.373 89.28 681.093 89.2267 680.88 89.12C680.693 89.0133 680.466 88.8 680.2 88.48C679.746 87.9733 679.293 87.5867 678.84 87.32C678.413 87.0533 677.84 86.92 677.12 86.92C676.293 86.92 675.453 87.28 674.6 88C673.773 88.72 673.093 89.6667 672.56 90.84C672.053 91.9867 671.8 93.1733 671.8 94.4C671.8 95.4667 672.026 96.4 672.48 97.2C672.96 97.9733 673.573 98.5733 674.32 99C675.066 99.4 675.853 99.6 676.68 99.6C677.746 99.6 678.613 99.4 679.28 99C679.973 98.6 680.586 98.0533 681.12 97.36C681.626 96.6933 682.2 96.36 682.84 96.36C683.346 96.36 683.786 96.5467 684.16 96.92C684.533 97.2667 684.72 97.6667 684.72 98.12C684.72 98.6533 684.573 99.1067 684.28 99.48C683.506 100.52 682.453 101.413 681.12 102.16C679.786 102.88 678.333 103.24 676.76 103.24ZM696.749 103.24C694.855 103.24 693.149 102.84 691.629 102.04C690.135 101.213 688.962 100.053 688.109 98.56C687.255 97.04 686.829 95.2533 686.829 93.2C686.829 91.52 687.202 89.92 687.949 88.4C688.722 86.8533 689.789 85.6133 691.149 84.68C692.535 83.7467 694.109 83.28 695.869 83.28C697.495 83.28 698.882 83.6133 700.029 84.28C701.202 84.92 702.082 85.6933 702.669 86.6C703.255 87.5067 703.549 88.32 703.549 89.04C703.549 89.3867 703.442 89.72 703.229 90.04C703.015 90.36 702.709 90.64 702.309 90.88L691.589 97.04C691.962 97.8667 692.615 98.5067 693.549 98.96C694.509 99.4133 695.575 99.64 696.749 99.64C698.295 99.64 699.615 99.0667 700.709 97.92C701.135 97.4933 701.575 97.28 702.029 97.28C702.562 97.28 703.002 97.4533 703.349 97.8C703.722 98.1467 703.909 98.5733 703.909 99.08C703.909 99.5067 703.749 99.9067 703.429 100.28C702.682 101.107 701.682 101.813 700.429 102.4C699.202 102.96 697.975 103.24 696.749 103.24ZM699.589 88.56C699.269 88 698.815 87.5867 698.229 87.32C697.642 87.0267 696.949 86.88 696.149 86.88C694.629 86.88 693.349 87.4 692.309 88.44C691.295 89.48 690.709 90.76 690.549 92.28C690.495 92.68 690.469 93.16 690.469 93.72L699.589 88.56Z" fill="#FF6262"/>
</svg>
