<svg width="1723" height="973" viewBox="0 0 1723 973" fill="none" xmlns="http://www.w3.org/2000/svg">
<rect width="1723" height="973" fill="white"/>
<rect x="72.4" y="65.4" width="955.2" height="758.2" rx="41.6" fill="white" stroke="#1E1E1E" stroke-width="0.8" stroke-dasharray="36 36"/>
<path d="M776.497 119L685.997 275L641.997 328.5C630.664 341.667 599.997 361.4 567.997 335C527.997 302 428.997 223.5 401.997 220.5C374.997 217.5 350.497 210.5 318.497 226C286.497 241.5 237.497 292 235.997 417.5C234.497 543 292.497 616.5 354.997 614C404.997 612 430.832 600.167 437.5 594.5C441.666 595.667 473.597 578 567.997 498C577.997 486.833 606.797 472.2 641.997 503L685.997 561L776.497 715.5" stroke="#F7931A" stroke-width="2"/>
<path d="M122 417.5L132 423.274L132 411.726L122 417.5ZM871 417.5L861 411.727L861 423.274L871 417.5ZM131 418.5L862 418.5L862 416.5L131 416.5L131 418.5Z" fill="#1E1E1E"/>
<path d="M89 156L1015 156.995" stroke="#1E1E1E" stroke-width="0.2" stroke-dasharray="8 8"/>
<path d="M89 258L1028 258" stroke="#1E1E1E" stroke-width="0.2" stroke-dasharray="8 8"/>
<path d="M89 360L1028 360" stroke="#1E1E1E" stroke-width="0.2" stroke-dasharray="8 8"/>
<path d="M89 462L1028 462" stroke="#1E1E1E" stroke-width="0.2" stroke-dasharray="8 8"/>
<path d="M89 564L1028 564" stroke="#1E1E1E" stroke-width="0.2" stroke-dasharray="8 8"/>
<path d="M89 666L1028 666" stroke="#1E1E1E" stroke-width="0.2" stroke-dasharray="8 8"/>
<path d="M89 768L1028 768" stroke="#1E1E1E" stroke-width="0.2" stroke-dasharray="8 8"/>
<path d="M701 70L701 824" stroke="#1E1E1E" stroke-width="0.2" stroke-dasharray="8 8"/>
<path d="M599 70L599 824" stroke="#1E1E1E" stroke-width="0.2" stroke-dasharray="8 8"/>
<path d="M497 70L497 824" stroke="#1E1E1E" stroke-width="0.2" stroke-dasharray="8 8"/>
<path d="M395 70L395 824" stroke="#1E1E1E" stroke-width="0.2" stroke-dasharray="8 8"/>
<path d="M293 70L293 824" stroke="#1E1E1E" stroke-width="0.2" stroke-dasharray="8 8"/>
<path d="M191 70L191 824" stroke="#1E1E1E" stroke-width="0.2" stroke-dasharray="8 8"/>
<path d="M905 65L905 819" stroke="#1E1E1E" stroke-width="0.2" stroke-dasharray="8 8"/>
<path d="M803 65L803 819" stroke="#1E1E1E" stroke-width="0.2" stroke-dasharray="8 8"/>
<path d="M701 65L701 819" stroke="#1E1E1E" stroke-width="0.2" stroke-dasharray="8 8"/>
<circle cx="681" cy="555.5" r="10" fill="#F7931A"/>
<path d="M703.595 535.168C703.352 535.168 703.138 535.084 702.951 534.916C702.783 534.729 702.699 534.515 702.699 534.272V517.304C702.699 516.949 702.736 516.697 702.811 516.548C702.904 516.38 703.11 516.259 703.427 516.184C703.744 516.109 704.267 516.072 704.995 516.072C708.486 516.072 711.099 516.567 712.835 517.556C714.571 518.545 715.439 519.973 715.439 521.84C715.439 523.445 714.842 524.752 713.647 525.76C712.452 526.749 711.015 527.459 709.335 527.888C707.655 528.317 706.04 528.541 704.491 528.56V534.272C704.491 534.515 704.407 534.729 704.239 534.916C704.071 535.084 703.856 535.168 703.595 535.168ZM704.491 526.796C705.611 526.777 706.871 526.628 708.271 526.348C709.671 526.068 710.922 525.564 712.023 524.836C713.124 524.089 713.675 523.091 713.675 521.84C713.675 520.552 712.966 519.563 711.547 518.872C710.128 518.181 708.103 517.836 705.471 517.836C704.967 517.836 704.64 517.845 704.491 517.864V526.796ZM725.451 535.168C723.118 535.168 721.316 534.3 720.047 532.564C718.796 530.809 718.106 528.252 717.975 524.892C717.938 523.959 717.919 522.876 717.919 521.644L717.947 519.152C717.966 518.648 717.975 517.911 717.975 516.94C717.975 516.716 718.059 516.52 718.227 516.352C718.414 516.184 718.628 516.1 718.871 516.1C719.132 516.1 719.338 516.184 719.487 516.352C719.655 516.52 719.739 516.725 719.739 516.968C719.739 517.883 719.73 518.564 719.711 519.012L719.683 521.056C719.683 522.083 719.702 523.231 719.739 524.5C719.832 527.095 720.28 529.26 721.083 530.996C721.904 532.732 723.379 533.6 725.507 533.6C727.243 533.6 728.606 533.068 729.595 532.004C730.584 530.921 731.191 529.381 731.415 527.384C731.583 525.779 731.667 523.884 731.667 521.7L731.639 517.024C731.639 516.781 731.714 516.567 731.863 516.38C732.012 516.193 732.227 516.1 732.507 516.1C732.768 516.1 732.983 516.193 733.151 516.38C733.319 516.548 733.403 516.744 733.403 516.968C733.403 517.061 733.422 517.64 733.459 518.704C733.496 519.749 733.515 520.804 733.515 521.868C733.515 523.959 733.403 525.872 733.179 527.608C732.526 532.648 729.95 535.168 725.451 535.168ZM738.874 535.224C738.109 535.224 737.726 534.869 737.726 534.16V517.08C737.726 516.837 737.81 516.632 737.978 516.464C738.165 516.277 738.38 516.184 738.622 516.184H743.662C745.006 516.184 746.136 516.417 747.05 516.884C747.984 517.332 748.674 517.92 749.122 518.648C749.589 519.357 749.822 520.095 749.822 520.86C749.822 521.775 749.645 522.559 749.29 523.212C748.954 523.865 748.516 524.388 747.974 524.78C750.308 525.639 751.474 527.179 751.474 529.4C751.474 531.267 750.42 532.704 748.31 533.712C746.201 534.72 743.056 535.224 738.874 535.224ZM744.81 524.304C745.408 524.304 745.958 524.145 746.462 523.828C746.966 523.511 747.358 523.091 747.638 522.568C747.918 522.045 748.058 521.504 748.058 520.944C748.058 520.048 747.666 519.32 746.882 518.76C746.098 518.181 745.025 517.892 743.662 517.892H739.546V524.304H744.81ZM739.546 533.544C742.496 533.525 744.922 533.171 746.826 532.48C748.73 531.789 749.682 530.763 749.682 529.4C749.682 528.392 749.262 527.58 748.422 526.964C747.582 526.329 746.462 526.012 745.062 526.012H739.546V533.544ZM755.958 535.168C755.734 535.187 755.528 535.103 755.342 534.916C755.174 534.711 755.09 534.496 755.09 534.272V516.968C755.09 516.744 755.174 516.548 755.342 516.38C755.528 516.193 755.743 516.1 755.986 516.1C756.228 516.1 756.434 516.193 756.602 516.38C756.788 516.548 756.882 516.744 756.882 516.968V533.348L765.534 532.76C765.795 532.741 766.01 532.816 766.178 532.984C766.346 533.152 766.43 533.367 766.43 533.628C766.43 533.852 766.346 534.048 766.178 534.216C766.01 534.384 765.814 534.477 765.59 534.496L755.958 535.168ZM768.726 535C768.464 535 768.24 534.916 768.054 534.748C767.886 534.58 767.802 534.375 767.802 534.132C767.802 533.889 767.886 533.693 768.054 533.544C768.24 533.376 768.464 533.292 768.726 533.292H771.386V517.948H768.726C768.464 517.948 768.24 517.864 768.054 517.696C767.886 517.528 767.802 517.323 767.802 517.08C767.802 516.837 767.886 516.641 768.054 516.492C768.24 516.324 768.464 516.24 768.726 516.24H775.81C776.052 516.24 776.258 516.324 776.426 516.492C776.594 516.641 776.678 516.837 776.678 517.08C776.678 517.323 776.594 517.528 776.426 517.696C776.258 517.864 776.052 517.948 775.81 517.948H773.178V533.292H775.81C776.071 533.292 776.276 533.376 776.426 533.544C776.594 533.693 776.678 533.889 776.678 534.132C776.678 534.375 776.594 534.58 776.426 534.748C776.258 534.916 776.052 535 775.81 535H768.726ZM786.346 535.168C784.871 535.168 783.518 534.823 782.286 534.132C781.054 533.441 780.074 532.471 779.346 531.22C778.618 529.951 778.254 528.495 778.254 526.852C778.254 525.023 778.665 523.277 779.486 521.616C780.326 519.936 781.409 518.592 782.734 517.584C784.078 516.576 785.459 516.072 786.878 516.072C787.681 516.072 788.371 516.175 788.95 516.38C789.529 516.567 790.079 516.828 790.602 517.164C790.658 517.052 790.751 516.959 790.882 516.884C791.013 516.809 791.162 516.772 791.33 516.772C791.573 516.772 791.778 516.856 791.946 517.024C792.114 517.192 792.198 517.397 792.198 517.64V519.432C792.198 519.675 792.105 519.889 791.918 520.076C791.75 520.244 791.545 520.328 791.302 520.328C791.059 520.328 790.845 520.244 790.658 520.076C790.49 519.908 790.406 519.703 790.406 519.46V519.236C789.995 518.844 789.519 518.517 788.978 518.256C788.437 517.976 787.737 517.836 786.878 517.836C785.777 517.836 784.703 518.256 783.658 519.096C782.613 519.936 781.754 521.056 781.082 522.456C780.429 523.837 780.102 525.303 780.102 526.852C780.102 528.177 780.391 529.335 780.97 530.324C781.549 531.313 782.314 532.079 783.266 532.62C784.218 533.143 785.245 533.404 786.346 533.404C788.493 533.404 790.238 532.527 791.582 530.772C791.694 530.641 791.797 530.557 791.89 530.52C792.002 530.464 792.133 530.436 792.282 530.436C792.525 530.436 792.73 530.52 792.898 530.688C793.085 530.837 793.178 531.052 793.178 531.332C793.178 531.556 793.122 531.733 793.01 531.864C792.226 532.928 791.255 533.749 790.098 534.328C788.941 534.888 787.69 535.168 786.346 535.168ZM817.713 535.196C817.508 535.196 817.33 535.131 817.181 535L807.549 527.468V534.272C807.549 534.515 807.456 534.729 807.269 534.916C807.101 535.084 806.896 535.168 806.653 535.168C806.41 535.168 806.205 535.084 806.037 534.916C805.869 534.729 805.785 534.515 805.785 534.272V516.968C805.785 516.725 805.869 516.52 806.037 516.352C806.205 516.184 806.41 516.1 806.653 516.1C806.896 516.1 807.101 516.184 807.269 516.352C807.456 516.52 807.549 516.725 807.549 516.968V524.052L816.593 516.296C816.78 516.147 816.976 516.072 817.181 516.072C817.405 516.072 817.601 516.165 817.769 516.352C817.937 516.539 818.021 516.744 818.021 516.968C818.021 517.229 817.928 517.444 817.741 517.612L808.193 525.788L818.273 533.628C818.478 533.796 818.581 534.02 818.581 534.3C818.581 534.543 818.497 534.757 818.329 534.944C818.161 535.112 817.956 535.196 817.713 535.196ZM822.377 535C822.134 535 821.92 534.907 821.733 534.72C821.546 534.533 821.453 534.319 821.453 534.076V517.136C821.453 516.893 821.537 516.688 821.705 516.52C821.892 516.333 822.116 516.24 822.377 516.24H834.221C834.482 516.24 834.697 516.324 834.865 516.492C835.033 516.66 835.117 516.875 835.117 517.136C835.117 517.379 835.024 517.593 834.837 517.78C834.669 517.948 834.464 518.032 834.221 518.032H823.245V524.332H832.877C833.138 524.332 833.344 524.416 833.493 524.584C833.661 524.733 833.745 524.939 833.745 525.2C833.745 525.461 833.661 525.685 833.493 525.872C833.325 526.04 833.12 526.124 832.877 526.124H823.245V533.208H834.165C834.426 533.208 834.641 533.292 834.809 533.46C834.977 533.628 835.061 533.833 835.061 534.076C835.061 534.337 834.968 534.561 834.781 534.748C834.613 534.916 834.408 535 834.165 535H822.377ZM841.236 535.168C840.993 535.168 840.788 535.075 840.62 534.888C840.452 534.701 840.368 534.496 840.368 534.272C840.368 534.085 840.424 533.908 840.536 533.74L843.28 529.12L836.532 517.528C836.401 517.341 836.336 517.155 836.336 516.968C836.336 516.744 836.429 516.548 836.616 516.38C836.803 516.193 837.017 516.1 837.26 516.1C837.391 516.1 837.521 516.147 837.652 516.24C837.801 516.315 837.913 516.417 837.988 516.548L844.316 527.384L850.756 516.548C850.924 516.249 851.176 516.1 851.512 516.1C851.736 516.1 851.941 516.184 852.128 516.352C852.315 516.52 852.408 516.725 852.408 516.968C852.408 517.136 852.324 517.351 852.156 517.612L841.992 534.72C841.917 534.851 841.805 534.953 841.656 535.028C841.525 535.121 841.385 535.168 841.236 535.168ZM733.755 567.168C733.512 567.168 733.298 567.084 733.111 566.916C732.943 566.729 732.859 566.515 732.859 566.272V549.304C732.859 548.949 732.896 548.697 732.971 548.548C733.064 548.38 733.27 548.259 733.587 548.184C733.904 548.109 734.427 548.072 735.155 548.072C738.646 548.072 741.259 548.567 742.995 549.556C744.731 550.545 745.599 551.973 745.599 553.84C745.599 555.445 745.002 556.752 743.807 557.76C742.612 558.749 741.175 559.459 739.495 559.888C737.815 560.317 736.2 560.541 734.651 560.56V566.272C734.651 566.515 734.567 566.729 734.399 566.916C734.231 567.084 734.016 567.168 733.755 567.168ZM734.651 558.796C735.771 558.777 737.031 558.628 738.431 558.348C739.831 558.068 741.082 557.564 742.183 556.836C743.284 556.089 743.835 555.091 743.835 553.84C743.835 552.552 743.126 551.563 741.707 550.872C740.288 550.181 738.263 549.836 735.631 549.836C735.127 549.836 734.8 549.845 734.651 549.864V558.796ZM758.075 558.824C757.832 558.824 757.627 558.749 757.459 558.6C757.291 558.432 757.207 558.227 757.207 557.984C757.207 557.741 757.291 557.536 757.459 557.368C757.627 557.181 757.832 557.088 758.075 557.088H765.943C766.185 557.088 766.391 557.181 766.559 557.368C766.745 557.536 766.839 557.741 766.839 557.984C766.839 558.227 766.745 558.432 766.559 558.6C766.391 558.749 766.185 558.824 765.943 558.824H758.075ZM758.075 563.248C757.832 563.248 757.627 563.173 757.459 563.024C757.291 562.856 757.207 562.651 757.207 562.408C757.207 562.165 757.291 561.96 757.459 561.792C757.627 561.624 757.832 561.54 758.075 561.54H765.943C766.185 561.54 766.391 561.624 766.559 561.792C766.745 561.96 766.839 562.165 766.839 562.408C766.839 562.651 766.745 562.856 766.559 563.024C766.391 563.173 766.185 563.248 765.943 563.248H758.075ZM780.92 567.168C780.696 567.168 780.491 567.084 780.304 566.916C780.136 566.729 780.052 566.524 780.052 566.3L779.996 548.772C779.996 548.529 780.08 548.333 780.248 548.184C780.416 548.016 780.621 547.932 780.864 547.932C781.107 547.932 781.312 548.025 781.48 548.212C781.667 548.38 781.76 548.585 781.76 548.828L781.788 559.832C782.628 559.253 783.748 558.292 785.148 556.948C786.548 555.604 787.733 554.307 788.704 553.056C788.872 552.795 789.105 552.664 789.404 552.664C789.647 552.664 789.852 552.748 790.02 552.916C790.188 553.084 790.272 553.28 790.272 553.504C790.272 553.635 790.207 553.812 790.076 554.036C789.516 554.764 788.779 555.604 787.864 556.556C786.968 557.508 786.193 558.273 785.54 558.852C785.988 559.468 787.08 560.849 788.816 562.996L790.916 565.6C791.084 565.805 791.168 565.992 791.168 566.16C791.168 566.403 791.084 566.617 790.916 566.804C790.767 566.991 790.561 567.084 790.3 567.084C790.001 567.084 789.768 566.981 789.6 566.776C788.219 564.909 786.427 562.604 784.224 559.86C783.44 560.495 782.637 561.055 781.816 561.54V566.3C781.816 566.524 781.723 566.729 781.536 566.916C781.368 567.084 781.163 567.168 780.92 567.168ZM794.846 554.764C794.622 554.764 794.426 554.689 794.258 554.54C794.09 554.391 794.006 554.204 794.006 553.98C794.006 553.607 794.212 553.215 794.622 552.804C795.014 552.375 795.481 552.001 796.022 551.684C795.444 551.609 794.846 551.488 794.23 551.32C793.521 551.115 793.166 550.769 793.166 550.284C793.166 550.041 793.241 549.836 793.39 549.668C793.558 549.5 793.773 549.416 794.034 549.416C794.389 549.416 794.781 549.556 795.21 549.836C795.341 549.911 795.733 550.181 796.386 550.648C796.274 550.443 796.172 550.163 796.078 549.808C796.004 549.453 795.966 549.089 795.966 548.716C795.966 548.361 796.05 548.091 796.218 547.904C796.405 547.699 796.629 547.596 796.89 547.596C797.17 547.596 797.394 547.699 797.562 547.904C797.73 548.091 797.814 548.352 797.814 548.688C797.814 549.043 797.777 549.407 797.702 549.78C797.628 550.153 797.553 550.443 797.478 550.648C797.889 550.331 798.309 550.06 798.738 549.836C799.168 549.593 799.513 549.472 799.774 549.472C800.017 549.472 800.222 549.556 800.39 549.724C800.558 549.873 800.642 550.06 800.642 550.284C800.642 550.788 800.297 551.143 799.606 551.348C799.289 551.46 798.962 551.535 798.626 551.572C798.29 551.609 798.029 551.647 797.842 551.684C798.197 551.889 798.589 552.197 799.018 552.608C799.522 553.056 799.774 553.485 799.774 553.896C799.774 554.139 799.7 554.344 799.55 554.512C799.401 554.68 799.205 554.764 798.962 554.764C798.72 554.764 798.505 554.689 798.318 554.54C798.132 554.391 797.917 554.148 797.674 553.812C797.432 553.439 797.18 552.935 796.918 552.3C796.713 552.879 796.461 553.383 796.162 553.812C795.64 554.447 795.201 554.764 794.846 554.764ZM812.222 567.196C810.691 567.196 809.273 566.813 807.966 566.048C806.678 565.264 805.651 564.172 804.886 562.772C804.139 561.353 803.766 559.729 803.766 557.9C803.766 556.313 804.139 554.764 804.886 553.252C805.633 551.721 806.678 550.471 808.022 549.5C809.385 548.529 810.934 548.044 812.67 548.044C814.275 548.044 815.629 548.38 816.73 549.052C817.85 549.705 818.69 550.461 819.25 551.32C819.81 552.179 820.09 552.86 820.09 553.364C820.09 553.607 820.006 553.803 819.838 553.952C819.689 554.083 819.483 554.148 819.222 554.148C819.035 554.148 818.858 554.101 818.69 554.008C818.541 553.896 818.429 553.747 818.354 553.56C817.962 552.515 817.299 551.637 816.366 550.928C815.451 550.2 814.219 549.836 812.67 549.836C811.065 549.836 809.73 550.303 808.666 551.236C807.602 552.169 806.818 553.271 806.314 554.54C805.829 555.791 805.586 556.911 805.586 557.9C805.586 559.431 805.885 560.765 806.482 561.904C807.098 563.024 807.91 563.892 808.918 564.508C809.945 565.105 811.046 565.404 812.222 565.404C813.753 565.404 815.069 564.975 816.17 564.116C817.29 563.239 818.046 562.053 818.438 560.56H817.71C816.758 560.56 815.797 560.681 814.826 560.924C814.453 560.999 814.238 561.036 814.182 561.036C813.939 561.036 813.734 560.952 813.566 560.784C813.398 560.616 813.314 560.401 813.314 560.14C813.314 559.953 813.361 559.785 813.454 559.636C813.566 559.468 813.725 559.347 813.93 559.272C814.341 559.123 814.91 559.001 815.638 558.908C816.366 558.815 817.085 558.768 817.794 558.768C819.026 558.768 820.053 558.927 820.874 559.244C821.247 559.356 821.434 559.636 821.434 560.084C821.434 560.327 821.35 560.532 821.182 560.7C821.033 560.849 820.846 560.933 820.622 560.952C820.491 560.952 820.351 560.924 820.202 560.868C819.754 562.716 818.83 564.237 817.43 565.432C816.03 566.608 814.294 567.196 812.222 567.196Z" fill="#F7931A"/>
<path d="M173.329 717.168C173.087 717.168 172.872 717.084 172.685 716.916C172.517 716.729 172.433 716.515 172.433 716.272V699.304C172.433 698.949 172.471 698.697 172.545 698.548C172.639 698.38 172.844 698.259 173.161 698.184C173.479 698.109 174.001 698.072 174.729 698.072C178.22 698.072 180.833 698.567 182.569 699.556C184.305 700.545 185.173 701.973 185.173 703.84C185.173 705.445 184.576 706.752 183.381 707.76C182.187 708.749 180.749 709.459 179.069 709.888C177.389 710.317 175.775 710.541 174.225 710.56V716.272C174.225 716.515 174.141 716.729 173.973 716.916C173.805 717.084 173.591 717.168 173.329 717.168ZM174.225 708.796C175.345 708.777 176.605 708.628 178.005 708.348C179.405 708.068 180.656 707.564 181.757 706.836C182.859 706.089 183.409 705.091 183.409 703.84C183.409 702.552 182.7 701.563 181.281 700.872C179.863 700.181 177.837 699.836 175.205 699.836C174.701 699.836 174.375 699.845 174.225 699.864V708.796ZM188.997 717.168C188.755 717.168 188.54 717.084 188.353 716.916C188.185 716.729 188.101 716.515 188.101 716.272V699.332C188.101 698.977 188.148 698.716 188.241 698.548C188.353 698.38 188.559 698.268 188.857 698.212C189.156 698.156 189.641 698.128 190.313 698.128H191.125C194.28 698.128 196.707 698.632 198.405 699.64C200.104 700.648 200.953 702.076 200.953 703.924C200.953 706.388 199.264 708.217 195.885 709.412C196.763 709.972 197.724 710.803 198.769 711.904C199.833 712.987 200.757 714.312 201.541 715.88C201.616 715.973 201.653 716.104 201.653 716.272C201.653 716.515 201.569 716.729 201.401 716.916C201.233 717.084 201.019 717.168 200.757 717.168C200.44 717.168 200.179 717 199.973 716.664C197.36 712.352 194.849 710.196 192.441 710.196C191.825 710.196 190.967 710.28 189.865 710.448V716.272C189.865 716.515 189.781 716.729 189.613 716.916C189.445 717.084 189.24 717.168 188.997 717.168ZM189.865 708.712C191.321 708.675 192.759 708.488 194.177 708.152C195.615 707.797 196.809 707.265 197.761 706.556C198.713 705.847 199.189 704.969 199.189 703.924C199.189 702.599 198.48 701.591 197.061 700.9C195.643 700.209 193.636 699.864 191.041 699.864C190.519 699.864 190.127 699.873 189.865 699.892V708.712ZM204.417 717C204.156 717 203.932 716.916 203.745 716.748C203.577 716.58 203.493 716.375 203.493 716.132C203.493 715.889 203.577 715.693 203.745 715.544C203.932 715.376 204.156 715.292 204.417 715.292H207.077V699.948H204.417C204.156 699.948 203.932 699.864 203.745 699.696C203.577 699.528 203.493 699.323 203.493 699.08C203.493 698.837 203.577 698.641 203.745 698.492C203.932 698.324 204.156 698.24 204.417 698.24H211.501C211.744 698.24 211.949 698.324 212.117 698.492C212.285 698.641 212.369 698.837 212.369 699.08C212.369 699.323 212.285 699.528 212.117 699.696C211.949 699.864 211.744 699.948 211.501 699.948H208.869V715.292H211.501C211.762 715.292 211.968 715.376 212.117 715.544C212.285 715.693 212.369 715.889 212.369 716.132C212.369 716.375 212.285 716.58 212.117 716.748C211.949 716.916 211.744 717 211.501 717H204.417ZM220.506 717.168C220.319 717.168 220.142 717.112 219.974 717C219.825 716.888 219.722 716.748 219.666 716.58L213.87 699.444C213.814 699.276 213.786 699.117 213.786 698.968C213.786 698.725 213.861 698.529 214.01 698.38C214.178 698.212 214.402 698.128 214.682 698.128C214.85 698.128 215.009 698.184 215.158 698.296C215.326 698.408 215.447 698.548 215.522 698.716L220.59 713.696L226.498 698.66C226.666 698.305 226.946 698.128 227.338 698.128C227.599 698.128 227.805 698.212 227.954 698.38C228.122 698.548 228.206 698.744 228.206 698.968C228.206 699.099 228.187 699.22 228.15 699.332L221.346 716.608C221.197 716.981 220.917 717.168 220.506 717.168ZM241.271 717.196C241.084 717.196 240.907 717.14 240.739 717.028C240.59 716.916 240.487 716.767 240.431 716.58L238.135 709.916L231.163 711.456L229.119 716.608C229.063 716.776 228.96 716.907 228.811 717C228.662 717.112 228.494 717.168 228.307 717.168C228.064 717.168 227.859 717.084 227.691 716.916C227.542 716.748 227.467 716.533 227.467 716.272C227.467 716.16 227.504 716.001 227.579 715.796L229.119 711.848C228.951 711.904 228.783 711.932 228.615 711.932C228.391 711.913 228.204 711.829 228.055 711.68C227.906 711.512 227.831 711.307 227.831 711.064C227.831 710.859 227.896 710.672 228.027 710.504C228.158 710.336 228.316 710.233 228.503 710.196L229.903 709.888L234.383 698.436C234.458 698.268 234.579 698.137 234.747 698.044C234.915 697.932 235.083 697.876 235.251 697.876C235.438 697.876 235.606 697.932 235.755 698.044C235.904 698.137 236.016 698.277 236.091 698.464L241.999 715.656C242.111 715.992 242.167 716.216 242.167 716.328C242.167 716.552 242.083 716.757 241.915 716.944C241.747 717.112 241.532 717.196 241.271 717.196ZM237.519 708.236L235.139 701.264L231.919 709.44L237.519 708.236ZM248.183 717.168C247.94 717.168 247.735 717.084 247.567 716.916C247.399 716.729 247.315 716.515 247.315 716.272V700.004H242.023C241.78 700.004 241.566 699.92 241.379 699.752C241.211 699.584 241.127 699.379 241.127 699.136C241.127 698.893 241.211 698.688 241.379 698.52C241.566 698.333 241.78 698.24 242.023 698.24H254.371C254.614 698.24 254.819 698.324 254.987 698.492C255.155 698.66 255.239 698.875 255.239 699.136C255.239 699.379 255.155 699.584 254.987 699.752C254.819 699.92 254.614 700.004 254.371 700.004H249.079V716.272C249.079 716.515 248.986 716.729 248.799 716.916C248.631 717.084 248.426 717.168 248.183 717.168ZM258.752 717C258.509 717 258.295 716.907 258.108 716.72C257.921 716.533 257.828 716.319 257.828 716.076V699.136C257.828 698.893 257.912 698.688 258.08 698.52C258.267 698.333 258.491 698.24 258.752 698.24H270.596C270.857 698.24 271.072 698.324 271.24 698.492C271.408 698.66 271.492 698.875 271.492 699.136C271.492 699.379 271.399 699.593 271.212 699.78C271.044 699.948 270.839 700.032 270.596 700.032H259.62V706.332H269.252C269.513 706.332 269.719 706.416 269.868 706.584C270.036 706.733 270.12 706.939 270.12 707.2C270.12 707.461 270.036 707.685 269.868 707.872C269.7 708.04 269.495 708.124 269.252 708.124H259.62V715.208H270.54C270.801 715.208 271.016 715.292 271.184 715.46C271.352 715.628 271.436 715.833 271.436 716.076C271.436 716.337 271.343 716.561 271.156 716.748C270.988 716.916 270.783 717 270.54 717H258.752ZM295.979 717.196C295.773 717.196 295.596 717.131 295.447 717L285.815 709.468V716.272C285.815 716.515 285.721 716.729 285.535 716.916C285.367 717.084 285.161 717.168 284.919 717.168C284.676 717.168 284.471 717.084 284.303 716.916C284.135 716.729 284.051 716.515 284.051 716.272V698.968C284.051 698.725 284.135 698.52 284.303 698.352C284.471 698.184 284.676 698.1 284.919 698.1C285.161 698.1 285.367 698.184 285.535 698.352C285.721 698.52 285.815 698.725 285.815 698.968V706.052L294.859 698.296C295.045 698.147 295.241 698.072 295.447 698.072C295.671 698.072 295.867 698.165 296.035 698.352C296.203 698.539 296.287 698.744 296.287 698.968C296.287 699.229 296.193 699.444 296.007 699.612L286.459 707.788L296.539 715.628C296.744 715.796 296.847 716.02 296.847 716.3C296.847 716.543 296.763 716.757 296.595 716.944C296.427 717.112 296.221 717.196 295.979 717.196ZM300.643 717C300.4 717 300.185 716.907 299.999 716.72C299.812 716.533 299.719 716.319 299.719 716.076V699.136C299.719 698.893 299.803 698.688 299.971 698.52C300.157 698.333 300.381 698.24 300.643 698.24H312.487C312.748 698.24 312.963 698.324 313.131 698.492C313.299 698.66 313.383 698.875 313.383 699.136C313.383 699.379 313.289 699.593 313.103 699.78C312.935 699.948 312.729 700.032 312.487 700.032H301.511V706.332H311.143C311.404 706.332 311.609 706.416 311.759 706.584C311.927 706.733 312.011 706.939 312.011 707.2C312.011 707.461 311.927 707.685 311.759 707.872C311.591 708.04 311.385 708.124 311.143 708.124H301.511V715.208H312.431C312.692 715.208 312.907 715.292 313.075 715.46C313.243 715.628 313.327 715.833 313.327 716.076C313.327 716.337 313.233 716.561 313.047 716.748C312.879 716.916 312.673 717 312.431 717H300.643ZM319.502 717.168C319.259 717.168 319.054 717.075 318.886 716.888C318.718 716.701 318.634 716.496 318.634 716.272C318.634 716.085 318.69 715.908 318.802 715.74L321.546 711.12L314.798 699.528C314.667 699.341 314.602 699.155 314.602 698.968C314.602 698.744 314.695 698.548 314.882 698.38C315.068 698.193 315.283 698.1 315.526 698.1C315.656 698.1 315.787 698.147 315.918 698.24C316.067 698.315 316.179 698.417 316.254 698.548L322.582 709.384L329.022 698.548C329.19 698.249 329.442 698.1 329.778 698.1C330.002 698.1 330.207 698.184 330.394 698.352C330.58 698.52 330.674 698.725 330.674 698.968C330.674 699.136 330.59 699.351 330.422 699.612L320.258 716.72C320.183 716.851 320.071 716.953 319.922 717.028C319.791 717.121 319.651 717.168 319.502 717.168ZM136.152 749.168C135.928 749.168 135.723 749.084 135.536 748.916C135.368 748.729 135.284 748.524 135.284 748.3L135.228 730.772C135.228 730.529 135.312 730.333 135.48 730.184C135.648 730.016 135.854 729.932 136.096 729.932C136.339 729.932 136.544 730.025 136.712 730.212C136.899 730.38 136.992 730.585 136.992 730.828L137.02 741.832C137.86 741.253 138.98 740.292 140.38 738.948C141.78 737.604 142.966 736.307 143.936 735.056C144.104 734.795 144.338 734.664 144.636 734.664C144.879 734.664 145.084 734.748 145.252 734.916C145.42 735.084 145.504 735.28 145.504 735.504C145.504 735.635 145.439 735.812 145.308 736.036C144.748 736.764 144.011 737.604 143.096 738.556C142.2 739.508 141.426 740.273 140.772 740.852C141.22 741.468 142.312 742.849 144.048 744.996L146.148 747.6C146.316 747.805 146.4 747.992 146.4 748.16C146.4 748.403 146.316 748.617 146.148 748.804C145.999 748.991 145.794 749.084 145.532 749.084C145.234 749.084 145 748.981 144.832 748.776C143.451 746.909 141.659 744.604 139.456 741.86C138.672 742.495 137.87 743.055 137.048 743.54V748.3C137.048 748.524 136.955 748.729 136.768 748.916C136.6 749.084 136.395 749.168 136.152 749.168ZM158.506 740.824C158.264 740.824 158.058 740.749 157.89 740.6C157.722 740.432 157.638 740.227 157.638 739.984C157.638 739.741 157.722 739.536 157.89 739.368C158.058 739.181 158.264 739.088 158.506 739.088H166.374C166.617 739.088 166.822 739.181 166.99 739.368C167.177 739.536 167.27 739.741 167.27 739.984C167.27 740.227 167.177 740.432 166.99 740.6C166.822 740.749 166.617 740.824 166.374 740.824H158.506ZM158.506 745.248C158.264 745.248 158.058 745.173 157.89 745.024C157.722 744.856 157.638 744.651 157.638 744.408C157.638 744.165 157.722 743.96 157.89 743.792C158.058 743.624 158.264 743.54 158.506 743.54H166.374C166.617 743.54 166.822 743.624 166.99 743.792C167.177 743.96 167.27 744.165 167.27 744.408C167.27 744.651 167.177 744.856 166.99 745.024C166.822 745.173 166.617 745.248 166.374 745.248H158.506ZM180.091 748.16C180.091 746.667 180.315 745.397 180.763 744.352C181.23 743.307 181.827 742.439 182.555 741.748C183.283 741.039 184.198 740.329 185.299 739.62C186.289 739.004 187.026 738.509 187.511 738.136C188.015 737.763 188.435 737.305 188.771 736.764C189.126 736.223 189.303 735.597 189.303 734.888C189.303 734.029 188.958 733.311 188.267 732.732C187.595 732.153 186.765 731.864 185.775 731.864C184.823 731.864 183.993 732.097 183.283 732.564C182.574 733.031 182.051 733.46 181.715 733.852C181.529 734.057 181.379 734.207 181.267 734.3C181.174 734.375 181.034 734.412 180.847 734.412C180.586 734.412 180.371 734.319 180.203 734.132C180.035 733.945 179.951 733.74 179.951 733.516C179.951 733.348 180.007 733.18 180.119 733.012C180.231 732.844 180.446 732.62 180.763 732.34C182.275 730.865 183.946 730.128 185.775 730.128C186.783 730.128 187.689 730.343 188.491 730.772C189.294 731.183 189.919 731.752 190.367 732.48C190.834 733.208 191.067 734.011 191.067 734.888C191.067 735.896 190.853 736.764 190.423 737.492C190.013 738.201 189.509 738.799 188.911 739.284C188.314 739.751 187.483 740.329 186.419 741.02C185.505 741.617 184.749 742.177 184.151 742.7C183.554 743.204 183.041 743.839 182.611 744.604C182.182 745.351 181.939 746.237 181.883 747.264H190.423C190.666 747.264 190.871 747.357 191.039 747.544C191.226 747.712 191.319 747.917 191.319 748.16C191.319 748.384 191.226 748.58 191.039 748.748C190.871 748.916 190.666 749 190.423 749H180.091V748.16ZM199.984 749.168C199.013 749.168 198.136 748.991 197.352 748.636C196.568 748.263 195.933 747.843 195.448 747.376C194.962 746.891 194.636 746.461 194.468 746.088C194.393 745.995 194.356 745.855 194.356 745.668C194.356 745.425 194.44 745.22 194.608 745.052C194.794 744.884 195.009 744.8 195.252 744.8C195.438 744.8 195.578 744.837 195.672 744.912C195.784 744.968 195.896 745.08 196.008 745.248C196.568 745.957 197.156 746.499 197.772 746.872C198.388 747.227 199.125 747.404 199.984 747.404C200.786 747.404 201.542 747.161 202.252 746.676C202.98 746.172 203.558 745.509 203.988 744.688C204.417 743.848 204.632 742.952 204.632 742C204.632 740.712 204.277 739.611 203.568 738.696C202.877 737.763 201.869 737.296 200.544 737.296C199.629 737.296 198.864 737.473 198.248 737.828C197.65 738.183 197.118 738.593 196.652 739.06C196.446 739.265 196.222 739.368 195.98 739.368C195.7 739.368 195.466 739.275 195.28 739.088C195.112 738.883 195.046 738.64 195.084 738.36L195.812 731.108C195.83 730.884 195.933 730.697 196.12 730.548C196.306 730.399 196.502 730.324 196.708 730.324H204.716C204.958 730.324 205.164 730.408 205.332 730.576C205.518 730.744 205.612 730.949 205.612 731.192C205.612 731.435 205.518 731.64 205.332 731.808C205.164 731.976 204.958 732.06 204.716 732.06H197.492L197.044 736.512C198.201 735.877 199.368 735.56 200.544 735.56C201.645 735.56 202.634 735.831 203.512 736.372C204.408 736.913 205.108 737.669 205.612 738.64C206.116 739.611 206.368 740.731 206.368 742C206.368 743.288 206.069 744.483 205.472 745.584C204.874 746.685 204.081 747.563 203.092 748.216C202.121 748.851 201.085 749.168 199.984 749.168ZM215.748 749.168C214.684 749.168 213.694 748.935 212.78 748.468C211.884 748.001 211.156 747.245 210.596 746.2C210.036 745.155 209.756 743.811 209.756 742.168C209.756 739.107 210.493 736.605 211.968 734.664C213.442 732.704 215.178 731.229 217.176 730.24C217.4 730.147 217.586 730.1 217.736 730.1C217.978 730.1 218.174 730.175 218.324 730.324C218.473 730.473 218.548 730.669 218.548 730.912C218.548 731.099 218.501 731.257 218.408 731.388C218.333 731.519 218.221 731.612 218.072 731.668C216.728 732.265 215.542 733.096 214.516 734.16C213.489 735.205 212.733 736.381 212.248 737.688C213.48 736.979 214.786 736.624 216.168 736.624C217.176 736.624 218.081 736.848 218.884 737.296C219.686 737.725 220.321 738.369 220.788 739.228C221.273 740.068 221.516 741.095 221.516 742.308C221.516 743.671 221.254 744.875 220.732 745.92C220.228 746.947 219.537 747.749 218.66 748.328C217.782 748.888 216.812 749.168 215.748 749.168ZM215.776 747.488C216.56 747.488 217.26 747.273 217.876 746.844C218.51 746.415 219.005 745.808 219.36 745.024C219.714 744.24 219.892 743.335 219.892 742.308C219.892 740.983 219.546 739.984 218.856 739.312C218.165 738.64 217.269 738.304 216.168 738.304C215.085 738.304 214.152 738.509 213.368 738.92C212.602 739.331 211.996 739.76 211.548 740.208C211.454 740.749 211.408 741.403 211.408 742.168C211.408 743.979 211.8 745.323 212.584 746.2C213.368 747.059 214.432 747.488 215.776 747.488ZM225.519 743.008C225.295 743.008 225.09 742.924 224.903 742.756C224.735 742.588 224.651 742.392 224.651 742.168C224.651 741.944 224.735 741.748 224.903 741.58C225.09 741.412 225.295 741.328 225.519 741.328H232.323C232.566 741.328 232.762 741.412 232.911 741.58C233.079 741.729 233.163 741.925 233.163 742.168C233.163 742.392 233.079 742.588 232.911 742.756C232.762 742.924 232.566 743.008 232.323 743.008H225.519ZM237.597 749.168C237.373 749.168 237.168 749.093 236.981 748.944C236.813 748.776 236.729 748.58 236.729 748.356V730.716C236.729 730.492 236.813 730.305 236.981 730.156C237.168 730.007 237.382 729.932 237.625 729.932C237.849 729.932 238.045 730.007 238.213 730.156C238.381 730.305 238.465 730.492 238.465 730.716V737.576C239.062 736.885 239.79 736.353 240.649 735.98C241.508 735.607 242.404 735.42 243.337 735.42C244.812 735.42 245.997 735.98 246.893 737.1C247.789 738.201 248.237 739.695 248.237 741.58C248.237 743.801 247.724 745.593 246.697 746.956C245.689 748.3 244.168 748.972 242.133 748.972C241.498 748.972 240.845 748.897 240.173 748.748C239.501 748.58 238.922 748.393 238.437 748.188V748.412C238.437 748.599 238.353 748.776 238.185 748.944C238.017 749.093 237.821 749.168 237.597 749.168ZM241.909 747.292C245.008 747.292 246.557 745.388 246.557 741.58C246.557 740.199 246.258 739.125 245.661 738.36C245.082 737.576 244.298 737.184 243.309 737.184C242.413 737.184 241.592 737.352 240.845 737.688C240.117 738.024 239.538 738.481 239.109 739.06C238.68 739.639 238.465 740.273 238.465 740.964V746.592C238.82 746.741 239.314 746.9 239.949 747.068C240.602 747.217 241.256 747.292 241.909 747.292ZM252.805 732.984C252.563 732.984 252.357 732.9 252.189 732.732C252.021 732.564 251.937 732.359 251.937 732.116L251.965 730.968C251.965 730.744 252.059 730.548 252.245 730.38C252.432 730.212 252.637 730.128 252.861 730.128C253.085 730.128 253.281 730.221 253.449 730.408C253.617 730.576 253.701 730.772 253.701 730.996L253.673 732.144C253.673 732.387 253.58 732.592 253.393 732.76C253.225 732.909 253.029 732.984 252.805 732.984ZM252.637 749.168C252.395 749.168 252.18 749.084 251.993 748.916C251.807 748.729 251.713 748.515 251.713 748.272L251.881 736.12C251.881 735.877 251.975 735.663 252.161 735.476C252.348 735.289 252.563 735.196 252.805 735.196C253.048 735.196 253.253 735.289 253.421 735.476C253.608 735.644 253.701 735.859 253.701 736.12L253.533 748.272C253.533 748.515 253.44 748.729 253.253 748.916C253.085 749.084 252.88 749.168 252.637 749.168ZM259.653 749.196C259.41 749.196 259.196 749.112 259.009 748.944C258.841 748.776 258.757 748.58 258.757 748.356V736.932H255.649C255.406 736.932 255.201 736.848 255.033 736.68C254.865 736.493 254.781 736.279 254.781 736.036C254.781 735.775 254.874 735.569 255.061 735.42C255.248 735.252 255.462 735.168 255.705 735.168H258.757V731.332C258.757 731.089 258.841 730.884 259.009 730.716C259.196 730.529 259.41 730.436 259.653 730.436C259.914 730.436 260.12 730.529 260.269 730.716C260.437 730.884 260.521 731.089 260.521 731.332V735.168H263.657C263.918 735.168 264.133 735.252 264.301 735.42C264.469 735.588 264.553 735.793 264.553 736.036C264.553 736.279 264.46 736.493 264.273 736.68C264.105 736.848 263.9 736.932 263.657 736.932H260.521V748.356C260.521 748.58 260.428 748.776 260.241 748.944C260.073 749.112 259.877 749.196 259.653 749.196ZM269.653 749.224C268.589 749.224 267.665 749.009 266.881 748.58C266.115 748.132 265.527 747.619 265.117 747.04C264.725 746.443 264.529 745.939 264.529 745.528C264.529 745.285 264.603 745.089 264.753 744.94C264.921 744.772 265.126 744.688 265.369 744.688C265.779 744.688 266.041 744.884 266.153 745.276C266.414 746.023 266.853 746.601 267.469 747.012C268.085 747.423 268.841 747.628 269.737 747.628C270.633 747.628 271.37 747.385 271.949 746.9C272.527 746.415 272.817 745.836 272.817 745.164C272.817 744.772 272.723 744.445 272.537 744.184C272.369 743.904 272.051 743.643 271.585 743.4C271.137 743.157 270.474 742.905 269.597 742.644C268.085 742.177 266.993 741.636 266.321 741.02C265.649 740.404 265.313 739.592 265.313 738.584C265.313 737.576 265.723 736.764 266.545 736.148C267.385 735.513 268.579 735.196 270.129 735.196C271.529 735.196 272.602 735.485 273.349 736.064C274.114 736.624 274.497 737.399 274.497 738.388C274.497 738.836 274.422 739.181 274.273 739.424C274.123 739.648 273.909 739.76 273.629 739.76C273.386 739.76 273.181 739.685 273.013 739.536C272.845 739.368 272.761 739.181 272.761 738.976C272.761 738.883 272.77 738.78 272.789 738.668C272.826 738.556 272.845 738.453 272.845 738.36C272.845 737.856 272.621 737.464 272.173 737.184C271.725 736.885 271.043 736.736 270.129 736.736C269.121 736.736 268.337 736.904 267.777 737.24C267.235 737.557 266.965 738.015 266.965 738.612C266.965 739.191 267.198 739.648 267.665 739.984C268.15 740.32 268.981 740.684 270.157 741.076C271.277 741.449 272.135 741.804 272.733 742.14C273.349 742.476 273.787 742.877 274.049 743.344C274.329 743.792 274.469 744.371 274.469 745.08C274.469 745.771 274.263 746.433 273.853 747.068C273.461 747.703 272.901 748.225 272.173 748.636C271.445 749.028 270.605 749.224 269.653 749.224ZM288.161 732.984C287.918 732.984 287.713 732.9 287.545 732.732C287.377 732.564 287.293 732.359 287.293 732.116L287.321 730.968C287.321 730.744 287.414 730.548 287.601 730.38C287.787 730.212 287.993 730.128 288.217 730.128C288.441 730.128 288.637 730.221 288.805 730.408C288.973 730.576 289.057 730.772 289.057 730.996L289.029 732.144C289.029 732.387 288.935 732.592 288.749 732.76C288.581 732.909 288.385 732.984 288.161 732.984ZM287.993 749.168C287.75 749.168 287.535 749.084 287.349 748.916C287.162 748.729 287.069 748.515 287.069 748.272L287.237 736.12C287.237 735.877 287.33 735.663 287.517 735.476C287.703 735.289 287.918 735.196 288.161 735.196C288.403 735.196 288.609 735.289 288.777 735.476C288.963 735.644 289.057 735.859 289.057 736.12L288.889 748.272C288.889 748.515 288.795 748.729 288.609 748.916C288.441 749.084 288.235 749.168 287.993 749.168ZM294.309 749.168C294.066 749.168 293.851 749.084 293.665 748.916C293.497 748.748 293.413 748.561 293.413 748.356V736.008C293.413 735.765 293.497 735.569 293.665 735.42C293.851 735.252 294.066 735.168 294.309 735.168C294.551 735.168 294.757 735.252 294.925 735.42C295.093 735.569 295.177 735.765 295.177 736.008V740.432C295.718 738.752 296.465 737.464 297.417 736.568C298.387 735.653 299.479 735.196 300.693 735.196C301.719 735.196 302.531 735.457 303.129 735.98C303.726 736.503 304.155 737.333 304.417 738.472C304.678 739.592 304.809 741.104 304.809 743.008C304.809 744.875 304.799 746.097 304.781 746.676V748.272C304.781 748.515 304.697 748.729 304.529 748.916C304.379 749.084 304.183 749.168 303.941 749.168C303.717 749.168 303.521 749.084 303.353 748.916C303.185 748.729 303.101 748.524 303.101 748.3V746.732C303.082 746.153 303.073 744.949 303.073 743.12C303.073 741.384 302.979 740.068 302.793 739.172C302.625 738.276 302.354 737.669 301.981 737.352C301.626 737.016 301.113 736.848 300.441 736.848C299.806 736.848 299.181 737.081 298.565 737.548C297.949 738.015 297.407 738.677 296.941 739.536C296.325 740.656 295.877 741.711 295.597 742.7C295.335 743.689 295.195 744.707 295.177 745.752L295.149 748.244C295.149 748.505 295.065 748.729 294.897 748.916C294.747 749.084 294.551 749.168 294.309 749.168ZM310.485 749.196C310.242 749.196 310.028 749.112 309.841 748.944C309.673 748.776 309.589 748.58 309.589 748.356V736.932H306.481C306.238 736.932 306.033 736.848 305.865 736.68C305.697 736.493 305.613 736.279 305.613 736.036C305.613 735.775 305.706 735.569 305.893 735.42C306.08 735.252 306.294 735.168 306.537 735.168H309.589V731.332C309.589 731.089 309.673 730.884 309.841 730.716C310.028 730.529 310.242 730.436 310.485 730.436C310.746 730.436 310.952 730.529 311.101 730.716C311.269 730.884 311.353 731.089 311.353 731.332V735.168H314.489C314.75 735.168 314.965 735.252 315.133 735.42C315.301 735.588 315.385 735.793 315.385 736.036C315.385 736.279 315.292 736.493 315.105 736.68C314.937 736.848 314.732 736.932 314.489 736.932H311.353V748.356C311.353 748.58 311.26 748.776 311.073 748.944C310.905 749.112 310.709 749.196 310.485 749.196ZM322.156 749.168C320.794 749.168 319.58 748.869 318.516 748.272C317.452 747.656 316.631 746.835 316.052 745.808C315.474 744.781 315.184 743.661 315.184 742.448C315.184 741.179 315.446 739.993 315.968 738.892C316.51 737.772 317.256 736.876 318.208 736.204C319.16 735.532 320.252 735.196 321.484 735.196C322.604 735.196 323.556 735.411 324.34 735.84C325.143 736.269 325.74 736.783 326.132 737.38C326.543 737.977 326.748 738.509 326.748 738.976C326.748 739.312 326.524 739.611 326.076 739.872L317.396 744.828C317.863 745.724 318.498 746.405 319.3 746.872C320.103 747.32 321.046 747.544 322.128 747.544C322.726 747.544 323.351 747.395 324.004 747.096C324.676 746.797 325.208 746.443 325.6 746.032C325.731 745.845 325.918 745.752 326.16 745.752C326.403 745.752 326.599 745.836 326.748 746.004C326.916 746.153 327 746.349 327 746.592C327 746.779 326.926 746.965 326.776 747.152C326.272 747.731 325.582 748.216 324.704 748.608C323.846 748.981 322.996 749.168 322.156 749.168ZM325.012 738.752C324.751 738.117 324.34 737.641 323.78 737.324C323.22 737.007 322.464 736.848 321.512 736.848C320.616 736.848 319.814 737.1 319.104 737.604C318.395 738.089 317.835 738.752 317.424 739.592C317.032 740.432 316.827 741.356 316.808 742.364C316.808 742.737 316.827 743.036 316.864 743.26L325.012 738.752ZM334.532 754.264C333.486 754.264 332.348 754.124 331.116 753.844C330.91 753.807 330.742 753.704 330.612 753.536C330.481 753.387 330.416 753.209 330.416 753.004C330.416 752.761 330.5 752.556 330.668 752.388C330.854 752.22 331.069 752.136 331.312 752.136C331.405 752.136 331.62 752.173 331.956 752.248C332.796 752.435 333.645 752.528 334.504 752.528C335.885 752.528 336.884 752.173 337.5 751.464C338.134 750.773 338.48 749.784 338.536 748.496L338.592 747.096C338.106 747.749 337.537 748.253 336.884 748.608C336.23 748.944 335.53 749.121 334.784 749.14C333.738 749.14 332.786 748.851 331.928 748.272C331.088 747.693 330.425 746.9 329.94 745.892C329.454 744.865 329.212 743.727 329.212 742.476C329.212 741.225 329.501 740.04 330.08 738.92C330.677 737.781 331.48 736.876 332.488 736.204C333.496 735.513 334.616 735.168 335.848 735.168C336.8 735.168 337.798 735.448 338.844 736.008C338.844 735.243 339.133 734.86 339.712 734.86C339.954 734.86 340.16 734.944 340.328 735.112C340.514 735.28 340.608 735.495 340.608 735.756L340.3 748.552C340.262 750.456 339.712 751.884 338.648 752.836C337.602 753.788 336.23 754.264 334.532 754.264ZM334.56 747.46C335.698 747.46 336.669 747.003 337.472 746.088C338.293 745.173 338.704 743.708 338.704 741.692V737.744C338.405 737.501 337.994 737.305 337.472 737.156C336.968 736.988 336.464 736.904 335.96 736.904C335.026 736.904 334.168 737.156 333.384 737.66C332.6 738.145 331.974 738.817 331.508 739.676C331.041 740.535 330.808 741.487 330.808 742.532C330.808 743.279 330.938 744.035 331.2 744.8C331.48 745.565 331.9 746.2 332.46 746.704C333.038 747.208 333.738 747.46 334.56 747.46ZM351.031 749.168C349.669 749.168 348.455 748.869 347.391 748.272C346.327 747.656 345.506 746.835 344.927 745.808C344.349 744.781 344.059 743.661 344.059 742.448C344.059 741.179 344.321 739.993 344.843 738.892C345.385 737.772 346.131 736.876 347.083 736.204C348.035 735.532 349.127 735.196 350.359 735.196C351.479 735.196 352.431 735.411 353.215 735.84C354.018 736.269 354.615 736.783 355.007 737.38C355.418 737.977 355.623 738.509 355.623 738.976C355.623 739.312 355.399 739.611 354.951 739.872L346.271 744.828C346.738 745.724 347.373 746.405 348.175 746.872C348.978 747.32 349.921 747.544 351.003 747.544C351.601 747.544 352.226 747.395 352.879 747.096C353.551 746.797 354.083 746.443 354.475 746.032C354.606 745.845 354.793 745.752 355.035 745.752C355.278 745.752 355.474 745.836 355.623 746.004C355.791 746.153 355.875 746.349 355.875 746.592C355.875 746.779 355.801 746.965 355.651 747.152C355.147 747.731 354.457 748.216 353.579 748.608C352.721 748.981 351.871 749.168 351.031 749.168ZM353.887 738.752C353.626 738.117 353.215 737.641 352.655 737.324C352.095 737.007 351.339 736.848 350.387 736.848C349.491 736.848 348.689 737.1 347.979 737.604C347.27 738.089 346.71 738.752 346.299 739.592C345.907 740.432 345.702 741.356 345.683 742.364C345.683 742.737 345.702 743.036 345.739 743.26L353.887 738.752ZM359.879 749.168C359.655 749.168 359.449 749.084 359.263 748.916C359.076 748.748 358.983 748.561 358.983 748.356V736.036C358.983 735.793 359.067 735.597 359.235 735.448C359.421 735.28 359.636 735.196 359.879 735.196C360.14 735.196 360.355 735.28 360.523 735.448C360.691 735.597 360.775 735.793 360.775 736.036V738.416C361.297 737.501 361.941 736.727 362.707 736.092C363.491 735.439 364.405 735.112 365.451 735.112C366.272 735.112 366.86 735.345 367.215 735.812C367.588 736.26 367.775 736.801 367.775 737.436V738.332C367.775 738.575 367.691 738.78 367.523 738.948C367.355 739.097 367.149 739.172 366.907 739.172C366.627 739.172 366.421 739.088 366.291 738.92C366.16 738.752 366.095 738.547 366.095 738.304V737.66C366.095 737.119 365.777 736.848 365.143 736.848C364.041 736.848 362.903 737.632 361.727 739.2C361.447 739.573 361.213 740.04 361.027 740.6C360.859 741.16 360.775 741.683 360.775 742.168L360.747 748.356C360.747 748.561 360.653 748.748 360.467 748.916C360.299 749.084 360.103 749.168 359.879 749.168Z" fill="#F7931A"/>
<path d="M623.883 601.912C623.454 601.912 623.071 601.725 622.735 601.352C619.73 597.693 618.227 593.773 618.227 589.592C618.227 587.389 618.675 585.299 619.571 583.32C620.467 581.323 621.68 579.605 623.211 578.168C623.566 577.832 623.902 577.664 624.219 577.664C624.574 577.664 624.882 577.804 625.143 578.084C625.423 578.345 625.563 578.663 625.563 579.036C625.563 579.465 625.395 579.811 625.059 580.072C623.864 581.024 622.875 582.387 622.091 584.16C621.307 585.933 620.915 587.744 620.915 589.592C620.915 591.552 621.298 593.437 622.063 595.248C622.847 597.059 623.762 598.505 624.807 599.588C625.087 599.868 625.227 600.204 625.227 600.596C625.227 600.951 625.087 601.259 624.807 601.52C624.527 601.781 624.219 601.912 623.883 601.912ZM638.287 599.168C638.1 599.168 637.913 599.131 637.727 599.056C637.559 598.981 637.419 598.879 637.307 598.748L633.331 593.876L628.739 598.748C628.496 599.009 628.169 599.14 627.759 599.14C627.404 599.14 627.096 599.009 626.835 598.748C626.573 598.468 626.443 598.151 626.443 597.796C626.443 597.404 626.573 597.077 626.835 596.816L631.595 591.916L627.843 587.436C627.731 587.305 627.637 587.156 627.563 586.988C627.507 586.82 627.479 586.671 627.479 586.54C627.479 586.167 627.609 585.849 627.871 585.588C628.132 585.308 628.44 585.168 628.795 585.168C629.205 585.168 629.541 585.317 629.803 585.616L633.499 590.152L637.811 585.644C638.091 585.364 638.417 585.224 638.791 585.224C639.145 585.224 639.453 585.364 639.715 585.644C639.995 585.905 640.135 586.213 640.135 586.568C640.135 586.736 640.097 586.904 640.023 587.072C639.948 587.24 639.855 587.38 639.743 587.492L635.263 592.084L639.351 596.984C639.537 597.227 639.631 597.507 639.631 597.824C639.631 598.197 639.5 598.515 639.239 598.776C638.977 599.037 638.66 599.168 638.287 599.168ZM642.269 601.52C641.915 601.52 641.616 601.399 641.373 601.156C641.149 600.932 641.037 600.661 641.037 600.344C641.037 600.195 641.065 600.045 641.121 599.896L641.625 598.58C641.476 598.319 641.401 598.029 641.401 597.712C641.401 597.245 641.569 596.835 641.905 596.48C642.241 596.125 642.624 595.948 643.053 595.948C643.464 595.948 643.809 596.088 644.089 596.368C644.369 596.648 644.509 596.984 644.509 597.376C644.509 597.899 644.192 598.916 643.557 600.428C643.408 600.783 643.24 601.053 643.053 601.24C642.867 601.427 642.605 601.52 642.269 601.52ZM659.513 604.18C659.177 604.18 658.888 604.04 658.645 603.76C658.402 603.499 658.281 603.181 658.281 602.808C658.281 602.64 658.328 602.444 658.421 602.22L660.857 596.984L655.845 587.212C655.733 586.988 655.677 586.764 655.677 586.54C655.677 586.167 655.808 585.849 656.069 585.588C656.349 585.308 656.685 585.168 657.077 585.168C657.376 585.168 657.637 585.252 657.861 585.42C658.085 585.588 658.253 585.784 658.365 586.008L662.313 593.82L665.841 586.008C665.953 585.765 666.121 585.56 666.345 585.392C666.588 585.224 666.849 585.14 667.129 585.14C667.465 585.14 667.754 585.271 667.997 585.532C668.24 585.793 668.361 586.12 668.361 586.512C668.361 586.736 668.324 586.923 668.249 587.072L660.773 603.312C660.661 603.573 660.493 603.779 660.269 603.928C660.045 604.096 659.793 604.18 659.513 604.18ZM671.105 601.912C670.769 601.912 670.461 601.781 670.181 601.52C669.901 601.259 669.761 600.951 669.761 600.596C669.761 600.204 669.901 599.868 670.181 599.588C671.227 598.505 672.132 597.059 672.897 595.248C673.681 593.437 674.073 591.552 674.073 589.592C674.073 587.744 673.681 585.933 672.897 584.16C672.113 582.387 671.124 581.024 669.929 580.072C669.593 579.811 669.425 579.465 669.425 579.036C669.425 578.663 669.556 578.345 669.817 578.084C670.097 577.804 670.415 577.664 670.769 577.664C671.087 577.664 671.423 577.832 671.777 578.168C673.308 579.605 674.521 581.323 675.417 583.32C676.313 585.299 676.761 587.389 676.761 589.592C676.761 593.773 675.259 597.693 672.253 601.352C671.917 601.725 671.535 601.912 671.105 601.912Z" fill="#F7931A"/>
<path d="M1238.28 402.576C1237 402.576 1235.88 402.128 1234.92 401.232C1233.96 400.336 1233.48 399.216 1233.48 397.872V343.056C1233.48 341.264 1233.71 339.984 1234.15 339.216C1234.6 338.384 1235.43 337.84 1236.65 337.584C1237.93 337.264 1239.98 337.104 1242.79 337.104C1254.7 337.104 1263.59 338.864 1269.48 342.384C1275.43 345.904 1278.41 350.992 1278.41 357.648C1278.41 363.024 1276.52 367.44 1272.75 370.896C1268.97 374.352 1264.39 376.88 1259.02 378.48C1253.64 380.08 1248.3 380.976 1242.99 381.168V397.872C1242.99 399.216 1242.54 400.336 1241.64 401.232C1240.75 402.128 1239.63 402.576 1238.28 402.576ZM1242.99 371.76C1249.26 371.376 1255.15 370.128 1260.65 368.016C1266.15 365.84 1268.91 362.384 1268.91 357.648C1268.91 354.128 1266.76 351.408 1262.47 349.488C1258.25 347.568 1252.2 346.608 1244.33 346.608H1242.99V371.76ZM1323.35 374.544C1322.07 374.544 1320.99 374.128 1320.09 373.296C1319.26 372.4 1318.84 371.312 1318.84 370.032C1318.84 368.816 1319.26 367.76 1320.09 366.864C1320.99 365.904 1322.07 365.424 1323.35 365.424H1348.31C1349.53 365.424 1350.59 365.904 1351.48 366.864C1352.44 367.76 1352.92 368.816 1352.92 370.032C1352.92 371.248 1352.44 372.304 1351.48 373.2C1350.59 374.096 1349.53 374.544 1348.31 374.544H1323.35ZM1323.35 391.824C1322.07 391.824 1320.99 391.408 1320.09 390.576C1319.26 389.68 1318.84 388.592 1318.84 387.312C1318.84 386.096 1319.26 385.04 1320.09 384.144C1320.99 383.184 1322.07 382.704 1323.35 382.704H1348.31C1349.53 382.704 1350.59 383.184 1351.48 384.144C1352.44 385.04 1352.92 386.096 1352.92 387.312C1352.92 388.528 1352.44 389.584 1351.48 390.48C1350.59 391.376 1349.53 391.824 1348.31 391.824H1323.35ZM1413.24 402.48C1409.97 402.48 1407.03 401.648 1404.41 399.984C1401.85 398.256 1399.8 395.76 1398.26 392.496C1396.79 389.232 1396.05 385.328 1396.05 380.784C1396.05 375.28 1396.92 370.576 1398.65 366.672C1400.37 362.768 1402.77 359.824 1405.85 357.84C1408.92 355.792 1412.47 354.768 1416.5 354.768C1419.7 354.768 1423.13 355.504 1426.77 356.976L1427.25 342.096C1427.32 340.816 1427.8 339.728 1428.69 338.832C1429.65 337.872 1430.77 337.392 1432.05 337.392C1433.27 337.392 1434.33 337.872 1435.22 338.832C1436.18 339.728 1436.63 340.88 1436.57 342.288L1435.22 398.16C1435.16 399.44 1434.68 400.496 1433.78 401.328C1432.89 402.16 1431.8 402.576 1430.52 402.576C1429.3 402.576 1428.25 402.224 1427.35 401.52C1426.52 400.816 1426.1 399.888 1426.1 398.736V397.008C1424.44 398.544 1422.49 399.856 1420.25 400.944C1418.01 401.968 1415.67 402.48 1413.24 402.48ZM1414.01 393.84C1416.18 393.84 1418.2 393.392 1420.05 392.496C1421.97 391.536 1423.48 390.384 1424.57 389.04C1425.65 387.696 1426.23 386.448 1426.29 385.296L1426.68 366.384C1425.53 365.616 1424.05 364.944 1422.26 364.368C1420.47 363.728 1418.74 363.408 1417.08 363.408C1413.17 363.408 1410.23 364.88 1408.25 367.824C1406.26 370.704 1405.27 374.928 1405.27 380.496C1405.27 385.104 1406.04 388.496 1407.57 390.672C1409.17 392.784 1411.32 393.84 1414.01 393.84ZM1453.41 363.408C1452.32 363.408 1451.43 363.056 1450.72 362.352C1450.02 361.648 1449.67 360.816 1449.67 359.856C1449.67 359.088 1449.83 358.384 1450.15 357.744C1450.47 357.04 1451.07 356.304 1451.97 355.536C1453.7 354.064 1455.27 353.008 1456.67 352.368C1454.18 352.368 1451.97 352.048 1450.05 351.408C1449.03 351.088 1448.23 350.576 1447.65 349.872C1447.14 349.168 1446.88 348.336 1446.88 347.376C1446.88 346.288 1447.23 345.36 1447.94 344.592C1448.64 343.824 1449.6 343.44 1450.82 343.44C1451.91 343.44 1453.25 343.952 1454.85 344.976C1456.19 345.872 1457.54 346.896 1458.88 348.048C1457.6 345.808 1456.96 343.664 1456.96 341.616C1456.96 340.08 1457.31 338.896 1458.02 338.064C1458.79 337.168 1459.78 336.72 1460.99 336.72C1462.21 336.72 1463.17 337.168 1463.87 338.064C1464.64 338.96 1465.03 340.176 1465.03 341.712C1465.03 343.248 1464.39 345.392 1463.11 348.144C1466.11 345.136 1468.67 343.632 1470.79 343.632C1471.87 343.632 1472.8 343.984 1473.57 344.688C1474.34 345.392 1474.72 346.288 1474.72 347.376C1474.72 348.4 1474.4 349.36 1473.76 350.256C1473.12 351.152 1472.23 351.696 1471.07 351.888C1470.18 352.016 1468.83 352.08 1467.04 352.08C1466.59 352.144 1465.89 352.176 1464.93 352.176C1467.36 353.84 1468.99 354.992 1469.83 355.632C1471.3 356.784 1472.03 358.096 1472.03 359.568C1472.03 360.528 1471.68 361.424 1470.98 362.256C1470.27 363.024 1469.38 363.408 1468.29 363.408C1466.31 363.408 1464.74 362.352 1463.59 360.24C1462.69 358.576 1461.79 356.688 1460.9 354.576C1460.51 355.536 1459.59 357.392 1458.11 360.144C1457.54 361.168 1456.83 361.968 1456 362.544C1455.17 363.12 1454.31 363.408 1453.41 363.408ZM1511.96 402.672C1506.2 402.672 1501.08 401.168 1496.6 398.16C1492.19 395.152 1488.76 391.216 1486.33 386.352C1483.96 381.424 1482.78 376.208 1482.78 370.704C1482.78 365.264 1484.06 359.952 1486.62 354.768C1489.18 349.52 1492.76 345.264 1497.37 342C1502.04 338.672 1507.39 337.008 1513.4 337.008C1519.03 337.008 1523.77 338.224 1527.61 340.656C1531.51 343.024 1534.43 345.744 1536.35 348.816C1538.27 351.888 1539.23 354.32 1539.23 356.112C1539.23 357.456 1538.81 358.544 1537.98 359.376C1537.15 360.144 1536.03 360.528 1534.62 360.528C1532.31 360.528 1530.78 359.504 1530.01 357.456C1528.86 354.384 1526.94 351.824 1524.25 349.776C1521.56 347.664 1517.95 346.608 1513.4 346.608C1508.67 346.608 1504.7 348.016 1501.5 350.832C1498.36 353.584 1496.06 356.848 1494.59 360.624C1493.11 364.4 1492.38 367.76 1492.38 370.704C1492.38 374.16 1493.11 377.616 1494.59 381.072C1496.06 384.528 1498.27 387.408 1501.21 389.712C1504.22 391.952 1507.8 393.072 1511.96 393.072C1516.06 393.072 1519.64 392.048 1522.71 390C1525.79 387.888 1528.06 384.944 1529.53 381.168H1528.09C1525.91 381.296 1523.51 381.68 1520.89 382.32C1519.8 382.64 1518.94 382.8 1518.3 382.8C1517.02 382.8 1515.9 382.384 1514.94 381.552C1514.04 380.656 1513.59 379.472 1513.59 378C1513.59 375.824 1514.75 374.256 1517.05 373.296C1518.14 372.848 1519.9 372.464 1522.33 372.144C1524.83 371.824 1527.35 371.664 1529.91 371.664C1533.56 371.664 1537.11 372.208 1540.57 373.296C1542.62 373.936 1543.64 375.44 1543.64 377.808C1543.64 378.896 1543.32 379.856 1542.68 380.688C1542.04 381.456 1541.24 382 1540.28 382.32C1539.77 382.448 1539.39 382.512 1539.13 382.512C1537.34 388.464 1534.04 393.328 1529.24 397.104C1524.51 400.816 1518.75 402.672 1511.96 402.672Z" fill="#F7931A"/>
<path d="M1170.75 580.228C1170.42 580.228 1170.12 580.114 1169.87 579.886C1169.64 579.633 1169.53 579.341 1169.53 579.012V555.984C1169.53 555.503 1169.58 555.161 1169.68 554.958C1169.81 554.73 1170.09 554.565 1170.52 554.464C1170.95 554.363 1171.66 554.312 1172.65 554.312C1177.38 554.312 1180.93 554.983 1183.29 556.326C1185.64 557.669 1186.82 559.607 1186.82 562.14C1186.82 564.319 1186.01 566.092 1184.39 567.46C1182.77 568.803 1180.82 569.765 1178.54 570.348C1176.26 570.931 1174.06 571.235 1171.96 571.26V579.012C1171.96 579.341 1171.85 579.633 1171.62 579.886C1171.39 580.114 1171.1 580.228 1170.75 580.228ZM1171.96 568.866C1173.48 568.841 1175.19 568.638 1177.09 568.258C1178.99 567.878 1180.69 567.194 1182.18 566.206C1183.68 565.193 1184.43 563.837 1184.43 562.14C1184.43 560.392 1183.46 559.049 1181.54 558.112C1179.61 557.175 1176.86 556.706 1173.29 556.706C1172.61 556.706 1172.16 556.719 1171.96 556.744V568.866ZM1195.77 580.342C1194.35 580.342 1193.22 580.025 1192.39 579.392C1191.58 578.759 1190.98 577.682 1190.6 576.162C1190.22 574.642 1190.03 572.527 1190.03 569.816C1190.03 566.903 1190.18 564.509 1190.49 562.634C1190.56 562.127 1190.69 561.773 1190.87 561.57C1191.07 561.342 1191.35 561.228 1191.7 561.228C1192.01 561.228 1192.26 561.329 1192.46 561.532C1192.69 561.735 1192.81 562.013 1192.81 562.368C1192.81 562.748 1192.77 563.242 1192.69 563.85C1192.46 565.674 1192.35 567.967 1192.35 570.728C1192.35 573.388 1192.62 575.301 1193.15 576.466C1193.68 577.631 1194.57 578.214 1195.81 578.214C1196.95 578.214 1198.09 577.923 1199.23 577.34C1200.39 576.732 1201.22 576.149 1201.7 575.592C1202 575.237 1202.15 574.667 1202.15 573.882L1202.31 562.292C1202.31 561.988 1202.42 561.735 1202.65 561.532C1202.88 561.329 1203.14 561.228 1203.45 561.228C1203.75 561.228 1204.02 561.329 1204.24 561.532C1204.47 561.735 1204.59 561.988 1204.59 562.292V579.05C1204.59 579.354 1204.46 579.633 1204.21 579.886C1203.95 580.114 1203.66 580.228 1203.33 580.228C1202.93 580.228 1202.6 580.101 1202.34 579.848C1202.12 579.595 1202 579.278 1202 578.898V577.454C1201.45 578.189 1200.58 578.86 1199.42 579.468C1198.28 580.051 1197.06 580.342 1195.77 580.342ZM1211.19 580.228C1210.88 580.228 1210.61 580.127 1210.35 579.924C1210.12 579.696 1210.01 579.43 1210.01 579.126V555.186C1210.01 554.882 1210.12 554.629 1210.35 554.426C1210.61 554.223 1210.9 554.122 1211.23 554.122C1211.53 554.122 1211.8 554.223 1212.02 554.426C1212.25 554.629 1212.37 554.882 1212.37 555.186V564.496C1213.18 563.559 1214.17 562.837 1215.33 562.33C1216.5 561.823 1217.71 561.57 1218.98 561.57C1220.98 561.57 1222.59 562.33 1223.8 563.85C1225.02 565.345 1225.63 567.371 1225.63 569.93C1225.63 572.945 1224.93 575.377 1223.54 577.226C1222.17 579.05 1220.11 579.962 1217.34 579.962C1216.48 579.962 1215.6 579.861 1214.68 579.658C1213.77 579.43 1212.99 579.177 1212.33 578.898V579.202C1212.33 579.455 1212.21 579.696 1211.99 579.924C1211.76 580.127 1211.49 580.228 1211.19 580.228ZM1217.04 577.682C1221.25 577.682 1223.35 575.098 1223.35 569.93C1223.35 568.055 1222.94 566.599 1222.13 565.56C1221.35 564.496 1220.28 563.964 1218.94 563.964C1217.72 563.964 1216.61 564.192 1215.6 564.648C1214.61 565.104 1213.82 565.725 1213.24 566.51C1212.66 567.295 1212.37 568.157 1212.37 569.094V576.732C1212.85 576.935 1213.52 577.15 1214.38 577.378C1215.27 577.581 1216.15 577.682 1217.04 577.682ZM1231.56 580.228C1231.26 580.228 1230.98 580.127 1230.73 579.924C1230.47 579.696 1230.35 579.443 1230.35 579.164V555.262C1230.35 554.933 1230.46 554.667 1230.69 554.464C1230.92 554.236 1231.21 554.122 1231.56 554.122C1231.87 554.122 1232.13 554.236 1232.36 554.464C1232.61 554.692 1232.74 554.958 1232.74 555.262V579.164C1232.74 579.443 1232.61 579.696 1232.36 579.924C1232.13 580.127 1231.87 580.228 1231.56 580.228ZM1240.14 558.264C1239.81 558.264 1239.53 558.15 1239.31 557.922C1239.08 557.694 1238.96 557.415 1238.96 557.086L1239 555.528C1239 555.224 1239.13 554.958 1239.38 554.73C1239.63 554.502 1239.91 554.388 1240.22 554.388C1240.52 554.388 1240.79 554.515 1241.02 554.768C1241.24 554.996 1241.36 555.262 1241.36 555.566L1241.32 557.124C1241.32 557.453 1241.19 557.732 1240.94 557.96C1240.71 558.163 1240.45 558.264 1240.14 558.264ZM1239.91 580.228C1239.58 580.228 1239.29 580.114 1239.04 579.886C1238.79 579.633 1238.66 579.341 1238.66 579.012L1238.89 562.52C1238.89 562.191 1239.01 561.899 1239.27 561.646C1239.52 561.393 1239.81 561.266 1240.14 561.266C1240.47 561.266 1240.75 561.393 1240.98 561.646C1241.23 561.874 1241.36 562.165 1241.36 562.52L1241.13 579.012C1241.13 579.341 1241 579.633 1240.75 579.886C1240.52 580.114 1240.24 580.228 1239.91 580.228ZM1254.34 580.228C1252.87 580.228 1251.49 579.873 1250.19 579.164C1248.93 578.429 1247.91 577.429 1247.15 576.162C1246.42 574.895 1246.05 573.502 1246.05 571.982C1246.05 570.259 1246.45 568.575 1247.23 566.928C1248.04 565.256 1249.11 563.901 1250.42 562.862C1251.74 561.798 1253.11 561.266 1254.53 561.266C1255.84 561.266 1256.92 561.481 1257.76 561.912C1258.62 562.343 1259.44 563.014 1260.23 563.926C1260.43 564.129 1260.53 564.395 1260.53 564.724C1260.53 565.053 1260.42 565.332 1260.19 565.56C1259.99 565.788 1259.72 565.902 1259.39 565.902C1259.04 565.902 1258.74 565.763 1258.52 565.484C1257.96 564.825 1257.39 564.331 1256.81 564.002C1256.22 563.647 1255.49 563.47 1254.6 563.47C1253.59 563.47 1252.6 563.875 1251.64 564.686C1250.68 565.497 1249.89 566.561 1249.28 567.878C1248.67 569.17 1248.37 570.513 1248.37 571.906C1248.37 573.173 1248.66 574.275 1249.24 575.212C1249.85 576.124 1250.61 576.821 1251.52 577.302C1252.46 577.783 1253.4 578.024 1254.34 578.024C1256.52 578.024 1258.21 577.15 1259.43 575.402C1259.76 574.946 1260.11 574.718 1260.49 574.718C1260.82 574.718 1261.1 574.832 1261.33 575.06C1261.56 575.288 1261.67 575.554 1261.67 575.858C1261.67 576.111 1261.54 576.403 1261.29 576.732C1260.63 577.695 1259.68 578.518 1258.44 579.202C1257.2 579.886 1255.83 580.228 1254.34 580.228ZM1294.67 580.266C1294.39 580.266 1294.15 580.177 1293.95 580L1280.88 569.778V579.012C1280.88 579.341 1280.75 579.633 1280.5 579.886C1280.27 580.114 1279.99 580.228 1279.66 580.228C1279.33 580.228 1279.05 580.114 1278.82 579.886C1278.6 579.633 1278.48 579.341 1278.48 579.012V555.528C1278.48 555.199 1278.6 554.92 1278.82 554.692C1279.05 554.464 1279.33 554.35 1279.66 554.35C1279.99 554.35 1280.27 554.464 1280.5 554.692C1280.75 554.92 1280.88 555.199 1280.88 555.528V565.142L1293.15 554.616C1293.4 554.413 1293.67 554.312 1293.95 554.312C1294.25 554.312 1294.52 554.439 1294.75 554.692C1294.97 554.945 1295.09 555.224 1295.09 555.528C1295.09 555.883 1294.96 556.174 1294.71 556.402L1281.75 567.498L1295.43 578.138C1295.71 578.366 1295.85 578.67 1295.85 579.05C1295.85 579.379 1295.73 579.671 1295.51 579.924C1295.28 580.152 1295 580.266 1294.67 580.266ZM1307.8 580.228C1305.95 580.228 1304.31 579.823 1302.86 579.012C1301.42 578.176 1300.3 577.061 1299.52 575.668C1298.73 574.275 1298.34 572.755 1298.34 571.108C1298.34 569.385 1298.69 567.777 1299.4 566.282C1300.14 564.762 1301.15 563.546 1302.44 562.634C1303.74 561.722 1305.22 561.266 1306.89 561.266C1308.41 561.266 1309.7 561.557 1310.77 562.14C1311.86 562.723 1312.67 563.419 1313.2 564.23C1313.76 565.041 1314.03 565.763 1314.03 566.396C1314.03 566.852 1313.73 567.257 1313.12 567.612L1301.34 574.338C1301.98 575.554 1302.84 576.479 1303.93 577.112C1305.02 577.72 1306.29 578.024 1307.76 578.024C1308.57 578.024 1309.42 577.821 1310.31 577.416C1311.22 577.011 1311.94 576.529 1312.48 575.972C1312.65 575.719 1312.91 575.592 1313.24 575.592C1313.57 575.592 1313.83 575.706 1314.03 575.934C1314.26 576.137 1314.38 576.403 1314.38 576.732C1314.38 576.985 1314.27 577.239 1314.07 577.492C1313.39 578.277 1312.45 578.936 1311.26 579.468C1310.09 579.975 1308.94 580.228 1307.8 580.228ZM1311.68 566.092C1311.32 565.231 1310.77 564.585 1310.01 564.154C1309.25 563.723 1308.22 563.508 1306.93 563.508C1305.71 563.508 1304.62 563.85 1303.66 564.534C1302.7 565.193 1301.94 566.092 1301.38 567.232C1300.85 568.372 1300.57 569.626 1300.54 570.994C1300.54 571.501 1300.57 571.906 1300.62 572.21L1311.68 566.092ZM1320.38 587.6C1320.05 587.6 1319.77 587.473 1319.54 587.22C1319.31 586.992 1319.2 586.713 1319.2 586.384C1319.2 586.207 1319.25 586.029 1319.35 585.852L1323.04 577.796L1315.67 563.09C1315.57 562.837 1315.51 562.621 1315.51 562.444C1315.51 562.089 1315.63 561.798 1315.86 561.57C1316.11 561.342 1316.4 561.228 1316.73 561.228C1316.98 561.228 1317.21 561.304 1317.41 561.456C1317.62 561.608 1317.77 561.798 1317.87 562.026L1324.33 574.984L1330.3 561.95C1330.55 561.443 1330.93 561.19 1331.44 561.19C1331.77 561.19 1332.04 561.304 1332.27 561.532C1332.5 561.76 1332.61 562.039 1332.61 562.368C1332.61 562.596 1332.58 562.773 1332.5 562.9L1321.52 586.84C1321.24 587.347 1320.86 587.6 1320.38 587.6Z" fill="#1E1E1E"/>
<path d="M1462.62 580.228C1462.29 580.228 1462 580.114 1461.75 579.886C1461.52 579.633 1461.41 579.341 1461.41 579.012V555.984C1461.41 555.503 1461.46 555.161 1461.56 554.958C1461.68 554.73 1461.96 554.565 1462.39 554.464C1462.82 554.363 1463.53 554.312 1464.52 554.312C1469.26 554.312 1472.81 554.983 1475.16 556.326C1477.52 557.669 1478.7 559.607 1478.7 562.14C1478.7 564.319 1477.89 566.092 1476.26 567.46C1474.64 568.803 1472.69 569.765 1470.41 570.348C1468.13 570.931 1465.94 571.235 1463.84 571.26V579.012C1463.84 579.341 1463.72 579.633 1463.5 579.886C1463.27 580.114 1462.98 580.228 1462.62 580.228ZM1463.84 568.866C1465.36 568.841 1467.07 568.638 1468.97 568.258C1470.87 567.878 1472.57 567.194 1474.06 566.206C1475.55 565.193 1476.3 563.837 1476.3 562.14C1476.3 560.392 1475.34 559.049 1473.41 558.112C1471.49 557.175 1468.74 556.706 1465.17 556.706C1464.48 556.706 1464.04 556.719 1463.84 556.744V568.866ZM1483.7 580.228C1483.39 580.228 1483.11 580.114 1482.86 579.886C1482.61 579.658 1482.48 579.405 1482.48 579.126V562.406C1482.48 562.077 1482.59 561.811 1482.82 561.608C1483.07 561.38 1483.37 561.266 1483.7 561.266C1484.05 561.266 1484.34 561.38 1484.57 561.608C1484.8 561.811 1484.91 562.077 1484.91 562.406V565.636C1485.62 564.395 1486.49 563.343 1487.53 562.482C1488.6 561.595 1489.84 561.152 1491.26 561.152C1492.37 561.152 1493.17 561.469 1493.65 562.102C1494.16 562.71 1494.41 563.445 1494.41 564.306V565.522C1494.41 565.851 1494.3 566.13 1494.07 566.358C1493.84 566.561 1493.56 566.662 1493.23 566.662C1492.85 566.662 1492.57 566.548 1492.4 566.32C1492.22 566.092 1492.13 565.813 1492.13 565.484V564.61C1492.13 563.875 1491.7 563.508 1490.84 563.508C1489.34 563.508 1487.8 564.572 1486.2 566.7C1485.82 567.207 1485.51 567.84 1485.25 568.6C1485.03 569.36 1484.91 570.069 1484.91 570.728L1484.87 579.126C1484.87 579.405 1484.75 579.658 1484.49 579.886C1484.27 580.114 1484 580.228 1483.7 580.228ZM1499.07 558.264C1498.74 558.264 1498.46 558.15 1498.23 557.922C1498 557.694 1497.89 557.415 1497.89 557.086L1497.93 555.528C1497.93 555.224 1498.05 554.958 1498.31 554.73C1498.56 554.502 1498.84 554.388 1499.14 554.388C1499.45 554.388 1499.71 554.515 1499.94 554.768C1500.17 554.996 1500.28 555.262 1500.28 555.566L1500.24 557.124C1500.24 557.453 1500.12 557.732 1499.86 557.96C1499.64 558.163 1499.37 558.264 1499.07 558.264ZM1498.84 580.228C1498.51 580.228 1498.22 580.114 1497.96 579.886C1497.71 579.633 1497.58 579.341 1497.58 579.012L1497.81 562.52C1497.81 562.191 1497.94 561.899 1498.19 561.646C1498.44 561.393 1498.74 561.266 1499.07 561.266C1499.39 561.266 1499.67 561.393 1499.9 561.646C1500.15 561.874 1500.28 562.165 1500.28 562.52L1500.05 579.012C1500.05 579.341 1499.93 579.633 1499.67 579.886C1499.45 580.114 1499.17 580.228 1498.84 580.228ZM1510.98 580.266C1510.47 580.266 1510.11 579.987 1509.88 579.43L1503.11 562.862C1503.06 562.659 1503.04 562.52 1503.04 562.444C1503.04 562.115 1503.15 561.836 1503.38 561.608C1503.63 561.38 1503.94 561.266 1504.29 561.266C1504.77 561.266 1505.14 561.532 1505.39 562.064L1510.98 576.162L1516.6 561.95C1516.71 561.747 1516.85 561.583 1517.02 561.456C1517.23 561.304 1517.45 561.228 1517.71 561.228C1518.04 561.228 1518.31 561.355 1518.54 561.608C1518.8 561.836 1518.92 562.102 1518.92 562.406C1518.92 562.558 1518.87 562.735 1518.77 562.938L1512.08 579.506C1511.85 580.013 1511.49 580.266 1510.98 580.266ZM1533.84 580.532C1533.46 580.532 1533.16 580.405 1532.96 580.152C1532.76 579.924 1532.66 579.633 1532.66 579.278V578.214C1531.97 578.822 1531.15 579.316 1530.19 579.696C1529.22 580.051 1528.26 580.228 1527.3 580.228C1525.93 580.228 1524.7 579.886 1523.61 579.202C1522.52 578.518 1521.66 577.555 1521.03 576.314C1520.42 575.047 1520.12 573.616 1520.12 572.02C1520.12 570.297 1520.47 568.613 1521.18 566.966C1521.92 565.294 1522.97 563.926 1524.34 562.862C1525.73 561.798 1527.36 561.266 1529.24 561.266C1530.4 561.266 1531.43 561.418 1532.32 561.722C1533.2 562.026 1534.1 562.393 1535.01 562.824V579.278C1535.01 579.633 1534.9 579.924 1534.67 580.152C1534.44 580.405 1534.16 580.532 1533.84 580.532ZM1527.3 577.986C1528.29 577.986 1529.28 577.758 1530.26 577.302C1531.25 576.821 1532.01 576.314 1532.54 575.782L1532.7 564.268C1532.29 564.091 1531.76 563.926 1531.1 563.774C1530.47 563.597 1529.87 563.508 1529.31 563.508C1528.07 563.508 1526.93 563.875 1525.89 564.61C1524.85 565.345 1524.03 566.358 1523.42 567.65C1522.84 568.917 1522.55 570.348 1522.55 571.944C1522.55 573.793 1522.99 575.263 1523.88 576.352C1524.77 577.441 1525.91 577.986 1527.3 577.986ZM1543.09 580.266C1542.76 580.266 1542.47 580.152 1542.22 579.924C1541.99 579.696 1541.88 579.43 1541.88 579.126V563.622H1537.66C1537.33 563.622 1537.05 563.508 1536.82 563.28C1536.59 563.027 1536.48 562.735 1536.48 562.406C1536.48 562.051 1536.61 561.773 1536.86 561.57C1537.11 561.342 1537.41 561.228 1537.73 561.228H1541.88V556.022C1541.88 555.693 1541.99 555.414 1542.22 555.186C1542.47 554.933 1542.76 554.806 1543.09 554.806C1543.45 554.806 1543.73 554.933 1543.93 555.186C1544.16 555.414 1544.27 555.693 1544.27 556.022V561.228H1548.53C1548.88 561.228 1549.17 561.342 1549.4 561.57C1549.63 561.798 1549.74 562.077 1549.74 562.406C1549.74 562.735 1549.62 563.027 1549.36 563.28C1549.13 563.508 1548.86 563.622 1548.53 563.622H1544.27V579.126C1544.27 579.43 1544.14 579.696 1543.89 579.924C1543.66 580.152 1543.4 580.266 1543.09 580.266ZM1558.93 580.228C1557.08 580.228 1555.44 579.823 1553.99 579.012C1552.55 578.176 1551.43 577.061 1550.65 575.668C1549.86 574.275 1549.47 572.755 1549.47 571.108C1549.47 569.385 1549.83 567.777 1550.53 566.282C1551.27 564.762 1552.28 563.546 1553.57 562.634C1554.87 561.722 1556.35 561.266 1558.02 561.266C1559.54 561.266 1560.83 561.557 1561.9 562.14C1562.99 562.723 1563.8 563.419 1564.33 564.23C1564.89 565.041 1565.16 565.763 1565.16 566.396C1565.16 566.852 1564.86 567.257 1564.25 567.612L1552.47 574.338C1553.11 575.554 1553.97 576.479 1555.06 577.112C1556.15 577.72 1557.43 578.024 1558.89 578.024C1559.71 578.024 1560.55 577.821 1561.44 577.416C1562.35 577.011 1563.07 576.529 1563.61 575.972C1563.78 575.719 1564.04 575.592 1564.37 575.592C1564.7 575.592 1564.96 575.706 1565.16 575.934C1565.39 576.137 1565.51 576.403 1565.51 576.732C1565.51 576.985 1565.41 577.239 1565.2 577.492C1564.52 578.277 1563.58 578.936 1562.39 579.468C1561.23 579.975 1560.07 580.228 1558.93 580.228ZM1562.81 566.092C1562.45 565.231 1561.9 564.585 1561.14 564.154C1560.38 563.723 1559.35 563.508 1558.06 563.508C1556.84 563.508 1555.75 563.85 1554.79 564.534C1553.83 565.193 1553.07 566.092 1552.51 567.232C1551.98 568.372 1551.7 569.626 1551.67 570.994C1551.67 571.501 1551.7 571.906 1551.75 572.21L1562.81 566.092ZM1598.79 580.266C1598.51 580.266 1598.27 580.177 1598.07 580L1585 569.778V579.012C1585 579.341 1584.87 579.633 1584.62 579.886C1584.39 580.114 1584.11 580.228 1583.78 580.228C1583.45 580.228 1583.18 580.114 1582.95 579.886C1582.72 579.633 1582.61 579.341 1582.61 579.012V555.528C1582.61 555.199 1582.72 554.92 1582.95 554.692C1583.18 554.464 1583.45 554.35 1583.78 554.35C1584.11 554.35 1584.39 554.464 1584.62 554.692C1584.87 554.92 1585 555.199 1585 555.528V565.142L1597.27 554.616C1597.53 554.413 1597.79 554.312 1598.07 554.312C1598.38 554.312 1598.64 554.439 1598.87 554.692C1599.1 554.945 1599.21 555.224 1599.21 555.528C1599.21 555.883 1599.08 556.174 1598.83 556.402L1585.87 567.498L1599.55 578.138C1599.83 578.366 1599.97 578.67 1599.97 579.05C1599.97 579.379 1599.86 579.671 1599.63 579.924C1599.4 580.152 1599.12 580.266 1598.79 580.266ZM1611.92 580.228C1610.08 580.228 1608.43 579.823 1606.98 579.012C1605.54 578.176 1604.43 577.061 1603.64 575.668C1602.86 574.275 1602.46 572.755 1602.46 571.108C1602.46 569.385 1602.82 567.777 1603.53 566.282C1604.26 564.762 1605.27 563.546 1606.57 562.634C1607.86 561.722 1609.34 561.266 1611.01 561.266C1612.53 561.266 1613.82 561.557 1614.89 562.14C1615.98 562.723 1616.79 563.419 1617.32 564.23C1617.88 565.041 1618.16 565.763 1618.16 566.396C1618.16 566.852 1617.85 567.257 1617.24 567.612L1605.46 574.338C1606.1 575.554 1606.96 576.479 1608.05 577.112C1609.14 577.72 1610.42 578.024 1611.89 578.024C1612.7 578.024 1613.55 577.821 1614.43 577.416C1615.34 577.011 1616.07 576.529 1616.6 575.972C1616.78 575.719 1617.03 575.592 1617.36 575.592C1617.69 575.592 1617.95 575.706 1618.16 575.934C1618.38 576.137 1618.5 576.403 1618.5 576.732C1618.5 576.985 1618.4 577.239 1618.19 577.492C1617.51 578.277 1616.57 578.936 1615.38 579.468C1614.22 579.975 1613.06 580.228 1611.92 580.228ZM1615.8 566.092C1615.45 565.231 1614.89 564.585 1614.13 564.154C1613.37 563.723 1612.34 563.508 1611.05 563.508C1609.83 563.508 1608.75 563.85 1607.78 564.534C1606.82 565.193 1606.06 566.092 1605.5 567.232C1604.97 568.372 1604.69 569.626 1604.67 570.994C1604.67 571.501 1604.69 571.906 1604.74 572.21L1615.8 566.092ZM1624.5 587.6C1624.17 587.6 1623.89 587.473 1623.67 587.22C1623.44 586.992 1623.32 586.713 1623.32 586.384C1623.32 586.207 1623.37 586.029 1623.48 585.852L1627.16 577.796L1619.79 563.09C1619.69 562.837 1619.64 562.621 1619.64 562.444C1619.64 562.089 1619.75 561.798 1619.98 561.57C1620.23 561.342 1620.52 561.228 1620.85 561.228C1621.11 561.228 1621.34 561.304 1621.54 561.456C1621.74 561.608 1621.89 561.798 1621.99 562.026L1628.45 574.984L1634.42 561.95C1634.67 561.443 1635.05 561.19 1635.56 561.19C1635.89 561.19 1636.17 561.304 1636.4 561.532C1636.62 561.76 1636.74 562.039 1636.74 562.368C1636.74 562.596 1636.7 562.773 1636.62 562.9L1625.64 586.84C1625.36 587.347 1624.98 587.6 1624.5 587.6Z" fill="#1E1E1E"/>
<path d="M1250 440L1244.23 450H1255.77L1250 440ZM1251 519V449H1249V519H1251Z" fill="#1E1E1E"/>
<path d="M1517.7 519L1523.78 509.182L1512.24 508.827L1517.7 519ZM1421 440C1421 446.118 1422.43 456.278 1428.23 464.941C1434.07 473.667 1444.27 480.769 1461.55 480.769V478.769C1444.92 478.769 1435.35 471.986 1429.89 463.828C1424.39 455.606 1423 445.882 1423 440L1421 440ZM1461.55 480.769C1471.35 480.769 1479.69 480.986 1486.71 481.725C1493.74 482.464 1499.38 483.719 1503.79 485.761C1508.19 487.791 1511.37 490.597 1513.51 494.475C1515.66 498.374 1516.8 503.432 1516.98 510.028L1518.98 509.976C1518.8 503.195 1517.62 497.786 1515.26 493.508C1512.88 489.209 1509.36 486.129 1504.63 483.945C1499.93 481.772 1494.05 480.485 1486.92 479.736C1479.8 478.986 1471.37 478.769 1461.55 478.769V480.769Z" fill="#1E1E1E"/>
<path d="M388.067 898.304C386.623 898.304 385.369 898.013 384.305 897.43C383.267 896.822 382.469 896.125 381.911 895.34C381.379 894.529 381.113 893.845 381.113 893.288C381.113 892.959 381.215 892.693 381.417 892.49C381.645 892.262 381.924 892.148 382.253 892.148C382.811 892.148 383.165 892.414 383.317 892.946C383.672 893.959 384.267 894.745 385.103 895.302C385.939 895.859 386.965 896.138 388.181 896.138C389.397 896.138 390.398 895.809 391.183 895.15C391.969 894.491 392.361 893.706 392.361 892.794C392.361 892.262 392.235 891.819 391.981 891.464C391.753 891.084 391.323 890.729 390.689 890.4C390.081 890.071 389.182 889.729 387.991 889.374C385.939 888.741 384.457 888.006 383.545 887.17C382.633 886.334 382.177 885.232 382.177 883.864C382.177 882.496 382.735 881.394 383.849 880.558C384.989 879.697 386.611 879.266 388.713 879.266C390.613 879.266 392.07 879.659 393.083 880.444C394.122 881.204 394.641 882.255 394.641 883.598C394.641 884.206 394.54 884.675 394.337 885.004C394.135 885.308 393.843 885.46 393.463 885.46C393.134 885.46 392.855 885.359 392.627 885.156C392.399 884.928 392.285 884.675 392.285 884.396C392.285 884.269 392.298 884.13 392.323 883.978C392.374 883.826 392.399 883.687 392.399 883.56C392.399 882.876 392.095 882.344 391.487 881.964C390.879 881.559 389.955 881.356 388.713 881.356C387.345 881.356 386.281 881.584 385.521 882.04C384.787 882.471 384.419 883.091 384.419 883.902C384.419 884.687 384.736 885.308 385.369 885.764C386.028 886.22 387.155 886.714 388.751 887.246C390.271 887.753 391.437 888.234 392.247 888.69C393.083 889.146 393.679 889.691 394.033 890.324C394.413 890.932 394.603 891.717 394.603 892.68C394.603 893.617 394.325 894.517 393.767 895.378C393.235 896.239 392.475 896.949 391.487 897.506C390.499 898.038 389.359 898.304 388.067 898.304ZM407.147 898.228C405.297 898.228 403.651 897.823 402.207 897.012C400.763 896.176 399.648 895.061 398.863 893.668C398.077 892.275 397.685 890.755 397.685 889.108C397.685 887.385 398.039 885.777 398.749 884.282C399.483 882.762 400.497 881.546 401.789 880.634C403.081 879.722 404.563 879.266 406.235 879.266C407.755 879.266 409.047 879.557 410.111 880.14C411.2 880.723 412.011 881.419 412.543 882.23C413.1 883.041 413.379 883.763 413.379 884.396C413.379 884.852 413.075 885.257 412.467 885.612L400.687 892.338C401.32 893.554 402.181 894.479 403.271 895.112C404.36 895.72 405.639 896.024 407.109 896.024C407.919 896.024 408.768 895.821 409.655 895.416C410.567 895.011 411.289 894.529 411.821 893.972C411.998 893.719 412.251 893.592 412.581 893.592C412.91 893.592 413.176 893.706 413.379 893.934C413.607 894.137 413.721 894.403 413.721 894.732C413.721 894.985 413.619 895.239 413.417 895.492C412.733 896.277 411.795 896.936 410.605 897.468C409.439 897.975 408.287 898.228 407.147 898.228ZM411.023 884.092C410.668 883.231 410.111 882.585 409.351 882.154C408.591 881.723 407.565 881.508 406.273 881.508C405.057 881.508 403.967 881.85 403.005 882.534C402.042 883.193 401.282 884.092 400.725 885.232C400.193 886.372 399.914 887.626 399.889 888.994C399.889 889.501 399.914 889.906 399.965 890.21L411.023 884.092ZM425.006 898.228C423.536 898.228 422.156 897.873 420.864 897.164C419.597 896.429 418.584 895.429 417.824 894.162C417.089 892.895 416.722 891.502 416.722 889.982C416.722 888.259 417.114 886.575 417.9 884.928C418.71 883.256 419.774 881.901 421.092 880.862C422.409 879.798 423.777 879.266 425.196 879.266C426.513 879.266 427.59 879.481 428.426 879.912C429.287 880.343 430.11 881.014 430.896 881.926C431.098 882.129 431.2 882.395 431.2 882.724C431.2 883.053 431.086 883.332 430.858 883.56C430.655 883.788 430.389 883.902 430.06 883.902C429.705 883.902 429.414 883.763 429.186 883.484C428.628 882.825 428.058 882.331 427.476 882.002C426.893 881.647 426.158 881.47 425.272 881.47C424.258 881.47 423.27 881.875 422.308 882.686C421.345 883.497 420.56 884.561 419.952 885.878C419.344 887.17 419.04 888.513 419.04 889.906C419.04 891.173 419.331 892.275 419.914 893.212C420.522 894.124 421.282 894.821 422.194 895.302C423.131 895.783 424.068 896.024 425.006 896.024C427.184 896.024 428.882 895.15 430.098 893.402C430.427 892.946 430.782 892.718 431.162 892.718C431.491 892.718 431.77 892.832 431.998 893.06C432.226 893.288 432.34 893.554 432.34 893.858C432.34 894.111 432.213 894.403 431.96 894.732C431.301 895.695 430.351 896.518 429.11 897.202C427.868 897.886 426.5 898.228 425.006 898.228ZM437.486 905.524C437.156 905.524 436.865 905.397 436.612 905.144C436.384 904.916 436.27 904.65 436.27 904.346V880.444C436.27 880.089 436.384 879.798 436.612 879.57C436.865 879.342 437.156 879.228 437.486 879.228C437.815 879.228 438.094 879.355 438.322 879.608C438.55 879.836 438.664 880.115 438.664 880.444V882.002C440.209 880.153 442.514 879.228 445.58 879.228C446.846 879.228 447.948 879.633 448.886 880.444C449.823 881.255 450.532 882.306 451.014 883.598C451.495 884.89 451.736 886.271 451.736 887.74C451.736 890.451 451.102 892.832 449.836 894.884C448.569 896.911 446.416 897.924 443.376 897.924C441.932 897.924 440.361 897.569 438.664 896.86V904.346C438.664 904.65 438.537 904.916 438.284 905.144C438.056 905.397 437.79 905.524 437.486 905.524ZM443.604 895.53C445.681 895.53 447.188 894.846 448.126 893.478C449.088 892.085 449.57 890.172 449.57 887.74C449.57 886.777 449.43 885.815 449.152 884.852C448.873 883.864 448.404 883.041 447.746 882.382C447.112 881.698 446.289 881.356 445.276 881.356C443.604 881.356 442.21 881.711 441.096 882.42C439.981 883.104 439.17 883.813 438.664 884.548V894.314C440.462 895.125 442.109 895.53 443.604 895.53ZM455.963 896.86C455.963 894.833 456.267 893.111 456.875 891.692C457.508 890.273 458.319 889.095 459.307 888.158C460.295 887.195 461.536 886.233 463.031 885.27C464.374 884.434 465.374 883.763 466.033 883.256C466.717 882.749 467.287 882.129 467.743 881.394C468.224 880.659 468.465 879.811 468.465 878.848C468.465 877.683 467.996 876.707 467.059 875.922C466.147 875.137 465.02 874.744 463.677 874.744C462.385 874.744 461.258 875.061 460.295 875.694C459.332 876.327 458.623 876.91 458.167 877.442C457.914 877.721 457.711 877.923 457.559 878.05C457.432 878.151 457.242 878.202 456.989 878.202C456.634 878.202 456.343 878.075 456.115 877.822C455.887 877.569 455.773 877.29 455.773 876.986C455.773 876.758 455.849 876.53 456.001 876.302C456.153 876.074 456.444 875.77 456.875 875.39C458.927 873.389 461.194 872.388 463.677 872.388C465.045 872.388 466.274 872.679 467.363 873.262C468.452 873.819 469.301 874.592 469.909 875.58C470.542 876.568 470.859 877.657 470.859 878.848C470.859 880.216 470.568 881.394 469.985 882.382C469.428 883.345 468.744 884.155 467.933 884.814C467.122 885.447 465.995 886.233 464.551 887.17C463.31 887.981 462.284 888.741 461.473 889.45C460.662 890.134 459.966 890.995 459.383 892.034C458.8 893.047 458.471 894.251 458.395 895.644H469.985C470.314 895.644 470.593 895.771 470.821 896.024C471.074 896.252 471.201 896.531 471.201 896.86C471.201 897.164 471.074 897.43 470.821 897.658C470.593 897.886 470.314 898 469.985 898H455.963V896.86ZM482.96 898.228C481.642 898.228 480.452 897.987 479.388 897.506C478.324 896.999 477.462 896.429 476.804 895.796C476.145 895.137 475.702 894.555 475.474 894.048C475.372 893.921 475.322 893.731 475.322 893.478C475.322 893.149 475.436 892.87 475.664 892.642C475.917 892.414 476.208 892.3 476.538 892.3C476.791 892.3 476.981 892.351 477.108 892.452C477.26 892.528 477.412 892.68 477.564 892.908C478.324 893.871 479.122 894.605 479.958 895.112C480.794 895.593 481.794 895.834 482.96 895.834C484.049 895.834 485.075 895.505 486.038 894.846C487.026 894.162 487.811 893.263 488.394 892.148C488.976 891.008 489.268 889.792 489.268 888.5C489.268 886.752 488.786 885.257 487.824 884.016C486.886 882.749 485.518 882.116 483.72 882.116C482.478 882.116 481.44 882.357 480.604 882.838C479.793 883.319 479.071 883.877 478.438 884.51C478.159 884.789 477.855 884.928 477.526 884.928C477.146 884.928 476.829 884.801 476.576 884.548C476.348 884.269 476.259 883.94 476.31 883.56L477.298 873.718C477.323 873.414 477.462 873.161 477.716 872.958C477.969 872.755 478.235 872.654 478.514 872.654H489.382C489.711 872.654 489.99 872.768 490.218 872.996C490.471 873.224 490.598 873.503 490.598 873.832C490.598 874.161 490.471 874.44 490.218 874.668C489.99 874.896 489.711 875.01 489.382 875.01H479.578L478.97 881.052C480.54 880.191 482.124 879.76 483.72 879.76C485.214 879.76 486.557 880.127 487.748 880.862C488.964 881.597 489.914 882.623 490.598 883.94C491.282 885.257 491.624 886.777 491.624 888.5C491.624 890.248 491.218 891.869 490.408 893.364C489.597 894.859 488.52 896.049 487.178 896.936C485.86 897.797 484.454 898.228 482.96 898.228ZM504.353 898.228C502.909 898.228 501.567 897.911 500.325 897.278C499.109 896.645 498.121 895.619 497.361 894.2C496.601 892.781 496.221 890.957 496.221 888.728C496.221 884.573 497.222 881.179 499.223 878.544C501.225 875.884 503.581 873.883 506.291 872.54C506.595 872.413 506.849 872.35 507.051 872.35C507.381 872.35 507.647 872.451 507.849 872.654C508.052 872.857 508.153 873.123 508.153 873.452C508.153 873.705 508.09 873.921 507.963 874.098C507.862 874.275 507.71 874.402 507.507 874.478C505.683 875.289 504.075 876.416 502.681 877.86C501.288 879.279 500.262 880.875 499.603 882.648C501.275 881.685 503.049 881.204 504.923 881.204C506.291 881.204 507.52 881.508 508.609 882.116C509.699 882.699 510.56 883.573 511.193 884.738C511.852 885.878 512.181 887.271 512.181 888.918C512.181 890.767 511.827 892.401 511.117 893.82C510.433 895.213 509.496 896.303 508.305 897.088C507.115 897.848 505.797 898.228 504.353 898.228ZM504.391 895.948C505.455 895.948 506.405 895.657 507.241 895.074C508.103 894.491 508.774 893.668 509.255 892.604C509.737 891.54 509.977 890.311 509.977 888.918C509.977 887.119 509.509 885.764 508.571 884.852C507.634 883.94 506.418 883.484 504.923 883.484C503.454 883.484 502.187 883.763 501.123 884.32C500.085 884.877 499.261 885.46 498.653 886.068C498.527 886.803 498.463 887.689 498.463 888.728C498.463 891.185 498.995 893.009 500.059 894.2C501.123 895.365 502.567 895.948 504.391 895.948ZM518.755 898.228C518.451 898.228 518.173 898.114 517.919 897.886C517.691 897.633 517.577 897.354 517.577 897.05L517.501 873.262C517.501 872.933 517.615 872.667 517.843 872.464C518.071 872.236 518.35 872.122 518.679 872.122C519.009 872.122 519.287 872.249 519.515 872.502C519.769 872.73 519.895 873.009 519.895 873.338L519.933 888.272C521.073 887.487 522.593 886.182 524.493 884.358C526.393 882.534 528.002 880.773 529.319 879.076C529.547 878.721 529.864 878.544 530.269 878.544C530.599 878.544 530.877 878.658 531.105 878.886C531.333 879.114 531.447 879.38 531.447 879.684C531.447 879.861 531.359 880.102 531.181 880.406C530.421 881.394 529.421 882.534 528.179 883.826C526.963 885.118 525.912 886.157 525.025 886.942C525.633 887.778 527.115 889.653 529.471 892.566L532.321 896.1C532.549 896.379 532.663 896.632 532.663 896.86C532.663 897.189 532.549 897.481 532.321 897.734C532.119 897.987 531.84 898.114 531.485 898.114C531.08 898.114 530.763 897.975 530.535 897.696C528.661 895.163 526.229 892.034 523.239 888.31C522.175 889.171 521.086 889.931 519.971 890.59V897.05C519.971 897.354 519.845 897.633 519.591 897.886C519.363 898.114 519.085 898.228 518.755 898.228ZM536.667 898C536.338 898 536.059 897.886 535.831 897.658C535.603 897.43 535.489 897.151 535.489 896.822C535.489 896.493 535.603 896.214 535.831 895.986C536.059 895.733 536.338 895.606 536.667 895.606H539.859L540.163 876.568L537.427 879.494C537.199 879.747 536.908 879.874 536.553 879.874C536.224 879.874 535.945 879.76 535.717 879.532C535.489 879.279 535.375 878.987 535.375 878.658C535.375 878.354 535.489 878.088 535.717 877.86L540.505 872.654C540.607 872.553 540.733 872.464 540.885 872.388C541.063 872.312 541.215 872.274 541.341 872.274C541.696 872.274 541.987 872.401 542.215 872.654C542.443 872.882 542.557 873.161 542.557 873.49L542.253 895.606H544.761C545.141 895.606 545.445 895.733 545.673 895.986C545.901 896.214 546.015 896.493 546.015 896.822C546.015 897.151 545.889 897.43 545.635 897.658C545.407 897.886 545.141 898 544.837 898H536.667ZM570.771 898.228C569.302 898.228 567.921 897.873 566.629 897.164C565.363 896.429 564.349 895.429 563.589 894.162C562.855 892.895 562.487 891.502 562.487 889.982C562.487 888.259 562.88 886.575 563.665 884.928C564.476 883.256 565.54 881.901 566.857 880.862C568.175 879.798 569.543 879.266 570.961 879.266C572.279 879.266 573.355 879.481 574.191 879.912C575.053 880.343 575.876 881.014 576.661 881.926C576.864 882.129 576.965 882.395 576.965 882.724C576.965 883.053 576.851 883.332 576.623 883.56C576.421 883.788 576.155 883.902 575.825 883.902C575.471 883.902 575.179 883.763 574.951 883.484C574.394 882.825 573.824 882.331 573.241 882.002C572.659 881.647 571.924 881.47 571.037 881.47C570.024 881.47 569.036 881.875 568.073 882.686C567.111 883.497 566.325 884.561 565.717 885.878C565.109 887.17 564.805 888.513 564.805 889.906C564.805 891.173 565.097 892.275 565.679 893.212C566.287 894.124 567.047 894.821 567.959 895.302C568.897 895.783 569.834 896.024 570.771 896.024C572.95 896.024 574.647 895.15 575.863 893.402C576.193 892.946 576.547 892.718 576.927 892.718C577.257 892.718 577.535 892.832 577.763 893.06C577.991 893.288 578.105 893.554 578.105 893.858C578.105 894.111 577.979 894.403 577.725 894.732C577.067 895.695 576.117 896.518 574.875 897.202C573.634 897.886 572.266 898.228 570.771 898.228ZM587.203 898.342C585.785 898.342 584.657 898.025 583.821 897.392C583.011 896.759 582.415 895.682 582.035 894.162C581.655 892.642 581.465 890.527 581.465 887.816C581.465 884.903 581.617 882.509 581.921 880.634C581.997 880.127 582.124 879.773 582.301 879.57C582.504 879.342 582.783 879.228 583.137 879.228C583.441 879.228 583.695 879.329 583.897 879.532C584.125 879.735 584.239 880.013 584.239 880.368C584.239 880.748 584.201 881.242 584.125 881.85C583.897 883.674 583.783 885.967 583.783 888.728C583.783 891.388 584.049 893.301 584.581 894.466C585.113 895.631 586 896.214 587.241 896.214C588.381 896.214 589.521 895.923 590.661 895.34C591.827 894.732 592.65 894.149 593.131 893.592C593.435 893.237 593.587 892.667 593.587 891.882L593.739 880.292C593.739 879.988 593.853 879.735 594.081 879.532C594.309 879.329 594.575 879.228 594.879 879.228C595.183 879.228 595.449 879.329 595.677 879.532C595.905 879.735 596.019 879.988 596.019 880.292V897.05C596.019 897.354 595.893 897.633 595.639 897.886C595.386 898.114 595.095 898.228 594.765 898.228C594.36 898.228 594.031 898.101 593.777 897.848C593.549 897.595 593.435 897.278 593.435 896.898V895.454C592.878 896.189 592.017 896.86 590.851 897.468C589.711 898.051 588.495 898.342 587.203 898.342ZM602.659 898.228C602.355 898.228 602.077 898.114 601.823 897.886C601.57 897.658 601.443 897.405 601.443 897.126V880.406C601.443 880.077 601.557 879.811 601.785 879.608C602.039 879.38 602.33 879.266 602.659 879.266C603.014 879.266 603.305 879.38 603.533 879.608C603.761 879.811 603.875 880.077 603.875 880.406V883.636C604.585 882.395 605.459 881.343 606.497 880.482C607.561 879.595 608.803 879.152 610.221 879.152C611.336 879.152 612.134 879.469 612.615 880.102C613.122 880.71 613.375 881.445 613.375 882.306V883.522C613.375 883.851 613.261 884.13 613.033 884.358C612.805 884.561 612.527 884.662 612.197 884.662C611.817 884.662 611.539 884.548 611.361 884.32C611.184 884.092 611.095 883.813 611.095 883.484V882.61C611.095 881.875 610.665 881.508 609.803 881.508C608.309 881.508 606.763 882.572 605.167 884.7C604.787 885.207 604.471 885.84 604.217 886.6C603.989 887.36 603.875 888.069 603.875 888.728L603.837 897.126C603.837 897.405 603.711 897.658 603.457 897.886C603.229 898.114 602.963 898.228 602.659 898.228ZM621.335 898.266C620.828 898.266 620.461 897.987 620.233 897.43L613.469 880.862C613.418 880.659 613.393 880.52 613.393 880.444C613.393 880.115 613.507 879.836 613.735 879.608C613.988 879.38 614.292 879.266 614.647 879.266C615.128 879.266 615.496 879.532 615.749 880.064L621.335 894.162L626.959 879.95C627.06 879.747 627.2 879.583 627.377 879.456C627.58 879.304 627.808 879.228 628.061 879.228C628.39 879.228 628.669 879.355 628.897 879.608C629.15 879.836 629.277 880.102 629.277 880.406C629.277 880.558 629.226 880.735 629.125 880.938L622.437 897.506C622.209 898.013 621.842 898.266 621.335 898.266ZM639.934 898.228C638.084 898.228 636.438 897.823 634.994 897.012C633.55 896.176 632.435 895.061 631.65 893.668C630.864 892.275 630.472 890.755 630.472 889.108C630.472 887.385 630.826 885.777 631.536 884.282C632.27 882.762 633.284 881.546 634.576 880.634C635.868 879.722 637.35 879.266 639.022 879.266C640.542 879.266 641.834 879.557 642.898 880.14C643.987 880.723 644.798 881.419 645.33 882.23C645.887 883.041 646.166 883.763 646.166 884.396C646.166 884.852 645.862 885.257 645.254 885.612L633.474 892.338C634.107 893.554 634.968 894.479 636.058 895.112C637.147 895.72 638.426 896.024 639.896 896.024C640.706 896.024 641.555 895.821 642.442 895.416C643.354 895.011 644.076 894.529 644.608 893.972C644.785 893.719 645.038 893.592 645.368 893.592C645.697 893.592 645.963 893.706 646.166 893.934C646.394 894.137 646.508 894.403 646.508 894.732C646.508 894.985 646.406 895.239 646.204 895.492C645.52 896.277 644.582 896.936 643.392 897.468C642.226 897.975 641.074 898.228 639.934 898.228ZM643.81 884.092C643.455 883.231 642.898 882.585 642.138 882.154C641.378 881.723 640.352 881.508 639.06 881.508C637.844 881.508 636.754 881.85 635.792 882.534C634.829 883.193 634.069 884.092 633.512 885.232C632.98 886.372 632.701 887.626 632.676 888.994C632.676 889.501 632.701 889.906 632.752 890.21L643.81 884.092Z" fill="#1E1E1E"/>
</svg>
