<svg width="1723" height="973" viewBox="0 0 1723 973" fill="none" xmlns="http://www.w3.org/2000/svg">
<rect width="1723" height="973" fill="#1E1E1E"/>
<rect x="72.4" y="65.4" width="955.2" height="758.2" rx="41.6" fill="#1E1E1E" stroke="white" stroke-width="0.8" stroke-dasharray="36 36"/>
<path d="M776.497 119L685.997 275L641.997 328.5C630.664 341.667 599.997 361.4 567.997 335C527.997 302 428.997 223.5 401.997 220.5C374.997 217.5 350.497 210.5 318.497 226C286.497 241.5 237.497 292 235.997 417.5C234.497 543 292.497 616.5 354.997 614C404.997 612 430.832 600.167 437.5 594.5C441.666 595.667 473.597 578 567.997 498C577.997 486.833 606.797 472.2 641.997 503L685.997 561L776.497 715.5" stroke="#F7931A" stroke-width="2"/>
<path d="M122 417.5L132 423.274L132 411.726L122 417.5ZM871 417.5L861 411.727L861 423.274L871 417.5ZM131 418.5L862 418.5L862 416.5L131 416.5L131 418.5Z" fill="white"/>
<path d="M89 156L1015 156.995" stroke="white" stroke-width="0.2" stroke-dasharray="8 8"/>
<path d="M89 258L1028 258" stroke="white" stroke-width="0.2" stroke-dasharray="8 8"/>
<path d="M89 360L1028 360" stroke="white" stroke-width="0.2" stroke-dasharray="8 8"/>
<path d="M89 462L1028 462" stroke="white" stroke-width="0.2" stroke-dasharray="8 8"/>
<path d="M89 564L1028 564" stroke="white" stroke-width="0.2" stroke-dasharray="8 8"/>
<path d="M89 666L1028 666" stroke="white" stroke-width="0.2" stroke-dasharray="8 8"/>
<path d="M89 768L1028 768" stroke="white" stroke-width="0.2" stroke-dasharray="8 8"/>
<path d="M701 70L701 824" stroke="white" stroke-width="0.2" stroke-dasharray="8 8"/>
<path d="M599 70L599 824" stroke="white" stroke-width="0.2" stroke-dasharray="8 8"/>
<path d="M497 70L497 824" stroke="white" stroke-width="0.2" stroke-dasharray="8 8"/>
<path d="M395 70L395 824" stroke="white" stroke-width="0.2" stroke-dasharray="8 8"/>
<path d="M293 70L293 824" stroke="white" stroke-width="0.2" stroke-dasharray="8 8"/>
<path d="M191 70L191 824" stroke="white" stroke-width="0.2" stroke-dasharray="8 8"/>
<path d="M905 65L905 819" stroke="white" stroke-width="0.2" stroke-dasharray="8 8"/>
<path d="M803 65L803 819" stroke="white" stroke-width="0.2" stroke-dasharray="8 8"/>
<path d="M701 65L701 819" stroke="white" stroke-width="0.2" stroke-dasharray="8 8"/>
<circle cx="681" cy="555.5" r="10" fill="#F7931A"/>
<path d="M703.34 535.168C703.191 535.168 703.051 535.112 702.92 535C702.808 534.869 702.752 534.72 702.752 534.552V517.052C702.752 516.772 702.79 516.567 702.864 516.436C702.939 516.305 703.116 516.212 703.396 516.156C703.695 516.1 704.171 516.072 704.824 516.072C708.296 516.072 710.9 516.557 712.636 517.528C714.391 518.499 715.268 519.899 715.268 521.728C715.268 523.315 714.643 524.603 713.392 525.592C712.16 526.581 710.676 527.291 708.94 527.72C707.204 528.131 705.543 528.336 703.956 528.336V534.552C703.956 534.739 703.9 534.888 703.788 535C703.676 535.112 703.527 535.168 703.34 535.168ZM703.956 527.132C705.17 527.132 706.551 526.983 708.1 526.684C709.65 526.385 711.031 525.835 712.244 525.032C713.458 524.229 714.064 523.128 714.064 521.728C714.064 520.309 713.299 519.217 711.768 518.452C710.256 517.668 708.1 517.276 705.3 517.276C704.684 517.276 704.236 517.295 703.956 517.332V527.132ZM725.582 535.168C723.305 535.168 721.541 534.3 720.29 532.564C719.058 530.828 718.377 528.271 718.246 524.892C718.209 523.884 718.19 522.652 718.19 521.196L718.218 516.828C718.218 516.604 718.274 516.427 718.386 516.296C718.498 516.165 718.657 516.1 718.862 516.1C719.254 516.1 719.45 516.352 719.45 516.856L719.422 519.124C719.385 520.169 719.366 520.944 719.366 521.448C719.366 522.251 719.385 523.268 719.422 524.5C719.646 530.921 721.709 534.132 725.61 534.132C727.626 534.132 729.157 533.535 730.202 532.34C731.247 531.127 731.891 529.484 732.134 527.412C732.283 526.049 732.358 524.229 732.358 521.952L732.33 516.94C732.33 516.38 732.535 516.1 732.946 516.1C733.151 516.1 733.301 516.175 733.394 516.324C733.487 516.473 733.534 516.66 733.534 516.884C733.534 516.959 733.553 517.519 733.59 518.564C733.627 519.609 733.646 520.692 733.646 521.812C733.646 523.94 733.534 525.872 733.31 527.608C732.993 529.979 732.209 531.836 730.958 533.18C729.707 534.505 727.915 535.168 725.582 535.168ZM739.686 535.224C739.126 535.224 738.846 534.953 738.846 534.412V516.828C738.846 516.66 738.902 516.52 739.014 516.408C739.145 516.277 739.285 516.212 739.434 516.212H744.642C745.968 516.212 747.088 516.427 748.002 516.856C748.917 517.285 749.598 517.845 750.046 518.536C750.494 519.227 750.718 519.955 750.718 520.72C750.718 521.635 750.504 522.437 750.074 523.128C749.664 523.8 749.141 524.369 748.506 524.836C749.776 525.284 750.737 525.909 751.39 526.712C752.062 527.496 752.398 528.439 752.398 529.54C752.398 531.369 751.334 532.779 749.206 533.768C747.078 534.739 743.905 535.224 739.686 535.224ZM745.874 524.528C746.546 524.528 747.162 524.351 747.722 523.996C748.282 523.641 748.721 523.184 749.038 522.624C749.356 522.045 749.514 521.439 749.514 520.804C749.514 519.796 749.076 518.984 748.198 518.368C747.321 517.733 746.136 517.416 744.642 517.416H740.078V524.528H745.874ZM740.078 534.048C743.326 534.048 745.986 533.675 748.058 532.928C750.149 532.163 751.194 531.033 751.194 529.54C751.194 528.42 750.728 527.505 749.794 526.796C748.88 526.087 747.638 525.732 746.07 525.732H740.078V534.048ZM757.21 535.168C757.023 535.187 756.864 535.131 756.734 535C756.603 534.869 756.538 534.72 756.538 534.552V516.716C756.538 516.548 756.594 516.408 756.706 516.296C756.818 516.165 756.967 516.1 757.154 516.1C757.322 516.1 757.462 516.165 757.574 516.296C757.686 516.408 757.742 516.548 757.742 516.716V533.936L766.954 533.292C767.14 533.273 767.299 533.329 767.43 533.46C767.56 533.572 767.626 533.712 767.626 533.88C767.626 534.029 767.57 534.16 767.458 534.272C767.346 534.384 767.206 534.449 767.038 534.468L757.21 535.168ZM769.302 535.028C769.134 535.028 768.985 534.972 768.854 534.86C768.724 534.729 768.658 534.571 768.658 534.384C768.658 534.235 768.724 534.104 768.854 533.992C768.985 533.88 769.134 533.824 769.302 533.824H772.354V517.444H769.302C769.134 517.444 768.985 517.388 768.854 517.276C768.724 517.145 768.658 516.996 768.658 516.828C768.658 516.66 768.724 516.52 768.854 516.408C768.985 516.296 769.134 516.24 769.302 516.24H776.61C776.778 516.24 776.918 516.296 777.03 516.408C777.161 516.52 777.226 516.66 777.226 516.828C777.226 516.996 777.161 517.145 777.03 517.276C776.918 517.388 776.778 517.444 776.61 517.444H773.586V533.824H776.61C776.797 533.824 776.946 533.88 777.058 533.992C777.17 534.085 777.226 534.216 777.226 534.384C777.226 534.571 777.161 534.729 777.03 534.86C776.918 534.972 776.778 535.028 776.61 535.028H769.302ZM787.346 535.196C785.89 535.196 784.546 534.841 783.314 534.132C782.101 533.404 781.13 532.415 780.402 531.164C779.674 529.895 779.31 528.476 779.31 526.908C779.31 525.06 779.721 523.305 780.542 521.644C781.382 519.964 782.456 518.62 783.762 517.612C785.069 516.585 786.376 516.072 787.682 516.072C788.541 516.072 789.297 516.184 789.95 516.408C790.622 516.632 791.248 516.921 791.826 517.276C791.901 517.127 791.994 517.015 792.106 516.94C792.218 516.847 792.34 516.8 792.47 516.8C792.638 516.8 792.778 516.856 792.89 516.968C793.002 517.08 793.058 517.22 793.058 517.388V519.208C793.058 519.376 792.993 519.525 792.862 519.656C792.75 519.787 792.61 519.852 792.442 519.852C792.293 519.852 792.153 519.787 792.022 519.656C791.892 519.525 791.826 519.376 791.826 519.208V518.984C790.8 517.864 789.428 517.304 787.71 517.304C786.59 517.304 785.47 517.771 784.35 518.704C783.249 519.619 782.344 520.823 781.634 522.316C780.925 523.809 780.57 525.34 780.57 526.908C780.57 528.439 780.916 529.736 781.606 530.8C782.316 531.864 783.193 532.667 784.238 533.208C785.284 533.731 786.32 533.992 787.346 533.992C788.41 533.992 789.428 533.768 790.398 533.32C791.369 532.872 792.237 532.163 793.002 531.192C793.152 531.024 793.31 530.94 793.478 530.94C793.646 530.94 793.796 530.996 793.926 531.108C794.057 531.22 794.122 531.36 794.122 531.528C794.122 531.659 794.076 531.789 793.982 531.92C793.198 532.965 792.228 533.777 791.07 534.356C789.932 534.916 788.69 535.196 787.346 535.196ZM818.779 535.196C818.649 535.196 818.509 535.14 818.359 535.028L807.971 526.908V534.552C807.971 534.72 807.915 534.869 807.803 535C807.691 535.112 807.542 535.168 807.355 535.168C807.206 535.168 807.075 535.112 806.963 535C806.851 534.869 806.795 534.72 806.795 534.552V516.66C806.795 516.511 806.851 516.38 806.963 516.268C807.075 516.156 807.206 516.1 807.355 516.1C807.542 516.1 807.691 516.156 807.803 516.268C807.915 516.38 807.971 516.511 807.971 516.66V524.696L817.855 516.24C818.005 516.128 818.145 516.072 818.275 516.072C818.406 516.072 818.527 516.137 818.639 516.268C818.77 516.38 818.835 516.511 818.835 516.66C818.835 516.865 818.761 517.015 818.611 517.108L808.419 525.816L819.115 534.076C819.302 534.225 819.395 534.403 819.395 534.608C819.395 534.757 819.339 534.888 819.227 535C819.115 535.131 818.966 535.196 818.779 535.196ZM823.408 535C823.24 535 823.09 534.944 822.96 534.832C822.848 534.701 822.792 534.543 822.792 534.356V516.828C822.792 516.66 822.848 516.52 822.96 516.408C823.09 516.296 823.24 516.24 823.408 516.24H835.644C835.812 516.24 835.952 516.296 836.064 516.408C836.194 516.52 836.26 516.66 836.26 516.828C836.26 517.015 836.194 517.173 836.064 517.304C835.952 517.416 835.812 517.472 835.644 517.472H824.024V524.584H834.244C834.412 524.584 834.552 524.64 834.664 524.752C834.794 524.864 834.86 525.013 834.86 525.2C834.86 525.368 834.794 525.517 834.664 525.648C834.552 525.76 834.412 525.816 834.244 525.816H824.024V533.768H835.588C835.756 533.768 835.896 533.824 836.008 533.936C836.138 534.048 836.204 534.188 836.204 534.356C836.204 534.543 836.138 534.701 836.008 534.832C835.896 534.944 835.756 535 835.588 535H823.408ZM841.925 535.168C841.757 535.168 841.607 535.112 841.477 535C841.346 534.869 841.281 534.739 841.281 534.608C841.281 534.496 841.337 534.347 841.449 534.16L844.361 529.26L837.277 517.108C837.258 517.071 837.23 517.015 837.193 516.94C837.155 516.847 837.137 516.753 837.137 516.66C837.137 516.492 837.202 516.361 837.333 516.268C837.463 516.156 837.613 516.1 837.781 516.1C837.986 516.1 838.145 516.203 838.257 516.408L845.061 528.084L851.977 516.408C852.089 516.203 852.257 516.1 852.481 516.1C852.63 516.1 852.77 516.156 852.901 516.268C853.031 516.38 853.097 516.511 853.097 516.66C853.097 516.791 853.031 516.968 852.901 517.192L842.401 534.86C842.307 535.065 842.149 535.168 841.925 535.168ZM734.102 567.168C733.953 567.168 733.813 567.112 733.682 567C733.57 566.869 733.514 566.72 733.514 566.552V549.052C733.514 548.772 733.552 548.567 733.626 548.436C733.701 548.305 733.878 548.212 734.158 548.156C734.457 548.1 734.933 548.072 735.586 548.072C739.058 548.072 741.662 548.557 743.398 549.528C745.153 550.499 746.03 551.899 746.03 553.728C746.03 555.315 745.405 556.603 744.154 557.592C742.922 558.581 741.438 559.291 739.702 559.72C737.966 560.131 736.305 560.336 734.718 560.336V566.552C734.718 566.739 734.662 566.888 734.55 567C734.438 567.112 734.289 567.168 734.102 567.168ZM734.718 559.132C735.932 559.132 737.313 558.983 738.862 558.684C740.412 558.385 741.793 557.835 743.006 557.032C744.22 556.229 744.826 555.128 744.826 553.728C744.826 552.309 744.061 551.217 742.53 550.452C741.018 549.668 738.862 549.276 736.062 549.276C735.446 549.276 734.998 549.295 734.718 549.332V559.132ZM758.002 558.544C757.853 558.544 757.713 558.488 757.582 558.376C757.47 558.264 757.414 558.133 757.414 557.984C757.414 557.816 757.47 557.676 757.582 557.564C757.713 557.433 757.853 557.368 758.002 557.368H766.234C766.421 557.368 766.57 557.433 766.682 557.564C766.794 557.676 766.85 557.816 766.85 557.984C766.85 558.133 766.794 558.264 766.682 558.376C766.57 558.488 766.421 558.544 766.234 558.544H758.002ZM758.002 562.996C757.853 562.996 757.713 562.94 757.582 562.828C757.47 562.716 757.414 562.576 757.414 562.408C757.414 562.24 757.47 562.1 757.582 561.988C757.713 561.857 757.853 561.792 758.002 561.792H766.234C766.421 561.792 766.57 561.857 766.682 561.988C766.794 562.1 766.85 562.24 766.85 562.408C766.85 562.576 766.794 562.716 766.682 562.828C766.57 562.94 766.421 562.996 766.234 562.996H758.002ZM780.853 567.168C780.704 567.168 780.564 567.112 780.433 567C780.321 566.869 780.265 566.72 780.265 566.552L780.209 548.268C780.209 548.119 780.265 547.988 780.377 547.876C780.489 547.764 780.629 547.708 780.797 547.708C780.965 547.708 781.105 547.773 781.217 547.904C781.348 548.016 781.413 548.156 781.413 548.324L781.441 560.42C782.431 559.767 783.709 558.693 785.277 557.2C786.864 555.707 788.171 554.279 789.197 552.916C789.347 552.729 789.524 552.636 789.729 552.636C789.879 552.636 790.009 552.701 790.121 552.832C790.252 552.944 790.317 553.075 790.317 553.224C790.317 553.299 790.271 553.411 790.177 553.56C789.599 554.307 788.815 555.203 787.825 556.248C786.836 557.275 785.977 558.115 785.249 558.768L788.021 562.24C789.067 563.528 790.084 564.797 791.073 566.048C791.185 566.235 791.241 566.384 791.241 566.496C791.241 566.645 791.185 566.785 791.073 566.916C790.961 567.047 790.821 567.112 790.653 567.112C790.448 567.112 790.289 567.037 790.177 566.888C789.151 565.525 788.031 564.079 786.817 562.548C785.623 561.017 784.801 559.981 784.353 559.44C783.084 560.429 782.123 561.12 781.469 561.512V566.552C781.469 566.72 781.404 566.869 781.273 567C781.161 567.112 781.021 567.168 780.853 567.168ZM794.991 554.596C794.823 554.596 794.683 554.54 794.571 554.428C794.477 554.316 794.431 554.185 794.431 554.036C794.431 553.756 794.627 553.392 795.019 552.944C795.355 552.552 795.849 552.085 796.503 551.544C796.129 551.525 795.765 551.479 795.411 551.404C795.056 551.311 794.701 551.208 794.347 551.096C793.675 550.947 793.339 550.685 793.339 550.312C793.339 550.144 793.395 550.013 793.507 549.92C793.619 549.808 793.759 549.752 793.927 549.752C794.188 549.752 794.561 549.864 795.047 550.088C795.625 550.349 796.167 550.648 796.671 550.984C796.447 550.219 796.335 549.388 796.335 548.492C796.335 548.212 796.391 547.997 796.503 547.848C796.615 547.68 796.773 547.596 796.979 547.596C797.165 547.596 797.315 547.68 797.427 547.848C797.539 547.997 797.595 548.212 797.595 548.492C797.595 549.388 797.492 550.219 797.287 550.984C798.556 550.163 799.471 549.752 800.031 549.752C800.199 549.752 800.339 549.799 800.451 549.892C800.563 549.985 800.619 550.107 800.619 550.256C800.637 550.461 800.581 550.629 800.451 550.76C800.32 550.872 800.059 550.993 799.667 551.124C799.181 551.255 798.789 551.357 798.491 551.432C798.192 551.488 797.847 551.525 797.455 551.544C797.791 551.805 798.071 552.067 798.295 552.328C798.537 552.589 798.696 552.757 798.771 552.832C799.275 553.373 799.527 553.747 799.527 553.952C799.527 554.12 799.471 554.269 799.359 554.4C799.265 554.531 799.135 554.596 798.967 554.596C798.799 554.596 798.631 554.521 798.463 554.372C798.313 554.204 798.136 553.961 797.931 553.644C797.837 553.476 797.688 553.233 797.483 552.916C797.296 552.58 797.128 552.225 796.979 551.852C796.792 552.375 796.484 552.981 796.055 553.672C795.831 554.008 795.644 554.251 795.495 554.4C795.345 554.531 795.177 554.596 794.991 554.596ZM812.157 567.196C810.552 567.196 809.105 566.785 807.817 565.964C806.529 565.124 805.521 563.995 804.793 562.576C804.084 561.157 803.729 559.599 803.729 557.9C803.729 556.313 804.093 554.764 804.821 553.252C805.568 551.721 806.613 550.471 807.957 549.5C809.32 548.529 810.869 548.044 812.605 548.044C814.192 548.044 815.536 548.371 816.637 549.024C817.757 549.677 818.588 550.424 819.129 551.264C819.671 552.085 819.941 552.739 819.941 553.224C819.941 553.373 819.885 553.504 819.773 553.616C819.661 553.709 819.531 553.756 819.381 553.756C819.045 553.756 818.84 553.607 818.765 553.308C818.336 552.169 817.627 551.217 816.637 550.452C815.648 549.668 814.304 549.276 812.605 549.276C810.888 549.276 809.451 549.78 808.293 550.788C807.155 551.777 806.315 552.953 805.773 554.316C805.251 555.66 804.989 556.855 804.989 557.9C804.989 559.281 805.279 560.588 805.857 561.82C806.436 563.052 807.267 564.051 808.349 564.816C809.451 565.581 810.72 565.964 812.157 565.964C813.856 565.964 815.312 565.469 816.525 564.48C817.739 563.491 818.56 562.128 818.989 560.392C818.691 560.355 818.336 560.336 817.925 560.336C817.253 560.336 816.684 560.373 816.217 560.448C815.769 560.523 815.284 560.616 814.761 560.728C814.388 560.803 814.192 560.84 814.173 560.84C814.024 560.84 813.884 560.784 813.753 560.672C813.641 560.56 813.585 560.411 813.585 560.224C813.585 559.963 813.725 559.767 814.005 559.636C814.453 559.487 815.041 559.365 815.769 559.272C816.497 559.16 817.207 559.104 817.897 559.104C819.017 559.104 820.053 559.263 821.005 559.58C821.248 559.673 821.369 559.86 821.369 560.14C821.369 560.327 821.313 560.476 821.201 560.588C821.089 560.7 820.959 560.756 820.809 560.756C820.716 560.756 820.501 560.709 820.165 560.616C819.717 562.539 818.793 564.116 817.393 565.348C815.993 566.58 814.248 567.196 812.157 567.196Z" fill="#F7931A"/>
<path d="M173.704 717.168C173.554 717.168 173.414 717.112 173.284 717C173.172 716.869 173.116 716.72 173.116 716.552V699.052C173.116 698.772 173.153 698.567 173.228 698.436C173.302 698.305 173.48 698.212 173.76 698.156C174.058 698.1 174.534 698.072 175.188 698.072C178.66 698.072 181.264 698.557 183 699.528C184.754 700.499 185.632 701.899 185.632 703.728C185.632 705.315 185.006 706.603 183.756 707.592C182.524 708.581 181.04 709.291 179.304 709.72C177.568 710.131 175.906 710.336 174.32 710.336V716.552C174.32 716.739 174.264 716.888 174.152 717C174.04 717.112 173.89 717.168 173.704 717.168ZM174.32 709.132C175.533 709.132 176.914 708.983 178.464 708.684C180.013 708.385 181.394 707.835 182.608 707.032C183.821 706.229 184.428 705.128 184.428 703.728C184.428 702.309 183.662 701.217 182.132 700.452C180.62 699.668 178.464 699.276 175.664 699.276C175.048 699.276 174.6 699.295 174.32 699.332V709.132ZM189.645 717.056C189.477 717.056 189.337 717 189.225 716.888C189.113 716.776 189.057 716.627 189.057 716.44V698.8C189.057 698.52 189.104 698.315 189.197 698.184C189.291 698.053 189.468 697.969 189.729 697.932C190.009 697.876 190.439 697.848 191.017 697.848H191.857C194.993 697.848 197.411 698.352 199.109 699.36C200.827 700.368 201.685 701.787 201.685 703.616C201.685 705.016 201.153 706.183 200.089 707.116C199.044 708.031 197.7 708.768 196.057 709.328C197.009 709.888 198.083 710.756 199.277 711.932C200.491 713.108 201.517 714.517 202.357 716.16C202.395 716.309 202.413 716.403 202.413 716.44C202.413 716.608 202.357 716.757 202.245 716.888C202.133 717 201.984 717.056 201.797 717.056C201.592 717.056 201.415 716.935 201.265 716.692C199.623 713.929 198.12 712.109 196.757 711.232C195.395 710.336 194.209 709.888 193.201 709.888C192.66 709.888 191.68 709.981 190.261 710.168V716.44C190.261 716.627 190.196 716.776 190.065 716.888C189.953 717 189.813 717.056 189.645 717.056ZM190.261 708.964C191.829 708.927 193.397 708.721 194.965 708.348C196.533 707.956 197.84 707.368 198.885 706.584C199.949 705.8 200.481 704.811 200.481 703.616C200.481 702.123 199.725 700.993 198.213 700.228C196.701 699.444 194.555 699.052 191.773 699.052L190.261 699.108V708.964ZM204.912 717.028C204.744 717.028 204.594 716.972 204.464 716.86C204.333 716.729 204.268 716.571 204.268 716.384C204.268 716.235 204.333 716.104 204.464 715.992C204.594 715.88 204.744 715.824 204.912 715.824H207.964V699.444H204.912C204.744 699.444 204.594 699.388 204.464 699.276C204.333 699.145 204.268 698.996 204.268 698.828C204.268 698.66 204.333 698.52 204.464 698.408C204.594 698.296 204.744 698.24 204.912 698.24H212.22C212.388 698.24 212.528 698.296 212.64 698.408C212.77 698.52 212.836 698.66 212.836 698.828C212.836 698.996 212.77 699.145 212.64 699.276C212.528 699.388 212.388 699.444 212.22 699.444H209.196V715.824H212.22C212.406 715.824 212.556 715.88 212.668 715.992C212.78 716.085 212.836 716.216 212.836 716.384C212.836 716.571 212.77 716.729 212.64 716.86C212.528 716.972 212.388 717.028 212.22 717.028H204.912ZM220.738 717.168C220.626 717.168 220.504 717.131 220.374 717.056C220.262 716.981 220.187 716.888 220.15 716.776L214.186 699.108C214.13 698.94 214.102 698.809 214.102 698.716C214.102 698.548 214.158 698.408 214.27 698.296C214.382 698.184 214.531 698.128 214.718 698.128C215.016 698.128 215.212 698.259 215.306 698.52L220.794 714.788L227.206 698.492C227.28 698.249 227.467 698.128 227.766 698.128C227.934 698.128 228.074 698.184 228.186 698.296C228.316 698.389 228.382 698.511 228.382 698.66C228.382 698.772 228.363 698.884 228.326 698.996L221.298 716.776C221.223 717.037 221.036 717.168 220.738 717.168ZM241.722 717.196C241.423 717.196 241.218 717.028 241.106 716.692L238.698 709.636L231.11 711.316L229.01 716.692C228.898 717.009 228.693 717.168 228.394 717.168C228.207 717.168 228.058 717.112 227.946 717C227.834 716.888 227.778 716.748 227.778 716.58C227.778 716.449 227.815 716.3 227.89 716.132L229.682 711.568C229.178 711.717 228.861 711.792 228.73 711.792C228.581 711.792 228.441 711.736 228.31 711.624C228.198 711.493 228.142 711.344 228.142 711.176C228.142 711.027 228.189 710.905 228.282 710.812C228.375 710.7 228.497 710.625 228.646 710.588L230.214 710.224L234.918 698.296C235.03 698.035 235.235 697.904 235.534 697.904C235.665 697.904 235.786 697.941 235.898 698.016C236.01 698.091 236.085 698.184 236.122 698.296L242.226 716.02C242.319 716.263 242.366 716.459 242.366 716.608C242.366 716.757 242.301 716.888 242.17 717C242.058 717.131 241.909 717.196 241.722 717.196ZM238.278 708.488L235.422 700.256L231.642 709.944L238.278 708.488ZM248.329 717.168C248.161 717.168 248.012 717.112 247.881 717C247.769 716.869 247.713 716.72 247.713 716.552V699.444H241.917C241.768 699.444 241.628 699.388 241.497 699.276C241.385 699.145 241.329 699.005 241.329 698.856C241.329 698.669 241.385 698.52 241.497 698.408C241.628 698.296 241.768 698.24 241.917 698.24H254.685C254.853 698.24 254.993 698.296 255.105 698.408C255.236 698.52 255.301 698.669 255.301 698.856C255.301 699.005 255.236 699.145 255.105 699.276C254.993 699.388 254.853 699.444 254.685 699.444H248.917V716.552C248.917 716.72 248.861 716.869 248.749 717C248.637 717.112 248.497 717.168 248.329 717.168ZM258.88 717C258.712 717 258.563 716.944 258.432 716.832C258.32 716.701 258.264 716.543 258.264 716.356V698.828C258.264 698.66 258.32 698.52 258.432 698.408C258.563 698.296 258.712 698.24 258.88 698.24H271.116C271.284 698.24 271.424 698.296 271.536 698.408C271.667 698.52 271.732 698.66 271.732 698.828C271.732 699.015 271.667 699.173 271.536 699.304C271.424 699.416 271.284 699.472 271.116 699.472H259.496V706.584H269.716C269.884 706.584 270.024 706.64 270.136 706.752C270.267 706.864 270.332 707.013 270.332 707.2C270.332 707.368 270.267 707.517 270.136 707.648C270.024 707.76 269.884 707.816 269.716 707.816H259.496V715.768H271.06C271.228 715.768 271.368 715.824 271.48 715.936C271.611 716.048 271.676 716.188 271.676 716.356C271.676 716.543 271.611 716.701 271.48 716.832C271.368 716.944 271.228 717 271.06 717H258.88ZM296.416 717.196C296.286 717.196 296.146 717.14 295.996 717.028L285.608 708.908V716.552C285.608 716.72 285.552 716.869 285.44 717C285.328 717.112 285.179 717.168 284.992 717.168C284.843 717.168 284.712 717.112 284.6 717C284.488 716.869 284.432 716.72 284.432 716.552V698.66C284.432 698.511 284.488 698.38 284.6 698.268C284.712 698.156 284.843 698.1 284.992 698.1C285.179 698.1 285.328 698.156 285.44 698.268C285.552 698.38 285.608 698.511 285.608 698.66V706.696L295.492 698.24C295.642 698.128 295.782 698.072 295.912 698.072C296.043 698.072 296.164 698.137 296.276 698.268C296.407 698.38 296.472 698.511 296.472 698.66C296.472 698.865 296.398 699.015 296.248 699.108L286.056 707.816L296.752 716.076C296.939 716.225 297.032 716.403 297.032 716.608C297.032 716.757 296.976 716.888 296.864 717C296.752 717.131 296.603 717.196 296.416 717.196ZM301.044 717C300.876 717 300.727 716.944 300.596 716.832C300.484 716.701 300.428 716.543 300.428 716.356V698.828C300.428 698.66 300.484 698.52 300.596 698.408C300.727 698.296 300.876 698.24 301.044 698.24H313.28C313.448 698.24 313.588 698.296 313.7 698.408C313.831 698.52 313.896 698.66 313.896 698.828C313.896 699.015 313.831 699.173 313.7 699.304C313.588 699.416 313.448 699.472 313.28 699.472H301.66V706.584H311.88C312.048 706.584 312.188 706.64 312.3 706.752C312.431 706.864 312.496 707.013 312.496 707.2C312.496 707.368 312.431 707.517 312.3 707.648C312.188 707.76 312.048 707.816 311.88 707.816H301.66V715.768H313.224C313.392 715.768 313.532 715.824 313.644 715.936C313.775 716.048 313.84 716.188 313.84 716.356C313.84 716.543 313.775 716.701 313.644 716.832C313.532 716.944 313.392 717 313.224 717H301.044ZM319.561 717.168C319.393 717.168 319.244 717.112 319.113 717C318.983 716.869 318.917 716.739 318.917 716.608C318.917 716.496 318.973 716.347 319.085 716.16L321.997 711.26L314.913 699.108C314.895 699.071 314.867 699.015 314.829 698.94C314.792 698.847 314.773 698.753 314.773 698.66C314.773 698.492 314.839 698.361 314.969 698.268C315.1 698.156 315.249 698.1 315.417 698.1C315.623 698.1 315.781 698.203 315.893 698.408L322.697 710.084L329.613 698.408C329.725 698.203 329.893 698.1 330.117 698.1C330.267 698.1 330.407 698.156 330.537 698.268C330.668 698.38 330.733 698.511 330.733 698.66C330.733 698.791 330.668 698.968 330.537 699.192L320.037 716.86C319.944 717.065 319.785 717.168 319.561 717.168ZM135.58 749.168C135.431 749.168 135.291 749.112 135.16 749C135.048 748.869 134.992 748.72 134.992 748.552L134.936 730.268C134.936 730.119 134.992 729.988 135.104 729.876C135.216 729.764 135.356 729.708 135.524 729.708C135.692 729.708 135.832 729.773 135.944 729.904C136.075 730.016 136.14 730.156 136.14 730.324L136.168 742.42C137.157 741.767 138.436 740.693 140.004 739.2C141.591 737.707 142.897 736.279 143.924 734.916C144.073 734.729 144.251 734.636 144.456 734.636C144.605 734.636 144.736 734.701 144.848 734.832C144.979 734.944 145.044 735.075 145.044 735.224C145.044 735.299 144.997 735.411 144.904 735.56C144.325 736.307 143.541 737.203 142.552 738.248C141.563 739.275 140.704 740.115 139.976 740.768L142.748 744.24C143.793 745.528 144.811 746.797 145.8 748.048C145.912 748.235 145.968 748.384 145.968 748.496C145.968 748.645 145.912 748.785 145.8 748.916C145.688 749.047 145.548 749.112 145.38 749.112C145.175 749.112 145.016 749.037 144.904 748.888C143.877 747.525 142.757 746.079 141.544 744.548C140.349 743.017 139.528 741.981 139.08 741.44C137.811 742.429 136.849 743.12 136.196 743.512V748.552C136.196 748.72 136.131 748.869 136 749C135.888 749.112 135.748 749.168 135.58 749.168ZM157.928 740.544C157.779 740.544 157.639 740.488 157.508 740.376C157.396 740.264 157.34 740.133 157.34 739.984C157.34 739.816 157.396 739.676 157.508 739.564C157.639 739.433 157.779 739.368 157.928 739.368H166.16C166.347 739.368 166.496 739.433 166.608 739.564C166.72 739.676 166.776 739.816 166.776 739.984C166.776 740.133 166.72 740.264 166.608 740.376C166.496 740.488 166.347 740.544 166.16 740.544H157.928ZM157.928 744.996C157.779 744.996 157.639 744.94 157.508 744.828C157.396 744.716 157.34 744.576 157.34 744.408C157.34 744.24 157.396 744.1 157.508 743.988C157.639 743.857 157.779 743.792 157.928 743.792H166.16C166.347 743.792 166.496 743.857 166.608 743.988C166.72 744.1 166.776 744.24 166.776 744.408C166.776 744.576 166.72 744.716 166.608 744.828C166.496 744.94 166.347 744.996 166.16 744.996H157.928ZM179.379 748.412C179.379 746.863 179.622 745.556 180.107 744.492C180.593 743.409 181.209 742.523 181.955 741.832C182.721 741.141 183.691 740.413 184.867 739.648C185.894 738.976 186.659 738.444 187.163 738.052C187.667 737.66 188.097 737.175 188.451 736.596C188.806 736.017 188.983 735.336 188.983 734.552C188.983 733.563 188.591 732.741 187.807 732.088C187.042 731.435 186.099 731.108 184.979 731.108C183.897 731.108 182.973 731.36 182.207 731.864C181.442 732.368 180.873 732.835 180.499 733.264C180.462 733.301 180.406 733.367 180.331 733.46C180.257 733.553 180.173 733.628 180.079 733.684C180.005 733.74 179.921 733.768 179.827 733.768C179.659 733.768 179.51 733.703 179.379 733.572C179.267 733.441 179.211 733.292 179.211 733.124C179.211 732.9 179.454 732.564 179.939 732.116C180.555 731.5 181.283 730.977 182.123 730.548C182.963 730.119 183.915 729.904 184.979 729.904C185.969 729.904 186.855 730.119 187.639 730.548C188.442 730.959 189.067 731.519 189.515 732.228C189.963 732.937 190.187 733.712 190.187 734.552C190.187 735.56 189.973 736.428 189.543 737.156C189.133 737.884 188.619 738.491 188.003 738.976C187.406 739.443 186.566 740.021 185.483 740.712C184.494 741.365 183.673 741.981 183.019 742.56C182.385 743.12 181.834 743.839 181.367 744.716C180.919 745.575 180.667 746.611 180.611 747.824H189.851C190.019 747.824 190.159 747.88 190.271 747.992C190.402 748.104 190.467 748.244 190.467 748.412C190.467 748.58 190.402 748.72 190.271 748.832C190.159 748.944 190.019 749 189.851 749H179.379V748.412ZM198.701 749.168C197.73 749.168 196.853 748.991 196.069 748.636C195.285 748.281 194.641 747.871 194.137 747.404C193.651 746.919 193.334 746.499 193.185 746.144C193.147 746.032 193.129 745.92 193.129 745.808C193.129 745.659 193.185 745.528 193.297 745.416C193.427 745.285 193.577 745.22 193.745 745.22C193.894 745.22 194.006 745.248 194.081 745.304C194.155 745.36 194.23 745.453 194.305 745.584C194.902 746.368 195.546 746.965 196.237 747.376C196.927 747.768 197.749 747.964 198.701 747.964C199.597 747.964 200.437 747.693 201.221 747.152C202.023 746.592 202.658 745.855 203.125 744.94C203.61 744.025 203.853 743.045 203.853 742C203.853 741.104 203.685 740.264 203.349 739.48C203.013 738.677 202.499 738.033 201.809 737.548C201.118 737.044 200.269 736.792 199.261 736.792C197.693 736.792 196.274 737.427 195.005 738.696C194.837 738.864 194.678 738.948 194.529 738.948C194.323 738.948 194.155 738.873 194.025 738.724C193.894 738.575 193.847 738.407 193.885 738.22L194.669 730.632C194.687 730.483 194.753 730.361 194.865 730.268C194.977 730.156 195.107 730.1 195.257 730.1H203.657C203.825 730.1 203.965 730.165 204.077 730.296C204.189 730.408 204.245 730.539 204.245 730.688C204.245 730.875 204.189 731.024 204.077 731.136C203.965 731.248 203.825 731.304 203.657 731.304H195.817L195.257 736.848C196.713 736.008 198.047 735.588 199.261 735.588C200.362 735.588 201.351 735.859 202.229 736.4C203.106 736.923 203.797 737.669 204.301 738.64C204.805 739.611 205.057 740.731 205.057 742C205.057 743.269 204.758 744.455 204.161 745.556C203.582 746.657 202.798 747.535 201.809 748.188C200.838 748.841 199.802 749.168 198.701 749.168ZM214.409 749.168C213.364 749.168 212.384 748.944 211.469 748.496C210.573 748.029 209.836 747.283 209.257 746.256C208.678 745.211 208.389 743.848 208.389 742.168C208.389 739.069 209.126 736.531 210.601 734.552C212.094 732.555 213.886 731.033 215.977 729.988C216.126 729.913 216.276 729.876 216.425 729.876C216.574 729.876 216.705 729.932 216.817 730.044C216.929 730.137 216.985 730.259 216.985 730.408C216.985 730.651 216.873 730.828 216.649 730.94C215.062 731.649 213.69 732.629 212.533 733.88C211.394 735.112 210.554 736.587 210.013 738.304C210.629 737.837 211.366 737.455 212.225 737.156C213.084 736.839 213.933 736.68 214.773 736.68C215.762 736.68 216.658 736.895 217.461 737.324C218.282 737.753 218.926 738.397 219.393 739.256C219.86 740.096 220.093 741.113 220.093 742.308C220.093 743.708 219.832 744.931 219.309 745.976C218.786 747.003 218.086 747.796 217.209 748.356C216.35 748.897 215.417 749.168 214.409 749.168ZM214.409 748.048C215.212 748.048 215.958 747.833 216.649 747.404C217.34 746.956 217.9 746.303 218.329 745.444C218.758 744.567 218.973 743.521 218.973 742.308C218.973 740.833 218.581 739.723 217.797 738.976C217.013 738.211 216.005 737.828 214.773 737.828C213.541 737.828 212.496 738.071 211.637 738.556C210.797 739.023 210.134 739.508 209.649 740.012C209.556 740.591 209.509 741.309 209.509 742.168C209.509 744.296 209.976 745.808 210.909 746.704C211.842 747.6 213.009 748.048 214.409 748.048ZM223.738 742.756C223.589 742.756 223.449 742.7 223.318 742.588C223.206 742.457 223.15 742.317 223.15 742.168C223.15 742.019 223.206 741.888 223.318 741.776C223.449 741.645 223.589 741.58 223.738 741.58H230.85C230.999 741.58 231.13 741.645 231.242 741.776C231.373 741.888 231.438 742.019 231.438 742.168C231.438 742.317 231.373 742.457 231.242 742.588C231.13 742.7 230.999 742.756 230.85 742.756H223.738ZM236.068 749.168C235.918 749.168 235.778 749.112 235.648 749C235.517 748.888 235.452 748.757 235.452 748.608V730.212C235.452 730.063 235.508 729.941 235.62 729.848C235.75 729.755 235.9 729.708 236.068 729.708C236.236 729.708 236.376 729.755 236.488 729.848C236.6 729.941 236.656 730.063 236.656 730.212V738.108C237.365 737.287 238.196 736.633 239.148 736.148C240.1 735.663 241.061 735.42 242.032 735.42C243.618 735.42 244.813 736.017 245.616 737.212C246.437 738.388 246.848 739.835 246.848 741.552C246.848 743.755 246.344 745.547 245.336 746.928C244.346 748.291 242.834 748.972 240.8 748.972C240.128 748.972 239.418 748.879 238.672 748.692C237.925 748.505 237.253 748.291 236.656 748.048V748.608C236.656 748.757 236.6 748.888 236.488 749C236.376 749.112 236.236 749.168 236.068 749.168ZM240.576 747.824C244.01 747.824 245.728 745.733 245.728 741.552C245.728 740.208 245.429 739.06 244.832 738.108C244.234 737.137 243.329 736.652 242.116 736.652C241.089 736.652 240.156 736.839 239.316 737.212C238.494 737.585 237.841 738.099 237.356 738.752C236.889 739.405 236.656 740.124 236.656 740.908V746.984C237.066 747.171 237.636 747.357 238.364 747.544C239.11 747.731 239.848 747.824 240.576 747.824ZM251.63 732.312C251.481 732.312 251.35 732.256 251.238 732.144C251.126 732.013 251.07 731.873 251.07 731.724L251.098 730.52C251.098 730.371 251.154 730.24 251.266 730.128C251.397 730.016 251.537 729.96 251.686 729.96C251.854 729.96 251.994 730.025 252.106 730.156C252.218 730.268 252.274 730.399 252.274 730.548L252.246 731.752C252.246 731.92 252.181 732.06 252.05 732.172C251.938 732.265 251.798 732.312 251.63 732.312ZM251.462 749.168C251.313 749.168 251.173 749.103 251.042 748.972C250.912 748.841 250.846 748.692 250.846 748.524L251.042 735.84C251.042 735.672 251.098 735.523 251.21 735.392C251.341 735.261 251.481 735.196 251.63 735.196C251.798 735.196 251.938 735.261 252.05 735.392C252.181 735.504 252.246 735.653 252.246 735.84L252.078 748.524C252.078 748.692 252.013 748.841 251.882 748.972C251.77 749.103 251.63 749.168 251.462 749.168ZM258.502 749.196C258.353 749.196 258.213 749.14 258.082 749.028C257.97 748.916 257.914 748.776 257.914 748.608V736.372H254.386C254.218 736.372 254.078 736.316 253.966 736.204C253.835 736.073 253.77 735.933 253.77 735.784C253.77 735.597 253.835 735.448 253.966 735.336C254.097 735.224 254.255 735.168 254.442 735.168H257.914V730.828C257.914 730.66 257.97 730.52 258.082 730.408C258.194 730.277 258.334 730.212 258.502 730.212C258.689 730.212 258.838 730.277 258.95 730.408C259.062 730.52 259.118 730.66 259.118 730.828V735.168H262.702C262.889 735.168 263.038 735.224 263.15 735.336C263.262 735.448 263.318 735.597 263.318 735.784C263.318 735.933 263.262 736.073 263.15 736.204C263.038 736.316 262.889 736.372 262.702 736.372H259.118V748.608C259.118 748.776 259.053 748.916 258.922 749.028C258.81 749.14 258.67 749.196 258.502 749.196ZM268.478 749.224C267.432 749.224 266.527 749.019 265.762 748.608C264.996 748.179 264.418 747.684 264.026 747.124C263.634 746.545 263.438 746.06 263.438 745.668C263.438 745.519 263.494 745.388 263.606 745.276C263.718 745.164 263.848 745.108 263.998 745.108C264.259 745.108 264.436 745.239 264.53 745.5C264.791 746.321 265.267 746.965 265.958 747.432C266.667 747.899 267.516 748.132 268.506 748.132C269.551 748.132 270.4 747.852 271.054 747.292C271.726 746.713 272.062 746.023 272.062 745.22C272.062 744.567 271.819 744.035 271.334 743.624C270.848 743.195 269.915 742.775 268.534 742.364C267.059 741.916 265.976 741.393 265.286 740.796C264.595 740.18 264.25 739.433 264.25 738.556C264.25 737.529 264.651 736.717 265.454 736.12C266.275 735.504 267.404 735.196 268.842 735.196C270.26 735.196 271.343 735.467 272.09 736.008C272.855 736.549 273.238 737.287 273.238 738.22C273.238 738.967 273.032 739.34 272.622 739.34C272.454 739.34 272.314 739.284 272.202 739.172C272.09 739.06 272.034 738.929 272.034 738.78C272.034 738.705 272.043 738.631 272.062 738.556C272.08 738.463 272.09 738.341 272.09 738.192C272.09 736.904 271.026 736.26 268.898 736.26C267.703 736.26 266.816 736.465 266.238 736.876C265.659 737.268 265.37 737.828 265.37 738.556C265.37 739.153 265.622 739.657 266.126 740.068C266.648 740.46 267.61 740.88 269.01 741.328C270.615 741.851 271.716 742.401 272.314 742.98C272.911 743.54 273.21 744.277 273.21 745.192C273.21 745.864 273.014 746.517 272.622 747.152C272.23 747.768 271.67 748.272 270.942 748.664C270.232 749.037 269.411 749.224 268.478 749.224ZM286.767 732.312C286.618 732.312 286.487 732.256 286.375 732.144C286.263 732.013 286.207 731.873 286.207 731.724L286.235 730.52C286.235 730.371 286.291 730.24 286.403 730.128C286.534 730.016 286.674 729.96 286.823 729.96C286.991 729.96 287.131 730.025 287.243 730.156C287.355 730.268 287.411 730.399 287.411 730.548L287.383 731.752C287.383 731.92 287.318 732.06 287.187 732.172C287.075 732.265 286.935 732.312 286.767 732.312ZM286.599 749.168C286.45 749.168 286.31 749.103 286.179 748.972C286.048 748.841 285.983 748.692 285.983 748.524L286.179 735.84C286.179 735.672 286.235 735.523 286.347 735.392C286.478 735.261 286.618 735.196 286.767 735.196C286.935 735.196 287.075 735.261 287.187 735.392C287.318 735.504 287.383 735.653 287.383 735.84L287.215 748.524C287.215 748.692 287.15 748.841 287.019 748.972C286.907 749.103 286.767 749.168 286.599 749.168ZM293.079 749.168C292.929 749.168 292.789 749.112 292.659 749C292.547 748.888 292.491 748.757 292.491 748.608V735.756C292.491 735.588 292.547 735.448 292.659 735.336C292.789 735.224 292.929 735.168 293.079 735.168C293.265 735.168 293.415 735.224 293.527 735.336C293.639 735.448 293.695 735.588 293.695 735.756V741.44C293.956 740.283 294.395 739.228 295.011 738.276C295.645 737.324 296.383 736.577 297.223 736.036C298.063 735.476 298.94 735.196 299.855 735.196C300.937 735.196 301.759 735.513 302.319 736.148C302.879 736.783 303.261 737.753 303.467 739.06C303.672 740.367 303.775 742.149 303.775 744.408L303.747 748.524C303.747 748.711 303.691 748.869 303.579 749C303.485 749.112 303.355 749.168 303.187 749.168C303.037 749.168 302.897 749.112 302.767 749C302.655 748.869 302.599 748.72 302.599 748.552L302.571 744.464C302.571 742.336 302.505 740.721 302.375 739.62C302.244 738.5 301.973 737.669 301.563 737.128C301.171 736.587 300.545 736.316 299.687 736.316C298.903 736.316 298.137 736.605 297.391 737.184C296.663 737.744 296 738.575 295.403 739.676C294.861 740.647 294.441 741.701 294.143 742.84C293.863 743.96 293.713 745.043 293.695 746.088L293.667 748.496C293.667 748.701 293.611 748.869 293.499 749C293.405 749.112 293.265 749.168 293.079 749.168ZM309.689 749.196C309.54 749.196 309.4 749.14 309.269 749.028C309.157 748.916 309.101 748.776 309.101 748.608V736.372H305.573C305.405 736.372 305.265 736.316 305.153 736.204C305.023 736.073 304.957 735.933 304.957 735.784C304.957 735.597 305.023 735.448 305.153 735.336C305.284 735.224 305.443 735.168 305.629 735.168H309.101V730.828C309.101 730.66 309.157 730.52 309.269 730.408C309.381 730.277 309.521 730.212 309.689 730.212C309.876 730.212 310.025 730.277 310.137 730.408C310.249 730.52 310.305 730.66 310.305 730.828V735.168H313.889C314.076 735.168 314.225 735.224 314.337 735.336C314.449 735.448 314.505 735.597 314.505 735.784C314.505 735.933 314.449 736.073 314.337 736.204C314.225 736.316 314.076 736.372 313.889 736.372H310.305V748.608C310.305 748.776 310.24 748.916 310.109 749.028C309.997 749.14 309.857 749.196 309.689 749.196ZM321.888 749.168C320.488 749.168 319.256 748.869 318.192 748.272C317.128 747.675 316.306 746.872 315.728 745.864C315.149 744.837 314.86 743.717 314.86 742.504C314.86 741.179 315.121 739.965 315.644 738.864C316.166 737.744 316.904 736.857 317.856 736.204C318.808 735.532 319.909 735.196 321.16 735.196C322.261 735.196 323.204 735.401 323.988 735.812C324.79 736.223 325.388 736.717 325.78 737.296C326.19 737.875 326.396 738.388 326.396 738.836C326.396 739.041 326.218 739.256 325.864 739.48L316.54 744.828C317.025 745.911 317.716 746.723 318.612 747.264C319.526 747.805 320.609 748.076 321.86 748.076C322.513 748.076 323.213 747.917 323.96 747.6C324.725 747.264 325.304 746.863 325.696 746.396C325.789 746.284 325.91 746.228 326.06 746.228C326.209 746.228 326.34 746.284 326.452 746.396C326.564 746.489 326.62 746.62 326.62 746.788C326.62 746.919 326.564 747.04 326.452 747.152C325.948 747.731 325.266 748.216 324.408 748.608C323.568 748.981 322.728 749.168 321.888 749.168ZM325.22 738.752C324.902 737.949 324.417 737.343 323.764 736.932C323.11 736.521 322.242 736.316 321.16 736.316C320.189 736.316 319.312 736.596 318.528 737.156C317.744 737.697 317.128 738.444 316.68 739.396C316.25 740.329 316.036 741.375 316.036 742.532C316.036 742.924 316.082 743.325 316.176 743.736L325.22 738.752ZM334.507 754.488C333.406 754.488 332.239 754.348 331.007 754.068C330.69 753.975 330.531 753.779 330.531 753.48C330.531 753.312 330.587 753.172 330.699 753.06C330.811 752.948 330.951 752.892 331.119 752.892C331.25 752.892 331.604 752.957 332.183 753.088C332.78 753.219 333.546 753.284 334.479 753.284C336.066 753.284 337.204 752.883 337.895 752.08C338.586 751.277 338.95 750.148 338.987 748.692L339.043 746.34C338.632 747.161 338.026 747.843 337.223 748.384C336.439 748.907 335.618 749.177 334.759 749.196C333.695 749.196 332.743 748.897 331.903 748.3C331.063 747.703 330.41 746.891 329.943 745.864C329.476 744.837 329.243 743.689 329.243 742.42C329.243 741.188 329.532 740.012 330.111 738.892C330.708 737.772 331.511 736.876 332.519 736.204C333.546 735.513 334.666 735.168 335.879 735.168C336.495 735.168 337.102 735.271 337.699 735.476C338.296 735.681 338.819 735.943 339.267 736.26C339.267 735.756 339.314 735.392 339.407 735.168C339.5 734.944 339.687 734.832 339.967 734.832C340.098 734.832 340.219 734.888 340.331 735C340.443 735.112 340.499 735.271 340.499 735.476L340.191 748.832C340.154 750.699 339.612 752.108 338.567 753.06C337.54 754.012 336.187 754.488 334.507 754.488ZM334.535 748.076C335.3 748.076 336.028 747.871 336.719 747.46C337.428 747.049 338.007 746.368 338.455 745.416C338.922 744.464 339.155 743.213 339.155 741.664V737.408C338.819 737.091 338.352 736.839 337.755 736.652C337.158 736.447 336.57 736.344 335.991 736.344C334.964 736.344 334.012 736.615 333.135 737.156C332.258 737.697 331.567 738.444 331.063 739.396C330.559 740.329 330.307 741.375 330.307 742.532C330.307 743.335 330.456 744.165 330.755 745.024C331.054 745.883 331.52 746.611 332.155 747.208C332.79 747.787 333.583 748.076 334.535 748.076ZM351.255 749.168C349.855 749.168 348.623 748.869 347.559 748.272C346.495 747.675 345.673 746.872 345.095 745.864C344.516 744.837 344.227 743.717 344.227 742.504C344.227 741.179 344.488 739.965 345.011 738.864C345.533 737.744 346.271 736.857 347.223 736.204C348.175 735.532 349.276 735.196 350.527 735.196C351.628 735.196 352.571 735.401 353.355 735.812C354.157 736.223 354.755 736.717 355.147 737.296C355.557 737.875 355.763 738.388 355.763 738.836C355.763 739.041 355.585 739.256 355.231 739.48L345.907 744.828C346.392 745.911 347.083 746.723 347.979 747.264C348.893 747.805 349.976 748.076 351.227 748.076C351.88 748.076 352.58 747.917 353.327 747.6C354.092 747.264 354.671 746.863 355.063 746.396C355.156 746.284 355.277 746.228 355.427 746.228C355.576 746.228 355.707 746.284 355.819 746.396C355.931 746.489 355.987 746.62 355.987 746.788C355.987 746.919 355.931 747.04 355.819 747.152C355.315 747.731 354.633 748.216 353.775 748.608C352.935 748.981 352.095 749.168 351.255 749.168ZM354.587 738.752C354.269 737.949 353.784 737.343 353.131 736.932C352.477 736.521 351.609 736.316 350.527 736.316C349.556 736.316 348.679 736.596 347.895 737.156C347.111 737.697 346.495 738.444 346.047 739.396C345.617 740.329 345.403 741.375 345.403 742.532C345.403 742.924 345.449 743.325 345.543 743.736L354.587 738.752ZM360.262 749.168C360.113 749.168 359.973 749.112 359.842 749C359.73 748.888 359.674 748.757 359.674 748.608V735.784C359.674 735.616 359.73 735.476 359.842 735.364C359.973 735.252 360.113 735.196 360.262 735.196C360.449 735.196 360.598 735.252 360.71 735.364C360.841 735.476 360.906 735.616 360.906 735.784V739.284C361.149 738.649 361.532 738.015 362.054 737.38C362.577 736.727 363.193 736.185 363.902 735.756C364.612 735.327 365.349 735.112 366.114 735.112C367.533 735.112 368.242 735.877 368.242 737.408V738.136C368.242 738.304 368.186 738.453 368.074 738.584C367.962 738.696 367.822 738.752 367.654 738.752C367.262 738.752 367.066 738.537 367.066 738.108V737.52C367.066 737.128 366.992 736.829 366.842 736.624C366.693 736.4 366.357 736.288 365.834 736.288C364.565 736.288 363.268 737.175 361.942 738.948C361.644 739.34 361.392 739.844 361.186 740.46C361 741.057 360.906 741.599 360.906 742.084L360.878 748.608C360.878 748.757 360.813 748.888 360.682 749C360.57 749.112 360.43 749.168 360.262 749.168Z" fill="#F7931A"/>
<path d="M623.883 601.912C623.454 601.912 623.071 601.725 622.735 601.352C619.73 597.693 618.227 593.773 618.227 589.592C618.227 587.389 618.675 585.299 619.571 583.32C620.467 581.323 621.68 579.605 623.211 578.168C623.566 577.832 623.902 577.664 624.219 577.664C624.574 577.664 624.882 577.804 625.143 578.084C625.423 578.345 625.563 578.663 625.563 579.036C625.563 579.465 625.395 579.811 625.059 580.072C623.864 581.024 622.875 582.387 622.091 584.16C621.307 585.933 620.915 587.744 620.915 589.592C620.915 591.552 621.298 593.437 622.063 595.248C622.847 597.059 623.762 598.505 624.807 599.588C625.087 599.868 625.227 600.204 625.227 600.596C625.227 600.951 625.087 601.259 624.807 601.52C624.527 601.781 624.219 601.912 623.883 601.912ZM638.287 599.168C638.1 599.168 637.913 599.131 637.727 599.056C637.559 598.981 637.419 598.879 637.307 598.748L633.331 593.876L628.739 598.748C628.496 599.009 628.169 599.14 627.759 599.14C627.404 599.14 627.096 599.009 626.835 598.748C626.573 598.468 626.443 598.151 626.443 597.796C626.443 597.404 626.573 597.077 626.835 596.816L631.595 591.916L627.843 587.436C627.731 587.305 627.637 587.156 627.563 586.988C627.507 586.82 627.479 586.671 627.479 586.54C627.479 586.167 627.609 585.849 627.871 585.588C628.132 585.308 628.44 585.168 628.795 585.168C629.205 585.168 629.541 585.317 629.803 585.616L633.499 590.152L637.811 585.644C638.091 585.364 638.417 585.224 638.791 585.224C639.145 585.224 639.453 585.364 639.715 585.644C639.995 585.905 640.135 586.213 640.135 586.568C640.135 586.736 640.097 586.904 640.023 587.072C639.948 587.24 639.855 587.38 639.743 587.492L635.263 592.084L639.351 596.984C639.537 597.227 639.631 597.507 639.631 597.824C639.631 598.197 639.5 598.515 639.239 598.776C638.977 599.037 638.66 599.168 638.287 599.168ZM642.269 601.52C641.915 601.52 641.616 601.399 641.373 601.156C641.149 600.932 641.037 600.661 641.037 600.344C641.037 600.195 641.065 600.045 641.121 599.896L641.625 598.58C641.476 598.319 641.401 598.029 641.401 597.712C641.401 597.245 641.569 596.835 641.905 596.48C642.241 596.125 642.624 595.948 643.053 595.948C643.464 595.948 643.809 596.088 644.089 596.368C644.369 596.648 644.509 596.984 644.509 597.376C644.509 597.899 644.192 598.916 643.557 600.428C643.408 600.783 643.24 601.053 643.053 601.24C642.867 601.427 642.605 601.52 642.269 601.52ZM659.513 604.18C659.177 604.18 658.888 604.04 658.645 603.76C658.402 603.499 658.281 603.181 658.281 602.808C658.281 602.64 658.328 602.444 658.421 602.22L660.857 596.984L655.845 587.212C655.733 586.988 655.677 586.764 655.677 586.54C655.677 586.167 655.808 585.849 656.069 585.588C656.349 585.308 656.685 585.168 657.077 585.168C657.376 585.168 657.637 585.252 657.861 585.42C658.085 585.588 658.253 585.784 658.365 586.008L662.313 593.82L665.841 586.008C665.953 585.765 666.121 585.56 666.345 585.392C666.588 585.224 666.849 585.14 667.129 585.14C667.465 585.14 667.754 585.271 667.997 585.532C668.24 585.793 668.361 586.12 668.361 586.512C668.361 586.736 668.324 586.923 668.249 587.072L660.773 603.312C660.661 603.573 660.493 603.779 660.269 603.928C660.045 604.096 659.793 604.18 659.513 604.18ZM671.105 601.912C670.769 601.912 670.461 601.781 670.181 601.52C669.901 601.259 669.761 600.951 669.761 600.596C669.761 600.204 669.901 599.868 670.181 599.588C671.227 598.505 672.132 597.059 672.897 595.248C673.681 593.437 674.073 591.552 674.073 589.592C674.073 587.744 673.681 585.933 672.897 584.16C672.113 582.387 671.124 581.024 669.929 580.072C669.593 579.811 669.425 579.465 669.425 579.036C669.425 578.663 669.556 578.345 669.817 578.084C670.097 577.804 670.415 577.664 670.769 577.664C671.087 577.664 671.423 577.832 671.777 578.168C673.308 579.605 674.521 581.323 675.417 583.32C676.313 585.299 676.761 587.389 676.761 589.592C676.761 593.773 675.259 597.693 672.253 601.352C671.917 601.725 671.535 601.912 671.105 601.912Z" fill="#F7931A"/>
<path d="M1238.28 402.576C1237 402.576 1235.88 402.128 1234.92 401.232C1233.96 400.336 1233.48 399.216 1233.48 397.872V343.056C1233.48 341.264 1233.71 339.984 1234.15 339.216C1234.6 338.384 1235.43 337.84 1236.65 337.584C1237.93 337.264 1239.98 337.104 1242.79 337.104C1254.7 337.104 1263.59 338.864 1269.48 342.384C1275.43 345.904 1278.41 350.992 1278.41 357.648C1278.41 363.024 1276.52 367.44 1272.75 370.896C1268.97 374.352 1264.39 376.88 1259.02 378.48C1253.64 380.08 1248.3 380.976 1242.99 381.168V397.872C1242.99 399.216 1242.54 400.336 1241.64 401.232C1240.75 402.128 1239.63 402.576 1238.28 402.576ZM1242.99 371.76C1249.26 371.376 1255.15 370.128 1260.65 368.016C1266.15 365.84 1268.91 362.384 1268.91 357.648C1268.91 354.128 1266.76 351.408 1262.47 349.488C1258.25 347.568 1252.2 346.608 1244.33 346.608H1242.99V371.76ZM1323.35 374.544C1322.07 374.544 1320.99 374.128 1320.09 373.296C1319.26 372.4 1318.84 371.312 1318.84 370.032C1318.84 368.816 1319.26 367.76 1320.09 366.864C1320.99 365.904 1322.07 365.424 1323.35 365.424H1348.31C1349.53 365.424 1350.59 365.904 1351.48 366.864C1352.44 367.76 1352.92 368.816 1352.92 370.032C1352.92 371.248 1352.44 372.304 1351.48 373.2C1350.59 374.096 1349.53 374.544 1348.31 374.544H1323.35ZM1323.35 391.824C1322.07 391.824 1320.99 391.408 1320.09 390.576C1319.26 389.68 1318.84 388.592 1318.84 387.312C1318.84 386.096 1319.26 385.04 1320.09 384.144C1320.99 383.184 1322.07 382.704 1323.35 382.704H1348.31C1349.53 382.704 1350.59 383.184 1351.48 384.144C1352.44 385.04 1352.92 386.096 1352.92 387.312C1352.92 388.528 1352.44 389.584 1351.48 390.48C1350.59 391.376 1349.53 391.824 1348.31 391.824H1323.35ZM1413.24 402.48C1409.97 402.48 1407.03 401.648 1404.41 399.984C1401.85 398.256 1399.8 395.76 1398.26 392.496C1396.79 389.232 1396.05 385.328 1396.05 380.784C1396.05 375.28 1396.92 370.576 1398.65 366.672C1400.37 362.768 1402.77 359.824 1405.85 357.84C1408.92 355.792 1412.47 354.768 1416.5 354.768C1419.7 354.768 1423.13 355.504 1426.77 356.976L1427.25 342.096C1427.32 340.816 1427.8 339.728 1428.69 338.832C1429.65 337.872 1430.77 337.392 1432.05 337.392C1433.27 337.392 1434.33 337.872 1435.22 338.832C1436.18 339.728 1436.63 340.88 1436.57 342.288L1435.22 398.16C1435.16 399.44 1434.68 400.496 1433.78 401.328C1432.89 402.16 1431.8 402.576 1430.52 402.576C1429.3 402.576 1428.25 402.224 1427.35 401.52C1426.52 400.816 1426.1 399.888 1426.1 398.736V397.008C1424.44 398.544 1422.49 399.856 1420.25 400.944C1418.01 401.968 1415.67 402.48 1413.24 402.48ZM1414.01 393.84C1416.18 393.84 1418.2 393.392 1420.05 392.496C1421.97 391.536 1423.48 390.384 1424.57 389.04C1425.65 387.696 1426.23 386.448 1426.29 385.296L1426.68 366.384C1425.53 365.616 1424.05 364.944 1422.26 364.368C1420.47 363.728 1418.74 363.408 1417.08 363.408C1413.17 363.408 1410.23 364.88 1408.25 367.824C1406.26 370.704 1405.27 374.928 1405.27 380.496C1405.27 385.104 1406.04 388.496 1407.57 390.672C1409.17 392.784 1411.32 393.84 1414.01 393.84ZM1453.41 363.408C1452.32 363.408 1451.43 363.056 1450.72 362.352C1450.02 361.648 1449.67 360.816 1449.67 359.856C1449.67 359.088 1449.83 358.384 1450.15 357.744C1450.47 357.04 1451.07 356.304 1451.97 355.536C1453.7 354.064 1455.27 353.008 1456.67 352.368C1454.18 352.368 1451.97 352.048 1450.05 351.408C1449.03 351.088 1448.23 350.576 1447.65 349.872C1447.14 349.168 1446.88 348.336 1446.88 347.376C1446.88 346.288 1447.23 345.36 1447.94 344.592C1448.64 343.824 1449.6 343.44 1450.82 343.44C1451.91 343.44 1453.25 343.952 1454.85 344.976C1456.19 345.872 1457.54 346.896 1458.88 348.048C1457.6 345.808 1456.96 343.664 1456.96 341.616C1456.96 340.08 1457.31 338.896 1458.02 338.064C1458.79 337.168 1459.78 336.72 1460.99 336.72C1462.21 336.72 1463.17 337.168 1463.87 338.064C1464.64 338.96 1465.03 340.176 1465.03 341.712C1465.03 343.248 1464.39 345.392 1463.11 348.144C1466.11 345.136 1468.67 343.632 1470.79 343.632C1471.87 343.632 1472.8 343.984 1473.57 344.688C1474.34 345.392 1474.72 346.288 1474.72 347.376C1474.72 348.4 1474.4 349.36 1473.76 350.256C1473.12 351.152 1472.23 351.696 1471.07 351.888C1470.18 352.016 1468.83 352.08 1467.04 352.08C1466.59 352.144 1465.89 352.176 1464.93 352.176C1467.36 353.84 1468.99 354.992 1469.83 355.632C1471.3 356.784 1472.03 358.096 1472.03 359.568C1472.03 360.528 1471.68 361.424 1470.98 362.256C1470.27 363.024 1469.38 363.408 1468.29 363.408C1466.31 363.408 1464.74 362.352 1463.59 360.24C1462.69 358.576 1461.79 356.688 1460.9 354.576C1460.51 355.536 1459.59 357.392 1458.11 360.144C1457.54 361.168 1456.83 361.968 1456 362.544C1455.17 363.12 1454.31 363.408 1453.41 363.408ZM1511.96 402.672C1506.2 402.672 1501.08 401.168 1496.6 398.16C1492.19 395.152 1488.76 391.216 1486.33 386.352C1483.96 381.424 1482.78 376.208 1482.78 370.704C1482.78 365.264 1484.06 359.952 1486.62 354.768C1489.18 349.52 1492.76 345.264 1497.37 342C1502.04 338.672 1507.39 337.008 1513.4 337.008C1519.03 337.008 1523.77 338.224 1527.61 340.656C1531.51 343.024 1534.43 345.744 1536.35 348.816C1538.27 351.888 1539.23 354.32 1539.23 356.112C1539.23 357.456 1538.81 358.544 1537.98 359.376C1537.15 360.144 1536.03 360.528 1534.62 360.528C1532.31 360.528 1530.78 359.504 1530.01 357.456C1528.86 354.384 1526.94 351.824 1524.25 349.776C1521.56 347.664 1517.95 346.608 1513.4 346.608C1508.67 346.608 1504.7 348.016 1501.5 350.832C1498.36 353.584 1496.06 356.848 1494.59 360.624C1493.11 364.4 1492.38 367.76 1492.38 370.704C1492.38 374.16 1493.11 377.616 1494.59 381.072C1496.06 384.528 1498.27 387.408 1501.21 389.712C1504.22 391.952 1507.8 393.072 1511.96 393.072C1516.06 393.072 1519.64 392.048 1522.71 390C1525.79 387.888 1528.06 384.944 1529.53 381.168H1528.09C1525.91 381.296 1523.51 381.68 1520.89 382.32C1519.8 382.64 1518.94 382.8 1518.3 382.8C1517.02 382.8 1515.9 382.384 1514.94 381.552C1514.04 380.656 1513.59 379.472 1513.59 378C1513.59 375.824 1514.75 374.256 1517.05 373.296C1518.14 372.848 1519.9 372.464 1522.33 372.144C1524.83 371.824 1527.35 371.664 1529.91 371.664C1533.56 371.664 1537.11 372.208 1540.57 373.296C1542.62 373.936 1543.64 375.44 1543.64 377.808C1543.64 378.896 1543.32 379.856 1542.68 380.688C1542.04 381.456 1541.24 382 1540.28 382.32C1539.77 382.448 1539.39 382.512 1539.13 382.512C1537.34 388.464 1534.04 393.328 1529.24 397.104C1524.51 400.816 1518.75 402.672 1511.96 402.672Z" fill="#F7931A"/>
<path d="M1169.94 580.228C1169.73 580.228 1169.54 580.152 1169.37 580C1169.21 579.823 1169.14 579.62 1169.14 579.392V555.642C1169.14 555.262 1169.19 554.983 1169.29 554.806C1169.39 554.629 1169.63 554.502 1170.01 554.426C1170.42 554.35 1171.06 554.312 1171.95 554.312C1176.66 554.312 1180.2 554.971 1182.55 556.288C1184.93 557.605 1186.12 559.505 1186.12 561.988C1186.12 564.141 1185.28 565.889 1183.58 567.232C1181.91 568.575 1179.89 569.537 1177.54 570.12C1175.18 570.677 1172.93 570.956 1170.77 570.956V579.392C1170.77 579.645 1170.7 579.848 1170.54 580C1170.39 580.152 1170.19 580.228 1169.94 580.228ZM1170.77 569.322C1172.42 569.322 1174.29 569.119 1176.4 568.714C1178.5 568.309 1180.37 567.561 1182.02 566.472C1183.67 565.383 1184.49 563.888 1184.49 561.988C1184.49 560.063 1183.45 558.581 1181.37 557.542C1179.32 556.478 1176.4 555.946 1172.6 555.946C1171.76 555.946 1171.15 555.971 1170.77 556.022V569.322ZM1195.45 580.342C1194.03 580.342 1192.9 580.038 1192.06 579.43C1191.25 578.797 1190.66 577.72 1190.28 576.2C1189.9 574.68 1189.71 572.552 1189.71 569.816C1189.71 567.156 1189.86 564.661 1190.16 562.33C1190.24 561.925 1190.34 561.646 1190.47 561.494C1190.6 561.317 1190.77 561.228 1191 561.228C1191.23 561.228 1191.42 561.304 1191.57 561.456C1191.72 561.583 1191.8 561.76 1191.8 561.988L1191.72 562.862C1191.42 565.598 1191.27 568.207 1191.27 570.69C1191.27 572.843 1191.43 574.528 1191.76 575.744C1192.09 576.935 1192.56 577.771 1193.17 578.252C1193.8 578.733 1194.61 578.974 1195.6 578.974C1197.83 578.974 1199.91 577.923 1201.83 575.82C1202.19 575.389 1202.36 574.743 1202.36 573.882L1202.48 561.988C1202.48 561.785 1202.55 561.608 1202.7 561.456C1202.88 561.304 1203.07 561.228 1203.27 561.228C1203.48 561.228 1203.65 561.304 1203.81 561.456C1203.98 561.608 1204.07 561.785 1204.07 561.988V579.392C1204.07 579.62 1203.98 579.823 1203.81 580C1203.63 580.152 1203.41 580.228 1203.16 580.228C1202.88 580.228 1202.65 580.127 1202.48 579.924C1202.3 579.721 1202.21 579.481 1202.21 579.202V577.074C1201.6 577.986 1200.68 578.759 1199.44 579.392C1198.22 580.025 1196.89 580.342 1195.45 580.342ZM1211.56 580.228C1211.36 580.228 1211.17 580.152 1210.99 580C1210.82 579.848 1210.73 579.671 1210.73 579.468V554.502C1210.73 554.299 1210.8 554.135 1210.95 554.008C1211.13 553.881 1211.33 553.818 1211.56 553.818C1211.79 553.818 1211.98 553.881 1212.13 554.008C1212.28 554.135 1212.36 554.299 1212.36 554.502V565.218C1213.32 564.103 1214.45 563.217 1215.74 562.558C1217.03 561.899 1218.34 561.57 1219.66 561.57C1221.81 561.57 1223.43 562.381 1224.52 564.002C1225.64 565.598 1226.19 567.561 1226.19 569.892C1226.19 572.881 1225.51 575.313 1224.14 577.188C1222.8 579.037 1220.75 579.962 1217.98 579.962C1217.07 579.962 1216.11 579.835 1215.1 579.582C1214.08 579.329 1213.17 579.037 1212.36 578.708V579.468C1212.36 579.671 1212.28 579.848 1212.13 580C1211.98 580.152 1211.79 580.228 1211.56 580.228ZM1217.68 578.404C1222.34 578.404 1224.67 575.567 1224.67 569.892C1224.67 568.068 1224.27 566.51 1223.46 565.218C1222.65 563.901 1221.42 563.242 1219.77 563.242C1218.38 563.242 1217.11 563.495 1215.97 564.002C1214.86 564.509 1213.97 565.205 1213.31 566.092C1212.68 566.979 1212.36 567.954 1212.36 569.018V577.264C1212.92 577.517 1213.69 577.771 1214.68 578.024C1215.69 578.277 1216.69 578.404 1217.68 578.404ZM1232.46 580.228C1232.25 580.228 1232.06 580.152 1231.89 580C1231.71 579.873 1231.62 579.709 1231.62 579.506V554.578C1231.62 554.375 1231.7 554.198 1231.85 554.046C1232.02 553.894 1232.23 553.818 1232.46 553.818C1232.66 553.818 1232.84 553.894 1232.99 554.046C1233.16 554.198 1233.25 554.375 1233.25 554.578V579.506C1233.25 579.709 1233.16 579.873 1232.99 580C1232.84 580.152 1232.66 580.228 1232.46 580.228ZM1241.18 557.352C1240.98 557.352 1240.8 557.276 1240.65 557.124C1240.5 556.947 1240.42 556.757 1240.42 556.554L1240.46 554.92C1240.46 554.717 1240.54 554.54 1240.69 554.388C1240.86 554.236 1241.05 554.16 1241.26 554.16C1241.49 554.16 1241.68 554.249 1241.83 554.426C1241.98 554.578 1242.06 554.755 1242.06 554.958L1242.02 556.592C1242.02 556.82 1241.93 557.01 1241.75 557.162C1241.6 557.289 1241.41 557.352 1241.18 557.352ZM1240.95 580.228C1240.75 580.228 1240.56 580.139 1240.38 579.962C1240.21 579.785 1240.12 579.582 1240.12 579.354L1240.38 562.14C1240.38 561.912 1240.46 561.709 1240.61 561.532C1240.79 561.355 1240.98 561.266 1241.18 561.266C1241.41 561.266 1241.6 561.355 1241.75 561.532C1241.93 561.684 1242.02 561.887 1242.02 562.14L1241.79 579.354C1241.79 579.582 1241.7 579.785 1241.52 579.962C1241.37 580.139 1241.18 580.228 1240.95 580.228ZM1255.68 580.228C1254.28 580.228 1252.95 579.886 1251.69 579.202C1250.44 578.493 1249.44 577.517 1248.68 576.276C1247.92 575.035 1247.54 573.629 1247.54 572.058C1247.54 570.335 1247.94 568.638 1248.72 566.966C1249.53 565.294 1250.58 563.926 1251.88 562.862C1253.19 561.798 1254.55 561.266 1255.94 561.266C1257.26 561.266 1258.34 561.481 1259.17 561.912C1260.01 562.343 1260.82 563.014 1261.6 563.926C1261.73 564.053 1261.79 564.23 1261.79 564.458C1261.79 564.686 1261.72 564.876 1261.57 565.028C1261.41 565.18 1261.24 565.256 1261.03 565.256C1260.86 565.256 1260.67 565.18 1260.46 565.028C1259.86 564.293 1259.21 563.736 1258.53 563.356C1257.84 562.951 1257.01 562.748 1256.02 562.748C1254.88 562.748 1253.78 563.191 1252.71 564.078C1251.65 564.965 1250.77 566.13 1250.09 567.574C1249.43 568.993 1249.1 570.462 1249.1 571.982C1249.1 573.375 1249.42 574.591 1250.05 575.63C1250.71 576.643 1251.55 577.416 1252.56 577.948C1253.57 578.48 1254.6 578.746 1255.64 578.746C1258.07 578.746 1259.99 577.783 1261.41 575.858C1261.67 575.503 1261.93 575.326 1262.21 575.326C1262.41 575.326 1262.59 575.402 1262.74 575.554C1262.92 575.706 1263.01 575.883 1263.01 576.086C1263.01 576.213 1262.91 576.428 1262.71 576.732C1262.02 577.695 1261.03 578.518 1259.74 579.202C1258.47 579.886 1257.12 580.228 1255.68 580.228ZM1296.73 580.266C1296.55 580.266 1296.36 580.19 1296.16 580.038L1282.06 569.018V579.392C1282.06 579.62 1281.99 579.823 1281.83 580C1281.68 580.152 1281.48 580.228 1281.23 580.228C1281.02 580.228 1280.85 580.152 1280.69 580C1280.54 579.823 1280.47 579.62 1280.47 579.392V555.11C1280.47 554.907 1280.54 554.73 1280.69 554.578C1280.85 554.426 1281.02 554.35 1281.23 554.35C1281.48 554.35 1281.68 554.426 1281.83 554.578C1281.99 554.73 1282.06 554.907 1282.06 555.11V566.016L1295.48 554.54C1295.68 554.388 1295.87 554.312 1296.05 554.312C1296.22 554.312 1296.39 554.401 1296.54 554.578C1296.72 554.73 1296.81 554.907 1296.81 555.11C1296.81 555.389 1296.7 555.591 1296.5 555.718L1282.67 567.536L1297.19 578.746C1297.44 578.949 1297.57 579.189 1297.57 579.468C1297.57 579.671 1297.49 579.848 1297.34 580C1297.19 580.177 1296.98 580.266 1296.73 580.266ZM1308.85 580.228C1306.95 580.228 1305.28 579.823 1303.83 579.012C1302.39 578.201 1301.27 577.112 1300.49 575.744C1299.7 574.351 1299.31 572.831 1299.31 571.184C1299.31 569.385 1299.66 567.739 1300.37 566.244C1301.08 564.724 1302.08 563.521 1303.38 562.634C1304.67 561.722 1306.16 561.266 1307.86 561.266C1309.35 561.266 1310.63 561.545 1311.7 562.102C1312.79 562.659 1313.6 563.331 1314.13 564.116C1314.69 564.901 1314.97 565.598 1314.97 566.206C1314.97 566.485 1314.72 566.776 1314.24 567.08L1301.59 574.338C1302.25 575.807 1303.19 576.909 1304.4 577.644C1305.64 578.379 1307.11 578.746 1308.81 578.746C1309.7 578.746 1310.65 578.531 1311.66 578.1C1312.7 577.644 1313.48 577.099 1314.02 576.466C1314.14 576.314 1314.31 576.238 1314.51 576.238C1314.71 576.238 1314.89 576.314 1315.04 576.466C1315.19 576.593 1315.27 576.77 1315.27 576.998C1315.27 577.175 1315.19 577.34 1315.04 577.492C1314.36 578.277 1313.43 578.936 1312.27 579.468C1311.13 579.975 1309.99 580.228 1308.85 580.228ZM1313.37 566.092C1312.94 565.003 1312.28 564.179 1311.39 563.622C1310.51 563.065 1309.33 562.786 1307.86 562.786C1306.54 562.786 1305.35 563.166 1304.29 563.926C1303.22 564.661 1302.39 565.674 1301.78 566.966C1301.2 568.233 1300.91 569.651 1300.91 571.222C1300.91 571.754 1300.97 572.299 1301.1 572.856L1313.37 566.092ZM1321.34 587.904C1321.13 587.904 1320.94 587.828 1320.77 587.676C1320.62 587.524 1320.54 587.334 1320.54 587.106C1320.54 586.979 1320.59 586.815 1320.69 586.612L1324.61 578.1L1316.82 562.558C1316.71 562.355 1316.66 562.203 1316.66 562.102C1316.66 561.849 1316.74 561.646 1316.89 561.494C1317.07 561.317 1317.26 561.228 1317.46 561.228C1317.84 561.228 1318.12 561.418 1318.3 561.798L1325.52 576.086L1332.13 561.722C1332.18 561.57 1332.27 561.443 1332.4 561.342C1332.55 561.241 1332.71 561.19 1332.89 561.19C1333.14 561.19 1333.33 561.266 1333.46 561.418C1333.59 561.57 1333.65 561.773 1333.65 562.026C1333.65 562.178 1333.62 562.33 1333.57 562.482L1322.14 587.41C1321.93 587.739 1321.67 587.904 1321.34 587.904Z" fill="white"/>
<path d="M1461.76 580.228C1461.56 580.228 1461.37 580.152 1461.19 580C1461.04 579.823 1460.96 579.62 1460.96 579.392V555.642C1460.96 555.262 1461.01 554.983 1461.11 554.806C1461.21 554.629 1461.45 554.502 1461.83 554.426C1462.24 554.35 1462.89 554.312 1463.77 554.312C1468.48 554.312 1472.02 554.971 1474.37 556.288C1476.76 557.605 1477.95 559.505 1477.95 561.988C1477.95 564.141 1477.1 565.889 1475.4 567.232C1473.73 568.575 1471.71 569.537 1469.36 570.12C1467 570.677 1464.75 570.956 1462.59 570.956V579.392C1462.59 579.645 1462.52 579.848 1462.37 580C1462.21 580.152 1462.01 580.228 1461.76 580.228ZM1462.59 569.322C1464.24 569.322 1466.12 569.119 1468.22 568.714C1470.32 568.309 1472.2 567.561 1473.84 566.472C1475.49 565.383 1476.31 563.888 1476.31 561.988C1476.31 560.063 1475.27 558.581 1473.2 557.542C1471.14 556.478 1468.22 555.946 1464.42 555.946C1463.58 555.946 1462.97 555.971 1462.59 556.022V569.322ZM1482.94 580.228C1482.73 580.228 1482.54 580.152 1482.37 580C1482.21 579.848 1482.14 579.671 1482.14 579.468V562.064C1482.14 561.836 1482.21 561.646 1482.37 561.494C1482.54 561.342 1482.73 561.266 1482.94 561.266C1483.19 561.266 1483.39 561.342 1483.54 561.494C1483.72 561.646 1483.81 561.836 1483.81 562.064V566.814C1484.14 565.953 1484.66 565.091 1485.37 564.23C1486.08 563.343 1486.91 562.609 1487.88 562.026C1488.84 561.443 1489.84 561.152 1490.88 561.152C1492.8 561.152 1493.77 562.191 1493.77 564.268V565.256C1493.77 565.484 1493.69 565.687 1493.54 565.864C1493.39 566.016 1493.2 566.092 1492.97 566.092C1492.44 566.092 1492.17 565.801 1492.17 565.218V564.42C1492.17 563.888 1492.07 563.483 1491.87 563.204C1491.66 562.9 1491.21 562.748 1490.5 562.748C1488.78 562.748 1487.02 563.951 1485.22 566.358C1484.81 566.89 1484.47 567.574 1484.19 568.41C1483.94 569.221 1483.81 569.955 1483.81 570.614L1483.77 579.468C1483.77 579.671 1483.68 579.848 1483.51 580C1483.35 580.152 1483.16 580.228 1482.94 580.228ZM1498.71 557.352C1498.51 557.352 1498.33 557.276 1498.18 557.124C1498.03 556.947 1497.95 556.757 1497.95 556.554L1497.99 554.92C1497.99 554.717 1498.07 554.54 1498.22 554.388C1498.4 554.236 1498.59 554.16 1498.79 554.16C1499.02 554.16 1499.21 554.249 1499.36 554.426C1499.51 554.578 1499.59 554.755 1499.59 554.958L1499.55 556.592C1499.55 556.82 1499.46 557.01 1499.28 557.162C1499.13 557.289 1498.94 557.352 1498.71 557.352ZM1498.49 580.228C1498.28 580.228 1498.09 580.139 1497.92 579.962C1497.74 579.785 1497.65 579.582 1497.65 579.354L1497.92 562.14C1497.92 561.912 1497.99 561.709 1498.14 561.532C1498.32 561.355 1498.51 561.266 1498.71 561.266C1498.94 561.266 1499.13 561.355 1499.28 561.532C1499.46 561.684 1499.55 561.887 1499.55 562.14L1499.32 579.354C1499.32 579.582 1499.23 579.785 1499.06 579.962C1498.9 580.139 1498.71 580.228 1498.49 580.228ZM1510.47 580.266C1510.12 580.266 1509.86 580.063 1509.71 579.658L1502.68 562.406C1502.63 562.254 1502.61 562.127 1502.61 562.026C1502.61 561.798 1502.71 561.621 1502.91 561.494C1503.09 561.342 1503.29 561.266 1503.52 561.266C1503.85 561.266 1504.1 561.456 1504.28 561.836L1510.51 577.568L1516.7 561.722C1516.83 561.393 1517.1 561.228 1517.5 561.228C1517.73 561.228 1517.92 561.304 1518.07 561.456C1518.25 561.608 1518.34 561.785 1518.34 561.988C1518.34 562.064 1518.31 562.203 1518.26 562.406L1511.23 579.734C1511.11 580.089 1510.85 580.266 1510.47 580.266ZM1533.79 580.456C1533.54 580.456 1533.33 580.355 1533.18 580.152C1533.03 579.975 1532.95 579.747 1532.95 579.468V577.948C1532.12 578.581 1531.15 579.126 1530.06 579.582C1529 580.013 1527.97 580.228 1526.99 580.228C1525.64 580.228 1524.43 579.886 1523.34 579.202C1522.27 578.518 1521.44 577.568 1520.83 576.352C1520.22 575.111 1519.92 573.692 1519.92 572.096C1519.92 570.297 1520.29 568.562 1521.02 566.89C1521.78 565.218 1522.84 563.863 1524.21 562.824C1525.61 561.785 1527.2 561.266 1529 561.266C1530.06 561.266 1531.1 561.431 1532.12 561.76C1533.13 562.089 1533.97 562.431 1534.62 562.786V579.544C1534.62 579.797 1534.55 580.013 1534.4 580.19C1534.24 580.367 1534.04 580.456 1533.79 580.456ZM1526.91 578.632C1527.97 578.632 1529.03 578.379 1530.06 577.872C1531.13 577.365 1532.07 576.821 1532.88 576.238L1533.03 563.774C1532.57 563.546 1531.96 563.343 1531.2 563.166C1530.44 562.963 1529.75 562.862 1529.11 562.862C1527.57 562.862 1526.23 563.305 1525.09 564.192C1523.95 565.053 1523.07 566.181 1522.46 567.574C1521.88 568.967 1521.59 570.449 1521.59 572.02C1521.59 573.413 1521.83 574.604 1522.31 575.592C1522.79 576.58 1523.44 577.34 1524.25 577.872C1525.06 578.379 1525.95 578.632 1526.91 578.632ZM1542.92 580.266C1542.72 580.266 1542.53 580.19 1542.35 580.038C1542.2 579.886 1542.13 579.696 1542.13 579.468V562.862H1537.34C1537.11 562.862 1536.92 562.786 1536.77 562.634C1536.59 562.457 1536.5 562.267 1536.5 562.064C1536.5 561.811 1536.59 561.608 1536.77 561.456C1536.94 561.304 1537.16 561.228 1537.41 561.228H1542.13V555.338C1542.13 555.11 1542.2 554.92 1542.35 554.768C1542.51 554.591 1542.7 554.502 1542.92 554.502C1543.18 554.502 1543.38 554.591 1543.53 554.768C1543.68 554.92 1543.76 555.11 1543.76 555.338V561.228H1548.62C1548.88 561.228 1549.08 561.304 1549.23 561.456C1549.38 561.608 1549.46 561.811 1549.46 562.064C1549.46 562.267 1549.38 562.457 1549.23 562.634C1549.08 562.786 1548.88 562.862 1548.62 562.862H1543.76V579.468C1543.76 579.696 1543.67 579.886 1543.49 580.038C1543.34 580.19 1543.15 580.266 1542.92 580.266ZM1559.48 580.228C1557.58 580.228 1555.91 579.823 1554.46 579.012C1553.02 578.201 1551.9 577.112 1551.12 575.744C1550.33 574.351 1549.94 572.831 1549.94 571.184C1549.94 569.385 1550.29 567.739 1551 566.244C1551.71 564.724 1552.71 563.521 1554.01 562.634C1555.3 561.722 1556.79 561.266 1558.49 561.266C1559.98 561.266 1561.26 561.545 1562.33 562.102C1563.42 562.659 1564.23 563.331 1564.76 564.116C1565.32 564.901 1565.6 565.598 1565.6 566.206C1565.6 566.485 1565.36 566.776 1564.87 567.08L1552.22 574.338C1552.88 575.807 1553.82 576.909 1555.03 577.644C1556.27 578.379 1557.74 578.746 1559.44 578.746C1560.33 578.746 1561.28 578.531 1562.29 578.1C1563.33 577.644 1564.11 577.099 1564.65 576.466C1564.77 576.314 1564.94 576.238 1565.14 576.238C1565.34 576.238 1565.52 576.314 1565.67 576.466C1565.82 576.593 1565.9 576.77 1565.9 576.998C1565.9 577.175 1565.82 577.34 1565.67 577.492C1564.99 578.277 1564.06 578.936 1562.9 579.468C1561.76 579.975 1560.62 580.228 1559.48 580.228ZM1564 566.092C1563.57 565.003 1562.91 564.179 1562.02 563.622C1561.14 563.065 1559.96 562.786 1558.49 562.786C1557.17 562.786 1555.98 563.166 1554.92 563.926C1553.85 564.661 1553.02 565.674 1552.41 566.966C1551.83 568.233 1551.54 569.651 1551.54 571.222C1551.54 571.754 1551.6 572.299 1551.73 572.856L1564 566.092ZM1599.91 580.266C1599.73 580.266 1599.54 580.19 1599.34 580.038L1585.24 569.018V579.392C1585.24 579.62 1585.16 579.823 1585.01 580C1584.86 580.152 1584.66 580.228 1584.4 580.228C1584.2 580.228 1584.02 580.152 1583.87 580C1583.72 579.823 1583.64 579.62 1583.64 579.392V555.11C1583.64 554.907 1583.72 554.73 1583.87 554.578C1584.02 554.426 1584.2 554.35 1584.4 554.35C1584.66 554.35 1584.86 554.426 1585.01 554.578C1585.16 554.73 1585.24 554.907 1585.24 555.11V566.016L1598.65 554.54C1598.86 554.388 1599.05 554.312 1599.22 554.312C1599.4 554.312 1599.57 554.401 1599.72 554.578C1599.89 554.73 1599.98 554.907 1599.98 555.11C1599.98 555.389 1599.88 555.591 1599.68 555.718L1585.85 567.536L1600.36 578.746C1600.62 578.949 1600.74 579.189 1600.74 579.468C1600.74 579.671 1600.67 579.848 1600.52 580C1600.36 580.177 1600.16 580.266 1599.91 580.266ZM1612.02 580.228C1610.12 580.228 1608.45 579.823 1607.01 579.012C1605.56 578.201 1604.45 577.112 1603.66 575.744C1602.88 574.351 1602.49 572.831 1602.49 571.184C1602.49 569.385 1602.84 567.739 1603.55 566.244C1604.26 564.724 1605.26 563.521 1606.55 562.634C1607.84 561.722 1609.34 561.266 1611.04 561.266C1612.53 561.266 1613.81 561.545 1614.87 562.102C1615.96 562.659 1616.77 563.331 1617.31 564.116C1617.86 564.901 1618.14 565.598 1618.14 566.206C1618.14 566.485 1617.9 566.776 1617.42 567.08L1604.77 574.338C1605.43 575.807 1606.36 576.909 1607.58 577.644C1608.82 578.379 1610.29 578.746 1611.99 578.746C1612.87 578.746 1613.82 578.531 1614.84 578.1C1615.88 577.644 1616.66 577.099 1617.19 576.466C1617.32 576.314 1617.48 576.238 1617.69 576.238C1617.89 576.238 1618.07 576.314 1618.22 576.466C1618.37 576.593 1618.45 576.77 1618.45 576.998C1618.45 577.175 1618.37 577.34 1618.22 577.492C1617.53 578.277 1616.61 578.936 1615.44 579.468C1614.3 579.975 1613.16 580.228 1612.02 580.228ZM1616.55 566.092C1616.12 565.003 1615.46 564.179 1614.57 563.622C1613.68 563.065 1612.51 562.786 1611.04 562.786C1609.72 562.786 1608.53 563.166 1607.46 563.926C1606.4 564.661 1605.56 565.674 1604.96 566.966C1604.37 568.233 1604.08 569.651 1604.08 571.222C1604.08 571.754 1604.15 572.299 1604.27 572.856L1616.55 566.092ZM1624.52 587.904C1624.31 587.904 1624.12 587.828 1623.95 587.676C1623.79 587.524 1623.72 587.334 1623.72 587.106C1623.72 586.979 1623.77 586.815 1623.87 586.612L1627.78 578.1L1619.99 562.558C1619.89 562.355 1619.84 562.203 1619.84 562.102C1619.84 561.849 1619.92 561.646 1620.07 561.494C1620.25 561.317 1620.44 561.228 1620.64 561.228C1621.02 561.228 1621.3 561.418 1621.48 561.798L1628.7 576.086L1635.31 561.722C1635.36 561.57 1635.45 561.443 1635.57 561.342C1635.73 561.241 1635.89 561.19 1636.07 561.19C1636.32 561.19 1636.51 561.266 1636.64 561.418C1636.76 561.57 1636.83 561.773 1636.83 562.026C1636.83 562.178 1636.8 562.33 1636.75 562.482L1625.31 587.41C1625.11 587.739 1624.84 587.904 1624.52 587.904Z" fill="white"/>
<path d="M1250 440L1244.23 450H1255.77L1250 440ZM1251 519V449H1249V519H1251Z" fill="white"/>
<path d="M1517.7 519L1523.78 509.182L1512.24 508.827L1517.7 519ZM1421 440C1421 446.118 1422.43 456.278 1428.23 464.941C1434.07 473.667 1444.27 480.769 1461.55 480.769V478.769C1444.92 478.769 1435.35 471.986 1429.89 463.828C1424.39 455.606 1423 445.882 1423 440L1421 440ZM1461.55 480.769C1471.35 480.769 1479.69 480.986 1486.71 481.725C1493.74 482.464 1499.38 483.719 1503.79 485.761C1508.19 487.791 1511.37 490.597 1513.51 494.475C1515.66 498.374 1516.8 503.432 1516.98 510.028L1518.98 509.976C1518.8 503.195 1517.62 497.786 1515.26 493.508C1512.88 489.209 1509.36 486.129 1504.63 483.945C1499.93 481.772 1494.05 480.485 1486.92 479.736C1479.8 478.986 1471.37 478.769 1461.55 478.769V480.769Z" fill="white"/>
<path d="M387.011 898.304C385.592 898.304 384.363 898.025 383.325 897.468C382.286 896.885 381.501 896.214 380.969 895.454C380.437 894.669 380.171 894.01 380.171 893.478C380.171 893.275 380.247 893.098 380.399 892.946C380.551 892.794 380.728 892.718 380.931 892.718C381.285 892.718 381.526 892.895 381.653 893.25C382.007 894.365 382.653 895.239 383.591 895.872C384.553 896.505 385.706 896.822 387.049 896.822C388.467 896.822 389.62 896.442 390.507 895.682C391.419 894.897 391.875 893.959 391.875 892.87C391.875 891.983 391.545 891.261 390.887 890.704C390.228 890.121 388.961 889.551 387.087 888.994C385.085 888.386 383.616 887.677 382.679 886.866C381.741 886.03 381.273 885.017 381.273 883.826C381.273 882.433 381.817 881.331 382.907 880.52C384.021 879.684 385.554 879.266 387.505 879.266C389.43 879.266 390.899 879.633 391.913 880.368C392.951 881.103 393.471 882.103 393.471 883.37C393.471 884.383 393.192 884.89 392.635 884.89C392.407 884.89 392.217 884.814 392.065 884.662C391.913 884.51 391.837 884.333 391.837 884.13C391.837 884.029 391.849 883.927 391.875 883.826C391.9 883.699 391.913 883.535 391.913 883.332C391.913 881.584 390.469 880.71 387.581 880.71C385.959 880.71 384.756 880.989 383.971 881.546C383.185 882.078 382.793 882.838 382.793 883.826C382.793 884.637 383.135 885.321 383.819 885.878C384.528 886.41 385.833 886.98 387.733 887.588C389.911 888.297 391.406 889.045 392.217 889.83C393.027 890.59 393.433 891.591 393.433 892.832C393.433 893.744 393.167 894.631 392.635 895.492C392.103 896.328 391.343 897.012 390.355 897.544C389.392 898.051 388.277 898.304 387.011 898.304ZM406.503 898.228C404.603 898.228 402.931 897.823 401.487 897.012C400.043 896.201 398.929 895.112 398.143 893.744C397.358 892.351 396.965 890.831 396.965 889.184C396.965 887.385 397.32 885.739 398.029 884.244C398.739 882.724 399.739 881.521 401.031 880.634C402.323 879.722 403.818 879.266 405.515 879.266C407.01 879.266 408.289 879.545 409.353 880.102C410.443 880.659 411.253 881.331 411.785 882.116C412.343 882.901 412.621 883.598 412.621 884.206C412.621 884.485 412.381 884.776 411.899 885.08L399.245 892.338C399.904 893.807 400.841 894.909 402.057 895.644C403.299 896.379 404.768 896.746 406.465 896.746C407.352 896.746 408.302 896.531 409.315 896.1C410.354 895.644 411.139 895.099 411.671 894.466C411.798 894.314 411.963 894.238 412.165 894.238C412.368 894.238 412.545 894.314 412.697 894.466C412.849 894.593 412.925 894.77 412.925 894.998C412.925 895.175 412.849 895.34 412.697 895.492C412.013 896.277 411.089 896.936 409.923 897.468C408.783 897.975 407.643 898.228 406.503 898.228ZM411.025 884.092C410.595 883.003 409.936 882.179 409.049 881.622C408.163 881.065 406.985 880.786 405.515 880.786C404.198 880.786 403.007 881.166 401.943 881.926C400.879 882.661 400.043 883.674 399.435 884.966C398.853 886.233 398.561 887.651 398.561 889.222C398.561 889.754 398.625 890.299 398.751 890.856L411.025 884.092ZM424.656 898.228C423.262 898.228 421.932 897.886 420.666 897.202C419.424 896.493 418.424 895.517 417.664 894.276C416.904 893.035 416.524 891.629 416.524 890.058C416.524 888.335 416.916 886.638 417.702 884.966C418.512 883.294 419.564 881.926 420.856 880.862C422.173 879.798 423.528 879.266 424.922 879.266C426.239 879.266 427.316 879.481 428.152 879.912C428.988 880.343 429.798 881.014 430.584 881.926C430.71 882.053 430.774 882.23 430.774 882.458C430.774 882.686 430.698 882.876 430.546 883.028C430.394 883.18 430.216 883.256 430.014 883.256C429.836 883.256 429.646 883.18 429.444 883.028C428.836 882.293 428.19 881.736 427.506 881.356C426.822 880.951 425.986 880.748 424.998 880.748C423.858 880.748 422.756 881.191 421.692 882.078C420.628 882.965 419.754 884.13 419.07 885.574C418.411 886.993 418.082 888.462 418.082 889.982C418.082 891.375 418.398 892.591 419.032 893.63C419.69 894.643 420.526 895.416 421.54 895.948C422.553 896.48 423.579 896.746 424.618 896.746C427.05 896.746 428.975 895.783 430.394 893.858C430.647 893.503 430.913 893.326 431.192 893.326C431.394 893.326 431.572 893.402 431.724 893.554C431.901 893.706 431.99 893.883 431.99 894.086C431.99 894.213 431.888 894.428 431.686 894.732C431.002 895.695 430.014 896.518 428.722 897.202C427.455 897.886 426.1 898.228 424.656 898.228ZM437.505 905.828C437.302 905.828 437.112 905.752 436.935 905.6C436.783 905.448 436.707 905.258 436.707 905.03V880.102C436.707 879.849 436.783 879.646 436.935 879.494C437.112 879.317 437.302 879.228 437.505 879.228C437.758 879.228 437.961 879.317 438.113 879.494C438.265 879.646 438.341 879.849 438.341 880.102V882.534C439.152 881.571 440.19 880.786 441.457 880.178C442.724 879.57 444.092 879.266 445.561 879.266C446.878 879.266 448.031 879.646 449.019 880.406C450.007 881.141 450.767 882.154 451.299 883.446C451.831 884.738 452.097 886.195 452.097 887.816C452.097 889.488 451.844 891.097 451.337 892.642C450.83 894.162 449.944 895.441 448.677 896.48C447.436 897.519 445.776 898.038 443.699 898.038C442.002 898.038 440.216 897.595 438.341 896.708V905.03C438.341 905.258 438.265 905.448 438.113 905.6C437.961 905.752 437.758 905.828 437.505 905.828ZM443.927 896.442C448.31 896.442 450.501 893.567 450.501 887.816C450.501 885.815 450.045 884.13 449.133 882.762C448.221 881.394 446.967 880.71 445.371 880.71C443.8 880.71 442.432 881.065 441.267 881.774C440.102 882.458 439.126 883.307 438.341 884.32V894.96C440.266 895.948 442.128 896.442 443.927 896.442ZM456.388 897.202C456.388 895.099 456.717 893.326 457.376 891.882C458.035 890.413 458.871 889.209 459.884 888.272C460.923 887.335 462.24 886.347 463.836 885.308C465.229 884.396 466.268 883.674 466.952 883.142C467.636 882.61 468.219 881.951 468.7 881.166C469.181 880.381 469.422 879.456 469.422 878.392C469.422 877.049 468.89 875.935 467.826 875.048C466.787 874.161 465.508 873.718 463.988 873.718C462.519 873.718 461.265 874.06 460.226 874.744C459.187 875.428 458.415 876.061 457.908 876.644C457.857 876.695 457.781 876.783 457.68 876.91C457.579 877.037 457.465 877.138 457.338 877.214C457.237 877.29 457.123 877.328 456.996 877.328C456.768 877.328 456.565 877.239 456.388 877.062C456.236 876.885 456.16 876.682 456.16 876.454C456.16 876.15 456.489 875.694 457.148 875.086C457.984 874.25 458.972 873.541 460.112 872.958C461.252 872.375 462.544 872.084 463.988 872.084C465.331 872.084 466.534 872.375 467.598 872.958C468.687 873.515 469.536 874.275 470.144 875.238C470.752 876.201 471.056 877.252 471.056 878.392C471.056 879.76 470.765 880.938 470.182 881.926C469.625 882.914 468.928 883.737 468.092 884.396C467.281 885.029 466.141 885.815 464.672 886.752C463.329 887.639 462.215 888.475 461.328 889.26C460.467 890.02 459.719 890.995 459.086 892.186C458.478 893.351 458.136 894.757 458.06 896.404H470.6C470.828 896.404 471.018 896.48 471.17 896.632C471.347 896.784 471.436 896.974 471.436 897.202C471.436 897.43 471.347 897.62 471.17 897.772C471.018 897.924 470.828 898 470.6 898H456.388V897.202ZM482.61 898.228C481.293 898.228 480.102 897.987 479.038 897.506C477.974 897.025 477.1 896.467 476.416 895.834C475.757 895.175 475.327 894.605 475.124 894.124C475.073 893.972 475.048 893.82 475.048 893.668C475.048 893.465 475.124 893.288 475.276 893.136C475.453 892.959 475.656 892.87 475.884 892.87C476.087 892.87 476.239 892.908 476.34 892.984C476.441 893.06 476.543 893.187 476.644 893.364C477.455 894.428 478.329 895.239 479.266 895.796C480.203 896.328 481.318 896.594 482.61 896.594C483.826 896.594 484.966 896.227 486.03 895.492C487.119 894.732 487.981 893.731 488.614 892.49C489.273 891.249 489.602 889.919 489.602 888.5C489.602 887.284 489.374 886.144 488.918 885.08C488.462 883.991 487.765 883.117 486.828 882.458C485.891 881.774 484.738 881.432 483.37 881.432C481.242 881.432 479.317 882.293 477.594 884.016C477.366 884.244 477.151 884.358 476.948 884.358C476.669 884.358 476.441 884.257 476.264 884.054C476.087 883.851 476.023 883.623 476.074 883.37L477.138 873.072C477.163 872.869 477.252 872.705 477.404 872.578C477.556 872.426 477.733 872.35 477.936 872.35H489.336C489.564 872.35 489.754 872.439 489.906 872.616C490.058 872.768 490.134 872.945 490.134 873.148C490.134 873.401 490.058 873.604 489.906 873.756C489.754 873.908 489.564 873.984 489.336 873.984H478.696L477.936 881.508C479.912 880.368 481.723 879.798 483.37 879.798C484.865 879.798 486.207 880.165 487.398 880.9C488.589 881.609 489.526 882.623 490.21 883.94C490.894 885.257 491.236 886.777 491.236 888.5C491.236 890.223 490.831 891.831 490.02 893.326C489.235 894.821 488.171 896.011 486.828 896.898C485.511 897.785 484.105 898.228 482.61 898.228ZM503.929 898.228C502.51 898.228 501.18 897.924 499.939 897.316C498.723 896.683 497.722 895.669 496.937 894.276C496.151 892.857 495.759 891.008 495.759 888.728C495.759 884.523 496.759 881.077 498.761 878.392C500.787 875.681 503.219 873.617 506.057 872.198C506.259 872.097 506.462 872.046 506.665 872.046C506.867 872.046 507.045 872.122 507.197 872.274C507.349 872.401 507.425 872.565 507.425 872.768C507.425 873.097 507.273 873.338 506.969 873.49C504.815 874.453 502.953 875.783 501.383 877.48C499.837 879.152 498.697 881.153 497.963 883.484C498.799 882.851 499.799 882.331 500.965 881.926C502.13 881.495 503.283 881.28 504.423 881.28C505.765 881.28 506.981 881.571 508.071 882.154C509.185 882.737 510.059 883.611 510.693 884.776C511.326 885.916 511.643 887.297 511.643 888.918C511.643 890.818 511.288 892.477 510.579 893.896C509.869 895.289 508.919 896.366 507.729 897.126C506.563 897.861 505.297 898.228 503.929 898.228ZM503.929 896.708C505.018 896.708 506.031 896.417 506.969 895.834C507.906 895.226 508.666 894.339 509.249 893.174C509.831 891.983 510.123 890.565 510.123 888.918C510.123 886.917 509.591 885.409 508.527 884.396C507.463 883.357 506.095 882.838 504.423 882.838C502.751 882.838 501.332 883.167 500.167 883.826C499.027 884.459 498.127 885.118 497.469 885.802C497.342 886.587 497.279 887.563 497.279 888.728C497.279 891.616 497.912 893.668 499.179 894.884C500.445 896.1 502.029 896.708 503.929 896.708ZM518.071 898.228C517.869 898.228 517.679 898.152 517.501 898C517.349 897.823 517.273 897.62 517.273 897.392L517.197 872.578C517.197 872.375 517.273 872.198 517.425 872.046C517.577 871.894 517.767 871.818 517.995 871.818C518.223 871.818 518.413 871.907 518.565 872.084C518.743 872.236 518.831 872.426 518.831 872.654L518.869 889.07C520.212 888.183 521.947 886.727 524.075 884.7C526.229 882.673 528.002 880.735 529.395 878.886C529.598 878.633 529.839 878.506 530.117 878.506C530.32 878.506 530.497 878.595 530.649 878.772C530.827 878.924 530.915 879.101 530.915 879.304C530.915 879.405 530.852 879.557 530.725 879.76C529.94 880.773 528.876 881.989 527.533 883.408C526.191 884.801 525.025 885.941 524.037 886.828L527.799 891.54C529.218 893.288 530.599 895.011 531.941 896.708C532.093 896.961 532.169 897.164 532.169 897.316C532.169 897.519 532.093 897.709 531.941 897.886C531.789 898.063 531.599 898.152 531.371 898.152C531.093 898.152 530.877 898.051 530.725 897.848C529.332 895.999 527.812 894.035 526.165 891.958C524.544 889.881 523.429 888.475 522.821 887.74C521.099 889.083 519.794 890.02 518.907 890.552V897.392C518.907 897.62 518.819 897.823 518.641 898C518.489 898.152 518.299 898.228 518.071 898.228ZM536.194 898C535.966 898 535.763 897.924 535.586 897.772C535.434 897.62 535.358 897.417 535.358 897.164C535.358 896.961 535.434 896.771 535.586 896.594C535.763 896.417 535.966 896.328 536.194 896.328H539.956L540.26 874.934L536.688 878.772C536.51 878.949 536.308 879.038 536.08 879.038C535.852 879.038 535.649 878.962 535.472 878.81C535.32 878.633 535.244 878.43 535.244 878.202C535.244 878.101 535.269 878.012 535.32 877.936C535.37 877.835 535.421 877.746 535.472 877.67L540.488 872.236C540.665 872.059 540.868 871.97 541.096 871.97C541.324 871.97 541.514 872.059 541.666 872.236C541.843 872.388 541.932 872.565 541.932 872.768L541.59 896.328H544.63C544.908 896.328 545.124 896.417 545.276 896.594C545.453 896.746 545.542 896.936 545.542 897.164C545.542 897.417 545.453 897.62 545.276 897.772C545.124 897.924 544.934 898 544.706 898H536.194ZM569.902 898.228C568.509 898.228 567.179 897.886 565.912 897.202C564.671 896.493 563.67 895.517 562.91 894.276C562.15 893.035 561.77 891.629 561.77 890.058C561.77 888.335 562.163 886.638 562.948 884.966C563.759 883.294 564.81 881.926 566.102 880.862C567.419 879.798 568.775 879.266 570.168 879.266C571.485 879.266 572.562 879.481 573.398 879.912C574.234 880.343 575.045 881.014 575.83 881.926C575.957 882.053 576.02 882.23 576.02 882.458C576.02 882.686 575.944 882.876 575.792 883.028C575.64 883.18 575.463 883.256 575.26 883.256C575.083 883.256 574.893 883.18 574.69 883.028C574.082 882.293 573.436 881.736 572.752 881.356C572.068 880.951 571.232 880.748 570.244 880.748C569.104 880.748 568.002 881.191 566.938 882.078C565.874 882.965 565 884.13 564.316 885.574C563.657 886.993 563.328 888.462 563.328 889.982C563.328 891.375 563.645 892.591 564.278 893.63C564.937 894.643 565.773 895.416 566.786 895.948C567.799 896.48 568.825 896.746 569.864 896.746C572.296 896.746 574.221 895.783 575.64 893.858C575.893 893.503 576.159 893.326 576.438 893.326C576.641 893.326 576.818 893.402 576.97 893.554C577.147 893.706 577.236 893.883 577.236 894.086C577.236 894.213 577.135 894.428 576.932 894.732C576.248 895.695 575.26 896.518 573.968 897.202C572.701 897.886 571.346 898.228 569.902 898.228ZM587.083 898.342C585.665 898.342 584.537 898.038 583.701 897.43C582.891 896.797 582.295 895.72 581.915 894.2C581.535 892.68 581.345 890.552 581.345 887.816C581.345 885.156 581.497 882.661 581.801 880.33C581.877 879.925 581.979 879.646 582.105 879.494C582.232 879.317 582.409 879.228 582.637 879.228C582.865 879.228 583.055 879.304 583.207 879.456C583.359 879.583 583.435 879.76 583.435 879.988L583.359 880.862C583.055 883.598 582.903 886.207 582.903 888.69C582.903 890.843 583.068 892.528 583.397 893.744C583.727 894.935 584.195 895.771 584.803 896.252C585.437 896.733 586.247 896.974 587.235 896.974C589.465 896.974 591.542 895.923 593.467 893.82C593.822 893.389 593.999 892.743 593.999 891.882L594.113 879.988C594.113 879.785 594.189 879.608 594.341 879.456C594.519 879.304 594.709 879.228 594.911 879.228C595.114 879.228 595.291 879.304 595.443 879.456C595.621 879.608 595.709 879.785 595.709 879.988V897.392C595.709 897.62 595.621 897.823 595.443 898C595.266 898.152 595.051 898.228 594.797 898.228C594.519 898.228 594.291 898.127 594.113 897.924C593.936 897.721 593.847 897.481 593.847 897.202V895.074C593.239 895.986 592.315 896.759 591.073 897.392C589.857 898.025 588.527 898.342 587.083 898.342ZM603.161 898.228C602.959 898.228 602.769 898.152 602.591 898C602.439 897.848 602.363 897.671 602.363 897.468V880.064C602.363 879.836 602.439 879.646 602.591 879.494C602.769 879.342 602.959 879.266 603.161 879.266C603.415 879.266 603.617 879.342 603.769 879.494C603.947 879.646 604.035 879.836 604.035 880.064V884.814C604.365 883.953 604.884 883.091 605.593 882.23C606.303 881.343 607.139 880.609 608.101 880.026C609.064 879.443 610.065 879.152 611.103 879.152C613.029 879.152 613.991 880.191 613.991 882.268V883.256C613.991 883.484 613.915 883.687 613.763 883.864C613.611 884.016 613.421 884.092 613.193 884.092C612.661 884.092 612.395 883.801 612.395 883.218V882.42C612.395 881.888 612.294 881.483 612.091 881.204C611.889 880.9 611.433 880.748 610.723 880.748C609.001 880.748 607.24 881.951 605.441 884.358C605.036 884.89 604.694 885.574 604.415 886.41C604.162 887.221 604.035 887.955 604.035 888.614L603.997 897.468C603.997 897.671 603.909 897.848 603.731 898C603.579 898.152 603.389 898.228 603.161 898.228ZM621.865 898.266C621.51 898.266 621.257 898.063 621.105 897.658L614.075 880.406C614.024 880.254 613.999 880.127 613.999 880.026C613.999 879.798 614.1 879.621 614.303 879.494C614.48 879.342 614.683 879.266 614.911 879.266C615.24 879.266 615.494 879.456 615.671 879.836L621.903 895.568L628.097 879.722C628.224 879.393 628.49 879.228 628.895 879.228C629.123 879.228 629.313 879.304 629.465 879.456C629.642 879.608 629.731 879.785 629.731 879.988C629.731 880.064 629.706 880.203 629.655 880.406L622.625 897.734C622.498 898.089 622.245 898.266 621.865 898.266ZM640.849 898.228C638.949 898.228 637.277 897.823 635.833 897.012C634.389 896.201 633.274 895.112 632.489 893.744C631.704 892.351 631.311 890.831 631.311 889.184C631.311 887.385 631.666 885.739 632.375 884.244C633.084 882.724 634.085 881.521 635.377 880.634C636.669 879.722 638.164 879.266 639.861 879.266C641.356 879.266 642.635 879.545 643.699 880.102C644.788 880.659 645.599 881.331 646.131 882.116C646.688 882.901 646.967 883.598 646.967 884.206C646.967 884.485 646.726 884.776 646.245 885.08L633.591 892.338C634.25 893.807 635.187 894.909 636.403 895.644C637.644 896.379 639.114 896.746 640.811 896.746C641.698 896.746 642.648 896.531 643.661 896.1C644.7 895.644 645.485 895.099 646.017 894.466C646.144 894.314 646.308 894.238 646.511 894.238C646.714 894.238 646.891 894.314 647.043 894.466C647.195 894.593 647.271 894.77 647.271 894.998C647.271 895.175 647.195 895.34 647.043 895.492C646.359 896.277 645.434 896.936 644.269 897.468C643.129 897.975 641.989 898.228 640.849 898.228ZM645.371 884.092C644.94 883.003 644.282 882.179 643.395 881.622C642.508 881.065 641.33 880.786 639.861 880.786C638.544 880.786 637.353 881.166 636.289 881.926C635.225 882.661 634.389 883.674 633.781 884.966C633.198 886.233 632.907 887.651 632.907 889.222C632.907 889.754 632.97 890.299 633.097 890.856L645.371 884.092Z" fill="white"/>
</svg>
