<svg width="8564" height="3137" viewBox="0 0 8564 3137" fill="none" xmlns="http://www.w3.org/2000/svg">
<rect width="8564" height="3137" fill="#1E1E1E"/>
<rect x="4820" y="1537" width="3615" height="351" fill="#2F2F2F" stroke="white" stroke-width="12"/>
<rect x="133" y="154" width="2750" height="2509" rx="54" fill="#1E1E1E" stroke="#F1760D" stroke-width="20"/>
<path d="M1291.13 2952V2824H1338.01C1347.09 2824 1354.61 2825.5 1360.57 2828.5C1366.53 2831.46 1370.99 2835.48 1373.95 2840.56C1376.9 2845.6 1378.38 2851.29 1378.38 2857.62C1378.38 2862.96 1377.4 2867.46 1375.45 2871.12C1373.49 2874.75 1370.86 2877.67 1367.57 2879.87C1364.32 2882.04 1360.74 2883.62 1356.82 2884.62V2885.87C1361.07 2886.08 1365.22 2887.46 1369.26 2890C1373.34 2892.5 1376.72 2896.06 1379.38 2900.69C1382.05 2905.31 1383.38 2910.94 1383.38 2917.56C1383.38 2924.1 1381.84 2929.98 1378.76 2935.19C1375.72 2940.35 1371.01 2944.46 1364.63 2947.5C1358.26 2950.5 1350.11 2952 1340.2 2952H1291.13ZM1310.45 2935.44H1338.32C1347.57 2935.44 1354.2 2933.65 1358.2 2930.06C1362.2 2926.48 1364.2 2922 1364.2 2916.62C1364.2 2912.58 1363.17 2908.87 1361.13 2905.5C1359.09 2902.12 1356.17 2899.44 1352.38 2897.44C1348.63 2895.44 1344.17 2894.44 1339.01 2894.44H1310.45V2935.44ZM1310.45 2879.37H1336.32C1340.65 2879.37 1344.55 2878.54 1348.01 2876.87C1351.51 2875.21 1354.28 2872.87 1356.32 2869.87C1358.4 2866.83 1359.45 2863.25 1359.45 2859.12C1359.45 2853.83 1357.59 2849.4 1353.88 2845.81C1350.17 2842.23 1344.49 2840.44 1336.82 2840.44H1310.45V2879.37ZM1423.48 2824V2952H1404.79V2824H1423.48ZM1489.05 2953.94C1480.05 2953.94 1472.2 2951.88 1465.49 2947.75C1458.78 2943.62 1453.58 2937.85 1449.87 2930.44C1446.16 2923.02 1444.3 2914.35 1444.3 2904.44C1444.3 2894.48 1446.16 2885.77 1449.87 2878.31C1453.58 2870.85 1458.78 2865.06 1465.49 2860.94C1472.2 2856.81 1480.05 2854.75 1489.05 2854.75C1498.05 2854.75 1505.91 2856.81 1512.62 2860.94C1519.33 2865.06 1524.53 2870.85 1528.24 2878.31C1531.95 2885.77 1533.8 2894.48 1533.8 2904.44C1533.8 2914.35 1531.95 2923.02 1528.24 2930.44C1524.53 2937.85 1519.33 2943.62 1512.62 2947.75C1505.91 2951.88 1498.05 2953.94 1489.05 2953.94ZM1489.12 2938.25C1494.95 2938.25 1499.78 2936.71 1503.62 2933.62C1507.45 2930.54 1510.28 2926.44 1512.12 2921.31C1513.99 2916.19 1514.93 2910.54 1514.93 2904.37C1514.93 2898.25 1513.99 2892.62 1512.12 2887.5C1510.28 2882.33 1507.45 2878.19 1503.62 2875.06C1499.78 2871.94 1494.95 2870.37 1489.12 2870.37C1483.24 2870.37 1478.37 2871.94 1474.49 2875.06C1470.66 2878.19 1467.8 2882.33 1465.93 2887.5C1464.1 2892.62 1463.18 2898.25 1463.18 2904.37C1463.18 2910.54 1464.1 2916.19 1465.93 2921.31C1467.8 2926.44 1470.66 2930.54 1474.49 2933.62C1478.37 2936.71 1483.24 2938.25 1489.12 2938.25ZM1595.1 2953.94C1585.81 2953.94 1577.81 2951.83 1571.1 2947.62C1564.43 2943.37 1559.31 2937.52 1555.73 2930.06C1552.14 2922.6 1550.35 2914.06 1550.35 2904.44C1550.35 2894.69 1552.18 2886.08 1555.85 2878.62C1559.52 2871.12 1564.68 2865.27 1571.35 2861.06C1578.02 2856.85 1585.87 2854.75 1594.91 2854.75C1602.21 2854.75 1608.71 2856.1 1614.41 2858.81C1620.12 2861.48 1624.73 2865.23 1628.23 2870.06C1631.77 2874.9 1633.87 2880.54 1634.54 2887H1616.35C1615.35 2882.5 1613.06 2878.62 1609.48 2875.37C1605.93 2872.12 1601.18 2870.5 1595.23 2870.5C1590.02 2870.5 1585.46 2871.87 1581.54 2874.62C1577.66 2877.33 1574.64 2881.21 1572.48 2886.25C1570.31 2891.25 1569.23 2897.17 1569.23 2904C1569.23 2911 1570.29 2917.04 1572.41 2922.12C1574.54 2927.21 1577.54 2931.15 1581.41 2933.94C1585.33 2936.73 1589.93 2938.13 1595.23 2938.13C1598.77 2938.13 1601.98 2937.48 1604.85 2936.19C1607.77 2934.85 1610.21 2932.96 1612.16 2930.5C1614.16 2928.04 1615.56 2925.08 1616.35 2921.62H1634.54C1633.87 2927.83 1631.85 2933.37 1628.48 2938.25C1625.1 2943.12 1620.58 2946.96 1614.91 2949.75C1609.29 2952.54 1602.68 2953.94 1595.1 2953.94ZM1671.71 2919.44L1671.59 2896.62H1674.84L1713.09 2856H1735.46L1691.84 2902.25H1688.9L1671.71 2919.44ZM1654.52 2952V2824H1673.21V2952H1654.52ZM1715.15 2952L1680.77 2906.37L1693.65 2893.31L1738.09 2952H1715.15Z" fill="#F1760D"/>
<rect x="240.5" y="2204.5" width="2537" height="297" rx="26.5" fill="#3C3C3C" stroke="white" stroke-width="7"/>
<rect x="239.5" y="1792.5" width="2537" height="297" rx="26.5" stroke="white" stroke-width="7"/>
<rect x="239.5" y="1412.5" width="2537" height="297" rx="26.5" stroke="white" stroke-width="7"/>
<rect x="239.5" y="1032.5" width="2537" height="297" rx="26.5" stroke="white" stroke-width="7"/>
<rect x="240.5" y="652.5" width="2537" height="297" rx="26.5" stroke="white" stroke-width="7" stroke-dasharray="44 44"/>
<rect x="239.5" y="272.5" width="2537" height="297" rx="26.5" stroke="white" stroke-width="7"/>
<path d="M1208.33 2346.5H1202.1C1201.46 2343.13 1200.24 2339.87 1198.46 2336.72C1196.67 2333.54 1194.37 2330.69 1191.55 2328.16C1188.76 2325.6 1185.51 2323.57 1181.82 2322.08C1178.12 2320.59 1174.03 2319.84 1169.56 2319.84C1163.01 2319.84 1156.97 2321.59 1151.46 2325.09C1145.98 2328.56 1141.58 2333.67 1138.28 2340.42C1135 2347.16 1133.36 2355.42 1133.36 2365.18C1133.36 2375.01 1135 2383.3 1138.28 2390.04C1141.58 2396.79 1145.98 2401.9 1151.46 2405.37C1156.97 2408.81 1163.01 2410.52 1169.56 2410.52C1174.03 2410.52 1178.12 2409.79 1181.82 2408.33C1185.51 2406.84 1188.76 2404.83 1191.55 2402.3C1194.37 2399.74 1196.67 2396.87 1198.46 2393.69C1200.24 2390.51 1201.46 2387.24 1202.1 2383.86H1208.33C1207.62 2387.89 1206.24 2391.83 1204.2 2395.69C1202.19 2399.55 1199.53 2403.05 1196.22 2406.19C1192.94 2409.31 1189.07 2411.79 1184.59 2413.64C1180.15 2415.45 1175.14 2416.36 1169.56 2416.36C1161.25 2416.36 1153.94 2414.25 1147.62 2410.04C1141.29 2405.79 1136.33 2399.82 1132.73 2392.13C1129.16 2384.45 1127.38 2375.46 1127.38 2365.18C1127.38 2354.9 1129.16 2345.92 1132.73 2338.23C1136.33 2330.54 1141.29 2324.59 1147.62 2320.37C1153.94 2316.13 1161.25 2314 1169.56 2314C1175.14 2314 1180.15 2314.93 1184.59 2316.77C1189.07 2318.59 1192.94 2321.06 1196.22 2324.17C1199.53 2327.25 1202.19 2330.72 1204.2 2334.58C1206.24 2338.44 1207.62 2342.41 1208.33 2346.5ZM1257.4 2416.56C1251.23 2416.56 1245.75 2414.9 1240.95 2411.59C1236.15 2408.25 1232.37 2403.66 1229.62 2397.83C1226.86 2391.99 1225.48 2385.34 1225.48 2377.88C1225.48 2370.39 1226.86 2363.74 1229.62 2357.93C1232.37 2352.09 1236.15 2347.51 1240.95 2344.16C1245.75 2340.82 1251.23 2339.15 1257.4 2339.15C1263.56 2339.15 1269.04 2340.82 1273.84 2344.16C1278.64 2347.51 1282.42 2352.09 1285.18 2357.93C1287.93 2363.77 1289.31 2370.42 1289.31 2377.88C1289.31 2385.34 1287.93 2391.99 1285.18 2397.83C1282.42 2403.66 1278.64 2408.25 1273.84 2411.59C1269.04 2414.9 1263.56 2416.56 1257.4 2416.56ZM1257.4 2411.06C1262.62 2411.06 1267.17 2409.58 1271.07 2406.63C1274.99 2403.68 1278.02 2399.69 1280.16 2394.66C1282.34 2389.64 1283.42 2384.04 1283.42 2377.88C1283.42 2371.72 1282.34 2366.14 1280.16 2361.14C1277.99 2356.12 1274.96 2352.13 1271.07 2349.18C1267.17 2346.19 1262.62 2344.7 1257.4 2344.7C1252.17 2344.7 1247.62 2346.19 1243.73 2349.18C1239.83 2352.13 1236.8 2356.12 1234.63 2361.14C1232.45 2366.14 1231.37 2371.72 1231.37 2377.88C1231.37 2384.04 1232.44 2389.64 1234.58 2394.66C1236.75 2399.69 1239.78 2403.68 1243.68 2406.63C1247.6 2409.58 1252.17 2411.06 1257.4 2411.06ZM1310.05 2415V2340.27H1315.93V2415H1310.05ZM1313.02 2327.04C1311.72 2327.04 1310.58 2326.59 1309.61 2325.68C1308.67 2324.77 1308.2 2323.67 1308.2 2322.37C1308.2 2321.07 1308.67 2319.97 1309.61 2319.06C1310.55 2318.15 1311.69 2317.7 1313.02 2317.7C1314.31 2317.7 1315.43 2318.15 1316.37 2319.06C1317.35 2319.97 1317.83 2321.07 1317.83 2322.37C1317.83 2323.67 1317.36 2324.77 1316.42 2325.68C1315.48 2326.59 1314.35 2327.04 1313.02 2327.04ZM1346.73 2366.54V2415H1340.8V2340.27H1346.58V2352.09H1347.17C1348.92 2348.24 1351.73 2345.14 1355.59 2342.8C1359.44 2340.47 1364.03 2339.3 1369.35 2339.3C1374.38 2339.3 1378.79 2340.37 1382.59 2342.51C1386.41 2344.65 1389.4 2347.7 1391.54 2351.66C1393.71 2355.58 1394.8 2360.27 1394.8 2365.72V2415H1388.86V2365.96C1388.86 2359.6 1386.96 2354.49 1383.17 2350.64C1379.41 2346.74 1374.43 2344.8 1368.23 2344.8C1364.08 2344.8 1360.39 2345.71 1357.14 2347.52C1353.9 2349.34 1351.35 2351.88 1349.5 2355.16C1347.66 2358.4 1346.73 2362.2 1346.73 2366.54ZM1421.56 2415V2315.36H1427.44V2356.96H1428.03C1429.19 2353.75 1430.85 2350.8 1432.99 2348.11C1435.13 2345.41 1437.79 2343.26 1440.97 2341.63C1444.15 2339.98 1447.86 2339.15 1452.11 2339.15C1458.11 2339.15 1463.35 2340.82 1467.82 2344.16C1472.3 2347.47 1475.77 2352.05 1478.23 2357.88C1480.7 2363.69 1481.93 2370.34 1481.93 2377.83C1481.93 2385.39 1480.7 2392.09 1478.23 2397.92C1475.77 2403.73 1472.31 2408.29 1467.87 2411.59C1463.43 2414.9 1458.19 2416.56 1452.16 2416.56C1447.91 2416.56 1444.19 2415.75 1441.02 2414.12C1437.84 2412.47 1435.18 2410.3 1433.04 2407.61C1430.9 2404.88 1429.23 2401.91 1428.03 2398.7H1427.34V2415H1421.56ZM1427.39 2377.78C1427.39 2384.14 1428.35 2389.83 1430.26 2394.86C1432.21 2399.85 1435 2403.81 1438.63 2406.73C1442.26 2409.62 1446.61 2411.06 1451.67 2411.06C1456.79 2411.06 1461.17 2409.6 1464.81 2406.68C1468.44 2403.73 1471.21 2399.74 1473.12 2394.71C1475.07 2389.69 1476.04 2384.04 1476.04 2377.78C1476.04 2371.52 1475.07 2365.9 1473.12 2360.9C1471.21 2355.91 1468.44 2351.97 1464.81 2349.08C1461.17 2346.16 1456.79 2344.7 1451.67 2344.7C1446.61 2344.7 1442.26 2346.14 1438.63 2349.03C1435 2351.88 1432.21 2355.81 1430.26 2360.8C1428.35 2365.77 1427.39 2371.43 1427.39 2377.78ZM1522.21 2416.61C1517.9 2416.61 1513.94 2415.75 1510.34 2414.03C1506.77 2412.31 1503.9 2409.79 1501.73 2406.49C1499.59 2403.18 1498.52 2399.16 1498.52 2394.42C1498.52 2391.31 1499.07 2388.57 1500.17 2386.2C1501.28 2383.83 1502.98 2381.79 1505.28 2380.07C1507.59 2378.35 1510.54 2376.94 1514.14 2375.84C1517.74 2374.7 1522.03 2373.83 1527.03 2373.21C1530.82 2372.76 1534.21 2372.32 1537.2 2371.9C1540.18 2371.44 1542.52 2370.74 1544.2 2369.8C1545.92 2368.86 1546.78 2367.44 1546.78 2365.52V2362.41C1546.78 2356.96 1545.06 2352.63 1541.62 2349.42C1538.19 2346.21 1533.45 2344.6 1527.42 2344.6C1522.07 2344.6 1517.56 2345.79 1513.89 2348.15C1510.26 2350.49 1507.72 2353.51 1506.26 2357.2L1500.66 2355.11C1502.09 2351.54 1504.15 2348.58 1506.84 2346.21C1509.56 2343.84 1512.68 2342.07 1516.18 2340.91C1519.72 2339.74 1523.41 2339.15 1527.27 2339.15C1530.61 2339.15 1533.79 2339.62 1536.81 2340.56C1539.86 2341.51 1542.57 2342.93 1544.93 2344.85C1547.33 2346.76 1549.23 2349.21 1550.63 2352.19C1552.02 2355.14 1552.72 2358.68 1552.72 2362.8V2415H1546.78V2401.52H1546.34C1545.05 2404.31 1543.26 2406.86 1540.99 2409.16C1538.75 2411.43 1536.05 2413.25 1532.87 2414.61C1529.72 2415.94 1526.17 2416.61 1522.21 2416.61ZM1522.8 2411.11C1527.47 2411.11 1531.6 2409.97 1535.2 2407.7C1538.84 2405.4 1541.67 2402.25 1543.72 2398.26C1545.76 2394.27 1546.78 2389.75 1546.78 2384.69V2373.7C1546.04 2374.34 1544.95 2374.93 1543.52 2375.45C1542.13 2375.93 1540.54 2376.37 1538.75 2376.76C1537 2377.12 1535.15 2377.44 1533.21 2377.73C1531.29 2377.99 1529.43 2378.24 1527.61 2378.46C1522.16 2379.11 1517.72 2380.12 1514.28 2381.48C1510.88 2382.81 1508.38 2384.56 1506.79 2386.73C1505.23 2388.91 1504.46 2391.53 1504.46 2394.62C1504.46 2399.71 1506.21 2403.73 1509.71 2406.68C1513.21 2409.63 1517.58 2411.11 1522.8 2411.11ZM1625.09 2356.38L1619.59 2357.84C1618.71 2355.11 1617.46 2352.76 1615.84 2350.78C1614.22 2348.8 1612.18 2347.28 1609.71 2346.21C1607.28 2345.11 1604.36 2344.55 1600.95 2344.55C1595.47 2344.55 1590.98 2345.92 1587.48 2348.64C1584.01 2351.37 1582.27 2354.92 1582.27 2359.3C1582.27 2362.86 1583.46 2365.81 1585.82 2368.15C1588.19 2370.45 1591.81 2372.2 1596.67 2373.4L1608.15 2376.27C1614.06 2377.73 1618.5 2380.1 1621.48 2383.38C1624.47 2386.62 1625.96 2390.66 1625.96 2395.49C1625.96 2399.61 1624.84 2403.26 1622.6 2406.44C1620.37 2409.62 1617.27 2412.1 1613.31 2413.88C1609.39 2415.66 1604.81 2416.56 1599.59 2416.56C1592.62 2416.56 1586.89 2414.94 1582.42 2411.69C1577.94 2408.42 1575.07 2403.73 1573.81 2397.63L1579.5 2396.17C1580.57 2401.04 1582.79 2404.75 1586.16 2407.31C1589.57 2409.84 1594.03 2411.11 1599.54 2411.11C1605.64 2411.11 1610.55 2409.66 1614.28 2406.78C1618.05 2403.89 1619.93 2400.19 1619.93 2395.69C1619.93 2392.25 1618.83 2389.34 1616.62 2386.98C1614.41 2384.61 1611.07 2382.87 1606.6 2381.77L1594.68 2378.85C1588.58 2377.36 1584.01 2374.98 1580.96 2371.7C1577.91 2368.39 1576.39 2364.32 1576.39 2359.49C1576.39 2355.47 1577.44 2351.93 1579.55 2348.88C1581.66 2345.84 1584.56 2343.45 1588.26 2341.73C1591.95 2340.01 1596.19 2339.15 1600.95 2339.15C1607.28 2339.15 1612.44 2340.65 1616.43 2343.63C1620.41 2346.61 1623.3 2350.86 1625.09 2356.38ZM1675.65 2416.56C1668.9 2416.56 1663.03 2414.89 1658.03 2411.55C1653.04 2408.21 1649.18 2403.63 1646.45 2397.83C1643.73 2392.02 1642.37 2385.4 1642.37 2377.98C1642.37 2370.52 1643.73 2363.87 1646.45 2358.03C1649.21 2352.19 1652.99 2347.59 1657.79 2344.21C1662.59 2340.84 1668.07 2339.15 1674.23 2339.15C1678.42 2339.15 1682.38 2340 1686.1 2341.68C1689.87 2343.34 1693.18 2345.74 1696.03 2348.88C1698.92 2352.03 1701.17 2355.82 1702.79 2360.27C1704.45 2364.71 1705.27 2369.71 1705.27 2375.25V2378.95H1646.11V2373.55H1699.34C1699.34 2368.13 1698.24 2363.25 1696.03 2358.91C1693.82 2354.56 1690.82 2351.11 1687.03 2348.54C1683.23 2345.98 1678.97 2344.7 1674.23 2344.7C1669.27 2344.7 1664.84 2346.09 1660.95 2348.88C1657.09 2351.64 1654.03 2355.37 1651.76 2360.07C1649.52 2364.78 1648.35 2370.03 1648.25 2375.84V2378.27C1648.25 2384.5 1649.34 2390.09 1651.51 2395.05C1653.72 2399.98 1656.87 2403.89 1660.95 2406.78C1665.04 2409.63 1669.94 2411.06 1675.65 2411.06C1679.73 2411.06 1683.22 2410.38 1686.1 2409.02C1689.02 2407.62 1691.41 2405.93 1693.26 2403.96C1695.11 2401.98 1696.5 2400.06 1697.44 2398.22L1702.84 2400.4C1701.71 2402.9 1699.94 2405.4 1697.54 2407.9C1695.17 2410.36 1692.15 2412.42 1688.49 2414.08C1684.86 2415.73 1680.58 2416.56 1675.65 2416.56ZM1759.71 2321.01V2315.36H1829.53V2321.01H1797.66V2415H1791.58V2321.01H1759.71ZM1843.27 2340.27L1863.9 2373.5L1884.53 2340.27H1891.39L1867.45 2377.64L1891.39 2415H1884.53L1863.9 2382.31L1843.27 2415H1836.36L1860.2 2377.64L1836.36 2340.27H1843.27Z" fill="white"/>
<path d="M3301.84 2415V2315.36H3334.19C3340.22 2315.36 3345.32 2316.43 3349.47 2318.57C3353.62 2320.72 3356.77 2323.72 3358.91 2327.57C3361.08 2331.43 3362.17 2335.93 3362.17 2341.05C3362.17 2345.07 3361.52 2348.64 3360.22 2351.75C3358.92 2354.87 3357.11 2357.45 3354.77 2359.49C3352.47 2361.5 3349.76 2362.9 3346.65 2363.67V2364.26C3350.08 2364.52 3353.28 2365.72 3356.23 2367.86C3359.18 2369.97 3361.55 2372.84 3363.33 2376.47C3365.15 2380.1 3366.06 2384.33 3366.06 2389.17C3366.06 2394.26 3364.96 2398.75 3362.75 2402.64C3360.58 2406.5 3357.32 2409.53 3352.97 2411.74C3348.62 2413.91 3343.24 2415 3336.82 2415H3301.84ZM3307.92 2409.36H3336.82C3344.31 2409.36 3350.07 2407.48 3354.09 2403.71C3358.14 2399.95 3360.17 2395.1 3360.17 2389.17C3360.17 2384.98 3359.18 2381.24 3357.2 2377.93C3355.26 2374.62 3352.55 2372.01 3349.08 2370.1C3345.61 2368.15 3341.59 2367.18 3337.01 2367.18H3307.92V2409.36ZM3307.92 2361.63H3336.28C3340.53 2361.63 3344.13 2360.71 3347.08 2358.86C3350.07 2357.01 3352.34 2354.53 3353.9 2351.41C3355.48 2348.3 3356.28 2344.85 3356.28 2341.05C3356.28 2334.89 3354.37 2330.01 3350.54 2326.41C3346.71 2322.81 3341.26 2321.01 3334.19 2321.01H3307.92V2361.63ZM3393.85 2315.36V2415H3387.91V2315.36H3393.85ZM3446.2 2416.56C3440.04 2416.56 3434.55 2414.9 3429.75 2411.59C3424.95 2408.25 3421.17 2403.66 3418.42 2397.83C3415.66 2391.99 3414.28 2385.34 3414.28 2377.88C3414.28 2370.39 3415.66 2363.74 3418.42 2357.93C3421.17 2352.09 3424.95 2347.51 3429.75 2344.16C3434.55 2340.82 3440.04 2339.15 3446.2 2339.15C3452.36 2339.15 3457.84 2340.82 3462.64 2344.16C3467.44 2347.51 3471.22 2352.09 3473.98 2357.93C3476.73 2363.77 3478.11 2370.42 3478.11 2377.88C3478.11 2385.34 3476.73 2391.99 3473.98 2397.83C3471.22 2403.66 3467.44 2408.25 3462.64 2411.59C3457.84 2414.9 3452.36 2416.56 3446.2 2416.56ZM3446.2 2411.06C3451.42 2411.06 3455.98 2409.58 3459.87 2406.63C3463.79 2403.68 3466.83 2399.69 3468.97 2394.66C3471.14 2389.64 3472.23 2384.04 3472.23 2377.88C3472.23 2371.72 3471.14 2366.14 3468.97 2361.14C3466.79 2356.12 3463.76 2352.13 3459.87 2349.18C3455.98 2346.19 3451.42 2344.7 3446.2 2344.7C3440.98 2344.7 3436.42 2346.19 3432.53 2349.18C3428.63 2352.13 3425.6 2356.12 3423.43 2361.14C3421.26 2366.14 3420.17 2371.72 3420.17 2377.88C3420.17 2384.04 3421.24 2389.64 3423.38 2394.66C3425.55 2399.69 3428.59 2403.68 3432.48 2406.63C3436.4 2409.58 3440.98 2411.06 3446.2 2411.06ZM3526.58 2416.56C3520.22 2416.56 3514.63 2414.89 3509.8 2411.55C3504.96 2408.17 3501.18 2403.57 3498.46 2397.73C3495.77 2391.89 3494.42 2385.27 3494.42 2377.88C3494.42 2370.48 3495.78 2363.87 3498.51 2358.03C3501.23 2352.19 3505.01 2347.59 3509.84 2344.21C3514.68 2340.84 3520.24 2339.15 3526.53 2339.15C3531.27 2339.15 3535.58 2340.13 3539.47 2342.07C3543.4 2344.02 3546.64 2346.73 3549.2 2350.2C3551.8 2353.67 3553.45 2357.69 3554.17 2362.26H3548.13C3547.16 2357.2 3544.73 2353.02 3540.83 2349.71C3536.98 2346.37 3532.22 2344.7 3526.58 2344.7C3521.52 2344.7 3517.01 2346.13 3513.06 2348.98C3509.1 2351.8 3505.98 2355.71 3503.71 2360.71C3501.44 2365.67 3500.31 2371.36 3500.31 2377.78C3500.31 2384.11 3501.41 2389.78 3503.62 2394.81C3505.82 2399.8 3508.9 2403.76 3512.86 2406.68C3516.82 2409.6 3521.39 2411.06 3526.58 2411.06C3530.25 2411.06 3533.59 2410.33 3536.6 2408.87C3539.65 2407.41 3542.2 2405.33 3544.24 2402.64C3546.28 2399.95 3547.63 2396.8 3548.28 2393.2H3554.31C3553.6 2397.81 3551.98 2401.86 3549.45 2405.37C3546.92 2408.87 3543.69 2411.61 3539.76 2413.59C3535.84 2415.57 3531.45 2416.56 3526.58 2416.56ZM3579.71 2385.81L3579.61 2377.3H3581.17L3618.53 2340.27H3626.27L3591.97 2374.33L3591.38 2374.57L3579.71 2385.81ZM3574.55 2415V2315.36H3580.49V2415H3574.55ZM3620.23 2415L3588.71 2375.16L3592.99 2371.21L3627.82 2415H3620.23ZM3684.48 2415V2315.36H3715.17C3721.47 2315.36 3726.88 2316.6 3731.42 2319.06C3735.96 2321.53 3739.45 2324.95 3741.88 2329.33C3744.32 2333.67 3745.53 2338.73 3745.53 2344.51C3745.53 2350.21 3744.32 2355.24 3741.88 2359.59C3739.45 2363.9 3735.96 2367.27 3731.42 2369.71C3726.92 2372.14 3721.52 2373.36 3715.22 2373.36H3687.74V2367.66H3715.08C3720.2 2367.66 3724.58 2366.71 3728.21 2364.79C3731.85 2362.88 3734.63 2360.2 3736.58 2356.77C3738.53 2353.29 3739.5 2349.21 3739.5 2344.51C3739.5 2339.77 3738.53 2335.65 3736.58 2332.15C3734.63 2328.61 3731.83 2325.87 3728.16 2323.93C3724.53 2321.98 3720.15 2321.01 3715.03 2321.01H3690.56V2415H3684.48ZM3725.39 2369.85L3749.91 2415H3742.91L3718.53 2369.85H3725.39ZM3796.08 2416.56C3789.33 2416.56 3783.46 2414.89 3778.47 2411.55C3773.47 2408.21 3769.61 2403.63 3766.89 2397.83C3764.17 2392.02 3762.8 2385.4 3762.8 2377.98C3762.8 2370.52 3764.17 2363.87 3766.89 2358.03C3769.65 2352.19 3773.43 2347.59 3778.23 2344.21C3783.03 2340.84 3788.51 2339.15 3794.67 2339.15C3798.85 2339.15 3802.81 2340 3806.54 2341.68C3810.3 2343.34 3813.61 2345.74 3816.46 2348.88C3819.35 2352.03 3821.61 2355.82 3823.23 2360.27C3824.88 2364.71 3825.71 2369.71 3825.71 2375.25V2378.95H3766.55V2373.55H3819.77C3819.77 2368.13 3818.67 2363.25 3816.46 2358.91C3814.26 2354.56 3811.26 2351.11 3807.46 2348.54C3803.67 2345.98 3799.4 2344.7 3794.67 2344.7C3789.71 2344.7 3785.28 2346.09 3781.39 2348.88C3777.53 2351.64 3774.46 2355.37 3772.19 2360.07C3769.95 2364.78 3768.79 2370.03 3768.69 2375.84V2378.27C3768.69 2384.5 3769.78 2390.09 3771.95 2395.05C3774.15 2399.98 3777.3 2403.89 3781.39 2406.78C3785.47 2409.63 3790.37 2411.06 3796.08 2411.06C3800.17 2411.06 3803.65 2410.38 3806.54 2409.02C3809.46 2407.62 3811.84 2405.93 3813.69 2403.96C3815.54 2401.98 3816.94 2400.06 3817.88 2398.22L3823.28 2400.4C3822.14 2402.9 3820.37 2405.4 3817.97 2407.9C3815.61 2410.36 3812.59 2412.42 3808.92 2414.08C3805.29 2415.73 3801.01 2416.56 3796.08 2416.56ZM3862.44 2415L3840.06 2340.27H3846.29L3865.55 2406.29H3866.09L3885.4 2340.27H3891.58L3910.85 2406.24H3911.33L3930.6 2340.27H3936.83L3914.45 2415H3907.83L3888.76 2349.95H3888.13L3869.06 2415H3862.44ZM3975.11 2416.61C3970.8 2416.61 3966.84 2415.75 3963.24 2414.03C3959.68 2412.31 3956.81 2409.79 3954.63 2406.49C3952.49 2403.18 3951.42 2399.16 3951.42 2394.42C3951.42 2391.31 3951.97 2388.57 3953.08 2386.2C3954.18 2383.83 3955.88 2381.79 3958.18 2380.07C3960.49 2378.35 3963.44 2376.94 3967.04 2375.84C3970.64 2374.7 3974.94 2373.83 3979.93 2373.21C3983.73 2372.76 3987.11 2372.32 3990.1 2371.9C3993.08 2371.44 3995.42 2370.74 3997.1 2369.8C3998.82 2368.86 3999.68 2367.44 3999.68 2365.52V2362.41C3999.68 2356.96 3997.96 2352.63 3994.53 2349.42C3991.09 2346.21 3986.35 2344.6 3980.32 2344.6C3974.97 2344.6 3970.46 2345.79 3966.8 2348.15C3963.16 2350.49 3960.62 2353.51 3959.16 2357.2L3953.56 2355.11C3954.99 2351.54 3957.05 2348.58 3959.74 2346.21C3962.47 2343.84 3965.58 2342.07 3969.08 2340.91C3972.62 2339.74 3976.31 2339.15 3980.17 2339.15C3983.51 2339.15 3986.69 2339.62 3989.71 2340.56C3992.76 2341.51 3995.47 2342.93 3997.83 2344.85C4000.23 2346.76 4002.13 2349.21 4003.53 2352.19C4004.92 2355.14 4005.62 2358.68 4005.62 2362.8V2415H3999.68V2401.52H3999.24C3997.95 2404.31 3996.16 2406.86 3993.89 2409.16C3991.66 2411.43 3988.95 2413.25 3985.77 2414.61C3982.62 2415.94 3979.07 2416.61 3975.11 2416.61ZM3975.7 2411.11C3980.37 2411.11 3984.5 2409.97 3988.1 2407.7C3991.74 2405.4 3994.57 2402.25 3996.62 2398.26C3998.66 2394.27 3999.68 2389.75 3999.68 2384.69V2373.7C3998.94 2374.34 3997.85 2374.93 3996.42 2375.45C3995.03 2375.93 3993.44 2376.37 3991.66 2376.76C3989.9 2377.12 3988.06 2377.44 3986.11 2377.73C3984.2 2377.99 3982.33 2378.24 3980.51 2378.46C3975.07 2379.11 3970.62 2380.12 3967.18 2381.48C3963.78 2382.81 3961.28 2384.56 3959.69 2386.73C3958.14 2388.91 3957.36 2391.53 3957.36 2394.62C3957.36 2399.71 3959.11 2403.73 3962.61 2406.68C3966.11 2409.63 3970.48 2411.11 3975.7 2411.11ZM4030.5 2415V2340.27H4036.29V2351.95H4036.83C4038.45 2348.12 4041.19 2345.06 4045.05 2342.75C4048.91 2340.42 4053.3 2339.25 4058.23 2339.25C4058.75 2339.25 4059.27 2339.25 4059.79 2339.25C4060.31 2339.25 4060.8 2339.27 4061.25 2339.3V2345.28C4060.86 2345.25 4060.39 2345.2 4059.84 2345.14C4059.32 2345.04 4058.67 2344.99 4057.89 2344.99C4053.74 2344.99 4050.04 2345.88 4046.8 2347.67C4043.59 2349.45 4041.06 2351.92 4039.21 2355.06C4037.36 2358.18 4036.44 2361.74 4036.44 2365.77V2415H4030.5ZM4100.56 2416.56C4094.56 2416.56 4089.32 2414.9 4084.85 2411.59C4080.37 2408.29 4076.9 2403.73 4074.43 2397.92C4072 2392.09 4070.79 2385.39 4070.79 2377.83C4070.79 2370.34 4072.02 2363.69 4074.48 2357.88C4076.98 2352.05 4080.47 2347.47 4084.94 2344.16C4089.42 2340.82 4094.64 2339.15 4100.61 2339.15C4104.89 2339.15 4108.6 2339.98 4111.75 2341.63C4114.93 2343.26 4117.59 2345.41 4119.73 2348.11C4121.9 2350.8 4123.56 2353.75 4124.69 2356.96H4125.27V2315.36H4131.16V2415H4125.42V2398.7H4124.69C4123.49 2401.91 4121.82 2404.88 4119.68 2407.61C4117.54 2410.3 4114.88 2412.47 4111.7 2414.12C4108.52 2415.75 4104.81 2416.56 4100.56 2416.56ZM4101.09 2411.06C4106.15 2411.06 4110.48 2409.62 4114.08 2406.73C4117.72 2403.81 4120.49 2399.85 4122.4 2394.86C4124.35 2389.83 4125.32 2384.14 4125.32 2377.78C4125.32 2371.43 4124.35 2365.77 4122.4 2360.8C4120.49 2355.81 4117.72 2351.88 4114.08 2349.03C4110.48 2346.14 4106.15 2344.7 4101.09 2344.7C4095.97 2344.7 4091.58 2346.16 4087.91 2349.08C4084.28 2351.97 4081.49 2355.91 4079.54 2360.9C4077.63 2365.9 4076.67 2371.52 4076.67 2377.78C4076.67 2384.04 4077.63 2389.69 4079.54 2394.71C4081.49 2399.74 4084.28 2403.73 4087.91 2406.68C4091.58 2409.6 4095.97 2411.06 4101.09 2411.06Z" fill="white"/>
<path d="M3294.85 1137.01V1131.36H3364.67V1137.01H3332.8V1231H3326.72V1137.01H3294.85ZM3376.97 1231V1156.27H3382.76V1167.95H3383.3C3384.92 1164.12 3387.66 1161.06 3391.52 1158.75C3395.38 1156.42 3399.78 1155.25 3404.7 1155.25C3405.22 1155.25 3405.74 1155.25 3406.26 1155.25C3406.78 1155.25 3407.27 1155.27 3407.72 1155.3V1161.28C3407.33 1161.25 3406.86 1161.2 3406.31 1161.14C3405.79 1161.04 3405.14 1160.99 3404.36 1160.99C3400.21 1160.99 3396.52 1161.88 3393.27 1163.67C3390.06 1165.45 3387.53 1167.92 3385.68 1171.06C3383.83 1174.18 3382.91 1177.74 3382.91 1181.77V1231H3376.97ZM3443.47 1232.61C3439.15 1232.61 3435.2 1231.75 3431.6 1230.03C3428.03 1228.31 3425.16 1225.79 3422.99 1222.49C3420.84 1219.18 3419.77 1215.16 3419.77 1210.42C3419.77 1207.31 3420.33 1204.57 3421.43 1202.2C3422.53 1199.83 3424.23 1197.79 3426.54 1196.07C3428.84 1194.35 3431.79 1192.94 3435.39 1191.84C3438.99 1190.7 3443.29 1189.83 3448.28 1189.21C3452.08 1188.76 3455.47 1188.32 3458.45 1187.9C3461.44 1187.44 3463.77 1186.74 3465.46 1185.8C3467.18 1184.86 3468.04 1183.44 3468.04 1181.52V1178.41C3468.04 1172.96 3466.32 1168.63 3462.88 1165.42C3459.44 1162.21 3454.71 1160.6 3448.67 1160.6C3443.32 1160.6 3438.81 1161.79 3435.15 1164.15C3431.52 1166.49 3428.97 1169.51 3427.51 1173.2L3421.92 1171.11C3423.34 1167.54 3425.4 1164.58 3428.09 1162.21C3430.82 1159.84 3433.93 1158.07 3437.43 1156.91C3440.97 1155.74 3444.67 1155.15 3448.53 1155.15C3451.87 1155.15 3455.05 1155.62 3458.06 1156.56C3461.11 1157.51 3463.82 1158.93 3466.19 1160.85C3468.59 1162.76 3470.48 1165.21 3471.88 1168.19C3473.27 1171.14 3473.97 1174.68 3473.97 1178.8V1231H3468.04V1217.52H3467.6C3466.3 1220.31 3464.52 1222.86 3462.25 1225.16C3460.01 1227.43 3457.3 1229.25 3454.12 1230.61C3450.98 1231.94 3447.42 1232.61 3443.47 1232.61ZM3444.05 1227.11C3448.72 1227.11 3452.86 1225.97 3456.46 1223.7C3460.09 1221.4 3462.93 1218.25 3464.97 1214.26C3467.01 1210.27 3468.04 1205.75 3468.04 1200.69V1189.7C3467.29 1190.34 3466.2 1190.93 3464.78 1191.45C3463.38 1191.93 3461.79 1192.37 3460.01 1192.76C3458.26 1193.12 3456.41 1193.44 3454.46 1193.73C3452.55 1193.99 3450.68 1194.24 3448.87 1194.46C3443.42 1195.11 3438.98 1196.12 3435.54 1197.48C3432.13 1198.81 3429.63 1200.56 3428.05 1202.73C3426.49 1204.91 3425.71 1207.53 3425.71 1210.62C3425.71 1215.71 3427.46 1219.73 3430.96 1222.68C3434.47 1225.63 3438.83 1227.11 3444.05 1227.11ZM3504.79 1182.54V1231H3498.86V1156.27H3504.65V1168.09H3505.23C3506.98 1164.24 3509.79 1161.14 3513.65 1158.8C3517.51 1156.47 3522.09 1155.3 3527.41 1155.3C3532.44 1155.3 3536.85 1156.37 3540.65 1158.51C3544.47 1160.65 3547.46 1163.7 3549.6 1167.66C3551.77 1171.58 3552.86 1176.27 3552.86 1181.72V1231H3546.92V1181.96C3546.92 1175.6 3545.03 1170.49 3541.23 1166.64C3537.47 1162.74 3532.49 1160.8 3526.29 1160.8C3522.14 1160.8 3518.45 1161.71 3515.2 1163.52C3511.96 1165.34 3509.41 1167.88 3507.56 1171.16C3505.72 1174.4 3504.79 1178.2 3504.79 1182.54ZM3625.01 1172.38L3619.51 1173.84C3618.63 1171.11 3617.38 1168.76 3615.76 1166.78C3614.14 1164.8 3612.1 1163.28 3609.63 1162.21C3607.2 1161.11 3604.28 1160.55 3600.88 1160.55C3595.39 1160.55 3590.9 1161.92 3587.4 1164.64C3583.93 1167.37 3582.19 1170.92 3582.19 1175.3C3582.19 1178.86 3583.38 1181.81 3585.75 1184.15C3588.11 1186.45 3591.73 1188.2 3596.59 1189.4L3608.08 1192.27C3613.98 1193.73 3618.42 1196.1 3621.41 1199.38C3624.39 1202.62 3625.88 1206.66 3625.88 1211.49C3625.88 1215.61 3624.76 1219.26 3622.53 1222.44C3620.29 1225.62 3617.19 1228.1 3613.23 1229.88C3609.31 1231.66 3604.74 1232.56 3599.51 1232.56C3592.54 1232.56 3586.82 1230.94 3582.34 1227.69C3577.86 1224.42 3574.99 1219.73 3573.73 1213.63L3579.42 1212.17C3580.49 1217.04 3582.71 1220.75 3586.09 1223.31C3589.49 1225.84 3593.95 1227.11 3599.47 1227.11C3605.56 1227.11 3610.48 1225.66 3614.21 1222.78C3617.97 1219.89 3619.85 1216.19 3619.85 1211.69C3619.85 1208.25 3618.75 1205.34 3616.54 1202.98C3614.34 1200.61 3611 1198.87 3606.52 1197.77L3594.6 1194.85C3588.5 1193.36 3583.93 1190.98 3580.88 1187.7C3577.83 1184.39 3576.31 1180.32 3576.31 1175.49C3576.31 1171.47 3577.36 1167.93 3579.47 1164.88C3581.58 1161.84 3584.48 1159.45 3588.18 1157.73C3591.88 1156.01 3596.11 1155.15 3600.88 1155.15C3607.2 1155.15 3612.36 1156.65 3616.35 1159.63C3620.34 1162.61 3623.22 1166.86 3625.01 1172.38ZM3666.23 1232.61C3661.91 1232.61 3657.96 1231.75 3654.36 1230.03C3650.79 1228.31 3647.92 1225.79 3645.74 1222.49C3643.6 1219.18 3642.53 1215.16 3642.53 1210.42C3642.53 1207.31 3643.08 1204.57 3644.19 1202.2C3645.29 1199.83 3646.99 1197.79 3649.3 1196.07C3651.6 1194.35 3654.55 1192.94 3658.15 1191.84C3661.75 1190.7 3666.05 1189.83 3671.04 1189.21C3674.84 1188.76 3678.23 1188.32 3681.21 1187.9C3684.19 1187.44 3686.53 1186.74 3688.22 1185.8C3689.94 1184.86 3690.79 1183.44 3690.79 1181.52V1178.41C3690.79 1172.96 3689.08 1168.63 3685.64 1165.42C3682.2 1162.21 3677.46 1160.6 3671.43 1160.6C3666.08 1160.6 3661.57 1161.79 3657.91 1164.15C3654.27 1166.49 3651.73 1169.51 3650.27 1173.2L3644.67 1171.11C3646.1 1167.54 3648.16 1164.58 3650.85 1162.21C3653.58 1159.84 3656.69 1158.07 3660.19 1156.91C3663.73 1155.74 3667.43 1155.15 3671.29 1155.15C3674.63 1155.15 3677.8 1155.62 3680.82 1156.56C3683.87 1157.51 3686.58 1158.93 3688.95 1160.85C3691.35 1162.76 3693.24 1165.21 3694.64 1168.19C3696.03 1171.14 3696.73 1174.68 3696.73 1178.8V1231H3690.79V1217.52H3690.36C3689.06 1220.31 3687.28 1222.86 3685.01 1225.16C3682.77 1227.43 3680.06 1229.25 3676.88 1230.61C3673.73 1231.94 3670.18 1232.61 3666.23 1232.61ZM3666.81 1227.11C3671.48 1227.11 3675.62 1225.97 3679.22 1223.7C3682.85 1221.4 3685.69 1218.25 3687.73 1214.26C3689.77 1210.27 3690.79 1205.75 3690.79 1200.69V1189.7C3690.05 1190.34 3688.96 1190.93 3687.54 1191.45C3686.14 1191.93 3684.55 1192.37 3682.77 1192.76C3681.02 1193.12 3679.17 1193.44 3677.22 1193.73C3675.31 1193.99 3673.44 1194.24 3671.63 1194.46C3666.18 1195.11 3661.73 1196.12 3658.3 1197.48C3654.89 1198.81 3652.39 1200.56 3650.8 1202.73C3649.25 1204.91 3648.47 1207.53 3648.47 1210.62C3648.47 1215.71 3650.22 1219.73 3653.72 1222.68C3657.23 1225.63 3661.59 1227.11 3666.81 1227.11ZM3749.64 1232.56C3743.28 1232.56 3737.69 1230.89 3732.85 1227.55C3728.02 1224.17 3724.24 1219.57 3721.52 1213.73C3718.83 1207.89 3717.48 1201.27 3717.48 1193.88C3717.48 1186.48 3718.84 1179.87 3721.57 1174.03C3724.29 1168.19 3728.07 1163.59 3732.9 1160.21C3737.73 1156.84 3743.3 1155.15 3749.59 1155.15C3754.32 1155.15 3758.64 1156.13 3762.53 1158.07C3766.45 1160.02 3769.7 1162.73 3772.26 1166.2C3774.85 1169.67 3776.51 1173.69 3777.22 1178.26H3771.19C3770.22 1173.2 3767.78 1169.02 3763.89 1165.71C3760.03 1162.37 3755.28 1160.7 3749.64 1160.7C3744.58 1160.7 3740.07 1162.13 3736.11 1164.98C3732.16 1167.8 3729.04 1171.71 3726.77 1176.71C3724.5 1181.67 3723.37 1187.36 3723.37 1193.78C3723.37 1200.11 3724.47 1205.78 3726.67 1210.81C3728.88 1215.8 3731.96 1219.76 3735.92 1222.68C3739.87 1225.6 3744.45 1227.06 3749.64 1227.06C3753.3 1227.06 3756.64 1226.33 3759.66 1224.87C3762.71 1223.41 3765.25 1221.33 3767.3 1218.64C3769.34 1215.95 3770.69 1212.8 3771.34 1209.2H3777.37C3776.65 1213.81 3775.03 1217.86 3772.5 1221.37C3769.97 1224.87 3766.75 1227.61 3762.82 1229.59C3758.9 1231.57 3754.5 1232.56 3749.64 1232.56ZM3824.02 1156.27V1161.58H3791.38V1156.27H3824.02ZM3802.42 1138.37H3808.31V1213.34C3808.31 1216.39 3808.89 1218.89 3810.06 1220.83C3811.26 1222.75 3812.82 1224.17 3814.73 1225.11C3816.68 1226.02 3818.75 1226.48 3820.96 1226.48C3822.03 1226.48 3822.95 1226.39 3823.73 1226.23C3824.54 1226.07 3825.31 1225.86 3826.02 1225.6L3827.48 1231C3826.57 1231.32 3825.56 1231.6 3824.46 1231.83C3823.36 1232.09 3822.06 1232.22 3820.57 1232.22C3817.46 1232.22 3814.5 1231.52 3811.72 1230.12C3808.96 1228.73 3806.72 1226.7 3805 1224.04C3803.28 1221.38 3802.42 1218.17 3802.42 1214.41V1138.37ZM3846.33 1231V1156.27H3852.22V1231H3846.33ZM3849.3 1143.04C3848 1143.04 3846.87 1142.59 3845.89 1141.68C3844.95 1140.77 3844.48 1139.67 3844.48 1138.37C3844.48 1137.07 3844.95 1135.97 3845.89 1135.06C3846.83 1134.15 3847.97 1133.7 3849.3 1133.7C3850.6 1133.7 3851.71 1134.15 3852.66 1135.06C3853.63 1135.97 3854.11 1137.07 3854.11 1138.37C3854.11 1139.67 3853.64 1140.77 3852.7 1141.68C3851.76 1142.59 3850.63 1143.04 3849.3 1143.04ZM3904.86 1232.56C3898.69 1232.56 3893.21 1230.9 3888.41 1227.59C3883.61 1224.25 3879.83 1219.66 3877.08 1213.83C3874.32 1207.99 3872.94 1201.34 3872.94 1193.88C3872.94 1186.39 3874.32 1179.74 3877.08 1173.93C3879.83 1168.09 3883.61 1163.51 3888.41 1160.16C3893.21 1156.82 3898.69 1155.15 3904.86 1155.15C3911.02 1155.15 3916.5 1156.82 3921.3 1160.16C3926.1 1163.51 3929.88 1168.09 3932.64 1173.93C3935.39 1179.77 3936.77 1186.42 3936.77 1193.88C3936.77 1201.34 3935.39 1207.99 3932.64 1213.83C3929.88 1219.66 3926.1 1224.25 3921.3 1227.59C3916.5 1230.9 3911.02 1232.56 3904.86 1232.56ZM3904.86 1227.06C3910.08 1227.06 3914.64 1225.58 3918.53 1222.63C3922.45 1219.68 3925.48 1215.69 3927.63 1210.66C3929.8 1205.64 3930.89 1200.04 3930.89 1193.88C3930.89 1187.72 3929.8 1182.14 3927.63 1177.14C3925.45 1172.12 3922.42 1168.13 3918.53 1165.18C3914.64 1162.19 3910.08 1160.7 3904.86 1160.7C3899.64 1160.7 3895.08 1162.19 3891.19 1165.18C3887.29 1168.13 3884.26 1172.12 3882.09 1177.14C3879.92 1182.14 3878.83 1187.72 3878.83 1193.88C3878.83 1200.04 3879.9 1205.64 3882.04 1210.66C3884.21 1215.69 3887.25 1219.68 3891.14 1222.63C3895.06 1225.58 3899.64 1227.06 3904.86 1227.06ZM3963.15 1182.54V1231H3957.22V1156.27H3963.01V1168.09H3963.59C3965.34 1164.24 3968.15 1161.14 3972.01 1158.8C3975.87 1156.47 3980.46 1155.3 3985.78 1155.3C3990.8 1155.3 3995.21 1156.37 3999.01 1158.51C4002.84 1160.65 4005.82 1163.7 4007.96 1167.66C4010.13 1171.58 4011.22 1176.27 4011.22 1181.72V1231H4005.28V1181.96C4005.28 1175.6 4003.39 1170.49 3999.59 1166.64C3995.83 1162.74 3990.85 1160.8 3984.66 1160.8C3980.5 1160.8 3976.81 1161.71 3973.56 1163.52C3970.32 1165.34 3967.77 1167.88 3965.93 1171.16C3964.08 1174.4 3963.15 1178.2 3963.15 1182.54ZM4083.37 1172.38L4077.87 1173.84C4076.99 1171.11 4075.75 1168.76 4074.12 1166.78C4072.5 1164.8 4070.46 1163.28 4067.99 1162.21C4065.56 1161.11 4062.64 1160.55 4059.24 1160.55C4053.76 1160.55 4049.26 1161.92 4045.76 1164.64C4042.29 1167.37 4040.56 1170.92 4040.56 1175.3C4040.56 1178.86 4041.74 1181.81 4044.11 1184.15C4046.47 1186.45 4050.09 1188.2 4054.96 1189.4L4066.44 1192.27C4072.34 1193.73 4076.78 1196.1 4079.77 1199.38C4082.75 1202.62 4084.24 1206.66 4084.24 1211.49C4084.24 1215.61 4083.12 1219.26 4080.89 1222.44C4078.65 1225.62 4075.55 1228.1 4071.59 1229.88C4067.67 1231.66 4063.1 1232.56 4057.88 1232.56C4050.9 1232.56 4045.18 1230.94 4040.7 1227.69C4036.23 1224.42 4033.36 1219.73 4032.09 1213.63L4037.78 1212.17C4038.85 1217.04 4041.07 1220.75 4044.45 1223.31C4047.85 1225.84 4052.31 1227.11 4057.83 1227.11C4063.92 1227.11 4068.84 1225.66 4072.57 1222.78C4076.33 1219.89 4078.21 1216.19 4078.21 1211.69C4078.21 1208.25 4077.11 1205.34 4074.9 1202.98C4072.7 1200.61 4069.36 1198.87 4064.88 1197.77L4052.96 1194.85C4046.86 1193.36 4042.29 1190.98 4039.24 1187.7C4036.19 1184.39 4034.67 1180.32 4034.67 1175.49C4034.67 1171.47 4035.72 1167.93 4037.83 1164.88C4039.94 1161.84 4042.84 1159.45 4046.54 1157.73C4050.24 1156.01 4054.47 1155.15 4059.24 1155.15C4065.56 1155.15 4070.72 1156.65 4074.71 1159.63C4078.7 1162.61 4081.58 1166.86 4083.37 1172.38ZM4171.54 1156.27V1161.58H4138.4V1156.27H4171.54ZM4149.3 1231V1144.65C4149.3 1140.88 4150.16 1137.67 4151.88 1135.01C4153.6 1132.35 4155.85 1130.33 4158.64 1128.93C4161.46 1127.54 4164.5 1126.84 4167.74 1126.84C4169.46 1126.84 4170.92 1126.99 4172.12 1127.28C4173.35 1127.54 4174.42 1127.84 4175.33 1128.2L4173.58 1133.46C4172.83 1133.2 4172.02 1132.97 4171.15 1132.77C4170.3 1132.58 4169.3 1132.48 4168.13 1132.48C4164.37 1132.48 4161.27 1133.63 4158.84 1135.94C4156.4 1138.24 4155.19 1141.45 4155.19 1145.57L4155.14 1231H4149.3ZM4216.07 1232.56C4209.33 1232.56 4203.46 1230.89 4198.46 1227.55C4193.47 1224.21 4189.61 1219.63 4186.88 1213.83C4184.16 1208.02 4182.8 1201.4 4182.8 1193.98C4182.8 1186.52 4184.16 1179.87 4186.88 1174.03C4189.64 1168.19 4193.42 1163.59 4198.22 1160.21C4203.02 1156.84 4208.5 1155.15 4214.66 1155.15C4218.85 1155.15 4222.8 1156 4226.53 1157.68C4230.3 1159.34 4233.61 1161.74 4236.46 1164.88C4239.35 1168.03 4241.6 1171.82 4243.22 1176.27C4244.88 1180.71 4245.7 1185.71 4245.7 1191.25V1194.95H4186.54V1189.55H4239.77C4239.77 1184.13 4238.66 1179.25 4236.46 1174.91C4234.25 1170.56 4231.25 1167.11 4227.46 1164.54C4223.66 1161.98 4219.4 1160.7 4214.66 1160.7C4209.7 1160.7 4205.27 1162.09 4201.38 1164.88C4197.52 1167.64 4194.46 1171.37 4192.19 1176.07C4189.95 1180.78 4188.78 1186.03 4188.68 1191.84V1194.27C4188.68 1200.5 4189.77 1206.09 4191.94 1211.05C4194.15 1215.98 4197.3 1219.89 4201.38 1222.78C4205.47 1225.63 4210.37 1227.06 4216.07 1227.06C4220.16 1227.06 4223.65 1226.38 4226.53 1225.02C4229.45 1223.62 4231.84 1221.93 4233.69 1219.96C4235.54 1217.98 4236.93 1216.06 4237.87 1214.22L4243.27 1216.4C4242.14 1218.9 4240.37 1221.4 4237.97 1223.9C4235.6 1226.36 4232.58 1228.42 4228.92 1230.08C4225.29 1231.73 4221 1232.56 4216.07 1232.56ZM4295.28 1232.56C4288.53 1232.56 4282.66 1230.89 4277.67 1227.55C4272.67 1224.21 4268.81 1219.63 4266.09 1213.83C4263.36 1208.02 4262 1201.4 4262 1193.98C4262 1186.52 4263.36 1179.87 4266.09 1174.03C4268.84 1168.19 4272.62 1163.59 4277.42 1160.21C4282.22 1156.84 4287.7 1155.15 4293.87 1155.15C4298.05 1155.15 4302.01 1156 4305.74 1157.68C4309.5 1159.34 4312.81 1161.74 4315.66 1164.88C4318.55 1168.03 4320.8 1171.82 4322.42 1176.27C4324.08 1180.71 4324.91 1185.71 4324.91 1191.25V1194.95H4265.75V1189.55H4318.97C4318.97 1184.13 4317.87 1179.25 4315.66 1174.91C4313.46 1170.56 4310.46 1167.11 4306.66 1164.54C4302.87 1161.98 4298.6 1160.7 4293.87 1160.7C4288.9 1160.7 4284.48 1162.09 4280.59 1164.88C4276.73 1167.64 4273.66 1171.37 4271.39 1176.07C4269.15 1180.78 4267.98 1186.03 4267.89 1191.84V1194.27C4267.89 1200.5 4268.97 1206.09 4271.15 1211.05C4273.35 1215.98 4276.5 1219.89 4280.59 1222.78C4284.67 1225.63 4289.57 1227.06 4295.28 1227.06C4299.36 1227.06 4302.85 1226.38 4305.74 1225.02C4308.66 1223.62 4311.04 1221.93 4312.89 1219.96C4314.74 1217.98 4316.13 1216.06 4317.07 1214.22L4322.47 1216.4C4321.34 1218.9 4319.57 1221.4 4317.17 1223.9C4314.8 1226.36 4311.79 1228.42 4308.12 1230.08C4304.49 1231.73 4300.21 1232.56 4295.28 1232.56ZM4392.82 1172.38L4387.32 1173.84C4386.45 1171.11 4385.2 1168.76 4383.58 1166.78C4381.96 1164.8 4379.91 1163.28 4377.45 1162.21C4375.02 1161.11 4372.1 1160.55 4368.69 1160.55C4363.21 1160.55 4358.72 1161.92 4355.22 1164.64C4351.75 1167.37 4350.01 1170.92 4350.01 1175.3C4350.01 1178.86 4351.19 1181.81 4353.56 1184.15C4355.93 1186.45 4359.55 1188.2 4364.41 1189.4L4375.89 1192.27C4381.79 1193.73 4386.24 1196.1 4389.22 1199.38C4392.21 1202.62 4393.7 1206.66 4393.7 1211.49C4393.7 1215.61 4392.58 1219.26 4390.34 1222.44C4388.1 1225.62 4385.01 1228.1 4381.05 1229.88C4377.12 1231.66 4372.55 1232.56 4367.33 1232.56C4360.36 1232.56 4354.63 1230.94 4350.16 1227.69C4345.68 1224.42 4342.81 1219.73 4341.54 1213.63L4347.24 1212.17C4348.31 1217.04 4350.53 1220.75 4353.9 1223.31C4357.31 1225.84 4361.77 1227.11 4367.28 1227.11C4373.38 1227.11 4378.29 1225.66 4382.02 1222.78C4385.78 1219.89 4387.67 1216.19 4387.67 1211.69C4387.67 1208.25 4386.56 1205.34 4384.36 1202.98C4382.15 1200.61 4378.81 1198.87 4374.34 1197.77L4362.42 1194.85C4356.32 1193.36 4351.75 1190.98 4348.7 1187.7C4345.65 1184.39 4344.12 1180.32 4344.12 1175.49C4344.12 1171.47 4345.18 1167.93 4347.29 1164.88C4349.39 1161.84 4352.3 1159.45 4355.99 1157.73C4359.69 1156.01 4363.92 1155.15 4368.69 1155.15C4375.02 1155.15 4380.17 1156.65 4384.16 1159.63C4388.15 1162.61 4391.04 1166.86 4392.82 1172.38Z" fill="white"/>
<path d="M4954.24 1663.36H4968.64L5002.5 1746.07H5003.67L5037.53 1663.36H5051.93V1763H5040.64V1687.3H5039.67L5008.53 1763H4997.63L4966.5 1687.3H4965.52V1763H4954.24V1663.36ZM5074.56 1763V1688.27H5086.04V1763H5074.56ZM5080.4 1675.82C5078.16 1675.82 5076.23 1675.06 5074.61 1673.53C5073.02 1672.01 5072.23 1670.17 5072.23 1668.03C5072.23 1665.89 5073.02 1664.06 5074.61 1662.54C5076.23 1661.01 5078.16 1660.25 5080.4 1660.25C5082.64 1660.25 5084.55 1661.01 5086.14 1662.54C5087.76 1664.06 5088.57 1665.89 5088.57 1668.03C5088.57 1670.17 5087.76 1672.01 5086.14 1673.53C5084.55 1675.06 5082.64 1675.82 5080.4 1675.82ZM5118.55 1718.05V1763H5107.07V1688.27H5118.17V1699.95H5119.14C5120.89 1696.15 5123.55 1693.11 5127.12 1690.8C5130.69 1688.47 5135.29 1687.3 5140.93 1687.3C5145.99 1687.3 5150.42 1688.34 5154.22 1690.41C5158.01 1692.46 5160.96 1695.57 5163.07 1699.75C5165.18 1703.91 5166.23 1709.16 5166.23 1715.52V1763H5154.75V1716.3C5154.75 1710.42 5153.23 1705.85 5150.18 1702.58C5147.13 1699.27 5142.95 1697.61 5137.63 1697.61C5133.96 1697.61 5130.69 1698.41 5127.8 1700C5124.94 1701.59 5122.69 1703.91 5121.04 1706.95C5119.38 1710 5118.55 1713.7 5118.55 1718.05ZM5218.54 1764.56C5211.34 1764.56 5205.13 1762.97 5199.91 1759.79C5194.72 1756.58 5190.72 1752.1 5187.89 1746.36C5185.1 1740.59 5183.71 1733.87 5183.71 1726.22C5183.71 1718.57 5185.1 1711.82 5187.89 1705.98C5190.72 1700.11 5194.64 1695.54 5199.67 1692.26C5204.73 1688.95 5210.63 1687.3 5217.38 1687.3C5221.27 1687.3 5225.11 1687.95 5228.91 1689.25C5232.7 1690.54 5236.16 1692.65 5239.27 1695.57C5242.38 1698.46 5244.86 1702.28 5246.71 1707.05C5248.56 1711.82 5249.49 1717.69 5249.49 1724.66V1729.53H5191.88V1719.6H5237.81C5237.81 1715.39 5236.97 1711.62 5235.28 1708.32C5233.63 1705.01 5231.26 1702.4 5228.18 1700.48C5225.13 1698.57 5221.53 1697.61 5217.38 1697.61C5212.8 1697.61 5208.85 1698.75 5205.51 1701.02C5202.2 1703.26 5199.65 1706.18 5197.87 1709.78C5196.08 1713.38 5195.19 1717.24 5195.19 1721.36V1727.97C5195.19 1733.62 5196.16 1738.4 5198.11 1742.32C5200.09 1746.22 5202.83 1749.18 5206.33 1751.23C5209.84 1753.24 5213.91 1754.24 5218.54 1754.24C5221.56 1754.24 5224.28 1753.82 5226.72 1752.98C5229.18 1752.1 5231.31 1750.8 5233.09 1749.09C5234.87 1747.33 5236.25 1745.16 5237.23 1742.57L5248.32 1745.68C5247.15 1749.44 5245.19 1752.75 5242.43 1755.61C5239.67 1758.43 5236.27 1760.63 5232.21 1762.22C5228.16 1763.78 5223.6 1764.56 5218.54 1764.56ZM5266.95 1763V1688.27H5278.04V1699.56H5278.82C5280.18 1695.86 5282.65 1692.86 5286.22 1690.56C5289.78 1688.26 5293.81 1687.11 5298.28 1687.11C5299.13 1687.11 5300.18 1687.12 5301.44 1687.15C5302.71 1687.19 5303.67 1687.23 5304.32 1687.3V1698.98C5303.93 1698.88 5303.03 1698.73 5301.64 1698.54C5300.28 1698.31 5298.83 1698.2 5297.31 1698.2C5293.68 1698.2 5290.43 1698.96 5287.58 1700.48C5284.76 1701.98 5282.52 1704.05 5280.87 1706.71C5279.24 1709.34 5278.43 1712.34 5278.43 1715.71V1763H5266.95ZM5356.46 1763V1688.27H5367.55V1699.56H5368.33C5369.69 1695.86 5372.15 1692.86 5375.72 1690.56C5379.29 1688.26 5383.31 1687.11 5387.79 1687.11C5388.63 1687.11 5389.68 1687.12 5390.95 1687.15C5392.21 1687.19 5393.17 1687.23 5393.82 1687.3V1698.98C5393.43 1698.88 5392.54 1698.73 5391.14 1698.54C5389.78 1698.31 5388.34 1698.2 5386.81 1698.2C5383.18 1698.2 5379.94 1698.96 5377.08 1700.48C5374.26 1701.98 5372.02 1704.05 5370.37 1706.71C5368.75 1709.34 5367.94 1712.34 5367.94 1715.71V1763H5356.46ZM5436.49 1764.56C5429.29 1764.56 5423.08 1762.97 5417.85 1759.79C5412.66 1756.58 5408.66 1752.1 5405.84 1746.36C5403.05 1740.59 5401.65 1733.87 5401.65 1726.22C5401.65 1718.57 5403.05 1711.82 5405.84 1705.98C5408.66 1700.11 5412.58 1695.54 5417.61 1692.26C5422.67 1688.95 5428.57 1687.3 5435.32 1687.3C5439.21 1687.3 5443.05 1687.95 5446.85 1689.25C5450.64 1690.54 5454.1 1692.65 5457.21 1695.57C5460.33 1698.46 5462.81 1702.28 5464.66 1707.05C5466.5 1711.82 5467.43 1717.69 5467.43 1724.66V1729.53H5409.83V1719.6H5455.75C5455.75 1715.39 5454.91 1711.62 5453.22 1708.32C5451.57 1705.01 5449.2 1702.4 5446.12 1700.48C5443.07 1698.57 5439.47 1697.61 5435.32 1697.61C5430.75 1697.61 5426.79 1698.75 5423.45 1701.02C5420.14 1703.26 5417.59 1706.18 5415.81 1709.78C5414.03 1713.38 5413.13 1717.24 5413.13 1721.36V1727.97C5413.13 1733.62 5414.11 1738.4 5416.05 1742.32C5418.03 1746.22 5420.77 1749.18 5424.28 1751.23C5427.78 1753.24 5431.85 1754.24 5436.49 1754.24C5439.5 1754.24 5442.23 1753.82 5444.66 1752.98C5447.12 1752.1 5449.25 1750.8 5451.03 1749.09C5452.82 1747.33 5454.2 1745.16 5455.17 1742.57L5466.26 1745.68C5465.09 1749.44 5463.13 1752.75 5460.37 1755.61C5457.62 1758.43 5454.21 1760.63 5450.16 1762.22C5446.1 1763.78 5441.55 1764.56 5436.49 1764.56ZM5543.72 1688.27L5516.09 1763H5504.41L5476.78 1688.27H5489.24L5509.86 1747.82H5510.64L5531.27 1688.27H5543.72ZM5587.53 1764.56C5580.33 1764.56 5574.12 1762.97 5568.9 1759.79C5563.71 1756.58 5559.71 1752.1 5556.88 1746.36C5554.1 1740.59 5552.7 1733.87 5552.7 1726.22C5552.7 1718.57 5554.1 1711.82 5556.88 1705.98C5559.71 1700.11 5563.63 1695.54 5568.66 1692.26C5573.72 1688.95 5579.62 1687.3 5586.37 1687.3C5590.26 1687.3 5594.1 1687.95 5597.9 1689.25C5601.69 1690.54 5605.15 1692.65 5608.26 1695.57C5611.37 1698.46 5613.85 1702.28 5615.7 1707.05C5617.55 1711.82 5618.48 1717.69 5618.48 1724.66V1729.53H5560.87V1719.6H5606.8C5606.8 1715.39 5605.96 1711.62 5604.27 1708.32C5602.62 1705.01 5600.25 1702.4 5597.17 1700.48C5594.12 1698.57 5590.52 1697.61 5586.37 1697.61C5581.79 1697.61 5577.84 1698.75 5574.5 1701.02C5571.19 1703.26 5568.64 1706.18 5566.86 1709.78C5565.07 1713.38 5564.18 1717.24 5564.18 1721.36V1727.97C5564.18 1733.62 5565.16 1738.4 5567.1 1742.32C5569.08 1746.22 5571.82 1749.18 5575.32 1751.23C5578.83 1753.24 5582.9 1754.24 5587.53 1754.24C5590.55 1754.24 5593.28 1753.82 5595.71 1752.98C5598.17 1752.1 5600.3 1750.8 5602.08 1749.09C5603.86 1747.33 5605.24 1745.16 5606.22 1742.57L5617.31 1745.68C5616.14 1749.44 5614.18 1752.75 5611.42 1755.61C5608.66 1758.43 5605.26 1760.63 5601.21 1762.22C5597.15 1763.78 5592.59 1764.56 5587.53 1764.56ZM5647.42 1718.05V1763H5635.94V1688.27H5647.03V1699.95H5648.01C5649.76 1696.15 5652.42 1693.11 5655.99 1690.8C5659.55 1688.47 5664.16 1687.3 5669.8 1687.3C5674.86 1687.3 5679.29 1688.34 5683.08 1690.41C5686.88 1692.46 5689.83 1695.57 5691.94 1699.75C5694.05 1703.91 5695.1 1709.16 5695.1 1715.52V1763H5683.62V1716.3C5683.62 1710.42 5682.09 1705.85 5679.05 1702.58C5676 1699.27 5671.81 1697.61 5666.49 1697.61C5662.83 1697.61 5659.55 1698.41 5656.67 1700C5653.81 1701.59 5651.56 1703.91 5649.9 1706.95C5648.25 1710 5647.42 1713.7 5647.42 1718.05ZM5763.18 1732.45V1688.27H5774.66V1763H5763.18V1750.35H5762.4C5760.65 1754.15 5757.92 1757.37 5754.22 1760.03C5750.53 1762.66 5745.86 1763.97 5740.21 1763.97C5735.54 1763.97 5731.39 1762.95 5727.76 1760.91C5724.12 1758.83 5721.27 1755.72 5719.19 1751.57C5717.12 1747.38 5716.08 1742.11 5716.08 1735.76V1688.27H5727.56V1734.98C5727.56 1740.43 5729.09 1744.77 5732.14 1748.02C5735.22 1751.26 5739.14 1752.88 5743.91 1752.88C5746.76 1752.88 5749.67 1752.15 5752.62 1750.69C5755.6 1749.23 5758.1 1746.99 5760.11 1743.98C5762.15 1740.96 5763.18 1737.12 5763.18 1732.45ZM5827.02 1764.56C5819.82 1764.56 5813.61 1762.97 5808.38 1759.79C5803.19 1756.58 5799.19 1752.1 5796.37 1746.36C5793.58 1740.59 5792.18 1733.87 5792.18 1726.22C5792.18 1718.57 5793.58 1711.82 5796.37 1705.98C5799.19 1700.11 5803.11 1695.54 5808.14 1692.26C5813.2 1688.95 5819.1 1687.3 5825.85 1687.3C5829.74 1687.3 5833.58 1687.95 5837.38 1689.25C5841.17 1690.54 5844.63 1692.65 5847.74 1695.57C5850.86 1698.46 5853.34 1702.28 5855.19 1707.05C5857.03 1711.82 5857.96 1717.69 5857.96 1724.66V1729.53H5800.36V1719.6H5846.28C5846.28 1715.39 5845.44 1711.62 5843.75 1708.32C5842.1 1705.01 5839.73 1702.4 5836.65 1700.48C5833.6 1698.57 5830 1697.61 5825.85 1697.61C5821.28 1697.61 5817.32 1698.75 5813.98 1701.02C5810.67 1703.26 5808.12 1706.18 5806.34 1709.78C5804.56 1713.38 5803.66 1717.24 5803.66 1721.36V1727.97C5803.66 1733.62 5804.64 1738.4 5806.58 1742.32C5808.56 1746.22 5811.3 1749.18 5814.81 1751.23C5818.31 1753.24 5822.38 1754.24 5827.02 1754.24C5830.03 1754.24 5832.76 1753.82 5835.19 1752.98C5837.65 1752.1 5839.78 1750.8 5841.56 1749.09C5843.35 1747.33 5844.73 1745.16 5845.7 1742.57L5856.79 1745.68C5855.62 1749.44 5853.66 1752.75 5850.9 1755.61C5848.15 1758.43 5844.74 1760.63 5840.69 1762.22C5836.63 1763.78 5832.08 1764.56 5827.02 1764.56ZM5918.63 1704.04V1693.53H5978.56V1704.04H5918.63ZM5918.63 1732.84V1722.33H5978.56V1732.84H5918.63ZM6038.9 1674.07V1663.36H6113.63V1674.07H6082.3V1763H6070.23V1674.07H6038.9ZM6122.93 1763V1688.27H6134.03V1699.56H6134.8C6136.17 1695.86 6138.63 1692.86 6142.2 1690.56C6145.77 1688.26 6149.79 1687.11 6154.26 1687.11C6155.11 1687.11 6156.16 1687.12 6157.43 1687.15C6158.69 1687.19 6159.65 1687.23 6160.3 1687.3V1698.98C6159.91 1698.88 6159.02 1698.73 6157.62 1698.54C6156.26 1698.31 6154.82 1698.2 6153.29 1698.2C6149.66 1698.2 6146.42 1698.96 6143.56 1700.48C6140.74 1701.98 6138.5 1704.05 6136.85 1706.71C6135.23 1709.34 6134.42 1712.34 6134.42 1715.71V1763H6122.93ZM6195.9 1764.75C6191.16 1764.75 6186.86 1763.86 6183.01 1762.08C6179.15 1760.26 6176.08 1757.65 6173.81 1754.24C6171.54 1750.8 6170.4 1746.65 6170.4 1741.79C6170.4 1737.51 6171.25 1734.04 6172.93 1731.38C6174.62 1728.69 6176.88 1726.58 6179.7 1725.05C6182.52 1723.53 6185.63 1722.39 6189.04 1721.65C6192.48 1720.87 6195.93 1720.25 6199.4 1719.8C6203.94 1719.21 6207.62 1718.78 6210.44 1718.48C6213.3 1718.16 6215.37 1717.63 6216.67 1716.88C6218 1716.13 6218.67 1714.84 6218.67 1712.99V1712.6C6218.67 1707.8 6217.35 1704.07 6214.73 1701.41C6212.13 1698.75 6208.19 1697.42 6202.9 1697.42C6197.42 1697.42 6193.12 1698.62 6190.01 1701.02C6186.9 1703.42 6184.71 1705.98 6183.44 1708.71L6172.55 1704.81C6174.49 1700.27 6177.09 1696.74 6180.33 1694.21C6183.61 1691.65 6187.17 1689.86 6191.03 1688.86C6194.92 1687.82 6198.75 1687.3 6202.51 1687.3C6204.91 1687.3 6207.67 1687.59 6210.78 1688.18C6213.93 1688.73 6216.96 1689.88 6219.88 1691.63C6222.83 1693.38 6225.28 1696.02 6227.23 1699.56C6229.17 1703.09 6230.15 1707.83 6230.15 1713.77V1763H6218.67V1752.88H6218.08C6217.3 1754.5 6216.01 1756.24 6214.19 1758.09C6212.37 1759.94 6209.96 1761.51 6206.94 1762.81C6203.92 1764.1 6200.24 1764.75 6195.9 1764.75ZM6197.65 1754.44C6202.19 1754.44 6206.02 1753.55 6209.13 1751.76C6212.28 1749.98 6214.64 1747.68 6216.23 1744.85C6217.86 1742.03 6218.67 1739.06 6218.67 1735.95V1725.44C6218.18 1726.03 6217.11 1726.56 6215.46 1727.05C6213.83 1727.5 6211.95 1727.91 6209.81 1728.26C6207.7 1728.59 6205.64 1728.88 6203.63 1729.14C6201.65 1729.37 6200.05 1729.56 6198.82 1729.72C6195.83 1730.11 6193.04 1730.74 6190.45 1731.62C6187.89 1732.46 6185.81 1733.74 6184.22 1735.46C6182.66 1737.15 6181.89 1739.45 6181.89 1742.37C6181.89 1746.36 6183.36 1749.38 6186.31 1751.42C6189.3 1753.43 6193.08 1754.44 6197.65 1754.44ZM6262.59 1718.05V1763H6251.1V1688.27H6262.2V1699.95H6263.17C6264.92 1696.15 6267.58 1693.11 6271.15 1690.8C6274.72 1688.47 6279.32 1687.3 6284.96 1687.3C6290.02 1687.3 6294.45 1688.34 6298.25 1690.41C6302.04 1692.46 6304.99 1695.57 6307.1 1699.75C6309.21 1703.91 6310.26 1709.16 6310.26 1715.52V1763H6298.78V1716.3C6298.78 1710.42 6297.26 1705.85 6294.21 1702.58C6291.16 1699.27 6286.98 1697.61 6281.66 1697.61C6277.99 1697.61 6274.72 1698.41 6271.83 1700C6268.97 1701.59 6266.72 1703.91 6265.07 1706.95C6263.41 1710 6262.59 1713.7 6262.59 1718.05ZM6384.18 1705.01L6373.86 1707.93C6373.21 1706.21 6372.26 1704.54 6370.99 1702.92C6369.76 1701.26 6368.07 1699.9 6365.93 1698.83C6363.79 1697.76 6361.05 1697.22 6357.71 1697.22C6353.14 1697.22 6349.33 1698.28 6346.28 1700.39C6343.26 1702.46 6341.75 1705.11 6341.75 1708.32C6341.75 1711.17 6342.79 1713.43 6344.87 1715.08C6346.94 1716.73 6350.18 1718.11 6354.6 1719.21L6365.69 1721.94C6372.37 1723.56 6377.35 1726.04 6380.62 1729.38C6383.9 1732.69 6385.54 1736.96 6385.54 1742.18C6385.54 1746.46 6384.3 1750.29 6381.84 1753.66C6379.41 1757.03 6376 1759.69 6371.62 1761.64C6367.24 1763.58 6362.15 1764.56 6356.35 1764.56C6348.73 1764.56 6342.42 1762.9 6337.42 1759.59C6332.43 1756.29 6329.26 1751.45 6327.94 1745.1L6338.83 1742.37C6339.87 1746.39 6341.83 1749.41 6344.72 1751.42C6347.64 1753.43 6351.45 1754.44 6356.15 1754.44C6361.5 1754.44 6365.75 1753.3 6368.9 1751.03C6372.08 1748.73 6373.67 1745.97 6373.67 1742.76C6373.67 1740.17 6372.76 1737.99 6370.94 1736.24C6369.13 1734.46 6366.34 1733.13 6362.57 1732.25L6350.12 1729.33C6343.28 1727.71 6338.25 1725.2 6335.04 1721.79C6331.86 1718.35 6330.27 1714.06 6330.27 1708.9C6330.27 1704.68 6331.45 1700.95 6333.82 1697.71C6336.22 1694.47 6339.48 1691.92 6343.6 1690.07C6347.75 1688.22 6352.46 1687.3 6357.71 1687.3C6365.1 1687.3 6370.91 1688.92 6375.13 1692.16C6379.38 1695.41 6382.39 1699.69 6384.18 1705.01ZM6424.81 1764.75C6420.08 1764.75 6415.78 1763.86 6411.92 1762.08C6408.06 1760.26 6404.99 1757.65 6402.72 1754.24C6400.45 1750.8 6399.32 1746.65 6399.32 1741.79C6399.32 1737.51 6400.16 1734.04 6401.85 1731.38C6403.53 1728.69 6405.79 1726.58 6408.61 1725.05C6411.43 1723.53 6414.55 1722.39 6417.95 1721.65C6421.39 1720.87 6424.84 1720.25 6428.31 1719.8C6432.85 1719.21 6436.54 1718.78 6439.36 1718.48C6442.21 1718.16 6444.29 1717.63 6445.58 1716.88C6446.91 1716.13 6447.58 1714.84 6447.58 1712.99V1712.6C6447.58 1707.8 6446.27 1704.07 6443.64 1701.41C6441.04 1698.75 6437.1 1697.42 6431.82 1697.42C6426.33 1697.42 6422.04 1698.62 6418.92 1701.02C6415.81 1703.42 6413.62 1705.98 6412.36 1708.71L6401.46 1704.81C6403.4 1700.27 6406 1696.74 6409.24 1694.21C6412.52 1691.65 6416.09 1689.86 6419.95 1688.86C6423.84 1687.82 6427.66 1687.3 6431.43 1687.3C6433.83 1687.3 6436.58 1687.59 6439.7 1688.18C6442.84 1688.73 6445.88 1689.88 6448.8 1691.63C6451.75 1693.38 6454.2 1696.02 6456.14 1699.56C6458.09 1703.09 6459.06 1707.83 6459.06 1713.77V1763H6447.58V1752.88H6447C6446.22 1754.5 6444.92 1756.24 6443.1 1758.09C6441.29 1759.94 6438.87 1761.51 6435.85 1762.81C6432.84 1764.1 6429.16 1764.75 6424.81 1764.75ZM6426.56 1754.44C6431.1 1754.44 6434.93 1753.55 6438.04 1751.76C6441.19 1749.98 6443.56 1747.68 6445.15 1744.85C6446.77 1742.03 6447.58 1739.06 6447.58 1735.95V1725.44C6447.09 1726.03 6446.02 1726.56 6444.37 1727.05C6442.75 1727.5 6440.87 1727.91 6438.72 1728.26C6436.62 1728.59 6434.56 1728.88 6432.55 1729.14C6430.57 1729.37 6428.96 1729.56 6427.73 1729.72C6424.75 1730.11 6421.96 1730.74 6419.36 1731.62C6416.8 1732.46 6414.72 1733.74 6413.13 1735.46C6411.58 1737.15 6410.8 1739.45 6410.8 1742.37C6410.8 1746.36 6412.27 1749.38 6415.23 1751.42C6418.21 1753.43 6421.99 1754.44 6426.56 1754.44ZM6510.37 1764.56C6503.37 1764.56 6497.34 1762.9 6492.28 1759.59C6487.22 1756.29 6483.33 1751.73 6480.6 1745.92C6477.88 1740.12 6476.51 1733.49 6476.51 1726.03C6476.51 1718.44 6477.91 1711.74 6480.7 1705.93C6483.52 1700.09 6487.44 1695.54 6492.47 1692.26C6497.53 1688.95 6503.43 1687.3 6510.18 1687.3C6515.43 1687.3 6520.17 1688.27 6524.39 1690.22C6528.6 1692.16 6532.06 1694.89 6534.75 1698.39C6537.44 1701.89 6539.11 1705.98 6539.76 1710.65H6528.28C6527.4 1707.25 6525.46 1704.23 6522.44 1701.6C6519.46 1698.94 6515.43 1697.61 6510.37 1697.61C6505.9 1697.61 6501.97 1698.78 6498.6 1701.12C6495.26 1703.42 6492.65 1706.68 6490.77 1710.9C6488.92 1715.08 6488 1719.99 6488 1725.64C6488 1731.41 6488.9 1736.44 6490.72 1740.72C6492.57 1745 6495.16 1748.32 6498.5 1750.69C6501.88 1753.06 6505.83 1754.24 6510.37 1754.24C6513.36 1754.24 6516.07 1753.72 6518.5 1752.69C6520.93 1751.65 6522.99 1750.16 6524.68 1748.21C6526.36 1746.26 6527.56 1743.93 6528.28 1741.2H6539.76C6539.11 1745.62 6537.51 1749.59 6534.94 1753.12C6532.41 1756.63 6529.06 1759.42 6524.87 1761.49C6520.72 1763.54 6515.89 1764.56 6510.37 1764.56ZM6589.04 1688.27V1698H6550.32V1688.27H6589.04ZM6561.6 1670.37H6573.09V1741.59C6573.09 1744.84 6573.56 1747.27 6574.5 1748.89C6575.47 1750.48 6576.7 1751.55 6578.19 1752.1C6579.72 1752.62 6581.32 1752.88 6583.01 1752.88C6584.27 1752.88 6585.31 1752.82 6586.12 1752.69C6586.93 1752.52 6587.58 1752.39 6588.07 1752.3L6590.4 1762.61C6589.63 1762.9 6588.54 1763.19 6587.15 1763.49C6585.75 1763.81 6583.98 1763.97 6581.84 1763.97C6578.6 1763.97 6575.42 1763.28 6572.31 1761.88C6569.23 1760.49 6566.66 1758.36 6564.62 1755.51C6562.61 1752.65 6561.6 1749.05 6561.6 1744.71V1670.37ZM6606.31 1763V1688.27H6617.8V1763H6606.31ZM6612.15 1675.82C6609.91 1675.82 6607.98 1675.06 6606.36 1673.53C6604.77 1672.01 6603.98 1670.17 6603.98 1668.03C6603.98 1665.89 6604.77 1664.06 6606.36 1662.54C6607.98 1661.01 6609.91 1660.25 6612.15 1660.25C6614.39 1660.25 6616.3 1661.01 6617.89 1662.54C6619.51 1664.06 6620.33 1665.89 6620.33 1668.03C6620.33 1670.17 6619.51 1672.01 6617.89 1673.53C6616.3 1675.06 6614.39 1675.82 6612.15 1675.82ZM6669.18 1764.56C6662.44 1764.56 6656.52 1762.95 6651.42 1759.74C6646.37 1756.53 6642.41 1752.04 6639.55 1746.26C6636.73 1740.49 6635.32 1733.74 6635.32 1726.03C6635.32 1718.24 6636.73 1711.45 6639.55 1705.64C6642.41 1699.84 6646.37 1695.33 6651.42 1692.12C6656.52 1688.91 6662.44 1687.3 6669.18 1687.3C6675.93 1687.3 6681.83 1688.91 6686.89 1692.12C6691.98 1695.33 6695.94 1699.84 6698.76 1705.64C6701.62 1711.45 6703.04 1718.24 6703.04 1726.03C6703.04 1733.74 6701.62 1740.49 6698.76 1746.26C6695.94 1752.04 6691.98 1756.53 6686.89 1759.74C6681.83 1762.95 6675.93 1764.56 6669.18 1764.56ZM6669.18 1754.24C6674.31 1754.24 6678.52 1752.93 6681.83 1750.3C6685.14 1747.68 6687.59 1744.22 6689.18 1739.94C6690.77 1735.66 6691.56 1731.02 6691.56 1726.03C6691.56 1721.03 6690.77 1716.38 6689.18 1712.06C6687.59 1707.75 6685.14 1704.26 6681.83 1701.6C6678.52 1698.94 6674.31 1697.61 6669.18 1697.61C6664.06 1697.61 6659.84 1698.94 6656.53 1701.6C6653.23 1704.26 6650.78 1707.75 6649.19 1712.06C6647.6 1716.38 6646.8 1721.03 6646.8 1726.03C6646.8 1731.02 6647.6 1735.66 6649.19 1739.94C6650.78 1744.22 6653.23 1747.68 6656.53 1750.3C6659.84 1752.93 6664.06 1754.24 6669.18 1754.24ZM6732.05 1718.05V1763H6720.57V1688.27H6731.66V1699.95H6732.63C6734.39 1696.15 6737.05 1693.11 6740.61 1690.8C6744.18 1688.47 6748.79 1687.3 6754.43 1687.3C6759.49 1687.3 6763.92 1688.34 6767.71 1690.41C6771.51 1692.46 6774.46 1695.57 6776.57 1699.75C6778.67 1703.91 6779.73 1709.16 6779.73 1715.52V1763H6768.25V1716.3C6768.25 1710.42 6766.72 1705.85 6763.67 1702.58C6760.63 1699.27 6756.44 1697.61 6751.12 1697.61C6747.46 1697.61 6744.18 1698.41 6741.29 1700C6738.44 1701.59 6736.19 1703.91 6734.53 1706.95C6732.88 1710 6732.05 1713.7 6732.05 1718.05ZM6853.64 1705.01L6843.33 1707.93C6842.68 1706.21 6841.72 1704.54 6840.46 1702.92C6839.22 1701.26 6837.54 1699.9 6835.4 1698.83C6833.26 1697.76 6830.52 1697.22 6827.18 1697.22C6822.6 1697.22 6818.79 1698.28 6815.74 1700.39C6812.73 1702.46 6811.22 1705.11 6811.22 1708.32C6811.22 1711.17 6812.26 1713.43 6814.33 1715.08C6816.41 1716.73 6819.65 1718.11 6824.06 1719.21L6835.15 1721.94C6841.84 1723.56 6846.81 1726.04 6850.09 1729.38C6853.37 1732.69 6855 1736.96 6855 1742.18C6855 1746.46 6853.77 1750.29 6851.31 1753.66C6848.87 1757.03 6845.47 1759.69 6841.09 1761.64C6836.71 1763.58 6831.62 1764.56 6825.81 1764.56C6818.19 1764.56 6811.88 1762.9 6806.89 1759.59C6801.89 1756.29 6798.73 1751.45 6797.4 1745.1L6808.3 1742.37C6809.34 1746.39 6811.3 1749.41 6814.19 1751.42C6817.1 1753.43 6820.92 1754.44 6825.62 1754.44C6830.97 1754.44 6835.22 1753.3 6838.36 1751.03C6841.54 1748.73 6843.13 1745.97 6843.13 1742.76C6843.13 1740.17 6842.22 1737.99 6840.41 1736.24C6838.59 1734.46 6835.8 1733.13 6832.04 1732.25L6819.59 1729.33C6812.74 1727.71 6807.71 1725.2 6804.5 1721.79C6801.33 1718.35 6799.74 1714.06 6799.74 1708.9C6799.74 1704.68 6800.92 1700.95 6803.29 1697.71C6805.69 1694.47 6808.95 1691.92 6813.07 1690.07C6817.22 1688.22 6821.92 1687.3 6827.18 1687.3C6834.57 1687.3 6840.38 1688.92 6844.59 1692.16C6848.84 1695.41 6851.86 1699.69 6853.64 1705.01ZM6944.09 1688.27V1698H6903.81V1688.27H6944.09ZM6915.88 1763V1677.96C6915.88 1673.68 6916.88 1670.11 6918.89 1667.26C6920.9 1664.4 6923.52 1662.26 6926.73 1660.83C6929.94 1659.41 6933.33 1658.69 6936.89 1658.69C6939.72 1658.69 6942.02 1658.92 6943.8 1659.37C6945.59 1659.83 6946.92 1660.25 6947.79 1660.64L6944.48 1670.56C6943.9 1670.37 6943.09 1670.13 6942.05 1669.83C6941.05 1669.54 6939.72 1669.4 6938.06 1669.4C6934.27 1669.4 6931.53 1670.35 6929.84 1672.27C6928.19 1674.18 6927.36 1676.99 6927.36 1680.68V1763H6915.88ZM6988.44 1764.56C6981.24 1764.56 6975.03 1762.97 6969.81 1759.79C6964.62 1756.58 6960.61 1752.1 6957.79 1746.36C6955 1740.59 6953.61 1733.87 6953.61 1726.22C6953.61 1718.57 6955 1711.82 6957.79 1705.98C6960.61 1700.11 6964.54 1695.54 6969.56 1692.26C6974.62 1688.95 6980.53 1687.3 6987.27 1687.3C6991.16 1687.3 6995.01 1687.95 6998.8 1689.25C7002.6 1690.54 7006.05 1692.65 7009.16 1695.57C7012.28 1698.46 7014.76 1702.28 7016.61 1707.05C7018.46 1711.82 7019.38 1717.69 7019.38 1724.66V1729.53H6961.78V1719.6H7007.71C7007.71 1715.39 7006.86 1711.62 7005.18 1708.32C7003.52 1705.01 7001.15 1702.4 6998.07 1700.48C6995.02 1698.57 6991.42 1697.61 6987.27 1697.61C6982.7 1697.61 6978.74 1698.75 6975.4 1701.02C6972.09 1703.26 6969.55 1706.18 6967.76 1709.78C6965.98 1713.38 6965.09 1717.24 6965.09 1721.36V1727.97C6965.09 1733.62 6966.06 1738.4 6968.01 1742.32C6969.98 1746.22 6972.73 1749.18 6976.23 1751.23C6979.73 1753.24 6983.8 1754.24 6988.44 1754.24C6991.46 1754.24 6994.18 1753.82 6996.61 1752.98C6999.08 1752.1 7001.2 1750.8 7002.99 1749.09C7004.77 1747.33 7006.15 1745.16 7007.12 1742.57L7018.21 1745.68C7017.05 1749.44 7015.08 1752.75 7012.33 1755.61C7009.57 1758.43 7006.16 1760.63 7002.11 1762.22C6998.06 1763.78 6993.5 1764.56 6988.44 1764.56ZM7068.18 1764.56C7060.98 1764.56 7054.77 1762.97 7049.54 1759.79C7044.36 1756.58 7040.35 1752.1 7037.53 1746.36C7034.74 1740.59 7033.34 1733.87 7033.34 1726.22C7033.34 1718.57 7034.74 1711.82 7037.53 1705.98C7040.35 1700.11 7044.27 1695.54 7049.3 1692.26C7054.36 1688.95 7060.26 1687.3 7067.01 1687.3C7070.9 1687.3 7074.75 1687.95 7078.54 1689.25C7082.34 1690.54 7085.79 1692.65 7088.9 1695.57C7092.02 1698.46 7094.5 1702.28 7096.35 1707.05C7098.2 1711.82 7099.12 1717.69 7099.12 1724.66V1729.53H7041.52V1719.6H7087.44C7087.44 1715.39 7086.6 1711.62 7084.91 1708.32C7083.26 1705.01 7080.89 1702.4 7077.81 1700.48C7074.76 1698.57 7071.16 1697.61 7067.01 1697.61C7062.44 1697.61 7058.48 1698.75 7055.14 1701.02C7051.83 1703.26 7049.29 1706.18 7047.5 1709.78C7045.72 1713.38 7044.83 1717.24 7044.83 1721.36V1727.97C7044.83 1733.62 7045.8 1738.4 7047.74 1742.32C7049.72 1746.22 7052.46 1749.18 7055.97 1751.23C7059.47 1753.24 7063.54 1754.24 7068.18 1754.24C7071.19 1754.24 7073.92 1753.82 7076.35 1752.98C7078.82 1752.1 7080.94 1750.8 7082.72 1749.09C7084.51 1747.33 7085.89 1745.16 7086.86 1742.57L7097.95 1745.68C7096.78 1749.44 7094.82 1752.75 7092.07 1755.61C7089.31 1758.43 7085.9 1760.63 7081.85 1762.22C7077.79 1763.78 7073.24 1764.56 7068.18 1764.56ZM7169.52 1705.01L7159.2 1707.93C7158.55 1706.21 7157.6 1704.54 7156.33 1702.92C7155.1 1701.26 7153.41 1699.9 7151.27 1698.83C7149.13 1697.76 7146.39 1697.22 7143.05 1697.22C7138.48 1697.22 7134.67 1698.28 7131.62 1700.39C7128.6 1702.46 7127.09 1705.11 7127.09 1708.32C7127.09 1711.17 7128.13 1713.43 7130.21 1715.08C7132.28 1716.73 7135.53 1718.11 7139.94 1719.21L7151.03 1721.94C7157.71 1723.56 7162.69 1726.04 7165.97 1729.38C7169.24 1732.69 7170.88 1736.96 7170.88 1742.18C7170.88 1746.46 7169.65 1750.29 7167.18 1753.66C7164.75 1757.03 7161.34 1759.69 7156.97 1761.64C7152.59 1763.58 7147.49 1764.56 7141.69 1764.56C7134.07 1764.56 7127.76 1762.9 7122.76 1759.59C7117.77 1756.29 7114.61 1751.45 7113.28 1745.1L7124.17 1742.37C7125.21 1746.39 7127.17 1749.41 7130.06 1751.42C7132.98 1753.43 7136.79 1754.44 7141.49 1754.44C7146.85 1754.44 7151.09 1753.3 7154.24 1751.03C7157.42 1748.73 7159.01 1745.97 7159.01 1742.76C7159.01 1740.17 7158.1 1737.99 7156.28 1736.24C7154.47 1734.46 7151.68 1733.13 7147.92 1732.25L7135.46 1729.33C7128.62 1727.71 7123.59 1725.2 7120.38 1721.79C7117.2 1718.35 7115.61 1714.06 7115.61 1708.9C7115.61 1704.68 7116.8 1700.95 7119.16 1697.71C7121.56 1694.47 7124.82 1691.92 7128.94 1690.07C7133.09 1688.22 7137.8 1687.3 7143.05 1687.3C7150.45 1687.3 7156.25 1688.92 7160.47 1692.16C7164.72 1695.41 7167.73 1699.69 7169.52 1705.01ZM7255.88 1745.49V1681.27H7266.78V1745.49H7255.88ZM7229.22 1718.83V1707.93H7293.44V1718.83H7229.22ZM7357.09 1763V1663.36H7391.92C7398.86 1663.36 7404.59 1664.56 7409.1 1666.96C7413.61 1669.33 7416.96 1672.53 7419.17 1676.55C7421.37 1680.54 7422.48 1684.96 7422.48 1689.83C7422.48 1694.11 7421.71 1697.65 7420.19 1700.44C7418.7 1703.22 7416.72 1705.43 7414.25 1707.05C7411.82 1708.67 7409.18 1709.87 7406.32 1710.65V1711.62C7409.37 1711.82 7412.44 1712.89 7415.52 1714.84C7418.6 1716.78 7421.18 1719.57 7423.25 1723.2C7425.33 1726.84 7426.37 1731.28 7426.37 1736.53C7426.37 1741.53 7425.23 1746.02 7422.96 1750.01C7420.69 1754 7417.11 1757.16 7412.21 1759.5C7407.31 1761.83 7400.94 1763 7393.09 1763H7357.09ZM7369.15 1752.3H7393.09C7400.97 1752.3 7406.57 1750.77 7409.88 1747.72C7413.22 1744.64 7414.89 1740.91 7414.89 1736.53C7414.89 1733.16 7414.03 1730.05 7412.31 1727.19C7410.59 1724.31 7408.14 1722 7404.96 1720.28C7401.78 1718.53 7398.02 1717.66 7393.67 1717.66H7369.15V1752.3ZM7369.15 1707.15H7391.53C7395.17 1707.15 7398.44 1706.44 7401.36 1705.01C7404.31 1703.58 7406.65 1701.57 7408.37 1698.98C7410.12 1696.38 7410.99 1693.33 7410.99 1689.83C7410.99 1685.45 7409.47 1681.74 7406.42 1678.69C7403.37 1675.61 7398.54 1674.07 7391.92 1674.07H7369.15V1707.15ZM7456.12 1663.36V1763H7444.64V1663.36H7456.12ZM7507.5 1764.56C7500.76 1764.56 7494.84 1762.95 7489.75 1759.74C7484.69 1756.53 7480.73 1752.04 7477.88 1746.26C7475.05 1740.49 7473.64 1733.74 7473.64 1726.03C7473.64 1718.24 7475.05 1711.45 7477.88 1705.64C7480.73 1699.84 7484.69 1695.33 7489.75 1692.12C7494.84 1688.91 7500.76 1687.3 7507.5 1687.3C7514.25 1687.3 7520.15 1688.91 7525.21 1692.12C7530.31 1695.33 7534.26 1699.84 7537.08 1705.64C7539.94 1711.45 7541.37 1718.24 7541.37 1726.03C7541.37 1733.74 7539.94 1740.49 7537.08 1746.26C7534.26 1752.04 7530.31 1756.53 7525.21 1759.74C7520.15 1762.95 7514.25 1764.56 7507.5 1764.56ZM7507.5 1754.24C7512.63 1754.24 7516.85 1752.93 7520.15 1750.3C7523.46 1747.68 7525.91 1744.22 7527.5 1739.94C7529.09 1735.66 7529.88 1731.02 7529.88 1726.03C7529.88 1721.03 7529.09 1716.38 7527.5 1712.06C7525.91 1707.75 7523.46 1704.26 7520.15 1701.6C7516.85 1698.94 7512.63 1697.61 7507.5 1697.61C7502.38 1697.61 7498.16 1698.94 7494.86 1701.6C7491.55 1704.26 7489.1 1707.75 7487.51 1712.06C7485.92 1716.38 7485.13 1721.03 7485.13 1726.03C7485.13 1731.02 7485.92 1735.66 7487.51 1739.94C7489.1 1744.22 7491.55 1747.68 7494.86 1750.3C7498.16 1752.93 7502.38 1754.24 7507.5 1754.24ZM7589.25 1764.56C7582.24 1764.56 7576.21 1762.9 7571.15 1759.59C7566.09 1756.29 7562.2 1751.73 7559.48 1745.92C7556.75 1740.12 7555.39 1733.49 7555.39 1726.03C7555.39 1718.44 7556.78 1711.74 7559.57 1705.93C7562.39 1700.09 7566.32 1695.54 7571.35 1692.26C7576.41 1688.95 7582.31 1687.3 7589.06 1687.3C7594.31 1687.3 7599.04 1688.27 7603.26 1690.22C7607.48 1692.16 7610.93 1694.89 7613.62 1698.39C7616.32 1701.89 7617.99 1705.98 7618.63 1710.65H7607.15C7606.28 1707.25 7604.33 1704.23 7601.32 1701.6C7598.33 1698.94 7594.31 1697.61 7589.25 1697.61C7584.77 1697.61 7580.85 1698.78 7577.48 1701.12C7574.14 1703.42 7571.52 1706.68 7569.64 1710.9C7567.79 1715.08 7566.87 1719.99 7566.87 1725.64C7566.87 1731.41 7567.78 1736.44 7569.59 1740.72C7571.44 1745 7574.04 1748.32 7577.38 1750.69C7580.75 1753.06 7584.71 1754.24 7589.25 1754.24C7592.23 1754.24 7594.94 1753.72 7597.37 1752.69C7599.81 1751.65 7601.87 1750.16 7603.55 1748.21C7605.24 1746.26 7606.44 1743.93 7607.15 1741.2H7618.63C7617.99 1745.62 7616.38 1749.59 7613.82 1753.12C7611.29 1756.63 7607.93 1759.42 7603.75 1761.49C7599.6 1763.54 7594.76 1764.56 7589.25 1764.56ZM7646.12 1735.76L7645.93 1721.55H7648.26L7680.96 1688.27H7695.16L7660.33 1723.5H7659.36L7646.12 1735.76ZM7635.42 1763V1663.36H7646.9V1763H7635.42ZM7682.9 1763L7653.71 1726.03L7661.89 1718.05L7697.5 1763H7682.9ZM7750.03 1763V1663.36H7783.69C7791.48 1663.36 7797.87 1664.69 7802.86 1667.35C7807.86 1669.98 7811.55 1673.6 7813.95 1678.2C7816.35 1682.81 7817.55 1688.05 7817.55 1693.92C7817.55 1699.79 7816.35 1704.99 7813.95 1709.53C7811.55 1714.07 7807.87 1717.64 7802.91 1720.24C7797.95 1722.8 7791.61 1724.08 7783.89 1724.08H7756.64V1713.18H7783.5C7788.82 1713.18 7793.1 1712.4 7796.34 1710.85C7799.62 1709.29 7801.99 1707.08 7803.45 1704.23C7804.94 1701.34 7805.68 1697.91 7805.68 1693.92C7805.68 1689.93 7804.94 1686.44 7803.45 1683.46C7801.95 1680.47 7799.57 1678.17 7796.29 1676.55C7793.02 1674.89 7788.69 1674.07 7783.3 1674.07H7762.09V1763H7750.03ZM7796.93 1718.24L7821.45 1763H7807.44L7783.3 1718.24H7796.93ZM7866.63 1764.56C7859.43 1764.56 7853.22 1762.97 7848 1759.79C7842.81 1756.58 7838.8 1752.1 7835.98 1746.36C7833.19 1740.59 7831.8 1733.87 7831.8 1726.22C7831.8 1718.57 7833.19 1711.82 7835.98 1705.98C7838.8 1700.11 7842.73 1695.54 7847.75 1692.26C7852.81 1688.95 7858.72 1687.3 7865.46 1687.3C7869.36 1687.3 7873.2 1687.95 7876.99 1689.25C7880.79 1690.54 7884.24 1692.65 7887.36 1695.57C7890.47 1698.46 7892.95 1702.28 7894.8 1707.05C7896.65 1711.82 7897.57 1717.69 7897.57 1724.66V1729.53H7839.97V1719.6H7885.9C7885.9 1715.39 7885.05 1711.62 7883.37 1708.32C7881.71 1705.01 7879.35 1702.4 7876.26 1700.48C7873.22 1698.57 7869.61 1697.61 7865.46 1697.61C7860.89 1697.61 7856.93 1698.75 7853.59 1701.02C7850.28 1703.26 7847.74 1706.18 7845.95 1709.78C7844.17 1713.38 7843.28 1717.24 7843.28 1721.36V1727.97C7843.28 1733.62 7844.25 1738.4 7846.2 1742.32C7848.18 1746.22 7850.92 1749.18 7854.42 1751.23C7857.92 1753.24 7861.99 1754.24 7866.63 1754.24C7869.65 1754.24 7872.37 1753.82 7874.8 1752.98C7877.27 1752.1 7879.39 1750.8 7881.18 1749.09C7882.96 1747.33 7884.34 1745.16 7885.31 1742.57L7896.41 1745.68C7895.24 1749.44 7893.28 1752.75 7890.52 1755.61C7887.76 1758.43 7884.36 1760.63 7880.3 1762.22C7876.25 1763.78 7871.69 1764.56 7866.63 1764.56ZM7931.97 1763L7909.2 1688.27H7921.27L7937.42 1745.49H7938.2L7954.15 1688.27H7966.41L7982.18 1745.29H7982.95L7999.11 1688.27H8011.17L7988.4 1763H7977.12L7960.77 1705.59H7959.6L7943.26 1763H7931.97ZM8048.34 1764.75C8043.61 1764.75 8039.31 1763.86 8035.45 1762.08C8031.59 1760.26 8028.52 1757.65 8026.25 1754.24C8023.98 1750.8 8022.85 1746.65 8022.85 1741.79C8022.85 1737.51 8023.69 1734.04 8025.38 1731.38C8027.06 1728.69 8029.32 1726.58 8032.14 1725.05C8034.96 1723.53 8038.08 1722.39 8041.48 1721.65C8044.92 1720.87 8048.37 1720.25 8051.84 1719.8C8056.38 1719.21 8060.07 1718.78 8062.89 1718.48C8065.74 1718.16 8067.82 1717.63 8069.11 1716.88C8070.44 1716.13 8071.11 1714.84 8071.11 1712.99V1712.6C8071.11 1707.8 8069.8 1704.07 8067.17 1701.41C8064.57 1698.75 8060.63 1697.42 8055.35 1697.42C8049.87 1697.42 8045.57 1698.62 8042.45 1701.02C8039.34 1703.42 8037.15 1705.98 8035.89 1708.71L8024.99 1704.81C8026.93 1700.27 8029.53 1696.74 8032.77 1694.21C8036.05 1691.65 8039.62 1689.86 8043.48 1688.86C8047.37 1687.82 8051.2 1687.3 8054.96 1687.3C8057.36 1687.3 8060.11 1687.59 8063.23 1688.18C8066.37 1688.73 8069.41 1689.88 8072.33 1691.63C8075.28 1693.38 8077.73 1696.02 8079.67 1699.56C8081.62 1703.09 8082.59 1707.83 8082.59 1713.77V1763H8071.11V1752.88H8070.53C8069.75 1754.5 8068.45 1756.24 8066.63 1758.09C8064.82 1759.94 8062.4 1761.51 8059.38 1762.81C8056.37 1764.1 8052.69 1764.75 8048.34 1764.75ZM8050.09 1754.44C8054.63 1754.44 8058.46 1753.55 8061.57 1751.76C8064.72 1749.98 8067.09 1747.68 8068.68 1744.85C8070.3 1742.03 8071.11 1739.06 8071.11 1735.95V1725.44C8070.62 1726.03 8069.55 1726.56 8067.9 1727.05C8066.28 1727.5 8064.4 1727.91 8062.25 1728.26C8060.15 1728.59 8058.09 1728.88 8056.08 1729.14C8054.1 1729.37 8052.49 1729.56 8051.26 1729.72C8048.28 1730.11 8045.49 1730.74 8042.89 1731.62C8040.33 1732.46 8038.25 1733.74 8036.66 1735.46C8035.11 1737.15 8034.33 1739.45 8034.33 1742.37C8034.33 1746.36 8035.81 1749.38 8038.76 1751.42C8041.74 1753.43 8045.52 1754.44 8050.09 1754.44ZM8103.55 1763V1688.27H8114.64V1699.56H8115.42C8116.78 1695.86 8119.25 1692.86 8122.81 1690.56C8126.38 1688.26 8130.4 1687.11 8134.88 1687.11C8135.72 1687.11 8136.78 1687.12 8138.04 1687.15C8139.31 1687.19 8140.26 1687.23 8140.91 1687.3V1698.98C8140.52 1698.88 8139.63 1698.73 8138.23 1698.54C8136.87 1698.31 8135.43 1698.2 8133.91 1698.2C8130.27 1698.2 8127.03 1698.96 8124.17 1700.48C8121.35 1701.98 8119.12 1704.05 8117.46 1706.71C8115.84 1709.34 8115.03 1712.34 8115.03 1715.71V1763H8103.55ZM8180.46 1764.56C8174.24 1764.56 8168.74 1762.98 8163.97 1759.84C8159.2 1756.66 8155.47 1752.18 8152.78 1746.41C8150.09 1740.6 8148.74 1733.74 8148.74 1725.83C8148.74 1717.98 8150.09 1711.17 8152.78 1705.4C8155.47 1699.62 8159.22 1695.16 8164.02 1692.02C8168.82 1688.87 8174.37 1687.3 8180.66 1687.3C8185.52 1687.3 8189.37 1688.11 8192.19 1689.73C8195.04 1691.32 8197.22 1693.14 8198.71 1695.18C8200.23 1697.19 8201.42 1698.85 8202.26 1700.14H8203.23V1663.36H8214.71V1763H8203.62V1751.52H8202.26C8201.42 1752.88 8200.22 1754.6 8198.66 1756.68C8197.1 1758.72 8194.88 1760.55 8191.99 1762.17C8189.11 1763.76 8185.26 1764.56 8180.46 1764.56ZM8182.02 1754.24C8186.63 1754.24 8190.52 1753.04 8193.7 1750.64C8196.88 1748.21 8199.29 1744.85 8200.95 1740.57C8202.6 1736.26 8203.43 1731.28 8203.43 1725.64C8203.43 1720.06 8202.62 1715.18 8200.99 1710.99C8199.37 1706.78 8196.97 1703.5 8193.79 1701.17C8190.62 1698.8 8186.69 1697.61 8182.02 1697.61C8177.16 1697.61 8173.1 1698.86 8169.86 1701.36C8166.65 1703.82 8164.23 1707.18 8162.61 1711.43C8161.02 1715.65 8160.23 1720.38 8160.23 1725.64C8160.23 1730.96 8161.04 1735.79 8162.66 1740.13C8164.31 1744.45 8166.74 1747.89 8169.96 1750.45C8173.2 1752.98 8177.22 1754.24 8182.02 1754.24Z" fill="#F1760D"/>
<path d="M6393 1601L6393.58 1577.91L6373.3 1588.95L6393 1601ZM4547.27 1204.48C4799.21 1169.63 5191.25 1147.38 5553.81 1192.77C5735.08 1215.47 5908.9 1255.07 6054.13 1318.41C6199.36 1381.76 6315.84 1468.78 6382.68 1586.23L6386.16 1584.25C6318.74 1465.79 6201.42 1378.29 6055.73 1314.75C5910.03 1251.2 5735.8 1211.53 5554.3 1188.8C5191.31 1143.35 4798.91 1165.64 4546.73 1200.52L4547.27 1204.48Z" fill="white"/>
<path d="M1394.27 1897.01V1891.36H1464.08V1897.01H1432.22V1991H1426.13V1897.01H1394.27ZM1477.83 1916.27L1498.45 1949.5L1519.08 1916.27H1525.94L1502.01 1953.64L1525.94 1991H1519.08L1498.45 1958.31L1477.83 1991H1470.92L1494.76 1953.64L1470.92 1916.27H1477.83ZM1610.39 1891.36V1991H1604.31V1897.79H1603.72L1581.34 1912.62V1906.1L1603.53 1891.36H1610.39Z" fill="white"/>
<path d="M1379.86 1517.01V1511.36H1449.67V1517.01H1417.81V1611H1411.72V1517.01H1379.86ZM1463.42 1536.27L1484.04 1569.5L1504.67 1536.27H1511.53L1487.59 1573.64L1511.53 1611H1504.67L1484.04 1578.31L1463.42 1611H1456.51L1480.35 1573.64L1456.51 1536.27H1463.42ZM1569.51 1611V1606.38L1601.77 1569.21C1606.37 1563.89 1610.02 1559.38 1612.71 1555.68C1615.4 1551.99 1617.33 1548.65 1618.5 1545.66C1619.67 1542.68 1620.25 1539.56 1620.25 1536.32C1620.25 1532.27 1619.3 1528.68 1617.38 1525.57C1615.5 1522.42 1612.92 1519.97 1609.65 1518.22C1606.4 1516.47 1602.71 1515.6 1598.55 1515.6C1594.21 1515.6 1590.4 1516.55 1587.12 1518.47C1583.85 1520.38 1581.28 1522.97 1579.43 1526.25C1577.62 1529.53 1576.71 1533.21 1576.71 1537.29H1570.82C1570.82 1532.14 1572.02 1527.5 1574.42 1523.38C1576.82 1519.26 1580.12 1516 1584.3 1513.6C1588.52 1511.2 1593.32 1510 1598.7 1510C1603.99 1510 1608.69 1511.15 1612.81 1513.46C1616.93 1515.76 1620.17 1518.9 1622.54 1522.89C1624.91 1526.85 1626.09 1531.33 1626.09 1536.32C1626.09 1539.99 1625.46 1543.52 1624.19 1546.93C1622.96 1550.3 1620.84 1554.08 1617.82 1558.26C1614.8 1562.41 1610.64 1567.54 1605.32 1573.64L1578.27 1604.82V1605.36H1630.57V1611H1569.51Z" fill="white"/>
<path d="M1379.96 1137.01V1131.36H1449.77V1137.01H1417.9V1231H1411.82V1137.01H1379.96ZM1463.51 1156.27L1484.14 1189.5L1504.77 1156.27H1511.63L1487.69 1193.64L1511.63 1231H1504.77L1484.14 1198.31L1463.51 1231H1456.61L1480.44 1193.64L1456.61 1156.27H1463.51ZM1600.7 1232.36C1594.79 1232.36 1589.52 1231.24 1584.88 1229.01C1580.25 1226.73 1576.57 1223.64 1573.84 1219.71C1571.15 1215.76 1569.75 1211.22 1569.66 1206.09H1575.84C1575.93 1210.15 1577.08 1213.73 1579.29 1216.84C1581.5 1219.92 1584.45 1222.34 1588.14 1224.09C1591.87 1225.84 1596.03 1226.72 1600.6 1226.72C1605.56 1226.72 1609.91 1225.75 1613.64 1223.8C1617.4 1221.85 1620.33 1219.23 1622.44 1215.92C1624.55 1212.58 1625.61 1208.85 1625.61 1204.73C1625.61 1200.32 1624.45 1196.46 1622.15 1193.15C1619.85 1189.81 1616.64 1187.21 1612.52 1185.37C1608.4 1183.48 1603.62 1182.54 1598.17 1182.54H1594.47V1176.9H1598.17C1602.8 1176.9 1606.96 1176.06 1610.62 1174.37C1614.29 1172.65 1617.17 1170.24 1619.28 1167.12C1621.42 1164.01 1622.49 1160.33 1622.49 1156.08C1622.49 1152.09 1621.57 1148.55 1619.72 1145.47C1617.87 1142.39 1615.31 1139.97 1612.03 1138.22C1608.79 1136.47 1604.98 1135.6 1600.6 1135.6C1596.38 1135.6 1592.56 1136.46 1589.12 1138.17C1585.71 1139.89 1583 1142.31 1580.99 1145.42C1578.98 1148.54 1577.96 1152.15 1577.93 1156.27H1571.94C1572.01 1151.12 1573.31 1146.56 1575.84 1142.6C1578.4 1138.65 1581.82 1135.56 1586.1 1133.36C1590.41 1131.12 1595.28 1130 1600.7 1130C1606.21 1130 1611.04 1131.15 1615.19 1133.46C1619.38 1135.76 1622.62 1138.87 1624.92 1142.8C1627.26 1146.72 1628.43 1151.08 1628.43 1155.88C1628.43 1161.66 1626.82 1166.6 1623.61 1170.72C1620.43 1174.81 1616.12 1177.65 1610.67 1179.24V1179.77C1617.12 1181.2 1622.23 1184.13 1625.99 1188.58C1629.76 1193.02 1631.64 1198.4 1631.64 1204.73C1631.64 1209.92 1630.31 1214.6 1627.65 1218.79C1624.99 1222.97 1621.32 1226.28 1616.65 1228.71C1612.02 1231.15 1606.7 1232.36 1600.7 1232.36Z" fill="white"/>
<path d="M1384.17 377.007V371.364H1453.98V377.007H1422.11V471H1416.03V377.007H1384.17ZM1467.72 396.273L1488.35 429.501L1508.98 396.273H1515.84L1491.9 433.636L1515.84 471H1508.98L1488.35 438.307L1467.72 471H1460.82L1484.66 433.636L1460.82 396.273H1467.72ZM1580.19 422.544V471H1574.26V396.273H1580.05V408.095H1580.63C1582.38 404.235 1585.19 401.138 1589.05 398.803C1592.91 396.467 1597.5 395.3 1602.82 395.3C1607.84 395.3 1612.25 396.37 1616.05 398.511C1619.88 400.651 1622.86 403.7 1625 407.657C1627.17 411.581 1628.26 416.268 1628.26 421.717V471H1622.32V421.96C1622.32 415.603 1620.43 410.495 1616.63 406.635C1612.87 402.743 1607.89 400.797 1601.7 400.797C1597.54 400.797 1593.85 401.705 1590.6 403.522C1587.36 405.338 1584.81 407.884 1582.97 411.16C1581.12 414.403 1580.19 418.198 1580.19 422.544Z" fill="white"/>
<path d="M2953 269H2963.51C3006.04 269 3040.51 303.474 3040.51 346V1058.57C3040.51 1091.85 3055.45 1123.38 3081.2 1144.46L3114 1171.31L3074.33 1209.68C3052.72 1230.59 3040.51 1259.38 3040.51 1289.46V2016C3040.51 2058.53 3006.04 2093 2963.51 2093H2953" stroke="white" stroke-width="5"/>
<path d="M2952 2201H2977.93C3012.24 2201 3040.05 2228.81 3040.05 2263.12V2266.73C3040.05 2309.48 3071.64 2345.64 3114 2351.38V2351.38V2351.38C3071.39 2358.21 3040.05 2394.97 3040.05 2438.12V2441.4C3040.05 2476.52 3011.58 2505 2976.45 2505H2952" stroke="white" stroke-width="5"/>
<path d="M7726.67 1828L7715.34 1848.13L7738.43 1847.87L7726.67 1828ZM4228.92 2375.08C4812.08 2397.18 5681.59 2397 6407.88 2325.49C6771 2289.74 7098.44 2236.15 7336.41 2158.55C7455.39 2119.75 7552.14 2074.91 7619.81 2023.2C7687.49 1971.48 7726.31 1912.72 7728.86 1846.12L7724.87 1845.96C7722.37 1910.94 7684.53 1968.71 7617.38 2020.02C7550.22 2071.34 7453.96 2116.01 7335.17 2154.74C7097.62 2232.21 6770.52 2285.77 6407.48 2321.51C5681.44 2393 4812.13 2393.18 4229.08 2371.08L4228.92 2375.08Z" fill="white"/>
</svg>
