<svg width="7781" height="2931" viewBox="0 0 7781 2931" fill="none" xmlns="http://www.w3.org/2000/svg">
<rect width="7781" height="2931" fill="#1E1E1E"/>
<rect x="1413" y="2551" width="1015" height="245" rx="44" fill="#F1760D"/>
<path d="M1565.56 2602.64H1591.35L1625.9 2686.95H1627.26L1661.81 2602.64H1687.6V2719H1667.37V2639.06H1666.29L1634.13 2718.66H1619.02L1586.86 2638.89H1585.78V2719H1565.56V2602.64ZM1748.28 2720.7C1739.53 2720.7 1731.98 2718.89 1725.61 2715.25C1719.29 2711.58 1714.42 2706.39 1711.01 2699.68C1707.6 2692.94 1705.9 2685 1705.9 2675.88C1705.9 2666.9 1707.6 2659.02 1711.01 2652.24C1714.46 2645.42 1719.27 2640.12 1725.44 2636.33C1731.62 2632.5 1738.87 2630.59 1747.2 2630.59C1752.58 2630.59 1757.66 2631.46 1762.43 2633.2C1767.24 2634.91 1771.48 2637.56 1775.16 2641.16C1778.87 2644.76 1781.79 2649.34 1783.91 2654.91C1786.03 2660.44 1787.09 2667.03 1787.09 2674.68V2680.99H1715.56V2667.12H1767.37C1767.34 2663.19 1766.48 2659.68 1764.82 2656.61C1763.15 2653.51 1760.82 2651.06 1757.83 2649.28C1754.87 2647.5 1751.43 2646.61 1747.49 2646.61C1743.28 2646.61 1739.59 2647.64 1736.41 2649.68C1733.23 2651.69 1730.74 2654.34 1728.96 2657.64C1727.22 2660.89 1726.33 2664.47 1726.29 2668.38V2680.48C1726.29 2685.55 1727.22 2689.91 1729.08 2693.55C1730.93 2697.14 1733.53 2699.91 1736.86 2701.84C1740.2 2703.73 1744.1 2704.68 1748.57 2704.68C1751.56 2704.68 1754.27 2704.27 1756.69 2703.43C1759.12 2702.56 1761.22 2701.29 1763 2699.62C1764.78 2697.96 1766.12 2695.89 1767.03 2693.43L1786.24 2695.59C1785.03 2700.67 1782.71 2705.1 1779.31 2708.89C1775.93 2712.64 1771.62 2715.55 1766.35 2717.64C1761.09 2719.68 1755.06 2720.7 1748.28 2720.7ZM1804.49 2719V2631.73H1824.15V2646.56H1825.17C1826.99 2641.56 1830 2637.66 1834.21 2634.85C1838.41 2632.01 1843.43 2630.59 1849.26 2630.59C1855.17 2630.59 1860.15 2632.03 1864.21 2634.91C1868.3 2637.75 1871.18 2641.63 1872.84 2646.56H1873.75C1875.68 2641.71 1878.94 2637.84 1883.52 2634.97C1888.15 2632.05 1893.62 2630.59 1899.94 2630.59C1907.97 2630.59 1914.53 2633.13 1919.6 2638.2C1924.68 2643.28 1927.22 2650.69 1927.22 2660.42V2719H1906.59V2663.6C1906.59 2658.19 1905.15 2654.23 1902.27 2651.73C1899.4 2649.19 1895.87 2647.92 1891.71 2647.92C1886.74 2647.92 1882.86 2649.47 1880.06 2652.58C1877.29 2655.65 1875.91 2659.64 1875.91 2664.57V2719H1855.74V2662.75C1855.74 2658.24 1854.38 2654.64 1851.65 2651.95C1848.96 2649.27 1845.44 2647.92 1841.08 2647.92C1838.13 2647.92 1835.44 2648.68 1833.01 2650.19C1830.59 2651.67 1828.66 2653.77 1827.22 2656.5C1825.78 2659.19 1825.06 2662.33 1825.06 2665.93V2719H1804.49ZM1948.08 2751.73V2631.73H1968.31V2646.16H1969.5C1970.56 2644.04 1972.06 2641.78 1973.99 2639.4C1975.92 2636.97 1978.54 2634.91 1981.83 2633.2C1985.13 2631.46 1989.33 2630.59 1994.45 2630.59C2001.19 2630.59 2007.27 2632.31 2012.69 2635.76C2018.14 2639.17 2022.46 2644.23 2025.64 2650.93C2028.86 2657.6 2030.47 2665.78 2030.47 2675.48C2030.47 2685.06 2028.9 2693.2 2025.75 2699.91C2022.61 2706.61 2018.33 2711.73 2012.91 2715.25C2007.5 2718.77 2001.36 2720.53 1994.5 2720.53C1989.5 2720.53 1985.36 2719.7 1982.06 2718.03C1978.77 2716.37 1976.11 2714.36 1974.11 2712.01C1972.14 2709.62 1970.6 2707.37 1969.5 2705.25H1968.65V2751.73H1948.08ZM1968.25 2675.36C1968.25 2681.01 1969.05 2685.95 1970.64 2690.19C1972.27 2694.44 1974.6 2697.75 1977.63 2700.14C1980.7 2702.48 1984.41 2703.66 1988.77 2703.66C1993.31 2703.66 1997.12 2702.45 2000.19 2700.02C2003.25 2697.56 2005.56 2694.21 2007.12 2689.97C2008.71 2685.69 2009.5 2680.82 2009.5 2675.36C2009.5 2669.95 2008.73 2665.14 2007.17 2660.93C2005.62 2656.73 2003.31 2653.43 2000.24 2651.05C1997.17 2648.66 1993.35 2647.47 1988.77 2647.47C1984.37 2647.47 1980.64 2648.62 1977.57 2650.93C1974.5 2653.24 1972.17 2656.48 1970.58 2660.65C1969.03 2664.81 1968.25 2669.72 1968.25 2675.36ZM2086.15 2720.7C2077.63 2720.7 2070.24 2718.83 2063.99 2715.08C2057.74 2711.33 2052.89 2706.08 2049.45 2699.34C2046.04 2692.6 2044.33 2684.72 2044.33 2675.7C2044.33 2666.69 2046.04 2658.79 2049.45 2652.01C2052.89 2645.23 2057.74 2639.97 2063.99 2636.22C2070.24 2632.47 2077.63 2630.59 2086.15 2630.59C2094.67 2630.59 2102.06 2632.47 2108.31 2636.22C2114.56 2639.97 2119.39 2645.23 2122.8 2652.01C2126.25 2658.79 2127.97 2666.69 2127.97 2675.7C2127.97 2684.72 2126.25 2692.6 2122.8 2699.34C2119.39 2706.08 2114.56 2711.33 2108.31 2715.08C2102.06 2718.83 2094.67 2720.7 2086.15 2720.7ZM2086.27 2704.23C2090.89 2704.23 2094.75 2702.96 2097.86 2700.42C2100.96 2697.84 2103.27 2694.4 2104.79 2690.08C2106.34 2685.76 2107.12 2680.95 2107.12 2675.65C2107.12 2670.31 2106.34 2665.48 2104.79 2661.16C2103.27 2656.8 2100.96 2653.34 2097.86 2650.76C2094.75 2648.19 2090.89 2646.9 2086.27 2646.9C2081.53 2646.9 2077.59 2648.19 2074.45 2650.76C2071.34 2653.34 2069.01 2656.8 2067.46 2661.16C2065.94 2665.48 2065.19 2670.31 2065.19 2675.65C2065.19 2680.95 2065.94 2685.76 2067.46 2690.08C2069.01 2694.4 2071.34 2697.84 2074.45 2700.42C2077.59 2702.96 2081.53 2704.23 2086.27 2704.23ZM2183.5 2720.7C2174.97 2720.7 2167.59 2718.83 2161.34 2715.08C2155.09 2711.33 2150.24 2706.08 2146.79 2699.34C2143.38 2692.6 2141.68 2684.72 2141.68 2675.7C2141.68 2666.69 2143.38 2658.79 2146.79 2652.01C2150.24 2645.23 2155.09 2639.97 2161.34 2636.22C2167.59 2632.47 2174.97 2630.59 2183.5 2630.59C2192.02 2630.59 2199.4 2632.47 2205.65 2636.22C2211.9 2639.97 2216.73 2645.23 2220.14 2652.01C2223.59 2658.79 2225.31 2666.69 2225.31 2675.7C2225.31 2684.72 2223.59 2692.6 2220.14 2699.34C2216.73 2706.08 2211.9 2711.33 2205.65 2715.08C2199.4 2718.83 2192.02 2720.7 2183.5 2720.7ZM2183.61 2704.23C2188.23 2704.23 2192.09 2702.96 2195.2 2700.42C2198.31 2697.84 2200.62 2694.4 2202.13 2690.08C2203.69 2685.76 2204.46 2680.95 2204.46 2675.65C2204.46 2670.31 2203.69 2665.48 2202.13 2661.16C2200.62 2656.8 2198.31 2653.34 2195.2 2650.76C2192.09 2648.19 2188.23 2646.9 2183.61 2646.9C2178.87 2646.9 2174.94 2648.19 2171.79 2650.76C2168.69 2653.34 2166.36 2656.8 2164.8 2661.16C2163.29 2665.48 2162.53 2670.31 2162.53 2675.65C2162.53 2680.95 2163.29 2685.76 2164.8 2690.08C2166.36 2694.4 2168.69 2697.84 2171.79 2700.42C2174.94 2702.96 2178.87 2704.23 2183.61 2704.23ZM2263.34 2602.64V2719H2242.77V2602.64H2263.34Z" fill="#1E1E1E"/>
<rect x="1221.5" y="1140.5" width="909" height="241" rx="16.5" stroke="#10A54A" stroke-width="7"/>
<rect x="318.5" y="1699.5" width="910" height="240" rx="16.5" stroke="#FF6262" stroke-width="7"/>
<rect x="378.5" y="676.5" width="910" height="240" rx="16.5" stroke="#FF6262" stroke-width="7"/>
<rect x="2592.5" y="768.5" width="910" height="240" rx="16.5" stroke="#10A54A" stroke-width="7"/>
<rect x="2220.5" y="1699.5" width="910" height="240" rx="16.5" stroke="#10A54A" stroke-width="7"/>
<path d="M1529.46 1218.63V1206.91H1611.28V1218.63H1576.98V1316H1563.77V1218.63H1529.46ZM1629.96 1234.18L1649.56 1267.63L1669.17 1234.18H1683.66L1657.24 1275.09L1683.66 1316H1669.17L1649.56 1284.25L1629.96 1316H1615.47L1641.47 1275.09L1615.47 1234.18H1629.96ZM1780.43 1317.49C1773.4 1317.49 1767.13 1316.28 1761.63 1313.87C1756.16 1311.45 1751.81 1308.1 1748.58 1303.8C1745.38 1299.47 1743.64 1294.44 1743.35 1288.73H1756.78C1757.06 1292.24 1758.27 1295.28 1760.4 1297.84C1762.53 1300.36 1765.32 1302.31 1768.76 1303.7C1772.21 1305.08 1776.03 1305.77 1780.22 1305.77C1784.9 1305.77 1789.06 1304.96 1792.68 1303.32C1796.3 1301.69 1799.14 1299.42 1801.2 1296.5C1803.26 1293.59 1804.29 1290.22 1804.29 1286.38C1804.29 1282.37 1803.3 1278.84 1801.31 1275.78C1799.32 1272.69 1796.41 1270.28 1792.57 1268.54C1788.74 1266.8 1784.05 1265.93 1778.51 1265.93H1769.78V1254.21H1778.51C1782.84 1254.21 1786.64 1253.43 1789.91 1251.87C1793.21 1250.3 1795.79 1248.1 1797.63 1245.26C1799.52 1242.42 1800.46 1239.08 1800.46 1235.25C1800.46 1231.55 1799.64 1228.34 1798.01 1225.61C1796.37 1222.87 1794.07 1220.74 1791.08 1219.21C1788.13 1217.69 1784.65 1216.92 1780.64 1216.92C1776.88 1216.92 1773.33 1217.62 1769.99 1219C1766.69 1220.35 1763.99 1222.32 1761.89 1224.91C1759.8 1227.47 1758.66 1230.56 1758.48 1234.18H1745.7C1745.91 1228.46 1747.63 1223.46 1750.87 1219.16C1754.1 1214.83 1758.32 1211.45 1763.54 1209.04C1768.8 1206.62 1774.57 1205.42 1780.85 1205.42C1787.6 1205.42 1793.39 1206.78 1798.22 1209.52C1803.05 1212.22 1806.76 1215.79 1809.35 1220.23C1811.95 1224.66 1813.24 1229.46 1813.24 1234.61C1813.24 1240.75 1811.63 1245.99 1808.39 1250.32C1805.2 1254.65 1800.85 1257.65 1795.34 1259.32V1260.18C1802.23 1261.31 1807.61 1264.24 1811.48 1268.97C1815.35 1273.65 1817.29 1279.46 1817.29 1286.38C1817.29 1292.31 1815.67 1297.64 1812.44 1302.36C1809.25 1307.05 1804.88 1310.74 1799.34 1313.44C1793.8 1316.14 1787.5 1317.49 1780.43 1317.49Z" fill="white"/>
<path d="M629.585 1777.63V1765.91H711.403V1777.63H677.099V1875H663.889V1777.63H629.585ZM730.087 1793.18L749.689 1826.63L769.291 1793.18H783.78L757.359 1834.09L783.78 1875H769.291L749.689 1843.25L730.087 1875H715.598L741.592 1834.09L715.598 1793.18H730.087ZM877.783 1876.49C871.533 1876.49 865.904 1875.25 860.897 1872.76C855.89 1870.28 851.877 1866.87 848.859 1862.54C845.84 1858.2 844.189 1853.27 843.905 1847.73H856.689C857.186 1852.66 859.424 1856.75 863.401 1859.98C867.414 1863.17 872.208 1864.77 877.783 1864.77C882.257 1864.77 886.235 1863.73 889.715 1861.63C893.23 1859.53 895.983 1856.66 897.971 1853C899.995 1849.31 901.007 1845.13 901.007 1840.48C901.007 1835.72 899.96 1831.48 897.865 1827.75C895.805 1823.99 892.964 1821.02 889.342 1818.86C885.72 1816.69 881.583 1815.59 876.931 1815.55C873.593 1815.52 870.166 1816.03 866.65 1817.1C863.135 1818.13 860.24 1819.46 857.968 1821.09L845.61 1819.6L852.215 1765.91H908.891V1777.63H863.294L859.459 1809.8H860.098C862.335 1808.03 865.141 1806.55 868.514 1805.38C871.888 1804.21 875.404 1803.62 879.061 1803.62C885.737 1803.62 891.686 1805.22 896.906 1808.42C902.161 1811.58 906.281 1815.91 909.264 1821.41C912.282 1826.92 913.791 1833.2 913.791 1840.27C913.791 1847.23 912.229 1853.44 909.104 1858.91C906.014 1864.35 901.753 1868.64 896.32 1871.8C890.887 1874.93 884.708 1876.49 877.783 1876.49Z" fill="white"/>
<path d="M687.595 753.628V741.909H769.413V753.628H735.109V851H721.899V753.628H687.595ZM788.097 769.182L807.699 802.634L827.301 769.182H841.79L815.369 810.091L841.79 851H827.301L807.699 819.253L788.097 851H773.608L799.602 810.091L773.608 769.182H788.097ZM899.145 828.628V817.761L947.085 741.909H954.969V758.741H949.642L913.421 816.057V816.909H977.98V828.628H899.145ZM950.494 851V825.325V820.265V741.909H963.065V851H950.494Z" fill="white"/>
<path d="M2905.3 846.628V834.909H2987.12V846.628H2952.82V944H2939.61V846.628H2905.3ZM3005.81 862.182L3025.41 895.634L3045.01 862.182H3059.5L3033.08 903.091L3059.5 944H3045.01L3025.41 912.253L3005.81 944H2991.32L3017.31 903.091L2991.32 862.182H3005.81ZM3119.41 944V934.412L3155.42 894.994C3159.65 890.378 3163.13 886.365 3165.86 882.956C3168.59 879.511 3170.62 876.28 3171.93 873.261C3173.28 870.207 3173.96 867.011 3173.96 863.673C3173.96 859.838 3173.03 856.518 3171.19 853.712C3169.38 850.907 3166.89 848.741 3163.73 847.214C3160.57 845.687 3157.02 844.923 3153.08 844.923C3148.89 844.923 3145.23 845.793 3142.1 847.533C3139.01 849.238 3136.62 851.635 3134.91 854.724C3133.24 857.814 3132.41 861.436 3132.41 865.591H3119.84C3119.84 859.199 3121.31 853.588 3124.26 848.759C3127.21 843.929 3131.22 840.165 3136.3 837.466C3141.41 834.767 3147.15 833.418 3153.5 833.418C3159.89 833.418 3165.56 834.767 3170.49 837.466C3175.43 840.165 3179.3 843.805 3182.11 848.386C3184.91 852.967 3186.32 858.062 3186.32 863.673C3186.32 867.686 3185.59 871.61 3184.13 875.445C3182.71 879.245 3180.22 883.489 3176.67 888.176C3173.16 892.828 3168.28 898.51 3162.03 905.222L3137.52 931.429V932.281H3188.23V944H3119.41Z" fill="white"/>
<path d="M2543.35 1777.63V1765.91H2625.17V1777.63H2590.87V1875H2577.66V1777.63H2543.35ZM2643.85 1793.18L2663.46 1826.63L2683.06 1793.18H2697.55L2671.13 1834.09L2697.55 1875H2683.06L2663.46 1843.25L2643.85 1875H2629.36L2655.36 1834.09L2629.36 1793.18H2643.85ZM2795.81 1765.91V1875H2782.6V1779.76H2781.96L2755.33 1797.44V1784.02L2782.6 1765.91H2795.81Z" fill="white"/>
<path d="M1475.93 1553.99C1472.05 1553.99 1468.58 1553.18 1465.52 1551.54C1462.49 1549.89 1460.09 1547.61 1458.32 1544.73C1456.56 1541.84 1455.66 1538.54 1455.62 1534.82H1459.98C1460.08 1539.22 1461.61 1542.83 1464.57 1545.65C1467.52 1548.47 1471.31 1549.88 1475.93 1549.88C1479.48 1549.88 1482.61 1549.02 1485.3 1547.32C1488.03 1545.59 1490.16 1543.25 1491.7 1540.29C1493.23 1537.33 1493.99 1533.99 1493.97 1530.27C1493.97 1526.34 1493.14 1522.91 1491.48 1519.97C1489.83 1517.04 1487.61 1514.77 1484.84 1513.16C1482.07 1511.55 1479.01 1510.73 1475.64 1510.71C1472.99 1510.71 1470.51 1511.19 1468.19 1512.16C1465.87 1513.11 1463.89 1514.33 1462.26 1515.82L1457.25 1515.11L1461.55 1480.27H1495.64V1484.39H1465.35L1462.01 1511.63H1462.36C1464.07 1510.11 1466.09 1508.89 1468.44 1507.97C1470.8 1507.02 1473.37 1506.55 1476.14 1506.55C1480.21 1506.55 1483.93 1507.55 1487.29 1509.53C1490.68 1511.52 1493.37 1514.29 1495.35 1517.84C1497.37 1521.39 1498.36 1525.53 1498.34 1530.24C1498.31 1534.78 1497.34 1538.84 1495.42 1542.42C1493.51 1545.99 1490.86 1548.82 1487.47 1550.9C1484.11 1552.96 1480.26 1553.99 1475.93 1553.99ZM1535.9 1553.99C1531.05 1553.99 1526.88 1552.5 1523.4 1549.52C1519.92 1546.54 1517.24 1542.26 1515.37 1536.7C1513.53 1531.11 1512.6 1524.43 1512.6 1516.64C1512.6 1508.87 1513.54 1502.2 1515.41 1496.61C1517.28 1491.02 1519.94 1486.74 1523.4 1483.75C1526.88 1480.77 1531.05 1479.28 1535.9 1479.28C1540.75 1479.28 1544.91 1480.77 1548.36 1483.75C1551.84 1486.74 1554.52 1491.02 1556.39 1496.61C1558.26 1502.2 1559.19 1508.87 1559.19 1516.64C1559.19 1524.43 1558.26 1531.11 1556.39 1536.7C1554.54 1542.26 1551.88 1546.54 1548.4 1549.52C1544.92 1552.5 1540.75 1553.99 1535.9 1553.99ZM1535.9 1549.88C1541.79 1549.88 1546.42 1546.95 1549.78 1541.1C1553.15 1535.23 1554.83 1527.08 1554.83 1516.64C1554.83 1509.68 1554.06 1503.71 1552.52 1498.74C1551 1493.77 1548.84 1489.97 1546.02 1487.34C1543.2 1484.69 1539.83 1483.36 1535.9 1483.36C1530 1483.36 1525.38 1486.3 1522.01 1492.17C1518.65 1498.04 1516.97 1506.2 1516.97 1516.64C1516.97 1523.6 1517.73 1529.56 1519.24 1534.53C1520.76 1539.48 1522.93 1543.28 1525.74 1545.93C1528.58 1548.56 1531.97 1549.88 1535.9 1549.88ZM1596.15 1553.99C1591.3 1553.99 1587.13 1552.5 1583.65 1549.52C1580.17 1546.54 1577.5 1542.26 1575.63 1536.7C1573.78 1531.11 1572.86 1524.43 1572.86 1516.64C1572.86 1508.87 1573.79 1502.2 1575.66 1496.61C1577.53 1491.02 1580.2 1486.74 1583.65 1483.75C1587.13 1480.77 1591.3 1479.28 1596.15 1479.28C1601.01 1479.28 1605.16 1480.77 1608.62 1483.75C1612.1 1486.74 1614.77 1491.02 1616.64 1496.61C1618.51 1502.2 1619.45 1508.87 1619.45 1516.64C1619.45 1524.43 1618.51 1531.11 1616.64 1536.7C1614.8 1542.26 1612.13 1546.54 1608.65 1549.52C1605.17 1552.5 1601.01 1553.99 1596.15 1553.99ZM1596.15 1549.88C1602.05 1549.88 1606.68 1546.95 1610.04 1541.1C1613.4 1535.23 1615.08 1527.08 1615.08 1516.64C1615.08 1509.68 1614.31 1503.71 1612.77 1498.74C1611.26 1493.77 1609.09 1489.97 1606.27 1487.34C1603.46 1484.69 1600.08 1483.36 1596.15 1483.36C1590.26 1483.36 1585.63 1486.3 1582.27 1492.17C1578.91 1498.04 1577.23 1506.2 1577.23 1516.64C1577.23 1523.6 1577.98 1529.56 1579.5 1534.53C1581.01 1539.48 1583.18 1543.28 1586 1545.93C1588.84 1548.56 1592.22 1549.88 1596.15 1549.88ZM1656.41 1553.99C1651.55 1553.99 1647.39 1552.5 1643.91 1549.52C1640.43 1546.54 1637.75 1542.26 1635.88 1536.7C1634.03 1531.11 1633.11 1524.43 1633.11 1516.64C1633.11 1508.87 1634.05 1502.2 1635.92 1496.61C1637.79 1491.02 1640.45 1486.74 1643.91 1483.75C1647.39 1480.77 1651.55 1479.28 1656.41 1479.28C1661.26 1479.28 1665.41 1480.77 1668.87 1483.75C1672.35 1486.74 1675.03 1491.02 1676.9 1496.61C1678.77 1502.2 1679.7 1508.87 1679.7 1516.64C1679.7 1524.43 1678.77 1531.11 1676.9 1536.7C1675.05 1542.26 1672.39 1546.54 1668.91 1549.52C1665.43 1552.5 1661.26 1553.99 1656.41 1553.99ZM1656.41 1549.88C1662.3 1549.88 1666.93 1546.95 1670.29 1541.1C1673.65 1535.23 1675.33 1527.08 1675.33 1516.64C1675.33 1509.68 1674.56 1503.71 1673.03 1498.74C1671.51 1493.77 1669.34 1489.97 1666.53 1487.34C1663.71 1484.69 1660.34 1483.36 1656.41 1483.36C1650.51 1483.36 1645.88 1486.3 1642.52 1492.17C1639.16 1498.04 1637.48 1506.2 1637.48 1516.64C1637.48 1523.6 1638.24 1529.56 1639.75 1534.53C1641.27 1539.48 1643.43 1543.28 1646.25 1545.93C1649.09 1548.56 1652.48 1549.88 1656.41 1549.88ZM1758.32 1510.21L1754.3 1511.27C1753.66 1509.29 1752.75 1507.57 1751.57 1506.12C1750.38 1504.68 1748.89 1503.57 1747.09 1502.79C1745.32 1501.98 1743.19 1501.58 1740.7 1501.58C1736.7 1501.58 1733.42 1502.57 1730.87 1504.56C1728.33 1506.55 1727.07 1509.14 1727.07 1512.34C1727.07 1514.94 1727.93 1517.1 1729.66 1518.8C1731.39 1520.48 1734.03 1521.76 1737.58 1522.64L1745.96 1524.73C1750.27 1525.8 1753.51 1527.53 1755.69 1529.92C1757.87 1532.29 1758.95 1535.23 1758.95 1538.76C1758.95 1541.77 1758.14 1544.43 1756.5 1546.75C1754.87 1549.07 1752.61 1550.88 1749.72 1552.18C1746.86 1553.49 1743.52 1554.14 1739.71 1554.14C1734.62 1554.14 1730.44 1552.95 1727.17 1550.59C1723.9 1548.19 1721.81 1544.77 1720.89 1540.32L1725.04 1539.26C1725.82 1542.81 1727.44 1545.52 1729.91 1547.39C1732.39 1549.24 1735.65 1550.16 1739.67 1550.16C1744.12 1550.16 1747.71 1549.11 1750.43 1547C1753.18 1544.89 1754.55 1542.19 1754.55 1538.9C1754.55 1536.39 1753.75 1534.27 1752.14 1532.55C1750.53 1530.82 1748.09 1529.55 1744.82 1528.75L1736.12 1526.62C1731.67 1525.53 1728.33 1523.79 1726.11 1521.39C1723.88 1518.98 1722.77 1516.01 1722.77 1512.48C1722.77 1509.55 1723.54 1506.97 1725.08 1504.74C1726.62 1502.51 1728.73 1500.77 1731.43 1499.52C1734.13 1498.27 1737.22 1497.64 1740.7 1497.64C1745.32 1497.64 1749.08 1498.73 1751.99 1500.9C1754.91 1503.08 1757.01 1506.18 1758.32 1510.21ZM1788.4 1554.17C1785.25 1554.17 1782.37 1553.54 1779.74 1552.29C1777.13 1551.04 1775.04 1549.2 1773.45 1546.79C1771.89 1544.37 1771.11 1541.44 1771.11 1537.98C1771.11 1535.71 1771.51 1533.71 1772.32 1531.98C1773.12 1530.25 1774.36 1528.76 1776.04 1527.5C1777.73 1526.25 1779.88 1525.22 1782.51 1524.41C1785.14 1523.58 1788.27 1522.95 1791.92 1522.5C1794.69 1522.16 1797.16 1521.84 1799.34 1521.54C1801.52 1521.21 1803.22 1520.7 1804.45 1520.01C1805.71 1519.32 1806.34 1518.28 1806.34 1516.88V1514.61C1806.34 1510.63 1805.08 1507.47 1802.57 1505.13C1800.06 1502.79 1796.61 1501.62 1792.2 1501.62C1788.3 1501.62 1785.01 1502.48 1782.33 1504.21C1779.68 1505.91 1777.82 1508.11 1776.75 1510.81L1772.67 1509.29C1773.71 1506.68 1775.22 1504.52 1777.18 1502.79C1779.17 1501.06 1781.44 1499.77 1784 1498.92C1786.58 1498.06 1789.28 1497.64 1792.1 1497.64C1794.53 1497.64 1796.85 1497.98 1799.06 1498.67C1801.28 1499.35 1803.26 1500.4 1804.99 1501.79C1806.74 1503.19 1808.12 1504.98 1809.14 1507.15C1810.16 1509.31 1810.67 1511.89 1810.67 1514.9V1553H1806.34V1543.16H1806.02C1805.07 1545.2 1803.77 1547.06 1802.11 1548.74C1800.48 1550.4 1798.5 1551.72 1796.18 1552.72C1793.88 1553.69 1791.29 1554.17 1788.4 1554.17ZM1788.83 1550.16C1792.24 1550.16 1795.26 1549.33 1797.88 1547.67C1800.54 1545.99 1802.61 1543.7 1804.1 1540.78C1805.59 1537.87 1806.34 1534.57 1806.34 1530.88V1522.85C1805.79 1523.32 1805 1523.75 1803.96 1524.13C1802.94 1524.48 1801.78 1524.8 1800.48 1525.09C1799.2 1525.35 1797.85 1525.59 1796.43 1525.8C1795.03 1525.99 1793.67 1526.17 1792.34 1526.33C1788.37 1526.8 1785.12 1527.54 1782.61 1528.53C1780.13 1529.5 1778.31 1530.78 1777.15 1532.37C1776.01 1533.95 1775.44 1535.87 1775.44 1538.12C1775.44 1541.84 1776.72 1544.77 1779.28 1546.93C1781.83 1549.08 1785.02 1550.16 1788.83 1550.16ZM1848.11 1498.45V1502.33H1824.29V1498.45H1848.11ZM1832.35 1485.39H1836.64V1540.11C1836.64 1542.33 1837.07 1544.16 1837.92 1545.58C1838.8 1546.97 1839.94 1548.02 1841.33 1548.7C1842.75 1549.37 1844.27 1549.7 1845.88 1549.7C1846.66 1549.7 1847.33 1549.64 1847.9 1549.52C1848.49 1549.4 1849.05 1549.25 1849.57 1549.06L1850.64 1553C1849.97 1553.24 1849.24 1553.44 1848.43 1553.6C1847.63 1553.79 1846.68 1553.89 1845.59 1553.89C1843.32 1553.89 1841.17 1553.38 1839.13 1552.36C1837.12 1551.34 1835.48 1549.86 1834.23 1547.92C1832.98 1545.98 1832.35 1543.64 1832.35 1540.89V1485.39ZM1897.87 1510.21L1893.85 1511.27C1893.21 1509.29 1892.3 1507.57 1891.12 1506.12C1889.94 1504.68 1888.44 1503.57 1886.64 1502.79C1884.87 1501.98 1882.74 1501.58 1880.25 1501.58C1876.25 1501.58 1872.97 1502.57 1870.42 1504.56C1867.88 1506.55 1866.62 1509.14 1866.62 1512.34C1866.62 1514.94 1867.48 1517.1 1869.21 1518.8C1870.94 1520.48 1873.58 1521.76 1877.13 1522.64L1885.51 1524.73C1889.82 1525.8 1893.06 1527.53 1895.24 1529.92C1897.42 1532.29 1898.51 1535.23 1898.51 1538.76C1898.51 1541.77 1897.69 1544.43 1896.06 1546.75C1894.42 1549.07 1892.16 1550.88 1889.27 1552.18C1886.41 1553.49 1883.07 1554.14 1879.26 1554.14C1874.17 1554.14 1869.99 1552.95 1866.72 1550.59C1863.46 1548.19 1861.36 1544.77 1860.44 1540.32L1864.59 1539.26C1865.37 1542.81 1866.99 1545.52 1869.46 1547.39C1871.94 1549.24 1875.2 1550.16 1879.22 1550.16C1883.67 1550.16 1887.26 1549.11 1889.98 1547C1892.73 1544.89 1894.1 1542.19 1894.1 1538.9C1894.1 1536.39 1893.3 1534.27 1891.69 1532.55C1890.08 1530.82 1887.64 1529.55 1884.37 1528.75L1875.67 1526.62C1871.22 1525.53 1867.88 1523.79 1865.66 1521.39C1863.43 1518.98 1862.32 1516.01 1862.32 1512.48C1862.32 1509.55 1863.09 1506.97 1864.63 1504.74C1866.17 1502.51 1868.29 1500.77 1870.98 1499.52C1873.68 1498.27 1876.77 1497.64 1880.25 1497.64C1884.87 1497.64 1888.63 1498.73 1891.55 1500.9C1894.46 1503.08 1896.56 1506.18 1897.87 1510.21Z" fill="#10A54A"/>
<path d="M634.683 2099.99C630.8 2099.99 627.332 2099.18 624.278 2097.54C621.248 2095.89 618.845 2093.61 617.069 2090.73C615.317 2087.84 614.418 2084.54 614.37 2080.82H618.738C618.833 2085.22 620.36 2088.83 623.319 2091.65C626.279 2094.47 630.066 2095.88 634.683 2095.88C638.234 2095.88 641.359 2095.02 644.058 2093.32C646.78 2091.59 648.911 2089.25 650.45 2086.29C651.989 2083.33 652.746 2079.99 652.723 2076.27C652.723 2072.34 651.894 2068.91 650.237 2065.97C648.58 2063.04 646.366 2060.77 643.596 2059.16C640.826 2057.55 637.761 2056.73 634.399 2056.71C631.747 2056.71 629.261 2057.19 626.941 2058.16C624.621 2059.11 622.645 2060.33 621.011 2061.82L616.004 2061.11L620.301 2026.27H654.392V2030.39H624.1L620.762 2057.63H621.118C622.822 2056.11 624.846 2054.89 627.19 2053.97C629.557 2053.02 632.126 2052.55 634.896 2052.55C638.968 2052.55 642.685 2053.55 646.047 2055.53C649.432 2057.52 652.119 2060.29 654.108 2063.84C656.12 2067.39 657.114 2071.53 657.091 2076.24C657.067 2080.78 656.096 2084.84 654.179 2088.42C652.261 2091.99 649.609 2094.82 646.224 2096.9C642.862 2098.96 639.015 2099.99 634.683 2099.99ZM694.653 2099.99C689.799 2099.99 685.633 2098.5 682.153 2095.52C678.673 2092.54 675.997 2088.26 674.127 2082.7C672.281 2077.11 671.357 2070.43 671.357 2062.64C671.357 2054.87 672.292 2048.2 674.163 2042.61C676.033 2037.02 678.696 2032.74 682.153 2029.75C685.633 2026.77 689.799 2025.28 694.653 2025.28C699.506 2025.28 703.661 2026.77 707.117 2029.75C710.597 2032.74 713.272 2037.02 715.143 2042.61C717.013 2048.2 717.948 2054.87 717.948 2062.64C717.948 2070.43 717.013 2077.11 715.143 2082.7C713.296 2088.26 710.633 2092.54 707.153 2095.52C703.673 2098.5 699.506 2099.99 694.653 2099.99ZM694.653 2095.88C700.548 2095.88 705.176 2092.95 708.538 2087.1C711.899 2081.23 713.58 2073.08 713.58 2062.64C713.58 2055.68 712.811 2049.71 711.272 2044.74C709.757 2039.77 707.591 2035.97 704.773 2033.34C701.956 2030.69 698.583 2029.36 694.653 2029.36C688.758 2029.36 684.129 2032.3 680.768 2038.17C677.406 2044.04 675.725 2052.2 675.725 2062.64C675.725 2069.6 676.483 2075.56 677.998 2080.53C679.513 2085.48 681.679 2089.28 684.496 2091.93C687.337 2094.56 690.723 2095.88 694.653 2095.88ZM796.561 2056.21L792.549 2057.27C791.909 2055.29 790.998 2053.57 789.814 2052.12C788.631 2050.68 787.139 2049.57 785.34 2048.79C783.564 2047.98 781.434 2047.58 778.948 2047.58C774.947 2047.58 771.668 2048.57 769.111 2050.56C766.578 2052.55 765.311 2055.14 765.311 2058.34C765.311 2060.94 766.176 2063.1 767.904 2064.8C769.632 2066.48 772.272 2067.76 775.823 2068.64L784.203 2070.73C788.512 2071.8 791.756 2073.53 793.934 2075.92C796.112 2078.29 797.201 2081.23 797.201 2084.76C797.201 2087.77 796.384 2090.43 794.75 2092.75C793.117 2095.07 790.856 2096.88 787.968 2098.18C785.103 2099.49 781.765 2100.14 777.953 2100.14C772.864 2100.14 768.685 2098.95 765.418 2096.59C762.151 2094.19 760.056 2090.77 759.132 2086.32L763.287 2085.26C764.069 2088.81 765.69 2091.52 768.152 2093.39C770.638 2095.24 773.893 2096.16 777.918 2096.16C782.369 2096.16 785.955 2095.11 788.678 2093C791.424 2090.89 792.797 2088.19 792.797 2084.9C792.797 2082.39 791.992 2080.27 790.382 2078.55C788.773 2076.82 786.334 2075.55 783.067 2074.75L774.367 2072.62C769.916 2071.53 766.578 2069.79 764.353 2067.39C762.127 2064.98 761.015 2062.01 761.015 2058.48C761.015 2055.55 761.784 2052.97 763.323 2050.74C764.862 2048.51 766.98 2046.77 769.679 2045.52C772.378 2044.27 775.468 2043.64 778.948 2043.64C783.564 2043.64 787.328 2044.73 790.24 2046.9C793.152 2049.08 795.259 2052.18 796.561 2056.21ZM826.648 2100.17C823.5 2100.17 820.612 2099.54 817.984 2098.29C815.379 2097.04 813.284 2095.2 811.698 2092.79C810.136 2090.37 809.354 2087.44 809.354 2083.98C809.354 2081.71 809.757 2079.71 810.562 2077.98C811.367 2076.25 812.61 2074.76 814.29 2073.5C815.971 2072.25 818.126 2071.22 820.754 2070.41C823.381 2069.58 826.518 2068.95 830.164 2068.5C832.934 2068.16 835.408 2067.84 837.586 2067.54C839.764 2067.21 841.469 2066.7 842.7 2066.01C843.954 2065.32 844.582 2064.28 844.582 2062.88V2060.61C844.582 2056.63 843.327 2053.47 840.817 2051.13C838.308 2048.79 834.852 2047.62 830.448 2047.62C826.542 2047.62 823.251 2048.48 820.576 2050.21C817.924 2051.91 816.066 2054.11 815.001 2056.81L810.917 2055.29C811.959 2052.68 813.462 2050.52 815.427 2048.79C817.415 2047.06 819.688 2045.77 822.245 2044.92C824.826 2044.06 827.524 2043.64 830.342 2043.64C832.78 2043.64 835.1 2043.98 837.302 2044.67C839.527 2045.35 841.504 2046.4 843.232 2047.79C844.984 2049.19 846.369 2050.98 847.387 2053.15C848.405 2055.31 848.914 2057.89 848.914 2060.9V2099H844.582V2089.16H844.262C843.315 2091.2 842.013 2093.06 840.356 2094.74C838.722 2096.4 836.746 2097.72 834.425 2098.72C832.129 2099.69 829.537 2100.17 826.648 2100.17ZM827.075 2096.16C830.484 2096.16 833.502 2095.33 836.13 2093.67C838.781 2091.99 840.853 2089.7 842.344 2086.78C843.836 2083.87 844.582 2080.57 844.582 2076.88V2068.85C844.037 2069.32 843.244 2069.75 842.202 2070.13C841.184 2070.48 840.024 2070.8 838.722 2071.09C837.444 2071.35 836.094 2071.59 834.674 2071.8C833.277 2071.99 831.916 2072.17 830.59 2072.33C826.613 2072.8 823.37 2073.54 820.86 2074.53C818.374 2075.5 816.551 2076.78 815.391 2078.37C814.255 2079.95 813.687 2081.87 813.687 2084.12C813.687 2087.84 814.965 2090.77 817.522 2092.93C820.079 2095.08 823.263 2096.16 827.075 2096.16ZM886.361 2044.45V2048.33H862.533V2044.45H886.361ZM870.594 2031.39H874.891V2086.11C874.891 2088.33 875.317 2090.16 876.169 2091.58C877.045 2092.97 878.181 2094.02 879.578 2094.7C880.999 2095.37 882.514 2095.7 884.124 2095.7C884.905 2095.7 885.58 2095.64 886.148 2095.52C886.74 2095.4 887.296 2095.25 887.817 2095.06L888.882 2099C888.219 2099.24 887.485 2099.44 886.68 2099.6C885.875 2099.79 884.929 2099.89 883.839 2099.89C881.567 2099.89 879.412 2099.38 877.376 2098.36C875.364 2097.34 873.731 2095.86 872.476 2093.92C871.221 2091.98 870.594 2089.64 870.594 2086.89V2031.39ZM936.112 2056.21L932.099 2057.27C931.46 2055.29 930.549 2053.57 929.365 2052.12C928.181 2050.68 926.69 2049.57 924.891 2048.79C923.115 2047.98 920.984 2047.58 918.499 2047.58C914.498 2047.58 911.219 2048.57 908.662 2050.56C906.129 2052.55 904.862 2055.14 904.862 2058.34C904.862 2060.94 905.726 2063.1 907.455 2064.8C909.183 2066.48 911.822 2067.76 915.374 2068.64L923.754 2070.73C928.063 2071.8 931.306 2073.53 933.484 2075.92C935.662 2078.29 936.751 2081.23 936.751 2084.76C936.751 2087.77 935.935 2090.43 934.301 2092.75C932.668 2095.07 930.407 2096.88 927.518 2098.18C924.654 2099.49 921.316 2100.14 917.504 2100.14C912.414 2100.14 908.236 2098.95 904.969 2096.59C901.702 2094.19 899.607 2090.77 898.683 2086.32L902.838 2085.26C903.619 2088.81 905.241 2091.52 907.703 2093.39C910.189 2095.24 913.444 2096.16 917.469 2096.16C921.92 2096.16 925.506 2095.11 928.229 2093C930.975 2090.89 932.348 2088.19 932.348 2084.9C932.348 2082.39 931.543 2080.27 929.933 2078.55C928.323 2076.82 925.885 2075.55 922.618 2074.75L913.918 2072.62C909.467 2071.53 906.129 2069.79 903.903 2067.39C901.678 2064.98 900.565 2062.01 900.565 2058.48C900.565 2055.55 901.335 2052.97 902.874 2050.74C904.412 2048.51 906.531 2046.77 909.23 2045.52C911.929 2044.27 915.018 2043.64 918.499 2043.64C923.115 2043.64 926.879 2044.73 929.791 2046.9C932.703 2049.08 934.81 2052.18 936.112 2056.21Z" fill="#FF6262"/>
<path d="M2490.97 2082.66V2079.11L2523.89 2026.27H2526.59V2033.13H2524.28L2496.33 2078.15V2078.55H2538.34V2082.66H2490.97ZM2524.64 2099V2081.46V2079.86V2026.27H2528.97V2099H2524.64ZM2575.27 2099.99C2570.41 2099.99 2566.25 2098.5 2562.77 2095.52C2559.29 2092.54 2556.61 2088.26 2554.74 2082.7C2552.89 2077.11 2551.97 2070.43 2551.97 2062.64C2551.97 2054.87 2552.91 2048.2 2554.78 2042.61C2556.65 2037.02 2559.31 2032.74 2562.77 2029.75C2566.25 2026.77 2570.41 2025.28 2575.27 2025.28C2580.12 2025.28 2584.27 2026.77 2587.73 2029.75C2591.21 2032.74 2593.89 2037.02 2595.76 2042.61C2597.63 2048.2 2598.56 2054.87 2598.56 2062.64C2598.56 2070.43 2597.63 2077.11 2595.76 2082.7C2593.91 2088.26 2591.25 2092.54 2587.77 2095.52C2584.29 2098.5 2580.12 2099.99 2575.27 2099.99ZM2575.27 2095.88C2581.16 2095.88 2585.79 2092.95 2589.15 2087.1C2592.51 2081.23 2594.19 2073.08 2594.19 2062.64C2594.19 2055.68 2593.42 2049.71 2591.89 2044.74C2590.37 2039.77 2588.2 2035.97 2585.39 2033.34C2582.57 2030.69 2579.2 2029.36 2575.27 2029.36C2569.37 2029.36 2564.74 2032.3 2561.38 2038.17C2558.02 2044.04 2556.34 2052.2 2556.34 2062.64C2556.34 2069.6 2557.1 2075.56 2558.61 2080.53C2560.13 2085.48 2562.29 2089.28 2565.11 2091.93C2567.95 2094.56 2571.34 2095.88 2575.27 2095.88ZM2635.52 2099.99C2630.67 2099.99 2626.5 2098.5 2623.02 2095.52C2619.54 2092.54 2616.86 2088.26 2614.99 2082.7C2613.15 2077.11 2612.22 2070.43 2612.22 2062.64C2612.22 2054.87 2613.16 2048.2 2615.03 2042.61C2616.9 2037.02 2619.56 2032.74 2623.02 2029.75C2626.5 2026.77 2630.67 2025.28 2635.52 2025.28C2640.37 2025.28 2644.53 2026.77 2647.98 2029.75C2651.46 2032.74 2654.14 2037.02 2656.01 2042.61C2657.88 2048.2 2658.82 2054.87 2658.82 2062.64C2658.82 2070.43 2657.88 2077.11 2656.01 2082.7C2654.16 2088.26 2651.5 2092.54 2648.02 2095.52C2644.54 2098.5 2640.37 2099.99 2635.52 2099.99ZM2635.52 2095.88C2641.41 2095.88 2646.04 2092.95 2649.4 2087.1C2652.77 2081.23 2654.45 2073.08 2654.45 2062.64C2654.45 2055.68 2653.68 2049.71 2652.14 2044.74C2650.62 2039.77 2648.46 2035.97 2645.64 2033.34C2642.82 2030.69 2639.45 2029.36 2635.52 2029.36C2629.63 2029.36 2625 2032.3 2621.63 2038.17C2618.27 2044.04 2616.59 2052.2 2616.59 2062.64C2616.59 2069.6 2617.35 2075.56 2618.87 2080.53C2620.38 2085.48 2622.55 2089.28 2625.36 2091.93C2628.2 2094.56 2631.59 2095.88 2635.52 2095.88ZM2695.77 2099.99C2690.92 2099.99 2686.75 2098.5 2683.27 2095.52C2679.79 2092.54 2677.12 2088.26 2675.25 2082.7C2673.4 2077.11 2672.48 2070.43 2672.48 2062.64C2672.48 2054.87 2673.41 2048.2 2675.28 2042.61C2677.15 2037.02 2679.82 2032.74 2683.27 2029.75C2686.75 2026.77 2690.92 2025.28 2695.77 2025.28C2700.63 2025.28 2704.78 2026.77 2708.24 2029.75C2711.72 2032.74 2714.39 2037.02 2716.26 2042.61C2718.13 2048.2 2719.07 2054.87 2719.07 2062.64C2719.07 2070.43 2718.13 2077.11 2716.26 2082.7C2714.42 2088.26 2711.75 2092.54 2708.27 2095.52C2704.79 2098.5 2700.63 2099.99 2695.77 2099.99ZM2695.77 2095.88C2701.67 2095.88 2706.3 2092.95 2709.66 2087.1C2713.02 2081.23 2714.7 2073.08 2714.7 2062.64C2714.7 2055.68 2713.93 2049.71 2712.39 2044.74C2710.88 2039.77 2708.71 2035.97 2705.89 2033.34C2703.08 2030.69 2699.7 2029.36 2695.77 2029.36C2689.88 2029.36 2685.25 2032.3 2681.89 2038.17C2678.53 2044.04 2676.85 2052.2 2676.85 2062.64C2676.85 2069.6 2677.6 2075.56 2679.12 2080.53C2680.63 2085.48 2682.8 2089.28 2685.62 2091.93C2688.46 2094.56 2691.84 2095.88 2695.77 2095.88ZM2797.68 2056.21L2793.67 2057.27C2793.03 2055.29 2792.12 2053.57 2790.94 2052.12C2789.75 2050.68 2788.26 2049.57 2786.46 2048.79C2784.69 2047.98 2782.55 2047.58 2780.07 2047.58C2776.07 2047.58 2772.79 2048.57 2770.23 2050.56C2767.7 2052.55 2766.43 2055.14 2766.43 2058.34C2766.43 2060.94 2767.3 2063.1 2769.02 2064.8C2770.75 2066.48 2773.39 2067.76 2776.94 2068.64L2785.32 2070.73C2789.63 2071.8 2792.88 2073.53 2795.05 2075.92C2797.23 2078.29 2798.32 2081.23 2798.32 2084.76C2798.32 2087.77 2797.5 2090.43 2795.87 2092.75C2794.24 2095.07 2791.98 2096.88 2789.09 2098.18C2786.22 2099.49 2782.89 2100.14 2779.07 2100.14C2773.98 2100.14 2769.81 2098.95 2766.54 2096.59C2763.27 2094.19 2761.18 2090.77 2760.25 2086.32L2764.41 2085.26C2765.19 2088.81 2766.81 2091.52 2769.27 2093.39C2771.76 2095.24 2775.01 2096.16 2779.04 2096.16C2783.49 2096.16 2787.08 2095.11 2789.8 2093C2792.55 2090.89 2793.92 2088.19 2793.92 2084.9C2793.92 2082.39 2793.11 2080.27 2791.5 2078.55C2789.89 2076.82 2787.46 2075.55 2784.19 2074.75L2775.49 2072.62C2771.04 2071.53 2767.7 2069.79 2765.47 2067.39C2763.25 2064.98 2762.14 2062.01 2762.14 2058.48C2762.14 2055.55 2762.91 2052.97 2764.44 2050.74C2765.98 2048.51 2768.1 2046.77 2770.8 2045.52C2773.5 2044.27 2776.59 2043.64 2780.07 2043.64C2784.69 2043.64 2788.45 2044.73 2791.36 2046.9C2794.27 2049.08 2796.38 2052.18 2797.68 2056.21ZM2827.77 2100.17C2824.62 2100.17 2821.73 2099.54 2819.1 2098.29C2816.5 2097.04 2814.41 2095.2 2812.82 2092.79C2811.26 2090.37 2810.48 2087.44 2810.48 2083.98C2810.48 2081.71 2810.88 2079.71 2811.68 2077.98C2812.49 2076.25 2813.73 2074.76 2815.41 2073.5C2817.09 2072.25 2819.25 2071.22 2821.87 2070.41C2824.5 2069.58 2827.64 2068.95 2831.29 2068.5C2834.06 2068.16 2836.53 2067.84 2838.71 2067.54C2840.89 2067.21 2842.59 2066.7 2843.82 2066.01C2845.08 2065.32 2845.7 2064.28 2845.7 2062.88V2060.61C2845.7 2056.63 2844.45 2053.47 2841.94 2051.13C2839.43 2048.79 2835.97 2047.62 2831.57 2047.62C2827.66 2047.62 2824.37 2048.48 2821.7 2050.21C2819.05 2051.91 2817.19 2054.11 2816.12 2056.81L2812.04 2055.29C2813.08 2052.68 2814.58 2050.52 2816.55 2048.79C2818.54 2047.06 2820.81 2045.77 2823.37 2044.92C2825.95 2044.06 2828.65 2043.64 2831.46 2043.64C2833.9 2043.64 2836.22 2043.98 2838.42 2044.67C2840.65 2045.35 2842.63 2046.4 2844.35 2047.79C2846.11 2049.19 2847.49 2050.98 2848.51 2053.15C2849.53 2055.31 2850.04 2057.89 2850.04 2060.9V2099H2845.7V2089.16H2845.38C2844.44 2091.2 2843.13 2093.06 2841.48 2094.74C2839.84 2096.4 2837.87 2097.72 2835.55 2098.72C2833.25 2099.69 2830.66 2100.17 2827.77 2100.17ZM2828.2 2096.16C2831.6 2096.16 2834.62 2095.33 2837.25 2093.67C2839.9 2091.99 2841.97 2089.7 2843.47 2086.78C2844.96 2083.87 2845.7 2080.57 2845.7 2076.88V2068.85C2845.16 2069.32 2844.37 2069.75 2843.32 2070.13C2842.31 2070.48 2841.15 2070.8 2839.84 2071.09C2838.56 2071.35 2837.22 2071.59 2835.8 2071.8C2834.4 2071.99 2833.04 2072.17 2831.71 2072.33C2827.73 2072.8 2824.49 2073.54 2821.98 2074.53C2819.5 2075.5 2817.67 2076.78 2816.51 2078.37C2815.38 2079.95 2814.81 2081.87 2814.81 2084.12C2814.81 2087.84 2816.09 2090.77 2818.64 2092.93C2821.2 2095.08 2824.38 2096.16 2828.2 2096.16ZM2887.48 2044.45V2048.33H2863.65V2044.45H2887.48ZM2871.71 2031.39H2876.01V2086.11C2876.01 2088.33 2876.44 2090.16 2877.29 2091.58C2878.17 2092.97 2879.3 2094.02 2880.7 2094.7C2882.12 2095.37 2883.63 2095.7 2885.24 2095.7C2886.03 2095.7 2886.7 2095.64 2887.27 2095.52C2887.86 2095.4 2888.42 2095.25 2888.94 2095.06L2890 2099C2889.34 2099.24 2888.61 2099.44 2887.8 2099.6C2887 2099.79 2886.05 2099.89 2884.96 2099.89C2882.69 2099.89 2880.53 2099.38 2878.5 2098.36C2876.49 2097.34 2874.85 2095.86 2873.6 2093.92C2872.34 2091.98 2871.71 2089.64 2871.71 2086.89V2031.39ZM2937.23 2056.21L2933.22 2057.27C2932.58 2055.29 2931.67 2053.57 2930.49 2052.12C2929.3 2050.68 2927.81 2049.57 2926.01 2048.79C2924.24 2047.98 2922.11 2047.58 2919.62 2047.58C2915.62 2047.58 2912.34 2048.57 2909.78 2050.56C2907.25 2052.55 2905.98 2055.14 2905.98 2058.34C2905.98 2060.94 2906.85 2063.1 2908.58 2064.8C2910.3 2066.48 2912.94 2067.76 2916.49 2068.64L2924.88 2070.73C2929.18 2071.8 2932.43 2073.53 2934.61 2075.92C2936.78 2078.29 2937.87 2081.23 2937.87 2084.76C2937.87 2087.77 2937.06 2090.43 2935.42 2092.75C2933.79 2095.07 2931.53 2096.88 2928.64 2098.18C2925.77 2099.49 2922.44 2100.14 2918.63 2100.14C2913.54 2100.14 2909.36 2098.95 2906.09 2096.59C2902.82 2094.19 2900.73 2090.77 2899.8 2086.32L2903.96 2085.26C2904.74 2088.81 2906.36 2091.52 2908.82 2093.39C2911.31 2095.24 2914.57 2096.16 2918.59 2096.16C2923.04 2096.16 2926.63 2095.11 2929.35 2093C2932.1 2090.89 2933.47 2088.19 2933.47 2084.9C2933.47 2082.39 2932.66 2080.27 2931.05 2078.55C2929.44 2076.82 2927.01 2075.55 2923.74 2074.75L2915.04 2072.62C2910.59 2071.53 2907.25 2069.79 2905.02 2067.39C2902.8 2064.98 2901.69 2062.01 2901.69 2058.48C2901.69 2055.55 2902.46 2052.97 2903.99 2050.74C2905.53 2048.51 2907.65 2046.77 2910.35 2045.52C2913.05 2044.27 2916.14 2043.64 2919.62 2043.64C2924.24 2043.64 2928 2044.73 2930.91 2046.9C2933.82 2049.08 2935.93 2052.18 2937.23 2056.21Z" fill="#10A54A"/>
<path d="M671.407 1008.27V1081H666.968V1012.96H666.542L650.206 1023.79V1019.03L666.4 1008.27H671.407ZM716.213 1081.99C711.36 1081.99 707.193 1080.5 703.713 1077.52C700.233 1074.54 697.558 1070.26 695.688 1064.7C693.841 1059.11 692.918 1052.43 692.918 1044.64C692.918 1036.87 693.853 1030.2 695.723 1024.61C697.593 1019.02 700.257 1014.74 703.713 1011.75C707.193 1008.77 711.36 1007.28 716.213 1007.28C721.066 1007.28 725.221 1008.77 728.678 1011.75C732.158 1014.74 734.833 1019.02 736.703 1024.61C738.574 1030.2 739.509 1036.87 739.509 1044.64C739.509 1052.43 738.574 1059.11 736.703 1064.7C734.857 1070.26 732.193 1074.54 728.713 1077.52C725.233 1080.5 721.066 1081.99 716.213 1081.99ZM716.213 1077.88C722.108 1077.88 726.736 1074.95 730.098 1069.1C733.46 1063.23 735.141 1055.08 735.141 1044.64C735.141 1037.68 734.371 1031.71 732.833 1026.74C731.317 1021.77 729.151 1017.97 726.334 1015.34C723.517 1012.69 720.143 1011.36 716.213 1011.36C710.318 1011.36 705.69 1014.3 702.328 1020.17C698.967 1026.04 697.286 1034.2 697.286 1044.64C697.286 1051.6 698.043 1057.56 699.558 1062.53C701.074 1067.48 703.24 1071.28 706.057 1073.93C708.898 1076.56 712.283 1077.88 716.213 1077.88ZM776.467 1081.99C771.614 1081.99 767.447 1080.5 763.967 1077.52C760.487 1074.54 757.812 1070.26 755.942 1064.7C754.095 1059.11 753.172 1052.43 753.172 1044.64C753.172 1036.87 754.107 1030.2 755.977 1024.61C757.847 1019.02 760.511 1014.74 763.967 1011.75C767.447 1008.77 771.614 1007.28 776.467 1007.28C781.32 1007.28 785.475 1008.77 788.932 1011.75C792.412 1014.74 795.087 1019.02 796.957 1024.61C798.827 1030.2 799.763 1036.87 799.763 1044.64C799.763 1052.43 798.827 1059.11 796.957 1064.7C795.111 1070.26 792.447 1074.54 788.967 1077.52C785.487 1080.5 781.32 1081.99 776.467 1081.99ZM776.467 1077.88C782.362 1077.88 786.99 1074.95 790.352 1069.1C793.714 1063.23 795.395 1055.08 795.395 1044.64C795.395 1037.68 794.625 1031.71 793.086 1026.74C791.571 1021.77 789.405 1017.97 786.588 1015.34C783.771 1012.69 780.397 1011.36 776.467 1011.36C770.572 1011.36 765.944 1014.3 762.582 1020.17C759.22 1026.04 757.54 1034.2 757.54 1044.64C757.54 1051.6 758.297 1057.56 759.812 1062.53C761.327 1067.48 763.494 1071.28 766.311 1073.93C769.152 1076.56 772.537 1077.88 776.467 1077.88ZM878.376 1038.21L874.363 1039.27C873.724 1037.29 872.812 1035.57 871.629 1034.12C870.445 1032.68 868.954 1031.57 867.154 1030.79C865.379 1029.98 863.248 1029.58 860.762 1029.58C856.761 1029.58 853.482 1030.57 850.926 1032.56C848.392 1034.55 847.126 1037.14 847.126 1040.34C847.126 1042.94 847.99 1045.1 849.718 1046.8C851.446 1048.48 854.086 1049.76 857.637 1050.64L866.018 1052.73C870.327 1053.8 873.57 1055.53 875.748 1057.92C877.926 1060.29 879.015 1063.23 879.015 1066.76C879.015 1069.77 878.198 1072.43 876.565 1074.75C874.931 1077.07 872.67 1078.88 869.782 1080.18C866.918 1081.49 863.579 1082.14 859.768 1082.14C854.678 1082.14 850.499 1080.95 847.232 1078.59C843.965 1076.19 841.87 1072.77 840.947 1068.32L845.102 1067.26C845.883 1070.81 847.505 1073.52 849.967 1075.39C852.453 1077.24 855.708 1078.16 859.732 1078.16C864.183 1078.16 867.77 1077.11 870.492 1075C873.239 1072.89 874.612 1070.19 874.612 1066.9C874.612 1064.39 873.807 1062.27 872.197 1060.55C870.587 1058.82 868.149 1057.55 864.882 1056.75L856.181 1054.62C851.731 1053.53 848.392 1051.79 846.167 1049.39C843.942 1046.98 842.829 1044.01 842.829 1040.48C842.829 1037.55 843.598 1034.97 845.137 1032.74C846.676 1030.51 848.795 1028.77 851.494 1027.52C854.193 1026.27 857.282 1025.64 860.762 1025.64C865.379 1025.64 869.143 1026.73 872.055 1028.9C874.967 1031.08 877.074 1034.18 878.376 1038.21ZM908.463 1082.17C905.314 1082.17 902.426 1081.54 899.798 1080.29C897.194 1079.04 895.099 1077.2 893.513 1074.79C891.95 1072.37 891.169 1069.44 891.169 1065.98C891.169 1063.71 891.571 1061.71 892.376 1059.98C893.181 1058.25 894.424 1056.76 896.105 1055.5C897.786 1054.25 899.94 1053.22 902.568 1052.41C905.196 1051.58 908.333 1050.95 911.979 1050.5C914.748 1050.16 917.222 1049.84 919.4 1049.54C921.578 1049.21 923.283 1048.7 924.514 1048.01C925.769 1047.32 926.396 1046.28 926.396 1044.88V1042.61C926.396 1038.63 925.141 1035.47 922.632 1033.13C920.122 1030.79 916.666 1029.62 912.263 1029.62C908.356 1029.62 905.066 1030.48 902.39 1032.21C899.739 1033.91 897.881 1036.11 896.815 1038.81L892.731 1037.29C893.773 1034.68 895.276 1032.52 897.241 1030.79C899.23 1029.06 901.503 1027.77 904.059 1026.92C906.64 1026.06 909.339 1025.64 912.156 1025.64C914.595 1025.64 916.915 1025.98 919.116 1026.67C921.342 1027.35 923.318 1028.4 925.047 1029.79C926.799 1031.19 928.184 1032.98 929.202 1035.15C930.22 1037.31 930.729 1039.89 930.729 1042.9V1081H926.396V1071.16H926.077C925.13 1073.2 923.827 1075.06 922.17 1076.74C920.537 1078.4 918.56 1079.72 916.24 1080.72C913.943 1081.69 911.351 1082.17 908.463 1082.17ZM908.889 1078.16C912.298 1078.16 915.317 1077.33 917.944 1075.67C920.596 1073.99 922.667 1071.7 924.159 1068.78C925.65 1065.87 926.396 1062.57 926.396 1058.88V1050.85C925.852 1051.32 925.059 1051.75 924.017 1052.13C922.999 1052.48 921.839 1052.8 920.537 1053.09C919.258 1053.35 917.909 1053.59 916.488 1053.8C915.092 1053.99 913.73 1054.17 912.405 1054.33C908.427 1054.8 905.184 1055.54 902.675 1056.53C900.189 1057.5 898.366 1058.78 897.206 1060.37C896.069 1061.95 895.501 1063.87 895.501 1066.12C895.501 1069.84 896.78 1072.77 899.336 1074.93C901.893 1077.08 905.077 1078.16 908.889 1078.16ZM968.175 1026.45V1030.33H944.347V1026.45H968.175ZM952.408 1013.39H956.705V1068.11C956.705 1070.33 957.131 1072.16 957.983 1073.58C958.859 1074.97 959.996 1076.02 961.393 1076.7C962.813 1077.37 964.328 1077.7 965.938 1077.7C966.719 1077.7 967.394 1077.64 967.962 1077.52C968.554 1077.4 969.11 1077.25 969.631 1077.06L970.697 1081C970.034 1081.24 969.3 1081.44 968.495 1081.6C967.69 1081.79 966.743 1081.89 965.654 1081.89C963.381 1081.89 961.227 1081.38 959.191 1080.36C957.179 1079.34 955.545 1077.86 954.29 1075.92C953.036 1073.98 952.408 1071.64 952.408 1068.89V1013.39ZM1017.93 1038.21L1013.91 1039.27C1013.27 1037.29 1012.36 1035.57 1011.18 1034.12C1010 1032.68 1008.5 1031.57 1006.71 1030.79C1004.93 1029.98 1002.8 1029.58 1000.31 1029.58C996.312 1029.58 993.033 1030.57 990.476 1032.56C987.943 1034.55 986.677 1037.14 986.677 1040.34C986.677 1042.94 987.541 1045.1 989.269 1046.8C990.997 1048.48 993.637 1049.76 997.188 1050.64L1005.57 1052.73C1009.88 1053.8 1013.12 1055.53 1015.3 1057.92C1017.48 1060.29 1018.57 1063.23 1018.57 1066.76C1018.57 1069.77 1017.75 1072.43 1016.12 1074.75C1014.48 1077.07 1012.22 1078.88 1009.33 1080.18C1006.47 1081.49 1003.13 1082.14 999.319 1082.14C994.229 1082.14 990.05 1080.95 986.783 1078.59C983.516 1076.19 981.421 1072.77 980.498 1068.32L984.653 1067.26C985.434 1070.81 987.055 1073.52 989.518 1075.39C992.003 1077.24 995.259 1078.16 999.283 1078.16C1003.73 1078.16 1007.32 1077.11 1010.04 1075C1012.79 1072.89 1014.16 1070.19 1014.16 1066.9C1014.16 1064.39 1013.36 1062.27 1011.75 1060.55C1010.14 1058.82 1007.7 1057.55 1004.43 1056.75L995.732 1054.62C991.281 1053.53 987.943 1051.79 985.718 1049.39C983.492 1046.98 982.38 1044.01 982.38 1040.48C982.38 1037.55 983.149 1034.97 984.688 1032.74C986.227 1030.51 988.346 1028.77 991.045 1027.52C993.743 1026.27 996.833 1025.64 1000.31 1025.64C1004.93 1025.64 1008.69 1026.73 1011.61 1028.9C1014.52 1031.08 1016.62 1034.18 1017.93 1038.21Z" fill="#FF6262"/>
<path d="M2832.73 1161L2866.5 1092.78V1092.39H2827.69V1088.27H2871.33V1092.53L2837.52 1161H2832.73ZM2906.2 1161.99C2901.35 1161.99 2897.18 1160.5 2893.7 1157.52C2890.22 1154.54 2887.55 1150.26 2885.68 1144.7C2883.83 1139.11 2882.91 1132.43 2882.91 1124.64C2882.91 1116.87 2883.84 1110.2 2885.71 1104.61C2887.58 1099.02 2890.25 1094.74 2893.7 1091.75C2897.18 1088.77 2901.35 1087.28 2906.2 1087.28C2911.05 1087.28 2915.21 1088.77 2918.67 1091.75C2922.15 1094.74 2924.82 1099.02 2926.69 1104.61C2928.56 1110.2 2929.5 1116.87 2929.5 1124.64C2929.5 1132.43 2928.56 1139.11 2926.69 1144.7C2924.84 1150.26 2922.18 1154.54 2918.7 1157.52C2915.22 1160.5 2911.05 1161.99 2906.2 1161.99ZM2906.2 1157.88C2912.1 1157.88 2916.72 1154.95 2920.09 1149.1C2923.45 1143.23 2925.13 1135.08 2925.13 1124.64C2925.13 1117.68 2924.36 1111.71 2922.82 1106.74C2921.31 1101.77 2919.14 1097.97 2916.32 1095.34C2913.51 1092.69 2910.13 1091.36 2906.2 1091.36C2900.31 1091.36 2895.68 1094.3 2892.32 1100.17C2888.95 1106.04 2887.27 1114.2 2887.27 1124.64C2887.27 1131.6 2888.03 1137.56 2889.55 1142.53C2891.06 1147.48 2893.23 1151.28 2896.05 1153.93C2898.89 1156.56 2902.27 1157.88 2906.2 1157.88ZM2966.46 1161.99C2961.6 1161.99 2957.44 1160.5 2953.96 1157.52C2950.48 1154.54 2947.8 1150.26 2945.93 1144.7C2944.08 1139.11 2943.16 1132.43 2943.16 1124.64C2943.16 1116.87 2944.1 1110.2 2945.97 1104.61C2947.84 1099.02 2950.5 1094.74 2953.96 1091.75C2957.44 1088.77 2961.6 1087.28 2966.46 1087.28C2971.31 1087.28 2975.46 1088.77 2978.92 1091.75C2982.4 1094.74 2985.08 1099.02 2986.95 1104.61C2988.82 1110.2 2989.75 1116.87 2989.75 1124.64C2989.75 1132.43 2988.82 1139.11 2986.95 1144.7C2985.1 1150.26 2982.44 1154.54 2978.96 1157.52C2975.48 1160.5 2971.31 1161.99 2966.46 1161.99ZM2966.46 1157.88C2972.35 1157.88 2976.98 1154.95 2980.34 1149.1C2983.7 1143.23 2985.38 1135.08 2985.38 1124.64C2985.38 1117.68 2984.61 1111.71 2983.07 1106.74C2981.56 1101.77 2979.39 1097.97 2976.58 1095.34C2973.76 1092.69 2970.39 1091.36 2966.46 1091.36C2960.56 1091.36 2955.93 1094.3 2952.57 1100.17C2949.21 1106.04 2947.53 1114.2 2947.53 1124.64C2947.53 1131.6 2948.29 1137.56 2949.8 1142.53C2951.32 1147.48 2953.48 1151.28 2956.3 1153.93C2959.14 1156.56 2962.53 1157.88 2966.46 1157.88ZM3026.71 1161.99C3021.86 1161.99 3017.69 1160.5 3014.21 1157.52C3010.73 1154.54 3008.05 1150.26 3006.18 1144.7C3004.34 1139.11 3003.41 1132.43 3003.41 1124.64C3003.41 1116.87 3004.35 1110.2 3006.22 1104.61C3008.09 1099.02 3010.75 1094.74 3014.21 1091.75C3017.69 1088.77 3021.86 1087.28 3026.71 1087.28C3031.56 1087.28 3035.72 1088.77 3039.17 1091.75C3042.65 1094.74 3045.33 1099.02 3047.2 1104.61C3049.07 1110.2 3050 1116.87 3050 1124.64C3050 1132.43 3049.07 1139.11 3047.2 1144.7C3045.35 1150.26 3042.69 1154.54 3039.21 1157.52C3035.73 1160.5 3031.56 1161.99 3026.71 1161.99ZM3026.71 1157.88C3032.6 1157.88 3037.23 1154.95 3040.59 1149.1C3043.96 1143.23 3045.64 1135.08 3045.64 1124.64C3045.64 1117.68 3044.87 1111.71 3043.33 1106.74C3041.81 1101.77 3039.65 1097.97 3036.83 1095.34C3034.01 1092.69 3030.64 1091.36 3026.71 1091.36C3020.81 1091.36 3016.19 1094.3 3012.82 1100.17C3009.46 1106.04 3007.78 1114.2 3007.78 1124.64C3007.78 1131.6 3008.54 1137.56 3010.05 1142.53C3011.57 1147.48 3013.74 1151.28 3016.55 1153.93C3019.39 1156.56 3022.78 1157.88 3026.71 1157.88ZM3128.62 1118.21L3124.61 1119.27C3123.97 1117.29 3123.05 1115.57 3121.87 1114.12C3120.69 1112.68 3119.2 1111.57 3117.4 1110.79C3115.62 1109.98 3113.49 1109.58 3111 1109.58C3107 1109.58 3103.72 1110.57 3101.17 1112.56C3098.63 1114.55 3097.37 1117.14 3097.37 1120.34C3097.37 1122.94 3098.23 1125.1 3099.96 1126.8C3101.69 1128.48 3104.33 1129.76 3107.88 1130.64L3116.26 1132.73C3120.57 1133.8 3123.81 1135.53 3125.99 1137.92C3128.17 1140.29 3129.26 1143.23 3129.26 1146.76C3129.26 1149.77 3128.44 1152.43 3126.81 1154.75C3125.17 1157.07 3122.91 1158.88 3120.02 1160.18C3117.16 1161.49 3113.82 1162.14 3110.01 1162.14C3104.92 1162.14 3100.74 1160.95 3097.47 1158.59C3094.21 1156.19 3092.11 1152.77 3091.19 1148.32L3095.34 1147.26C3096.13 1150.81 3097.75 1153.52 3100.21 1155.39C3102.69 1157.24 3105.95 1158.16 3109.97 1158.16C3114.43 1158.16 3118.01 1157.11 3120.73 1155C3123.48 1152.89 3124.85 1150.19 3124.85 1146.9C3124.85 1144.39 3124.05 1142.27 3122.44 1140.55C3120.83 1138.82 3118.39 1137.55 3115.12 1136.75L3106.42 1134.62C3101.97 1133.53 3098.63 1131.79 3096.41 1129.39C3094.18 1126.98 3093.07 1124.01 3093.07 1120.48C3093.07 1117.55 3093.84 1114.97 3095.38 1112.74C3096.92 1110.51 3099.04 1108.77 3101.74 1107.52C3104.43 1106.27 3107.52 1105.64 3111 1105.64C3115.62 1105.64 3119.39 1106.73 3122.3 1108.9C3125.21 1111.08 3127.32 1114.18 3128.62 1118.21ZM3158.71 1162.17C3155.56 1162.17 3152.67 1161.54 3150.04 1160.29C3147.44 1159.04 3145.34 1157.2 3143.75 1154.79C3142.19 1152.37 3141.41 1149.44 3141.41 1145.98C3141.41 1143.71 3141.81 1141.71 3142.62 1139.98C3143.42 1138.25 3144.67 1136.76 3146.35 1135.5C3148.03 1134.25 3150.18 1133.22 3152.81 1132.41C3155.44 1131.58 3158.57 1130.95 3162.22 1130.5C3164.99 1130.16 3167.46 1129.84 3169.64 1129.54C3171.82 1129.21 3173.53 1128.7 3174.76 1128.01C3176.01 1127.32 3176.64 1126.28 3176.64 1124.88V1122.61C3176.64 1118.63 3175.38 1115.47 3172.87 1113.13C3170.36 1110.79 3166.91 1109.62 3162.5 1109.62C3158.6 1109.62 3155.31 1110.48 3152.63 1112.21C3149.98 1113.91 3148.12 1116.11 3147.06 1118.81L3142.97 1117.29C3144.02 1114.68 3145.52 1112.52 3147.48 1110.79C3149.47 1109.06 3151.74 1107.77 3154.3 1106.92C3156.88 1106.06 3159.58 1105.64 3162.4 1105.64C3164.84 1105.64 3167.16 1105.98 3169.36 1106.67C3171.58 1107.35 3173.56 1108.4 3175.29 1109.79C3177.04 1111.19 3178.43 1112.98 3179.44 1115.15C3180.46 1117.31 3180.97 1119.89 3180.97 1122.9V1161H3176.64V1151.16H3176.32C3175.37 1153.2 3174.07 1155.06 3172.41 1156.74C3170.78 1158.4 3168.8 1159.72 3166.48 1160.72C3164.19 1161.69 3161.59 1162.17 3158.71 1162.17ZM3159.13 1158.16C3162.54 1158.16 3165.56 1157.33 3168.19 1155.67C3170.84 1153.99 3172.91 1151.7 3174.4 1148.78C3175.89 1145.87 3176.64 1142.57 3176.64 1138.88V1130.85C3176.09 1131.32 3175.3 1131.75 3174.26 1132.13C3173.24 1132.48 3172.08 1132.8 3170.78 1133.09C3169.5 1133.35 3168.15 1133.59 3166.73 1133.8C3165.33 1133.99 3163.97 1134.17 3162.65 1134.33C3158.67 1134.8 3155.43 1135.54 3152.92 1136.53C3150.43 1137.5 3148.61 1138.78 3147.45 1140.37C3146.31 1141.95 3145.74 1143.87 3145.74 1146.12C3145.74 1149.84 3147.02 1152.77 3149.58 1154.93C3152.14 1157.08 3155.32 1158.16 3159.13 1158.16ZM3218.42 1106.45V1110.33H3194.59V1106.45H3218.42ZM3202.65 1093.39H3206.95V1148.11C3206.95 1150.33 3207.37 1152.16 3208.23 1153.58C3209.1 1154.97 3210.24 1156.02 3211.63 1156.7C3213.06 1157.37 3214.57 1157.7 3216.18 1157.7C3216.96 1157.7 3217.64 1157.64 3218.2 1157.52C3218.8 1157.4 3219.35 1157.25 3219.87 1157.06L3220.94 1161C3220.28 1161.24 3219.54 1161.44 3218.74 1161.6C3217.93 1161.79 3216.99 1161.89 3215.9 1161.89C3213.62 1161.89 3211.47 1161.38 3209.43 1160.36C3207.42 1159.34 3205.79 1157.86 3204.53 1155.92C3203.28 1153.98 3202.65 1151.64 3202.65 1148.89V1093.39ZM3268.17 1118.21L3264.16 1119.27C3263.52 1117.29 3262.61 1115.57 3261.42 1114.12C3260.24 1112.68 3258.75 1111.57 3256.95 1110.79C3255.17 1109.98 3253.04 1109.58 3250.56 1109.58C3246.55 1109.58 3243.28 1110.57 3240.72 1112.56C3238.19 1114.55 3236.92 1117.14 3236.92 1120.34C3236.92 1122.94 3237.78 1125.1 3239.51 1126.8C3241.24 1128.48 3243.88 1129.76 3247.43 1130.64L3255.81 1132.73C3260.12 1133.8 3263.36 1135.53 3265.54 1137.92C3267.72 1140.29 3268.81 1143.23 3268.81 1146.76C3268.81 1149.77 3267.99 1152.43 3266.36 1154.75C3264.72 1157.07 3262.46 1158.88 3259.58 1160.18C3256.71 1161.49 3253.37 1162.14 3249.56 1162.14C3244.47 1162.14 3240.29 1160.95 3237.03 1158.59C3233.76 1156.19 3231.66 1152.77 3230.74 1148.32L3234.89 1147.26C3235.68 1150.81 3237.3 1153.52 3239.76 1155.39C3242.25 1157.24 3245.5 1158.16 3249.53 1158.16C3253.98 1158.16 3257.56 1157.11 3260.29 1155C3263.03 1152.89 3264.4 1150.19 3264.4 1146.9C3264.4 1144.39 3263.6 1142.27 3261.99 1140.55C3260.38 1138.82 3257.94 1137.55 3254.67 1136.75L3245.97 1134.62C3241.52 1133.53 3238.19 1131.79 3235.96 1129.39C3233.73 1126.98 3232.62 1124.01 3232.62 1120.48C3232.62 1117.55 3233.39 1114.97 3234.93 1112.74C3236.47 1110.51 3238.59 1108.77 3241.29 1107.52C3243.99 1106.27 3247.08 1105.64 3250.56 1105.64C3255.17 1105.64 3258.94 1106.73 3261.85 1108.9C3264.76 1111.08 3266.87 1114.18 3268.17 1118.21Z" fill="#10A54A"/>
<rect x="5424" y="145" width="2267" height="2103" rx="54" fill="#212121" stroke="#F1760D" stroke-width="20"/>
<rect x="5532.5" y="1886.5" width="2050" height="240" rx="26.5" fill="#3C3C3C" stroke="white" stroke-width="7"/>
<rect x="5531.5" y="1552.5" width="2051" height="240" rx="26.5" stroke="#10A54A" stroke-width="7"/>
<rect x="5531.5" y="1243.5" width="2051" height="240" rx="26.5" stroke="#10A54A" stroke-width="7"/>
<rect x="5531.5" y="934.5" width="2051" height="240" rx="26.5" stroke="#10A54A" stroke-width="7"/>
<path d="M6306.83 1976.5H6300.6C6299.96 1973.13 6298.74 1969.87 6296.96 1966.72C6295.17 1963.54 6292.87 1960.69 6290.05 1958.16C6287.26 1955.6 6284.01 1953.57 6280.32 1952.08C6276.62 1950.59 6272.53 1949.84 6268.06 1949.84C6261.51 1949.84 6255.47 1951.59 6249.96 1955.09C6244.48 1958.56 6240.08 1963.67 6236.78 1970.42C6233.5 1977.16 6231.86 1985.42 6231.86 1995.18C6231.86 2005.01 6233.5 2013.3 6236.78 2020.04C6240.08 2026.79 6244.48 2031.9 6249.96 2035.37C6255.47 2038.81 6261.51 2040.52 6268.06 2040.52C6272.53 2040.52 6276.62 2039.79 6280.32 2038.33C6284.01 2036.84 6287.26 2034.83 6290.05 2032.3C6292.87 2029.74 6295.17 2026.87 6296.96 2023.69C6298.74 2020.51 6299.96 2017.24 6300.6 2013.86H6306.83C6306.12 2017.89 6304.74 2021.83 6302.7 2025.69C6300.69 2029.55 6298.03 2033.05 6294.72 2036.19C6291.44 2039.31 6287.57 2041.79 6283.09 2043.64C6278.65 2045.45 6273.64 2046.36 6268.06 2046.36C6259.75 2046.36 6252.44 2044.25 6246.12 2040.04C6239.79 2035.79 6234.83 2029.82 6231.23 2022.13C6227.66 2014.45 6225.88 2005.46 6225.88 1995.18C6225.88 1984.9 6227.66 1975.92 6231.23 1968.23C6234.83 1960.54 6239.79 1954.59 6246.12 1950.37C6252.44 1946.13 6259.75 1944 6268.06 1944C6273.64 1944 6278.65 1944.93 6283.09 1946.77C6287.57 1948.59 6291.44 1951.06 6294.72 1954.17C6298.03 1957.25 6300.69 1960.72 6302.7 1964.58C6304.74 1968.44 6306.12 1972.41 6306.83 1976.5ZM6355.9 2046.56C6349.73 2046.56 6344.25 2044.9 6339.45 2041.59C6334.65 2038.25 6330.87 2033.66 6328.12 2027.83C6325.36 2021.99 6323.98 2015.34 6323.98 2007.88C6323.98 2000.39 6325.36 1993.74 6328.12 1987.93C6330.87 1982.09 6334.65 1977.51 6339.45 1974.16C6344.25 1970.82 6349.73 1969.15 6355.9 1969.15C6362.06 1969.15 6367.54 1970.82 6372.34 1974.16C6377.14 1977.51 6380.92 1982.09 6383.68 1987.93C6386.43 1993.77 6387.81 2000.42 6387.81 2007.88C6387.81 2015.34 6386.43 2021.99 6383.68 2027.83C6380.92 2033.66 6377.14 2038.25 6372.34 2041.59C6367.54 2044.9 6362.06 2046.56 6355.9 2046.56ZM6355.9 2041.06C6361.12 2041.06 6365.67 2039.58 6369.57 2036.63C6373.49 2033.68 6376.52 2029.69 6378.66 2024.66C6380.84 2019.64 6381.92 2014.04 6381.92 2007.88C6381.92 2001.72 6380.84 1996.14 6378.66 1991.14C6376.49 1986.12 6373.46 1982.13 6369.57 1979.18C6365.67 1976.19 6361.12 1974.7 6355.9 1974.7C6350.67 1974.7 6346.12 1976.19 6342.23 1979.18C6338.33 1982.13 6335.3 1986.12 6333.13 1991.14C6330.95 1996.14 6329.87 2001.72 6329.87 2007.88C6329.87 2014.04 6330.94 2019.64 6333.08 2024.66C6335.25 2029.69 6338.28 2033.68 6342.18 2036.63C6346.1 2039.58 6350.67 2041.06 6355.9 2041.06ZM6408.55 2045V1970.27H6414.43V2045H6408.55ZM6411.52 1957.04C6410.22 1957.04 6409.08 1956.59 6408.11 1955.68C6407.17 1954.77 6406.7 1953.67 6406.7 1952.37C6406.7 1951.07 6407.17 1949.97 6408.11 1949.06C6409.05 1948.15 6410.19 1947.7 6411.52 1947.7C6412.81 1947.7 6413.93 1948.15 6414.87 1949.06C6415.85 1949.97 6416.33 1951.07 6416.33 1952.37C6416.33 1953.67 6415.86 1954.77 6414.92 1955.68C6413.98 1956.59 6412.85 1957.04 6411.52 1957.04ZM6445.23 1996.54V2045H6439.3V1970.27H6445.08V1982.09H6445.67C6447.42 1978.24 6450.23 1975.14 6454.09 1972.8C6457.94 1970.47 6462.53 1969.3 6467.85 1969.3C6472.88 1969.3 6477.29 1970.37 6481.09 1972.51C6484.91 1974.65 6487.9 1977.7 6490.04 1981.66C6492.21 1985.58 6493.3 1990.27 6493.3 1995.72V2045H6487.36V1995.96C6487.36 1989.6 6485.46 1984.49 6481.67 1980.64C6477.91 1976.74 6472.93 1974.8 6466.73 1974.8C6462.58 1974.8 6458.89 1975.71 6455.64 1977.52C6452.4 1979.34 6449.85 1981.88 6448 1985.16C6446.16 1988.4 6445.23 1992.2 6445.23 1996.54ZM6520.06 2045V1945.36H6525.94V1986.96H6526.53C6527.69 1983.75 6529.35 1980.8 6531.49 1978.11C6533.63 1975.41 6536.29 1973.26 6539.47 1971.63C6542.65 1969.98 6546.36 1969.15 6550.61 1969.15C6556.61 1969.15 6561.85 1970.82 6566.32 1974.16C6570.8 1977.47 6574.27 1982.05 6576.73 1987.88C6579.2 1993.69 6580.43 2000.34 6580.43 2007.83C6580.43 2015.39 6579.2 2022.09 6576.73 2027.92C6574.27 2033.73 6570.81 2038.29 6566.37 2041.59C6561.93 2044.9 6556.69 2046.56 6550.66 2046.56C6546.41 2046.56 6542.69 2045.75 6539.52 2044.12C6536.34 2042.47 6533.68 2040.3 6531.54 2037.61C6529.4 2034.88 6527.73 2031.91 6526.53 2028.7H6525.84V2045H6520.06ZM6525.89 2007.78C6525.89 2014.14 6526.85 2019.83 6528.76 2024.86C6530.71 2029.85 6533.5 2033.81 6537.13 2036.73C6540.76 2039.62 6545.11 2041.06 6550.17 2041.06C6555.29 2041.06 6559.67 2039.6 6563.31 2036.68C6566.94 2033.73 6569.71 2029.74 6571.62 2024.71C6573.57 2019.69 6574.54 2014.04 6574.54 2007.78C6574.54 2001.52 6573.57 1995.9 6571.62 1990.9C6569.71 1985.91 6566.94 1981.97 6563.31 1979.08C6559.67 1976.16 6555.29 1974.7 6550.17 1974.7C6545.11 1974.7 6540.76 1976.14 6537.13 1979.03C6533.5 1981.88 6530.71 1985.81 6528.76 1990.8C6526.85 1995.77 6525.89 2001.43 6525.89 2007.78ZM6620.71 2046.61C6616.4 2046.61 6612.44 2045.75 6608.84 2044.03C6605.27 2042.31 6602.4 2039.79 6600.23 2036.49C6598.09 2033.18 6597.02 2029.16 6597.02 2024.42C6597.02 2021.31 6597.57 2018.57 6598.67 2016.2C6599.78 2013.83 6601.48 2011.79 6603.78 2010.07C6606.09 2008.35 6609.04 2006.94 6612.64 2005.84C6616.24 2004.7 6620.53 2003.83 6625.53 2003.21C6629.32 2002.76 6632.71 2002.32 6635.7 2001.9C6638.68 2001.44 6641.02 2000.74 6642.7 1999.8C6644.42 1998.86 6645.28 1997.44 6645.28 1995.52V1992.41C6645.28 1986.96 6643.56 1982.63 6640.12 1979.42C6636.69 1976.21 6631.95 1974.6 6625.92 1974.6C6620.57 1974.6 6616.06 1975.79 6612.39 1978.15C6608.76 1980.49 6606.22 1983.51 6604.76 1987.2L6599.16 1985.11C6600.59 1981.54 6602.65 1978.58 6605.34 1976.21C6608.06 1973.84 6611.18 1972.07 6614.68 1970.91C6618.22 1969.74 6621.91 1969.15 6625.77 1969.15C6629.11 1969.15 6632.29 1969.62 6635.31 1970.56C6638.36 1971.51 6641.07 1972.93 6643.43 1974.85C6645.83 1976.76 6647.73 1979.21 6649.13 1982.19C6650.52 1985.14 6651.22 1988.68 6651.22 1992.8V2045H6645.28V2031.52H6644.84C6643.55 2034.31 6641.76 2036.86 6639.49 2039.16C6637.25 2041.43 6634.55 2043.25 6631.37 2044.61C6628.22 2045.94 6624.67 2046.61 6620.71 2046.61ZM6621.3 2041.11C6625.97 2041.11 6630.1 2039.97 6633.7 2037.7C6637.34 2035.4 6640.17 2032.25 6642.22 2028.26C6644.26 2024.27 6645.28 2019.75 6645.28 2014.69V2003.7C6644.54 2004.34 6643.45 2004.93 6642.02 2005.45C6640.63 2005.93 6639.04 2006.37 6637.25 2006.76C6635.5 2007.12 6633.65 2007.44 6631.71 2007.73C6629.79 2007.99 6627.93 2008.24 6626.11 2008.46C6620.66 2009.11 6616.22 2010.12 6612.78 2011.48C6609.38 2012.81 6606.88 2014.56 6605.29 2016.73C6603.73 2018.91 6602.96 2021.53 6602.96 2024.62C6602.96 2029.71 6604.71 2033.73 6608.21 2036.68C6611.71 2039.63 6616.08 2041.11 6621.3 2041.11ZM6723.59 1986.38L6718.09 1987.84C6717.21 1985.11 6715.96 1982.76 6714.34 1980.78C6712.72 1978.8 6710.68 1977.28 6708.21 1976.21C6705.78 1975.11 6702.86 1974.55 6699.45 1974.55C6693.97 1974.55 6689.48 1975.92 6685.98 1978.64C6682.51 1981.37 6680.77 1984.92 6680.77 1989.3C6680.77 1992.86 6681.96 1995.81 6684.32 1998.15C6686.69 2000.45 6690.31 2002.2 6695.17 2003.4L6706.65 2006.27C6712.56 2007.73 6717 2010.1 6719.98 2013.38C6722.97 2016.62 6724.46 2020.66 6724.46 2025.49C6724.46 2029.61 6723.34 2033.26 6721.1 2036.44C6718.87 2039.62 6715.77 2042.1 6711.81 2043.88C6707.89 2045.66 6703.31 2046.56 6698.09 2046.56C6691.12 2046.56 6685.39 2044.94 6680.92 2041.69C6676.44 2038.42 6673.57 2033.73 6672.31 2027.63L6678 2026.17C6679.07 2031.04 6681.29 2034.75 6684.66 2037.31C6688.07 2039.84 6692.53 2041.11 6698.04 2041.11C6704.14 2041.11 6709.05 2039.66 6712.78 2036.78C6716.55 2033.89 6718.43 2030.19 6718.43 2025.69C6718.43 2022.25 6717.33 2019.34 6715.12 2016.98C6712.91 2014.61 6709.57 2012.87 6705.1 2011.77L6693.18 2008.85C6687.08 2007.36 6682.51 2004.98 6679.46 2001.7C6676.41 1998.39 6674.89 1994.32 6674.89 1989.49C6674.89 1985.47 6675.94 1981.93 6678.05 1978.88C6680.16 1975.84 6683.06 1973.45 6686.76 1971.73C6690.45 1970.01 6694.69 1969.15 6699.45 1969.15C6705.78 1969.15 6710.94 1970.65 6714.93 1973.63C6718.91 1976.61 6721.8 1980.86 6723.59 1986.38ZM6774.15 2046.56C6767.4 2046.56 6761.53 2044.89 6756.53 2041.55C6751.54 2038.21 6747.68 2033.63 6744.95 2027.83C6742.23 2022.02 6740.87 2015.4 6740.87 2007.98C6740.87 2000.52 6742.23 1993.87 6744.95 1988.03C6747.71 1982.19 6751.49 1977.59 6756.29 1974.21C6761.09 1970.84 6766.57 1969.15 6772.73 1969.15C6776.92 1969.15 6780.88 1970 6784.6 1971.68C6788.37 1973.34 6791.68 1975.74 6794.53 1978.88C6797.42 1982.03 6799.67 1985.82 6801.29 1990.27C6802.95 1994.71 6803.77 1999.71 6803.77 2005.25V2008.95H6744.61V2003.55H6797.84C6797.84 1998.13 6796.74 1993.25 6794.53 1988.91C6792.32 1984.56 6789.32 1981.11 6785.53 1978.54C6781.73 1975.98 6777.47 1974.7 6772.73 1974.7C6767.77 1974.7 6763.34 1976.09 6759.45 1978.88C6755.59 1981.64 6752.53 1985.37 6750.26 1990.07C6748.02 1994.78 6746.85 2000.03 6746.75 2005.84V2008.27C6746.75 2014.5 6747.84 2020.09 6750.01 2025.05C6752.22 2029.98 6755.37 2033.89 6759.45 2036.78C6763.54 2039.63 6768.44 2041.06 6774.15 2041.06C6778.23 2041.06 6781.72 2040.38 6784.6 2039.02C6787.52 2037.62 6789.91 2035.93 6791.76 2033.96C6793.61 2031.98 6795 2030.06 6795.94 2028.22L6801.34 2030.4C6800.21 2032.9 6798.44 2035.4 6796.04 2037.9C6793.67 2040.36 6790.65 2042.42 6786.99 2044.08C6783.36 2045.73 6779.08 2046.56 6774.15 2046.56ZM6858.21 1951.01V1945.36H6928.03V1951.01H6896.16V2045H6890.08V1951.01H6858.21ZM6941.77 1970.27L6962.4 2003.5L6983.03 1970.27H6989.89L6965.95 2007.64L6989.89 2045H6983.03L6962.4 2012.31L6941.77 2045H6934.86L6958.7 2007.64L6934.86 1970.27H6941.77Z" fill="white"/>
<path d="M6443.77 1640.01V1634.36H6513.58V1640.01H6481.72V1734H6475.63V1640.01H6443.77ZM6527.33 1659.27L6547.95 1692.5L6568.58 1659.27H6575.44L6551.51 1696.64L6575.44 1734H6568.58L6547.95 1701.31L6527.33 1734H6520.42L6544.26 1696.64L6520.42 1659.27H6527.33ZM6659.89 1634.36V1734H6653.81V1640.79H6653.22L6630.84 1655.62V1649.1L6653.03 1634.36H6659.89Z" fill="white"/>
<path d="M6427.86 1331.01V1325.36H6497.67V1331.01H6465.81V1425H6459.72V1331.01H6427.86ZM6511.42 1350.27L6532.04 1383.5L6552.67 1350.27H6559.53L6535.59 1387.64L6559.53 1425H6552.67L6532.04 1392.31L6511.42 1425H6504.51L6528.35 1387.64L6504.51 1350.27H6511.42ZM6617.51 1425V1420.38L6649.77 1383.21C6654.37 1377.89 6658.02 1373.38 6660.71 1369.68C6663.4 1365.99 6665.33 1362.65 6666.5 1359.66C6667.67 1356.68 6668.25 1353.56 6668.25 1350.32C6668.25 1346.27 6667.3 1342.68 6665.38 1339.57C6663.5 1336.42 6660.92 1333.97 6657.65 1332.22C6654.4 1330.47 6650.71 1329.6 6646.55 1329.6C6642.21 1329.6 6638.4 1330.55 6635.12 1332.47C6631.85 1334.38 6629.28 1336.97 6627.43 1340.25C6625.62 1343.53 6624.71 1347.21 6624.71 1351.29H6618.82C6618.82 1346.14 6620.02 1341.5 6622.42 1337.38C6624.82 1333.26 6628.12 1330 6632.3 1327.6C6636.52 1325.2 6641.32 1324 6646.7 1324C6651.99 1324 6656.69 1325.15 6660.81 1327.46C6664.93 1329.76 6668.17 1332.9 6670.54 1336.89C6672.91 1340.85 6674.09 1345.33 6674.09 1350.32C6674.09 1353.99 6673.46 1357.52 6672.19 1360.93C6670.96 1364.3 6668.84 1368.08 6665.82 1372.26C6662.8 1376.41 6658.64 1381.54 6653.32 1387.64L6626.27 1418.82V1419.36H6678.57V1425H6617.51Z" fill="white"/>
<path d="M6428.96 1022.01V1016.36H6498.77V1022.01H6466.9V1116H6460.82V1022.01H6428.96ZM6512.51 1041.27L6533.14 1074.5L6553.77 1041.27H6560.63L6536.69 1078.64L6560.63 1116H6553.77L6533.14 1083.31L6512.51 1116H6505.61L6529.44 1078.64L6505.61 1041.27H6512.51ZM6649.7 1117.36C6643.79 1117.36 6638.52 1116.24 6633.88 1114.01C6629.25 1111.73 6625.57 1108.64 6622.84 1104.71C6620.15 1100.76 6618.75 1096.22 6618.66 1091.09H6624.84C6624.93 1095.15 6626.08 1098.73 6628.29 1101.84C6630.5 1104.92 6633.45 1107.34 6637.14 1109.09C6640.87 1110.84 6645.03 1111.72 6649.6 1111.72C6654.56 1111.72 6658.91 1110.75 6662.64 1108.8C6666.4 1106.85 6669.33 1104.23 6671.44 1100.92C6673.55 1097.58 6674.61 1093.85 6674.61 1089.73C6674.61 1085.32 6673.45 1081.46 6671.15 1078.15C6668.85 1074.81 6665.64 1072.21 6661.52 1070.37C6657.4 1068.48 6652.62 1067.54 6647.17 1067.54H6643.47V1061.9H6647.17C6651.8 1061.9 6655.96 1061.06 6659.62 1059.37C6663.29 1057.65 6666.17 1055.24 6668.28 1052.12C6670.42 1049.01 6671.49 1045.33 6671.49 1041.08C6671.49 1037.09 6670.57 1033.55 6668.72 1030.47C6666.87 1027.39 6664.31 1024.97 6661.03 1023.22C6657.79 1021.47 6653.98 1020.6 6649.6 1020.6C6645.38 1020.6 6641.56 1021.46 6638.12 1023.17C6634.71 1024.89 6632 1027.31 6629.99 1030.42C6627.98 1033.54 6626.96 1037.15 6626.93 1041.27H6620.94C6621.01 1036.12 6622.31 1031.56 6624.84 1027.6C6627.4 1023.65 6630.82 1020.56 6635.1 1018.36C6639.41 1016.12 6644.28 1015 6649.7 1015C6655.21 1015 6660.04 1016.15 6664.19 1018.46C6668.38 1020.76 6671.62 1023.87 6673.92 1027.8C6676.26 1031.72 6677.43 1036.08 6677.43 1040.88C6677.43 1046.66 6675.82 1051.6 6672.61 1055.72C6669.43 1059.81 6665.12 1062.65 6659.67 1064.24V1064.77C6666.12 1066.2 6671.23 1069.13 6674.99 1073.58C6678.76 1078.02 6680.64 1083.4 6680.64 1089.73C6680.64 1094.92 6679.31 1099.6 6676.65 1103.79C6673.99 1107.97 6670.32 1111.28 6665.65 1113.71C6661.02 1116.15 6655.7 1117.36 6649.7 1117.36Z" fill="white"/>
<rect x="6157" y="2551" width="900" height="245" rx="44" fill="#F1760D"/>
<path d="M6404.65 2735V2618.64H6449.19C6457.6 2618.64 6464.59 2619.96 6470.16 2622.61C6475.77 2625.23 6479.95 2628.81 6482.72 2633.35C6485.52 2637.9 6486.92 2643.05 6486.92 2648.81C6486.92 2653.54 6486.01 2657.59 6484.19 2660.97C6482.38 2664.3 6479.93 2667.01 6476.87 2669.09C6473.8 2671.17 6470.37 2672.67 6466.58 2673.58V2674.72C6470.71 2674.94 6474.67 2676.21 6478.46 2678.52C6482.28 2680.8 6485.41 2684.02 6487.83 2688.18C6490.26 2692.35 6491.47 2697.39 6491.47 2703.3C6491.47 2709.32 6490.01 2714.73 6487.09 2719.55C6484.18 2724.32 6479.78 2728.09 6473.91 2730.85C6468.04 2733.62 6460.65 2735 6451.75 2735H6404.65ZM6425.73 2717.39H6448.4C6456.05 2717.39 6461.56 2715.93 6464.93 2713.01C6468.34 2710.06 6470.05 2706.27 6470.05 2701.65C6470.05 2698.2 6469.19 2695.09 6467.49 2692.33C6465.79 2689.53 6463.36 2687.33 6460.22 2685.74C6457.07 2684.11 6453.32 2683.3 6448.97 2683.3H6425.73V2717.39ZM6425.73 2668.12H6446.58C6450.22 2668.12 6453.49 2667.46 6456.41 2666.14C6459.33 2664.77 6461.62 2662.86 6463.29 2660.4C6464.99 2657.9 6465.84 2654.94 6465.84 2651.53C6465.84 2647.03 6464.25 2643.31 6461.07 2640.4C6457.93 2637.48 6453.25 2636.02 6447.04 2636.02H6425.73V2668.12ZM6529.46 2618.64V2735H6508.9V2618.64H6529.46ZM6588.68 2736.7C6580.16 2736.7 6572.77 2734.83 6566.52 2731.08C6560.27 2727.33 6555.43 2722.08 6551.98 2715.34C6548.57 2708.6 6546.87 2700.72 6546.87 2691.7C6546.87 2682.69 6548.57 2674.79 6551.98 2668.01C6555.43 2661.23 6560.27 2655.97 6566.52 2652.22C6572.77 2648.47 6580.16 2646.59 6588.68 2646.59C6597.21 2646.59 6604.59 2648.47 6610.84 2652.22C6617.09 2655.97 6621.92 2661.23 6625.33 2668.01C6628.78 2674.79 6630.5 2682.69 6630.5 2691.7C6630.5 2700.72 6628.78 2708.6 6625.33 2715.34C6621.92 2722.08 6617.09 2727.33 6610.84 2731.08C6604.59 2734.83 6597.21 2736.7 6588.68 2736.7ZM6588.8 2720.23C6593.42 2720.23 6597.28 2718.96 6600.39 2716.42C6603.49 2713.84 6605.8 2710.4 6607.32 2706.08C6608.87 2701.76 6609.65 2696.95 6609.65 2691.65C6609.65 2686.31 6608.87 2681.48 6607.32 2677.16C6605.8 2672.8 6603.49 2669.34 6600.39 2666.76C6597.28 2664.19 6593.42 2662.9 6588.8 2662.9C6584.06 2662.9 6580.12 2664.19 6576.98 2666.76C6573.87 2669.34 6571.54 2672.8 6569.99 2677.16C6568.47 2681.48 6567.72 2686.31 6567.72 2691.65C6567.72 2696.95 6568.47 2701.76 6569.99 2706.08C6571.54 2710.4 6573.87 2713.84 6576.98 2716.42C6580.12 2718.96 6584.06 2720.23 6588.8 2720.23ZM6686.03 2736.7C6677.31 2736.7 6669.83 2734.79 6663.58 2730.97C6657.37 2727.14 6652.58 2721.86 6649.21 2715.11C6645.88 2708.33 6644.21 2700.53 6644.21 2691.7C6644.21 2682.84 6645.91 2675.02 6649.32 2668.24C6652.73 2661.42 6657.54 2656.12 6663.75 2652.33C6670 2648.5 6677.39 2646.59 6685.91 2646.59C6693 2646.59 6699.27 2647.9 6704.72 2650.51C6710.21 2653.09 6714.59 2656.74 6717.85 2661.48C6721.1 2666.17 6722.96 2671.67 6723.41 2677.95H6703.75C6702.96 2673.75 6701.06 2670.25 6698.07 2667.44C6695.12 2664.6 6691.16 2663.18 6686.2 2663.18C6681.99 2663.18 6678.3 2664.32 6675.12 2666.59C6671.94 2668.83 6669.46 2672.05 6667.67 2676.25C6665.93 2680.45 6665.06 2685.49 6665.06 2691.36C6665.06 2697.31 6665.93 2702.42 6667.67 2706.7C6669.42 2710.95 6671.86 2714.22 6675 2716.53C6678.19 2718.81 6681.92 2719.94 6686.2 2719.94C6689.23 2719.94 6691.94 2719.37 6694.32 2718.24C6696.75 2717.06 6698.77 2715.38 6700.4 2713.18C6702.03 2710.98 6703.15 2708.31 6703.75 2705.17H6723.41C6722.92 2711.34 6721.1 2716.82 6717.96 2721.59C6714.81 2726.33 6710.53 2730.04 6705.12 2732.73C6699.7 2735.38 6693.34 2736.7 6686.03 2736.7ZM6759.05 2707.61L6759 2682.78H6762.29L6793.65 2647.73H6817.69L6779.11 2690.68H6774.85L6759.05 2707.61ZM6740.3 2735V2618.64H6760.87V2735H6740.3ZM6795.08 2735L6766.67 2695.28L6780.53 2680.8L6819.68 2735H6795.08Z" fill="#1E1E1E"/>
<path d="M80 498V2147C80 2208.3 129.696 2258 191 2258H3651C3712.3 2258 3762 2208.3 3762 2147V498" stroke="#F1760D" stroke-width="20"/>
<rect x="3710" y="908" width="101" height="72" fill="#1E1E1E"/>
<rect x="3710" y="1499" width="101" height="71" fill="#1E1E1E"/>
<rect x="3700" y="1737" width="101" height="66" fill="#1E1E1E"/>
<rect x="5363" y="1673" width="101" height="51" fill="#1E1E1E"/>
<rect x="5402" y="1061" width="39" height="51" fill="#1E1E1E"/>
<path d="M5514 1691L5489.18 1676.25L5488.82 1705.12L5514 1691ZM3146.75 1827.49C3155.33 1826.62 3164.12 1825.73 3173.11 1824.83L3172.61 1819.86C3163.62 1820.76 3154.83 1821.64 3146.25 1822.51L3146.75 1827.49ZM3226.81 1819.54C3244.12 1817.86 3262.02 1816.14 3280.5 1814.38L3280.03 1809.41C3261.55 1811.16 3243.64 1812.88 3226.33 1814.57L3226.81 1819.54ZM3334.18 1809.35C3351.65 1807.72 3369.55 1806.08 3387.87 1804.41L3387.41 1799.43C3369.1 1801.1 3351.19 1802.75 3333.72 1804.37L3334.18 1809.35ZM3441.61 1799.58C3459.22 1798.01 3477.17 1796.42 3495.42 1794.83L3494.98 1789.85C3476.73 1791.44 3458.78 1793.03 3441.16 1794.6L3441.61 1799.58ZM3549.33 1790.16C3566.93 1788.65 3584.78 1787.13 3602.87 1785.61L3602.46 1780.63C3584.36 1782.15 3566.5 1783.67 3548.9 1785.18L3549.33 1790.16ZM3656.52 1781.14C3674.25 1779.68 3692.19 1778.21 3710.31 1776.74L3709.91 1771.76C3691.78 1773.23 3673.84 1774.69 3656.11 1776.16L3656.52 1781.14ZM3764.24 1772.41C3781.95 1771.01 3799.82 1769.6 3817.84 1768.2L3817.45 1763.21C3799.43 1764.62 3781.55 1766.02 3763.84 1767.43L3764.24 1772.41ZM3871.56 1764.05C3889.39 1762.69 3907.35 1761.34 3925.43 1759.98L3925.06 1755C3906.98 1756.35 3889.01 1757.71 3871.18 1759.07L3871.56 1764.05ZM3979.19 1756.01C3996.99 1754.71 4014.9 1753.41 4032.91 1752.12L4032.55 1747.13C4014.54 1748.42 3996.63 1749.72 3978.82 1751.02L3979.19 1756.01ZM4086.76 1748.31C4104.61 1747.06 4122.55 1745.82 4140.55 1744.59L4140.21 1739.6C4122.2 1740.83 4104.27 1742.07 4086.41 1743.32L4086.76 1748.31ZM4194.3 1740.97C4212.2 1739.78 4230.16 1738.6 4248.16 1737.43L4247.84 1732.44C4229.83 1733.61 4211.87 1734.79 4193.97 1735.98L4194.3 1740.97ZM4301.96 1733.99C4319.85 1732.86 4337.79 1731.75 4355.76 1730.65L4355.45 1725.66C4337.48 1726.76 4319.54 1727.87 4301.64 1729L4301.96 1733.99ZM4409.61 1727.4C4427.53 1726.34 4445.47 1725.3 4463.42 1724.27L4463.14 1719.28C4445.18 1720.3 4427.24 1721.35 4409.32 1722.41L4409.61 1727.4ZM4517.26 1721.24C4535.21 1720.25 4553.16 1719.27 4571.1 1718.32L4570.84 1713.33C4552.89 1714.28 4534.94 1715.25 4516.99 1716.24L4517.26 1721.24ZM4624.96 1715.52C4642.93 1714.6 4660.88 1713.71 4678.82 1712.84L4678.58 1707.84C4660.64 1708.71 4642.68 1709.61 4624.7 1710.52L4624.96 1715.52ZM4732.64 1710.29C4750.65 1709.45 4768.62 1708.65 4786.55 1707.86L4786.34 1702.87C4768.4 1703.65 4750.42 1704.46 4732.41 1705.29L4732.64 1710.29ZM4840.42 1705.59C4858.41 1704.85 4876.36 1704.14 4894.25 1703.46L4894.06 1698.46C4876.16 1699.14 4858.21 1699.85 4840.21 1700.59L4840.42 1705.59ZM4948.2 1701.48C4966.23 1700.84 4984.19 1700.24 5002.06 1699.67L5001.9 1694.67C4984.02 1695.24 4966.06 1695.85 4948.03 1696.48L4948.2 1701.48ZM5055.9 1698.04C5074 1697.52 5092 1697.04 5109.9 1696.59L5109.77 1691.59C5091.87 1692.04 5073.86 1692.52 5055.76 1693.04L5055.9 1698.04ZM5163.77 1695.35C5181.82 1694.97 5199.75 1694.62 5217.55 1694.32L5217.47 1689.32C5199.66 1689.63 5181.72 1689.97 5163.67 1690.35L5163.77 1695.35ZM5271.61 1693.53C5289.75 1693.3 5307.73 1693.12 5325.54 1692.99L5325.51 1687.99C5307.68 1688.12 5289.69 1688.3 5271.55 1688.53L5271.61 1693.53ZM5379.32 1692.73C5397.49 1692.7 5415.48 1692.71 5433.26 1692.78L5433.28 1687.78C5415.49 1687.71 5397.49 1687.7 5379.31 1687.73L5379.32 1692.73ZM5487.29 1693.17C5488.69 1693.19 5490.08 1693.2 5491.47 1693.22L5491.53 1688.22C5490.14 1688.2 5488.74 1688.19 5487.35 1688.17L5487.29 1693.17Z" fill="white"/>
<path d="M4179 1550L4178.71 1547.52L4179 1550ZM5520.5 1375.5L5495.49 1361.09L5495.51 1389.96L5520.5 1375.5ZM2146.49 1270.95C2155.18 1272.76 2163.93 1274.59 2172.73 1276.41L2173.75 1271.52C2164.95 1269.69 2156.2 1267.87 2147.51 1266.05L2146.49 1270.95ZM2225.8 1287.34C2243.33 1290.92 2261.06 1294.52 2278.96 1298.12L2279.95 1293.22C2262.05 1289.62 2244.33 1286.02 2226.8 1282.44L2225.8 1287.34ZM2331.88 1308.71C2349.41 1312.19 2367.09 1315.68 2384.91 1319.17L2385.87 1314.27C2368.06 1310.77 2350.38 1307.29 2332.85 1303.8L2331.88 1308.71ZM2438.06 1329.52C2455.69 1332.93 2473.44 1336.34 2491.29 1339.74L2492.22 1334.83C2474.38 1331.42 2456.64 1328.02 2439.01 1324.61L2438.06 1329.52ZM2544.36 1349.8C2562 1353.12 2579.73 1356.44 2597.52 1359.74L2598.44 1354.83C2580.65 1351.52 2562.92 1348.21 2545.29 1344.89L2544.36 1349.8ZM2650.77 1369.57C2668.46 1372.81 2686.22 1376.05 2704.01 1379.27L2704.9 1374.34C2687.11 1371.13 2669.36 1367.9 2651.67 1364.65L2650.77 1369.57ZM2757.23 1388.82C2774.97 1391.99 2792.73 1395.13 2810.52 1398.26L2811.39 1393.33C2793.6 1390.21 2775.84 1387.06 2758.11 1383.9L2757.23 1388.82ZM2863.83 1407.56C2881.6 1410.64 2899.37 1413.7 2917.14 1416.73L2917.98 1411.8C2900.22 1408.77 2882.44 1405.71 2864.68 1402.63L2863.83 1407.56ZM2970.5 1425.76C2988.31 1428.75 3006.1 1431.71 3023.87 1434.64L3024.68 1429.71C3006.92 1426.78 2989.14 1423.82 2971.33 1420.83L2970.5 1425.76ZM3077.24 1443.38C3095.11 1446.27 3112.93 1449.14 3130.7 1451.97L3131.49 1447.03C3113.72 1444.2 3095.9 1441.34 3078.04 1438.44L3077.24 1443.38ZM3184.16 1460.39C3202.03 1463.18 3219.84 1465.93 3237.56 1468.63L3238.31 1463.69C3220.6 1460.99 3202.8 1458.24 3184.93 1455.45L3184.16 1460.39ZM3291.1 1476.71C3309.06 1479.39 3326.93 1482.02 3344.69 1484.6L3345.41 1479.66C3327.66 1477.08 3309.8 1474.45 3291.83 1471.77L3291.1 1476.71ZM3398.24 1492.28C3416.21 1494.82 3434.04 1497.3 3451.72 1499.73L3452.4 1494.77C3434.73 1492.35 3416.9 1489.87 3398.94 1487.33L3398.24 1492.28ZM3505.38 1506.95C3523.49 1509.35 3541.41 1511.67 3559.14 1513.92L3559.77 1508.96C3542.05 1506.71 3524.13 1504.39 3506.04 1502L3505.38 1506.95ZM3612.88 1520.6C3631.02 1522.8 3648.93 1524.92 3666.59 1526.95L3667.16 1521.98C3649.51 1519.95 3631.61 1517.84 3613.48 1515.64L3612.88 1520.6ZM3720.29 1532.93C3738.52 1534.89 3756.43 1536.75 3774.01 1538.5L3774.51 1533.52C3756.94 1531.77 3739.04 1529.92 3720.83 1527.96L3720.29 1532.93ZM3827.83 1543.59C3846.25 1545.24 3864.25 1546.75 3881.79 1548.12L3882.18 1543.14C3864.66 1541.77 3846.68 1540.26 3828.28 1538.61L3827.83 1543.59ZM3935.75 1551.96C3954.44 1553.16 3972.51 1554.16 3989.9 1554.95L3990.13 1549.96C3972.77 1549.16 3954.73 1548.17 3936.06 1546.97L3935.75 1551.96ZM4044.25 1556.81C4063.41 1557.22 4081.52 1557.31 4098.52 1557.08L4098.45 1552.08C4081.52 1552.31 4063.47 1552.22 4044.36 1551.81L4044.25 1556.81ZM4152.47 1554.96C4161.94 1554.29 4170.89 1553.46 4179.29 1552.48L4178.71 1547.52C4170.39 1548.49 4161.52 1549.3 4152.11 1549.97L4152.47 1554.96ZM4179.29 1552.48C4188.98 1551.35 4198.42 1550.17 4207.62 1548.95L4206.96 1543.99C4197.79 1545.21 4188.38 1546.39 4178.71 1547.52L4179.29 1552.48ZM4263.7 1540.52C4283.22 1537.23 4301.67 1533.74 4319.32 1530.07L4318.3 1525.17C4300.71 1528.83 4282.32 1532.31 4262.87 1535.59L4263.7 1540.52ZM4374.55 1517.51C4393.37 1512.87 4411.49 1508.06 4429.34 1503.14L4428.01 1498.32C4410.19 1503.23 4392.12 1508.03 4373.36 1512.65L4374.55 1517.51ZM4483.77 1487.72C4501.61 1482.6 4519.58 1477.42 4538.14 1472.25L4536.8 1467.44C4518.22 1472.61 4500.22 1477.8 4482.39 1482.92L4483.77 1487.72ZM4592.71 1457.65C4610.17 1453.2 4628.38 1448.8 4647.62 1444.48L4646.52 1439.6C4627.24 1443.93 4608.98 1448.34 4591.47 1452.81L4592.71 1457.65ZM4703.05 1432.92C4720.62 1429.53 4739.06 1426.22 4758.54 1423.01L4757.72 1418.08C4738.21 1421.29 4719.72 1424.61 4702.1 1428.01L4703.05 1432.92ZM4814.68 1414.51C4832.45 1412.03 4851.02 1409.65 4870.48 1407.36L4869.9 1402.4C4850.4 1404.69 4831.79 1407.08 4813.99 1409.55L4814.68 1414.51ZM4926.61 1401.3C4944.65 1399.52 4963.4 1397.82 4982.91 1396.2L4982.5 1391.22C4962.96 1392.84 4944.19 1394.54 4926.12 1396.33L4926.61 1401.3ZM5039.29 1391.94C5057.48 1390.69 5076.28 1389.51 5095.72 1388.41L5095.44 1383.42C5075.97 1384.52 5057.15 1385.7 5038.94 1386.95L5039.29 1391.94ZM5152.26 1385.51C5170.63 1384.67 5189.53 1383.88 5209 1383.17L5208.81 1378.17C5189.33 1378.89 5170.42 1379.67 5152.03 1380.52L5152.26 1385.51ZM5265.71 1381.33C5283.96 1380.82 5302.66 1380.36 5321.85 1379.96L5321.75 1374.96C5302.55 1375.36 5283.83 1375.82 5265.57 1376.34L5265.71 1381.33ZM5378.38 1378.97C5396.99 1378.7 5416.02 1378.49 5435.49 1378.34L5435.45 1373.34C5415.97 1373.49 5396.93 1373.71 5378.31 1373.97L5378.38 1378.97ZM5491.57 1378.04C5493.71 1378.03 5495.85 1378.03 5498 1378.02L5497.99 1373.02C5495.84 1373.03 5493.7 1373.03 5491.56 1373.04L5491.57 1378.04Z" fill="white"/>
<path d="M5514 1074L5487.64 1062.22L5490.62 1090.94L5514 1074ZM3508.04 901.958C3516.88 903.603 3525.95 905.276 3535.24 906.973L3536.14 902.054C3526.86 900.358 3517.79 898.687 3508.96 897.042L3508.04 901.958ZM3590.61 916.915C3608.45 920.066 3626.93 923.281 3646.01 926.549L3646.85 921.621C3627.79 918.355 3609.31 915.141 3591.48 911.991L3590.61 916.915ZM3701.31 935.888C3719.32 938.888 3737.78 941.92 3756.64 944.977L3757.44 940.041C3738.58 936.986 3720.14 933.955 3702.13 930.956L3701.31 935.888ZM3812.02 953.836C3830.16 956.698 3848.61 959.573 3867.36 962.455L3868.12 957.513C3849.38 954.632 3830.93 951.758 3812.8 948.897L3812.02 953.836ZM3922.73 970.857C3940.98 973.588 3959.46 976.32 3978.16 979.046L3978.88 974.098C3960.19 971.373 3941.71 968.643 3923.47 965.912L3922.73 970.857ZM4033.65 987.024C4052 989.625 4070.52 992.216 4089.21 994.791L4089.89 989.838C4071.21 987.263 4052.69 984.674 4034.35 982.074L4033.65 987.024ZM4144.82 1002.34C4163.25 1004.81 4181.81 1007.25 4200.49 1009.67L4201.13 1004.72C4182.46 1002.3 4163.91 999.851 4145.49 997.387L4144.82 1002.34ZM4256.08 1016.77C4274.53 1019.08 4293.08 1021.37 4311.7 1023.62L4312.3 1018.66C4293.69 1016.4 4275.15 1014.12 4256.7 1011.8L4256.08 1016.77ZM4367.39 1030.25C4385.92 1032.41 4404.51 1034.53 4423.14 1036.62L4423.69 1031.65C4405.07 1029.56 4386.49 1027.44 4367.97 1025.28L4367.39 1030.25ZM4478.9 1042.73C4497.47 1044.72 4516.06 1046.67 4534.66 1048.57L4535.17 1043.6C4516.58 1041.7 4497.99 1039.75 4479.43 1037.76L4478.9 1042.73ZM4590.48 1054.13C4609.1 1055.93 4627.72 1057.68 4646.32 1059.38L4646.78 1054.4C4628.19 1052.71 4609.58 1050.95 4590.96 1049.15L4590.48 1054.13ZM4702.18 1064.32C4720.84 1065.91 4739.47 1067.44 4758.05 1068.91L4758.44 1063.93C4739.88 1062.46 4721.26 1060.93 4702.61 1059.34L4702.18 1064.32ZM4814.01 1073.15C4832.75 1074.51 4851.42 1075.8 4870 1077.01L4870.33 1072.02C4851.76 1070.81 4833.1 1069.52 4814.38 1068.17L4814.01 1073.15ZM4925.99 1080.44C4944.76 1081.52 4963.43 1082.51 4981.96 1083.42L4982.21 1078.42C4963.69 1077.52 4945.04 1076.52 4926.28 1075.45L4925.99 1080.44ZM5037.91 1085.9C5056.78 1086.65 5075.5 1087.3 5094.04 1087.85L5094.18 1082.85C5075.66 1082.3 5056.96 1081.65 5038.11 1080.9L5037.91 1085.9ZM5150.18 1089.19C5169.12 1089.53 5187.84 1089.76 5206.32 1089.86L5206.35 1084.86C5187.89 1084.76 5169.19 1084.53 5150.27 1084.19L5150.18 1089.19ZM5262.45 1089.78C5281.45 1089.61 5300.16 1089.3 5318.56 1088.84L5318.44 1083.84C5300.06 1084.3 5281.38 1084.61 5262.41 1084.78L5262.45 1089.78ZM5374.65 1086.9C5393.74 1086.05 5412.43 1085.02 5430.7 1083.8L5430.37 1078.81C5412.14 1080.03 5393.48 1081.06 5374.43 1081.9L5374.65 1086.9ZM5486.68 1079.31C5488.41 1079.14 5490.14 1078.98 5491.86 1078.81L5491.38 1073.83C5489.66 1074 5487.93 1074.17 5486.21 1074.33L5486.68 1079.31Z" fill="white"/>
</svg>
