<svg width="6018" height="2410" viewBox="0 0 6018 2410" fill="none" xmlns="http://www.w3.org/2000/svg">
<g clip-path="url(#clip0_3462_334)">
<rect width="6018" height="2410" fill="#1E1E1E"/>
<rect x="1489" y="2030" width="1015" height="245" rx="44" fill="#F1760D"/>
<path d="M1641.56 2081.64H1667.35L1701.9 2165.95H1703.26L1737.81 2081.64H1763.6V2198H1743.37V2118.06H1742.29L1710.13 2197.66H1695.02L1662.86 2117.89H1661.78V2198H1641.56V2081.64ZM1824.28 2199.7C1815.53 2199.7 1807.98 2197.89 1801.61 2194.25C1795.29 2190.58 1790.42 2185.39 1787.01 2178.68C1783.6 2171.94 1781.9 2164 1781.9 2154.88C1781.9 2145.9 1783.6 2138.02 1787.01 2131.24C1790.46 2124.42 1795.27 2119.12 1801.44 2115.33C1807.62 2111.5 1814.87 2109.59 1823.2 2109.59C1828.58 2109.59 1833.66 2110.46 1838.43 2112.2C1843.24 2113.91 1847.48 2116.56 1851.16 2120.16C1854.87 2123.76 1857.79 2128.34 1859.91 2133.91C1862.03 2139.44 1863.09 2146.03 1863.09 2153.68V2159.99H1791.56V2146.12H1843.37C1843.34 2142.19 1842.48 2138.68 1840.82 2135.61C1839.15 2132.51 1836.82 2130.06 1833.83 2128.28C1830.87 2126.5 1827.43 2125.61 1823.49 2125.61C1819.28 2125.61 1815.59 2126.64 1812.41 2128.68C1809.23 2130.69 1806.74 2133.34 1804.96 2136.64C1803.22 2139.89 1802.33 2143.47 1802.29 2147.38V2159.48C1802.29 2164.55 1803.22 2168.91 1805.08 2172.55C1806.93 2176.14 1809.53 2178.91 1812.86 2180.84C1816.2 2182.73 1820.1 2183.68 1824.57 2183.68C1827.56 2183.68 1830.27 2183.27 1832.69 2182.43C1835.12 2181.56 1837.22 2180.29 1839 2178.62C1840.78 2176.96 1842.12 2174.89 1843.03 2172.43L1862.24 2174.59C1861.03 2179.67 1858.71 2184.1 1855.31 2187.89C1851.93 2191.64 1847.62 2194.55 1842.35 2196.64C1837.09 2198.68 1831.06 2199.7 1824.28 2199.7ZM1880.49 2198V2110.73H1900.15V2125.56H1901.17C1902.99 2120.56 1906 2116.66 1910.21 2113.85C1914.41 2111.01 1919.43 2109.59 1925.26 2109.59C1931.17 2109.59 1936.15 2111.03 1940.21 2113.91C1944.3 2116.75 1947.18 2120.63 1948.84 2125.56H1949.75C1951.68 2120.71 1954.94 2116.84 1959.52 2113.97C1964.15 2111.05 1969.62 2109.59 1975.94 2109.59C1983.97 2109.59 1990.53 2112.13 1995.6 2117.2C2000.68 2122.28 2003.22 2129.69 2003.22 2139.42V2198H1982.59V2142.6C1982.59 2137.19 1981.15 2133.23 1978.27 2130.73C1975.4 2128.19 1971.87 2126.92 1967.71 2126.92C1962.74 2126.92 1958.86 2128.47 1956.06 2131.58C1953.29 2134.65 1951.91 2138.64 1951.91 2143.57V2198H1931.74V2141.75C1931.74 2137.24 1930.38 2133.64 1927.65 2130.95C1924.96 2128.27 1921.44 2126.92 1917.08 2126.92C1914.13 2126.92 1911.44 2127.68 1909.01 2129.19C1906.59 2130.67 1904.66 2132.77 1903.22 2135.5C1901.78 2138.19 1901.06 2141.33 1901.06 2144.93V2198H1880.49ZM2024.08 2230.73V2110.73H2044.31V2125.16H2045.5C2046.56 2123.04 2048.06 2120.78 2049.99 2118.4C2051.92 2115.97 2054.54 2113.91 2057.83 2112.2C2061.13 2110.46 2065.33 2109.59 2070.45 2109.59C2077.19 2109.59 2083.27 2111.31 2088.69 2114.76C2094.14 2118.17 2098.46 2123.23 2101.64 2129.93C2104.86 2136.6 2106.47 2144.78 2106.47 2154.48C2106.47 2164.06 2104.9 2172.2 2101.75 2178.91C2098.61 2185.61 2094.33 2190.73 2088.91 2194.25C2083.5 2197.77 2077.36 2199.53 2070.5 2199.53C2065.5 2199.53 2061.36 2198.7 2058.06 2197.03C2054.77 2195.37 2052.11 2193.36 2050.11 2191.01C2048.14 2188.62 2046.6 2186.37 2045.5 2184.25H2044.65V2230.73H2024.08ZM2044.25 2154.36C2044.25 2160.01 2045.05 2164.95 2046.64 2169.19C2048.27 2173.44 2050.6 2176.75 2053.63 2179.14C2056.7 2181.48 2060.41 2182.66 2064.77 2182.66C2069.31 2182.66 2073.12 2181.45 2076.19 2179.02C2079.25 2176.56 2081.56 2173.21 2083.12 2168.97C2084.71 2164.69 2085.5 2159.82 2085.5 2154.36C2085.5 2148.95 2084.73 2144.14 2083.17 2139.93C2081.62 2135.73 2079.31 2132.43 2076.24 2130.05C2073.17 2127.66 2069.35 2126.47 2064.77 2126.47C2060.37 2126.47 2056.64 2127.62 2053.57 2129.93C2050.5 2132.24 2048.17 2135.48 2046.58 2139.65C2045.03 2143.81 2044.25 2148.72 2044.25 2154.36ZM2162.15 2199.7C2153.63 2199.7 2146.24 2197.83 2139.99 2194.08C2133.74 2190.33 2128.89 2185.08 2125.45 2178.34C2122.04 2171.6 2120.33 2163.72 2120.33 2154.7C2120.33 2145.69 2122.04 2137.79 2125.45 2131.01C2128.89 2124.23 2133.74 2118.97 2139.99 2115.22C2146.24 2111.47 2153.63 2109.59 2162.15 2109.59C2170.67 2109.59 2178.06 2111.47 2184.31 2115.22C2190.56 2118.97 2195.39 2124.23 2198.8 2131.01C2202.25 2137.79 2203.97 2145.69 2203.97 2154.7C2203.97 2163.72 2202.25 2171.6 2198.8 2178.34C2195.39 2185.08 2190.56 2190.33 2184.31 2194.08C2178.06 2197.83 2170.67 2199.7 2162.15 2199.7ZM2162.27 2183.23C2166.89 2183.23 2170.75 2181.96 2173.86 2179.42C2176.96 2176.84 2179.27 2173.4 2180.79 2169.08C2182.34 2164.76 2183.12 2159.95 2183.12 2154.65C2183.12 2149.31 2182.34 2144.48 2180.79 2140.16C2179.27 2135.8 2176.96 2132.34 2173.86 2129.76C2170.75 2127.19 2166.89 2125.9 2162.27 2125.9C2157.53 2125.9 2153.59 2127.19 2150.45 2129.76C2147.34 2132.34 2145.01 2135.8 2143.46 2140.16C2141.94 2144.48 2141.19 2149.31 2141.19 2154.65C2141.19 2159.95 2141.94 2164.76 2143.46 2169.08C2145.01 2173.4 2147.34 2176.84 2150.45 2179.42C2153.59 2181.96 2157.53 2183.23 2162.27 2183.23ZM2259.5 2199.7C2250.97 2199.7 2243.59 2197.83 2237.34 2194.08C2231.09 2190.33 2226.24 2185.08 2222.79 2178.34C2219.38 2171.6 2217.68 2163.72 2217.68 2154.7C2217.68 2145.69 2219.38 2137.79 2222.79 2131.01C2226.24 2124.23 2231.09 2118.97 2237.34 2115.22C2243.59 2111.47 2250.97 2109.59 2259.5 2109.59C2268.02 2109.59 2275.4 2111.47 2281.65 2115.22C2287.9 2118.97 2292.73 2124.23 2296.14 2131.01C2299.59 2137.79 2301.31 2145.69 2301.31 2154.7C2301.31 2163.72 2299.59 2171.6 2296.14 2178.34C2292.73 2185.08 2287.9 2190.33 2281.65 2194.08C2275.4 2197.83 2268.02 2199.7 2259.5 2199.7ZM2259.61 2183.23C2264.23 2183.23 2268.09 2181.96 2271.2 2179.42C2274.31 2176.84 2276.62 2173.4 2278.13 2169.08C2279.69 2164.76 2280.46 2159.95 2280.46 2154.65C2280.46 2149.31 2279.69 2144.48 2278.13 2140.16C2276.62 2135.8 2274.31 2132.34 2271.2 2129.76C2268.09 2127.19 2264.23 2125.9 2259.61 2125.9C2254.87 2125.9 2250.94 2127.19 2247.79 2129.76C2244.69 2132.34 2242.36 2135.8 2240.8 2140.16C2239.29 2144.48 2238.53 2149.31 2238.53 2154.65C2238.53 2159.95 2239.29 2164.76 2240.8 2169.08C2242.36 2173.4 2244.69 2176.84 2247.79 2179.42C2250.94 2181.96 2254.87 2183.23 2259.61 2183.23ZM2339.34 2081.64V2198H2318.77V2081.64H2339.34Z" fill="#1E1E1E"/>
<rect x="1495" y="1020" width="904" height="236" rx="14" stroke="#FF6262" stroke-width="12"/>
<rect x="394.5" y="1459.5" width="910" height="240" rx="16.5" stroke="white" stroke-width="7"/>
<rect x="504.5" y="776.5" width="910" height="240" rx="16.5" stroke="white" stroke-width="7"/>
<rect x="2647.5" y="739.5" width="910" height="240" rx="16.5" stroke="white" stroke-width="7"/>
<rect x="2424.5" y="1401.5" width="910" height="240" rx="16.5" stroke="white" stroke-width="7"/>
<path d="M156 134V1783C156 1844.3 205.696 1894 267 1894H3727C3788.3 1894 3838 1844.3 3838 1783V134" stroke="#F1760D" stroke-width="20"/>
<path d="M2046.79 372L2018.76 284.704H2025.67L2050.5 363.936H2048.07L2072.78 284.704H2078.28L2103.11 363.936H2100.55L2125.51 284.704H2132.42L2104.39 372H2099.14L2074.44 292.896H2076.62L2052.04 372H2046.79ZM2192.53 372V336.672C2192.53 330.869 2190.82 326.176 2187.41 322.592C2183.99 319.008 2179.47 317.216 2173.84 317.216C2170 317.216 2166.58 318.069 2163.6 319.776C2160.7 321.397 2158.39 323.659 2156.69 326.56C2155.06 329.461 2154.25 332.832 2154.25 336.672L2150.93 334.752C2150.93 330.229 2151.99 326.219 2154.12 322.72C2156.26 319.136 2159.16 316.32 2162.83 314.272C2166.5 312.224 2170.68 311.2 2175.37 311.2C2180.07 311.2 2184.16 312.267 2187.66 314.4C2191.25 316.448 2194.02 319.349 2195.98 323.104C2197.94 326.859 2198.93 331.125 2198.93 335.904V372H2192.53ZM2147.73 372V282.144H2154.25V372H2147.73ZM2237.33 372.128L2210.83 312.48H2218L2240.91 365.344H2237.58L2261.52 312.48H2268.69L2240.66 372.128H2237.33ZM2221.84 397.216L2237.2 365.728L2240.66 372.128L2228.88 397.216H2221.84ZM2355.03 372V336.672C2355.03 330.869 2353.32 326.176 2349.91 322.592C2346.49 319.008 2341.97 317.216 2336.34 317.216C2332.5 317.216 2329.08 318.069 2326.1 319.776C2323.2 321.397 2320.89 323.659 2319.19 326.56C2317.56 329.461 2316.75 332.832 2316.75 336.672L2313.43 334.752C2313.43 330.229 2314.49 326.219 2316.62 322.72C2318.76 319.136 2321.66 316.32 2325.33 314.272C2329 312.224 2333.18 311.2 2337.87 311.2C2342.57 311.2 2346.66 312.309 2350.16 314.528C2353.75 316.661 2356.52 319.605 2358.48 323.36C2360.44 327.115 2361.43 331.296 2361.43 335.904V372H2355.03ZM2310.23 372V312.48H2316.75V372H2310.23ZM2406.48 373.28C2400.68 373.28 2395.43 371.915 2390.74 369.184C2386.13 366.368 2382.46 362.613 2379.73 357.92C2377 353.141 2375.64 347.851 2375.64 342.048C2375.64 336.245 2377 331.04 2379.73 326.432C2382.46 321.739 2386.13 318.027 2390.74 315.296C2395.43 312.565 2400.68 311.2 2406.48 311.2C2412.2 311.2 2417.36 312.565 2421.97 315.296C2426.66 318.027 2430.38 321.739 2433.11 326.432C2435.84 331.04 2437.2 336.245 2437.2 342.048C2437.2 347.936 2435.84 353.227 2433.11 357.92C2430.38 362.613 2426.66 366.368 2421.97 369.184C2417.36 371.915 2412.2 373.28 2406.48 373.28ZM2406.48 367.136C2411.01 367.136 2415.06 366.027 2418.64 363.808C2422.31 361.589 2425.17 358.603 2427.22 354.848C2429.35 351.008 2430.42 346.699 2430.42 341.92C2430.42 337.227 2429.35 333.045 2427.22 329.376C2425.17 325.707 2422.31 322.805 2418.64 320.672C2415.06 318.453 2411.01 317.344 2406.48 317.344C2401.88 317.344 2397.74 318.453 2394.07 320.672C2390.48 322.805 2387.62 325.707 2385.49 329.376C2383.36 333.045 2382.29 337.269 2382.29 342.048C2382.29 346.827 2383.36 351.093 2385.49 354.848C2387.62 358.603 2390.48 361.589 2394.07 363.808C2397.74 366.027 2401.88 367.136 2406.48 367.136ZM2481.1 372V312.48H2487.63V372H2481.1ZM2522.83 372V335.008C2522.83 329.632 2521.21 325.323 2517.96 322.08C2514.81 318.837 2510.75 317.216 2505.8 317.216C2502.48 317.216 2499.45 317.941 2496.72 319.392C2493.99 320.843 2491.77 322.891 2490.06 325.536C2488.44 328.181 2487.63 331.253 2487.63 334.752L2484.3 333.984C2484.3 329.376 2485.28 325.365 2487.24 321.952C2489.29 318.539 2492.02 315.893 2495.44 314.016C2498.93 312.139 2502.82 311.2 2507.08 311.2C2511.35 311.2 2515.15 312.139 2518.48 314.016C2521.8 315.893 2524.45 318.539 2526.41 321.952C2528.37 325.365 2529.36 329.376 2529.36 333.984V372H2522.83ZM2564.56 372V335.008C2564.56 329.632 2562.93 325.323 2559.69 322.08C2556.53 318.837 2552.48 317.216 2547.53 317.216C2544.2 317.216 2541.13 317.941 2538.32 319.392C2535.59 320.843 2533.41 322.891 2531.79 325.536C2530.17 328.181 2529.36 331.253 2529.36 334.752L2525.39 333.984C2525.47 329.291 2526.54 325.28 2528.59 321.952C2530.72 318.539 2533.54 315.893 2537.04 314.016C2540.53 312.139 2544.42 311.2 2548.68 311.2C2552.95 311.2 2556.75 312.139 2560.08 314.016C2563.4 315.893 2566.05 318.581 2568.01 322.08C2570.06 325.493 2571.08 329.504 2571.08 334.112V372H2564.56ZM2589.1 372V312.48H2595.5V372H2589.1ZM2592.3 298.656C2590.85 298.656 2589.62 298.144 2588.59 297.12C2587.65 296.011 2587.18 294.731 2587.18 293.28C2587.18 291.829 2587.65 290.635 2588.59 289.696C2589.62 288.672 2590.85 288.16 2592.3 288.16C2593.75 288.16 2594.99 288.672 2596.02 289.696C2597.04 290.635 2597.55 291.829 2597.55 293.28C2597.55 294.731 2597.04 296.011 2596.02 297.12C2594.99 298.144 2593.75 298.656 2592.3 298.656ZM2659.78 372V336.672C2659.78 330.869 2658.07 326.176 2654.66 322.592C2651.24 319.008 2646.72 317.216 2641.09 317.216C2637.25 317.216 2633.83 318.069 2630.85 319.776C2627.95 321.397 2625.64 323.659 2623.94 326.56C2622.31 329.461 2621.5 332.832 2621.5 336.672L2618.18 334.752C2618.18 330.229 2619.24 326.219 2621.38 322.72C2623.51 319.136 2626.41 316.32 2630.08 314.272C2633.75 312.224 2637.93 311.2 2642.62 311.2C2647.32 311.2 2651.41 312.309 2654.91 314.528C2658.5 316.661 2661.27 319.605 2663.23 323.36C2665.19 327.115 2666.18 331.296 2666.18 335.904V372H2659.78ZM2614.98 372V312.48H2621.5V372H2614.98ZM2711.62 373.28C2705.73 373.28 2700.4 371.915 2695.62 369.184C2690.92 366.453 2687.21 362.741 2684.48 358.048C2681.75 353.355 2680.39 348.064 2680.39 342.176C2680.39 336.288 2681.71 331.04 2684.35 326.432C2687 321.739 2690.63 318.027 2695.23 315.296C2699.93 312.565 2705.13 311.2 2710.85 311.2C2716.31 311.2 2721.09 312.437 2725.19 314.912C2729.37 317.301 2732.61 320.629 2734.91 324.896C2737.3 329.163 2738.5 334.069 2738.5 339.616C2738.5 340.128 2738.45 340.811 2738.37 341.664C2738.28 342.432 2738.16 343.413 2737.99 344.608H2684.99V338.976H2734.27L2732.1 340.768C2732.27 336.075 2731.5 331.979 2729.79 328.48C2728.09 324.896 2725.61 322.123 2722.37 320.16C2719.13 318.197 2715.24 317.216 2710.72 317.216C2706.03 317.216 2701.89 318.283 2698.31 320.416C2694.72 322.464 2691.91 325.323 2689.86 328.992C2687.89 332.661 2686.91 336.928 2686.91 341.792C2686.91 346.912 2687.94 351.392 2689.99 355.232C2692.12 358.987 2695.06 361.931 2698.82 364.064C2702.57 366.112 2706.97 367.136 2712 367.136C2715.84 367.136 2719.38 366.453 2722.63 365.088C2725.95 363.637 2728.73 361.504 2730.95 358.688L2735.3 362.912C2732.57 366.155 2729.11 368.715 2724.93 370.592C2720.83 372.384 2716.4 373.28 2711.62 373.28ZM2753.35 372V312.48H2759.88V372H2753.35ZM2759.88 336.416L2756.68 335.264C2756.68 327.669 2758.6 321.781 2762.44 317.6C2766.28 313.333 2771.31 311.2 2777.54 311.2C2780.44 311.2 2783.13 311.712 2785.61 312.736C2788.17 313.76 2790.51 315.424 2792.65 317.728L2788.29 322.336C2786.67 320.544 2784.92 319.264 2783.05 318.496C2781.17 317.728 2778.95 317.344 2776.39 317.344C2771.53 317.344 2767.56 319.008 2764.49 322.336C2761.41 325.579 2759.88 330.272 2759.88 336.416ZM1941.48 533L1918.96 473.48H1925.74L1944.81 526.088H1942L1961.07 473.48H1964.91L1983.98 526.088H1981.16L2000.24 473.48H2007.02L1984.62 533H1980.65L1961.32 480.264H1964.78L1945.32 533H1941.48ZM2044.22 534.28C2038.5 534.28 2033.34 532.915 2028.73 530.184C2024.21 527.453 2020.62 523.784 2017.98 519.176C2015.33 514.483 2014.01 509.192 2014.01 503.304C2014.01 497.501 2015.33 492.253 2017.98 487.56C2020.62 482.867 2024.21 479.155 2028.73 476.424C2033.25 473.608 2038.33 472.2 2043.96 472.2C2048.57 472.2 2052.67 473.096 2056.25 474.888C2059.92 476.595 2062.91 479.027 2065.21 482.184C2067.6 485.341 2069.14 489.096 2069.82 493.448V512.904C2069.05 517.256 2067.47 521.053 2065.08 524.296C2062.78 527.453 2059.83 529.928 2056.25 531.72C2052.75 533.427 2048.74 534.28 2044.22 534.28ZM2045.11 528.136C2051.94 528.136 2057.36 525.875 2061.37 521.352C2065.47 516.744 2067.51 510.728 2067.51 503.304C2067.51 498.269 2066.58 493.917 2064.7 490.248C2062.91 486.493 2060.3 483.592 2056.89 481.544C2053.48 479.411 2049.51 478.344 2044.99 478.344C2040.29 478.344 2036.11 479.411 2032.44 481.544C2028.86 483.677 2026 486.621 2023.87 490.376C2021.82 494.131 2020.79 498.397 2020.79 503.176C2020.79 508.04 2021.82 512.349 2023.87 516.104C2026 519.859 2028.9 522.803 2032.57 524.936C2036.24 527.069 2040.42 528.136 2045.11 528.136ZM2067.26 533V517L2068.67 502.408L2067.26 487.944V473.48H2073.79V533H2067.26ZM2137.78 533V497.672C2137.78 491.869 2136.07 487.176 2132.66 483.592C2129.24 480.008 2124.72 478.216 2119.09 478.216C2115.25 478.216 2111.83 479.069 2108.85 480.776C2105.95 482.397 2103.64 484.659 2101.94 487.56C2100.31 490.461 2099.5 493.832 2099.5 497.672L2096.18 495.752C2096.18 491.229 2097.24 487.219 2099.38 483.72C2101.51 480.136 2104.41 477.32 2108.08 475.272C2111.75 473.224 2115.93 472.2 2120.62 472.2C2125.32 472.2 2129.41 473.309 2132.91 475.528C2136.5 477.661 2139.27 480.605 2141.23 484.36C2143.19 488.115 2144.18 492.296 2144.18 496.904V533H2137.78ZM2092.98 533V473.48H2099.5V533H2092.98ZM2170.82 533V448.264H2177.35V533H2170.82ZM2155.46 479.24V473.48H2192.71V479.24H2155.46ZM2243.69 533V448.264H2250.22V533H2243.69ZM2228.33 479.24V473.48H2265.58V479.24H2228.33ZM2303.48 534.28C2297.68 534.28 2292.43 532.915 2287.74 530.184C2283.13 527.368 2279.46 523.613 2276.73 518.92C2274 514.141 2272.64 508.851 2272.64 503.048C2272.64 497.245 2274 492.04 2276.73 487.432C2279.46 482.739 2283.13 479.027 2287.74 476.296C2292.43 473.565 2297.68 472.2 2303.48 472.2C2309.2 472.2 2314.36 473.565 2318.97 476.296C2323.66 479.027 2327.38 482.739 2330.11 487.432C2332.84 492.04 2334.2 497.245 2334.2 503.048C2334.2 508.936 2332.84 514.227 2330.11 518.92C2327.38 523.613 2323.66 527.368 2318.97 530.184C2314.36 532.915 2309.2 534.28 2303.48 534.28ZM2303.48 528.136C2308.01 528.136 2312.06 527.027 2315.64 524.808C2319.31 522.589 2322.17 519.603 2324.22 515.848C2326.35 512.008 2327.42 507.699 2327.42 502.92C2327.42 498.227 2326.35 494.045 2324.22 490.376C2322.17 486.707 2319.31 483.805 2315.64 481.672C2312.06 479.453 2308.01 478.344 2303.48 478.344C2298.88 478.344 2294.74 479.453 2291.07 481.672C2287.48 483.805 2284.62 486.707 2282.49 490.376C2280.36 494.045 2279.29 498.269 2279.29 503.048C2279.29 507.827 2280.36 512.093 2282.49 515.848C2284.62 519.603 2287.48 522.589 2291.07 524.808C2294.74 527.027 2298.88 528.136 2303.48 528.136ZM2408.31 534.28C2403.87 534.28 2399.77 533.384 2396.02 531.592C2392.35 529.8 2389.28 527.325 2386.8 524.168C2384.33 520.925 2382.71 517.171 2381.94 512.904V493.448C2382.71 489.096 2384.33 485.341 2386.8 482.184C2389.36 478.941 2392.48 476.467 2396.15 474.76C2399.9 473.053 2403.96 472.2 2408.31 472.2C2413.94 472.2 2418.97 473.565 2423.41 476.296C2427.85 479.027 2431.35 482.739 2433.91 487.432C2436.47 492.125 2437.75 497.416 2437.75 503.304C2437.75 509.192 2436.47 514.483 2433.91 519.176C2431.35 523.784 2427.85 527.453 2423.41 530.184C2418.97 532.915 2413.94 534.28 2408.31 534.28ZM2378.1 558.216V473.48H2384.63V488.328L2383.09 502.792L2384.63 517.384V558.216H2378.1ZM2407.16 528.136C2411.85 528.136 2415.99 527.069 2419.57 524.936C2423.16 522.803 2425.97 519.859 2428.02 516.104C2430.07 512.349 2431.09 508.04 2431.09 503.176C2431.09 498.312 2430.07 494.003 2428.02 490.248C2425.97 486.493 2423.16 483.592 2419.57 481.544C2416.07 479.411 2412.06 478.344 2407.54 478.344C2402.93 478.344 2398.88 479.411 2395.38 481.544C2391.97 483.592 2389.28 486.493 2387.32 490.248C2385.35 494.003 2384.37 498.355 2384.37 503.304C2384.37 508.168 2385.31 512.477 2387.19 516.232C2389.15 519.901 2391.84 522.803 2395.25 524.936C2398.75 527.069 2402.72 528.136 2407.16 528.136ZM2453.35 533V473.48H2459.75V533H2453.35ZM2456.55 459.656C2455.1 459.656 2453.87 459.144 2452.84 458.12C2451.9 457.011 2451.43 455.731 2451.43 454.28C2451.43 452.829 2451.9 451.635 2452.84 450.696C2453.87 449.672 2455.1 449.16 2456.55 449.16C2458 449.16 2459.24 449.672 2460.27 450.696C2461.29 451.635 2461.8 452.829 2461.8 454.28C2461.8 455.731 2461.29 457.011 2460.27 458.12C2459.24 459.144 2458 459.656 2456.55 459.656ZM2506.23 534.28C2500.43 534.28 2495.18 532.915 2490.49 530.184C2485.88 527.368 2482.21 523.613 2479.48 518.92C2476.75 514.141 2475.39 508.851 2475.39 503.048C2475.39 497.245 2476.75 492.04 2479.48 487.432C2482.21 482.739 2485.88 479.027 2490.49 476.296C2495.18 473.565 2500.43 472.2 2506.23 472.2C2510.59 472.2 2514.68 473.011 2518.52 474.632C2522.36 476.253 2525.65 478.557 2528.38 481.544L2524.03 485.896C2521.81 483.507 2519.16 481.672 2516.09 480.392C2513.1 479.027 2509.82 478.344 2506.23 478.344C2501.63 478.344 2497.49 479.453 2493.82 481.672C2490.23 483.805 2487.37 486.707 2485.24 490.376C2483.11 494.045 2482.04 498.269 2482.04 503.048C2482.04 507.827 2483.11 512.093 2485.24 515.848C2487.37 519.603 2490.23 522.589 2493.82 524.808C2497.49 527.027 2501.63 528.136 2506.23 528.136C2509.82 528.136 2513.15 527.496 2516.22 526.216C2519.37 524.851 2522.06 522.931 2524.28 520.456L2528.63 524.808C2525.82 527.795 2522.45 530.141 2518.52 531.848C2514.68 533.469 2510.59 534.28 2506.23 534.28ZM2581.13 533L2547.98 502.408L2580.49 473.48H2588.81L2554.25 504.072L2554.38 500.488L2589.97 533H2581.13ZM2542.35 533V443.144H2548.88V533H2542.35ZM2631.1 533V473.48H2637.63V533H2631.1ZM2672.83 533V496.008C2672.83 490.632 2671.21 486.323 2667.96 483.08C2664.81 479.837 2660.75 478.216 2655.8 478.216C2652.48 478.216 2649.45 478.941 2646.72 480.392C2643.99 481.843 2641.77 483.891 2640.06 486.536C2638.44 489.181 2637.63 492.253 2637.63 495.752L2634.3 494.984C2634.3 490.376 2635.28 486.365 2637.24 482.952C2639.29 479.539 2642.02 476.893 2645.44 475.016C2648.93 473.139 2652.82 472.2 2657.08 472.2C2661.35 472.2 2665.15 473.139 2668.48 475.016C2671.8 476.893 2674.45 479.539 2676.41 482.952C2678.37 486.365 2679.36 490.376 2679.36 494.984V533H2672.83ZM2714.56 533V496.008C2714.56 490.632 2712.93 486.323 2709.69 483.08C2706.53 479.837 2702.48 478.216 2697.53 478.216C2694.2 478.216 2691.13 478.941 2688.32 480.392C2685.59 481.843 2683.41 483.891 2681.79 486.536C2680.17 489.181 2679.36 492.253 2679.36 495.752L2675.39 494.984C2675.47 490.291 2676.54 486.28 2678.59 482.952C2680.72 479.539 2683.54 476.893 2687.04 475.016C2690.53 473.139 2694.42 472.2 2698.68 472.2C2702.95 472.2 2706.75 473.139 2710.08 475.016C2713.4 476.893 2716.05 479.581 2718.01 483.08C2720.06 486.493 2721.08 490.504 2721.08 495.112V533H2714.56ZM2766.37 534.28C2760.48 534.28 2755.15 532.915 2750.37 530.184C2745.67 527.453 2741.96 523.741 2739.23 519.048C2736.5 514.355 2735.14 509.064 2735.14 503.176C2735.14 497.288 2736.46 492.04 2739.1 487.432C2741.75 482.739 2745.38 479.027 2749.98 476.296C2754.68 473.565 2759.88 472.2 2765.6 472.2C2771.06 472.2 2775.84 473.437 2779.94 475.912C2784.12 478.301 2787.36 481.629 2789.66 485.896C2792.05 490.163 2793.25 495.069 2793.25 500.616C2793.25 501.128 2793.2 501.811 2793.12 502.664C2793.03 503.432 2792.91 504.413 2792.74 505.608H2739.74V499.976H2789.02L2786.85 501.768C2787.02 497.075 2786.25 492.979 2784.54 489.48C2782.84 485.896 2780.36 483.123 2777.12 481.16C2773.88 479.197 2769.99 478.216 2765.47 478.216C2760.78 478.216 2756.64 479.283 2753.06 481.416C2749.47 483.464 2746.66 486.323 2744.61 489.992C2742.64 493.661 2741.66 497.928 2741.66 502.792C2741.66 507.912 2742.69 512.392 2744.74 516.232C2746.87 519.987 2749.81 522.931 2753.57 525.064C2757.32 527.112 2761.72 528.136 2766.75 528.136C2770.59 528.136 2774.13 527.453 2777.38 526.088C2780.7 524.637 2783.48 522.504 2785.7 519.688L2790.05 523.912C2787.32 527.155 2783.86 529.715 2779.68 531.592C2775.58 533.384 2771.15 534.28 2766.37 534.28ZM2840.95 507.784L2839.8 443.144H2847.22L2846.07 507.784H2840.95ZM2843.38 534.28C2841.59 534.28 2840.1 533.683 2838.9 532.488C2837.79 531.208 2837.24 529.715 2837.24 528.008C2837.24 526.301 2837.79 524.851 2838.9 523.656C2840.1 522.376 2841.59 521.736 2843.38 521.736C2845.18 521.736 2846.63 522.376 2847.74 523.656C2848.93 524.851 2849.53 526.301 2849.53 528.008C2849.53 529.715 2848.93 531.208 2847.74 532.488C2846.63 533.683 2845.18 534.28 2843.38 534.28ZM2874.2 507.784L2873.05 443.144H2880.47L2879.32 507.784H2874.2ZM2876.63 534.28C2874.84 534.28 2873.35 533.683 2872.15 532.488C2871.04 531.208 2870.49 529.715 2870.49 528.008C2870.49 526.301 2871.04 524.851 2872.15 523.656C2873.35 522.376 2874.84 521.736 2876.63 521.736C2878.43 521.736 2879.88 522.376 2880.99 523.656C2882.18 524.851 2882.78 526.301 2882.78 528.008C2882.78 529.715 2882.18 531.208 2880.99 532.488C2879.88 533.683 2878.43 534.28 2876.63 534.28Z" fill="#FF6262"/>
<path d="M1750.42 1385V1303.84H1756.73V1385H1750.42ZM1754.47 1385V1379.29H1800.28V1385H1754.47ZM1836.14 1386.19C1830.75 1386.19 1825.87 1384.92 1821.5 1382.38C1817.22 1379.76 1813.81 1376.27 1811.27 1371.91C1808.73 1367.47 1807.46 1362.55 1807.46 1357.15C1807.46 1351.76 1808.73 1346.92 1811.27 1342.64C1813.81 1338.27 1817.22 1334.82 1821.5 1332.28C1825.87 1329.74 1830.75 1328.47 1836.14 1328.47C1841.46 1328.47 1846.26 1329.74 1850.54 1332.28C1854.9 1334.82 1858.36 1338.27 1860.89 1342.64C1863.43 1346.92 1864.7 1351.76 1864.7 1357.15C1864.7 1362.63 1863.43 1367.55 1860.89 1371.91C1858.36 1376.27 1854.9 1379.76 1850.54 1382.38C1846.26 1384.92 1841.46 1386.19 1836.14 1386.19ZM1836.14 1380.48C1840.35 1380.48 1844.11 1379.45 1847.45 1377.38C1850.86 1375.32 1853.52 1372.54 1855.42 1369.05C1857.4 1365.48 1858.39 1361.48 1858.39 1357.03C1858.39 1352.67 1857.4 1348.78 1855.42 1345.37C1853.52 1341.96 1850.86 1339.26 1847.45 1337.28C1844.11 1335.22 1840.35 1334.19 1836.14 1334.19C1831.86 1334.19 1828.01 1335.22 1824.6 1337.28C1821.27 1339.26 1818.61 1341.96 1816.63 1345.37C1814.64 1348.78 1813.65 1352.71 1813.65 1357.15C1813.65 1361.6 1814.64 1365.56 1816.63 1369.05C1818.61 1372.54 1821.27 1375.32 1824.6 1377.38C1828.01 1379.45 1831.86 1380.48 1836.14 1380.48ZM1892.16 1385L1871.21 1329.66H1877.52L1895.25 1378.57H1892.63L1910.36 1329.66H1913.93L1931.66 1378.57H1929.05L1946.78 1329.66H1953.08L1932.26 1385H1928.57L1910.6 1335.97H1913.81L1895.73 1385H1892.16ZM2000.31 1385V1319.19C2000.31 1315.46 2001.1 1312.21 2002.69 1309.43C2004.28 1306.58 2006.46 1304.36 2009.23 1302.77C2012.09 1301.18 2015.34 1300.39 2018.99 1300.39C2021.77 1300.39 2024.27 1300.87 2026.49 1301.82C2028.71 1302.77 2030.65 1304.16 2032.32 1305.98L2028.39 1310.03C2027.04 1308.6 2025.58 1307.57 2023.99 1306.94C2022.4 1306.22 2020.7 1305.86 2018.87 1305.86C2014.91 1305.86 2011.81 1307.09 2009.59 1309.55C2007.37 1312.01 2006.26 1315.35 2006.26 1319.55V1385H2000.31ZM1985.91 1335.02V1329.66H2025.77V1335.02H1985.91ZM2059.51 1386.19C2054.03 1386.19 2049.08 1384.92 2044.63 1382.38C2040.27 1379.84 2036.82 1376.39 2034.28 1372.03C2031.74 1367.67 2030.47 1362.75 2030.47 1357.27C2030.47 1351.8 2031.7 1346.92 2034.16 1342.64C2036.62 1338.27 2039.99 1334.82 2044.28 1332.28C2048.64 1329.74 2053.48 1328.47 2058.79 1328.47C2063.87 1328.47 2068.31 1329.63 2072.12 1331.93C2076.01 1334.15 2079.02 1337.24 2081.17 1341.21C2083.39 1345.17 2084.5 1349.74 2084.5 1354.89C2084.5 1355.37 2084.46 1356 2084.38 1356.8C2084.3 1357.51 2084.18 1358.42 2084.02 1359.53H2034.76V1354.3H2080.57L2078.55 1355.96C2078.71 1351.6 2077.99 1347.79 2076.41 1344.54C2074.82 1341.21 2072.52 1338.63 2069.5 1336.8C2066.49 1334.98 2062.88 1334.07 2058.67 1334.07C2054.31 1334.07 2050.46 1335.06 2047.13 1337.04C2043.8 1338.95 2041.18 1341.6 2039.28 1345.02C2037.45 1348.43 2036.54 1352.39 2036.54 1356.92C2036.54 1361.68 2037.49 1365.84 2039.4 1369.41C2041.38 1372.9 2044.12 1375.64 2047.61 1377.62C2051.1 1379.53 2055.18 1380.48 2059.86 1380.48C2063.43 1380.48 2066.73 1379.84 2069.74 1378.57C2072.84 1377.23 2075.41 1375.24 2077.48 1372.62L2081.52 1376.55C2078.98 1379.57 2075.77 1381.95 2071.88 1383.69C2068.08 1385.36 2063.95 1386.19 2059.51 1386.19ZM2123.77 1386.19C2118.3 1386.19 2113.34 1384.92 2108.9 1382.38C2104.53 1379.84 2101.08 1376.39 2098.54 1372.03C2096.01 1367.67 2094.74 1362.75 2094.74 1357.27C2094.74 1351.8 2095.97 1346.92 2098.43 1342.64C2100.88 1338.27 2104.26 1334.82 2108.54 1332.28C2112.9 1329.74 2117.74 1328.47 2123.06 1328.47C2128.14 1328.47 2132.58 1329.63 2136.39 1331.93C2140.27 1334.15 2143.29 1337.24 2145.43 1341.21C2147.65 1345.17 2148.76 1349.74 2148.76 1354.89C2148.76 1355.37 2148.72 1356 2148.64 1356.8C2148.56 1357.51 2148.45 1358.42 2148.29 1359.53H2099.02V1354.3H2144.84L2142.81 1355.96C2142.97 1351.6 2142.26 1347.79 2140.67 1344.54C2139.08 1341.21 2136.78 1338.63 2133.77 1336.8C2130.75 1334.98 2127.14 1334.07 2122.94 1334.07C2118.58 1334.07 2114.73 1335.06 2111.4 1337.04C2108.06 1338.95 2105.45 1341.6 2103.54 1345.02C2101.72 1348.43 2100.81 1352.39 2100.81 1356.92C2100.81 1361.68 2101.76 1365.84 2103.66 1369.41C2105.64 1372.9 2108.38 1375.64 2111.87 1377.62C2115.36 1379.53 2119.45 1380.48 2124.13 1380.48C2127.7 1380.48 2130.99 1379.84 2134.01 1378.57C2137.1 1377.23 2139.68 1375.24 2141.74 1372.62L2145.79 1376.55C2143.25 1379.57 2140.04 1381.95 2136.15 1383.69C2132.34 1385.36 2128.22 1386.19 2123.77 1386.19Z" fill="#FF6262"/>
<path d="M1673 989.5L1699.88 938.404L1642.19 940.673L1673 989.5ZM1676.22 944.184C1670.11 861.527 1651.84 733.972 1667.6 623.534C1675.47 568.412 1691.76 518.148 1721.86 480.159C1751.83 442.339 1795.8 416.279 1859.99 409.976L1859.01 400.024C1792.32 406.573 1745.79 433.855 1714.03 473.949C1682.39 513.874 1665.7 566.098 1657.7 622.121C1641.74 733.975 1660.21 863.343 1666.24 944.921L1676.22 944.184Z" fill="#FF6262"/>
<path d="M4034.75 688V680.198H4072.43C4080.62 680.198 4087.15 677.985 4092.02 673.558C4097 669.021 4099.49 663.211 4099.49 656.128C4099.49 651.48 4098.38 647.385 4096.17 643.844C4094.07 640.192 4091.08 637.37 4087.21 635.378C4083.44 633.275 4079.02 632.224 4073.93 632.224H4034.75V624.754H4072.6C4079.24 624.754 4084.49 622.873 4088.37 619.11C4092.35 615.347 4094.34 610.201 4094.34 603.672C4094.34 597.032 4092.19 591.886 4087.87 588.234C4083.55 584.471 4077.8 582.59 4070.61 582.59H4034.75V574.788H4070.61C4077.47 574.788 4083.28 576.005 4088.04 578.44C4092.91 580.764 4096.61 584.029 4099.16 588.234C4101.81 592.439 4103.14 597.364 4103.14 603.008C4103.14 609.427 4101.43 614.96 4098 619.608C4094.68 624.256 4089.86 627.631 4083.55 629.734L4084.55 626.746C4091.96 628.849 4097.77 632.556 4101.98 637.868C4106.3 643.069 4108.45 649.322 4108.45 656.626C4108.45 662.713 4106.96 668.135 4103.97 672.894C4100.98 677.653 4096.72 681.36 4091.19 684.016C4085.77 686.672 4079.24 688 4071.6 688H4034.75ZM4029.44 688V574.788H4038.24V688H4029.44ZM4165.89 689.66C4158.25 689.66 4151.33 687.889 4145.14 684.348C4139.05 680.807 4134.24 675.993 4130.69 669.906C4127.15 663.819 4125.38 656.958 4125.38 649.322C4125.38 641.686 4127.1 634.88 4130.53 628.904C4133.96 622.817 4138.66 618.003 4144.64 614.462C4150.72 610.921 4157.48 609.15 4164.89 609.15C4171.97 609.15 4178.17 610.755 4183.48 613.964C4188.9 617.063 4193.11 621.379 4196.1 626.912C4199.2 632.445 4200.75 638.809 4200.75 646.002C4200.75 646.666 4200.69 647.551 4200.58 648.658C4200.47 649.654 4200.3 650.927 4200.08 652.476H4131.36V645.172H4195.27L4192.45 647.496C4192.67 641.409 4191.67 636.097 4189.46 631.56C4187.24 626.912 4184.04 623.315 4179.83 620.77C4175.62 618.225 4170.59 616.952 4164.72 616.952C4158.64 616.952 4153.27 618.335 4148.62 621.102C4143.97 623.758 4140.32 627.465 4137.67 632.224C4135.12 636.983 4133.85 642.516 4133.85 648.824C4133.85 655.464 4135.18 661.274 4137.83 666.254C4140.6 671.123 4144.42 674.941 4149.29 677.708C4154.16 680.364 4159.85 681.692 4166.38 681.692C4171.36 681.692 4175.96 680.807 4180.16 679.036C4184.48 677.155 4188.07 674.388 4190.95 670.736L4196.6 676.214C4193.05 680.419 4188.57 683.739 4183.15 686.174C4177.84 688.498 4172.08 689.66 4165.89 689.66ZM4255.03 689.66C4247.51 689.66 4240.7 687.889 4234.62 684.348C4228.64 680.696 4223.88 675.827 4220.34 669.74C4216.8 663.543 4215.03 656.681 4215.03 649.156C4215.03 641.631 4216.8 634.88 4220.34 628.904C4223.88 622.817 4228.64 618.003 4234.62 614.462C4240.7 610.921 4247.51 609.15 4255.03 609.15C4260.68 609.15 4265.99 610.201 4270.97 612.304C4275.95 614.407 4280.21 617.395 4283.75 621.268L4278.11 626.912C4275.23 623.813 4271.8 621.434 4267.82 619.774C4263.94 618.003 4259.68 617.118 4255.03 617.118C4249.06 617.118 4243.69 618.557 4238.93 621.434C4234.28 624.201 4230.58 627.963 4227.81 632.722C4225.04 637.481 4223.66 642.959 4223.66 649.156C4223.66 655.353 4225.04 660.887 4227.81 665.756C4230.58 670.625 4234.28 674.499 4238.93 677.376C4243.69 680.253 4249.06 681.692 4255.03 681.692C4259.68 681.692 4264 680.862 4267.98 679.202C4272.08 677.431 4275.56 674.941 4278.44 671.732L4284.08 677.376C4280.43 681.249 4276.06 684.293 4270.97 686.506C4265.99 688.609 4260.68 689.66 4255.03 689.66ZM4334.61 689.66C4327.2 689.66 4320.5 687.889 4314.52 684.348C4308.66 680.807 4304.01 676.048 4300.58 670.072C4297.15 663.985 4295.43 657.124 4295.43 649.488C4295.43 641.963 4297.15 635.157 4300.58 629.07C4304.01 622.983 4308.66 618.169 4314.52 614.628C4320.39 610.976 4326.97 609.15 4334.28 609.15C4340.25 609.15 4345.57 610.312 4350.21 612.636C4354.97 614.849 4358.85 618.003 4361.83 622.098C4364.93 626.193 4366.93 631.062 4367.81 636.706V661.938C4366.81 667.582 4364.77 672.507 4361.67 676.712C4358.68 680.807 4354.86 684.016 4350.21 686.34C4345.68 688.553 4340.48 689.66 4334.61 689.66ZM4335.77 681.692C4344.63 681.692 4351.65 678.759 4356.85 672.894C4362.17 666.918 4364.82 659.116 4364.82 649.488C4364.82 642.959 4363.61 637.315 4361.17 632.556C4358.85 627.687 4355.47 623.924 4351.04 621.268C4346.62 618.501 4341.47 617.118 4335.61 617.118C4329.52 617.118 4324.1 618.501 4319.34 621.268C4314.69 624.035 4310.98 627.853 4308.22 632.722C4305.56 637.591 4304.23 643.125 4304.23 649.322C4304.23 655.63 4305.56 661.219 4308.22 666.088C4310.98 670.957 4314.75 674.775 4319.5 677.542C4324.26 680.309 4329.69 681.692 4335.77 681.692ZM4364.49 688V667.25L4366.32 648.326L4364.49 629.568V610.81H4372.96V688H4364.49ZM4428.05 689.66C4421.86 689.66 4416.32 688.221 4411.45 685.344C4406.59 682.467 4402.77 678.483 4400 673.392C4397.34 668.301 4396.02 662.436 4396.02 655.796V610.81H4404.48V655.464C4404.48 660.665 4405.42 665.258 4407.3 669.242C4409.3 673.115 4412.06 676.159 4415.6 678.372C4419.15 680.585 4423.3 681.692 4428.05 681.692C4435.14 681.692 4440.78 679.313 4444.99 674.554C4449.3 669.685 4451.46 663.321 4451.46 655.464V610.81H4459.93V655.796C4459.93 662.436 4458.54 668.301 4455.78 673.392C4453.12 678.483 4449.36 682.467 4444.49 685.344C4439.73 688.221 4434.25 689.66 4428.05 689.66ZM4506.02 689.66C4501.82 689.66 4497.83 689.107 4494.07 688C4490.42 686.783 4487.04 685.123 4483.95 683.02C4480.96 680.917 4478.3 678.483 4475.98 675.716L4481.62 670.072C4484.72 674.167 4488.32 677.21 4492.41 679.202C4496.62 681.083 4501.21 682.024 4506.19 682.024C4511.94 682.024 4516.48 680.862 4519.8 678.538C4523.12 676.214 4524.78 672.949 4524.78 668.744C4524.78 664.981 4523.73 662.049 4521.63 659.946C4519.53 657.733 4516.76 656.017 4513.33 654.8C4510.01 653.583 4506.47 652.421 4502.7 651.314C4499.05 650.207 4495.51 648.879 4492.08 647.33C4488.76 645.781 4486.05 643.623 4483.95 640.856C4481.84 638.089 4480.79 634.382 4480.79 629.734C4480.79 625.639 4481.84 622.043 4483.95 618.944C4486.05 615.845 4488.98 613.466 4492.74 611.806C4496.62 610.035 4501.15 609.15 4506.36 609.15C4512.11 609.15 4517.26 610.146 4521.79 612.138C4526.44 614.13 4530.15 617.063 4532.92 620.936L4527.44 626.58C4525.22 623.481 4522.24 621.102 4518.47 619.442C4514.71 617.671 4510.51 616.786 4505.86 616.786C4500.32 616.786 4496.12 617.948 4493.24 620.272C4490.36 622.596 4488.93 625.584 4488.93 629.236C4488.93 632.667 4489.98 635.378 4492.08 637.37C4494.18 639.362 4496.89 640.911 4500.21 642.018C4503.64 643.125 4507.19 644.231 4510.84 645.338C4514.6 646.334 4518.14 647.662 4521.46 649.322C4524.89 650.982 4527.66 653.251 4529.76 656.128C4531.86 659.005 4532.92 662.934 4532.92 667.914C4532.92 674.554 4530.48 679.866 4525.61 683.85C4520.74 687.723 4514.21 689.66 4506.02 689.66ZM4588.18 689.66C4580.55 689.66 4573.63 687.889 4567.43 684.348C4561.34 680.807 4556.53 675.993 4552.99 669.906C4549.45 663.819 4547.68 656.958 4547.68 649.322C4547.68 641.686 4549.39 634.88 4552.82 628.904C4556.25 622.817 4560.96 618.003 4566.93 614.462C4573.02 610.921 4579.77 609.15 4587.19 609.15C4594.27 609.15 4600.47 610.755 4605.78 613.964C4611.2 617.063 4615.41 621.379 4618.39 626.912C4621.49 632.445 4623.04 638.809 4623.04 646.002C4623.04 646.666 4622.99 647.551 4622.88 648.658C4622.76 649.654 4622.6 650.927 4622.38 652.476H4553.65V645.172H4617.56L4614.74 647.496C4614.96 641.409 4613.97 636.097 4611.75 631.56C4609.54 626.912 4606.33 623.315 4602.13 620.77C4597.92 618.225 4592.88 616.952 4587.02 616.952C4580.93 616.952 4575.57 618.335 4570.92 621.102C4566.27 623.758 4562.62 627.465 4559.96 632.224C4557.42 636.983 4556.14 642.516 4556.14 648.824C4556.14 655.464 4557.47 661.274 4560.13 666.254C4562.89 671.123 4566.71 674.941 4571.58 677.708C4576.45 680.364 4582.15 681.692 4588.68 681.692C4593.66 681.692 4598.25 680.807 4602.46 679.036C4606.77 677.155 4610.37 674.388 4613.25 670.736L4618.89 676.214C4615.35 680.419 4610.87 683.739 4605.45 686.174C4600.13 688.498 4594.38 689.66 4588.18 689.66ZM4691.38 688V578.108H4699.85V688H4691.38ZM4671.46 618.28V610.81H4719.77V618.28H4671.46ZM4794.91 688V642.184C4794.91 634.659 4792.7 628.572 4788.27 623.924C4783.85 619.276 4777.98 616.952 4770.68 616.952C4765.7 616.952 4761.27 618.059 4757.4 620.272C4753.63 622.375 4750.65 625.307 4748.43 629.07C4746.33 632.833 4745.28 637.204 4745.28 642.184L4740.96 639.694C4740.96 633.829 4742.35 628.627 4745.11 624.09C4747.88 619.442 4751.64 615.79 4756.4 613.134C4761.16 610.478 4766.58 609.15 4772.67 609.15C4778.76 609.15 4784.07 610.533 4788.61 613.3C4793.25 615.956 4796.85 619.719 4799.4 624.588C4801.94 629.457 4803.21 634.991 4803.21 641.188V688H4794.91ZM4736.81 688V571.468H4745.28V688H4736.81ZM4862.15 689.66C4854.51 689.66 4847.59 687.889 4841.4 684.348C4835.31 680.807 4830.5 675.993 4826.95 669.906C4823.41 663.819 4821.64 656.958 4821.64 649.322C4821.64 641.686 4823.36 634.88 4826.79 628.904C4830.22 622.817 4834.92 618.003 4840.9 614.462C4846.98 610.921 4853.74 609.15 4861.15 609.15C4868.23 609.15 4874.43 610.755 4879.74 613.964C4885.16 617.063 4889.37 621.379 4892.36 626.912C4895.46 632.445 4897.01 638.809 4897.01 646.002C4897.01 646.666 4896.95 647.551 4896.84 648.658C4896.73 649.654 4896.56 650.927 4896.34 652.476H4827.62V645.172H4891.53L4888.71 647.496C4888.93 641.409 4887.93 636.097 4885.72 631.56C4883.5 626.912 4880.3 623.315 4876.09 620.77C4871.88 618.225 4866.85 616.952 4860.98 616.952C4854.9 616.952 4849.53 618.335 4844.88 621.102C4840.23 623.758 4836.58 627.465 4833.93 632.224C4831.38 636.983 4830.11 642.516 4830.11 648.824C4830.11 655.464 4831.44 661.274 4834.09 666.254C4836.86 671.123 4840.68 674.941 4845.55 677.708C4850.42 680.364 4856.11 681.692 4862.64 681.692C4867.62 681.692 4872.22 680.807 4876.42 679.036C4880.74 677.155 4884.33 674.388 4887.21 670.736L4892.86 676.214C4889.31 680.419 4884.83 683.739 4879.41 686.174C4874.1 688.498 4868.34 689.66 4862.15 689.66ZM4965.18 688V596.202C4965.18 591.001 4966.29 586.463 4968.5 582.59C4970.71 578.606 4973.76 575.507 4977.63 573.294C4981.62 571.081 4986.15 569.974 4991.24 569.974C4995.12 569.974 4998.6 570.638 5001.7 571.966C5004.8 573.294 5007.51 575.231 5009.84 577.776L5004.36 583.42C5002.48 581.428 5000.43 579.989 4998.22 579.104C4996 578.108 4993.62 577.61 4991.08 577.61C4985.54 577.61 4981.23 579.325 4978.13 582.756C4975.03 586.187 4973.48 590.835 4973.48 596.7V688H4965.18ZM4945.1 618.28V610.81H5000.71V618.28H4945.1ZM5047.76 689.66C5040.13 689.66 5033.21 687.889 5027.01 684.348C5020.92 680.807 5016.11 675.993 5012.57 669.906C5009.03 663.819 5007.26 656.958 5007.26 649.322C5007.26 641.686 5008.97 634.88 5012.4 628.904C5015.83 622.817 5020.54 618.003 5026.51 614.462C5032.6 610.921 5039.35 609.15 5046.77 609.15C5053.85 609.15 5060.05 610.755 5065.36 613.964C5070.78 617.063 5074.99 621.379 5077.97 626.912C5081.07 632.445 5082.62 638.809 5082.62 646.002C5082.62 646.666 5082.57 647.551 5082.46 648.658C5082.34 649.654 5082.18 650.927 5081.96 652.476H5013.23V645.172H5077.14L5074.32 647.496C5074.54 641.409 5073.55 636.097 5071.33 631.56C5069.12 626.912 5065.91 623.315 5061.71 620.77C5057.5 618.225 5052.46 616.952 5046.6 616.952C5040.51 616.952 5035.15 618.335 5030.5 621.102C5025.85 623.758 5022.2 627.465 5019.54 632.224C5017 636.983 5015.72 642.516 5015.72 648.824C5015.72 655.464 5017.05 661.274 5019.71 666.254C5022.47 671.123 5026.29 674.941 5031.16 677.708C5036.03 680.364 5041.73 681.692 5048.26 681.692C5053.24 681.692 5057.83 680.807 5062.04 679.036C5066.35 677.155 5069.95 674.388 5072.83 670.736L5078.47 676.214C5074.93 680.419 5070.45 683.739 5065.03 686.174C5059.71 688.498 5053.96 689.66 5047.76 689.66ZM5137.41 689.66C5129.77 689.66 5122.85 687.889 5116.66 684.348C5110.57 680.807 5105.76 675.993 5102.22 669.906C5098.67 663.819 5096.9 656.958 5096.9 649.322C5096.9 641.686 5098.62 634.88 5102.05 628.904C5105.48 622.817 5110.18 618.003 5116.16 614.462C5122.25 610.921 5129 609.15 5136.41 609.15C5143.49 609.15 5149.69 610.755 5155 613.964C5160.43 617.063 5164.63 621.379 5167.62 626.912C5170.72 632.445 5172.27 638.809 5172.27 646.002C5172.27 646.666 5172.21 647.551 5172.1 648.658C5171.99 649.654 5171.82 650.927 5171.6 652.476H5102.88V645.172H5166.79L5163.97 647.496C5164.19 641.409 5163.19 636.097 5160.98 631.56C5158.77 626.912 5155.56 623.315 5151.35 620.77C5147.15 618.225 5142.11 616.952 5136.25 616.952C5130.16 616.952 5124.79 618.335 5120.14 621.102C5115.5 623.758 5111.84 627.465 5109.19 632.224C5106.64 636.983 5105.37 642.516 5105.37 648.824C5105.37 655.464 5106.7 661.274 5109.35 666.254C5112.12 671.123 5115.94 674.941 5120.81 677.708C5125.68 680.364 5131.38 681.692 5137.91 681.692C5142.89 681.692 5147.48 680.807 5151.68 679.036C5156 677.155 5159.6 674.388 5162.47 670.736L5168.12 676.214C5164.58 680.419 5160.09 683.739 5154.67 686.174C5149.36 688.498 5143.6 689.66 5137.41 689.66ZM5228.66 688V610.81H5236.96V688H5228.66ZM5232.81 592.882C5230.93 592.882 5229.32 592.218 5227.99 590.89C5226.78 589.451 5226.17 587.791 5226.17 585.91C5226.17 584.029 5226.78 582.479 5227.99 581.262C5229.32 579.934 5230.93 579.27 5232.81 579.27C5234.69 579.27 5236.29 579.934 5237.62 581.262C5238.95 582.479 5239.61 584.029 5239.61 585.91C5239.61 587.791 5238.95 589.451 5237.62 590.89C5236.29 592.218 5234.69 592.882 5232.81 592.882ZM5285.28 689.66C5281.08 689.66 5277.09 689.107 5273.33 688C5269.68 686.783 5266.3 685.123 5263.21 683.02C5260.22 680.917 5257.56 678.483 5255.24 675.716L5260.88 670.072C5263.98 674.167 5267.58 677.21 5271.67 679.202C5275.88 681.083 5280.47 682.024 5285.45 682.024C5291.2 682.024 5295.74 680.862 5299.06 678.538C5302.38 676.214 5304.04 672.949 5304.04 668.744C5304.04 664.981 5302.99 662.049 5300.89 659.946C5298.79 657.733 5296.02 656.017 5292.59 654.8C5289.27 653.583 5285.73 652.421 5281.96 651.314C5278.31 650.207 5274.77 648.879 5271.34 647.33C5268.02 645.781 5265.31 643.623 5263.21 640.856C5261.1 638.089 5260.05 634.382 5260.05 629.734C5260.05 625.639 5261.1 622.043 5263.21 618.944C5265.31 615.845 5268.24 613.466 5272 611.806C5275.88 610.035 5280.41 609.15 5285.62 609.15C5291.37 609.15 5296.52 610.146 5301.05 612.138C5305.7 614.13 5309.41 617.063 5312.18 620.936L5306.7 626.58C5304.48 623.481 5301.5 621.102 5297.73 619.442C5293.97 617.671 5289.77 616.786 5285.12 616.786C5279.58 616.786 5275.38 617.948 5272.5 620.272C5269.62 622.596 5268.19 625.584 5268.19 629.236C5268.19 632.667 5269.24 635.378 5271.34 637.37C5273.44 639.362 5276.15 640.911 5279.47 642.018C5282.9 643.125 5286.45 644.231 5290.1 645.338C5293.86 646.334 5297.4 647.662 5300.72 649.322C5304.15 650.982 5306.92 653.251 5309.02 656.128C5311.12 659.005 5312.18 662.934 5312.18 667.914C5312.18 674.554 5309.74 679.866 5304.87 683.85C5300 687.723 5293.47 689.66 5285.28 689.66ZM5391.95 689.66C5387.75 689.66 5383.76 689.107 5380 688C5376.35 686.783 5372.97 685.123 5369.87 683.02C5366.89 680.917 5364.23 678.483 5361.91 675.716L5367.55 670.072C5370.65 674.167 5374.25 677.21 5378.34 679.202C5382.55 681.083 5387.14 682.024 5392.12 682.024C5397.87 682.024 5402.41 680.862 5405.73 678.538C5409.05 676.214 5410.71 672.949 5410.71 668.744C5410.71 664.981 5409.66 662.049 5407.56 659.946C5405.45 657.733 5402.69 656.017 5399.26 654.8C5395.94 653.583 5392.39 652.421 5388.63 651.314C5384.98 650.207 5381.44 648.879 5378.01 647.33C5374.69 645.781 5371.98 643.623 5369.87 640.856C5367.77 638.089 5366.72 634.382 5366.72 629.734C5366.72 625.639 5367.77 622.043 5369.87 618.944C5371.98 615.845 5374.91 613.466 5378.67 611.806C5382.55 610.035 5387.08 609.15 5392.28 609.15C5398.04 609.15 5403.18 610.146 5407.72 612.138C5412.37 614.13 5416.08 617.063 5418.84 620.936L5413.37 626.58C5411.15 623.481 5408.16 621.102 5404.4 619.442C5400.64 617.671 5396.43 616.786 5391.79 616.786C5386.25 616.786 5382.05 617.948 5379.17 620.272C5376.29 622.596 5374.85 625.584 5374.85 629.236C5374.85 632.667 5375.91 635.378 5378.01 637.37C5380.11 639.362 5382.82 640.911 5386.14 642.018C5389.57 643.125 5393.11 644.231 5396.77 645.338C5400.53 646.334 5404.07 647.662 5407.39 649.322C5410.82 650.982 5413.59 653.251 5415.69 656.128C5417.79 659.005 5418.84 662.934 5418.84 667.914C5418.84 674.554 5416.41 679.866 5411.54 683.85C5406.67 687.723 5400.14 689.66 5391.95 689.66ZM5473.61 689.66C5466.09 689.66 5459.28 687.889 5453.19 684.348C5447.22 680.696 5442.46 675.827 5438.92 669.74C5435.38 663.543 5433.6 656.681 5433.6 649.156C5433.6 641.631 5435.38 634.88 5438.92 628.904C5442.46 622.817 5447.22 618.003 5453.19 614.462C5459.28 610.921 5466.09 609.15 5473.61 609.15C5481.03 609.15 5487.72 610.921 5493.7 614.462C5499.78 618.003 5504.6 622.817 5508.14 628.904C5511.68 634.88 5513.45 641.631 5513.45 649.156C5513.45 656.792 5511.68 663.653 5508.14 669.74C5504.6 675.827 5499.78 680.696 5493.7 684.348C5487.72 687.889 5481.03 689.66 5473.61 689.66ZM5473.61 681.692C5479.48 681.692 5484.73 680.253 5489.38 677.376C5494.14 674.499 5497.85 670.625 5500.5 665.756C5503.27 660.776 5504.65 655.187 5504.65 648.99C5504.65 642.903 5503.27 637.481 5500.5 632.722C5497.85 627.963 5494.14 624.201 5489.38 621.434C5484.73 618.557 5479.48 617.118 5473.61 617.118C5467.63 617.118 5462.27 618.557 5457.51 621.434C5452.86 624.201 5449.15 627.963 5446.39 632.722C5443.62 637.481 5442.24 642.959 5442.24 649.156C5442.24 655.353 5443.62 660.887 5446.39 665.756C5449.15 670.625 5452.86 674.499 5457.51 677.376C5462.27 680.253 5467.63 681.692 5473.61 681.692ZM5570.38 688V571.468H5578.85V688H5570.38ZM5638.8 689.66C5631.27 689.66 5624.47 687.889 5618.38 684.348C5612.41 680.696 5607.65 675.827 5604.11 669.74C5600.56 663.543 5598.79 656.681 5598.79 649.156C5598.79 641.631 5600.56 634.88 5604.11 628.904C5607.65 622.817 5612.41 618.003 5618.38 614.462C5624.47 610.921 5631.27 609.15 5638.8 609.15C5646.21 609.15 5652.91 610.921 5658.89 614.462C5664.97 618.003 5669.79 622.817 5673.33 628.904C5676.87 634.88 5678.64 641.631 5678.64 649.156C5678.64 656.792 5676.87 663.653 5673.33 669.74C5669.79 675.827 5664.97 680.696 5658.89 684.348C5652.91 687.889 5646.21 689.66 5638.8 689.66ZM5638.8 681.692C5644.67 681.692 5649.92 680.253 5654.57 677.376C5659.33 674.499 5663.04 670.625 5665.69 665.756C5668.46 660.776 5669.84 655.187 5669.84 648.99C5669.84 642.903 5668.46 637.481 5665.69 632.722C5663.04 627.963 5659.33 624.201 5654.57 621.434C5649.92 618.557 5644.67 617.118 5638.8 617.118C5632.82 617.118 5627.46 618.557 5622.7 621.434C5618.05 624.201 5614.34 627.963 5611.58 632.722C5608.81 637.481 5607.43 642.959 5607.43 649.156C5607.43 655.353 5608.81 660.887 5611.58 665.756C5614.34 670.625 5618.05 674.499 5622.7 677.376C5627.46 680.253 5632.82 681.692 5638.8 681.692ZM5716.94 688L5687.72 610.81H5696.52L5721.25 679.036H5717.6L5742.34 610.81H5747.32L5772.05 679.036H5768.4L5793.13 610.81H5801.93L5772.88 688H5767.73L5742.67 619.608H5747.15L5721.92 688H5716.94ZM5815.39 703.936L5824.02 686.838L5827.34 686.174C5827.01 687.059 5826.45 687.779 5825.68 688.332C5825.01 688.996 5824.07 689.328 5822.86 689.328C5820.97 689.328 5819.26 688.609 5817.71 687.17C5816.27 685.731 5815.55 683.905 5815.55 681.692C5815.55 679.368 5816.38 677.431 5818.04 675.882C5819.7 674.222 5821.69 673.392 5824.02 673.392C5826.12 673.392 5827.95 674.222 5829.5 675.882C5831.16 677.431 5831.99 679.368 5831.99 681.692C5831.99 682.688 5831.82 683.85 5831.49 685.178C5831.27 686.395 5830.66 688 5829.66 689.992L5821.03 706.924L5815.39 703.936ZM4026.45 897V819.81H4034.92V897H4026.45ZM4080.57 897V849.026C4080.57 842.054 4078.46 836.465 4074.26 832.26C4070.16 828.055 4064.91 825.952 4058.49 825.952C4054.17 825.952 4050.24 826.893 4046.7 828.774C4043.16 830.655 4040.28 833.311 4038.07 836.742C4035.97 840.173 4034.92 844.157 4034.92 848.694L4030.6 847.698C4030.6 841.722 4031.87 836.521 4034.42 832.094C4037.07 827.667 4040.62 824.237 4045.04 821.802C4049.58 819.367 4054.61 818.15 4060.15 818.15C4065.68 818.15 4070.61 819.367 4074.92 821.802C4079.24 824.237 4082.67 827.667 4085.21 832.094C4087.76 836.521 4089.03 841.722 4089.03 847.698V897H4080.57ZM4134.68 897V849.026C4134.68 842.054 4132.58 836.465 4128.37 832.26C4124.28 828.055 4119.02 825.952 4112.6 825.952C4108.29 825.952 4104.3 826.893 4100.65 828.774C4097.11 830.655 4094.29 833.311 4092.19 836.742C4090.08 840.173 4089.03 844.157 4089.03 848.694L4083.89 847.698C4084 841.611 4085.38 836.41 4088.04 832.094C4090.8 827.667 4094.45 824.237 4098.99 821.802C4103.53 819.367 4108.56 818.15 4114.1 818.15C4119.63 818.15 4124.56 819.367 4128.87 821.802C4133.19 824.237 4136.62 827.723 4139.16 832.26C4141.82 836.687 4143.15 841.888 4143.15 847.864V897H4134.68ZM4166.52 897V819.81H4174.82V897H4166.52ZM4170.67 801.882C4168.79 801.882 4167.18 801.218 4165.85 799.89C4164.64 798.451 4164.03 796.791 4164.03 794.91C4164.03 793.029 4164.64 791.479 4165.85 790.262C4167.18 788.934 4168.79 788.27 4170.67 788.27C4172.55 788.27 4174.15 788.934 4175.48 790.262C4176.81 791.479 4177.47 793.029 4177.47 794.91C4177.47 796.791 4176.81 798.451 4175.48 799.89C4174.15 801.218 4172.55 801.882 4170.67 801.882ZM4258.17 897V851.184C4258.17 843.659 4255.96 837.572 4251.53 832.924C4247.1 828.276 4241.24 825.952 4233.93 825.952C4228.95 825.952 4224.53 827.059 4220.65 829.272C4216.89 831.375 4213.9 834.307 4211.69 838.07C4209.59 841.833 4208.54 846.204 4208.54 851.184L4204.22 848.694C4204.22 842.829 4205.6 837.627 4208.37 833.09C4211.14 828.442 4214.9 824.79 4219.66 822.134C4224.42 819.478 4229.84 818.15 4235.93 818.15C4242.01 818.15 4247.32 819.589 4251.86 822.466C4256.51 825.233 4260.11 829.051 4262.65 833.92C4265.2 838.789 4266.47 844.212 4266.47 850.188V897H4258.17ZM4200.07 897V819.81H4208.54V897H4200.07ZM4325.4 898.66C4317.77 898.66 4310.85 896.889 4304.65 893.348C4298.57 889.807 4293.75 884.993 4290.21 878.906C4286.67 872.819 4284.9 865.958 4284.9 858.322C4284.9 850.686 4286.61 843.88 4290.04 837.904C4293.47 831.817 4298.18 827.003 4304.15 823.462C4310.24 819.921 4316.99 818.15 4324.41 818.15C4331.49 818.15 4337.69 819.755 4343 822.964C4348.42 826.063 4352.63 830.379 4355.61 835.912C4358.71 841.445 4360.26 847.809 4360.26 855.002C4360.26 855.666 4360.21 856.551 4360.1 857.658C4359.99 858.654 4359.82 859.927 4359.6 861.476H4290.87V854.172H4354.78L4351.96 856.496C4352.18 850.409 4351.19 845.097 4348.97 840.56C4346.76 835.912 4343.55 832.315 4339.35 829.77C4335.14 827.225 4330.11 825.952 4324.24 825.952C4318.15 825.952 4312.79 827.335 4308.14 830.102C4303.49 832.758 4299.84 836.465 4297.18 841.224C4294.64 845.983 4293.36 851.516 4293.36 857.824C4293.36 864.464 4294.69 870.274 4297.35 875.254C4300.11 880.123 4303.93 883.941 4308.8 886.708C4313.67 889.364 4319.37 890.692 4325.9 890.692C4330.88 890.692 4335.47 889.807 4339.68 888.036C4343.99 886.155 4347.59 883.388 4350.47 879.736L4356.11 885.214C4352.57 889.419 4348.09 892.739 4342.67 895.174C4337.35 897.498 4331.6 898.66 4325.4 898.66ZM4379.52 897V819.81H4387.99V897H4379.52ZM4387.99 850.852L4383.84 849.358C4383.84 839.509 4386.33 831.873 4391.31 826.45C4396.29 820.917 4402.82 818.15 4410.9 818.15C4414.66 818.15 4418.15 818.814 4421.36 820.142C4424.68 821.47 4427.72 823.628 4430.49 826.616L4424.84 832.592C4422.74 830.268 4420.47 828.608 4418.04 827.612C4415.6 826.616 4412.72 826.118 4409.4 826.118C4403.1 826.118 4397.95 828.276 4393.97 832.592C4389.98 836.797 4387.99 842.884 4387.99 850.852ZM4465.66 898.66C4461.45 898.66 4457.47 898.107 4453.71 897C4450.05 895.783 4446.68 894.123 4443.58 892.02C4440.59 889.917 4437.94 887.483 4435.61 884.716L4441.26 879.072C4444.36 883.167 4447.95 886.21 4452.05 888.202C4456.25 890.083 4460.84 891.024 4465.82 891.024C4471.58 891.024 4476.12 889.862 4479.44 887.538C4482.76 885.214 4484.42 881.949 4484.42 877.744C4484.42 873.981 4483.37 871.049 4481.26 868.946C4479.16 866.733 4476.39 865.017 4472.96 863.8C4469.64 862.583 4466.1 861.421 4462.34 860.314C4458.69 859.207 4455.15 857.879 4451.71 856.33C4448.39 854.781 4445.68 852.623 4443.58 849.856C4441.48 847.089 4440.43 843.382 4440.43 838.734C4440.43 834.639 4441.48 831.043 4443.58 827.944C4445.68 824.845 4448.62 822.466 4452.38 820.806C4456.25 819.035 4460.79 818.15 4465.99 818.15C4471.75 818.15 4476.89 819.146 4481.43 821.138C4486.08 823.13 4489.78 826.063 4492.55 829.936L4487.07 835.58C4484.86 832.481 4481.87 830.102 4478.11 828.442C4474.35 826.671 4470.14 825.786 4465.49 825.786C4459.96 825.786 4455.75 826.948 4452.88 829.272C4450 831.596 4448.56 834.584 4448.56 838.236C4448.56 841.667 4449.61 844.378 4451.71 846.37C4453.82 848.362 4456.53 849.911 4459.85 851.018C4463.28 852.125 4466.82 853.231 4470.47 854.338C4474.24 855.334 4477.78 856.662 4481.1 858.322C4484.53 859.982 4487.29 862.251 4489.4 865.128C4491.5 868.005 4492.55 871.934 4492.55 876.914C4492.55 883.554 4490.12 888.866 4485.25 892.85C4480.38 896.723 4473.85 898.66 4465.66 898.66ZM4549.42 897V819.81H4557.72V897H4549.42ZM4553.57 801.882C4551.69 801.882 4550.08 801.218 4548.75 799.89C4547.54 798.451 4546.93 796.791 4546.93 794.91C4546.93 793.029 4547.54 791.479 4548.75 790.262C4550.08 788.934 4551.69 788.27 4553.57 788.27C4555.45 788.27 4557.05 788.934 4558.38 790.262C4559.71 791.479 4560.37 793.029 4560.37 794.91C4560.37 796.791 4559.71 798.451 4558.38 799.89C4557.05 801.218 4555.45 801.882 4553.57 801.882ZM4614.84 931.362C4607.32 931.362 4600.51 929.923 4594.43 927.046C4588.34 924.279 4583.47 920.24 4579.82 914.928L4585.13 909.616C4588.12 913.821 4592.16 917.141 4597.25 919.576C4602.34 922.121 4608.26 923.394 4615.01 923.394C4624.86 923.394 4632.61 920.738 4638.25 915.426C4644 910.114 4646.88 902.976 4646.88 894.012V874.59L4648.87 856.662L4646.88 839.232V819.81H4655.35V894.012C4655.35 901.537 4653.63 908.067 4650.2 913.6C4646.88 919.133 4642.18 923.449 4636.09 926.548C4630 929.757 4622.92 931.362 4614.84 931.362ZM4616.5 896.502C4609.2 896.502 4602.61 894.842 4596.75 891.522C4590.99 888.091 4586.46 883.443 4583.14 877.578C4579.82 871.602 4578.16 864.851 4578.16 857.326C4578.16 849.911 4579.82 843.271 4583.14 837.406C4586.46 831.43 4590.99 826.727 4596.75 823.296C4602.5 819.865 4609.03 818.15 4616.34 818.15C4622.31 818.15 4627.68 819.312 4632.44 821.636C4637.2 823.849 4641.13 827.003 4644.23 831.098C4647.43 835.193 4649.48 840.062 4650.37 845.706V869.112C4649.37 874.645 4647.27 879.515 4644.06 883.72C4640.96 887.815 4637.03 890.969 4632.27 893.182C4627.63 895.395 4622.37 896.502 4616.5 896.502ZM4618 888.7C4623.75 888.7 4628.84 887.427 4633.27 884.882C4637.81 882.226 4641.29 878.574 4643.73 873.926C4646.16 869.167 4647.38 863.634 4647.38 857.326C4647.38 851.129 4646.11 845.706 4643.56 841.058C4641.13 836.41 4637.7 832.758 4633.27 830.102C4628.84 827.446 4623.64 826.118 4617.67 826.118C4611.69 826.118 4606.38 827.446 4601.73 830.102C4597.08 832.758 4593.43 836.41 4590.77 841.058C4588.12 845.706 4586.79 851.073 4586.79 857.16C4586.79 863.247 4588.12 868.669 4590.77 873.428C4593.43 878.187 4597.08 881.949 4601.73 884.716C4606.49 887.372 4611.91 888.7 4618 888.7ZM4738.34 897V851.184C4738.34 843.659 4736.12 837.572 4731.7 832.924C4727.27 828.276 4721.41 825.952 4714.1 825.952C4709.12 825.952 4704.69 827.059 4700.82 829.272C4697.06 831.375 4694.07 834.307 4691.86 838.07C4689.75 841.833 4688.7 846.204 4688.7 851.184L4684.39 848.694C4684.39 842.829 4685.77 837.627 4688.54 833.09C4691.3 828.442 4695.07 824.79 4699.83 822.134C4704.58 819.478 4710.01 818.15 4716.09 818.15C4722.18 818.15 4727.49 819.589 4732.03 822.466C4736.68 825.233 4740.27 829.051 4742.82 833.92C4745.36 838.789 4746.64 844.212 4746.64 850.188V897H4738.34ZM4680.24 897V819.81H4688.7V897H4680.24ZM4805.07 898.66C4797.55 898.66 4790.74 896.889 4784.65 893.348C4778.68 889.696 4773.92 884.827 4770.38 878.74C4766.84 872.543 4765.07 865.681 4765.07 858.156C4765.07 850.631 4766.84 843.88 4770.38 837.904C4773.92 831.817 4778.68 827.003 4784.65 823.462C4790.74 819.921 4797.55 818.15 4805.07 818.15C4812.49 818.15 4819.18 819.921 4825.16 823.462C4831.24 827.003 4836.06 831.817 4839.6 837.904C4843.14 843.88 4844.91 850.631 4844.91 858.156C4844.91 865.792 4843.14 872.653 4839.6 878.74C4836.06 884.827 4831.24 889.696 4825.16 893.348C4819.18 896.889 4812.49 898.66 4805.07 898.66ZM4805.07 890.692C4810.94 890.692 4816.19 889.253 4820.84 886.376C4825.6 883.499 4829.31 879.625 4831.96 874.756C4834.73 869.776 4836.11 864.187 4836.11 857.99C4836.11 851.903 4834.73 846.481 4831.96 841.722C4829.31 836.963 4825.6 833.201 4820.84 830.434C4816.19 827.557 4810.94 826.118 4805.07 826.118C4799.1 826.118 4793.73 827.557 4788.97 830.434C4784.32 833.201 4780.61 836.963 4777.85 841.722C4775.08 846.481 4773.7 851.959 4773.7 858.156C4773.7 864.353 4775.08 869.887 4777.85 874.756C4780.61 879.625 4784.32 883.499 4788.97 886.376C4793.73 889.253 4799.1 890.692 4805.07 890.692ZM4864.88 897V819.81H4873.35V897H4864.88ZM4873.35 850.852L4869.2 849.358C4869.2 839.509 4871.69 831.873 4876.67 826.45C4881.65 820.917 4888.18 818.15 4896.25 818.15C4900.02 818.15 4903.5 818.814 4906.71 820.142C4910.03 821.47 4913.08 823.628 4915.84 826.616L4910.2 832.592C4908.1 830.268 4905.83 828.608 4903.39 827.612C4900.96 826.616 4898.08 826.118 4894.76 826.118C4888.45 826.118 4883.31 828.276 4879.32 832.592C4875.34 836.797 4873.35 842.884 4873.35 850.852ZM4962.33 898.66C4954.69 898.66 4947.78 896.889 4941.58 893.348C4935.49 889.807 4930.68 884.993 4927.14 878.906C4923.6 872.819 4921.83 865.958 4921.83 858.322C4921.83 850.686 4923.54 843.88 4926.97 837.904C4930.4 831.817 4935.11 827.003 4941.08 823.462C4947.17 819.921 4953.92 818.15 4961.33 818.15C4968.42 818.15 4974.61 819.755 4979.93 822.964C4985.35 826.063 4989.55 830.379 4992.54 835.912C4995.64 841.445 4997.19 847.809 4997.19 855.002C4997.19 855.666 4997.13 856.551 4997.02 857.658C4996.91 858.654 4996.75 859.927 4996.53 861.476H4927.8V854.172H4991.71L4988.89 856.496C4989.11 850.409 4988.11 845.097 4985.9 840.56C4983.69 835.912 4980.48 832.315 4976.27 829.77C4972.07 827.225 4967.03 825.952 4961.17 825.952C4955.08 825.952 4949.71 827.335 4945.07 830.102C4940.42 832.758 4936.77 836.465 4934.11 841.224C4931.56 845.983 4930.29 851.516 4930.29 857.824C4930.29 864.464 4931.62 870.274 4934.28 875.254C4937.04 880.123 4940.86 883.941 4945.73 886.708C4950.6 889.364 4956.3 890.692 4962.83 890.692C4967.81 890.692 4972.4 889.807 4976.61 888.036C4980.92 886.155 4984.52 883.388 4987.4 879.736L4993.04 885.214C4989.5 889.419 4985.02 892.739 4979.59 895.174C4974.28 897.498 4968.53 898.66 4962.33 898.66ZM5065.53 897V787.108H5074V897H5065.53ZM5045.61 827.28V819.81H5093.92V827.28H5045.61ZM5169.06 897V851.184C5169.06 843.659 5166.85 837.572 5162.42 832.924C5158 828.276 5152.13 825.952 5144.83 825.952C5139.85 825.952 5135.42 827.059 5131.55 829.272C5127.78 831.375 5124.8 834.307 5122.58 838.07C5120.48 841.833 5119.43 846.204 5119.43 851.184L5115.11 848.694C5115.11 842.829 5116.5 837.627 5119.26 833.09C5122.03 828.442 5125.79 824.79 5130.55 822.134C5135.31 819.478 5140.73 818.15 5146.82 818.15C5152.9 818.15 5158.22 819.533 5162.75 822.3C5167.4 824.956 5171 828.719 5173.54 833.588C5176.09 838.457 5177.36 843.991 5177.36 850.188V897H5169.06ZM5110.96 897V780.468H5119.43V897H5110.96ZM5236.29 898.66C5228.66 898.66 5221.74 896.889 5215.54 893.348C5209.46 889.807 5204.64 884.993 5201.1 878.906C5197.56 872.819 5195.79 865.958 5195.79 858.322C5195.79 850.686 5197.51 843.88 5200.94 837.904C5204.37 831.817 5209.07 827.003 5215.05 823.462C5221.13 819.921 5227.88 818.15 5235.3 818.15C5242.38 818.15 5248.58 819.755 5253.89 822.964C5259.31 826.063 5263.52 830.379 5266.51 835.912C5269.6 841.445 5271.15 847.809 5271.15 855.002C5271.15 855.666 5271.1 856.551 5270.99 857.658C5270.88 858.654 5270.71 859.927 5270.49 861.476H5201.77V854.172H5265.68L5262.85 856.496C5263.08 850.409 5262.08 845.097 5259.87 840.56C5257.65 835.912 5254.44 832.315 5250.24 829.77C5246.03 827.225 5241 825.952 5235.13 825.952C5229.05 825.952 5223.68 827.335 5219.03 830.102C5214.38 832.758 5210.73 836.465 5208.07 841.224C5205.53 845.983 5204.26 851.516 5204.26 857.824C5204.26 864.464 5205.58 870.274 5208.24 875.254C5211.01 880.123 5214.82 883.941 5219.69 886.708C5224.56 889.364 5230.26 890.692 5236.79 890.692C5241.77 890.692 5246.36 889.807 5250.57 888.036C5254.89 886.155 5258.48 883.388 5261.36 879.736L5267 885.214C5263.46 889.419 5258.98 892.739 5253.56 895.174C5248.25 897.498 5242.49 898.66 5236.29 898.66ZM5327.38 897V819.81H5335.84V897H5327.38ZM5335.84 850.852L5331.69 849.358C5331.69 839.509 5334.18 831.873 5339.16 826.45C5344.14 820.917 5350.67 818.15 5358.75 818.15C5362.51 818.15 5366 818.814 5369.21 820.142C5372.53 821.47 5375.57 823.628 5378.34 826.616L5372.7 832.592C5370.59 830.268 5368.32 828.608 5365.89 827.612C5363.46 826.616 5360.58 826.118 5357.26 826.118C5350.95 826.118 5345.8 828.276 5341.82 832.592C5337.84 836.797 5335.84 842.884 5335.84 850.852ZM5424.83 898.66C5417.19 898.66 5410.27 896.889 5404.08 893.348C5397.99 889.807 5393.18 884.993 5389.64 878.906C5386.09 872.819 5384.32 865.958 5384.32 858.322C5384.32 850.686 5386.04 843.88 5389.47 837.904C5392.9 831.817 5397.6 827.003 5403.58 823.462C5409.67 819.921 5416.42 818.15 5423.83 818.15C5430.91 818.15 5437.11 819.755 5442.42 822.964C5447.85 826.063 5452.05 830.379 5455.04 835.912C5458.14 841.445 5459.69 847.809 5459.69 855.002C5459.69 855.666 5459.63 856.551 5459.52 857.658C5459.41 858.654 5459.24 859.927 5459.02 861.476H5390.3V854.172H5454.21L5451.39 856.496C5451.61 850.409 5450.61 845.097 5448.4 840.56C5446.19 835.912 5442.98 832.315 5438.77 829.77C5434.57 827.225 5429.53 825.952 5423.67 825.952C5417.58 825.952 5412.21 827.335 5407.56 830.102C5402.92 832.758 5399.26 836.465 5396.61 841.224C5394.06 845.983 5392.79 851.516 5392.79 857.824C5392.79 864.464 5394.12 870.274 5396.77 875.254C5399.54 880.123 5403.36 883.941 5408.23 886.708C5413.1 889.364 5418.8 890.692 5425.33 890.692C5430.31 890.692 5434.9 889.807 5439.1 888.036C5443.42 886.155 5447.02 883.388 5449.89 879.736L5455.54 885.214C5452 889.419 5447.51 892.739 5442.09 895.174C5436.78 897.498 5431.02 898.66 5424.83 898.66ZM5512.32 898.66C5505.01 898.66 5498.48 896.889 5492.73 893.348C5486.97 889.807 5482.44 885.048 5479.12 879.072C5475.8 872.985 5474.14 866.124 5474.14 858.488C5474.14 850.852 5475.8 843.991 5479.12 837.904C5482.44 831.817 5486.97 827.003 5492.73 823.462C5498.48 819.921 5505.01 818.15 5512.32 818.15C5517.96 818.15 5523.16 819.257 5527.92 821.47C5532.79 823.683 5536.88 826.893 5540.2 831.098C5543.52 835.193 5545.63 840.062 5546.51 845.706V870.938C5545.52 876.471 5543.41 881.341 5540.2 885.546C5536.99 889.641 5532.96 892.85 5528.09 895.174C5523.33 897.498 5518.07 898.66 5512.32 898.66ZM5513.81 890.692C5519.68 890.692 5524.82 889.309 5529.25 886.542C5533.67 883.775 5537.11 880.013 5539.54 875.254C5542.09 870.385 5543.36 864.796 5543.36 858.488C5543.36 852.069 5542.09 846.481 5539.54 841.722C5536.99 836.853 5533.45 833.035 5528.92 830.268C5524.49 827.501 5519.29 826.118 5513.31 826.118C5507.45 826.118 5502.19 827.501 5497.54 830.268C5493 833.035 5489.41 836.853 5486.75 841.722C5484.1 846.481 5482.77 852.014 5482.77 858.322C5482.77 864.63 5484.1 870.219 5486.75 875.088C5489.41 879.957 5493.06 883.775 5497.71 886.542C5502.36 889.309 5507.72 890.692 5513.81 890.692ZM5551.49 897H5543.03V876.25L5545.02 857.326L5543.03 838.568V780.468H5551.49V897ZM4038.57 1106V996.108H4047.03V1106H4038.57ZM4018.65 1036.28V1028.81H4066.95V1036.28H4018.65ZM4084 1106V1028.81H4092.46V1106H4084ZM4092.46 1059.85L4088.31 1058.36C4088.31 1048.51 4090.8 1040.87 4095.78 1035.45C4100.76 1029.92 4107.29 1027.15 4115.37 1027.15C4119.14 1027.15 4122.62 1027.81 4125.83 1029.14C4129.15 1030.47 4132.19 1032.63 4134.96 1035.62L4129.32 1041.59C4127.21 1039.27 4124.95 1037.61 4122.51 1036.61C4120.08 1035.62 4117.2 1035.12 4113.88 1035.12C4107.57 1035.12 4102.42 1037.28 4098.44 1041.59C4094.46 1045.8 4092.46 1051.88 4092.46 1059.85ZM4180.12 1107.66C4172.71 1107.66 4166.01 1105.89 4160.03 1102.35C4154.17 1098.81 4149.52 1094.05 4146.09 1088.07C4142.66 1081.99 4140.94 1075.12 4140.94 1067.49C4140.94 1059.96 4142.66 1053.16 4146.09 1047.07C4149.52 1040.98 4154.17 1036.17 4160.03 1032.63C4165.9 1028.98 4172.48 1027.15 4179.79 1027.15C4185.76 1027.15 4191.08 1028.31 4195.72 1030.64C4200.48 1032.85 4204.36 1036 4207.34 1040.1C4210.44 1044.19 4212.44 1049.06 4213.32 1054.71V1079.94C4212.32 1085.58 4210.28 1090.51 4207.18 1094.71C4204.19 1098.81 4200.37 1102.02 4195.72 1104.34C4191.19 1106.55 4185.99 1107.66 4180.12 1107.66ZM4181.28 1099.69C4190.14 1099.69 4197.16 1096.76 4202.36 1090.89C4207.68 1084.92 4210.33 1077.12 4210.33 1067.49C4210.33 1060.96 4209.12 1055.31 4206.68 1050.56C4204.36 1045.69 4200.98 1041.92 4196.55 1039.27C4192.13 1036.5 4186.98 1035.12 4181.12 1035.12C4175.03 1035.12 4169.61 1036.5 4164.85 1039.27C4160.2 1042.03 4156.49 1045.85 4153.73 1050.72C4151.07 1055.59 4149.74 1061.12 4149.74 1067.32C4149.74 1073.63 4151.07 1079.22 4153.73 1084.09C4156.49 1088.96 4160.26 1092.78 4165.01 1095.54C4169.77 1098.31 4175.2 1099.69 4181.28 1099.69ZM4210 1106V1085.25L4211.83 1066.33L4210 1047.57V1028.81H4218.47V1106H4210ZM4301.45 1106V1060.18C4301.45 1052.66 4299.24 1046.57 4294.81 1041.92C4290.39 1037.28 4284.52 1034.95 4277.22 1034.95C4272.24 1034.95 4267.81 1036.06 4263.94 1038.27C4260.17 1040.37 4257.19 1043.31 4254.97 1047.07C4252.87 1050.83 4251.82 1055.2 4251.82 1060.18L4247.5 1057.69C4247.5 1051.83 4248.89 1046.63 4251.65 1042.09C4254.42 1037.44 4258.18 1033.79 4262.94 1031.13C4267.7 1028.48 4273.12 1027.15 4279.21 1027.15C4285.3 1027.15 4290.61 1028.59 4295.14 1031.47C4299.79 1034.23 4303.39 1038.05 4305.93 1042.92C4308.48 1047.79 4309.75 1053.21 4309.75 1059.19V1106H4301.45ZM4243.35 1106V1028.81H4251.82V1106H4243.35ZM4356.23 1107.66C4352.03 1107.66 4348.05 1107.11 4344.28 1106C4340.63 1104.78 4337.26 1103.12 4334.16 1101.02C4331.17 1098.92 4328.51 1096.48 4326.19 1093.72L4331.83 1088.07C4334.93 1092.17 4338.53 1095.21 4342.62 1097.2C4346.83 1099.08 4351.42 1100.02 4356.4 1100.02C4362.16 1100.02 4366.69 1098.86 4370.01 1096.54C4373.33 1094.21 4374.99 1090.95 4374.99 1086.74C4374.99 1082.98 4373.94 1080.05 4371.84 1077.95C4369.74 1075.73 4366.97 1074.02 4363.54 1072.8C4360.22 1071.58 4356.68 1070.42 4352.91 1069.31C4349.26 1068.21 4345.72 1066.88 4342.29 1065.33C4338.97 1063.78 4336.26 1061.62 4334.16 1058.86C4332.05 1056.09 4331 1052.38 4331 1047.73C4331 1043.64 4332.05 1040.04 4334.16 1036.94C4336.26 1033.85 4339.19 1031.47 4342.95 1029.81C4346.83 1028.04 4351.37 1027.15 4356.57 1027.15C4362.32 1027.15 4367.47 1028.15 4372 1030.14C4376.65 1032.13 4380.36 1035.06 4383.13 1038.94L4377.65 1044.58C4375.44 1041.48 4372.45 1039.1 4368.68 1037.44C4364.92 1035.67 4360.72 1034.79 4356.07 1034.79C4350.54 1034.79 4346.33 1035.95 4343.45 1038.27C4340.58 1040.6 4339.14 1043.58 4339.14 1047.24C4339.14 1050.67 4340.19 1053.38 4342.29 1055.37C4344.39 1057.36 4347.1 1058.91 4350.42 1060.02C4353.86 1061.12 4357.4 1062.23 4361.05 1063.34C4364.81 1064.33 4368.35 1065.66 4371.67 1067.32C4375.1 1068.98 4377.87 1071.25 4379.97 1074.13C4382.08 1077.01 4383.13 1080.93 4383.13 1085.91C4383.13 1092.55 4380.69 1097.87 4375.82 1101.85C4370.95 1105.72 4364.42 1107.66 4356.23 1107.66ZM4437.06 1107.66C4429.65 1107.66 4422.95 1105.89 4416.98 1102.35C4411.11 1098.81 4406.46 1094.05 4403.03 1088.07C4399.6 1081.99 4397.89 1075.12 4397.89 1067.49C4397.89 1059.96 4399.6 1053.16 4403.03 1047.07C4406.46 1040.98 4411.11 1036.17 4416.98 1032.63C4422.84 1028.98 4429.43 1027.15 4436.73 1027.15C4442.71 1027.15 4448.02 1028.31 4452.67 1030.64C4457.43 1032.85 4461.3 1036 4464.29 1040.1C4467.39 1044.19 4469.38 1049.06 4470.26 1054.71V1079.94C4469.27 1085.58 4467.22 1090.51 4464.12 1094.71C4461.13 1098.81 4457.32 1102.02 4452.67 1104.34C4448.13 1106.55 4442.93 1107.66 4437.06 1107.66ZM4438.23 1099.69C4447.08 1099.69 4454.11 1096.76 4459.31 1090.89C4464.62 1084.92 4467.28 1077.12 4467.28 1067.49C4467.28 1060.96 4466.06 1055.31 4463.62 1050.56C4461.3 1045.69 4457.92 1041.92 4453.5 1039.27C4449.07 1036.5 4443.93 1035.12 4438.06 1035.12C4431.97 1035.12 4426.55 1036.5 4421.79 1039.27C4417.14 1042.03 4413.44 1045.85 4410.67 1050.72C4408.01 1055.59 4406.69 1061.12 4406.69 1067.32C4406.69 1073.63 4408.01 1079.22 4410.67 1084.09C4413.44 1088.96 4417.2 1092.78 4421.96 1095.54C4426.72 1098.31 4432.14 1099.69 4438.23 1099.69ZM4466.94 1106V1085.25L4468.77 1066.33L4466.94 1047.57V1028.81H4475.41V1106H4466.94ZM4535.32 1107.66C4527.8 1107.66 4520.99 1105.89 4514.9 1102.35C4508.93 1098.7 4504.17 1093.83 4500.63 1087.74C4497.09 1081.54 4495.32 1074.68 4495.32 1067.16C4495.32 1059.63 4497.09 1052.88 4500.63 1046.9C4504.17 1040.82 4508.93 1036 4514.9 1032.46C4520.99 1028.92 4527.8 1027.15 4535.32 1027.15C4540.97 1027.15 4546.28 1028.2 4551.26 1030.3C4556.24 1032.41 4560.5 1035.39 4564.04 1039.27L4558.4 1044.91C4555.52 1041.81 4552.09 1039.43 4548.1 1037.77C4544.23 1036 4539.97 1035.12 4535.32 1035.12C4529.35 1035.12 4523.98 1036.56 4519.22 1039.43C4514.57 1042.2 4510.86 1045.96 4508.1 1050.72C4505.33 1055.48 4503.95 1060.96 4503.95 1067.16C4503.95 1073.35 4505.33 1078.89 4508.1 1083.76C4510.86 1088.63 4514.57 1092.5 4519.22 1095.38C4523.98 1098.25 4529.35 1099.69 4535.32 1099.69C4539.97 1099.69 4544.29 1098.86 4548.27 1097.2C4552.36 1095.43 4555.85 1092.94 4558.73 1089.73L4564.37 1095.38C4560.72 1099.25 4556.35 1102.29 4551.26 1104.51C4546.28 1106.61 4540.97 1107.66 4535.32 1107.66ZM4593.95 1106V996.108H4602.42V1106H4593.95ZM4574.03 1036.28V1028.81H4622.34V1036.28H4574.03ZM4639.55 1106V1028.81H4647.85V1106H4639.55ZM4643.7 1010.88C4641.82 1010.88 4640.22 1010.22 4638.89 1008.89C4637.67 1007.45 4637.06 1005.79 4637.06 1003.91C4637.06 1002.03 4637.67 1000.48 4638.89 999.262C4640.22 997.934 4641.82 997.27 4643.7 997.27C4645.58 997.27 4647.19 997.934 4648.52 999.262C4649.84 1000.48 4650.51 1002.03 4650.51 1003.91C4650.51 1005.79 4649.84 1007.45 4648.52 1008.89C4647.19 1010.22 4645.58 1010.88 4643.7 1010.88ZM4708.13 1107.66C4700.6 1107.66 4693.8 1105.89 4687.71 1102.35C4681.74 1098.7 4676.98 1093.83 4673.44 1087.74C4669.89 1081.54 4668.12 1074.68 4668.12 1067.16C4668.12 1059.63 4669.89 1052.88 4673.44 1046.9C4676.98 1040.82 4681.74 1036 4687.71 1032.46C4693.8 1028.92 4700.6 1027.15 4708.13 1027.15C4715.54 1027.15 4722.24 1028.92 4728.22 1032.46C4734.3 1036 4739.12 1040.82 4742.66 1046.9C4746.2 1052.88 4747.97 1059.63 4747.97 1067.16C4747.97 1074.79 4746.2 1081.65 4742.66 1087.74C4739.12 1093.83 4734.3 1098.7 4728.22 1102.35C4722.24 1105.89 4715.54 1107.66 4708.13 1107.66ZM4708.13 1099.69C4714 1099.69 4719.25 1098.25 4723.9 1095.38C4728.66 1092.5 4732.37 1088.63 4735.02 1083.76C4737.79 1078.78 4739.17 1073.19 4739.17 1066.99C4739.17 1060.9 4737.79 1055.48 4735.02 1050.72C4732.37 1045.96 4728.66 1042.2 4723.9 1039.43C4719.25 1036.56 4714 1035.12 4708.13 1035.12C4702.15 1035.12 4696.79 1036.56 4692.03 1039.43C4687.38 1042.2 4683.67 1045.96 4680.91 1050.72C4678.14 1055.48 4676.76 1060.96 4676.76 1067.16C4676.76 1073.35 4678.14 1078.89 4680.91 1083.76C4683.67 1088.63 4687.38 1092.5 4692.03 1095.38C4696.79 1098.25 4702.15 1099.69 4708.13 1099.69ZM4826.04 1106V1060.18C4826.04 1052.66 4823.82 1046.57 4819.4 1041.92C4814.97 1037.28 4809.11 1034.95 4801.8 1034.95C4796.82 1034.95 4792.4 1036.06 4788.52 1038.27C4784.76 1040.37 4781.77 1043.31 4779.56 1047.07C4777.46 1050.83 4776.4 1055.2 4776.4 1060.18L4772.09 1057.69C4772.09 1051.83 4773.47 1046.63 4776.24 1042.09C4779 1037.44 4782.77 1033.79 4787.53 1031.13C4792.28 1028.48 4797.71 1027.15 4803.79 1027.15C4809.88 1027.15 4815.19 1028.59 4819.73 1031.47C4824.38 1034.23 4827.97 1038.05 4830.52 1042.92C4833.07 1047.79 4834.34 1053.21 4834.34 1059.19V1106H4826.04ZM4767.94 1106V1028.81H4776.4V1106H4767.94ZM4860.24 1121.94L4868.87 1104.84L4872.19 1104.17C4871.86 1105.06 4871.3 1105.78 4870.53 1106.33C4869.86 1107 4868.92 1107.33 4867.71 1107.33C4865.83 1107.33 4864.11 1106.61 4862.56 1105.17C4861.12 1103.73 4860.4 1101.91 4860.4 1099.69C4860.4 1097.37 4861.23 1095.43 4862.89 1093.88C4864.55 1092.22 4866.54 1091.39 4868.87 1091.39C4870.97 1091.39 4872.8 1092.22 4874.35 1093.88C4876.01 1095.43 4876.84 1097.37 4876.84 1099.69C4876.84 1100.69 4876.67 1101.85 4876.34 1103.18C4876.12 1104.4 4875.51 1106 4874.51 1107.99L4865.88 1124.92L4860.24 1121.94ZM4974.13 1107.66C4966.72 1107.66 4960.02 1105.89 4954.05 1102.35C4948.18 1098.81 4943.53 1094.05 4940.1 1088.07C4936.67 1081.99 4934.96 1075.12 4934.96 1067.49C4934.96 1059.96 4936.67 1053.16 4940.1 1047.07C4943.53 1040.98 4948.18 1036.17 4954.05 1032.63C4959.91 1028.98 4966.5 1027.15 4973.8 1027.15C4979.78 1027.15 4985.09 1028.31 4989.74 1030.64C4994.49 1032.85 4998.37 1036 5001.36 1040.1C5004.45 1044.19 5006.45 1049.06 5007.33 1054.71V1079.94C5006.34 1085.58 5004.29 1090.51 5001.19 1094.71C4998.2 1098.81 4994.38 1102.02 4989.74 1104.34C4985.2 1106.55 4980 1107.66 4974.13 1107.66ZM4975.29 1099.69C4984.15 1099.69 4991.17 1096.76 4996.38 1090.89C5001.69 1084.92 5004.34 1077.12 5004.34 1067.49C5004.34 1060.96 5003.13 1055.31 5000.69 1050.56C4998.37 1045.69 4994.99 1041.92 4990.57 1039.27C4986.14 1036.5 4980.99 1035.12 4975.13 1035.12C4969.04 1035.12 4963.62 1036.5 4958.86 1039.27C4954.21 1042.03 4950.5 1045.85 4947.74 1050.72C4945.08 1055.59 4943.75 1061.12 4943.75 1067.32C4943.75 1073.63 4945.08 1079.22 4947.74 1084.09C4950.5 1088.96 4954.27 1092.78 4959.03 1095.54C4963.78 1098.31 4969.21 1099.69 4975.29 1099.69ZM5004.01 1106V1085.25L5005.84 1066.33L5004.01 1047.57V1028.81H5012.48V1106H5004.01ZM5095.46 1106V1060.18C5095.46 1052.66 5093.25 1046.57 5088.82 1041.92C5084.4 1037.28 5078.53 1034.95 5071.23 1034.95C5066.25 1034.95 5061.82 1036.06 5057.95 1038.27C5054.19 1040.37 5051.2 1043.31 5048.98 1047.07C5046.88 1050.83 5045.83 1055.2 5045.83 1060.18L5041.51 1057.69C5041.51 1051.83 5042.9 1046.63 5045.66 1042.09C5048.43 1037.44 5052.19 1033.79 5056.95 1031.13C5061.71 1028.48 5067.13 1027.15 5073.22 1027.15C5079.31 1027.15 5084.62 1028.59 5089.16 1031.47C5093.8 1034.23 5097.4 1038.05 5099.95 1042.92C5102.49 1047.79 5103.76 1053.21 5103.76 1059.19V1106H5095.46ZM5037.36 1106V1028.81H5045.83V1106H5037.36ZM5160.54 1107.66C5153.23 1107.66 5146.71 1105.89 5140.95 1102.35C5135.2 1098.81 5130.66 1094.05 5127.34 1088.07C5124.02 1081.99 5122.36 1075.12 5122.36 1067.49C5122.36 1059.85 5124.02 1052.99 5127.34 1046.9C5130.66 1040.82 5135.2 1036 5140.95 1032.46C5146.71 1028.92 5153.23 1027.15 5160.54 1027.15C5166.18 1027.15 5171.38 1028.26 5176.14 1030.47C5181.01 1032.68 5185.11 1035.89 5188.43 1040.1C5191.75 1044.19 5193.85 1049.06 5194.73 1054.71V1079.94C5193.74 1085.47 5191.64 1090.34 5188.43 1094.55C5185.22 1098.64 5181.18 1101.85 5176.31 1104.17C5171.55 1106.5 5166.29 1107.66 5160.54 1107.66ZM5162.03 1099.69C5167.9 1099.69 5173.04 1098.31 5177.47 1095.54C5181.9 1092.78 5185.33 1089.01 5187.76 1084.25C5190.31 1079.38 5191.58 1073.8 5191.58 1067.49C5191.58 1061.07 5190.31 1055.48 5187.76 1050.72C5185.22 1045.85 5181.68 1042.03 5177.14 1039.27C5172.71 1036.5 5167.51 1035.12 5161.53 1035.12C5155.67 1035.12 5150.41 1036.5 5145.76 1039.27C5141.23 1042.03 5137.63 1045.85 5134.97 1050.72C5132.32 1055.48 5130.99 1061.01 5130.99 1067.32C5130.99 1073.63 5132.32 1079.22 5134.97 1084.09C5137.63 1088.96 5141.28 1092.78 5145.93 1095.54C5150.58 1098.31 5155.95 1099.69 5162.03 1099.69ZM5199.71 1106H5191.25V1085.25L5193.24 1066.33L5191.25 1047.57V989.468H5199.71V1106ZM5261.73 1106V1028.81H5270.03V1106H5261.73ZM5265.88 1010.88C5264 1010.88 5262.39 1010.22 5261.06 1008.89C5259.85 1007.45 5259.24 1005.79 5259.24 1003.91C5259.24 1002.03 5259.85 1000.48 5261.06 999.262C5262.39 997.934 5264 997.27 5265.88 997.27C5267.76 997.27 5269.36 997.934 5270.69 999.262C5272.02 1000.48 5272.68 1002.03 5272.68 1003.91C5272.68 1005.79 5272.02 1007.45 5270.69 1008.89C5269.36 1010.22 5267.76 1010.88 5265.88 1010.88ZM5307.4 1106V996.108H5315.86V1106H5307.4ZM5287.48 1036.28V1028.81H5335.78V1036.28H5287.48ZM5421.66 1140.36C5414.14 1140.36 5407.33 1138.92 5401.24 1136.05C5395.16 1133.28 5390.29 1129.24 5386.64 1123.93L5391.95 1118.62C5394.94 1122.82 5398.98 1126.14 5404.07 1128.58C5409.16 1131.12 5415.08 1132.39 5421.83 1132.39C5431.68 1132.39 5439.42 1129.74 5445.07 1124.43C5450.82 1119.11 5453.7 1111.98 5453.7 1103.01V1083.59L5455.69 1065.66L5453.7 1048.23V1028.81H5462.17V1103.01C5462.17 1110.54 5460.45 1117.07 5457.02 1122.6C5453.7 1128.13 5449 1132.45 5442.91 1135.55C5436.82 1138.76 5429.74 1140.36 5421.66 1140.36ZM5423.32 1105.5C5416.02 1105.5 5409.43 1103.84 5403.57 1100.52C5397.81 1097.09 5393.28 1092.44 5389.96 1086.58C5386.64 1080.6 5384.98 1073.85 5384.98 1066.33C5384.98 1058.91 5386.64 1052.27 5389.96 1046.41C5393.28 1040.43 5397.81 1035.73 5403.57 1032.3C5409.32 1028.87 5415.85 1027.15 5423.16 1027.15C5429.13 1027.15 5434.5 1028.31 5439.26 1030.64C5444.02 1032.85 5447.95 1036 5451.04 1040.1C5454.25 1044.19 5456.3 1049.06 5457.19 1054.71V1078.11C5456.19 1083.65 5454.09 1088.51 5450.88 1092.72C5447.78 1096.81 5443.85 1099.97 5439.09 1102.18C5434.44 1104.4 5429.19 1105.5 5423.32 1105.5ZM5424.82 1097.7C5430.57 1097.7 5435.66 1096.43 5440.09 1093.88C5444.63 1091.23 5448.11 1087.57 5450.55 1082.93C5452.98 1078.17 5454.2 1072.63 5454.2 1066.33C5454.2 1060.13 5452.93 1054.71 5450.38 1050.06C5447.95 1045.41 5444.51 1041.76 5440.09 1039.1C5435.66 1036.45 5430.46 1035.12 5424.48 1035.12C5418.51 1035.12 5413.2 1036.45 5408.55 1039.1C5403.9 1041.76 5400.25 1045.41 5397.59 1050.06C5394.94 1054.71 5393.61 1060.07 5393.61 1066.16C5393.61 1072.25 5394.94 1077.67 5397.59 1082.43C5400.25 1087.19 5403.9 1090.95 5408.55 1093.72C5413.31 1096.37 5418.73 1097.7 5424.82 1097.7ZM5522.58 1107.66C5514.94 1107.66 5508.03 1105.89 5501.83 1102.35C5495.74 1098.81 5490.93 1093.99 5487.39 1087.91C5483.85 1081.82 5482.08 1074.96 5482.08 1067.32C5482.08 1059.69 5483.79 1052.88 5487.22 1046.9C5490.65 1040.82 5495.36 1036 5501.33 1032.46C5507.42 1028.92 5514.17 1027.15 5521.58 1027.15C5528.67 1027.15 5534.86 1028.75 5540.18 1031.96C5545.6 1035.06 5549.8 1039.38 5552.79 1044.91C5555.89 1050.45 5557.44 1056.81 5557.44 1064C5557.44 1064.67 5557.38 1065.55 5557.27 1066.66C5557.16 1067.65 5557 1068.93 5556.78 1070.48H5488.05V1063.17H5551.96L5549.14 1065.5C5549.36 1059.41 5548.36 1054.1 5546.15 1049.56C5543.94 1044.91 5540.73 1041.32 5536.52 1038.77C5532.32 1036.22 5527.28 1034.95 5521.42 1034.95C5515.33 1034.95 5509.96 1036.34 5505.32 1039.1C5500.67 1041.76 5497.02 1045.47 5494.36 1050.22C5491.81 1054.98 5490.54 1060.52 5490.54 1066.82C5490.54 1073.46 5491.87 1079.27 5494.53 1084.25C5497.29 1089.12 5501.11 1092.94 5505.98 1095.71C5510.85 1098.36 5516.55 1099.69 5523.08 1099.69C5528.06 1099.69 5532.65 1098.81 5536.86 1097.04C5541.17 1095.15 5544.77 1092.39 5547.65 1088.74L5553.29 1094.21C5549.75 1098.42 5545.27 1101.74 5539.84 1104.17C5534.53 1106.5 5528.78 1107.66 5522.58 1107.66ZM5585.58 1106V996.108H5594.04V1106H5585.58ZM5565.66 1036.28V1028.81H5613.96V1036.28H5565.66ZM5652.46 1107.66C5648.26 1107.66 5644.27 1107.11 5640.51 1106C5636.86 1104.78 5633.48 1103.12 5630.38 1101.02C5627.4 1098.92 5624.74 1096.48 5622.42 1093.72L5628.06 1088.07C5631.16 1092.17 5634.75 1095.21 5638.85 1097.2C5643.05 1099.08 5647.65 1100.02 5652.63 1100.02C5658.38 1100.02 5662.92 1098.86 5666.24 1096.54C5669.56 1094.21 5671.22 1090.95 5671.22 1086.74C5671.22 1082.98 5670.17 1080.05 5668.07 1077.95C5665.96 1075.73 5663.2 1074.02 5659.77 1072.8C5656.45 1071.58 5652.9 1070.42 5649.14 1069.31C5645.49 1068.21 5641.95 1066.88 5638.52 1065.33C5635.2 1063.78 5632.49 1061.62 5630.38 1058.86C5628.28 1056.09 5627.23 1052.38 5627.23 1047.73C5627.23 1043.64 5628.28 1040.04 5630.38 1036.94C5632.49 1033.85 5635.42 1031.47 5639.18 1029.81C5643.05 1028.04 5647.59 1027.15 5652.79 1027.15C5658.55 1027.15 5663.69 1028.15 5668.23 1030.14C5672.88 1032.13 5676.59 1035.06 5679.35 1038.94L5673.88 1044.58C5671.66 1041.48 5668.67 1039.1 5664.91 1037.44C5661.15 1035.67 5656.94 1034.79 5652.3 1034.79C5646.76 1034.79 5642.56 1035.95 5639.68 1038.27C5636.8 1040.6 5635.36 1043.58 5635.36 1047.24C5635.36 1050.67 5636.41 1053.38 5638.52 1055.37C5640.62 1057.36 5643.33 1058.91 5646.65 1060.02C5650.08 1061.12 5653.62 1062.23 5657.28 1063.34C5661.04 1064.33 5664.58 1065.66 5667.9 1067.32C5671.33 1068.98 5674.1 1071.25 5676.2 1074.13C5678.3 1077.01 5679.35 1080.93 5679.35 1085.91C5679.35 1092.55 5676.92 1097.87 5672.05 1101.85C5667.18 1105.72 5660.65 1107.66 5652.46 1107.66ZM4049.52 1316.66C4045.32 1316.66 4041.33 1316.11 4037.57 1315C4033.92 1313.78 4030.54 1312.12 4027.45 1310.02C4024.46 1307.92 4021.8 1305.48 4019.48 1302.72L4025.12 1297.07C4028.22 1301.17 4031.82 1304.21 4035.91 1306.2C4040.12 1308.08 4044.71 1309.02 4049.69 1309.02C4055.44 1309.02 4059.98 1307.86 4063.3 1305.54C4066.62 1303.21 4068.28 1299.95 4068.28 1295.74C4068.28 1291.98 4067.23 1289.05 4065.13 1286.95C4063.03 1284.73 4060.26 1283.02 4056.83 1281.8C4053.51 1280.58 4049.97 1279.42 4046.2 1278.31C4042.55 1277.21 4039.01 1275.88 4035.58 1274.33C4032.26 1272.78 4029.55 1270.62 4027.45 1267.86C4025.34 1265.09 4024.29 1261.38 4024.29 1256.73C4024.29 1252.64 4025.34 1249.04 4027.45 1245.94C4029.55 1242.85 4032.48 1240.47 4036.24 1238.81C4040.12 1237.04 4044.65 1236.15 4049.86 1236.15C4055.61 1236.15 4060.76 1237.15 4065.29 1239.14C4069.94 1241.13 4073.65 1244.06 4076.42 1247.94L4070.94 1253.58C4068.72 1250.48 4065.74 1248.1 4061.97 1246.44C4058.21 1244.67 4054.01 1243.79 4049.36 1243.79C4043.82 1243.79 4039.62 1244.95 4036.74 1247.27C4033.86 1249.6 4032.43 1252.58 4032.43 1256.24C4032.43 1259.67 4033.48 1262.38 4035.58 1264.37C4037.68 1266.36 4040.39 1267.91 4043.71 1269.02C4047.14 1270.12 4050.69 1271.23 4054.34 1272.34C4058.1 1273.33 4061.64 1274.66 4064.96 1276.32C4068.39 1277.98 4071.16 1280.25 4073.26 1283.13C4075.36 1286.01 4076.42 1289.93 4076.42 1294.91C4076.42 1301.55 4073.98 1306.87 4069.11 1310.85C4064.24 1314.72 4057.71 1316.66 4049.52 1316.66ZM4108.28 1315V1205.11H4116.74V1315H4108.28ZM4088.36 1245.28V1237.81H4136.66V1245.28H4088.36ZM4183.92 1316.66C4177.72 1316.66 4172.19 1315.22 4167.32 1312.34C4162.45 1309.47 4158.63 1305.48 4155.86 1300.39C4153.21 1295.3 4151.88 1289.44 4151.88 1282.8V1237.81H4160.35V1282.46C4160.35 1287.67 4161.29 1292.26 4163.17 1296.24C4165.16 1300.12 4167.93 1303.16 4171.47 1305.37C4175.01 1307.59 4179.16 1308.69 4183.92 1308.69C4191 1308.69 4196.64 1306.31 4200.85 1301.55C4205.17 1296.68 4207.32 1290.32 4207.32 1282.46V1237.81H4215.79V1282.8C4215.79 1289.44 4214.41 1295.3 4211.64 1300.39C4208.98 1305.48 4205.22 1309.47 4200.35 1312.34C4195.59 1315.22 4190.12 1316.66 4183.92 1316.66ZM4273.84 1316.66C4266.31 1316.66 4259.51 1314.89 4253.42 1311.35C4247.45 1307.7 4242.69 1302.83 4239.15 1296.74C4235.6 1290.54 4233.83 1283.68 4233.83 1276.16C4233.83 1268.63 4235.6 1261.88 4239.15 1255.9C4242.69 1249.82 4247.45 1245 4253.42 1241.46C4259.51 1237.92 4266.31 1236.15 4273.84 1236.15C4279.48 1236.15 4284.8 1237.2 4289.78 1239.3C4294.76 1241.41 4299.02 1244.39 4302.56 1248.27L4296.91 1253.91C4294.04 1250.81 4290.61 1248.43 4286.62 1246.77C4282.75 1245 4278.49 1244.12 4273.84 1244.12C4267.86 1244.12 4262.5 1245.56 4257.74 1248.43C4253.09 1251.2 4249.38 1254.96 4246.62 1259.72C4243.85 1264.48 4242.47 1269.96 4242.47 1276.16C4242.47 1282.35 4243.85 1287.89 4246.62 1292.76C4249.38 1297.63 4253.09 1301.5 4257.74 1304.38C4262.5 1307.25 4267.86 1308.69 4273.84 1308.69C4278.49 1308.69 4282.8 1307.86 4286.79 1306.2C4290.88 1304.43 4294.37 1301.94 4297.25 1298.73L4302.89 1304.38C4299.24 1308.25 4294.87 1311.29 4289.78 1313.51C4284.8 1315.61 4279.48 1316.66 4273.84 1316.66ZM4370.98 1315L4327.98 1275.33L4370.15 1237.81H4380.94L4336.12 1277.48L4336.28 1272.84L4382.43 1315H4370.98ZM4320.68 1315V1198.47H4329.14V1315H4320.68ZM4435.94 1315V1237.81H4444.24V1315H4435.94ZM4440.09 1219.88C4438.21 1219.88 4436.61 1219.22 4435.28 1217.89C4434.06 1216.45 4433.45 1214.79 4433.45 1212.91C4433.45 1211.03 4434.06 1209.48 4435.28 1208.26C4436.61 1206.93 4438.21 1206.27 4440.09 1206.27C4441.97 1206.27 4443.58 1206.93 4444.91 1208.26C4446.23 1209.48 4446.9 1211.03 4446.9 1212.91C4446.9 1214.79 4446.23 1216.45 4444.91 1217.89C4443.58 1219.22 4441.97 1219.88 4440.09 1219.88ZM4527.59 1315V1269.18C4527.59 1261.66 4525.38 1255.57 4520.95 1250.92C4516.53 1246.28 4510.66 1243.95 4503.36 1243.95C4498.38 1243.95 4493.95 1245.06 4490.08 1247.27C4486.32 1249.37 4483.33 1252.31 4481.11 1256.07C4479.01 1259.83 4477.96 1264.2 4477.96 1269.18L4473.64 1266.69C4473.64 1260.83 4475.03 1255.63 4477.79 1251.09C4480.56 1246.44 4484.32 1242.79 4489.08 1240.13C4493.84 1237.48 4499.26 1236.15 4505.35 1236.15C4511.44 1236.15 4516.75 1237.59 4521.29 1240.47C4525.93 1243.23 4529.53 1247.05 4532.08 1251.92C4534.62 1256.79 4535.89 1262.21 4535.89 1268.19V1315H4527.59ZM4469.49 1315V1237.81H4477.96V1315H4469.49ZM4608.38 1315V1205.11H4616.85V1315H4608.38ZM4588.46 1245.28V1237.81H4636.77V1245.28H4588.46ZM4711.91 1315V1269.18C4711.91 1261.66 4709.7 1255.57 4705.27 1250.92C4700.85 1246.28 4694.98 1243.95 4687.68 1243.95C4682.7 1243.95 4678.27 1245.06 4674.4 1247.27C4670.63 1249.37 4667.65 1252.31 4665.43 1256.07C4663.33 1259.83 4662.28 1264.2 4662.28 1269.18L4657.96 1266.69C4657.96 1260.83 4659.35 1255.63 4662.11 1251.09C4664.88 1246.44 4668.64 1242.79 4673.4 1240.13C4678.16 1237.48 4683.58 1236.15 4689.67 1236.15C4695.76 1236.15 4701.07 1237.53 4705.61 1240.3C4710.25 1242.96 4713.85 1246.72 4716.4 1251.59C4718.94 1256.46 4720.21 1261.99 4720.21 1268.19V1315H4711.91ZM4653.81 1315V1198.47H4662.28V1315H4653.81ZM4779.15 1316.66C4771.51 1316.66 4764.59 1314.89 4758.4 1311.35C4752.31 1307.81 4747.5 1302.99 4743.95 1296.91C4740.41 1290.82 4738.64 1283.96 4738.64 1276.32C4738.64 1268.69 4740.36 1261.88 4743.79 1255.9C4747.22 1249.82 4751.92 1245 4757.9 1241.46C4763.98 1237.92 4770.74 1236.15 4778.15 1236.15C4785.23 1236.15 4791.43 1237.75 4796.74 1240.96C4802.16 1244.06 4806.37 1248.38 4809.36 1253.91C4812.46 1259.45 4814.01 1265.81 4814.01 1273C4814.01 1273.67 4813.95 1274.55 4813.84 1275.66C4813.73 1276.65 4813.56 1277.93 4813.34 1279.48H4744.62V1272.17H4808.53L4805.71 1274.5C4805.93 1268.41 4804.93 1263.1 4802.72 1258.56C4800.5 1253.91 4797.3 1250.32 4793.09 1247.77C4788.88 1245.22 4783.85 1243.95 4777.98 1243.95C4771.9 1243.95 4766.53 1245.34 4761.88 1248.1C4757.23 1250.76 4753.58 1254.47 4750.93 1259.22C4748.38 1263.98 4747.11 1269.52 4747.11 1275.82C4747.11 1282.46 4748.44 1288.27 4751.09 1293.25C4753.86 1298.12 4757.68 1301.94 4762.55 1304.71C4767.42 1307.36 4773.11 1308.69 4779.64 1308.69C4784.62 1308.69 4789.22 1307.81 4793.42 1306.04C4797.74 1304.15 4801.33 1301.39 4804.21 1297.74L4809.86 1303.21C4806.31 1307.42 4801.83 1310.74 4796.41 1313.17C4791.1 1315.5 4785.34 1316.66 4779.15 1316.66ZM4870.23 1315V1237.81H4878.7V1315H4870.23ZM4924.35 1315V1267.03C4924.35 1260.05 4922.24 1254.47 4918.04 1250.26C4913.94 1246.05 4908.69 1243.95 4902.27 1243.95C4897.95 1243.95 4894.02 1244.89 4890.48 1246.77C4886.94 1248.66 4884.06 1251.31 4881.85 1254.74C4879.75 1258.17 4878.7 1262.16 4878.7 1266.69L4874.38 1265.7C4874.38 1259.72 4875.65 1254.52 4878.2 1250.09C4880.85 1245.67 4884.39 1242.24 4888.82 1239.8C4893.36 1237.37 4898.39 1236.15 4903.93 1236.15C4909.46 1236.15 4914.39 1237.37 4918.7 1239.8C4923.02 1242.24 4926.45 1245.67 4928.99 1250.09C4931.54 1254.52 4932.81 1259.72 4932.81 1265.7V1315H4924.35ZM4978.46 1315V1267.03C4978.46 1260.05 4976.36 1254.47 4972.15 1250.26C4968.06 1246.05 4962.8 1243.95 4956.38 1243.95C4952.07 1243.95 4948.08 1244.89 4944.43 1246.77C4940.89 1248.66 4938.07 1251.31 4935.97 1254.74C4933.86 1258.17 4932.81 1262.16 4932.81 1266.69L4927.67 1265.7C4927.78 1259.61 4929.16 1254.41 4931.82 1250.09C4934.58 1245.67 4938.23 1242.24 4942.77 1239.8C4947.31 1237.37 4952.34 1236.15 4957.88 1236.15C4963.41 1236.15 4968.34 1237.37 4972.65 1239.8C4976.97 1242.24 4980.4 1245.72 4982.94 1250.26C4985.6 1254.69 4986.93 1259.89 4986.93 1265.86V1315H4978.46ZM5045.65 1316.66C5038.02 1316.66 5031.1 1314.89 5024.9 1311.35C5018.82 1307.81 5014 1302.99 5010.46 1296.91C5006.92 1290.82 5005.15 1283.96 5005.15 1276.32C5005.15 1268.69 5006.87 1261.88 5010.3 1255.9C5013.73 1249.82 5018.43 1245 5024.41 1241.46C5030.49 1237.92 5037.24 1236.15 5044.66 1236.15C5051.74 1236.15 5057.94 1237.75 5063.25 1240.96C5068.67 1244.06 5072.88 1248.38 5075.87 1253.91C5078.96 1259.45 5080.51 1265.81 5080.51 1273C5080.51 1273.67 5080.46 1274.55 5080.35 1275.66C5080.24 1276.65 5080.07 1277.93 5079.85 1279.48H5011.13V1272.17H5075.04L5072.21 1274.5C5072.44 1268.41 5071.44 1263.1 5069.23 1258.56C5067.01 1253.91 5063.8 1250.32 5059.6 1247.77C5055.39 1245.22 5050.36 1243.95 5044.49 1243.95C5038.41 1243.95 5033.04 1245.34 5028.39 1248.1C5023.74 1250.76 5020.09 1254.47 5017.43 1259.22C5014.89 1263.98 5013.62 1269.52 5013.62 1275.82C5013.62 1282.46 5014.94 1288.27 5017.6 1293.25C5020.37 1298.12 5024.18 1301.94 5029.05 1304.71C5033.92 1307.36 5039.62 1308.69 5046.15 1308.69C5051.13 1308.69 5055.72 1307.81 5059.93 1306.04C5064.25 1304.15 5067.84 1301.39 5070.72 1297.74L5076.36 1303.21C5072.82 1307.42 5068.34 1310.74 5062.92 1313.17C5057.61 1315.5 5051.85 1316.66 5045.65 1316.66ZM5099.78 1315V1237.81H5108.24V1315H5099.78ZM5153.89 1315V1267.03C5153.89 1260.05 5151.79 1254.47 5147.58 1250.26C5143.49 1246.05 5138.23 1243.95 5131.81 1243.95C5127.5 1243.95 5123.57 1244.89 5120.03 1246.77C5116.49 1248.66 5113.61 1251.31 5111.4 1254.74C5109.29 1258.17 5108.24 1262.16 5108.24 1266.69L5103.93 1265.7C5103.93 1259.72 5105.2 1254.52 5107.74 1250.09C5110.4 1245.67 5113.94 1242.24 5118.37 1239.8C5122.91 1237.37 5127.94 1236.15 5133.47 1236.15C5139.01 1236.15 5143.93 1237.37 5148.25 1239.8C5152.56 1242.24 5155.99 1245.67 5158.54 1250.09C5161.09 1254.52 5162.36 1259.72 5162.36 1265.7V1315H5153.89ZM5208.01 1315V1267.03C5208.01 1260.05 5205.91 1254.47 5201.7 1250.26C5197.61 1246.05 5192.35 1243.95 5185.93 1243.95C5181.61 1243.95 5177.63 1244.89 5173.98 1246.77C5170.44 1248.66 5167.61 1251.31 5165.51 1254.74C5163.41 1258.17 5162.36 1262.16 5162.36 1266.69L5157.21 1265.7C5157.32 1259.61 5158.71 1254.41 5161.36 1250.09C5164.13 1245.67 5167.78 1242.24 5172.32 1239.8C5176.86 1237.37 5181.89 1236.15 5187.42 1236.15C5192.96 1236.15 5197.88 1237.37 5202.2 1239.8C5206.51 1242.24 5209.94 1245.72 5212.49 1250.26C5215.15 1254.69 5216.47 1259.89 5216.47 1265.86V1315H5208.01ZM5278.85 1316.66C5273.1 1316.66 5267.79 1315.5 5262.92 1313.17C5258.16 1310.85 5254.17 1307.64 5250.96 1303.55C5247.76 1299.34 5245.65 1294.47 5244.66 1288.94V1263.71C5245.65 1258.06 5247.76 1253.19 5250.96 1249.1C5254.28 1244.89 5258.32 1241.68 5263.08 1239.47C5267.95 1237.26 5273.21 1236.15 5278.85 1236.15C5286.16 1236.15 5292.69 1237.92 5298.44 1241.46C5304.2 1245 5308.73 1249.82 5312.05 1255.9C5315.37 1261.99 5317.03 1268.85 5317.03 1276.49C5317.03 1284.12 5315.37 1290.99 5312.05 1297.07C5308.73 1303.05 5304.2 1307.81 5298.44 1311.35C5292.69 1314.89 5286.16 1316.66 5278.85 1316.66ZM5239.68 1347.7V1237.81H5248.14V1257.07L5246.15 1275.82L5248.14 1294.75V1347.7H5239.68ZM5277.36 1308.69C5283.45 1308.69 5288.81 1307.31 5293.46 1304.54C5298.11 1301.78 5301.76 1297.96 5304.42 1293.09C5307.07 1288.22 5308.4 1282.63 5308.4 1276.32C5308.4 1270.01 5307.07 1264.43 5304.42 1259.56C5301.76 1254.69 5298.11 1250.92 5293.46 1248.27C5288.92 1245.5 5283.72 1244.12 5277.86 1244.12C5271.88 1244.12 5266.62 1245.5 5262.09 1248.27C5257.66 1250.92 5254.17 1254.69 5251.63 1259.56C5249.08 1264.43 5247.81 1270.07 5247.81 1276.49C5247.81 1282.8 5249.03 1288.38 5251.46 1293.25C5254.01 1298.01 5257.49 1301.78 5261.92 1304.54C5266.46 1307.31 5271.6 1308.69 5277.36 1308.69ZM5372.13 1316.66C5364.6 1316.66 5357.8 1314.89 5351.71 1311.35C5345.74 1307.7 5340.98 1302.83 5337.44 1296.74C5333.89 1290.54 5332.12 1283.68 5332.12 1276.16C5332.12 1268.63 5333.89 1261.88 5337.44 1255.9C5340.98 1249.82 5345.74 1245 5351.71 1241.46C5357.8 1237.92 5364.6 1236.15 5372.13 1236.15C5379.54 1236.15 5386.24 1237.92 5392.22 1241.46C5398.3 1245 5403.12 1249.82 5406.66 1255.9C5410.2 1261.88 5411.97 1268.63 5411.97 1276.16C5411.97 1283.79 5410.2 1290.65 5406.66 1296.74C5403.12 1302.83 5398.3 1307.7 5392.22 1311.35C5386.24 1314.89 5379.54 1316.66 5372.13 1316.66ZM5372.13 1308.69C5378 1308.69 5383.25 1307.25 5387.9 1304.38C5392.66 1301.5 5396.37 1297.63 5399.02 1292.76C5401.79 1287.78 5403.17 1282.19 5403.17 1275.99C5403.17 1269.9 5401.79 1264.48 5399.02 1259.72C5396.37 1254.96 5392.66 1251.2 5387.9 1248.43C5383.25 1245.56 5378 1244.12 5372.13 1244.12C5366.15 1244.12 5360.79 1245.56 5356.03 1248.43C5351.38 1251.2 5347.67 1254.96 5344.91 1259.72C5342.14 1264.48 5340.76 1269.96 5340.76 1276.16C5340.76 1282.35 5342.14 1287.89 5344.91 1292.76C5347.67 1297.63 5351.38 1301.5 5356.03 1304.38C5360.79 1307.25 5366.15 1308.69 5372.13 1308.69ZM5466.96 1316.66C5459.44 1316.66 5452.63 1314.89 5446.55 1311.35C5440.57 1307.7 5435.81 1302.83 5432.27 1296.74C5428.73 1290.54 5426.96 1283.68 5426.96 1276.16C5426.96 1268.63 5428.73 1261.88 5432.27 1255.9C5435.81 1249.82 5440.57 1245 5446.55 1241.46C5452.63 1237.92 5459.44 1236.15 5466.96 1236.15C5474.38 1236.15 5481.07 1237.92 5487.05 1241.46C5493.14 1245 5497.95 1249.82 5501.49 1255.9C5505.03 1261.88 5506.8 1268.63 5506.8 1276.16C5506.8 1283.79 5505.03 1290.65 5501.49 1296.74C5497.95 1302.83 5493.14 1307.7 5487.05 1311.35C5481.07 1314.89 5474.38 1316.66 5466.96 1316.66ZM5466.96 1308.69C5472.83 1308.69 5478.09 1307.25 5482.73 1304.38C5487.49 1301.5 5491.2 1297.63 5493.86 1292.76C5496.62 1287.78 5498.01 1282.19 5498.01 1275.99C5498.01 1269.9 5496.62 1264.48 5493.86 1259.72C5491.2 1254.96 5487.49 1251.2 5482.73 1248.43C5478.09 1245.56 5472.83 1244.12 5466.96 1244.12C5460.99 1244.12 5455.62 1245.56 5450.86 1248.43C5446.21 1251.2 5442.51 1254.96 5439.74 1259.72C5436.97 1264.48 5435.59 1269.96 5435.59 1276.16C5435.59 1282.35 5436.97 1287.89 5439.74 1292.76C5442.51 1297.63 5446.21 1301.5 5450.86 1304.38C5455.62 1307.25 5460.99 1308.69 5466.96 1308.69ZM5526.77 1315V1198.47H5535.24V1315H5526.77Z" fill="#F1760D"/>
</g>
<defs>
<clipPath id="clip0_3462_334">
<rect width="6018" height="2410" fill="white"/>
</clipPath>
</defs>
</svg>
