<svg id="lock-unlock" xmlns="http://www.w3.org/2000/svg" xmlns:xlink="http://www.w3.org/1999/xlink" viewBox="0 0 6700 2000" shape-rendering="geometricPrecision" text-rendering="geometricPrecision" project-id="f38ee7907dbb4370b075f03e030bd365" export-id="255f5494996742c391b8bfb78ea2ea00" cached="true">
<style><![CDATA[
#lock-unlock-u-lock-alt-svgrepo-com {animation: lock-unlock-u-lock-alt-svgrepo-com_c_o 1710.5263157894738ms linear infinite normal forwards}@keyframes lock-unlock-u-lock-alt-svgrepo-com_c_o { 0% {opacity: 1} 76.923077% {opacity: 0} 100% {opacity: 0}} #lock-unlock-u-unlock-alt-svgrepo-com_to {animation: lock-unlock-u-unlock-alt-svgrepo-com_to__to 1710.5263157894738ms linear infinite normal forwards}@keyframes lock-unlock-u-unlock-alt-svgrepo-com_to__to { 0% {offset-distance: 0%} 100% {offset-distance: 100%}} #lock-unlock-u-unlock-alt-svgrepo-com_ts {animation: lock-unlock-u-unlock-alt-svgrepo-com_ts__ts 1710.5263157894738ms linear infinite normal forwards}@keyframes lock-unlock-u-unlock-alt-svgrepo-com_ts__ts { 0% {transform: scale(5.889392,7.066743)} 100% {transform: scale(8.551375,8.460592)}}
]]></style>
<g id="lock-unlock-u-frame-984" transform="matrix(6.283327 0 0 6.283327 4.128372-28.057184)"><rect id="lock-unlock-s-rect1" width="409" height="142" rx="0" ry="0" transform="translate(37 111)" fill="#e7e7e7" fill-opacity="0.31"/><rect id="lock-unlock-s-rect2" width="101" height="92" rx="0" ry="0" transform="translate(73.5 135.5)" fill="none" stroke="#858585" stroke-dasharray="6,6"/><rect id="lock-unlock-s-rect3" width="104" height="95" rx="0" ry="0" transform="translate(308 134)" fill="#3c3c3c" stroke="#d4d4d4" stroke-width="1.5"/><line id="lock-unlock-s-line1" x1="176" y1="181.5" x2="308" y2="181.5" fill="none" stroke="#a0a0a0" stroke-width="3" stroke-opacity="0.6"/><rect id="lock-unlock-s-rect4" width="58" height="69" rx="0" ry="0" transform="translate(331 99)" fill="none"/><rect id="lock-unlock-s-rect5" width="409" height="142" rx="0" ry="0" transform="translate(619 110.5)" fill="#e7e7e7" fill-opacity="0.31"/><rect id="lock-unlock-s-rect6" width="111" height="92" rx="0" ry="0" transform="translate(645.5 135.5)" fill="none" stroke="#d4d4d4" stroke-width="1.5" stroke-dasharray="6,6"/><rect id="lock-unlock-s-rect7" width="104" height="95" rx="0" ry="0" transform="translate(890 133.5)" fill="#858585" fill-opacity="0.6" stroke="#858585" stroke-opacity="0.6"/><line id="lock-unlock-s-line2" x1="758" y1="181.5" x2="890" y2="181.5" fill="none" fill-opacity="0.6" stroke="#a0a0a0" stroke-width="3" stroke-opacity="0.6"/><rect id="lock-unlock-s-rect8" width="66" height="69" rx="0" ry="0" transform="translate(675 99)" fill="none"/></g><path id="lock-unlock-u-lock-alt-svgrepo-com" d="M12,14.5v2M7,10.0288C7.47142,10,8.05259,10,8.8,10h6.4c.7474,0,1.3286,0,1.8.0288m-10,0c-.58832.0359-1.00571.1167-1.36197.2982-.56449.2876-1.02343.7465-1.31105,1.311C4,12.2798,4,13.1198,4,14.8v1.4c0,1.6802,0,2.5202.32698,3.162.28762.5645.74656,1.0234,1.31105,1.311C6.27976,21,7.11984,21,8.8,21h6.4c1.6802,0,2.5202,0,3.162-.327.5645-.2876,1.0234-.7465,1.311-1.311C20,18.7202,20,17.8802,20,16.2v-1.4c0-1.6802,0-2.5202-.327-3.162-.2876-.5645-.7465-1.0234-1.311-1.311-.3563-.1815-.7737-.2623-1.362-.2982m-10,0L7,8c0-2.76142,2.23858-5,5-5s5,2.23858,5,5v2.0288" transform="matrix(12.438175 0 0 11.325529 2116.867992 639.910185)" fill="none" stroke="#000" stroke-width="2" stroke-linecap="round" stroke-linejoin="round"/><path id="lock-unlock-s-path1" d="M4308.326623,1921.600491v-332.103658l-2104.898031-16.893385-.000001,84.466925" transform="translate(100.413978-1145.783957)" fill="none" stroke="#d4d4d4" stroke-width="14.262"/><g id="lock-unlock-u-unlock-alt-svgrepo-com_to" style="offset-path:path('M4408.740602,910.341306C5241.870301,152.235679,1562.695878,280.743263,2205.993519,736.992814');offset-rotate:0deg"><g id="lock-unlock-u-unlock-alt-svgrepo-com_ts" transform="scale(5.889392,7.066743)"><path id="lock-unlock-u-unlock-alt-svgrepo-com" d="M21.886434,6.882108C20.78971,4.59697,18.285126,3,15.370905,3C11.445925,3,8.26409,5.896803,8.26409,9.470181v2.62534m7.106815,5.785894v2.588073M8.26409,12.095521c.670059-.037268,1.496112-.037268,2.558453-.037268h9.096725c2.388174,0,3.582119,0,4.49435.42315.80236.372165,1.454623.965998,1.863407,1.696481.464786.830512.464786,1.917503.464786,4.091742v1.811651c0,2.174239,0,3.26123-.464786,4.091742-.408784.730484-1.061047,1.324317-1.863407,1.696482-.912231.423149-2.106176.423149-4.49435.423149h-9.096725c-2.388117,0-3.582176,0-4.494307-.423149-.802346-.372165-1.454666-.965998-1.863479-1.696482C4,23.342507,4,22.255516,4,20.081277v-1.811651c0-2.174239,0-3.26123.464757-4.091742.408813-.730483,1.061133-1.324316,1.863479-1.696481.506374-.234868,1.099637-.339426,1.935854-.385882Z" transform="translate(-12,-12)" fill="#3c3c3c" stroke="#d4d4d4" stroke-width="2" stroke-linecap="round"/></g></g><path id="lock-unlock-u-unlocking-script" d="M6.70303,14h-3.80952c-.76191,0-1.42857-.2857-2.000002-.8571s-.857143-1.2381-.857143-2v-9.52385c0-.25397.095238-.47619.285715-.666669s.412698-.285715.666666-.285715.476194.095239.666664.285715.28572.412699.28572.666669v9.52385c0,.2539.09524.4761.28571.6666s.4127.2857.66667.2857h3.80952c.25397,0,.47619-.0952.66667-.2857s.28571-.4127.28571-.6666v-9.52385c0-.25397.09524-.47619.28572-.666669s.4127-.285715.66666-.285715.47619.095239.66667.285715.28571.412699.28571.666669v9.52385c0,.7619-.28571,1.4285-.85714,2s-1.23809.8571-2,.8571ZM13.3669,6.38095v6.66665c0,.254-.0952.4762-.2857.6667s-.4127.2857-.6667.2857-.4762-.0952-.6666-.2857-.2858-.4127-.2858-.6667v-7.61903c0-.25397.0953-.47619.2858-.66667s.4127-.28571.6666-.28571h5.7143c.7619,0,1.4286.28571,2,.85714s.8572,1.2381.8572,2v5.71427c0,.254-.0953.4762-.2858.6667s-.4127.2857-.6666.2857-.4762-.0952-.6667-.2857-.2857-.4127-.2857-.6667v-5.71427c0-.25397-.0952-.47619-.2857-.66666s-.4127-.28572-.6667-.28572h-4.7619ZM25.7451,14c-.254,0-.4762-.0952-.6667-.2857s-.2857-.4127-.2857-.6667c0-.2539.0952-.4762.2857-.6666s.4127-.2858.6667-.2858h.9524v-9.52377h-.9524c-.254,0-.4762-.09524-.6667-.28572s-.2857-.41269-.2857-.66666.0952-.47619.2857-.666669.4127-.285715.6667-.285715h1.9047c.254,0,.4762.095239.6667.285715s.2857.412699.2857.666669v10.47615h.9524c.254,0,.4762.0953.6667.2858s.2857.4127.2857.6666c0,.254-.0953.4762-.2857.6667s-.4127.2857-.6667.2857h-3.8095Zm11.4258,0c-.762,0-1.4286-.2857-2-.8571-.5715-.5715-.8572-1.2381-.8572-2v-3.80957c0-.7619.2857-1.42857.8572-2c.5714-.57143,1.238-.85714,2-.85714h3.8095c.7619,0,1.4285.28571,2,.85714.5714.57143.8571,1.2381.8571,2v3.80957c0,.7619-.2857,1.4285-.8571,2-.5715.5714-1.2381.8571-2,.8571h-3.8095Zm4.7619-6.66667c0-.25397-.0953-.47619-.2858-.66666-.1904-.19048-.4127-.28572-.6666-.28572h-3.8095c-.254,0-.4762.09524-.6667.28572s-.2857.41269-.2857.66666v3.80957c0,.2539.0952.4761.2857.6666s.4127.2857.6667.2857h3.8095c.2539,0,.4762-.0952.6666-.2857.1905-.1905.2858-.4127.2858-.6666v-3.80957ZM48.5966,14c-.7619,0-1.4285-.2857-2-.8571s-.8571-1.2381-.8571-2v-3.80957c0-.7619.2857-1.42857.8571-2s1.2381-.85714,2-.85714h3.8096c.7619,0,1.4285.28571,2,.85714s.8571,1.2381.8571,2c0,.25397-.0952.47619-.2857.66667s-.4127.28571-.6667.28571c-.2539,0-.4762-.09523-.6666-.28571-.1905-.19048-.2858-.4127-.2858-.66667s-.0952-.47619-.2857-.66666-.4127-.28572-.6666-.28572h-3.8096c-.2539,0-.4762.09524-.6666.28572-.1905.19047-.2857.41269-.2857.66666v3.80957c0,.2539.0952.4761.2857.6666.1904.1905.4127.2857.6666.2857h3.8096c.2539,0,.4761-.0952.6666-.2857s.2857-.4127.2857-.6666.0953-.4762.2858-.6667c.1904-.1905.4127-.2857.6666-.2857.254,0,.4762.0952.6667.2857s.2857.4127.2857.6667c0,.7619-.2857,1.4285-.8571,2s-1.2381.8571-2,.8571h-3.8096Zm17.1401,0c-.254,0-.4762-.0952-.6667-.2857l-3.1428-3.1429-.9524.9524v1.5238c0,.254-.0952.4762-.2857.6667s-.4127.2857-.6667.2857-.4762-.0952-.6667-.2857c-.1904-.1905-.2857-.4127-.2857-.6667v-11.42855c0-.25397.0953-.47619.2857-.666669.1905-.190476.4127-.285715.6667-.285715s.4762.095239.6667.285715.2857.412699.2857.666669v7.2L65.07,4.7619c.1905-.19047.4127-.28571.6667-.28571s.4762.09524.6667.28571c.1904.19048.2857.4127.2857.66667s-.0953.47619-.2857.66667L63.2605,9.2l3.1429,3.181c.1904.1904.2857.4127.2857.6666c0,.254-.0953.4762-.2857.6667-.1905.1905-.4127.2857-.6667.2857Zm6.6639-7.61905h-.9524c-.254,0-.4762-.09524-.6667-.28571-.1904-.19048-.2857-.4127-.2857-.66667s.0953-.47619.2857-.66667c.1905-.19047.4127-.28571.6667-.28571h1.9048c.2539,0,.4761.09524.6666.28571s.2857.4127.2857.66667v6.66663h.9524c.254,0,.4762.0953.6667.2858s.2857.4127.2857.6666c0,.254-.0952.4762-.2857.6667s-.4127.2857-.6667.2857h-3.8095c-.254,0-.4762-.0952-.6667-.2857-.1904-.1905-.2857-.4127-.2857-.6667c0-.2539.0953-.4762.2857-.6666.1905-.1905.4127-.2858.6667-.2858h.9524v-5.71425Zm.9524-3.80952c-.254,0-.4762-.09524-.6667-.28572s-.2857-.41269-.2857-.66666.0952-.47619.2857-.666669.4127-.285715.6667-.285715.4761.095239.6666.285715.2857.412699.2857.666669-.0952.47619-.2857.66666-.4127.28572-.6666.28572Zm8.5686,3.80952v6.66665c0,.254-.0952.4762-.2857.6667s-.4127.2857-.6667.2857-.4762-.0952-.6667-.2857c-.1904-.1905-.2857-.4127-.2857-.6667v-7.61903c0-.25397.0953-.47619.2857-.66667.1905-.19047.4127-.28571.6667-.28571h5.7143c.7619,0,1.4286.28571,2,.85714s.8571,1.2381.8571,2v5.71427c0,.254-.0952.4762-.2857.6667s-.4127.2857-.6666.2857c-.254,0-.4762-.0952-.6667-.2857s-.2857-.4127-.2857-.6667v-5.71427c0-.25397-.0953-.47619-.2857-.66666-.1905-.19048-.4127-.28572-.6667-.28572h-4.7619ZM94.2998,12.0952c-.7619,0-1.4286-.2857-2-.8571-.5715-.5714-.8572-1.2381-.8572-2v-1.90477c0-.7619.2857-1.42857.8572-2c.5714-.57143,1.2381-.85714,2-.85714h5.7142c.254,0,.476.09524.667.28571.19.19048.285.4127.285.66667v7.61903c0,.7619-.285,1.4286-.857,2-.5711.5714-1.2378.8572-1.9997.8572h-3.8095c-.254,0-.4762-.0953-.6667-.2858s-.2857-.4127-.2857-.6666c0-.254.0952-.4762.2857-.6667s.4127-.2857.6667-.2857h3.8095c.254,0,.4762-.0952.6666-.2857.1905-.1905.2858-.4127.2858-.6667v-.9524h-4.7619Zm4.7619-1.9047v-3.80955h-4.7619c-.254,0-.4762.09524-.6667.28572s-.2857.41269-.2857.66666v1.90477c0,.25396.0952.47619.2857.66666s.4127.28574.6667.28574h4.7619ZM20.0322,23.2857c-.8889,0-1.5873-.254-2.0953-.7619s-.7619-1.2063-.7619-2.0952v-1.9048c0-.7619.254-1.4286.7619-2s1.2064-.8571,2.0953-.8571h3.8095c.7619,0,1.4286.2857,2,.8571s.8571,1.2381.8571,2c0,.254-.0952.4762-.2857.6667s-.4127.2857-.6666.2857c-.254,0-.4762-.0952-.6667-.2857s-.2857-.4127-.2857-.6667-.0953-.4762-.2857-.6667c-.1905-.1904-.4127-.2857-.6667-.2857h-3.8095c-.254,0-.4762.0953-.6667.2857s-.2857.4127-.2857.6667v1.9048c0,.2539.0952.4762.2857.6666.1905.1905.4127.2858.6667.2858h3.8095c.7619,0,1.4286.2857,2,.8571s.8571,1.2381.8571,2v1.9048c0,.8888-.2857,1.5873-.8571,2.0952s-1.2381.7619-2,.7619h-3.8095c-.7619,0-1.4286-.2857-2-.8571s-.8572-1.2381-.8572-2c0-.254.0953-.4762.2858-.6667s.4126-.2857.6666-.2857.4762.0952.6667.2857.2857.4127.2857.6667c0,.2539.0952.4761.2857.6666s.4127.2857.6667.2857h3.8095c.254,0,.4762-.0952.6667-.2857.1904-.1905.2857-.4127.2857-.6666v-1.9048c0-.254-.0953-.4762-.2857-.6667-.1905-.1904-.4127-.2857-.6667-.2857h-3.8095ZM31.458,29c-.7619,0-1.4286-.2857-2-.8571s-.8572-1.2381-.8572-2v-3.8096c0-.7619.2857-1.4285.8572-2s1.2381-.8571,2-.8571h3.8095c.7619,0,1.4286.2857,2,.8571s.8571,1.2381.8571,2c0,.254-.0952.4762-.2857.6667s-.4127.2857-.6667.2857c-.2539,0-.4761-.0952-.6666-.2857s-.2857-.4127-.2857-.6667-.0953-.4762-.2857-.6666-.4127-.2857-.6667-.2857h-3.8095c-.254,0-.4762.0952-.6667.2857s-.2857.4127-.2857.6666v3.8096c0,.2539.0952.4761.2857.6666s.4127.2857.6667.2857h3.8095c.254,0,.4762-.0952.6667-.2857s.2857-.4127.2857-.6666c0-.254.0952-.4762.2857-.6667s.4127-.2857.6666-.2857c.254,0,.4762.0952.6667.2857s.2857.4127.2857.6667c0,.7619-.2857,1.4285-.8571,2s-1.2381.8571-2,.8571h-3.8095Zm12.3781-7.619v6.6666c0,.254-.0952.4762-.2857.6667s-.4127.2857-.6667.2857c-.2539,0-.4761-.0952-.6666-.2857s-.2857-.4127-.2857-.6667v-7.619c0-.254.0952-.4762.2857-.6667s.4127-.2857.6666-.2857h3.8096c.7619,0,1.4285.2857,2,.8571.5714.5715.8571,1.2381.8571,2c0,.254-.0952.4762-.2857.6667s-.4127.2857-.6667.2857-.4762-.0952-.6666-.2857-.2858-.4127-.2858-.6667-.0952-.4762-.2857-.6666-.4127-.2857-.6666-.2857h-2.8572Zm11.4258,0h-.9524c-.2539,0-.4762-.0953-.6666-.2858-.1905-.1904-.2858-.4127-.2858-.6666s.0953-.4762.2858-.6667.4127-.2857.6666-.2857h1.9048c.254,0,.4762.0952.6667.2857.1904.1905.2857.4127.2857.6667v6.6666h.9523c.254,0,.4762.0953.6667.2858s.2857.4127.2857.6666c0,.254-.0952.4762-.2857.6667s-.4127.2857-.6667.2857h-3.8095c-.2539,0-.4762-.0952-.6666-.2857s-.2858-.4127-.2858-.6667c0-.2539.0953-.4762.2858-.6666s.4127-.2858.6666-.2858h.9524v-5.7142Zm.9524-3.8096c-.254,0-.4762-.0952-.6667-.2857s-.2857-.4127-.2857-.6667c0-.2539.0952-.4761.2857-.6666s.4127-.2857.6667-.2857.4762.0952.6667.2857c.1904.1905.2857.4127.2857.6666c0,.254-.0953.4762-.2857.6667-.1905.1905-.4127.2857-.6667.2857Zm13.3305,9.5238h-4.7619v2.8572c0,.2539-.0952.4762-.2857.6666s-.4127.2858-.6667.2858c-.2539,0-.4761-.0889-.6666-.2667s-.2857-.4064-.2857-.6857v-9.5238c0-.254.0952-.4762.2857-.6667s.4127-.2857.6666-.2857h5.7143c.7619,0,1.4286.2857,2,.8571.5715.5715.8572,1.2381.8572,2v1.9048c0,.7619-.2857,1.4286-.8572,2-.5714.5714-1.2381.8571-2,.8571Zm-4.7619-1.9047h4.7619c.254,0,.4762-.0953.6667-.2857.1905-.1905.2857-.4127.2857-.6667v-1.9048c0-.2539-.0952-.4762-.2857-.6666s-.4127-.2857-.6667-.2857h-4.7619v3.8095ZM77.1611,21.381c-.254,0-.4762-.0953-.6667-.2858-.1905-.1904-.2857-.4127-.2857-.6666s.0952-.4762.2857-.6667.4127-.2857.6667-.2857h.9524v-2.8572c0-.2539.0952-.4761.2857-.6666s.4127-.2857.6666-.2857c.254,0,.4762.0952.6667.2857s.2857.4127.2857.6666v2.8572h2.8572c.2539,0,.4762.0952.6666.2857.1905.1905.2858.4127.2858.6667s-.0953.4762-.2858.6666c-.1904.1905-.4127.2858-.6666.2858h-2.8572v4.7619c0,.2539.0953.4761.2857.6666.1905.1905.4127.2857.6667.2857h1.9048c.2539,0,.4762.0953.6666.2858.1905.1904.2858.4127.2858.6666c0,.254-.0953.4762-.2858.6667-.1904.1905-.4127.2857-.6666.2857h-1.9048c-.7619,0-1.4286-.2857-2-.8571s-.8571-1.2381-.8571-2v-4.7619h-.9524Z" transform="matrix(4.970383 0 0 4.970383 4164.829839 1032.422221)" fill="#d4d4d4"/><path id="lock-unlock-u-locking-script" d="M2.86691,12.0952h6.66667c.25396,0,.47622.0953.66662.2858s.2858.4127.2858.6666c0,.254-.0953.4762-.2858.6667s-.41266.2857-.66662.2857h-7.61905c-.25397,0-.47619-.0952-.66667-.2857s-.285713-.4127-.285713-.6667v-11.42855c0-.25397.095233-.47619.285713-.666669s.4127-.285715.66667-.285715.47619.095239.66666.285715.28572.412699.28572.666669v10.47615ZM15.2451,14c-.7619,0-1.4286-.2857-2-.8571-.5715-.5715-.8572-1.2381-.8572-2v-3.80957c0-.7619.2857-1.42857.8572-2c.5714-.57143,1.2381-.85714,2-.85714h3.8095c.7619,0,1.4286.28571,2,.85714s.8571,1.2381.8571,2v3.80957c0,.7619-.2857,1.4285-.8571,2s-1.2381.8571-2,.8571h-3.8095ZM20.007,7.33333c0-.25397-.0953-.47619-.2857-.66666s-.4127-.28572-.6667-.28572h-3.8095c-.254,0-.4762.09524-.6667.28572s-.2857.41269-.2857.66666v3.80957c0,.2539.0952.4761.2857.6666s.4127.2857.6667.2857h3.8095c.254,0,.4762-.0952.6667-.2857s.2857-.4127.2857-.6666v-3.80957ZM26.6709,14c-.762,0-1.4286-.2857-2-.8571s-.8572-1.2381-.8572-2v-3.80957c0-.7619.2857-1.42857.8572-2s1.238-.85714,2-.85714h3.8095c.7619,0,1.4285.28571,2,.85714.5714.57143.8571,1.2381.8571,2c0,.25397-.0952.47619-.2857.66667s-.4127.28571-.6667.28571-.4762-.09523-.6666-.28571-.2857-.4127-.2857-.66667-.0953-.47619-.2858-.66666c-.1904-.19048-.4127-.28572-.6666-.28572h-3.8095c-.254,0-.4762.09524-.6667.28572s-.2857.41269-.2857.66666v3.80957c0,.2539.0952.4761.2857.6666s.4127.2857.6667.2857h3.8095c.2539,0,.4762-.0952.6666-.2857.1905-.1905.2858-.4127.2858-.6666s.0952-.4762.2857-.6667.4127-.2857.6666-.2857.4762.0952.6667.2857.2857.4127.2857.6667c0,.7619-.2857,1.4285-.8571,2-.5715.5714-1.2381.8571-2,.8571h-3.8095Zm17.14,0c-.2539,0-.4762-.0952-.6666-.2857l-3.1429-3.1429-.9524.9524v1.5238c0,.254-.0952.4762-.2857.6667s-.4127.2857-.6667.2857-.4762-.0952-.6666-.2857c-.1905-.1905-.2857-.4127-.2857-.6667v-11.42855c0-.25397.0952-.47619.2857-.666669.1904-.190476.4127-.285715.6666-.285715s.4762.095239.6667.285715.2857.412699.2857.666669v7.2L43.1443,4.7619c.1904-.19047.4127-.28571.6666-.28571.254,0,.4762.09524.6667.28571s.2857.4127.2857.66667-.0952.47619-.2857.66667L41.3347,9.2l3.1429,3.181c.1905.1904.2857.4127.2857.6666c0,.254-.0952.4762-.2857.6667s-.4127.2857-.6667.2857Zm6.6639-7.61905h-.9524c-.254,0-.4762-.09524-.6667-.28571-.1904-.19048-.2857-.4127-.2857-.66667s.0953-.47619.2857-.66667c.1905-.19047.4127-.28571.6667-.28571h1.9048c.2539,0,.4762.09524.6666.28571s.2858.4127.2858.66667v6.66663h.9523c.254,0,.4762.0953.6667.2858s.2857.4127.2857.6666c0,.254-.0952.4762-.2857.6667s-.4127.2857-.6667.2857h-3.8095c-.254,0-.4762-.0952-.6667-.2857-.1904-.1905-.2857-.4127-.2857-.6667c0-.2539.0953-.4762.2857-.6666.1905-.1905.4127-.2858.6667-.2858h.9524v-5.71425Zm.9524-3.80952c-.254,0-.4762-.09524-.6667-.28572s-.2857-.41269-.2857-.66666.0952-.47619.2857-.666669.4127-.285715.6667-.285715.4762.095239.6666.285715.2858.412699.2858.666669-.0953.47619-.2858.66666-.4127.28572-.6666.28572Zm8.5686,3.80952v6.66665c0,.254-.0952.4762-.2857.6667s-.4127.2857-.6667.2857c-.2539,0-.4762-.0952-.6666-.2857-.1905-.1905-.2857-.4127-.2857-.6667v-7.61903c0-.25397.0952-.47619.2857-.66667.1904-.19047.4127-.28571.6666-.28571h5.7143c.7619,0,1.4286.28571,2,.85714s.8572,1.2381.8572,2v5.71427c0,.254-.0953.4762-.2858.6667-.1904.1905-.4127.2857-.6666.2857s-.4762-.0952-.6667-.2857-.2857-.4127-.2857-.6667v-5.71427c0-.25397-.0952-.47619-.2857-.66666s-.4127-.28572-.6667-.28572h-4.7619ZM72.374,12.0952c-.7619,0-1.4286-.2857-2-.8571s-.8572-1.2381-.8572-2v-1.90477c0-.7619.2857-1.42857.8572-2s1.2381-.85714,2-.85714h5.7143c.2539,0,.4762.09524.6666.28571s.2857.4127.2857.66667v7.61903c0,.7619-.2857,1.4286-.8571,2s-1.2381.8572-2,.8572h-3.8095c-.254,0-.4762-.0953-.6667-.2858s-.2857-.4127-.2857-.6666c0-.254.0952-.4762.2857-.6667s.4127-.2857.6667-.2857h3.8095c.254,0,.4762-.0952.6667-.2857.1904-.1905.2857-.4127.2857-.6667v-.9524h-4.7619Zm4.7619-1.9047v-3.80955h-4.7619c-.254,0-.4762.09524-.6667.28572s-.2857.41269-.2857.66666v1.90477c0,.25396.0952.47619.2857.66666s.4127.28574.6667.28574h4.7619ZM9.53218,23.2857c-.88889,0-1.5873-.254-2.09524-.7619s-.7619-1.2063-.7619-2.0952v-1.9048c0-.7619.25397-1.4286.7619-2s1.20635-.8571,2.09524-.8571h3.80952c.7619,0,1.4286.2857,2,.8571s.8571,1.2381.8571,2c0,.254-.0952.4762-.2857.6667s-.4127.2857-.6666.2857-.4762-.0952-.6667-.2857-.2857-.4127-.2857-.6667-.0953-.4762-.2857-.6667-.4127-.2857-.6667-.2857h-3.80952c-.25397,0-.47619.0953-.66667.2857s-.28571.4127-.28571.6667v1.9048c0,.2539.09524.4762.28571.6666.19048.1905.4127.2858.66667.2858h3.80952c.7619,0,1.4286.2857,2,.8571s.8571,1.2381.8571,2v1.9048c0,.8888-.2857,1.5873-.8571,2.0952s-1.2381.7619-2,.7619h-3.80952c-.7619,0-1.42857-.2857-2-.8571s-.85714-1.2381-.85714-2c0-.254.09524-.4762.28571-.6667s.4127-.2857.66667-.2857.47619.0952.66666.2857.28572.4127.28572.6667c0,.2539.09524.4761.28571.6666s.4127.2857.66667.2857h3.80952c.254,0,.4762-.0952.6667-.2857s.2857-.4127.2857-.6666v-1.9048c0-.254-.0953-.4762-.2857-.6667s-.4127-.2857-.6667-.2857h-3.80952ZM20.958,29c-.7619,0-1.4286-.2857-2-.8571s-.8572-1.2381-.8572-2v-3.8096c0-.7619.2857-1.4285.8572-2s1.2381-.8571,2-.8571h3.8095c.7619,0,1.4286.2857,2,.8571s.8571,1.2381.8571,2c0,.254-.0952.4762-.2857.6667s-.4127.2857-.6667.2857-.4761-.0952-.6666-.2857-.2857-.4127-.2857-.6667-.0953-.4762-.2857-.6666-.4127-.2857-.6667-.2857h-3.8095c-.254,0-.4762.0952-.6667.2857s-.2857.4127-.2857.6666v3.8096c0,.2539.0952.4761.2857.6666s.4127.2857.6667.2857h3.8095c.254,0,.4762-.0952.6667-.2857s.2857-.4127.2857-.6666c0-.254.0952-.4762.2857-.6667s.4127-.2857.6666-.2857.4762.0952.6667.2857.2857.4127.2857.6667c0,.7619-.2857,1.4285-.8571,2s-1.2381.8571-2,.8571h-3.8095Zm12.3781-7.619v6.6666c0,.254-.0952.4762-.2857.6667s-.4127.2857-.6667.2857c-.2539,0-.4761-.0952-.6666-.2857s-.2857-.4127-.2857-.6667v-7.619c0-.254.0952-.4762.2857-.6667s.4127-.2857.6666-.2857h3.8096c.7619,0,1.4285.2857,2,.8571.5714.5715.8571,1.2381.8571,2c0,.254-.0952.4762-.2857.6667s-.4127.2857-.6667.2857-.4762-.0952-.6666-.2857-.2858-.4127-.2858-.6667-.0952-.4762-.2857-.6666-.4127-.2857-.6666-.2857h-2.8572Zm11.4258,0h-.9524c-.2539,0-.4762-.0953-.6666-.2858-.1905-.1904-.2858-.4127-.2858-.6666s.0953-.4762.2858-.6667.4127-.2857.6666-.2857h1.9048c.254,0,.4762.0952.6667.2857.1904.1905.2857.4127.2857.6667v6.6666h.9523c.254,0,.4762.0953.6667.2858s.2857.4127.2857.6666c0,.254-.0952.4762-.2857.6667s-.4127.2857-.6667.2857h-3.8095c-.2539,0-.4762-.0952-.6666-.2857s-.2858-.4127-.2858-.6667c0-.2539.0953-.4762.2858-.6666s.4127-.2858.6666-.2858h.9524v-5.7142Zm.9524-3.8096c-.254,0-.4762-.0952-.6667-.2857s-.2857-.4127-.2857-.6667c0-.2539.0952-.4761.2857-.6666s.4127-.2857.6667-.2857.4762.0952.6667.2857c.1904.1905.2857.4127.2857.6666c0,.254-.0953.4762-.2857.6667-.1905.1905-.4127.2857-.6667.2857Zm13.3305,9.5238h-4.7619v2.8572c0,.2539-.0952.4762-.2857.6666s-.4127.2858-.6667.2858-.4761-.0889-.6666-.2667-.2857-.4064-.2857-.6857v-9.5238c0-.254.0952-.4762.2857-.6667s.4127-.2857.6666-.2857h5.7143c.7619,0,1.4286.2857,2,.8571s.8572,1.2381.8572,2v1.9048c0,.7619-.2857,1.4286-.8572,2s-1.2381.8571-2,.8571Zm-4.7619-1.9047h4.7619c.254,0,.4762-.0953.6667-.2857.1905-.1905.2857-.4127.2857-.6667v-1.9048c0-.2539-.0952-.4762-.2857-.6666s-.4127-.2857-.6667-.2857h-4.7619v3.8095ZM66.6611,21.381c-.254,0-.4762-.0953-.6667-.2858-.1905-.1904-.2857-.4127-.2857-.6666s.0952-.4762.2857-.6667.4127-.2857.6667-.2857h.9524v-2.8572c0-.2539.0952-.4761.2857-.6666s.4127-.2857.6666-.2857c.254,0,.4762.0952.6667.2857s.2857.4127.2857.6666v2.8572h2.8572c.2539,0,.4762.0952.6666.2857.1905.1905.2858.4127.2858.6667s-.0953.4762-.2858.6666c-.1904.1905-.4127.2858-.6666.2858h-2.8572v4.7619c0,.2539.0953.4761.2857.6666.1905.1905.4127.2857.6667.2857h1.9048c.2539,0,.4762.0953.6666.2858.1905.1904.2858.4127.2858.6666c0,.254-.0953.4762-.2858.6667-.1904.1905-.4127.2857-.6666.2857h-1.9048c-.7619,0-1.4286-.2857-2-.8571s-.8571-1.2381-.8571-2v-4.7619h-.9524Z" transform="matrix(5.292603 0 0 5.292603 2054.414703 1032.207407)" fill="#d4d4d4"/><path id="lock-unlock-u-unlocks-the-conditions-set-by-locking-script" d="M6.75186,14h-3.80952c-.76191,0-1.42858-.2857-2.000004-.8571s-.857142-1.2381-.857142-2v-9.52385c0-.25397.095238-.47619.285714-.666669s.412698-.285715.666662-.285715.47619.095239.66667.285715.28572.412699.28572.666669v9.52385c0,.2539.09523.4761.28571.6666s.4127.2857.66667.2857h3.80952c.25397,0,.47619-.0952.66667-.2857s.28571-.4127.28571-.6666v-9.52385c0-.25397.09524-.47619.28572-.666669s.41269-.285715.66666-.285715.47619.095239.66667.285715.28571.412699.28571.666669v9.52385c0,.7619-.28571,1.4285-.85714,2s-1.2381.8571-2,.8571ZM13.4157,6.38095v6.66665c0,.254-.0952.4762-.2857.6667s-.4127.2857-.6666.2857-.4762-.0952-.6667-.2857-.2857-.4127-.2857-.6667v-7.61903c0-.25397.0952-.47619.2857-.66667s.4127-.28571.6667-.28571h5.7142c.7619,0,1.4286.28571,2,.85714s.8572,1.2381.8572,2v5.71427c0,.254-.0953.4762-.2857.6667s-.4127.2857-.6667.2857-.4762-.0952-.6667-.2857-.2857-.4127-.2857-.6667v-5.71427c0-.25397-.0952-.47619-.2857-.66666s-.4127-.28572-.6667-.28572h-4.7619ZM25.7939,14c-.254,0-.4762-.0952-.6667-.2857-.1904-.1905-.2857-.4127-.2857-.6667c0-.2539.0953-.4762.2857-.6666.1905-.1905.4127-.2858.6667-.2858h.9524v-9.52377h-.9524c-.254,0-.4762-.09524-.6667-.28572-.1904-.19047-.2857-.41269-.2857-.66666s.0953-.47619.2857-.666669c.1905-.190476.4127-.285715.6667-.285715h1.9048c.2539,0,.4762.095239.6666.285715s.2857.412699.2857.666669v10.47615h.9524c.254,0,.4762.0953.6667.2858s.2857.4127.2857.6666c0,.254-.0952.4762-.2857.6667s-.4127.2857-.6667.2857h-3.8095Zm11.4258,0c-.7619,0-1.4286-.2857-2-.8571s-.8572-1.2381-.8572-2v-3.80957c0-.7619.2858-1.42857.8572-2s1.2381-.85714,2-.85714h3.8095c.7619,0,1.4286.28571,2,.85714s.8571,1.2381.8571,2v3.80957c0,.7619-.2857,1.4285-.8571,2s-1.2381.8571-2,.8571h-3.8095Zm4.7619-6.66667c0-.25397-.0953-.47619-.2857-.66666-.1905-.19048-.4127-.28572-.6667-.28572h-3.8095c-.254,0-.4762.09524-.6667.28572s-.2857.41269-.2857.66666v3.80957c0,.2539.0952.4761.2857.6666s.4127.2857.6667.2857h3.8095c.254,0,.4762-.0952.6667-.2857.1904-.1905.2857-.4127.2857-.6666v-3.80957ZM48.6455,14c-.7619,0-1.4286-.2857-2-.8571s-.8572-1.2381-.8572-2v-3.80957c0-.7619.2857-1.42857.8572-2s1.2381-.85714,2-.85714h3.8095c.7619,0,1.4286.28571,2,.85714s.8571,1.2381.8571,2c0,.25397-.0952.47619-.2857.66667s-.4127.28571-.6667.28571c-.2539,0-.4761-.09523-.6666-.28571s-.2857-.4127-.2857-.66667-.0953-.47619-.2857-.66666-.4127-.28572-.6667-.28572h-3.8095c-.254,0-.4762.09524-.6667.28572s-.2857.41269-.2857.66666v3.80957c0,.2539.0952.4761.2857.6666s.4127.2857.6667.2857h3.8095c.254,0,.4762-.0952.6667-.2857s.2857-.4127.2857-.6666.0952-.4762.2857-.6667.4127-.2857.6666-.2857c.254,0,.4762.0952.6667.2857s.2857.4127.2857.6667c0,.7619-.2857,1.4285-.8571,2s-1.2381.8571-2,.8571h-3.8095Zm17.14,0c-.2539,0-.4762-.0952-.6666-.2857L61.976,10.5714l-.9524.9524v1.5238c0,.254-.0952.4762-.2857.6667s-.4127.2857-.6667.2857c-.2539,0-.4761-.0952-.6666-.2857s-.2857-.4127-.2857-.6667v-11.42855c0-.25397.0952-.47619.2857-.666669s.4127-.285715.6666-.285715c.254,0,.4762.095239.6667.285715s.2857.412699.2857.666669v7.2L65.1189,4.7619c.1904-.19047.4127-.28571.6666-.28571.254,0,.4762.09524.6667.28571s.2857.4127.2857.66667-.0952.47619-.2857.66667L63.3093,9.2l3.1429,3.181c.1905.1904.2857.4127.2857.6666c0,.254-.0952.4762-.2857.6667s-.4127.2857-.6667.2857Zm5.7115-3.8095c-.7619,0-1.4285-.28574-2-.85717-.5714-.57143-.8571-1.23809-.8571-2s.2857-1.42857.8571-2c.5715-.57143,1.2381-.85714,2-.85714h5.7143c.254,0,.4762.09524.6667.28571s.2857.4127.2857.66667-.0952.47619-.2857.66667-.4127.28571-.6667.28571c-3.5555,0-5.4603,0-5.7143,0-.2539,0-.4762.09524-.6666.28572-.1905.19047-.2858.41269-.2858.66666s.0953.47619.2858.66667c.1904.19048.4127.28571.6666.28571h3.8095c.762,0,1.4286.28572,2,.85715.5715.57143.8572,1.23814.8572,2.00004s-.2857,1.4285-.8572,2c-.5714.5714-1.238.8571-2,.8571h-5.7142c-.254,0-.4762-.0952-.6667-.2857s-.2857-.4127-.2857-.6667c0-.2539.0952-.4762.2857-.6666s.4127-.2858.6667-.2858h5.7142c.254,0,.4762-.0952.6667-.2857s.2857-.4127.2857-.6666-.0952-.4762-.2857-.6667-.4254-.2857-.7047-.2857h-3.7715ZM94.3486,6.38095c-.254,0-.4762-.09524-.6667-.28571s-.2857-.4127-.2857-.66667.0952-.47619.2857-.66667.4127-.28571.6667-.28571h.9524v-2.85714c0-.25397.0952-.47619.2857-.666669s.4127-.285715.6666-.285715c.254,0,.4762.095239.6667.285715s.2857.412699.2857.666669v2.85714h2.8573c.254,0,.476.09524.667.28571.19.19048.285.4127.285.66667s-.095.47619-.285.66667c-.191.19047-.413.28571-.667.28571h-2.8573v4.76195c0,.2539.0953.4761.2857.6666.1905.1905.4127.2857.6667.2857h1.9049c.254,0,.476.0953.667.2858.19.1904.285.4127.285.6666c0,.254-.095.4762-.285.6667-.191.1905-.413.2857-.667.2857h-1.9049c-.7619,0-1.4286-.2857-2-.8571s-.8571-1.2381-.8571-2v-4.76195h-.9524Zm8.5684-4.7619c0-.25397.095-.47619.286-.666669.19-.190476.413-.285715.667-.285715s.476.095239.666.285715c.191.190479.286.412699.286.666669v2.85714h4.762c.762,0,1.428.28571,2,.85714.571.57143.857,1.2381.857,2v5.71427c0,.254-.095.4762-.286.6667-.19.1905-.412.2857-.666.2857s-.477-.0952-.667-.2857-.286-.4127-.286-.6667v-5.71427c0-.25397-.095-.47619-.285-.66666-.191-.19048-.413-.28572-.667-.28572h-4.762v6.66665c0,.254-.095.4762-.286.6667-.19.1905-.412.2857-.666.2857s-.477-.0952-.667-.2857c-.191-.1905-.286-.4127-.286-.6667v-11.42855ZM117.2,14c-.762,0-1.428-.2857-2-.8571-.571-.5715-.857-1.2381-.857-2v-3.80957c0-.7619.286-1.42857.857-2c.572-.57143,1.238-.85714,2-.85714h3.81c.762,0,1.428.28571,2,.85714.571.57143.857,1.2381.857,2v1.90477c0,.25396-.095.47619-.286.66666-.19.19044-.413.28574-.667.28574h-6.666v.9524c0,.2539.095.4761.285.6666.191.1905.413.2857.667.2857h3.81c.254,0,.476.0953.666.2858.191.1904.286.4127.286.6666c0,.254-.095.4762-.286.6667-.19.1905-.412.2857-.666.2857h-3.81Zm-.952-5.71429h5.714v-.95238c0-.25397-.095-.47619-.286-.66666-.19-.19048-.412-.28572-.666-.28572h-3.81c-.254,0-.476.09524-.667.28572-.19.19047-.285.41269-.285.66666v.95238ZM140.052,14c-.762,0-1.429-.2857-2-.8571-.572-.5715-.857-1.2381-.857-2v-3.80957c0-.7619.285-1.42857.857-2c.571-.57143,1.238-.85714,2-.85714h3.809c.762,0,1.429.28571,2,.85714.572.57143.857,1.2381.857,2c0,.25397-.095.47619-.285.66667-.191.19048-.413.28571-.667.28571s-.476-.09523-.667-.28571c-.19-.19048-.285-.4127-.285-.66667s-.096-.47619-.286-.66666c-.191-.19048-.413-.28572-.667-.28572h-3.809c-.254,0-.476.09524-.667.28572-.19.19047-.286.41269-.286.66666v3.80957c0,.2539.096.4761.286.6666.191.1905.413.2857.667.2857h3.809c.254,0,.476-.0952.667-.2857.19-.1905.286-.4127.286-.6666s.095-.4762.285-.6667c.191-.1905.413-.2857.667-.2857s.476.0952.667.2857c.19.1905.285.4127.285.6667c0,.7619-.285,1.4285-.857,2-.571.5714-1.238.8571-2,.8571h-3.809Zm11.425,0c-.761,0-1.428-.2857-2-.8571-.571-.5715-.857-1.2381-.857-2v-3.80957c0-.7619.286-1.42857.857-2c.572-.57143,1.239-.85714,2-.85714h3.81c.762,0,1.429.28571,2,.85714s.857,1.2381.857,2v3.80957c0,.7619-.286,1.4285-.857,2s-1.238.8571-2,.8571h-3.81Zm4.762-6.66667c0-.25397-.095-.47619-.285-.66666-.191-.19048-.413-.28572-.667-.28572h-3.81c-.253,0-.476.09524-.666.28572-.191.19047-.286.41269-.286.66666v3.80957c0,.2539.095.4761.286.6666.19.1905.413.2857.666.2857h3.81c.254,0,.476-.0952.667-.2857.19-.1905.285-.4127.285-.6666v-3.80957Zm5.712-.95238v6.66665c0,.254-.095.4762-.286.6667-.19.1905-.413.2857-.666.2857-.254,0-.477-.0952-.667-.2857-.191-.1905-.286-.4127-.286-.6667v-7.61903c0-.25397.095-.47619.286-.66667.19-.19047.413-.28571.667-.28571h5.714c.762,0,1.428.28571,2,.85714.571.57143.857,1.2381.857,2v5.71427c0,.254-.095.4762-.286.6667-.19.1905-.412.2857-.666.2857s-.477-.0952-.667-.2857c-.191-.1905-.286-.4127-.286-.6667v-5.71427c0-.25397-.095-.47619-.286-.66666-.19-.19048-.412-.28572-.666-.28572h-4.762Zm12.378,0c-.254,0-.476.09524-.667.28572-.19.19047-.285.41269-.285.66666v3.80957c0,.2539.095.4761.285.6666.191.1905.413.2857.667.2857h4.762v-5.71425h-4.762ZM180.043,14h-5.714c-.762,0-1.429-.2857-2-.8571s-.857-1.2381-.857-2v-3.80957c0-.7619.286-1.42857.857-2s1.238-.85714,2-.85714h4.762v-2.85714c0-.25397.095-.47619.286-.666669.19-.190476.412-.285715.666-.285715s.477.095239.667.285715.286.412699.286.666669v11.42855c0,.254-.096.4762-.286.6667s-.413.2857-.667.2857Zm6.664-7.61905h-.952c-.254,0-.476-.09524-.667-.28571-.19-.19048-.286-.4127-.286-.66667s.096-.47619.286-.66667c.191-.19047.413-.28571.667-.28571h1.905c.254,0,.476.09524.666.28571.191.19048.286.4127.286.66667v6.66663h.952c.254,0,.477.0953.667.2858.191.1904.286.4127.286.6666c0,.254-.095.4762-.286.6667-.19.1905-.413.2857-.667.2857h-3.809c-.254,0-.476-.0952-.667-.2857-.19-.1905-.286-.4127-.286-.6667c0-.2539.096-.4762.286-.6666.191-.1905.413-.2858.667-.2858h.952v-5.71425Zm.953-3.80952c-.254,0-.477-.09524-.667-.28572-.191-.19047-.286-.41269-.286-.66666s.095-.47619.286-.666669c.19-.190476.413-.285715.667-.285715s.476.095239.666.285715c.191.190479.286.412699.286.666669s-.095.47619-.286.66666c-.19.19048-.412.28572-.666.28572Zm9.521,3.80952c-.254,0-.477-.09524-.667-.28571-.191-.19048-.286-.4127-.286-.66667s.095-.47619.286-.66667c.19-.19047.413-.28571.667-.28571h.952v-2.85714c0-.25397.095-.47619.286-.666669.19-.190476.412-.285715.666-.285715s.477.095239.667.285715c.191.190479.286.412699.286.666669v2.85714h2.857c.254,0,.476.09524.667.28571.19.19048.285.4127.285.66667s-.095.47619-.285.66667c-.191.19047-.413.28571-.667.28571h-2.857v4.76195c0,.2539.095.4761.285.6666.191.1905.413.2857.667.2857h1.905c.254,0,.476.0953.667.2858.19.1904.285.4127.285.6666c0,.254-.095.4762-.285.6667-.191.1905-.413.2857-.667.2857h-1.905c-.762,0-1.428-.2857-2-.8571-.571-.5715-.857-1.2381-.857-2v-4.76195h-.952Zm12.378,0h-.953c-.254,0-.476-.09524-.666-.28571-.191-.19048-.286-.4127-.286-.66667s.095-.47619.286-.66667c.19-.19047.412-.28571.666-.28571h1.905c.254,0,.476.09524.667.28571.19.19048.286.4127.286.66667v6.66663h.952c.254,0,.476.0953.667.2858.19.1904.285.4127.285.6666c0,.254-.095.4762-.285.6667-.191.1905-.413.2857-.667.2857h-3.81c-.254,0-.476-.0952-.666-.2857-.191-.1905-.286-.4127-.286-.6667c0-.2539.095-.4762.286-.6666.19-.1905.412-.2858.666-.2858h.953v-5.71425Zm.952-3.80952c-.254,0-.476-.09524-.667-.28572-.19-.19047-.285-.41269-.285-.66666s.095-.47619.285-.666669c.191-.190476.413-.285715.667-.285715s.476.095239.667.285715c.19.190479.286.412699.286.666669s-.096.47619-.286.66666c-.191.19048-.413.28572-.667.28572ZM220.032,14c-.762,0-1.428-.2857-2-.8571-.571-.5715-.857-1.2381-.857-2v-3.80957c0-.7619.286-1.42857.857-2c.572-.57143,1.238-.85714,2-.85714h3.81c.762,0,1.428.28571,2,.85714.571.57143.857,1.2381.857,2v3.80957c0,.7619-.286,1.4285-.857,2-.572.5714-1.238.8571-2,.8571h-3.81Zm4.762-6.66667c0-.25397-.095-.47619-.286-.66666-.19-.19048-.412-.28572-.666-.28572h-3.81c-.254,0-.476.09524-.666.28572-.191.19047-.286.41269-.286.66666v3.80957c0,.2539.095.4761.286.6666.19.1905.412.2857.666.2857h3.81c.254,0,.476-.0952.666-.2857.191-.1905.286-.4127.286-.6666v-3.80957Zm5.712-.95238v6.66665c0,.254-.096.4762-.286.6667-.191.1905-.413.2857-.667.2857s-.476-.0952-.666-.2857c-.191-.1905-.286-.4127-.286-.6667v-7.61903c0-.25397.095-.47619.286-.66667.19-.19047.412-.28571.666-.28571h5.714c.762,0,1.429.28571,2,.85714.572.57143.858,1.2381.858,2v5.71427c0,.254-.096.4762-.286.6667-.191.1905-.413.2857-.667.2857s-.476-.0952-.666-.2857c-.191-.1905-.286-.4127-.286-.6667v-5.71427c0-.25397-.095-.47619-.286-.66666-.19-.19048-.413-.28572-.667-.28572h-4.761Zm12.378,3.80955c-.762,0-1.429-.28574-2-.85717-.572-.57143-.857-1.23809-.857-2s.285-1.42857.857-2c.571-.57143,1.238-.85714,2-.85714h5.714c.254,0,.476.09524.667.28571.19.19048.285.4127.285.66667s-.095.47619-.285.66667c-.191.19047-.413.28571-.667.28571-3.556,0-5.46,0-5.714,0s-.476.09524-.667.28572c-.19.19047-.286.41269-.286.66666s.096.47619.286.66667c.191.19048.413.28571.667.28571h3.809c.762,0,1.429.28572,2,.85715.572.57143.857,1.23814.857,2.00004s-.285,1.4285-.857,2c-.571.5714-1.238.8571-2,.8571h-5.714c-.254,0-.476-.0952-.667-.2857-.19-.1905-.285-.4127-.285-.6667c0-.2539.095-.4762.285-.6666.191-.1905.413-.2858.667-.2858h5.714c.254,0,.476-.0952.667-.2857.19-.1905.286-.4127.286-.6666s-.096-.4762-.286-.6667c-.191-.1905-.425-.2857-.705-.2857h-3.771Zm22.851,0c-.762,0-1.428-.28574-2-.85717-.571-.57143-.857-1.23809-.857-2s.286-1.42857.857-2c.572-.57143,1.238-.85714,2-.85714h5.715c.254,0,.476.09524.666.28571.191.19048.286.4127.286.66667s-.095.47619-.286.66667c-.19.19047-.412.28571-.666.28571-3.556,0-5.461,0-5.715,0s-.476.09524-.666.28572c-.191.19047-.286.41269-.286.66666s.095.47619.286.66667c.19.19048.412.28571.666.28571h3.81c.762,0,1.428.28572,2,.85715.571.57143.857,1.23814.857,2.00004s-.286,1.4285-.857,2c-.572.5714-1.238.8571-2,.8571h-5.714c-.254,0-.477-.0952-.667-.2857-.191-.1905-.286-.4127-.286-.6667c0-.2539.095-.4762.286-.6666.19-.1905.413-.2858.667-.2858h5.714c.254,0,.476-.0952.666-.2857.191-.1905.286-.4127.286-.6666s-.095-.4762-.286-.6667c-.19-.1905-.425-.2857-.704-.2857h-3.772ZM277.161,14c-.762,0-1.428-.2857-2-.8571-.571-.5715-.857-1.2381-.857-2v-3.80957c0-.7619.286-1.42857.857-2c.572-.57143,1.238-.85714,2-.85714h3.81c.762,0,1.428.28571,2,.85714.571.57143.857,1.2381.857,2v1.90477c0,.25396-.095.47619-.286.66666-.19.19044-.413.28574-.667.28574h-6.666v.9524c0,.2539.095.4761.285.6666.191.1905.413.2857.667.2857h3.81c.254,0,.476.0953.666.2858.191.1904.286.4127.286.6666c0,.254-.095.4762-.286.6667-.19.1905-.412.2857-.666.2857h-3.81Zm-.952-5.71429h5.714v-.95238c0-.25397-.095-.47619-.286-.66666-.19-.19048-.412-.28572-.666-.28572h-3.81c-.254,0-.476.09524-.667.28572-.19.19047-.285.41269-.285.66666v.95238Zm12.378-1.90476c-.254,0-.476-.09524-.667-.28571-.19-.19048-.286-.4127-.286-.66667s.096-.47619.286-.66667c.191-.19047.413-.28571.667-.28571h.952v-2.85714c0-.25397.095-.47619.286-.666669.19-.190476.413-.285715.667-.285715s.476.095239.666.285715c.191.190479.286.412699.286.666669v2.85714h2.857c.254,0,.476.09524.667.28571.19.19048.286.4127.286.66667s-.096.47619-.286.66667c-.191.19047-.413.28571-.667.28571h-2.857v4.76195c0,.2539.095.4761.286.6666.19.1905.412.2857.666.2857h1.905c.254,0,.476.0953.667.2858.19.1904.286.4127.286.6666c0,.254-.096.4762-.286.6667-.191.1905-.413.2857-.667.2857h-1.905c-.762,0-1.428-.2857-2-.8571-.571-.5715-.857-1.2381-.857-2v-4.76195h-.952Zm26.661,0h-4.762v5.71425h4.762c.254,0,.476-.0952.667-.2857.19-.1905.285-.4127.285-.6666v-3.80957c0-.25397-.095-.47619-.285-.66666-.191-.19048-.413-.28572-.667-.28572ZM309.534,14c-.254,0-.477-.0952-.667-.2857s-.286-.4127-.286-.6667v-11.42855c0-.25397.096-.47619.286-.666669s.413-.285715.667-.285715.476.095239.666.285715c.191.190479.286.412699.286.666669v2.85714h4.762c.762,0,1.429.28571,2,.85714s.857,1.2381.857,2v3.80957c0,.7619-.286,1.4285-.857,2s-1.238.8571-2,.8571h-5.714Zm13.33-1.9048c-.762,0-1.428-.2857-2-.8571-.571-.5714-.857-1.2381-.857-2v-3.80953c0-.25397.095-.47619.286-.66667.19-.19047.412-.28571.666-.28571s.477.09524.667.28571c.191.19048.286.4127.286.66667v3.80953c0,.25396.095.47619.286.66666.19.19044.412.28574.666.28574h4.762v-4.76193c0-.25397.095-.47619.286-.66667.19-.19047.413-.28571.666-.28571.254,0,.477.09524.667.28571.191.19048.286.4127.286.66667v7.61903c0,.7619-.286,1.4286-.857,2-.572.5714-1.238.8572-2,.8572h-3.81c-.254,0-.476-.0953-.666-.2858-.191-.1904-.286-.4127-.286-.6666c0-.254.095-.4762.286-.6667.19-.1905.412-.2857.666-.2857h3.81c.254,0,.476-.0952.666-.2857.191-.1905.286-.4127.286-.6667v-.9524h-4.762ZM345.716,14c-.254,0-.476-.0952-.667-.2857-.19-.1905-.286-.4127-.286-.6667c0-.2539.096-.4762.286-.6666.191-.1905.413-.2858.667-.2858h.952v-9.52377h-.952c-.254,0-.476-.09524-.667-.28572-.19-.19047-.286-.41269-.286-.66666s.096-.47619.286-.666669c.191-.190476.413-.285715.667-.285715h1.905c.254,0,.476.095239.666.285715.191.190479.286.412699.286.666669v10.47615h.952c.254,0,.476.0953.667.2858.19.1904.286.4127.286.6666c0,.254-.096.4762-.286.6667-.191.1905-.413.2857-.667.2857h-3.809Zm11.426,0c-.762,0-1.429-.2857-2-.8571-.572-.5715-.858-1.2381-.858-2v-3.80957c0-.7619.286-1.42857.858-2c.571-.57143,1.238-.85714,2-.85714h3.809c.762,0,1.429.28571,2,.85714.572.57143.857,1.2381.857,2v3.80957c0,.7619-.285,1.4285-.857,2-.571.5714-1.238.8571-2,.8571h-3.809Zm4.761-6.66667c0-.25397-.095-.47619-.285-.66666-.191-.19048-.413-.28572-.667-.28572h-3.809c-.254,0-.477.09524-.667.28572-.191.19047-.286.41269-.286.66666v3.80957c0,.2539.095.4761.286.6666.19.1905.413.2857.667.2857h3.809c.254,0,.476-.0952.667-.2857.19-.1905.285-.4127.285-.6666v-3.80957ZM368.567,14c-.762,0-1.428-.2857-2-.8571-.571-.5715-.857-1.2381-.857-2v-3.80957c0-.7619.286-1.42857.857-2c.572-.57143,1.238-.85714,2-.85714h3.81c.762,0,1.428.28571,2,.85714.571.57143.857,1.2381.857,2c0,.25397-.095.47619-.286.66667-.19.19048-.412.28571-.666.28571s-.477-.09523-.667-.28571c-.191-.19048-.286-.4127-.286-.66667s-.095-.47619-.285-.66666c-.191-.19048-.413-.28572-.667-.28572h-3.81c-.254,0-.476.09524-.666.28572-.191.19047-.286.41269-.286.66666v3.80957c0,.2539.095.4761.286.6666.19.1905.412.2857.666.2857h3.81c.254,0,.476-.0952.667-.2857.19-.1905.285-.4127.285-.6666s.095-.4762.286-.6667c.19-.1905.413-.2857.667-.2857s.476.0952.666.2857c.191.1905.286.4127.286.6667c0,.7619-.286,1.4285-.857,2-.572.5714-1.238.8571-2,.8571h-3.81Zm17.14,0c-.254,0-.476-.0952-.666-.2857l-3.143-3.1429-.953.9524v1.5238c0,.254-.095.4762-.285.6667-.191.1905-.413.2857-.667.2857s-.476-.0952-.667-.2857c-.19-.1905-.285-.4127-.285-.6667v-11.42855c0-.25397.095-.47619.285-.666669.191-.190476.413-.285715.667-.285715s.476.095239.667.285715c.19.190479.285.412699.285.666669v7.2l4.096-4.05715c.19-.19047.412-.28571.666-.28571s.477.09524.667.28571c.191.19048.286.4127.286.66667s-.095.47619-.286.66667L383.231,9.2l3.143,3.181c.191.1904.286.4127.286.6666c0,.254-.095.4762-.286.6667-.19.1905-.413.2857-.667.2857Zm6.664-7.61905h-.952c-.254,0-.476-.09524-.667-.28571-.19-.19048-.285-.4127-.285-.66667s.095-.47619.285-.66667c.191-.19047.413-.28571.667-.28571h1.905c.254,0,.476.09524.666.28571.191.19048.286.4127.286.66667v6.66663h.952c.254,0,.477.0953.667.2858.191.1904.286.4127.286.6666c0,.254-.095.4762-.286.6667-.19.1905-.413.2857-.667.2857h-3.809c-.254,0-.476-.0952-.667-.2857-.19-.1905-.285-.4127-.285-.6667c0-.2539.095-.4762.285-.6666.191-.1905.413-.2858.667-.2858h.952v-5.71425Zm.953-3.80952c-.254,0-.477-.09524-.667-.28572s-.286-.41269-.286-.66666.096-.47619.286-.666669.413-.285715.667-.285715.476.095239.666.285715c.191.190479.286.412699.286.666669s-.095.47619-.286.66666c-.19.19048-.412.28572-.666.28572Zm8.568,3.80952v6.66665c0,.254-.095.4762-.285.6667-.191.1905-.413.2857-.667.2857s-.476-.0952-.667-.2857c-.19-.1905-.285-.4127-.285-.6667v-7.61903c0-.25397.095-.47619.285-.66667.191-.19047.413-.28571.667-.28571h5.714c.762,0,1.429.28571,2,.85714.572.57143.857,1.2381.857,2v5.71427c0,.254-.095.4762-.285.6667-.191.1905-.413.2857-.667.2857s-.476-.0952-.667-.2857c-.19-.1905-.285-.4127-.285-.6667v-5.71427c0-.25397-.096-.47619-.286-.66666-.191-.19048-.413-.28572-.667-.28572h-4.762ZM414.27,12.0952c-.761,0-1.428-.2857-2-.8571-.571-.5714-.857-1.2381-.857-2v-1.90477c0-.7619.286-1.42857.857-2c.572-.57143,1.239-.85714,2-.85714h5.715c.254,0,.476.09524.666.28571.191.19048.286.4127.286.66667v7.61903c0,.7619-.286,1.4286-.857,2s-1.238.8572-2,.8572h-3.81c-.254,0-.476-.0953-.666-.2858-.191-.1904-.286-.4127-.286-.6666c0-.254.095-.4762.286-.6667.19-.1905.412-.2857.666-.2857h3.81c.254,0,.476-.0952.667-.2857.19-.1905.285-.4127.285-.6667v-.9524h-4.762Zm4.762-1.9047v-3.80955h-4.762c-.254,0-.476.09524-.666.28572-.191.19047-.286.41269-.286.66666v1.90477c0,.25396.095.47619.286.66666.19.19044.412.28574.666.28574h4.762Zm18.09,0c-.762,0-1.429-.28574-2-.85717s-.857-1.23809-.857-2s.286-1.42857.857-2s1.238-.85714,2-.85714h5.714c.254,0,.476.09524.667.28571.19.19048.286.4127.286.66667s-.096.47619-.286.66667c-.191.19047-.413.28571-.667.28571-3.555,0-5.46,0-5.714,0s-.476.09524-.667.28572c-.19.19047-.285.41269-.285.66666s.095.47619.285.66667c.191.19048.413.28571.667.28571h3.81c.761,0,1.428.28572,2,.85715.571.57143.857,1.23814.857,2.00004s-.286,1.4285-.857,2c-.572.5714-1.239.8571-2,.8571h-5.715c-.254,0-.476-.0952-.666-.2857-.191-.1905-.286-.4127-.286-.6667c0-.2539.095-.4762.286-.6666.19-.1905.412-.2858.666-.2858h5.715c.254,0,.476-.0952.666-.2857.191-.1905.286-.4127.286-.6666s-.095-.4762-.286-.6667c-.19-.1905-.425-.2857-.705-.2857h-3.771ZM448.548,14c-.762,0-1.429-.2857-2-.8571-.572-.5715-.857-1.2381-.857-2v-3.80957c0-.7619.285-1.42857.857-2c.571-.57143,1.238-.85714,2-.85714h3.809c.762,0,1.429.28571,2,.85714.572.57143.857,1.2381.857,2c0,.25397-.095.47619-.285.66667-.191.19048-.413.28571-.667.28571s-.476-.09523-.667-.28571c-.19-.19048-.285-.4127-.285-.66667s-.096-.47619-.286-.66666-.413-.28572-.667-.28572h-3.809c-.254,0-.476.09524-.667.28572-.19.19047-.286.41269-.286.66666v3.80957c0,.2539.096.4761.286.6666.191.1905.413.2857.667.2857h3.809c.254,0,.477-.0952.667-.2857s.286-.4127.286-.6666.095-.4762.285-.6667c.191-.1905.413-.2857.667-.2857s.476.0952.667.2857c.19.1905.285.4127.285.6667c0,.7619-.285,1.4285-.857,2-.571.5714-1.238.8571-2,.8571h-3.809Zm12.378-7.61905v6.66665c0,.254-.095.4762-.286.6667-.19.1905-.412.2857-.666.2857s-.477-.0952-.667-.2857c-.191-.1905-.286-.4127-.286-.6667v-7.61903c0-.25397.095-.47619.286-.66667.19-.19047.413-.28571.667-.28571h3.809c.762,0,1.429.28571,2,.85714.572.57143.857,1.2381.857,2c0,.25397-.095.47619-.285.66667-.191.19048-.413.28571-.667.28571s-.476-.09523-.667-.28571c-.19-.19048-.286-.4127-.286-.66667s-.095-.47619-.285-.66666c-.191-.19048-.413-.28572-.667-.28572h-2.857Zm11.426,0h-.953c-.254,0-.476-.09524-.666-.28571-.191-.19048-.286-.4127-.286-.66667s.095-.47619.286-.66667c.19-.19047.412-.28571.666-.28571h1.905c.254,0,.476.09524.667.28571.19.19048.286.4127.286.66667v6.66663h.952c.254,0,.476.0953.667.2858.19.1904.285.4127.285.6666c0,.254-.095.4762-.285.6667-.191.1905-.413.2857-.667.2857h-3.81c-.254,0-.476-.0952-.666-.2857-.191-.1905-.286-.4127-.286-.6667c0-.2539.095-.4762.286-.6666.19-.1905.412-.2858.666-.2858h.953v-5.71425Zm.952-3.80952c-.254,0-.476-.09524-.667-.28572-.19-.19047-.285-.41269-.285-.66666s.095-.47619.285-.666669c.191-.190476.413-.285715.667-.285715s.476.095239.667.285715c.19.190479.286.412699.286.666669s-.096.47619-.286.66666c-.191.19048-.413.28572-.667.28572Zm13.331,9.52377h-4.762v2.8572c0,.2539-.095.4762-.286.6666-.19.1905-.413.2858-.667.2858s-.476-.0889-.666-.2667c-.191-.1778-.286-.4064-.286-.6857v-9.52383c0-.25397.095-.47619.286-.66667.19-.19047.412-.28571.666-.28571h5.715c.762,0,1.428.28571,2,.85714.571.57143.857,1.2381.857,2v1.90477c0,.7619-.286,1.4286-.857,2-.572.5714-1.238.8571-2,.8571Zm-4.762-1.9047h4.762c.254,0,.476-.0953.666-.28574.191-.19047.286-.4127.286-.66666v-1.90477c0-.25397-.095-.47619-.286-.66666-.19-.19048-.412-.28572-.666-.28572h-4.762v3.80955Zm12.378-3.80955c-.254,0-.476-.09524-.667-.28571-.19-.19048-.285-.4127-.285-.66667s.095-.47619.285-.66667c.191-.19047.413-.28571.667-.28571h.952v-2.85714c0-.25397.096-.47619.286-.666669.191-.190476.413-.285715.667-.285715s.476.095239.666.285715c.191.190479.286.412699.286.666669v2.85714h2.857c.254,0,.476.09524.667.28571.19.19048.286.4127.286.66667s-.096.47619-.286.66667c-.191.19047-.413.28571-.667.28571h-2.857v4.76195c0,.2539.095.4761.286.6666.19.1905.412.2857.666.2857h1.905c.254,0,.476.0953.667.2858.19.1904.286.4127.286.6666c0,.254-.096.4762-.286.6667-.191.1905-.413.2857-.667.2857h-1.905c-.761,0-1.428-.2857-2-.8571-.571-.5715-.857-1.2381-.857-2v-4.76195h-.952Z" transform="matrix(4.114808 0 0 4.114808 2331.705716 286.277468)" fill="#d4d4d4"/><g id="lock-unlock-s-g1" transform="matrix(.598898 0 0 0.598898 1009.215905 796.943117)"><path id="lock-unlock-u-transaction-1" d="M1.13718,2.57143c-.253965,0-.476187-.09524-.666663-.28572s-.285714-.41269-.285714-.66666.095238-.47619.285714-.666669.412698-.285715.666663-.285715h7.61905c.25397,0,.47619.095239.66667.285715s.28571.412699.28571.666669-.09524.47619-.28571.66666-.4127.28572-.66667.28572h-2.85714v10.47617c0,.254-.09524.4762-.28572.6667s-.41269.2857-.66666.2857-.47619-.0952-.66667-.2857-.28571-.4127-.28571-.6667v-10.47617h-2.85715ZM15.4201,6.38095v6.66665c0,.254-.0952.4762-.2857.6667s-.4127.2857-.6667.2857-.4762-.0952-.6666-.2857-.2858-.4127-.2858-.6667v-7.61903c0-.25397.0953-.47619.2858-.66667s.4127-.28571.6666-.28571h3.8096c.7619,0,1.4285.28571,2,.85714s.8571,1.2381.8571,2c0,.25397-.0952.47619-.2857.66667s-.4127.28571-.6667.28571-.4762-.09523-.6667-.28571-.2857-.4127-.2857-.66667-.0952-.47619-.2857-.66666-.4127-.28572-.6666-.28572h-2.8572ZM25.8935,14c-.7619,0-1.4286-.2857-2-.8571s-.8571-1.2381-.8571-2s.2857-1.42861.8571-2.00004s1.2381-.85715,2-.85715h4.7619v-.95238c0-.25397-.0952-.47619-.2857-.66666s-.4127-.28572-.6667-.28572h-3.8095c-.254,0-.4762-.09524-.6667-.28571s-.2857-.4127-.2857-.66667.0953-.47619.2857-.66667.4127-.28571.6667-.28571h3.8095c.7619,0,1.4286.28571,2,.85714.5715.57143.8572,1.2381.8572,2v5.71427c0,.254-.0953.4762-.2857.6667-.1905.1905-.4127.2857-.6667.2857h-5.7143Zm4.7619-3.8095h-4.7619c-.254,0-.4762.0952-.6667.2857s-.2857.4127-.2857.6667.0953.4761.2857.6666.4127.2857.6667.2857h4.7619v-1.9047Zm5.7115-3.80955v6.66665c0,.254-.0952.4762-.2857.6667s-.4127.2857-.6667.2857c-.2539,0-.4762-.0952-.6666-.2857-.1905-.1905-.2858-.4127-.2858-.6667v-7.61903c0-.25397.0953-.47619.2858-.66667.1904-.19047.4127-.28571.6666-.28571h5.7143c.7619,0,1.4286.28571,2,.85714s.8572,1.2381.8572,2v5.71427c0,.254-.0953.4762-.2858.6667s-.4127.2857-.6666.2857-.4762-.0952-.6667-.2857-.2857-.4127-.2857-.6667v-5.71427c0-.25397-.0952-.47619-.2857-.66666s-.4127-.28572-.6667-.28572h-4.7619ZM48.7451,10.1905c-.7619,0-1.4286-.28574-2-.85717-.5715-.57143-.8572-1.23809-.8572-2s.2857-1.42857.8572-2c.5714-.57143,1.2381-.85714,2-.85714h5.7143c.2539,0,.4761.09524.6666.28571s.2857.4127.2857.66667-.0952.47619-.2857.66667-.4127.28571-.6666.28571c-3.5556,0-5.4604,0-5.7143,0s-.4762.09524-.6667.28572-.2857.41269-.2857.66666.0952.47619.2857.66667.4127.28571.6667.28571h3.8095c.7619,0,1.4286.28572,2,.85715s.8571,1.23814.8571,2.00004-.2857,1.4285-.8571,2-1.2381.8571-2,.8571h-5.7143c-.254,0-.4762-.0952-.6667-.2857s-.2857-.4127-.2857-.6667c0-.2539.0953-.4762.2857-.6666s.4127-.2858.6667-.2858h5.7143c.254,0,.4762-.0952.6667-.2857s.2857-.4127.2857-.6666-.0953-.4762-.2857-.6667-.4254-.2857-.7048-.2857h-3.7714ZM60.1709,14c-.762,0-1.4286-.2857-2-.8571-.5715-.5715-.8572-1.2381-.8572-2s.2857-1.42861.8572-2.00004c.5714-.57143,1.238-.85715,2-.85715h4.7619v-.95238c0-.25397-.0953-.47619-.2858-.66666s-.4127-.28572-.6666-.28572h-3.8095c-.254,0-.4762-.09524-.6667-.28571s-.2857-.4127-.2857-.66667.0952-.47619.2857-.66667.4127-.28571.6667-.28571h3.8095c.7619,0,1.4285.28571,2,.85714.5714.57143.8571,1.2381.8571,2v5.71427c0,.254-.0952.4762-.2857.6667s-.4127.2857-.6667.2857h-5.7142Zm4.7619-3.8095h-4.7619c-.254,0-.4762.0952-.6667.2857s-.2857.4127-.2857.6667.0952.4761.2857.6666.4127.2857.6667.2857h4.7619v-1.9047ZM71.5966,14c-.7619,0-1.4285-.2857-2-.8571-.5714-.5715-.8571-1.2381-.8571-2v-3.80957c0-.7619.2857-1.42857.8571-2c.5715-.57143,1.2381-.85714,2-.85714h3.8096c.7619,0,1.4285.28571,2,.85714.5714.57143.8571,1.2381.8571,2c0,.25397-.0952.47619-.2857.66667s-.4127.28571-.6667.28571-.4762-.09523-.6666-.28571c-.1905-.19048-.2858-.4127-.2858-.66667s-.0952-.47619-.2857-.66666-.4127-.28572-.6666-.28572h-3.8096c-.2539,0-.4762.09524-.6666.28572-.1905.19047-.2857.41269-.2857.66666v3.80957c0,.2539.0952.4761.2857.6666.1904.1905.4127.2857.6666.2857h3.8096c.2539,0,.4761-.0952.6666-.2857s.2857-.4127.2857-.6666.0953-.4762.2858-.6667c.1904-.1905.4127-.2857.6666-.2857s.4762.0952.6667.2857.2857.4127.2857.6667c0,.7619-.2857,1.4285-.8571,2-.5715.5714-1.2381.8571-2,.8571h-3.8096ZM83.0224,6.38095c-.254,0-.4762-.09524-.6667-.28571-.1904-.19048-.2857-.4127-.2857-.66667s.0953-.47619.2857-.66667c.1905-.19047.4127-.28571.6667-.28571h.9524v-2.85714c0-.25397.0952-.47619.2857-.666669s.4127-.285715.6667-.285715c.2539,0,.4762.095239.6666.285715.1905.190479.2858.412699.2858.666669v2.85714h2.8571c.254,0,.4762.09524.6667.28571.1904.19048.2857.4127.2857.66667s-.0953.47619-.2857.66667c-.1905.19047-.4127.28571-.6667.28571h-2.8571v4.76195c0,.2539.0952.4761.2857.6666.1904.1905.4127.2857.6666.2857h1.9048c.254,0,.4762.0953.6667.2858.1904.1904.2857.4127.2857.6666c0,.254-.0953.4762-.2857.6667-.1905.1905-.4127.2857-.6667.2857h-1.9048c-.7619,0-1.4285-.2857-2-.8571s-.8571-1.2381-.8571-2v-4.76195h-.9524Zm12.3782,0h-.9524c-.254,0-.4762-.09524-.6667-.28571-.1904-.19048-.2857-.4127-.2857-.66667s.0953-.47619.2857-.66667c.1905-.19047.4127-.28571.6667-.28571h1.9048c.2539,0,.4761.09524.6666.28571s.2857.4127.2857.66667v6.66663h.9524c.254,0,.4762.0953.6667.2858s.2857.4127.2857.6666c0,.254-.0952.4762-.2857.6667s-.4127.2857-.6667.2857h-3.8095c-.254,0-.4762-.0952-.6667-.2857-.1904-.1905-.2857-.4127-.2857-.6667c0-.2539.0953-.4762.2857-.6666.1905-.1905.4127-.2858.6667-.2858h.9524v-5.71425Zm.9524-3.80952c-.254,0-.4762-.09524-.6667-.28572s-.2857-.41269-.2857-.66666.0952-.47619.2857-.666669.4127-.285715.6667-.285715.4761.095239.6666.285715.2857.412699.2857.666669-.0952.47619-.2857.66666-.4127.28572-.6666.28572ZM105.874,14c-.762,0-1.429-.2857-2-.8571s-.857-1.2381-.857-2v-3.80957c0-.7619.286-1.42857.857-2s1.238-.85714,2-.85714h3.81c.761,0,1.428.28571,2,.85714.571.57143.857,1.2381.857,2v3.80957c0,.7619-.286,1.4285-.857,2-.572.5714-1.239.8571-2,.8571h-3.81Zm4.762-6.66667c0-.25397-.095-.47619-.286-.66666-.19-.19048-.413-.28572-.666-.28572h-3.81c-.254,0-.476.09524-.667.28572-.19.19047-.285.41269-.285.66666v3.80957c0,.2539.095.4761.285.6666.191.1905.413.2857.667.2857h3.81c.253,0,.476-.0952.666-.2857.191-.1905.286-.4127.286-.6666v-3.80957Zm5.711-.95238v6.66665c0,.254-.095.4762-.285.6667-.191.1905-.413.2857-.667.2857s-.476-.0952-.667-.2857c-.19-.1905-.285-.4127-.285-.6667v-7.61903c0-.25397.095-.47619.285-.66667.191-.19047.413-.28571.667-.28571h5.714c.762,0,1.429.28571,2,.85714.572.57143.857,1.2381.857,2v5.71427c0,.254-.095.4762-.285.6667-.191.1905-.413.2857-.667.2857s-.476-.0952-.667-.2857c-.19-.1905-.285-.4127-.285-.6667v-5.71427c0-.25397-.096-.47619-.286-.66666-.191-.19048-.413-.28572-.667-.28572h-4.762Zm23.804-1.90476c-.254,0-.476-.09524-.666-.28571-.191-.19048-.286-.4127-.286-.66667s.095-.47619.286-.66667l1.904-1.904759c.191-.190476.413-.285715.667-.285715s.476.095239.667.285715c.19.190479.285.412699.285.666669v10.47615h.953c.254,0,.476.0953.667.2858.19.1904.285.4127.285.6666c0,.254-.095.4762-.285.6667-.191.1905-.413.2857-.667.2857h-3.81c-.254,0-.476-.0952-.666-.2857-.191-.1905-.286-.4127-.286-.6667c0-.2539.095-.4762.286-.6666.19-.1905.412-.2858.666-.2858h.953v-8.22853l-.286.32381c-.19.19047-.413.28571-.667.28571Z" transform="matrix(10.467397 0 0 10.467397 5.047024 1478.234359)" fill="#a0a0a0"/></g><g id="lock-unlock-s-g2" transform="matrix(6.268904 0 0 6.268904-24241.314449 568.636447)"><path id="lock-unlock-u-transaction-2" d="M1.13718,2.57143c-.253965,0-.476187-.09524-.666663-.28572s-.285714-.41269-.285714-.66666.095238-.47619.285714-.666669.412698-.285715.666663-.285715h7.61905c.25397,0,.47619.095239.66667.285715s.28571.412699.28571.666669-.09524.47619-.28571.66666-.4127.28572-.66667.28572h-2.85714v10.47617c0,.254-.09524.4762-.28572.6667s-.41269.2857-.66666.2857-.47619-.0952-.66667-.2857-.28571-.4127-.28571-.6667v-10.47617h-2.85715ZM15.4201,6.38095v6.66665c0,.254-.0952.4762-.2857.6667s-.4127.2857-.6667.2857-.4762-.0952-.6666-.2857-.2858-.4127-.2858-.6667v-7.61903c0-.25397.0953-.47619.2858-.66667s.4127-.28571.6666-.28571h3.8096c.7619,0,1.4285.28571,2,.85714s.8571,1.2381.8571,2c0,.25397-.0952.47619-.2857.66667s-.4127.28571-.6667.28571-.4762-.09523-.6667-.28571-.2857-.4127-.2857-.66667-.0952-.47619-.2857-.66666-.4127-.28572-.6666-.28572h-2.8572ZM25.8935,14c-.7619,0-1.4286-.2857-2-.8571s-.8571-1.2381-.8571-2s.2857-1.42861.8571-2.00004s1.2381-.85715,2-.85715h4.7619v-.95238c0-.25397-.0952-.47619-.2857-.66666s-.4127-.28572-.6667-.28572h-3.8095c-.254,0-.4762-.09524-.6667-.28571s-.2857-.4127-.2857-.66667.0953-.47619.2857-.66667.4127-.28571.6667-.28571h3.8095c.7619,0,1.4286.28571,2,.85714.5715.57143.8572,1.2381.8572,2v5.71427c0,.254-.0953.4762-.2857.6667-.1905.1905-.4127.2857-.6667.2857h-5.7143Zm4.7619-3.8095h-4.7619c-.254,0-.4762.0952-.6667.2857s-.2857.4127-.2857.6667.0953.4761.2857.6666.4127.2857.6667.2857h4.7619v-1.9047Zm5.7115-3.80955v6.66665c0,.254-.0952.4762-.2857.6667s-.4127.2857-.6667.2857c-.2539,0-.4762-.0952-.6666-.2857-.1905-.1905-.2858-.4127-.2858-.6667v-7.61903c0-.25397.0953-.47619.2858-.66667.1904-.19047.4127-.28571.6666-.28571h5.7143c.7619,0,1.4286.28571,2,.85714s.8572,1.2381.8572,2v5.71427c0,.254-.0953.4762-.2858.6667s-.4127.2857-.6666.2857-.4762-.0952-.6667-.2857-.2857-.4127-.2857-.6667v-5.71427c0-.25397-.0952-.47619-.2857-.66666s-.4127-.28572-.6667-.28572h-4.7619ZM48.7451,10.1905c-.7619,0-1.4286-.28574-2-.85717-.5715-.57143-.8572-1.23809-.8572-2s.2857-1.42857.8572-2c.5714-.57143,1.2381-.85714,2-.85714h5.7143c.2539,0,.4761.09524.6666.28571s.2857.4127.2857.66667-.0952.47619-.2857.66667-.4127.28571-.6666.28571c-3.5556,0-5.4604,0-5.7143,0s-.4762.09524-.6667.28572-.2857.41269-.2857.66666.0952.47619.2857.66667.4127.28571.6667.28571h3.8095c.7619,0,1.4286.28572,2,.85715s.8571,1.23814.8571,2.00004-.2857,1.4285-.8571,2-1.2381.8571-2,.8571h-5.7143c-.254,0-.4762-.0952-.6667-.2857s-.2857-.4127-.2857-.6667c0-.2539.0953-.4762.2857-.6666s.4127-.2858.6667-.2858h5.7143c.254,0,.4762-.0952.6667-.2857s.2857-.4127.2857-.6666-.0953-.4762-.2857-.6667-.4254-.2857-.7048-.2857h-3.7714ZM60.1709,14c-.762,0-1.4286-.2857-2-.8571-.5715-.5715-.8572-1.2381-.8572-2s.2857-1.42861.8572-2.00004c.5714-.57143,1.238-.85715,2-.85715h4.7619v-.95238c0-.25397-.0953-.47619-.2858-.66666s-.4127-.28572-.6666-.28572h-3.8095c-.254,0-.4762-.09524-.6667-.28571s-.2857-.4127-.2857-.66667.0952-.47619.2857-.66667.4127-.28571.6667-.28571h3.8095c.7619,0,1.4285.28571,2,.85714.5714.57143.8571,1.2381.8571,2v5.71427c0,.254-.0952.4762-.2857.6667s-.4127.2857-.6667.2857h-5.7142Zm4.7619-3.8095h-4.7619c-.254,0-.4762.0952-.6667.2857s-.2857.4127-.2857.6667.0952.4761.2857.6666.4127.2857.6667.2857h4.7619v-1.9047ZM71.5966,14c-.7619,0-1.4285-.2857-2-.8571-.5714-.5715-.8571-1.2381-.8571-2v-3.80957c0-.7619.2857-1.42857.8571-2c.5715-.57143,1.2381-.85714,2-.85714h3.8096c.7619,0,1.4285.28571,2,.85714.5714.57143.8571,1.2381.8571,2c0,.25397-.0952.47619-.2857.66667s-.4127.28571-.6667.28571-.4762-.09523-.6666-.28571c-.1905-.19048-.2858-.4127-.2858-.66667s-.0952-.47619-.2857-.66666-.4127-.28572-.6666-.28572h-3.8096c-.2539,0-.4762.09524-.6666.28572-.1905.19047-.2857.41269-.2857.66666v3.80957c0,.2539.0952.4761.2857.6666.1904.1905.4127.2857.6666.2857h3.8096c.2539,0,.4761-.0952.6666-.2857s.2857-.4127.2857-.6666.0953-.4762.2858-.6667c.1904-.1905.4127-.2857.6666-.2857s.4762.0952.6667.2857.2857.4127.2857.6667c0,.7619-.2857,1.4285-.8571,2-.5715.5714-1.2381.8571-2,.8571h-3.8096ZM83.0224,6.38095c-.254,0-.4762-.09524-.6667-.28571-.1904-.19048-.2857-.4127-.2857-.66667s.0953-.47619.2857-.66667c.1905-.19047.4127-.28571.6667-.28571h.9524v-2.85714c0-.25397.0952-.47619.2857-.666669s.4127-.285715.6667-.285715c.2539,0,.4762.095239.6666.285715.1905.190479.2858.412699.2858.666669v2.85714h2.8571c.254,0,.4762.09524.6667.28571.1904.19048.2857.4127.2857.66667s-.0953.47619-.2857.66667c-.1905.19047-.4127.28571-.6667.28571h-2.8571v4.76195c0,.2539.0952.4761.2857.6666.1904.1905.4127.2857.6666.2857h1.9048c.254,0,.4762.0953.6667.2858.1904.1904.2857.4127.2857.6666c0,.254-.0953.4762-.2857.6667-.1905.1905-.4127.2857-.6667.2857h-1.9048c-.7619,0-1.4285-.2857-2-.8571s-.8571-1.2381-.8571-2v-4.76195h-.9524Zm12.3782,0h-.9524c-.254,0-.4762-.09524-.6667-.28571-.1904-.19048-.2857-.4127-.2857-.66667s.0953-.47619.2857-.66667c.1905-.19047.4127-.28571.6667-.28571h1.9048c.2539,0,.4761.09524.6666.28571s.2857.4127.2857.66667v6.66663h.9524c.254,0,.4762.0953.6667.2858s.2857.4127.2857.6666c0,.254-.0952.4762-.2857.6667s-.4127.2857-.6667.2857h-3.8095c-.254,0-.4762-.0952-.6667-.2857-.1904-.1905-.2857-.4127-.2857-.6667c0-.2539.0953-.4762.2857-.6666.1905-.1905.4127-.2858.6667-.2858h.9524v-5.71425Zm.9524-3.80952c-.254,0-.4762-.09524-.6667-.28572s-.2857-.41269-.2857-.66666.0952-.47619.2857-.666669.4127-.285715.6667-.285715.4761.095239.6666.285715.2857.412699.2857.666669-.0952.47619-.2857.66666-.4127.28572-.6666.28572ZM105.874,14c-.762,0-1.429-.2857-2-.8571s-.857-1.2381-.857-2v-3.80957c0-.7619.286-1.42857.857-2s1.238-.85714,2-.85714h3.81c.761,0,1.428.28571,2,.85714.571.57143.857,1.2381.857,2v3.80957c0,.7619-.286,1.4285-.857,2-.572.5714-1.239.8571-2,.8571h-3.81Zm4.762-6.66667c0-.25397-.095-.47619-.286-.66666-.19-.19048-.413-.28572-.666-.28572h-3.81c-.254,0-.476.09524-.667.28572-.19.19047-.285.41269-.285.66666v3.80957c0,.2539.095.4761.285.6666.191.1905.413.2857.667.2857h3.81c.253,0,.476-.0952.666-.2857.191-.1905.286-.4127.286-.6666v-3.80957Zm5.711-.95238v6.66665c0,.254-.095.4762-.285.6667-.191.1905-.413.2857-.667.2857s-.476-.0952-.667-.2857c-.19-.1905-.285-.4127-.285-.6667v-7.61903c0-.25397.095-.47619.285-.66667.191-.19047.413-.28571.667-.28571h5.714c.762,0,1.429.28571,2,.85714.572.57143.857,1.2381.857,2v5.71427c0,.254-.095.4762-.285.6667-.191.1905-.413.2857-.667.2857s-.476-.0952-.667-.2857c-.19-.1905-.285-.4127-.285-.6667v-5.71427c0-.25397-.096-.47619-.286-.66666-.191-.19048-.413-.28572-.667-.28572h-4.762Zm21.9-1.90476c-.254,0-.477-.09524-.667-.28571-.191-.19048-.286-.4127-.286-.66667c0-.7619.286-1.42857.857-2c.572-.571429,1.238-.857144,2-.857144h3.81c.762,0,1.428.285715,2,.857144.571.57143.857,1.2381.857,2v1.90476c0,.25397-.095.47619-.286.66667l-6.038,5.99996h5.372c.254,0,.476.0953.666.2858.191.1904.286.4127.286.6666c0,.254-.095.4762-.286.6667-.19.1905-.412.2857-.666.2857h-7.619c-.254,0-.477-.0952-.667-.2857-.191-.1905-.286-.4127-.286-.6667c0-.2539.095-.4762.286-.6666l7.333-7.37148v-1.48571c0-.25397-.095-.47619-.285-.66667-.191-.19047-.413-.28571-.667-.28571h-3.81c-.254,0-.476.09524-.666.28571-.191.19048-.286.4127-.286.66667s-.095.47619-.286.66667c-.19.19047-.412.28571-.666.28571Z" transform="translate(4625.397187 176.904827)" fill="#a0a0a0"/></g></svg>
