<svg id="el1hVXd9xGn1" xmlns="http://www.w3.org/2000/svg" xmlns:xlink="http://www.w3.org/1999/xlink" viewBox="0 0 935 343" shape-rendering="geometricPrecision" text-rendering="geometricPrecision">
<style><![CDATA[
#el1hVXd9xGn8_to {animation: el1hVXd9xGn8_to__to 1000ms linear infinite normal forwards}@keyframes el1hVXd9xGn8_to__to { 0% {transform: translate(823.677347px,73.518973px)} 50% {transform: translate(840.588864px,72.708211px)} 100% {transform: translate(823.677347px,73.518973px)}} #el1hVXd9xGn11_tr {animation: el1hVXd9xGn11_tr__tr 1000ms linear infinite normal forwards}@keyframes el1hVXd9xGn11_tr__tr { 0% {transform: translate(734.763459px,115.999997px) rotate(0deg)} 50% {transform: translate(734.763459px,115.999997px) rotate(-14.630871deg)} 100% {transform: translate(734.763459px,115.999997px) rotate(0deg)}}
]]></style>
<rect width="611" height="176" rx="0" ry="0" transform="translate(162 84)" fill="#f5f5f6"/><rect width="148" height="112" rx="0" ry="0" transform="translate(196 116)" fill="none" stroke="#696a71" stroke-width="2" stroke-opacity="0.44" stroke-dasharray="12,12"/><rect width="149" height="113" rx="0" ry="0" transform="translate(591.5 115.5)" fill="#696a71" stroke="#696a71"/><rect width="246" height="2" rx="0" ry="0" transform="translate(345 172)" fill="#696a71" fill-opacity="0.44"/><path d="M244.81,179c-.254,0-.477-.095-.667-.286-.191-.19-.286-.412-.286-.666s.095-.477.286-.667c.19-.191.413-.286.667-.286h.952v-9.524h-.952c-.254,0-.477-.095-.667-.285-.191-.191-.286-.413-.286-.667s.095-.476.286-.667c.19-.19.413-.285.667-.285h3.809c.254,0,.476.095.667.285.19.191.285.413.285.667s-.095.476-.285.667c-.191.19-.413.285-.667.285h-.952v9.524h.952c.254,0,.476.095.667.286.19.19.285.413.285.667s-.095.476-.285.666c-.191.191-.413.286-.667.286h-3.809Zm10.473-7.619v6.667c0,.254-.095.476-.286.666-.19.191-.412.286-.666.286s-.477-.095-.667-.286c-.191-.19-.286-.412-.286-.666v-7.619c0-.254.095-.477.286-.667.19-.191.413-.286.667-.286h5.714c.762,0,1.428.286,2,.857.571.572.857,1.238.857,2v5.715c0,.254-.095.476-.286.666-.19.191-.412.286-.666.286s-.477-.095-.667-.286c-.191-.19-.286-.412-.286-.666v-5.715c0-.254-.095-.476-.286-.666-.19-.191-.412-.286-.666-.286h-4.762Zm16.188,5.714h-4.762v2.857c0,.254-.096.477-.286.667-.19.191-.413.286-.667.286s-.476-.089-.666-.267c-.191-.178-.286-.406-.286-.686v-9.523c0-.254.095-.477.286-.667.19-.191.412-.286.666-.286h5.715c.762,0,1.428.286,2,.857.571.572.857,1.238.857,2v1.905c0,.762-.286,1.429-.857,2-.572.572-1.238.857-2,.857Zm-4.762-1.905h4.762c.254,0,.476-.095.666-.285.191-.191.286-.413.286-.667v-1.905c0-.254-.095-.476-.286-.666-.19-.191-.412-.286-.666-.286h-4.762v3.809Zm17.14,1.905v-6.666c0-.254.095-.477.285-.667.191-.191.413-.286.667-.286s.476.095.667.286c.19.19.286.413.286.667v7.619c0,.254-.096.476-.286.666-.191.191-.413.286-.667.286h-5.714c-.762,0-1.429-.286-2-.857-.572-.572-.857-1.238-.857-2v-5.714c0-.254.095-.477.285-.667.191-.191.413-.286.667-.286s.476.095.667.286c.19.19.285.413.285.667v5.714c0,.254.096.476.286.667.191.19.413.285.667.285h4.762Zm6.664-5.714c-.254,0-.477-.095-.667-.286-.19-.19-.286-.412-.286-.666s.096-.477.286-.667c.19-.191.413-.286.667-.286h.952v-2.857c0-.254.095-.476.286-.667.19-.19.412-.285.666-.285s.477.095.667.285c.191.191.286.413.286.667v2.857h2.857c.254,0,.476.095.667.286.19.19.285.413.285.667s-.095.476-.285.666c-.191.191-.413.286-.667.286h-2.857v4.762c0,.254.095.476.286.667.19.19.412.285.666.285h1.905c.254,0,.476.095.667.286.19.19.285.413.285.667s-.095.476-.285.666c-.191.191-.413.286-.667.286h-1.905c-.762,0-1.428-.286-2-.857-.571-.572-.857-1.238-.857-2v-4.762h-.952Z" fill="#696a71" fill-opacity="0.44"/><path d="M634.81,179c-.762,0-1.429-.286-2-.857-.572-.572-.858-1.238-.858-2v-7.619c0-.762.286-1.429.858-2c.571-.572,1.238-.857,2-.857h3.809c.762,0,1.429.285,2,.857.571.571.857,1.238.857,2v7.619c0,.762-.286,1.428-.857,2-.571.571-1.238.857-2,.857h-3.809Zm4.761-10.476c0-.254-.095-.476-.285-.667-.191-.19-.413-.286-.667-.286h-3.809c-.254,0-.477.096-.667.286-.191.191-.286.413-.286.667v7.619c0,.254.095.476.286.667.19.19.413.285.667.285h3.809c.254,0,.476-.095.667-.285.19-.191.285-.413.285-.667v-7.619Zm11.426,8.571v-6.666c0-.254.095-.477.286-.667.19-.191.413-.286.667-.286s.476.095.666.286c.191.19.286.413.286.667v7.619c0,.254-.095.476-.286.666-.19.191-.412.286-.666.286h-5.715c-.762,0-1.428-.286-2-.857-.571-.572-.857-1.238-.857-2v-5.714c0-.254.095-.477.286-.667.19-.191.413-.286.667-.286s.476.095.666.286c.191.19.286.413.286.667v5.714c0,.254.095.476.286.667.19.19.412.285.666.285h4.762Zm6.664-5.714c-.254,0-.476-.095-.667-.286-.19-.19-.285-.412-.285-.666s.095-.477.285-.667c.191-.191.413-.286.667-.286h.952v-2.857c0-.254.096-.476.286-.667.191-.19.413-.285.667-.285s.476.095.667.285c.19.191.285.413.285.667v2.857h2.857c.254,0,.477.095.667.286.191.19.286.413.286.667s-.095.476-.286.666c-.19.191-.413.286-.667.286h-2.857v4.762c0,.254.095.476.286.667.19.19.413.285.667.285h1.904c.254,0,.477.095.667.286.191.19.286.413.286.667s-.095.476-.286.666c-.19.191-.413.286-.667.286h-1.904c-.762,0-1.429-.286-2-.857-.572-.572-.858-1.238-.858-2v-4.762h-.952Zm15.235,5.714h-4.762v2.857c0,.254-.095.477-.285.667-.191.191-.413.286-.667.286s-.476-.089-.667-.267c-.19-.178-.285-.406-.285-.686v-9.523c0-.254.095-.477.285-.667.191-.191.413-.286.667-.286h5.714c.762,0,1.429.286,2,.857.572.572.858,1.238.858,2v1.905c0,.762-.286,1.429-.858,2-.571.572-1.238.857-2,.857Zm-4.762-1.905h4.762c.254,0,.477-.095.667-.285.191-.191.286-.413.286-.667v-1.905c0-.254-.095-.476-.286-.666-.19-.191-.413-.286-.667-.286h-4.762v3.809Zm17.141,1.905v-6.666c0-.254.095-.477.285-.667.191-.191.413-.286.667-.286s.476.095.667.286c.19.19.285.413.285.667v7.619c0,.254-.095.476-.285.666-.191.191-.413.286-.667.286h-5.714c-.762,0-1.429-.286-2-.857-.572-.572-.857-1.238-.857-2v-5.714c0-.254.095-.477.285-.667.191-.191.413-.286.667-.286s.476.095.667.286c.19.19.285.413.285.667v5.714c0,.254.096.476.286.667.19.19.413.285.667.285h4.762Zm6.663-5.714c-.254,0-.476-.095-.666-.286-.191-.19-.286-.412-.286-.666s.095-.477.286-.667c.19-.191.412-.286.666-.286h.953v-2.857c0-.254.095-.476.286-.667.19-.19.412-.285.666-.285s.476.095.667.285c.19.191.286.413.286.667v2.857h2.857c.254,0,.476.095.666.286.191.19.286.413.286.667s-.095.476-.286.666c-.19.191-.412.286-.666.286h-2.857v4.762c0,.254.095.476.285.667.191.19.413.285.667.285h1.905c.254,0,.476.095.666.286.191.19.286.413.286.667s-.095.476-.286.666c-.19.191-.412.286-.666.286h-1.905c-.762,0-1.429-.286-2-.857-.571-.572-.857-1.238-.857-2v-4.762h-.953Z" fill="#fff"/><g id="el1hVXd9xGn8_to" transform="translate(823.677347,73.518973)"><g transform="scale(0.896769,0.885612) translate(-818.002014,-94.598782)"><path d="M721.596,46.619h8.333c.318,0,.595.1191.834.3572.238.2381.357.5159.357.8333c0,.3175-.119.5953-.357.8334-.239.2381-.516.3571-.834.3571h-9.524c-.317,0-.595-.119-.833-.3571s-.357-.5159-.357-.8334v-14.2857c0-.3175.119-.5952.357-.8333s.516-.3572.833-.3572c.318,0,.596.1191.834.3572s.357.5158.357.8333v13.0952ZM737.069,49c-.953,0-1.786-.3571-2.5-1.0714-.715-.7143-1.072-1.5476-1.072-2.5v-4.7619c0-.9524.357-1.7857,1.072-2.5.714-.7143,1.547-1.0715,2.5-1.0715h4.761c.953,0,1.786.3572,2.5,1.0715.715.7143,1.072,1.5476,1.072,2.5v4.7619c0,.9524-.357,1.7857-1.072,2.5-.714.7143-1.547,1.0714-2.5,1.0714h-4.761Zm5.952-8.3333c0-.3175-.119-.5953-.357-.8334s-.516-.3571-.834-.3571h-4.761c-.318,0-.596.119-.834.3571s-.357.5159-.357.8334v4.7619c0,.3174.119.5952.357.8333s.516.3571.834.3571h4.761c.318,0,.596-.119.834-.3571s.357-.5159.357-.8333v-4.7619ZM751.351,49c-.953,0-1.786-.3571-2.5-1.0714-.715-.7143-1.072-1.5476-1.072-2.5v-4.7619c0-.9524.357-1.7857,1.072-2.5.714-.7143,1.547-1.0715,2.5-1.0715h4.762c.952,0,1.785.3572,2.5,1.0715.714.7143,1.071,1.5476,1.071,2.5c0,.3174-.119.5952-.357.8333s-.516.3571-.833.3571c-.318,0-.596-.119-.834-.3571s-.357-.5159-.357-.8333-.119-.5953-.357-.8334-.516-.3571-.833-.3571h-4.762c-.318,0-.595.119-.834.3571-.238.2381-.357.5159-.357.8334v4.7619c0,.3174.119.5952.357.8333.239.2381.516.3571.834.3571h4.762c.317,0,.595-.119.833-.3571s.357-.5159.357-.8333c0-.3175.119-.5953.357-.8334s.516-.3571.834-.3571c.317,0,.595.119.833.3571s.357.5159.357.8334c0,.9524-.357,1.7857-1.071,2.5-.715.7143-1.548,1.0714-2.5,1.0714h-4.762Zm21.425,0c-.318,0-.595-.119-.833-.3571l-3.929-3.9286-1.191,1.1905v1.9047c0,.3175-.119.5953-.357.8334s-.516.3571-.833.3571-.595-.119-.833-.3571-.357-.5159-.357-.8334v-14.2857c0-.3175.119-.5952.357-.8333s.516-.3572.833-.3572.595.1191.833.3572.357.5158.357.8333v9l5.12-5.0714c.238-.2381.515-.3572.833-.3572.317,0,.595.1191.833.3572s.357.5159.357.8333c0,.3175-.119.5953-.357.8333L769.681,43l3.928,3.9762c.238.2381.357.5159.357.8333c0,.3175-.119.5953-.357.8334s-.516.3571-.833.3571Zm8.33-9.5238h-1.191c-.317,0-.595-.1191-.833-.3572-.238-.238-.357-.5158-.357-.8333c0-.3174.119-.5952.357-.8333s.516-.3572.833-.3572h2.381c.318,0,.595.1191.834.3572.238.2381.357.5159.357.8333v8.3333h1.19c.318,0,.595.1191.833.3572.239.2381.358.5159.358.8333c0,.3175-.119.5953-.358.8334-.238.2381-.515.3571-.833.3571h-4.762c-.317,0-.595-.119-.833-.3571s-.357-.5159-.357-.8334c0-.3174.119-.5952.357-.8333s.516-.3572.833-.3572h1.191v-7.1428Zm1.19-4.7619c-.317,0-.595-.1191-.833-.3572s-.357-.5158-.357-.8333.119-.5952.357-.8333.516-.3572.833-.3572c.318,0,.595.1191.834.3572.238.2381.357.5158.357.8333s-.119.5952-.357.8333c-.239.2381-.516.3572-.834.3572Zm10.711,4.7619v8.3333c0,.3175-.119.5953-.357.8334s-.516.3571-.834.3571c-.317,0-.595-.119-.833-.3571s-.357-.5159-.357-.8334v-9.5238c0-.3174.119-.5952.357-.8333s.516-.3572.833-.3572h7.143c.953,0,1.786.3572,2.5,1.0715.715.7143,1.072,1.5476,1.072,2.5v7.1428c0,.3175-.119.5953-.357.8334s-.516.3571-.834.3571c-.317,0-.595-.119-.833-.3571s-.357-.5159-.357-.8334v-7.1428c0-.3175-.119-.5953-.357-.8334s-.516-.3571-.834-.3571h-5.952ZM808.48,46.619c-.953,0-1.786-.3571-2.5-1.0714-.715-.7143-1.072-1.5476-1.072-2.5v-2.3809c0-.9524.357-1.7857,1.072-2.5.714-.7143,1.547-1.0715,2.5-1.0715h7.143c.317,0,.595.1191.833.3572s.357.5159.357.8333v9.5238c0,.9524-.357,1.7857-1.071,2.5-.715.7143-1.548,1.0715-2.5,1.0715h-4.762c-.318,0-.596-.1191-.834-.3572s-.357-.5159-.357-.8333c0-.3175.119-.5953.357-.8334s.516-.3571.834-.3571h4.762c.317,0,.595-.119.833-.3571s.357-.5159.357-.8334v-1.1905h-5.952Zm5.952-2.3809v-4.7619h-5.952c-.318,0-.596.119-.834.3571s-.357.5159-.357.8334v2.3809c0,.3175.119.5953.357.8334.238.238.516.3571.834.3571h5.952Zm22.612-2.381c-1.111,0-1.984-.3174-2.619-.9523-.635-.635-.952-1.508-.952-2.6191v-2.3809c0-.9524.317-1.7858.952-2.5.635-.7143,1.508-1.0715,2.619-1.0715h4.762c.952,0,1.786.3572,2.5,1.0715.714.7142,1.071,1.5476,1.071,2.5c0,.3174-.119.5952-.357.8333s-.516.3571-.833.3571-.595-.119-.833-.3571-.357-.5159-.357-.8333c0-.3175-.12-.5953-.358-.8334s-.516-.3571-.833-.3571h-4.762c-.317,0-.595.119-.833.3571s-.357.5159-.357.8334v2.3809c0,.3175.119.5953.357.8333.238.2381.516.3572.833.3572h4.762c.952,0,1.786.3571,2.5,1.0714s1.071,1.5476,1.071,2.5v2.381c0,1.1111-.357,1.9841-1.071,2.619s-1.548.9524-2.5.9524h-4.762c-.952,0-1.786-.3571-2.5-1.0714s-1.071-1.5476-1.071-2.5c0-.3175.119-.5953.357-.8334s.516-.3571.833-.3571c.318,0,.595.119.834.3571.238.2381.357.5159.357.8334c0,.3174.119.5952.357.8333s.516.3571.833.3571h4.762c.317,0,.595-.119.833-.3571s.358-.5159.358-.8333v-2.381c0-.3174-.12-.5952-.358-.8333s-.516-.3572-.833-.3572h-4.762ZM851.326,49c-.952,0-1.785-.3571-2.5-1.0714-.714-.7143-1.071-1.5476-1.071-2.5v-4.7619c0-.9524.357-1.7857,1.071-2.5.715-.7143,1.548-1.0715,2.5-1.0715h4.762c.953,0,1.786.3572,2.5,1.0715.715.7143,1.072,1.5476,1.072,2.5c0,.3174-.119.5952-.357.8333-.239.2381-.516.3571-.834.3571-.317,0-.595-.119-.833-.3571s-.357-.5159-.357-.8333-.119-.5953-.357-.8334-.516-.3571-.834-.3571h-4.762c-.317,0-.595.119-.833.3571s-.357.5159-.357.8334v4.7619c0,.3174.119.5952.357.8333s.516.3571.833.3571h4.762c.318,0,.596-.119.834-.3571s.357-.5159.357-.8333c0-.3175.119-.5953.357-.8334s.516-.3571.833-.3571c.318,0,.595.119.834.3571.238.2381.357.5159.357.8334c0,.9524-.357,1.7857-1.072,2.5-.714.7143-1.547,1.0714-2.5,1.0714h-4.762Zm15.473-9.5238v8.3333c0,.3175-.119.5953-.357.8334s-.516.3571-.833.3571c-.318,0-.596-.119-.834-.3571s-.357-.5159-.357-.8334v-9.5238c0-.3174.119-.5952.357-.8333s.516-.3572.834-.3572h4.761c.953,0,1.786.3572,2.5,1.0715.715.7143,1.072,1.5476,1.072,2.5c0,.3174-.119.5952-.357.8333s-.516.3571-.834.3571c-.317,0-.595-.119-.833-.3571s-.357-.5159-.357-.8333-.119-.5953-.357-.8334-.516-.3571-.834-.3571h-3.571Zm14.282,0h-1.19c-.318,0-.595-.1191-.834-.3572-.238-.238-.357-.5158-.357-.8333c0-.3174.119-.5952.357-.8333.239-.2381.516-.3572.834-.3572h2.381c.317,0,.595.1191.833.3572s.357.5159.357.8333v8.3333h1.191c.317,0,.595.1191.833.3572s.357.5159.357.8333c0,.3175-.119.5953-.357.8334s-.516.3571-.833.3571h-4.762c-.318,0-.595-.119-.834-.3571-.238-.2381-.357-.5159-.357-.8334c0-.3174.119-.5952.357-.8333.239-.2381.516-.3572.834-.3572h1.19v-7.1428Zm1.191-4.7619c-.318,0-.595-.1191-.834-.3572-.238-.2381-.357-.5158-.357-.8333s.119-.5952.357-.8333c.239-.2381.516-.3572.834-.3572.317,0,.595.1191.833.3572s.357.5158.357.8333-.119.5952-.357.8333-.516.3572-.833.3572ZM898.935,46.619h-5.952v3.5715c0,.3174-.119.5952-.358.8333-.238.2381-.515.3572-.833.3572-.317,0-.595-.1112-.833-.3334s-.357-.5079-.357-.8571v-11.9048c0-.3174.119-.5952.357-.8333s.516-.3572.833-.3572h7.143c.952,0,1.786.3572,2.5,1.0715s1.071,1.5476,1.071,2.5v2.3809c0,.9524-.357,1.7857-1.071,2.5s-1.548,1.0714-2.5,1.0714Zm-5.952-2.3809h5.952c.317,0,.595-.1191.833-.3571.238-.2381.357-.5159.357-.8334v-2.3809c0-.3175-.119-.5953-.357-.8334s-.516-.3571-.833-.3571h-5.952v4.7619Zm15.472-4.7619c-.317,0-.595-.1191-.833-.3572-.238-.238-.357-.5158-.357-.8333c0-.3174.119-.5952.357-.8333s.516-.3572.833-.3572h1.191v-3.5714c0-.3175.119-.5952.357-.8333s.516-.3572.833-.3572c.318,0,.595.1191.834.3572.238.2381.357.5158.357.8333v3.5714h3.571c.318,0,.595.1191.833.3572.239.2381.358.5159.358.8333c0,.3175-.119.5953-.358.8333-.238.2381-.515.3572-.833.3572h-3.571v5.9524c0,.3174.119.5952.357.8333s.516.3571.833.3571h2.381c.318,0,.595.1191.833.3572.239.2381.358.5159.358.8333c0,.3175-.119.5953-.358.8334-.238.2381-.515.3571-.833.3571h-2.381c-.952,0-1.786-.3571-2.5-1.0714s-1.071-1.5476-1.071-2.5v-5.9524h-1.191ZM752.875,67c-.686,0-1.286-.2571-1.8-.7714-.515-.5143-.772-1.1143-.772-1.8v-6.8572c0-.6857.257-1.2857.772-1.8.514-.5143,1.114-.7714,1.8-.7714.228,0,.428.0857.6.2571.171.1715.257.3715.257.6s-.086.4286-.257.6c-.172.1715-.372.2572-.6.2572-.229,0-.429.0857-.6.2571-.172.1715-.257.3715-.257.6v6.8572c0,.2285.085.4285.257.6.171.1714.371.2571.6.2571.228,0,.428.0857.6.2572.171.1714.257.3714.257.6c0,.2285-.086.4285-.257.6-.172.1714-.372.2571-.6.2571Zm6.854-5.1429c-.8,0-1.428-.2285-1.885-.6857-.458-.4571-.686-1.0857-.686-1.8857v-1.7143c0-.6857.228-1.2857.686-1.8.457-.5143,1.085-.7714,1.885-.7714h3.429c.686,0,1.286.2571,1.8.7714s.771,1.1143.771,1.8c0,.2286-.085.4286-.257.6-.171.1715-.371.2572-.6.2572-.228,0-.428-.0857-.6-.2572-.171-.1714-.257-.3714-.257-.6c0-.2285-.086-.4285-.257-.6-.172-.1714-.372-.2571-.6-.2571h-3.429c-.228,0-.428.0857-.6.2571-.171.1715-.257.3715-.257.6v1.7143c0,.2286.086.4286.257.6.172.1714.372.2572.6.2572h3.429c.686,0,1.286.2571,1.8.7714s.771,1.1143.771,1.8v1.7143c0,.8-.257,1.4285-.771,1.8857-.514.4571-1.114.6857-1.8.6857h-3.429c-.685,0-1.285-.2571-1.8-.7714-.514-.5143-.771-1.1143-.771-1.8c0-.2286.086-.4286.257-.6.171-.1715.371-.2572.6-.2572s.429.0857.6.2572c.171.1714.257.3714.257.6c0,.2285.086.4285.257.6.172.1714.372.2571.6.2571h3.429c.228,0,.428-.0857.6-.2571.171-.1715.257-.3715.257-.6v-1.7143c0-.2286-.086-.4286-.257-.6-.172-.1714-.372-.2572-.6-.2572h-3.429ZM770.013,67c-.686,0-1.286-.2571-1.8-.7714-.515-.5143-.772-1.1143-.772-1.8v-3.4286c0-.6857.257-1.2857.772-1.8.514-.5143,1.114-.7714,1.8-.7714h3.428c.686,0,1.286.2571,1.8.7714s.772,1.1143.772,1.8c0,.2286-.086.4286-.258.6-.171.1714-.371.2571-.6.2571-.228,0-.428-.0857-.6-.2571-.171-.1714-.257-.3714-.257-.6s-.085-.4286-.257-.6c-.171-.1714-.371-.2571-.6-.2571h-3.428c-.229,0-.429.0857-.6.2571-.172.1714-.258.3714-.258.6v3.4286c0,.2285.086.4285.258.6.171.1714.371.2571.6.2571h3.428c.229,0,.429-.0857.6-.2571.172-.1715.257-.3715.257-.6c0-.2286.086-.4286.257-.6.172-.1715.372-.2572.6-.2572.229,0,.429.0857.6.2572.172.1714.258.3714.258.6c0,.6857-.258,1.2857-.772,1.8s-1.114.7714-1.8.7714h-3.428Zm11.14-6.8571v6c0,.2285-.086.4285-.257.6-.172.1714-.372.2571-.6.2571-.229,0-.429-.0857-.6-.2571-.172-.1715-.257-.3715-.257-.6v-6.8572c0-.2286.085-.4286.257-.6.171-.1714.371-.2571.6-.2571h3.428c.686,0,1.286.2571,1.8.7714.515.5143.772,1.1143.772,1.8c0,.2286-.086.4286-.257.6-.172.1714-.372.2571-.6.2571-.229,0-.429-.0857-.6-.2571-.172-.1714-.258-.3714-.258-.6s-.085-.4286-.257-.6c-.171-.1714-.371-.2571-.6-.2571h-2.571Zm10.283,0h-.857c-.229,0-.429-.0858-.6-.2572s-.257-.3714-.257-.6.086-.4286.257-.6.371-.2571.6-.2571h1.714c.229,0,.429.0857.6.2571.172.1714.257.3714.257.6v6h.858c.228,0,.428.0857.6.2572.171.1714.257.3714.257.6c0,.2285-.086.4285-.257.6-.172.1714-.372.2571-.6.2571h-3.429c-.229,0-.429-.0857-.6-.2571-.171-.1715-.257-.3715-.257-.6c0-.2286.086-.4286.257-.6.171-.1715.371-.2572.6-.2572h.857v-5.1428Zm.857-3.4286c-.228,0-.428-.0857-.6-.2572-.171-.1714-.257-.3714-.257-.6s.086-.4285.257-.6c.172-.1714.372-.2571.6-.2571.229,0,.429.0857.6.2571.172.1715.257.3715.257.6s-.085.4286-.257.6c-.171.1715-.371.2572-.6.2572Zm11.998,8.5714h-4.286v2.5714c0,.2286-.086.4286-.257.6-.172.1715-.372.2572-.6.2572-.229,0-.429-.08-.6-.24-.172-.16-.257-.3657-.257-.6172v-8.5714c0-.2286.085-.4286.257-.6.171-.1714.371-.2571.6-.2571h5.143c.685,0,1.285.2571,1.8.7714.514.5143.771,1.1143.771,1.8v1.7143c0,.6857-.257,1.2857-.771,1.8-.515.5143-1.115.7714-1.8.7714Zm-4.286-1.7143h4.286c.228,0,.428-.0857.6-.2571.171-.1714.257-.3714.257-.6v-1.7143c0-.2286-.086-.4286-.257-.6-.172-.1714-.372-.2571-.6-.2571h-4.286v3.4285Zm11.14-3.4285c-.228,0-.428-.0858-.6-.2572-.171-.1714-.257-.3714-.257-.6s.086-.4286.257-.6c.172-.1714.372-.2571.6-.2571h.858v-2.5715c0-.2285.085-.4285.257-.6.171-.1714.371-.2571.6-.2571.228,0,.428.0857.6.2571.171.1715.257.3715.257.6v2.5715h2.571c.229,0,.429.0857.6.2571.172.1714.257.3714.257.6s-.085.4286-.257.6c-.171.1714-.371.2572-.6.2572h-2.571v4.2857c0,.2285.086.4285.257.6s.371.2571.6.2571h1.714c.229,0,.429.0857.6.2572.172.1714.257.3714.257.6c0,.2285-.085.4285-.257.6-.171.1714-.371.2571-.6.2571h-1.714c-.686,0-1.286-.2571-1.8-.7714s-.771-1.1143-.771-1.8v-4.2857h-.858Zm9.426,0h4.286c.229,0,.429-.0858.6-.2572.172-.1714.257-.3714.257-.6v-1.7143c0-.2285-.085-.4285-.257-.6-.171-.1714-.371-.2571-.6-.2571h-4.286v3.4286Zm0,6c0,.2285-.085.4285-.257.6-.171.1714-.371.2571-.6.2571-.228,0-.428-.0857-.6-.2571-.171-.1715-.257-.3715-.257-.6v-10.2858c0-.2285.086-.4285.257-.6.172-.1714.372-.2571.6-.2571h5.143c.686,0,1.286.2571,1.8.7714s.772,1.1143.772,1.8v1.7143c0,.6857-.258,1.2857-.772,1.8s-1.114.7714-1.8.7714h-4.286v4.2858Zm15.426-.8572v-6c0-.2286.086-.4286.258-.6.171-.1714.371-.2571.6-.2571.228,0,.428.0857.6.2571.171.1714.257.3714.257.6v6.8572c0,.2285-.086.4285-.257.6-.172.1714-.372.2571-.6.2571h-5.143c-.686,0-1.286-.2571-1.8-.7714-.515-.5143-.772-1.1143-.772-1.8v-5.1429c0-.2286.086-.4286.257-.6.172-.1714.372-.2571.6-.2571.229,0,.429.0857.6.2571.172.1714.258.3714.258.6v5.1429c0,.2285.085.4285.257.6.171.1714.371.2571.6.2571h4.285Zm9.427-5.1428h-4.286v5.1428h4.286c.228,0,.428-.0857.6-.2571.171-.1715.257-.3715.257-.6v-3.4286c0-.2286-.086-.4286-.257-.6-.172-.1714-.372-.2571-.6-.2571ZM840.281,67c-.229,0-.429-.0857-.6-.2571-.172-.1715-.257-.3715-.257-.6v-10.2858c0-.2285.085-.4285.257-.6.171-.1714.371-.2571.6-.2571.228,0,.428.0857.6.2571.171.1715.257.3715.257.6v2.5715h4.286c.685,0,1.285.2571,1.8.7714.514.5143.771,1.1143.771,1.8v3.4286c0,.6857-.257,1.2857-.771,1.8-.515.5143-1.115.7714-1.8.7714h-5.143Zm13.163-6l4.577,4.5429c.171.1714.257.3714.257.6c0,.2285-.086.4285-.257.6-.171.1714-.371.2571-.6.2571s-.429-.0857-.6-.2571l-4.543-4.5772-.857.8572v3.12c0,.2285-.086.4285-.257.6-.172.1714-.372.2571-.6.2571-.229,0-.429-.0857-.6-.2571-.172-.1715-.257-.3715-.257-.6v-10.2858c0-.2285.085-.4285.257-.6.171-.1714.371-.2571.6-.2571.228,0,.428.0857.6.2571.171.1715.257.3715.257.6v4.7658l5.4-5.3658c.171-.1714.371-.2571.6-.2571s.429.0857.6.2571c.171.1715.257.3715.257.6s-.086.4286-.257.6L853.444,61Zm9.117,6c-.685,0-1.285-.2571-1.8-.7714-.514-.5143-.771-1.1143-.771-1.8v-3.4286c0-.6857.257-1.2857.771-1.8.515-.5143,1.115-.7714,1.8-.7714h3.429c.686,0,1.286.2571,1.8.7714s.771,1.1143.771,1.8v1.7143c0,.2286-.085.4286-.257.6-.171.1714-.371.2571-.6.2571h-6v.8572c0,.2285.086.4285.257.6.172.1714.372.2571.6.2571h3.429c.229,0,.429.0857.6.2572.171.1714.257.3714.257.6c0,.2285-.086.4285-.257.6-.171.1714-.371.2571-.6.2571h-3.429Zm-.857-5.1429h5.143v-.8571c0-.2286-.086-.4286-.257-.6s-.371-.2571-.6-.2571h-3.429c-.228,0-.428.0857-.6.2571-.171.1714-.257.3714-.257.6v.8571Zm11.141,3.4286c-.686,0-1.286-.2571-1.8-.7714-.515-.5143-.772-1.1143-.772-1.8v-3.4286c0-.2286.086-.4286.257-.6.172-.1714.372-.2571.6-.2571.229,0,.429.0857.6.2571.172.1714.257.3714.257.6v3.4286c0,.2286.086.4286.258.6.171.1714.371.2571.6.2571h4.285v-4.2857c0-.2286.086-.4286.257-.6.172-.1714.372-.2571.6-.2571.229,0,.429.0857.6.2571.172.1714.258.3714.258.6v6.8572c0,.6857-.258,1.2857-.772,1.8s-1.114.7714-1.8.7714h-3.428c-.229,0-.429-.0857-.6-.2572-.172-.1714-.258-.3714-.258-.6c0-.2285.086-.4285.258-.6.171-.1714.371-.2571.6-.2571h3.428c.229,0,.429-.0857.6-.2571.172-.1715.257-.3715.257-.6v-.8572h-4.285ZM883.128,67c-.229,0-.429-.0857-.6-.2571-.172-.1715-.257-.3715-.257-.6c0-.2286.085-.4286.257-.6.171-.1715.371-.2572.6-.2572.228,0,.428-.0857.6-.2571.171-.1715.257-.3715.257-.6v-6.8572c0-.2285-.086-.4285-.257-.6-.172-.1714-.372-.2571-.6-.2571-.229,0-.429-.0857-.6-.2572-.172-.1714-.257-.3714-.257-.6s.085-.4285.257-.6c.171-.1714.371-.2571.6-.2571.686,0,1.286.2571,1.8.7714s.771,1.1143.771,1.8v6.8572c0,.6857-.257,1.2857-.771,1.8s-1.114.7714-1.8.7714Z" fill="#f1760f"/><path d="M752.293,148.793c-.391.39-.391,1.024,0,1.414l6.364,6.364c.39.391,1.024.391,1.414,0c.391-.39.391-1.024,0-1.414l-5.657-5.657l5.657-5.657c.391-.39.391-1.024,0-1.414-.39-.391-1.024-.391-1.414,0l-6.364,6.364Zm66.31-67.35l5.154,10.4305l1.793-.886-5.153-10.4305-1.794.886Zm-13.396,36.146l-.635-.089-.275,1.981.635.089.275-1.981ZM765.736,148.5h-12.736v2h12.736v-2Zm17.102-14.739c-1.264,8.47-8.538,14.739-17.102,14.739v2c9.554,0,17.67-6.994,19.08-16.444l-1.978-.295ZM804.572,117.5c-10.477-1.455-20.172,5.799-21.734,16.261l1.978.295c1.4-9.377,10.09-15.879,19.481-14.575l.275-1.981Zm19.185-25.6265c6.38,12.9105-4.287,27.6965-18.55,25.7155l-.275,1.981c15.853,2.201,27.709-14.233,20.618-28.5825l-1.793.886Z" fill="#f1760f"/></g></g><g id="el1hVXd9xGn11_tr" transform="translate(734.763459,115.999997) rotate(0)"><g transform="translate(-734.763459,-115.999997)"><path d="M12,14.5v2M7,10.0288C7.47142,10,8.05259,10,8.8,10h6.4c.7474,0,1.3286,0,1.8.0288m-10,0c-.58832.0359-1.00571.1167-1.36197.2982-.56449.2876-1.02343.7465-1.31105,1.311C4,12.2798,4,13.1198,4,14.8v1.4c0,1.6802,0,2.5202.32698,3.162.28762.5645.74656,1.0234,1.31105,1.311C6.27976,21,7.11984,21,8.8,21h6.4c1.6802,0,2.5202,0,3.162-.327.5645-.2876,1.0234-.7465,1.311-1.311C20,18.7202,20,17.8802,20,16.2v-1.4c0-1.6802,0-2.5202-.327-3.162-.2876-.5645-.7465-1.0234-1.311-1.311-.3563-.1815-.7737-.2623-1.362-.2982m-10,0L7,8c0-2.76142,2.23858-5,5-5s5,2.23858,5,5v2.0288" transform="matrix(2.154539 0 0 1.910355 708.908976 93.07574)" fill="rgba(251,251,251,0.47)" stroke="#f1760f" stroke-width="2" stroke-linecap="round" stroke-linejoin="round"/></g></g></svg>
