<svg id="eJGT7hz5LRj1" xmlns="http://www.w3.org/2000/svg" xmlns:xlink="http://www.w3.org/1999/xlink" viewBox="0 0 878 323" shape-rendering="geometricPrecision" text-rendering="geometricPrecision" project-id="99de799ac07b416f84b72259a53d954b" export-id="e699de83c68546f9ad7a9e1e1922b53e" cached="false">
<style><![CDATA[
#eJGT7hz5LRj10_to {animation: eJGT7hz5LRj10_to__to 1000ms linear infinite normal forwards}@keyframes eJGT7hz5LRj10_to__to { 0% {transform: translate(721.97699px,86.70654px)} 50% {transform: translate(743.052724px,86.626762px)} 100% {transform: translate(721.97699px,86.70654px)}} #eJGT7hz5LRj13_tr {animation: eJGT7hz5LRj13_tr__tr 1000ms linear infinite normal forwards}@keyframes eJGT7hz5LRj13_tr__tr { 0% {transform: translate(644.651184px,134.94347px) rotate(0deg)} 50% {transform: translate(644.651184px,134.94347px) rotate(27.535589deg)} 100% {transform: translate(644.651184px,134.94347px) rotate(0deg)}}
]]></style>
<defs><filter id="eJGT7hz5LRj8-filter" x="-150%" width="400%" y="-150%" height="400%"><feGaussianBlur id="eJGT7hz5LRj8-filter-inner-shadow-0-blur" in="SourceAlpha" stdDeviation="2,2"/><feOffset id="eJGT7hz5LRj8-filter-inner-shadow-0-offset" dx="105" dy="4" result="tmp"/><feComposite id="eJGT7hz5LRj8-filter-inner-shadow-0-composite" operator="arithmetic" k2="-1" k3="1" in2="SourceGraphic"/><feColorMatrix id="eJGT7hz5LRj8-filter-inner-shadow-0-color-matrix" type="matrix" values="0 0 0 0 0.94902 0 0 0 0 0.462745 0 0 0 0 0.058824 0 0 0 1 0"/><feMerge id="eJGT7hz5LRj8-filter-inner-shadow-0-merge" result="result"><feMergeNode id="eJGT7hz5LRj8-filter-inner-shadow-0-merge-node-1" in="SourceGraphic"/><feMergeNode id="eJGT7hz5LRj8-filter-inner-shadow-0-merge-node-2"/></feMerge></filter></defs><g transform="translate(-97.750031 24.500023)"><rect width="148" height="112" rx="0" ry="0" transform="matrix(1.013513 0 0 1.008929 195.000038 115.499976)" fill="rgba(30,30,30,0)" stroke="#858585" stroke-opacity="0.44" stroke-dasharray="12,12"/><rect width="149" height="113" rx="0" ry="0" transform="translate(591.5 115.5)" fill="#e7e7e7" stroke="#858585" stroke-width="1.5"/><rect width="246" height="2" rx="0" ry="0" transform="matrix(.999284 0 0 0.686462 345.088068 172.313538)" fill="#858585" fill-opacity="0.44" stroke-width="0"/><path d="M244.81,179c-.254,0-.477-.095-.667-.286-.191-.19-.286-.412-.286-.666s.095-.477.286-.667c.19-.191.413-.286.667-.286h.952v-9.524h-.952c-.254,0-.477-.095-.667-.285-.191-.191-.286-.413-.286-.667s.095-.476.286-.667c.19-.19.413-.285.667-.285h3.809c.254,0,.476.095.667.285.19.191.285.413.285.667s-.095.476-.285.667c-.191.19-.413.285-.667.285h-.952v9.524h.952c.254,0,.476.095.667.286.19.19.285.413.285.667s-.095.476-.285.666c-.191.191-.413.286-.667.286h-3.809Zm10.473-7.619v6.667c0,.254-.095.476-.286.666-.19.191-.412.286-.666.286s-.477-.095-.667-.286c-.191-.19-.286-.412-.286-.666v-7.619c0-.254.095-.477.286-.667.19-.191.413-.286.667-.286h5.714c.762,0,1.428.286,2,.857.571.572.857,1.238.857,2v5.715c0,.254-.095.476-.286.666-.19.191-.412.286-.666.286s-.477-.095-.667-.286c-.191-.19-.286-.412-.286-.666v-5.715c0-.254-.095-.476-.286-.666-.19-.191-.412-.286-.666-.286h-4.762Zm16.188,5.714h-4.762v2.857c0,.254-.096.477-.286.667-.19.191-.413.286-.667.286s-.476-.089-.666-.267c-.191-.178-.286-.406-.286-.686v-9.523c0-.254.095-.477.286-.667.19-.191.412-.286.666-.286h5.715c.762,0,1.428.286,2,.857.571.572.857,1.238.857,2v1.905c0,.762-.286,1.429-.857,2-.572.572-1.238.857-2,.857Zm-4.762-1.905h4.762c.254,0,.476-.095.666-.285.191-.191.286-.413.286-.667v-1.905c0-.254-.095-.476-.286-.666-.19-.191-.412-.286-.666-.286h-4.762v3.809Zm17.14,1.905v-6.666c0-.254.095-.477.285-.667.191-.191.413-.286.667-.286s.476.095.667.286c.19.19.286.413.286.667v7.619c0,.254-.096.476-.286.666-.191.191-.413.286-.667.286h-5.714c-.762,0-1.429-.286-2-.857-.572-.572-.857-1.238-.857-2v-5.714c0-.254.095-.477.285-.667.191-.191.413-.286.667-.286s.476.095.667.286c.19.19.285.413.285.667v5.714c0,.254.096.476.286.667.191.19.413.285.667.285h4.762Zm6.664-5.714c-.254,0-.477-.095-.667-.286-.19-.19-.286-.412-.286-.666s.096-.477.286-.667c.19-.191.413-.286.667-.286h.952v-2.857c0-.254.095-.476.286-.667.19-.19.412-.285.666-.285s.477.095.667.285c.191.191.286.413.286.667v2.857h2.857c.254,0,.476.095.667.286.19.19.285.413.285.667s-.095.476-.285.666c-.191.191-.413.286-.667.286h-2.857v4.762c0,.254.095.476.286.667.19.19.412.285.666.285h1.905c.254,0,.476.095.667.286.19.19.285.413.285.667s-.095.476-.285.666c-.191.191-.413.286-.667.286h-1.905c-.762,0-1.428-.286-2-.857-.571-.572-.857-1.238-.857-2v-4.762h-.952Z" fill="#858585" fill-opacity="0.44"/><path d="M634.81,179c-.762,0-1.429-.286-2-.857-.572-.572-.858-1.238-.858-2v-7.619c0-.762.286-1.429.858-2c.571-.572,1.238-.857,2-.857h3.809c.762,0,1.429.285,2,.857.571.571.857,1.238.857,2v7.619c0,.762-.286,1.428-.857,2-.571.571-1.238.857-2,.857h-3.809Zm4.761-10.476c0-.254-.095-.476-.285-.667-.191-.19-.413-.286-.667-.286h-3.809c-.254,0-.477.096-.667.286-.191.191-.286.413-.286.667v7.619c0,.254.095.476.286.667.19.19.413.285.667.285h3.809c.254,0,.476-.095.667-.285.19-.191.285-.413.285-.667v-7.619Zm11.426,8.571v-6.666c0-.254.095-.477.286-.667.19-.191.413-.286.667-.286s.476.095.666.286c.191.19.286.413.286.667v7.619c0,.254-.095.476-.286.666-.19.191-.412.286-.666.286h-5.715c-.762,0-1.428-.286-2-.857-.571-.572-.857-1.238-.857-2v-5.714c0-.254.095-.477.286-.667.19-.191.413-.286.667-.286s.476.095.666.286c.191.19.286.413.286.667v5.714c0,.254.095.476.286.667.19.19.412.285.666.285h4.762Zm6.664-5.714c-.254,0-.476-.095-.667-.286-.19-.19-.285-.412-.285-.666s.095-.477.285-.667c.191-.191.413-.286.667-.286h.952v-2.857c0-.254.096-.476.286-.667.191-.19.413-.285.667-.285s.476.095.667.285c.19.191.285.413.285.667v2.857h2.857c.254,0,.477.095.667.286.191.19.286.413.286.667s-.095.476-.286.666c-.19.191-.413.286-.667.286h-2.857v4.762c0,.254.095.476.286.667.19.19.413.285.667.285h1.904c.254,0,.477.095.667.286.191.19.286.413.286.667s-.095.476-.286.666c-.19.191-.413.286-.667.286h-1.904c-.762,0-1.429-.286-2-.857-.572-.572-.858-1.238-.858-2v-4.762h-.952Zm15.235,5.714h-4.762v2.857c0,.254-.095.477-.285.667-.191.191-.413.286-.667.286s-.476-.089-.667-.267c-.19-.178-.285-.406-.285-.686v-9.523c0-.254.095-.477.285-.667.191-.191.413-.286.667-.286h5.714c.762,0,1.429.286,2,.857.572.572.858,1.238.858,2v1.905c0,.762-.286,1.429-.858,2-.571.572-1.238.857-2,.857Zm-4.762-1.905h4.762c.254,0,.477-.095.667-.285.191-.191.286-.413.286-.667v-1.905c0-.254-.095-.476-.286-.666-.19-.191-.413-.286-.667-.286h-4.762v3.809Zm17.141,1.905v-6.666c0-.254.095-.477.285-.667.191-.191.413-.286.667-.286s.476.095.667.286c.19.19.285.413.285.667v7.619c0,.254-.095.476-.285.666-.191.191-.413.286-.667.286h-5.714c-.762,0-1.429-.286-2-.857-.572-.572-.857-1.238-.857-2v-5.714c0-.254.095-.477.285-.667.191-.191.413-.286.667-.286s.476.095.667.286c.19.19.285.413.285.667v5.714c0,.254.096.476.286.667.19.19.413.285.667.285h4.762Zm6.663-5.714c-.254,0-.476-.095-.666-.286-.191-.19-.286-.412-.286-.666s.095-.477.286-.667c.19-.191.412-.286.666-.286h.953v-2.857c0-.254.095-.476.286-.667.19-.19.412-.285.666-.285s.476.095.667.285c.19.191.286.413.286.667v2.857h2.857c.254,0,.476.095.666.286.191.19.286.413.286.667s-.095.476-.286.666c-.19.191-.412.286-.666.286h-2.857v4.762c0,.254.095.476.285.667.191.19.413.285.667.285h1.905c.254,0,.476.095.666.286.191.19.286.413.286.667s-.095.476-.286.666c-.19.191-.412.286-.666.286h-1.905c-.762,0-1.429-.286-2-.857-.571-.572-.857-1.238-.857-2v-4.762h-.953Z" fill="#858585"/></g><g filter="url(#eJGT7hz5LRj8-filter)"><rect width="39.6808" height="47.126" rx="0" ry="0" transform="matrix(.959833-.280573 0.280573 0.959833 611.999993 122.132625)" fill="none"/></g><g id="eJGT7hz5LRj10_to" transform="translate(721.97699,86.70654)"><g transform="translate(-721.976989,-86.706539)"><path d="M625.571,48.619h8.334c.317,0,.595.1191.833.3572s.357.5159.357.8333c0,.3175-.119.5953-.357.8334s-.516.3571-.833.3571h-9.524c-.318,0-.595-.119-.833-.3571s-.358-.5159-.358-.8334v-14.2857c0-.3175.12-.5952.358-.8333s.515-.3572.833-.3572c.317,0,.595.1191.833.3572s.357.5158.357.8333v13.0952ZM641.044,51c-.952,0-1.786-.3571-2.5-1.0714s-1.071-1.5476-1.071-2.5v-4.7619c0-.9524.357-1.7857,1.071-2.5s1.548-1.0715,2.5-1.0715h4.762c.952,0,1.786.3572,2.5,1.0715s1.071,1.5476,1.071,2.5v4.7619c0,.9524-.357,1.7857-1.071,2.5s-1.548,1.0714-2.5,1.0714h-4.762Zm5.953-8.3333c0-.3175-.12-.5953-.358-.8334s-.516-.3571-.833-.3571h-4.762c-.317,0-.595.119-.833.3571s-.357.5159-.357.8334v4.7619c0,.3174.119.5952.357.8333s.516.3571.833.3571h4.762c.317,0,.595-.119.833-.3571s.358-.5159.358-.8333v-4.7619ZM655.326,51c-.952,0-1.785-.3571-2.5-1.0714-.714-.7143-1.071-1.5476-1.071-2.5v-4.7619c0-.9524.357-1.7857,1.071-2.5.715-.7143,1.548-1.0715,2.5-1.0715h4.762c.953,0,1.786.3572,2.5,1.0715.715.7143,1.072,1.5476,1.072,2.5c0,.3174-.119.5952-.357.8333-.239.2381-.516.3571-.834.3571-.317,0-.595-.119-.833-.3571s-.357-.5159-.357-.8333-.119-.5953-.357-.8334-.516-.3571-.834-.3571h-4.762c-.317,0-.595.119-.833.3571s-.357.5159-.357.8334v4.7619c0,.3174.119.5952.357.8333s.516.3571.833.3571h4.762c.318,0,.596-.119.834-.3571s.357-.5159.357-.8333c0-.3175.119-.5953.357-.8334s.516-.3571.833-.3571c.318,0,.595.119.834.3571.238.2381.357.5159.357.8334c0,.9524-.357,1.7857-1.072,2.5-.714.7143-1.547,1.0714-2.5,1.0714h-4.762Zm21.425,0c-.317,0-.595-.119-.833-.3571l-3.928-3.9286-1.191,1.1905v1.9047c0,.3175-.119.5953-.357.8334s-.516.3571-.833.3571c-.318,0-.596-.119-.834-.3571s-.357-.5159-.357-.8334v-14.2857c0-.3175.119-.5952.357-.8333s.516-.3572.834-.3572c.317,0,.595.1191.833.3572s.357.5158.357.8333v9l5.119-5.0714c.238-.2381.516-.3572.833-.3572.318,0,.596.1191.834.3572s.357.5159.357.8333c0,.3175-.119.5953-.357.8333L673.656,45l3.929,3.9762c.238.2381.357.5159.357.8333c0,.3175-.119.5953-.357.8334s-.516.3571-.834.3571Zm8.33-9.5238h-1.19c-.318,0-.595-.1191-.834-.3572-.238-.238-.357-.5158-.357-.8333c0-.3174.119-.5952.357-.8333.239-.2381.516-.3572.834-.3572h2.381c.317,0,.595.1191.833.3572s.357.5159.357.8333v8.3333h1.191c.317,0,.595.1191.833.3572s.357.5159.357.8333c0,.3175-.119.5953-.357.8334s-.516.3571-.833.3571h-4.762c-.318,0-.595-.119-.834-.3571-.238-.2381-.357-.5159-.357-.8334c0-.3174.119-.5952.357-.8333.239-.2381.516-.3572.834-.3572h1.19v-7.1428Zm1.191-4.7619c-.318,0-.595-.1191-.834-.3572-.238-.2381-.357-.5158-.357-.8333s.119-.5952.357-.8333c.239-.2381.516-.3572.834-.3572.317,0,.595.1191.833.3572s.357.5158.357.8333-.119.5952-.357.8333-.516.3572-.833.3572Zm10.711,4.7619v8.3333c0,.3175-.119.5953-.358.8334-.238.2381-.515.3571-.833.3571-.317,0-.595-.119-.833-.3571s-.357-.5159-.357-.8334v-9.5238c0-.3174.119-.5952.357-.8333s.516-.3572.833-.3572h7.143c.952,0,1.786.3572,2.5,1.0715s1.071,1.5476,1.071,2.5v7.1428c0,.3175-.119.5953-.357.8334s-.516.3571-.833.3571c-.318,0-.595-.119-.833-.3571-.239-.2381-.358-.5159-.358-.8334v-7.1428c0-.3175-.119-.5953-.357-.8334s-.516-.3571-.833-.3571h-5.952Zm15.472,7.1428c-.952,0-1.785-.3571-2.5-1.0714-.714-.7143-1.071-1.5476-1.071-2.5v-2.3809c0-.9524.357-1.7857,1.071-2.5.715-.7143,1.548-1.0715,2.5-1.0715h7.143c.318,0,.595.1191.833.3572.239.2381.358.5159.358.8333v9.5238c0,.9524-.358,1.7857-1.072,2.5s-1.547,1.0715-2.5,1.0715h-4.762c-.317,0-.595-.1191-.833-.3572s-.357-.5159-.357-.8333c0-.3175.119-.5953.357-.8334s.516-.3571.833-.3571h4.762c.318,0,.595-.119.834-.3571.238-.2381.357-.5159.357-.8334v-1.1905h-5.953Zm5.953-2.3809v-4.7619h-5.953c-.317,0-.595.119-.833.3571s-.357.5159-.357.8334v2.3809c0,.3175.119.5953.357.8334.238.238.516.3571.833.3571h5.953Zm22.612-2.381c-1.111,0-1.984-.3174-2.619-.9523-.635-.635-.953-1.508-.953-2.6191v-2.3809c0-.9524.318-1.7858.953-2.5.635-.7143,1.508-1.0715,2.619-1.0715h4.762c.952,0,1.785.3572,2.5,1.0715.714.7142,1.071,1.5476,1.071,2.5c0,.3174-.119.5952-.357.8333s-.516.3571-.833.3571c-.318,0-.596-.119-.834-.3571s-.357-.5159-.357-.8333c0-.3175-.119-.5953-.357-.8334s-.516-.3571-.833-.3571h-4.762c-.318,0-.596.119-.834.3571s-.357.5159-.357.8334v2.3809c0,.3175.119.5953.357.8333.238.2381.516.3572.834.3572h4.762c.952,0,1.785.3571,2.5,1.0714.714.7143,1.071,1.5476,1.071,2.5v2.381c0,1.1111-.357,1.9841-1.071,2.619-.715.6349-1.548.9524-2.5.9524h-4.762c-.953,0-1.786-.3571-2.5-1.0714-.715-.7143-1.072-1.5476-1.072-2.5c0-.3175.119-.5953.357-.8334.239-.2381.516-.3571.834-.3571.317,0,.595.119.833.3571s.357.5159.357.8334c0,.3174.119.5952.357.8333s.516.3571.834.3571h4.762c.317,0,.595-.119.833-.3571s.357-.5159.357-.8333v-2.381c0-.3174-.119-.5952-.357-.8333s-.516-.3572-.833-.3572h-4.762ZM755.302,51c-.952,0-1.786-.3571-2.5-1.0714s-1.071-1.5476-1.071-2.5v-4.7619c0-.9524.357-1.7857,1.071-2.5s1.548-1.0715,2.5-1.0715h4.762c.952,0,1.786.3572,2.5,1.0715s1.071,1.5476,1.071,2.5c0,.3174-.119.5952-.357.8333s-.516.3571-.833.3571c-.318,0-.595-.119-.834-.3571-.238-.2381-.357-.5159-.357-.8333s-.119-.5953-.357-.8334-.516-.3571-.833-.3571h-4.762c-.318,0-.595.119-.833.3571s-.358.5159-.358.8334v4.7619c0,.3174.12.5952.358.8333s.515.3571.833.3571h4.762c.317,0,.595-.119.833-.3571s.357-.5159.357-.8333c0-.3175.119-.5953.357-.8334.239-.2381.516-.3571.834-.3571.317,0,.595.119.833.3571s.357.5159.357.8334c0,.9524-.357,1.7857-1.071,2.5s-1.548,1.0714-2.5,1.0714h-4.762Zm15.473-9.5238v8.3333c0,.3175-.119.5953-.357.8334-.239.2381-.516.3571-.834.3571-.317,0-.595-.119-.833-.3571s-.357-.5159-.357-.8334v-9.5238c0-.3174.119-.5952.357-.8333s.516-.3572.833-.3572h4.762c.952,0,1.786.3572,2.5,1.0715s1.072,1.5476,1.072,2.5c0,.3174-.12.5952-.358.8333s-.516.3571-.833.3571-.595-.119-.833-.3571-.357-.5159-.357-.8333-.119-.5953-.358-.8334c-.238-.2381-.515-.3571-.833-.3571h-3.571Zm14.282,0h-1.191c-.317,0-.595-.1191-.833-.3572-.238-.238-.357-.5158-.357-.8333c0-.3174.119-.5952.357-.8333s.516-.3572.833-.3572h2.381c.318,0,.596.1191.834.3572s.357.5159.357.8333v8.3333h1.19c.318,0,.596.1191.834.3572s.357.5159.357.8333c0,.3175-.119.5953-.357.8334s-.516.3571-.834.3571h-4.762c-.317,0-.595-.119-.833-.3571s-.357-.5159-.357-.8334c0-.3174.119-.5952.357-.8333s.516-.3572.833-.3572h1.191v-7.1428Zm1.19-4.7619c-.317,0-.595-.1191-.833-.3572s-.357-.5158-.357-.8333.119-.5952.357-.8333.516-.3572.833-.3572c.318,0,.596.1191.834.3572s.357.5158.357.8333-.119.5952-.357.8333-.516.3572-.834.3572ZM802.911,48.619h-5.953v3.5715c0,.3174-.119.5952-.357.8333s-.516.3572-.833.3572c-.318,0-.596-.1112-.834-.3334s-.357-.5079-.357-.8571v-11.9048c0-.3174.119-.5952.357-.8333s.516-.3572.834-.3572h7.143c.952,0,1.785.3572,2.5,1.0715.714.7143,1.071,1.5476,1.071,2.5v2.3809c0,.9524-.357,1.7857-1.071,2.5-.715.7143-1.548,1.0714-2.5,1.0714Zm-5.953-2.3809h5.953c.317,0,.595-.1191.833-.3571.238-.2381.357-.5159.357-.8334v-2.3809c0-.3175-.119-.5953-.357-.8334s-.516-.3571-.833-.3571h-5.953v4.7619Zm15.473-4.7619c-.318,0-.595-.1191-.833-.3572-.239-.238-.358-.5158-.358-.8333c0-.3174.119-.5952.358-.8333.238-.2381.515-.3572.833-.3572h1.19v-3.5714c0-.3175.119-.5952.357-.8333.239-.2381.516-.3572.834-.3572.317,0,.595.1191.833.3572s.357.5158.357.8333v3.5714h3.572c.317,0,.595.1191.833.3572s.357.5159.357.8333c0,.3175-.119.5953-.357.8333-.238.2381-.516.3572-.833.3572h-3.572v5.9524c0,.3174.119.5952.357.8333.239.2381.516.3571.834.3571h2.381c.317,0,.595.1191.833.3572s.357.5159.357.8333c0,.3175-.119.5953-.357.8334s-.516.3571-.833.3571h-2.381c-.953,0-1.786-.3571-2.5-1.0714-.715-.7143-1.072-1.5476-1.072-2.5v-5.9524h-1.19Z" fill="#f1760f"/><path d="M662.793,134.793c-.391.39-.391,1.024,0,1.414l6.364,6.364c.39.391,1.024.391,1.414,0c.391-.39.391-1.024,0-1.414l-5.657-5.657l5.657-5.657c.391-.39.391-1.024,0-1.414-.39-.391-1.024-.391-1.414,0l-6.364,6.364Zm66.31-67.35l5.154,10.4305l1.793-.886-5.153-10.4305-1.794.886Zm-13.396,36.146l-.635-.089-.275,1.981.635.089.275-1.981ZM676.236,134.5h-12.736v2h12.736v-2Zm17.102-14.739c-1.264,8.47-8.538,14.739-17.102,14.739v2c9.554,0,17.67-6.994,19.08-16.444l-1.978-.295ZM715.072,103.5c-10.477-1.455-20.172,5.799-21.734,16.261l1.978.295c1.4-9.377,10.09-15.879,19.481-14.575l.275-1.981Zm19.185-25.6265c6.38,12.9103-4.287,27.6965-18.55,25.7155l-.275,1.981c15.853,2.201,27.709-14.2328,20.618-28.5825l-1.793.886Z" transform="translate(4.541379-3.784483)" fill="#f1760f"/></g></g><g id="eJGT7hz5LRj13_tr" transform="translate(644.651184,134.94347) rotate(0)"><g transform="translate(-644.651184,-134.94347)"><path d="M12,14.5v2M7,10.0288C7.47142,10,8.05259,10,8.8,10h6.4c.7474,0,1.3286,0,1.8.0288m-10,0c-.58832.0359-1.00571.1167-1.36197.2982-.56449.2876-1.02343.7465-1.31105,1.311C4,12.2798,4,13.1198,4,14.8v1.4c0,1.6802,0,2.5202.32698,3.162.28762.5645.74656,1.0234,1.31105,1.311C6.27976,21,7.11984,21,8.8,21h6.4c1.6802,0,2.5202,0,3.162-.327.5645-.2876,1.0234-.7465,1.311-1.311C20,18.7202,20,17.8802,20,16.2v-1.4c0-1.6802,0-2.5202-.327-3.162-.2876-.5645-.7465-1.0234-1.311-1.311-.3563-.1815-.7737-.2623-1.362-.2982m-10,0L7,8c0-2.76142,2.23858-5,5-5s5,2.23858,5,5v2.0288" transform="matrix(1.810284-.401919 0.374034 1.684685 618.439375 119.550275)" fill="rgba(241,118,15,0.45)" stroke="#f1760f" stroke-width="1.5" stroke-linecap="round" stroke-linejoin="round"/></g></g></svg>
