<svg id="eVrvNtwK0EW1" xmlns="http://www.w3.org/2000/svg" xmlns:xlink="http://www.w3.org/1999/xlink" viewBox="0 0 5610 1330" shape-rendering="geometricPrecision" text-rendering="geometricPrecision" project-id="405c5c21520f4c56a57a41b2e2b3f2a7" export-id="7097f864050842c498c047198d3babc3" cached="true">
<style><![CDATA[
#eVrvNtwK0EW18_to {animation: eVrvNtwK0EW18_to__to 1000ms linear infinite normal forwards}@keyframes eVrvNtwK0EW18_to__to { 0% {transform: translate(2761px,351px)} 50% {transform: translate(2681px,351px)} 100% {transform: translate(2761px,351px)}} #eVrvNtwK0EW44_to {animation: eVrvNtwK0EW44_to__to 1000ms linear infinite normal forwards}@keyframes eVrvNtwK0EW44_to__to { 0% {transform: translate(3597px,355px)} 50% {transform: translate(3677px,355px)} 100% {transform: translate(3597px,355px)}}
]]></style>
<path d="M107,550.773h5395m0,0L5369,499.5m133,51.273L5369,605.5" fill="none" stroke="#333" stroke-width="9"/><line x1="3174" y1="668" x2="3174" y2="434" fill="none" stroke="#e77429" stroke-width="30"/><line x1="288" y1="590.008" x2="288" y2="511.001" fill="none" stroke="#333" stroke-width="10"/><line x1="786" y1="590.008" x2="786" y2="511.001" fill="none" stroke="#333" stroke-width="10"/><line x1="1319" y1="590.008" x2="1319" y2="511.001" fill="none" stroke="#333" stroke-width="10"/><line x1="1949" y1="590.008" x2="1949" y2="511.001" fill="none" stroke="#333" stroke-width="10"/><line x1="2539" y1="590.008" x2="2539" y2="511.001" fill="none" stroke="#333" stroke-width="10"/><line x1="3882" y1="590.008" x2="3882" y2="511.001" fill="none" stroke="#333" stroke-width="10"/><line x1="4454" y1="590.008" x2="4454" y2="511.001" fill="none" stroke="#333" stroke-width="10"/><line x1="4998" y1="590.008" x2="4998" y2="511.001" fill="none" stroke="#333" stroke-width="10"/><path d="M2998.83,360.429c-5.06,0-9.04-1.448-11.94-4.343-2.89-2.896-4.34-6.876-4.34-11.943v-10.857c0-4.343,1.45-8.143,4.34-11.4c2.9-3.257,6.88-4.886,11.94-4.886h21.72c4.34,0,8.14,1.629,11.4,4.886c3.25,3.257,4.88,7.057,4.88,11.4c0,1.447-.54,2.714-1.63,3.8-1.08,1.085-2.35,1.628-3.8,1.628-1.44,0-2.71-.543-3.8-1.628-1.08-1.086-1.62-2.353-1.62-3.8c0-1.448-.55-2.715-1.63-3.8-1.09-1.086-2.35-1.629-3.8-1.629h-21.72c-1.44,0-2.71.543-3.8,1.629-1.08,1.085-1.63,2.352-1.63,3.8v10.857c0,1.447.55,2.714,1.63,3.8c1.09,1.086,2.36,1.628,3.8,1.628h21.72c4.34,0,8.14,1.629,11.4,4.886c3.25,3.257,4.88,7.057,4.88,11.4v10.857c0,5.067-1.63,9.048-4.88,11.943-3.26,2.895-7.06,4.343-11.4,4.343h-21.72c-4.34,0-8.14-1.629-11.4-4.886-3.25-3.257-4.88-7.057-4.88-11.4c0-1.447.54-2.714,1.63-3.8c1.08-1.085,2.35-1.628,3.8-1.628c1.44,0,2.71.543,3.8,1.628c1.08,1.086,1.62,2.353,1.62,3.8c0,1.448.55,2.715,1.63,3.8c1.09,1.086,2.36,1.629,3.8,1.629h21.72c1.45,0,2.71-.543,3.8-1.629c1.08-1.085,1.63-2.352,1.63-3.8v-10.857c0-1.447-.55-2.714-1.63-3.8-1.09-1.086-2.35-1.628-3.8-1.628h-21.72ZM3063.96,393c-4.34,0-8.14-1.629-11.4-4.886s-4.89-7.057-4.89-11.4v-21.714c0-4.343,1.63-8.143,4.89-11.4s7.06-4.886,11.4-4.886h21.71c4.35,0,8.15,1.629,11.4,4.886c3.26,3.257,4.89,7.057,4.89,11.4v10.857c0,1.448-.54,2.714-1.63,3.8-1.08,1.086-2.35,1.629-3.8,1.629h-38v5.428c0,1.448.54,2.715,1.63,3.8c1.09,1.086,2.35,1.629,3.8,1.629h21.71c1.45,0,2.72.543,3.8,1.628c1.09,1.086,1.63,2.353,1.63,3.8c0,1.448-.54,2.715-1.63,3.8-1.08,1.086-2.35,1.629-3.8,1.629h-21.71Zm-5.43-32.571h32.57v-5.429c0-1.448-.54-2.714-1.63-3.8-1.08-1.086-2.35-1.629-3.8-1.629h-21.71c-1.45,0-2.71.543-3.8,1.629s-1.63,2.352-1.63,3.8v5.429Zm70.56,21.714c-4.35,0-8.15-1.629-11.4-4.886-3.26-3.257-4.89-7.057-4.89-11.4v-10.857c0-4.343,1.63-8.143,4.89-11.4c3.25-3.257,7.05-4.886,11.4-4.886h32.57c1.45,0,2.71.543,3.8,1.629c1.08,1.086,1.63,2.352,1.63,3.8v43.428c0,4.343-1.63,8.143-4.89,11.4-3.26,3.258-7.06,4.886-11.4,4.886h-21.71c-1.45,0-2.72-.543-3.8-1.628-1.09-1.086-1.63-2.353-1.63-3.8c0-1.448.54-2.715,1.63-3.8c1.08-1.086,2.35-1.629,3.8-1.629h21.71c1.45,0,2.72-.543,3.8-1.629c1.09-1.085,1.63-2.352,1.63-3.8v-5.428h-27.14Zm27.14-10.857v-21.715h-27.14c-1.45,0-2.72.543-3.8,1.629-1.09,1.086-1.63,2.352-1.63,3.8v10.857c0,1.448.54,2.714,1.63,3.8c1.08,1.086,2.35,1.629,3.8,1.629h27.14ZM3215.93,393c-4.34,0-8.14-1.629-11.4-4.886-2.53,3.257-5.97,4.886-10.32,4.886-4.34,0-8.14-1.629-11.4-4.886-3.25-3.257-4.88-7.057-4.88-11.4v-32.571c0-1.448.54-2.714,1.63-3.8c1.08-1.086,2.35-1.629,3.8-1.629c1.44,0,2.71.543,3.8,1.629c1.08,1.086,1.63,2.352,1.63,3.8v32.571c0,1.448.54,2.715,1.62,3.8c1.09,1.086,2.36,1.629,3.8,1.629c1.45,0,2.72-.543,3.8-1.629c1.09-1.085,1.63-2.352,1.63-3.8v-21.714c0-1.448.55-2.714,1.63-3.8c1.09-1.086,2.35-1.629,3.8-1.629s2.72.543,3.8,1.629c1.09,1.086,1.63,2.352,1.63,3.8v21.714c0,1.448.54,2.715,1.63,3.8c1.08,1.086,2.35,1.629,3.8,1.629s2.71-.543,3.8-1.629c1.08-1.085,1.63-2.352,1.63-3.8v-32.571c0-1.448.54-2.714,1.63-3.8c1.08-1.086,2.35-1.629,3.8-1.629c1.44,0,2.71.543,3.8,1.629c1.08,1.086,1.62,2.352,1.62,3.8v32.571c0,4.343-1.62,8.143-4.88,11.4s-7.06,4.886-11.4,4.886Zm48.84-43.429h-5.43c-1.45,0-2.71-.542-3.8-1.628-1.08-1.086-1.63-2.353-1.63-3.8c0-1.448.55-2.714,1.63-3.8c1.09-1.086,2.35-1.629,3.8-1.629h10.86c1.45,0,2.71.543,3.8,1.629c1.08,1.086,1.63,2.352,1.63,3.8v38h5.43c1.44,0,2.71.543,3.8,1.628c1.08,1.086,1.62,2.353,1.62,3.8c0,1.448-.54,2.715-1.62,3.8-1.09,1.086-2.36,1.629-3.8,1.629h-21.72c-1.45,0-2.71-.543-3.8-1.629-1.08-1.085-1.63-2.352-1.63-3.8c0-1.447.55-2.714,1.63-3.8c1.09-1.085,2.35-1.628,3.8-1.628h5.43v-32.572Zm5.43-21.714c-1.45,0-2.72-.543-3.8-1.628-1.09-1.086-1.63-2.353-1.63-3.8c0-1.448.54-2.715,1.63-3.8c1.08-1.086,2.35-1.629,3.8-1.629s2.71.543,3.8,1.629c1.08,1.085,1.63,2.352,1.63,3.8c0,1.447-.55,2.714-1.63,3.8-1.09,1.085-2.35,1.628-3.8,1.628Zm54.27,21.714c-1.45,0-2.72-.542-3.8-1.628-1.09-1.086-1.63-2.353-1.63-3.8c0-1.448.54-2.714,1.63-3.8c1.08-1.086,2.35-1.629,3.8-1.629h5.43v-16.285c0-1.448.54-2.715,1.63-3.8c1.08-1.086,2.35-1.629,3.8-1.629c1.44,0,2.71.543,3.8,1.629c1.08,1.085,1.62,2.352,1.62,3.8v16.285h16.29c1.45,0,2.71.543,3.8,1.629s1.63,2.352,1.63,3.8c0,1.447-.54,2.714-1.63,3.8s-2.35,1.628-3.8,1.628h-16.29v27.143c0,1.448.55,2.715,1.63,3.8c1.09,1.086,2.35,1.629,3.8,1.629h10.86c1.45,0,2.71.543,3.8,1.628c1.09,1.086,1.63,2.353,1.63,3.8c0,1.448-.54,2.715-1.63,3.8-1.09,1.086-2.35,1.629-3.8,1.629h-10.86c-4.34,0-8.14-1.629-11.4-4.886-3.25-3.257-4.88-7.057-4.88-11.4v-27.143h-5.43Z" fill="#e77429"/><g mask="url(#eVrvNtwK0EW15)"><path d="M2986.89,356.086l.71-.707v0l-.71.707Zm0-34.2l.75.664v0l-.75-.664Zm45.06,0l.7-.707v0l-.7.707Zm3.25,15.2l.71.707-.71-.707Zm-7.6,0l.71-.707v0l-.71.707Zm-3.25-7.6l.7-.707v0l-.7.707Zm-29.32,0l-.7-.707v0l.7.707Zm0,18.457l.71-.707v0l-.71.707Zm36.92,6.514l.7-.707v0l-.7.707Zm0,34.2l.66.748v0l-.66-.748Zm-44.52-.543l.71-.707v0l-.71.707Zm-3.25-15.2l.7.707v0l-.7-.707Zm7.6,0l-.71.707v0l.71-.707Zm3.25,7.6l.71-.707v0l-.71.707Zm3.8-21.085c-4.86,0-8.57-1.385-11.23-4.05l-1.42,1.414c3.13,3.125,7.39,4.636,12.65,4.636v-2Zm-11.23-4.05c-2.67-2.666-4.05-6.368-4.05-11.236h-2c0,5.265,1.51,9.525,4.63,12.65l1.42-1.414Zm-4.05-11.236v-10.857h-2v10.857h2Zm0-10.857c0-4.097,1.35-7.661,4.09-10.736l-1.5-1.329c-3.05,3.44-4.59,7.476-4.59,12.065h2Zm4.09-10.736c2.67-3.008,6.36-4.55,11.19-4.55v-2c-5.3,0-9.57,1.715-12.69,5.221l1.5,1.329Zm11.19-4.55h21.72v-2h-21.72v2Zm21.72,0c4.06,0,7.61,1.511,10.69,4.593l1.41-1.414c-3.43-3.432-7.48-5.179-12.1-5.179v2Zm10.69,4.593c3.08,3.082,4.59,6.632,4.59,10.693h2c0-4.626-1.74-8.675-5.18-12.107l-1.41,1.414Zm4.59,10.693c0,1.165-.42,2.182-1.33,3.093l1.41,1.414c1.26-1.261,1.92-2.777,1.92-4.507h-2Zm-1.33,3.093c-.91.91-1.93,1.335-3.1,1.335v2c1.74,0,3.25-.661,4.51-1.921l-1.41-1.414Zm-3.1,1.335c-1.16,0-2.18-.425-3.09-1.335l-1.41,1.414c1.26,1.26,2.77,1.921,4.5,1.921v-2Zm-3.09-1.335c-.91-.911-1.33-1.928-1.33-3.093h-2c0,1.73.66,3.246,1.92,4.507l1.41-1.414Zm-1.33-3.093c0-1.73-.66-3.247-1.93-4.507l-1.41,1.414c.91.911,1.34,1.928,1.34,3.093h2Zm-1.93-4.507c-1.26-1.261-2.77-1.922-4.5-1.922v2c1.16,0,2.18.425,3.09,1.336l1.41-1.414Zm-4.5-1.922h-21.72v2h21.72v-2Zm-21.72,0c-1.73,0-3.24.661-4.5,1.922l1.41,1.414c.91-.911,1.93-1.336,3.09-1.336v-2Zm-4.5,1.922c-1.26,1.26-1.93,2.777-1.93,4.507h2c0-1.165.43-2.182,1.34-3.093l-1.41-1.414Zm-1.93,4.507v10.857h2v-10.857h-2Zm0,10.857c0,1.73.67,3.246,1.93,4.507l1.41-1.414c-.91-.911-1.34-1.928-1.34-3.093h-2Zm1.93,4.507c1.26,1.261,2.77,1.921,4.5,1.921v-2c-1.16,0-2.18-.424-3.09-1.335l-1.41,1.414Zm4.5,1.921h21.72v-2h-21.72v2Zm21.72,0c4.06,0,7.61,1.511,10.69,4.593l1.41-1.414c-3.43-3.432-7.48-5.179-12.1-5.179v2Zm10.69,4.593c3.08,3.082,4.59,6.633,4.59,10.693h2c0-4.625-1.74-8.675-5.18-12.107l-1.41,1.414Zm4.59,10.693v10.857h2v-10.857h-2Zm0,10.857c0,4.833-1.54,8.522-4.55,11.196l1.33,1.495c3.51-3.117,5.22-7.39,5.22-12.691h-2Zm-4.55,11.196c-3.07,2.733-6.64,4.09-10.73,4.09v2c4.59,0,8.62-1.538,12.06-4.595l-1.33-1.495ZM3020.55,392h-21.72v2h21.72v-2Zm-21.72,0c-4.06,0-7.61-1.511-10.69-4.593l-1.41,1.414c3.43,3.432,7.48,5.179,12.1,5.179v-2Zm-10.69-4.593c-3.08-3.082-4.59-6.632-4.59-10.693h-2c0,4.626,1.74,8.675,5.18,12.107l1.41-1.414Zm-4.59-10.693c0-1.165.42-2.182,1.33-3.093l-1.41-1.414c-1.26,1.261-1.92,2.777-1.92,4.507h2Zm1.33-3.093c.91-.91,1.93-1.335,3.1-1.335v-2c-1.73,0-3.25.661-4.51,1.921l1.41,1.414Zm3.1-1.335c1.16,0,2.18.425,3.09,1.335l1.41-1.414c-1.26-1.26-2.77-1.921-4.5-1.921v2Zm3.09,1.335c.91.911,1.33,1.928,1.33,3.093h2c0-1.73-.66-3.246-1.92-4.507l-1.41,1.414Zm1.33,3.093c0,1.73.67,3.247,1.93,4.507l1.41-1.414c-.91-.911-1.34-1.928-1.34-3.093h-2Zm1.93,4.507c1.26,1.261,2.77,1.922,4.5,1.922v-2c-1.16,0-2.18-.425-3.09-1.336l-1.41,1.414Zm4.5,1.922h21.72v-2h-21.72v2Zm21.72,0c1.73,0,3.24-.661,4.5-1.922l-1.41-1.414c-.91.911-1.93,1.336-3.09,1.336v2Zm4.5-1.922c1.27-1.26,1.93-2.777,1.93-4.507h-2c0,1.165-.43,2.182-1.34,3.093l1.41,1.414Zm1.93-4.507v-10.857h-2v10.857h2Zm0-10.857c0-1.73-.66-3.246-1.93-4.507l-1.41,1.414c.91.911,1.34,1.928,1.34,3.093h2Zm-1.93-4.507c-1.26-1.261-2.77-1.921-4.5-1.921v2c1.16,0,2.18.424,3.09,1.335l1.41-1.414Zm-4.5-1.921h-21.72v2h21.72v-2Zm32.01,28.685l.71-.707v0l-.71.707Zm0-44.514l.71.707v0l-.71-.707Zm44.51,0l.71-.707v0l-.71.707Zm3.26,26.057l.71.707v0l-.71-.707Zm-41.8,1.629v-1h-1v1h1Zm1.63,9.228l.71-.707v0l-.71.707Zm29.31,3.257l.71-.707v0l-.71.707Zm-30.94-23.342h-1v1h1v-1Zm32.57,0v1h1v-1h-1Zm-30.94-9.229l.71.707v0l-.71-.707Zm3.8,40.8c-4.06,0-7.61-1.511-10.69-4.593l-1.42,1.414c3.44,3.432,7.48,5.179,12.11,5.179v-2Zm-10.69-4.593c-3.08-3.082-4.6-6.632-4.6-10.693h-2c0,4.626,1.75,8.675,5.18,12.107l1.42-1.414Zm-4.6-10.693v-21.714h-2v21.714h2Zm0-21.714c0-4.06,1.52-7.611,4.6-10.693l-1.42-1.414c-3.43,3.432-5.18,7.482-5.18,12.107h2Zm4.6-10.693c3.08-3.082,6.63-4.593,10.69-4.593v-2c-4.63,0-8.67,1.747-12.11,5.179l1.42,1.414Zm10.69-4.593h21.71v-2h-21.71v2Zm21.71,0c4.06,0,7.62,1.511,10.7,4.593l1.41-1.414c-3.43-3.432-7.48-5.179-12.11-5.179v2Zm10.7,4.593c3.08,3.082,4.59,6.633,4.59,10.693h2c0-4.625-1.75-8.675-5.18-12.107l-1.41,1.414ZM3100.96,355v10.857h2v-10.857h-2Zm0,10.857c0,1.165-.42,2.182-1.34,3.093l1.42,1.414c1.26-1.26,1.92-2.777,1.92-4.507h-2Zm-1.34,3.093c-.91.911-1.92,1.336-3.09,1.336v2c1.73,0,3.25-.661,4.51-1.922l-1.42-1.414Zm-3.09,1.336h-38v2h38v-2Zm-39,1v5.428h2v-5.428h-2Zm0,5.428c0,1.73.66,3.247,1.92,4.507l1.42-1.414c-.91-.911-1.34-1.928-1.34-3.093h-2Zm1.92,4.507c1.26,1.261,2.78,1.922,4.51,1.922v-2c-1.16,0-2.18-.425-3.09-1.336l-1.42,1.414Zm4.51,1.922h21.71v-2h-21.71v2Zm21.71,0c1.17,0,2.19.425,3.1,1.336l1.41-1.415c-1.26-1.26-2.78-1.921-4.51-1.921v2Zm3.1,1.336c.91.91,1.33,1.927,1.33,3.092h2c0-1.73-.66-3.246-1.92-4.507l-1.41,1.415Zm1.33,3.092c0,1.165-.42,2.183-1.33,3.093l1.41,1.415c1.26-1.261,1.92-2.777,1.92-4.508h-2Zm-1.33,3.093c-.91.911-1.93,1.336-3.1,1.336v2c1.73,0,3.25-.661,4.51-1.921l-1.41-1.415Zm-3.1,1.336h-21.71v2h21.71v-2Zm-27.14-30.571h32.57v-2h-32.57v2Zm33.57-1v-5.429h-2v5.429h2Zm0-5.429c0-1.73-.66-3.246-1.92-4.507l-1.41,1.414c.91.911,1.33,1.928,1.33,3.093h2Zm-1.92-4.507c-1.26-1.261-2.78-1.922-4.51-1.922v2c1.17,0,2.19.425,3.1,1.336l1.41-1.414Zm-4.51-1.922h-21.71v2h21.71v-2Zm-21.71,0c-1.73,0-3.25.661-4.51,1.922l1.42,1.414c.91-.911,1.93-1.336,3.09-1.336v-2Zm-4.51,1.922c-1.26,1.261-1.92,2.777-1.92,4.507h2c0-1.165.43-2.182,1.34-3.093l-1.42-1.414ZM3057.53,355v5.429h2v-5.429h-2Zm60.16,22.257l-.71.707v0l.71-.707Zm0-33.657l.7.707v0l-.7-.707Zm47.77-3.257l.71-.707v0l-.71.707Zm-3.26,58.628l.71.708v0l-.71-.708Zm-36.91,3.258l.7-.708v0l-.7.708Zm0-7.6l.7.707v0l-.7-.707Zm30.94-12.486h1v-1h-1v1Zm0-10.857v1h1v-1h-1Zm0-21.715h1v-1h-1v1Zm-30.94,1.629l.7.707v0l-.7-.707Zm0,18.457l.7-.707v0l-.7.707Zm3.8,11.486c-4.06,0-7.61-1.511-10.7-4.593l-1.41,1.414c3.43,3.432,7.48,5.179,12.11,5.179v-2Zm-10.7-4.593c-3.08-3.082-4.59-6.633-4.59-10.693h-2c0,4.626,1.75,8.675,5.18,12.107l1.41-1.414Zm-4.59-10.693v-10.857h-2v10.857h2Zm0-10.857c0-4.06,1.51-7.611,4.59-10.693l-1.41-1.414c-3.43,3.432-5.18,7.482-5.18,12.107h2Zm4.59-10.693c3.09-3.082,6.64-4.593,10.7-4.593v-2c-4.63,0-8.68,1.747-12.11,5.179l1.41,1.414Zm10.7-4.593h32.57v-2h-32.57v2Zm32.57,0c1.16,0,2.18.425,3.09,1.336l1.42-1.414c-1.26-1.261-2.78-1.922-4.51-1.922v2Zm3.09,1.336c.91.911,1.34,1.928,1.34,3.093h2c0-1.73-.66-3.247-1.92-4.507l-1.42,1.414Zm1.34,3.093v43.428h2v-43.428h-2Zm0,43.428c0,4.061-1.51,7.611-4.6,10.693l1.42,1.415c3.43-3.433,5.18-7.482,5.18-12.108h-2Zm-4.6,10.693c-3.08,3.083-6.63,4.593-10.69,4.593v2c4.63,0,8.68-1.746,12.11-5.178l-1.42-1.415Zm-10.69,4.593h-21.71v2h21.71v-2Zm-21.71,0c-1.17,0-2.18-.425-3.1-1.336l-1.41,1.415c1.26,1.26,2.78,1.921,4.51,1.921v-2Zm-3.1-1.336c-.91-.91-1.33-1.927-1.33-3.092h-2c0,1.73.66,3.246,1.92,4.507l1.41-1.415Zm-1.33-3.092c0-1.165.42-2.183,1.33-3.093l-1.41-1.415c-1.26,1.261-1.92,2.777-1.92,4.508h2Zm1.33-3.093c.92-.911,1.93-1.336,3.1-1.336v-2c-1.73,0-3.25.661-4.51,1.921l1.41,1.415Zm3.1-1.336h21.71v-2h-21.71v2Zm21.71,0c1.73,0,3.25-.661,4.51-1.921l-1.42-1.415c-.91.911-1.92,1.336-3.09,1.336v2Zm4.51-1.921c1.26-1.261,1.92-2.777,1.92-4.508h-2c0,1.165-.42,2.183-1.34,3.093l1.42,1.415Zm1.92-4.508v-5.428h-2v5.428h2Zm-1-6.428h-27.14v2h27.14v-2Zm1-9.857v-21.715h-2v21.715h2Zm-1-22.715h-27.14v2h27.14v-2Zm-27.14,0c-1.73,0-3.25.661-4.51,1.922l1.41,1.414c.92-.911,1.93-1.336,3.1-1.336v-2Zm-4.51,1.922c-1.26,1.261-1.92,2.777-1.92,4.507h2c0-1.165.42-2.182,1.33-3.093l-1.41-1.414ZM3122.66,355v10.857h2v-10.857h-2Zm0,10.857c0,1.73.66,3.247,1.92,4.507l1.41-1.414c-.91-.911-1.33-1.928-1.33-3.093h-2Zm1.92,4.507c1.26,1.261,2.78,1.922,4.51,1.922v-2c-1.17,0-2.18-.425-3.1-1.336l-1.41,1.414Zm4.51,1.922h27.14v-2h-27.14v2Zm75.44,15.828l.71-.707-.81-.801-.69.894.79.614Zm-21.72,0l.71-.707v0l-.71.707Zm-3.25-47.771l.7.707v0l-.7-.707Zm7.6,0l-.71.707v0l.71-.707Zm3.25,40.171l.71-.707v0l-.71.707Zm10.86-29.314l-.71-.707v0l.71.707Zm7.6,0l.71-.707v0l-.71.707Zm21.72-10.857l.7-.707v0l-.7.707Zm-3.26,47.771l.71.707v0l-.71-.707ZM3215.93,392c-4.06,0-7.61-1.511-10.69-4.593l-1.42,1.414c3.43,3.432,7.48,5.179,12.11,5.179v-2Zm-12.19-4.5c-2.33,2.999-5.47,4.5-9.53,4.5v2c4.64,0,8.37-1.757,11.11-5.272l-1.58-1.228Zm-9.53,4.5c-4.06,0-7.61-1.511-10.69-4.593l-1.41,1.414c3.43,3.432,7.48,5.179,12.1,5.179v-2Zm-10.69-4.593c-3.08-3.082-4.59-6.632-4.59-10.693h-2c0,4.626,1.75,8.675,5.18,12.107l1.41-1.414Zm-4.59-10.693v-32.571h-2v32.571h2Zm0-32.571c0-1.165.42-2.182,1.33-3.093l-1.41-1.414c-1.26,1.26-1.92,2.777-1.92,4.507h2Zm1.33-3.093c.92-.911,1.93-1.336,3.1-1.336v-2c-1.73,0-3.25.661-4.51,1.922l1.41,1.414Zm3.1-1.336c1.16,0,2.18.425,3.09,1.336l1.41-1.414c-1.26-1.261-2.77-1.922-4.5-1.922v2Zm3.09,1.336c.91.911,1.34,1.928,1.34,3.093h2c0-1.73-.67-3.247-1.93-4.507l-1.41,1.414Zm1.34,3.093v32.571h2v-32.571h-2Zm0,32.571c0,1.73.66,3.247,1.92,4.507l1.41-1.414c-.91-.911-1.33-1.928-1.33-3.093h-2Zm1.92,4.507c1.26,1.261,2.77,1.922,4.5,1.922v-2c-1.16,0-2.18-.425-3.09-1.336l-1.41,1.414Zm4.5,1.922c1.73,0,3.25-.661,4.51-1.922l-1.41-1.414c-.91.911-1.93,1.336-3.1,1.336v2Zm4.51-1.922c1.26-1.26,1.92-2.777,1.92-4.507h-2c0,1.165-.42,2.182-1.33,3.093l1.41,1.414Zm1.92-4.507v-21.714h-2v21.714h2Zm0-21.714c0-1.165.43-2.182,1.34-3.093l-1.42-1.414c-1.26,1.261-1.92,2.777-1.92,4.507h2Zm1.34-3.093c.91-.911,1.93-1.336,3.09-1.336v-2c-1.73,0-3.25.661-4.51,1.922l1.42,1.414Zm3.09-1.336c1.17,0,2.18.425,3.09,1.336l1.42-1.414c-1.26-1.261-2.78-1.922-4.51-1.922v2Zm3.09,1.336c.92.911,1.34,1.928,1.34,3.093h2c0-1.73-.66-3.246-1.92-4.507l-1.42,1.414ZM3209.5,355v21.714h2v-21.714h-2Zm0,21.714c0,1.73.66,3.247,1.92,4.507l1.42-1.414c-.92-.911-1.34-1.928-1.34-3.093h-2Zm1.92,4.507c1.26,1.261,2.78,1.922,4.51,1.922v-2c-1.17,0-2.18-.425-3.09-1.336l-1.42,1.414Zm4.51,1.922c1.73,0,3.25-.661,4.51-1.922l-1.42-1.414c-.91.911-1.93,1.336-3.09,1.336v2Zm4.51-1.922c1.26-1.26,1.92-2.777,1.92-4.507h-2c0,1.165-.43,2.182-1.34,3.093l1.42,1.414Zm1.92-4.507v-32.571h-2v32.571h2Zm0-32.571c0-1.165.42-2.182,1.33-3.093l-1.41-1.414c-1.26,1.26-1.92,2.777-1.92,4.507h2Zm1.33-3.093c.91-.911,1.93-1.336,3.1-1.336v-2c-1.73,0-3.25.661-4.51,1.922l1.41,1.414Zm3.1-1.336c1.16,0,2.18.425,3.09,1.336l1.41-1.414c-1.26-1.261-2.77-1.922-4.5-1.922v2Zm3.09,1.336c.91.911,1.33,1.928,1.33,3.093h2c0-1.73-.66-3.247-1.92-4.507l-1.41,1.414Zm1.33,3.093v32.571h2v-32.571h-2Zm0,32.571c0,4.061-1.51,7.611-4.59,10.693l1.42,1.414c3.43-3.432,5.17-7.481,5.17-12.107h-2Zm-4.59,10.693c-3.08,3.082-6.63,4.593-10.69,4.593v2c4.62,0,8.67-1.747,12.11-5.179l-1.42-1.414Zm38.15-37.836h1v-1h-1v1Zm-9.23-1.628l.71-.707v0l-.71.707Zm0-7.6l.71.707v0l-.71-.707Zm18.46,0l.71-.707v0l-.71.707Zm1.63,41.8h-1v1h1v-1Zm9.23,1.628l.7-.707v0l-.7.707Zm-29.32,7.6l.71-.707v0l-.71.707Zm0-7.6l.71.708v0l-.71-.708Zm9.23-1.628v1h1v-1h-1Zm1.63-55.914l.71-.708v0l-.71.708Zm0-7.6l.71.707v0l-.71-.707Zm7.6,0l-.71.707v0l.71-.707Zm0,7.6l-.71-.708v0l.71.708Zm-9.23,22.342h-5.43v2h5.43v-2Zm-5.43,0c-1.16,0-2.18-.424-3.09-1.335l-1.42,1.414c1.26,1.261,2.78,1.921,4.51,1.921v-2Zm-3.09-1.335c-.91-.911-1.34-1.928-1.34-3.093h-2c0,1.73.66,3.246,1.92,4.507l1.42-1.414Zm-1.34-3.093c0-1.165.43-2.182,1.34-3.093l-1.42-1.414c-1.26,1.26-1.92,2.777-1.92,4.507h2Zm1.34-3.093c.91-.911,1.93-1.336,3.09-1.336v-2c-1.73,0-3.25.661-4.51,1.922l1.42,1.414Zm3.09-1.336h10.86v-2h-10.86v2Zm10.86,0c1.16,0,2.18.425,3.09,1.336l1.42-1.414c-1.27-1.261-2.78-1.922-4.51-1.922v2Zm3.09,1.336c.91.911,1.34,1.928,1.34,3.093h2c0-1.73-.66-3.247-1.92-4.507l-1.42,1.414Zm1.34,3.093v38h2v-38h-2Zm1,39h5.43v-2h-5.43v2Zm5.43,0c1.16,0,2.18.425,3.09,1.336l1.41-1.415c-1.26-1.26-2.77-1.921-4.5-1.921v2Zm3.09,1.336c.91.91,1.33,1.927,1.33,3.092h2c0-1.73-.66-3.246-1.92-4.507l-1.41,1.415Zm1.33,3.092c0,1.165-.42,2.183-1.33,3.093l1.41,1.415c1.26-1.261,1.92-2.777,1.92-4.508h-2Zm-1.33,3.093c-.91.911-1.93,1.336-3.09,1.336v2c1.73,0,3.24-.661,4.5-1.921l-1.41-1.415ZM3281.06,392h-21.72v2h21.72v-2Zm-21.72,0c-1.16,0-2.18-.425-3.09-1.336l-1.42,1.415c1.26,1.26,2.78,1.921,4.51,1.921v-2Zm-3.09-1.336c-.91-.91-1.34-1.928-1.34-3.093h-2c0,1.731.66,3.247,1.92,4.508l1.42-1.415Zm-1.34-3.093c0-1.165.43-2.182,1.34-3.092l-1.42-1.415c-1.26,1.261-1.92,2.777-1.92,4.507h2Zm1.34-3.092c.91-.911,1.93-1.336,3.09-1.336v-2c-1.73,0-3.25.661-4.51,1.921l1.42,1.415Zm3.09-1.336h5.43v-2h-5.43v2Zm6.43-1v-32.572h-2v32.572h2Zm4.43-55.286c-1.17,0-2.18-.425-3.09-1.336l-1.42,1.415c1.26,1.26,2.78,1.921,4.51,1.921v-2Zm-3.09-1.336c-.92-.91-1.34-1.927-1.34-3.092h-2c0,1.73.66,3.246,1.92,4.507l1.42-1.415Zm-1.34-3.092c0-1.165.42-2.183,1.34-3.093l-1.42-1.415c-1.26,1.261-1.92,2.777-1.92,4.508h2Zm1.34-3.093c.91-.911,1.92-1.336,3.09-1.336v-2c-1.73,0-3.25.661-4.51,1.921l1.42,1.415ZM3270.2,318c1.16,0,2.18.425,3.09,1.336l1.42-1.415c-1.27-1.26-2.78-1.921-4.51-1.921v2Zm3.09,1.336c.91.91,1.34,1.928,1.34,3.093h2c0-1.731-.66-3.247-1.92-4.508l-1.42,1.415Zm1.34,3.093c0,1.165-.43,2.182-1.34,3.092l1.42,1.415c1.26-1.261,1.92-2.777,1.92-4.507h-2Zm-1.34,3.092c-.91.911-1.93,1.336-3.09,1.336v2c1.73,0,3.24-.661,4.51-1.921l-1.42-1.415Zm47.38,22.422l.71-.707v0l-.71.707Zm0-7.6l.71.707v0l-.71-.707Zm9.23-1.629v1h1v-1h-1Zm1.63-20.085l.7.707v0l-.7-.707Zm7.6,0l-.71.707v0l.71-.707Zm1.62,20.085h-1v1h1v-1Zm20.09,1.629l.71-.707v0l-.71.707Zm0,7.6l.71.707v0l-.71-.707Zm-20.09,1.628v-1h-1v1h1Zm20.09,34.2l.71-.707v0l-.71.707Zm0,7.6l.71.708v0l-.71-.708Zm-26.06-3.257l-.7.707v0l.7-.707Zm-4.88-38.543h1v-1h-1v1Zm-5.43-1c-1.17,0-2.18-.424-3.09-1.335l-1.42,1.414c1.26,1.261,2.78,1.921,4.51,1.921v-2Zm-3.09-1.335c-.92-.911-1.34-1.928-1.34-3.093h-2c0,1.73.66,3.246,1.92,4.507l1.42-1.414Zm-1.34-3.093c0-1.165.42-2.182,1.34-3.093l-1.42-1.414c-1.26,1.26-1.92,2.777-1.92,4.507h2Zm1.34-3.093c.91-.911,1.92-1.336,3.09-1.336v-2c-1.73,0-3.25.661-4.51,1.922l1.42,1.414Zm3.09-1.336h5.43v-2h-5.43v2Zm6.43-1v-16.285h-2v16.285h2Zm0-16.285c0-1.165.42-2.183,1.33-3.093l-1.41-1.415c-1.26,1.261-1.92,2.777-1.92,4.508h2Zm1.33-3.093c.91-.911,1.93-1.336,3.1-1.336v-2c-1.73,0-3.25.661-4.51,1.921l1.41,1.415Zm3.1-1.336c1.16,0,2.18.425,3.09,1.336l1.41-1.415c-1.26-1.26-2.77-1.921-4.5-1.921v2Zm3.09,1.336c.91.91,1.33,1.928,1.33,3.093h2c0-1.731-.66-3.247-1.92-4.508l-1.41,1.415Zm1.33,3.093v16.285h2v-16.285h-2Zm1,17.285h16.29v-2h-16.29v2Zm16.29,0c1.16,0,2.18.425,3.09,1.336l1.42-1.414c-1.26-1.261-2.78-1.922-4.51-1.922v2Zm3.09,1.336c.91.911,1.34,1.928,1.34,3.093h2c0-1.73-.66-3.247-1.92-4.507l-1.42,1.414Zm1.34,3.093c0,1.165-.43,2.182-1.34,3.093l1.42,1.414c1.26-1.261,1.92-2.777,1.92-4.507h-2Zm-1.34,3.093c-.91.911-1.93,1.335-3.09,1.335v2c1.73,0,3.25-.66,4.51-1.921l-1.42-1.414Zm-3.09,1.335h-16.29v2h16.29v-2Zm-17.29,1v27.143h2v-27.143h-2Zm0,27.143c0,1.73.66,3.247,1.93,4.507l1.41-1.414c-.91-.911-1.34-1.928-1.34-3.093h-2Zm1.93,4.507c1.26,1.261,2.77,1.922,4.5,1.922v-2c-1.16,0-2.18-.425-3.09-1.336l-1.41,1.414Zm4.5,1.922h10.86v-2h-10.86v2Zm10.86,0c1.16,0,2.18.425,3.09,1.336l1.42-1.415c-1.26-1.26-2.78-1.921-4.51-1.921v2Zm3.09,1.336c.91.91,1.34,1.927,1.34,3.092h2c0-1.73-.66-3.246-1.92-4.507l-1.42,1.415Zm1.34,3.092c0,1.165-.43,2.183-1.34,3.093l1.42,1.415c1.26-1.261,1.92-2.777,1.92-4.508h-2Zm-1.34,3.093c-.91.911-1.93,1.336-3.09,1.336v2c1.73,0,3.25-.661,4.51-1.921l-1.42-1.415ZM3357.04,392h-10.86v2h10.86v-2Zm-10.86,0c-4.06,0-7.61-1.511-10.69-4.593l-1.41,1.414c3.43,3.432,7.48,5.179,12.1,5.179v-2Zm-10.69-4.593c-3.08-3.082-4.59-6.632-4.59-10.693h-2c0,4.626,1.74,8.675,5.18,12.107l1.41-1.414Zm-4.59-10.693v-27.143h-2v27.143h2Zm-1-28.143h-5.43v2h5.43v-2Z" fill="#f1760f"/><mask id="eVrvNtwK0EW15" mask-type="luminance" x="-150%" y="-150%" height="400%" width="400%"><rect width="383" height="89" rx="0" ry="0" transform="translate(2981 316)" fill="#fff"/><path d="M2998.83,360.429c-5.06,0-9.04-1.448-11.94-4.343-2.89-2.896-4.34-6.876-4.34-11.943v-10.857c0-4.343,1.45-8.143,4.34-11.4c2.9-3.257,6.88-4.886,11.94-4.886h21.72c4.34,0,8.14,1.629,11.4,4.886c3.25,3.257,4.88,7.057,4.88,11.4c0,1.447-.54,2.714-1.63,3.8-1.08,1.085-2.35,1.628-3.8,1.628-1.44,0-2.71-.543-3.8-1.628-1.08-1.086-1.62-2.353-1.62-3.8c0-1.448-.55-2.715-1.63-3.8-1.09-1.086-2.35-1.629-3.8-1.629h-21.72c-1.44,0-2.71.543-3.8,1.629-1.08,1.085-1.63,2.352-1.63,3.8v10.857c0,1.447.55,2.714,1.63,3.8c1.09,1.086,2.36,1.628,3.8,1.628h21.72c4.34,0,8.14,1.629,11.4,4.886c3.25,3.257,4.88,7.057,4.88,11.4v10.857c0,5.067-1.63,9.048-4.88,11.943-3.26,2.895-7.06,4.343-11.4,4.343h-21.72c-4.34,0-8.14-1.629-11.4-4.886-3.25-3.257-4.88-7.057-4.88-11.4c0-1.447.54-2.714,1.63-3.8c1.08-1.085,2.35-1.628,3.8-1.628c1.44,0,2.71.543,3.8,1.628c1.08,1.086,1.62,2.353,1.62,3.8c0,1.448.55,2.715,1.63,3.8c1.09,1.086,2.36,1.629,3.8,1.629h21.72c1.45,0,2.71-.543,3.8-1.629c1.08-1.085,1.63-2.352,1.63-3.8v-10.857c0-1.447-.55-2.714-1.63-3.8-1.09-1.086-2.35-1.628-3.8-1.628h-21.72ZM3063.96,393c-4.34,0-8.14-1.629-11.4-4.886s-4.89-7.057-4.89-11.4v-21.714c0-4.343,1.63-8.143,4.89-11.4s7.06-4.886,11.4-4.886h21.71c4.35,0,8.15,1.629,11.4,4.886c3.26,3.257,4.89,7.057,4.89,11.4v10.857c0,1.448-.54,2.714-1.63,3.8-1.08,1.086-2.35,1.629-3.8,1.629h-38v5.428c0,1.448.54,2.715,1.63,3.8c1.09,1.086,2.35,1.629,3.8,1.629h21.71c1.45,0,2.72.543,3.8,1.628c1.09,1.086,1.63,2.353,1.63,3.8c0,1.448-.54,2.715-1.63,3.8-1.08,1.086-2.35,1.629-3.8,1.629h-21.71Zm-5.43-32.571h32.57v-5.429c0-1.448-.54-2.714-1.63-3.8-1.08-1.086-2.35-1.629-3.8-1.629h-21.71c-1.45,0-2.71.543-3.8,1.629s-1.63,2.352-1.63,3.8v5.429Zm70.56,21.714c-4.35,0-8.15-1.629-11.4-4.886-3.26-3.257-4.89-7.057-4.89-11.4v-10.857c0-4.343,1.63-8.143,4.89-11.4c3.25-3.257,7.05-4.886,11.4-4.886h32.57c1.45,0,2.71.543,3.8,1.629c1.08,1.086,1.63,2.352,1.63,3.8v43.428c0,4.343-1.63,8.143-4.89,11.4-3.26,3.258-7.06,4.886-11.4,4.886h-21.71c-1.45,0-2.72-.543-3.8-1.628-1.09-1.086-1.63-2.353-1.63-3.8c0-1.448.54-2.715,1.63-3.8c1.08-1.086,2.35-1.629,3.8-1.629h21.71c1.45,0,2.72-.543,3.8-1.629c1.09-1.085,1.63-2.352,1.63-3.8v-5.428h-27.14Zm27.14-10.857v-21.715h-27.14c-1.45,0-2.72.543-3.8,1.629-1.09,1.086-1.63,2.352-1.63,3.8v10.857c0,1.448.54,2.714,1.63,3.8c1.08,1.086,2.35,1.629,3.8,1.629h27.14ZM3215.93,393c-4.34,0-8.14-1.629-11.4-4.886-2.53,3.257-5.97,4.886-10.32,4.886-4.34,0-8.14-1.629-11.4-4.886-3.25-3.257-4.88-7.057-4.88-11.4v-32.571c0-1.448.54-2.714,1.63-3.8c1.08-1.086,2.35-1.629,3.8-1.629c1.44,0,2.71.543,3.8,1.629c1.08,1.086,1.63,2.352,1.63,3.8v32.571c0,1.448.54,2.715,1.62,3.8c1.09,1.086,2.36,1.629,3.8,1.629c1.45,0,2.72-.543,3.8-1.629c1.09-1.085,1.63-2.352,1.63-3.8v-21.714c0-1.448.55-2.714,1.63-3.8c1.09-1.086,2.35-1.629,3.8-1.629s2.72.543,3.8,1.629c1.09,1.086,1.63,2.352,1.63,3.8v21.714c0,1.448.54,2.715,1.63,3.8c1.08,1.086,2.35,1.629,3.8,1.629s2.71-.543,3.8-1.629c1.08-1.085,1.63-2.352,1.63-3.8v-32.571c0-1.448.54-2.714,1.63-3.8c1.08-1.086,2.35-1.629,3.8-1.629c1.44,0,2.71.543,3.8,1.629c1.08,1.086,1.62,2.352,1.62,3.8v32.571c0,4.343-1.62,8.143-4.88,11.4s-7.06,4.886-11.4,4.886Zm48.84-43.429h-5.43c-1.45,0-2.71-.542-3.8-1.628-1.08-1.086-1.63-2.353-1.63-3.8c0-1.448.55-2.714,1.63-3.8c1.09-1.086,2.35-1.629,3.8-1.629h10.86c1.45,0,2.71.543,3.8,1.629c1.08,1.086,1.63,2.352,1.63,3.8v38h5.43c1.44,0,2.71.543,3.8,1.628c1.08,1.086,1.62,2.353,1.62,3.8c0,1.448-.54,2.715-1.62,3.8-1.09,1.086-2.36,1.629-3.8,1.629h-21.72c-1.45,0-2.71-.543-3.8-1.629-1.08-1.085-1.63-2.352-1.63-3.8c0-1.447.55-2.714,1.63-3.8c1.09-1.085,2.35-1.628,3.8-1.628h5.43v-32.572Zm5.43-21.714c-1.45,0-2.72-.543-3.8-1.628-1.09-1.086-1.63-2.353-1.63-3.8c0-1.448.54-2.715,1.63-3.8c1.08-1.086,2.35-1.629,3.8-1.629s2.71.543,3.8,1.629c1.08,1.085,1.63,2.352,1.63,3.8c0,1.447-.55,2.714-1.63,3.8-1.09,1.085-2.35,1.628-3.8,1.628Zm54.27,21.714c-1.45,0-2.72-.542-3.8-1.628-1.09-1.086-1.63-2.353-1.63-3.8c0-1.448.54-2.714,1.63-3.8c1.08-1.086,2.35-1.629,3.8-1.629h5.43v-16.285c0-1.448.54-2.715,1.63-3.8c1.08-1.086,2.35-1.629,3.8-1.629c1.44,0,2.71.543,3.8,1.629c1.08,1.085,1.62,2.352,1.62,3.8v16.285h16.29c1.45,0,2.71.543,3.8,1.629s1.63,2.352,1.63,3.8c0,1.447-.54,2.714-1.63,3.8s-2.35,1.628-3.8,1.628h-16.29v27.143c0,1.448.55,2.715,1.63,3.8c1.09,1.086,2.35,1.629,3.8,1.629h10.86c1.45,0,2.71.543,3.8,1.628c1.09,1.086,1.63,2.353,1.63,3.8c0,1.448-.54,2.715-1.63,3.8-1.09,1.086-2.35,1.629-3.8,1.629h-10.86c-4.34,0-8.14-1.629-11.4-4.886-3.25-3.257-4.88-7.057-4.88-11.4v-27.143h-5.43Z"/></mask></g><g id="eVrvNtwK0EW18_to" transform="translate(2761,351)"><g transform="translate(-2761,-351)"><path d="M2679.88,350c-.76,0-1.43-.286-2-.857-.57-.572-.85-1.238-.85-2v-34.286c0-.762.28-1.428.85-2c.57-.571,1.24-.857,2-.857h17.15c2.28,0,4.28.857,6,2.571c1.71,1.715,2.57,3.715,2.57,6v5.715c0,2.285-.86,4.285-2.57,6c1.71,1.333,2.57,3.143,2.57,5.428v5.715c0,2.285-.86,4.285-2.57,6-1.72,1.714-3.72,2.571-6,2.571h-17.15Zm2.86-22.857h14.29c.76,0,1.42-.286,2-.857.57-.572.85-1.238.85-2v-5.715c0-.761-.28-1.428-.85-2-.58-.571-1.24-.857-2-.857h-14.29v11.429Zm0,17.143h14.29c.76,0,1.42-.286,2-.857.57-.572.85-1.239.85-2v-5.715c0-.762-.28-1.428-.85-2-.58-.571-1.24-.857-2-.857h-14.29v11.429ZM2719.87,350c-2.28,0-4.28-.857-6-2.571-1.71-1.715-2.57-3.715-2.57-6v-11.429c0-2.286.86-4.286,2.57-6c1.72-1.714,3.72-2.571,6-2.571h11.43c2.29,0,4.29.857,6,2.571c1.72,1.714,2.57,3.714,2.57,6v5.714c0,.762-.28,1.429-.85,2-.57.572-1.24.857-2,.857h-20v2.858c0,.761.28,1.428.85,2c.58.571,1.24.857,2,.857h11.43c.76,0,1.43.285,2,.857.57.571.86,1.238.86,2s-.29,1.428-.86,2c-.57.571-1.24.857-2,.857h-11.43Zm-2.85-17.143h17.14v-2.857c0-.762-.29-1.429-.86-2s-1.24-.857-2-.857h-11.43c-.76,0-1.42.286-2,.857-.57.571-.85,1.238-.85,2v2.857Zm48.56-5.714h-2.86v20c0,.762-.28,1.428-.85,2-.58.571-1.24.857-2,.857-.77,0-1.43-.286-2-.857-.58-.572-.86-1.238-.86-2v-20h-2.86c-.76,0-1.43-.286-2-.857-.57-.572-.86-1.238-.86-2s.29-1.429.86-2c.57-.572,1.24-.857,2-.857h2.86v-2.858c0-2.285.86-4.285,2.57-6c1.71-1.714,3.71-2.571,6-2.571h5.71c.77,0,1.43.286,2,.857.58.572.86,1.238.86,2s-.28,1.429-.86,2c-.57.572-1.23.857-2,.857h-5.71c-.76,0-1.43.286-2,.857-.57.572-.86,1.239-.86,2v2.858h2.86c.76,0,1.43.285,2,.857.57.571.86,1.238.86,2s-.29,1.428-.86,2c-.57.571-1.24.857-2,.857ZM2788.43,350c-2.29,0-4.29-.857-6-2.571-1.72-1.715-2.57-3.715-2.57-6v-11.429c0-2.286.85-4.286,2.57-6c1.71-1.714,3.71-2.571,6-2.571h11.43c2.28,0,4.28.857,6,2.571c1.71,1.714,2.57,3.714,2.57,6v11.429c0,2.285-.86,4.285-2.57,6-1.72,1.714-3.72,2.571-6,2.571h-11.43Zm14.28-20c0-.762-.28-1.429-.85-2s-1.24-.857-2-.857h-11.43c-.76,0-1.43.286-2,.857s-.86,1.238-.86,2v11.429c0,.761.29,1.428.86,2c.57.571,1.24.857,2,.857h11.43c.76,0,1.43-.286,2-.857.57-.572.85-1.239.85-2v-11.429Zm22.85-2.857v20c0,.762-.28,1.428-.85,2-.58.571-1.24.857-2,.857-.77,0-1.43-.286-2-.857-.58-.572-.86-1.238-.86-2v-22.857c0-.762.28-1.429.86-2c.57-.572,1.23-.857,2-.857h11.42c2.29,0,4.29.857,6,2.571c1.72,1.714,2.58,3.714,2.58,6c0,.762-.29,1.429-.86,2s-1.24.857-2,.857-1.43-.286-2-.857-.86-1.238-.86-2-.28-1.429-.86-2c-.57-.571-1.23-.857-2-.857h-8.57ZM2856.98,350c-2.28,0-4.28-.857-6-2.571-1.71-1.715-2.57-3.715-2.57-6v-11.429c0-2.286.86-4.286,2.57-6c1.72-1.714,3.72-2.571,6-2.571h11.43c2.29,0,4.29.857,6,2.571c1.72,1.714,2.57,3.714,2.57,6v5.714c0,.762-.28,1.429-.85,2-.58.572-1.24.857-2,.857h-20v2.858c0,.761.28,1.428.85,2c.57.571,1.24.857,2,.857h11.43c.76,0,1.43.285,2,.857.57.571.86,1.238.86,2s-.29,1.428-.86,2c-.57.571-1.24.857-2,.857h-11.43Zm-2.85-17.143h17.14v-2.857c0-.762-.29-1.429-.86-2s-1.24-.857-2-.857h-11.43c-.76,0-1.43.286-2,.857s-.85,1.238-.85,2v2.857Z" fill="#e77429"/><path d="M2901,369.753h-280m0,0L2653.69,347M2621,369.753L2653.69,392" fill="none" stroke="#f1760d" stroke-width="4"/></g></g><path d="M1213.4,1121.14h38c1.45,0,2.72.55,3.8,1.63c1.09,1.09,1.63,2.35,1.63,3.8s-.54,2.72-1.63,3.8c-1.08,1.09-2.35,1.63-3.8,1.63h-43.42c-1.45,0-2.72-.54-3.8-1.63-1.09-1.08-1.63-2.35-1.63-3.8v-65.14c0-1.45.54-2.72,1.63-3.8c1.08-1.09,2.35-1.63,3.8-1.63c1.44,0,2.71.54,3.8,1.63c1.08,1.08,1.62,2.35,1.62,3.8v59.71Zm92.27-21.71h-27.14v21.71h38c1.45,0,2.72.55,3.8,1.63c1.09,1.09,1.63,2.35,1.63,3.8s-.54,2.72-1.63,3.8c-1.08,1.09-2.35,1.63-3.8,1.63h-43.43c-1.44,0-2.71-.54-3.8-1.63-1.08-1.08-1.63-2.35-1.63-3.8v-65.14c0-1.45.55-2.72,1.63-3.8c1.09-1.09,2.36-1.63,3.8-1.63h43.43c1.45,0,2.72.54,3.8,1.63c1.09,1.08,1.63,2.35,1.63,3.8s-.54,2.71-1.63,3.8c-1.08,1.08-2.35,1.63-3.8,1.63h-38v21.71h27.14c1.45,0,2.72.54,3.8,1.63c1.09,1.09,1.63,2.35,1.63,3.8s-.54,2.71-1.63,3.8c-1.08,1.09-2.35,1.63-3.8,1.63Zm43.42,32.57c-4.35,0-8.15-1.63-11.4-4.89-3.26-3.25-4.89-7.05-4.89-11.4v-43.42c0-4.35,1.63-8.15,4.89-11.4c3.25-3.26,7.05-4.89,11.4-4.89h21.71c4.34,0,8.14,1.63,11.4,4.89c3.26,3.25,4.89,7.05,4.89,11.4c0,1.44-.55,2.71-1.63,3.8-1.09,1.08-2.35,1.62-3.8,1.62s-2.72-.54-3.8-1.62c-1.09-1.09-1.63-2.36-1.63-3.8c0-1.45-.54-2.72-1.63-3.8-1.08-1.09-2.35-1.63-3.8-1.63h-21.71c-1.45,0-2.72.54-3.8,1.63-1.09,1.08-1.63,2.35-1.63,3.8v43.42c0,1.45.54,2.72,1.63,3.8c1.08,1.09,2.35,1.63,3.8,1.63h21.71c1.45,0,2.72-.54,3.8-1.63c1.09-1.08,1.63-2.35,1.63-3.8v-16.28h-5.43c-1.45,0-2.71-.54-3.8-1.63-1.08-1.09-1.63-2.35-1.63-3.8s.55-2.71,1.63-3.8c1.09-1.09,2.35-1.63,3.8-1.63h10.86c1.45,0,2.71.54,3.8,1.63c1.08,1.09,1.63,2.35,1.63,3.8v21.71c0,4.35-1.63,8.15-4.89,11.4-3.26,3.26-7.06,4.89-11.4,4.89h-21.71Zm54.27,0c-1.45,0-2.72-.54-3.8-1.63-1.09-1.08-1.63-2.35-1.63-3.8v-54.28c0-4.35,1.63-8.15,4.88-11.4c3.26-3.26,7.06-4.89,11.4-4.89h21.72c4.34,0,8.14,1.63,11.4,4.89c3.26,3.25,4.88,7.05,4.88,11.4v54.28c0,1.45-.54,2.72-1.62,3.8-1.09,1.09-2.36,1.63-3.8,1.63-1.45,0-2.72-.54-3.8-1.63-1.09-1.08-1.63-2.35-1.63-3.8v-27.14h-32.57v27.14c0,1.45-.55,2.72-1.63,3.8-1.09,1.09-2.36,1.63-3.8,1.63Zm5.43-43.43h32.57v-16.28c0-1.45-.55-2.72-1.63-3.8-1.09-1.09-2.35-1.63-3.8-1.63h-21.72c-1.44,0-2.71.54-3.8,1.63-1.08,1.08-1.62,2.35-1.62,3.8v16.28Zm70.55,43.43c-4.34,0-8.14-1.63-11.4-4.89-3.26-3.25-4.88-7.05-4.88-11.4v-43.42c0-4.35,1.62-8.15,4.88-11.4c3.26-3.26,7.06-4.89,11.4-4.89h21.72c4.34,0,8.14,1.63,11.4,4.89c3.25,3.25,4.88,7.05,4.88,11.4c0,1.44-.54,2.71-1.63,3.8-1.08,1.08-2.35,1.62-3.8,1.62-1.44,0-2.71-.54-3.8-1.62-1.08-1.09-1.63-2.36-1.63-3.8c0-1.45-.54-2.72-1.62-3.8-1.09-1.09-2.36-1.63-3.8-1.63h-21.72c-1.45,0-2.71.54-3.8,1.63-1.08,1.08-1.63,2.35-1.63,3.8v43.42c0,1.45.55,2.72,1.63,3.8c1.09,1.09,2.35,1.63,3.8,1.63h21.72c1.44,0,2.71-.54,3.8-1.63c1.08-1.08,1.62-2.35,1.62-3.8c0-1.44.55-2.71,1.63-3.8c1.09-1.08,2.36-1.62,3.8-1.62c1.45,0,2.72.54,3.8,1.62c1.09,1.09,1.63,2.36,1.63,3.8c0,4.35-1.63,8.15-4.88,11.4-3.26,3.26-7.06,4.89-11.4,4.89h-21.72Zm70.56-35.83l-20.09-20.08c-1.08-1.09-1.63-2.36-1.63-3.8v-10.86c0-1.45.55-2.72,1.63-3.8c1.09-1.09,2.35-1.63,3.8-1.63s2.72.54,3.8,1.63c1.09,1.08,1.63,2.35,1.63,3.8v8.68l16.29,16.29l16.28-16.29v-8.68c0-1.45.54-2.72,1.63-3.8c1.09-1.09,2.35-1.63,3.8-1.63s2.71.54,3.8,1.63c1.09,1.08,1.63,2.35,1.63,3.8v10.86c0,1.44-.54,2.71-1.63,3.8l-20.09,19.86v30.62c0,1.45-.54,2.72-1.62,3.8-1.09,1.09-2.36,1.63-3.8,1.63-1.45,0-2.72-.54-3.8-1.63-1.09-1.08-1.63-2.35-1.63-3.8v-30.4Z" fill="#333"/><g mask="url(#eVrvNtwK0EW24)"><path d="M1213.4,1121.14h-1.4v1.4h1.4v-1.4Zm41.8,1.63l.99-.99v0l-.99.99Zm0,7.6l.99.99v0l-.99-.99Zm-51.02,0l.99-.99v0l-.99.99Zm0-72.74l.99.99v0l-.99-.99Zm7.6,0l-.99.99v0l.99-.99Zm1.62,64.91h38v-2.8h-38v2.8Zm38,0c1.06,0,1.97.38,2.81,1.22l1.98-1.98c-1.33-1.33-2.94-2.04-4.79-2.04v2.8Zm2.81,1.22c.85.84,1.22,1.76,1.22,2.81h2.8c0-1.84-.7-3.46-2.04-4.79l-1.98,1.98Zm1.22,2.81c0,1.05-.37,1.97-1.22,2.81l1.98,1.98c1.34-1.33,2.04-2.95,2.04-4.79h-2.8Zm-1.22,2.81c-.84.84-1.75,1.22-2.81,1.22v2.8c1.85,0,3.46-.71,4.79-2.04l-1.98-1.98Zm-2.81,1.22h-43.42v2.8h43.42v-2.8Zm-43.42,0c-1.06,0-1.97-.38-2.81-1.22l-1.98,1.98c1.33,1.33,2.94,2.04,4.79,2.04v-2.8Zm-2.81-1.22c-.84-.84-1.22-1.76-1.22-2.81h-2.8c0,1.84.71,3.46,2.04,4.79l1.98-1.98Zm-1.22-2.81v-65.14h-2.8v65.14h2.8Zm0-65.14c0-1.05.38-1.97,1.22-2.81l-1.98-1.98c-1.33,1.33-2.04,2.95-2.04,4.79h2.8Zm1.22-2.81c.84-.84,1.75-1.22,2.81-1.22v-2.8c-1.85,0-3.46.71-4.79,2.04l1.98,1.98Zm2.81-1.22c1.05,0,1.97.38,2.81,1.22l1.98-1.98c-1.33-1.33-2.95-2.04-4.79-2.04v2.8Zm2.81,1.22c.84.84,1.21,1.76,1.21,2.81h2.8c0-1.84-.7-3.46-2.03-4.79l-1.98,1.98Zm1.21,2.81v59.71h2.8v-59.71h-2.8Zm66.53,38v-1.4h-1.4v1.4h1.4Zm0,21.71h-1.4v1.4h1.4v-1.4Zm41.8,1.63l.99-.99v0l-.99.99Zm0,7.6l.99.99v0l-.99-.99Zm-51.03,0l.99-.99v0l-.99.99Zm0-72.74l.99.99v0l-.99-.99Zm51.03,0l-.99.99v0l.99-.99Zm0,7.6l-.99-.99v0l.99.99Zm-41.8,1.63v-1.4h-1.4v1.4h1.4Zm0,21.71h-1.4v1.4h1.4v-1.4Zm30.94,9.23l.99.99v0l-.99-.99Zm-3.8.23h-27.14v2.8h27.14v-2.8Zm-28.54,1.4v21.71h2.8v-21.71h-2.8Zm1.4,23.11h38v-2.8h-38v2.8Zm38,0c1.05,0,1.97.38,2.81,1.22l1.98-1.98c-1.33-1.33-2.94-2.04-4.79-2.04v2.8Zm2.81,1.22c.84.84,1.22,1.76,1.22,2.81h2.8c0-1.84-.71-3.46-2.04-4.79l-1.98,1.98Zm1.22,2.81c0,1.05-.38,1.97-1.22,2.81l1.98,1.98c1.33-1.33,2.04-2.95,2.04-4.79h-2.8Zm-1.22,2.81c-.84.84-1.76,1.22-2.81,1.22v2.8c1.85,0,3.46-.71,4.79-2.04l-1.98-1.98Zm-2.81,1.22h-43.43v2.8h43.43v-2.8Zm-43.43,0c-1.05,0-1.97-.38-2.81-1.22l-1.98,1.98c1.33,1.33,2.95,2.04,4.79,2.04v-2.8Zm-2.81-1.22c-.84-.84-1.22-1.76-1.22-2.81h-2.8c0,1.84.71,3.46,2.04,4.79l1.98-1.98Zm-1.22-2.81v-65.14h-2.8v65.14h2.8Zm0-65.14c0-1.05.38-1.97,1.22-2.81l-1.98-1.98c-1.33,1.33-2.04,2.95-2.04,4.79h2.8Zm1.22-2.81c.84-.84,1.76-1.22,2.81-1.22v-2.8c-1.84,0-3.46.71-4.79,2.04l1.98,1.98Zm2.81-1.22h43.43v-2.8h-43.43v2.8Zm43.43,0c1.05,0,1.97.38,2.81,1.22l1.98-1.98c-1.33-1.33-2.94-2.04-4.79-2.04v2.8Zm2.81,1.22c.84.84,1.22,1.76,1.22,2.81h2.8c0-1.84-.71-3.46-2.04-4.79l-1.98,1.98Zm1.22,2.81c0,1.05-.38,1.97-1.22,2.81l1.98,1.98c1.33-1.33,2.04-2.95,2.04-4.79h-2.8Zm-1.22,2.81c-.84.84-1.76,1.22-2.81,1.22v2.8c1.85,0,3.46-.71,4.79-2.04l-1.98-1.98Zm-2.81,1.22h-38v2.8h38v-2.8Zm-39.4,1.4v21.71h2.8v-21.71h-2.8Zm1.4,23.11h27.14v-2.8h-27.14v2.8Zm27.14,0c1.06,0,1.97.38,2.81,1.22l1.98-1.98c-1.33-1.33-2.94-2.04-4.79-2.04v2.8Zm2.81,1.22c.85.84,1.22,1.76,1.22,2.81h2.8c0-1.84-.7-3.46-2.04-4.79l-1.98,1.98Zm1.22,2.81c0,1.05-.37,1.97-1.22,2.81l1.98,1.98c1.34-1.33,2.04-2.95,2.04-4.79h-2.8Zm-1.22,2.81c-.84.84-1.75,1.22-2.81,1.22v2.8c1.85,0,3.46-.71,4.79-2.04l-1.98-1.98Zm29.21,30.3l.99-.99v0l-.99.99Zm0-66.22l.99.99v0l-.99-.99Zm44.51,0l.99-.99v0l-.99.99Zm3.26,15.2l.99.99-.99-.99Zm-7.6,0l.99-.99v0l-.99.99Zm-3.26-7.6l.99-.99v0l-.99.99Zm-29.31,0l-.99-.99v0l.99.99Zm0,51.02l.99-.99v0l-.99.99Zm30.94-20.08h1.4v-1.4h-1.4v1.4Zm-9.23-1.63l-.99.99v0l.99-.99Zm18.46-7.6l.99-.99v0l-.99.99Zm-3.26,36.91l.99.99v0l-.99-.99Zm-33.11,3.49c-3.95,0-7.4-1.46-10.41-4.48l-1.98,1.98c3.5,3.51,7.65,5.3,12.39,5.3v-2.8Zm-10.41-4.48c-3.01-3.01-4.48-6.46-4.48-10.41h-2.8c0,4.74,1.8,8.89,5.3,12.39l1.98-1.98Zm-4.48-10.41v-43.42h-2.8v43.42h2.8Zm0-43.42c0-3.95,1.47-7.4,4.48-10.41l-1.98-1.98c-3.5,3.5-5.3,7.65-5.3,12.39h2.8Zm4.48-10.41c3.01-3.02,6.46-4.48,10.41-4.48v-2.8c-4.74,0-8.89,1.79-12.39,5.3l1.98,1.98Zm10.41-4.48h21.71v-2.8h-21.71v2.8Zm21.71,0c3.95,0,7.4,1.46,10.41,4.48l1.98-1.98c-3.5-3.51-7.65-5.3-12.39-5.3v2.8Zm10.41,4.48c3.01,3.01,4.48,6.46,4.48,10.41h2.8c0-4.74-1.8-8.89-5.3-12.39l-1.98,1.98Zm4.48,10.41c0,1.05-.38,1.96-1.22,2.81l1.98,1.98c1.33-1.33,2.04-2.95,2.04-4.79h-2.8Zm-1.22,2.81c-.84.84-1.76,1.21-2.81,1.21v2.8c1.84,0,3.46-.7,4.79-2.03l-1.98-1.98Zm-2.81,1.21c-1.05,0-1.97-.37-2.81-1.21l-1.98,1.98c1.33,1.33,2.95,2.03,4.79,2.03v-2.8Zm-2.81-1.21c-.84-.85-1.22-1.76-1.22-2.81h-2.8c0,1.84.71,3.46,2.04,4.79l1.98-1.98Zm-1.22-2.81c0-1.85-.71-3.46-2.04-4.79l-1.98,1.98c.84.84,1.22,1.75,1.22,2.81h2.8Zm-2.04-4.79c-1.33-1.33-2.95-2.04-4.79-2.04v2.8c1.05,0,1.97.37,2.81,1.22l1.98-1.98Zm-4.79-2.04h-21.71v2.8h21.71v-2.8Zm-21.71,0c-1.85,0-3.46.71-4.79,2.04l1.98,1.98c.84-.85,1.76-1.22,2.81-1.22v-2.8Zm-4.79,2.04c-1.33,1.33-2.04,2.94-2.04,4.79h2.8c0-1.06.38-1.97,1.22-2.81l-1.98-1.98Zm-2.04,4.79v43.42h2.8v-43.42h-2.8Zm0,43.42c0,1.85.71,3.46,2.04,4.79l1.98-1.98c-.84-.84-1.22-1.75-1.22-2.81h-2.8Zm2.04,4.79c1.33,1.33,2.94,2.04,4.79,2.04v-2.8c-1.05,0-1.97-.37-2.81-1.22l-1.98,1.98Zm4.79,2.04h21.71v-2.8h-21.71v2.8Zm21.71,0c1.84,0,3.46-.71,4.79-2.04l-1.98-1.98c-.84.85-1.76,1.22-2.81,1.22v2.8Zm4.79-2.04c1.33-1.33,2.04-2.94,2.04-4.79h-2.8c0,1.06-.38,1.97-1.22,2.81l1.98,1.98Zm2.04-4.79v-16.28h-2.8v16.28h2.8Zm-1.4-17.68h-5.43v2.8h5.43v-2.8Zm-5.43,0c-1.05,0-1.97-.38-2.81-1.22l-1.98,1.98c1.33,1.33,2.95,2.04,4.79,2.04v-2.8Zm-2.81-1.22c-.84-.84-1.22-1.76-1.22-2.81h-2.8c0,1.84.71,3.46,2.04,4.79l1.98-1.98Zm-1.22-2.81c0-1.05.38-1.97,1.22-2.81l-1.98-1.98c-1.33,1.33-2.04,2.95-2.04,4.79h2.8Zm1.22-2.81c.84-.84,1.76-1.22,2.81-1.22v-2.8c-1.84,0-3.46.71-4.79,2.04l1.98,1.98Zm2.81-1.22h10.86v-2.8h-10.86v2.8Zm10.86,0c1.05,0,1.97.38,2.81,1.22l1.98-1.98c-1.33-1.33-2.95-2.04-4.79-2.04v2.8Zm2.81,1.22c.84.84,1.22,1.76,1.22,2.81h2.8c0-1.84-.71-3.46-2.04-4.79l-1.98,1.98Zm1.22,2.81v21.71h2.8v-21.71h-2.8Zm0,21.71c0,3.95-1.47,7.4-4.48,10.41l1.98,1.98c3.5-3.5,5.3-7.65,5.3-12.39h-2.8Zm-4.48,10.41c-3.01,3.02-6.46,4.48-10.41,4.48v2.8c4.74,0,8.89-1.79,12.39-5.3l-1.98-1.98Zm-10.41,4.48h-21.71v2.8h21.71v-2.8Zm28.76-.23l.99-.99v0l-.99.99Zm3.25-69.48l.99.99v0l-.99-.99Zm44.52,0l.99-.99v0l-.99.99Zm3.26,69.48l.99.99v0l-.99-.99Zm-9.23-30.94h1.4v-1.4h-1.4v1.4Zm-32.57,0v-1.4h-1.4v1.4h1.4Zm-1.63,30.94l-.99-.99v0l.99.99Zm1.63-41.8h-1.4v1.4h1.4v-1.4Zm32.57,0v1.4h1.4v-1.4h-1.4Zm-1.63-20.08l.99-.99v0l-.99.99Zm-29.32,0l-.99-.99v0l.99.99Zm-7.05,62.11c-1.05,0-1.97-.38-2.81-1.22l-1.98,1.98c1.33,1.33,2.94,2.04,4.79,2.04v-2.8Zm-2.81-1.22c-.84-.84-1.22-1.76-1.22-2.81h-2.8c0,1.84.71,3.46,2.04,4.79l1.98-1.98Zm-1.22-2.81v-54.28h-2.8v54.28h2.8Zm0-54.28c0-3.95,1.46-7.4,4.47-10.41l-1.98-1.98c-3.5,3.5-5.29,7.65-5.29,12.39h2.8Zm4.47-10.41c3.02-3.02,6.47-4.48,10.41-4.48v-2.8c-4.73,0-8.88,1.79-12.39,5.3l1.98,1.98Zm10.41-4.48h21.72v-2.8h-21.72v2.8Zm21.72,0c3.95,0,7.4,1.46,10.41,4.48l1.98-1.98c-3.5-3.51-7.65-5.3-12.39-5.3v2.8Zm10.41,4.48c3.01,3.01,4.47,6.46,4.47,10.41h2.8c0-4.74-1.79-8.89-5.29-12.39l-1.98,1.98Zm4.47,10.41v54.28h2.8v-54.28h-2.8Zm0,54.28c0,1.05-.37,1.97-1.21,2.81l1.98,1.98c1.33-1.33,2.03-2.95,2.03-4.79h-2.8Zm-1.21,2.81c-.85.84-1.76,1.22-2.81,1.22v2.8c1.84,0,3.46-.71,4.79-2.04l-1.98-1.98Zm-2.81,1.22c-1.06,0-1.97-.38-2.81-1.22l-1.98,1.98c1.33,1.33,2.94,2.04,4.79,2.04v-2.8Zm-2.81-1.22c-.85-.84-1.22-1.76-1.22-2.81h-2.8c0,1.84.71,3.46,2.04,4.79l1.98-1.98Zm-1.22-2.81v-27.14h-2.8v27.14h2.8Zm-1.4-28.54h-32.57v2.8h32.57v-2.8Zm-33.97,1.4v27.14h2.8v-27.14h-2.8Zm0,27.14c0,1.05-.38,1.97-1.22,2.81l1.98,1.98c1.33-1.33,2.04-2.95,2.04-4.79h-2.8Zm-1.22,2.81c-.84.84-1.76,1.22-2.81,1.22v2.8c1.84,0,3.46-.71,4.79-2.04l-1.98-1.98Zm2.62-39.41h32.57v-2.8h-32.57v2.8Zm33.97-1.4v-16.28h-2.8v16.28h2.8Zm0-16.28c0-1.85-.71-3.46-2.04-4.79l-1.98,1.98c.84.84,1.22,1.75,1.22,2.81h2.8Zm-2.04-4.79c-1.33-1.33-2.95-2.04-4.79-2.04v2.8c1.05,0,1.97.37,2.81,1.22l1.98-1.98Zm-4.79-2.04h-21.72v2.8h21.72v-2.8Zm-21.72,0c-1.84,0-3.46.71-4.79,2.04l1.98,1.98c.85-.85,1.76-1.22,2.81-1.22v-2.8Zm-4.79,2.04c-1.33,1.33-2.03,2.94-2.03,4.79h2.8c0-1.06.37-1.97,1.21-2.81l-1.98-1.98Zm-2.03,4.79v16.28h2.8v-16.28h-2.8Zm60.55,54.82l.99-.99v0l-.99.99Zm0-66.22l.99.99v0l-.99-.99Zm44.52,0l.99-.99v0l-.99.99Zm3.25,15.2l.99.99-.99-.99Zm-7.6,0l.99-.99v0l-.99.99Zm-3.25-7.6l.99-.99v0l-.99.99Zm-29.32,0l-.99-.99v0l.99.99Zm0,51.02l.99-.99v0l-.99.99Zm40.17-7.6l.99-.99v0l-.99.99Zm-3.25,15.2l.99.99v0l-.99-.99Zm-33.12,3.49c-3.95,0-7.4-1.46-10.41-4.48l-1.98,1.98c3.5,3.51,7.65,5.3,12.39,5.3v-2.8Zm-10.41-4.48c-3.01-3.01-4.47-6.46-4.47-10.41h-2.8c0,4.74,1.79,8.89,5.29,12.39l1.98-1.98Zm-4.47-10.41v-43.42h-2.8v43.42h2.8Zm0-43.42c0-3.95,1.46-7.4,4.47-10.41l-1.98-1.98c-3.5,3.5-5.29,7.65-5.29,12.39h2.8Zm4.47-10.41c3.01-3.02,6.46-4.48,10.41-4.48v-2.8c-4.74,0-8.89,1.79-12.39,5.3l1.98,1.98Zm10.41-4.48h21.72v-2.8h-21.72v2.8Zm21.72,0c3.94,0,7.39,1.46,10.41,4.48l1.98-1.98c-3.51-3.51-7.66-5.3-12.39-5.3v2.8Zm10.41,4.48c3.01,3.01,4.47,6.46,4.47,10.41h2.8c0-4.74-1.79-8.89-5.29-12.39l-1.98,1.98Zm4.47,10.41c0,1.05-.38,1.96-1.22,2.81l1.98,1.98c1.33-1.33,2.04-2.95,2.04-4.79h-2.8Zm-1.22,2.81c-.84.84-1.76,1.21-2.81,1.21v2.8c1.85,0,3.46-.7,4.79-2.03l-1.98-1.98Zm-2.81,1.21c-1.05,0-1.97-.37-2.81-1.21l-1.98,1.98c1.33,1.33,2.95,2.03,4.79,2.03v-2.8Zm-2.81-1.21c-.84-.85-1.22-1.76-1.22-2.81h-2.8c0,1.84.71,3.46,2.04,4.79l1.98-1.98Zm-1.22-2.81c0-1.85-.7-3.46-2.03-4.79l-1.98,1.98c.84.84,1.21,1.75,1.21,2.81h2.8Zm-2.03-4.79c-1.34-1.33-2.95-2.04-4.79-2.04v2.8c1.05,0,1.96.37,2.81,1.22l1.98-1.98Zm-4.79-2.04h-21.72v2.8h21.72v-2.8Zm-21.72,0c-1.84,0-3.46.71-4.79,2.04l1.98,1.98c.84-.85,1.76-1.22,2.81-1.22v-2.8Zm-4.79,2.04c-1.33,1.33-2.04,2.94-2.04,4.79h2.8c0-1.06.38-1.97,1.22-2.81l-1.98-1.98Zm-2.04,4.79v43.42h2.8v-43.42h-2.8Zm0,43.42c0,1.85.71,3.46,2.04,4.79l1.98-1.98c-.84-.84-1.22-1.75-1.22-2.81h-2.8Zm2.04,4.79c1.33,1.33,2.95,2.04,4.79,2.04v-2.8c-1.05,0-1.97-.37-2.81-1.22l-1.98,1.98Zm4.79,2.04h21.72v-2.8h-21.72v2.8Zm21.72,0c1.84,0,3.45-.71,4.79-2.04l-1.98-1.98c-.85.85-1.76,1.22-2.81,1.22v2.8Zm4.79-2.04c1.33-1.33,2.03-2.94,2.03-4.79h-2.8c0,1.06-.37,1.97-1.21,2.81l1.98,1.98Zm2.03-4.79c0-1.05.38-1.96,1.22-2.81l-1.98-1.98c-1.33,1.33-2.04,2.95-2.04,4.79h2.8Zm1.22-2.81c.84-.84,1.76-1.21,2.81-1.21v-2.8c-1.84,0-3.46.7-4.79,2.03l1.98,1.98Zm2.81-1.21c1.05,0,1.97.37,2.81,1.21l1.98-1.98c-1.33-1.33-2.94-2.03-4.79-2.03v2.8Zm2.81,1.21c.84.85,1.22,1.76,1.22,2.81h2.8c0-1.84-.71-3.46-2.04-4.79l-1.98,1.98Zm1.22,2.81c0,3.95-1.46,7.4-4.47,10.41l1.98,1.98c3.5-3.5,5.29-7.65,5.29-12.39h-2.8Zm-4.47,10.41c-3.02,3.02-6.47,4.48-10.41,4.48v2.8c4.73,0,8.88-1.79,12.39-5.3l-1.98-1.98Zm-10.41,4.48h-21.72v2.8h21.72v-2.8Zm48.84-34.43h1.4v-.58l-.41-.41-.99.99Zm-20.09-20.08l.99-.99v0l-.99.99Zm0-18.46l.99.99v0l-.99-.99Zm7.6,0l-.99.99v0l.99-.99Zm1.63,12.48h-1.4v.58l.41.41.99-.99Zm16.29,16.29l-.99.99.99.99.99-.99-.99-.99Zm16.28-16.29l.99.99.41-.41v-.58h-1.4Zm1.63-12.48l.99.99v0l-.99-.99Zm7.6,0l-.99.99v0l.99-.99Zm0,18.46l.98.99h.01l-.99-.99Zm-20.09,19.86l-.98-.99-.42.41v.58h1.4Zm-1.62,34.42l.99.99v0l-.99-.99Zm-7.6,0l-.99.99v0l.99-.99Zm-.64-35.19l-20.09-20.08-1.98,1.98l20.09,20.08l1.98-1.98Zm-20.09-20.08c-.84-.85-1.22-1.76-1.22-2.81h-2.8c0,1.84.71,3.46,2.04,4.79l1.98-1.98Zm-1.22-2.81v-10.86h-2.8v10.86h2.8Zm0-10.86c0-1.05.38-1.97,1.22-2.81l-1.98-1.98c-1.33,1.33-2.04,2.95-2.04,4.79h2.8Zm1.22-2.81c.84-.84,1.76-1.22,2.81-1.22v-2.8c-1.84,0-3.46.71-4.79,2.04l1.98,1.98Zm2.81-1.22c1.05,0,1.97.38,2.81,1.22l1.98-1.98c-1.33-1.33-2.95-2.04-4.79-2.04v2.8Zm2.81,1.22c.84.84,1.22,1.76,1.22,2.81h2.8c0-1.84-.71-3.46-2.04-4.79l-1.98,1.98Zm1.22,2.81v8.68h2.8v-8.68h-2.8Zm.41,9.67l16.29,16.29l1.98-1.98-16.29-16.29-1.98,1.98Zm18.27,16.29l16.28-16.29-1.98-1.98-16.28,16.29l1.98,1.98Zm16.69-17.28v-8.68h-2.8v8.68h2.8Zm0-8.68c0-1.05.38-1.97,1.22-2.81l-1.98-1.98c-1.33,1.33-2.04,2.95-2.04,4.79h2.8Zm1.22-2.81c.84-.84,1.76-1.22,2.81-1.22v-2.8c-1.84,0-3.46.71-4.79,2.04l1.98,1.98Zm2.81-1.22c1.05,0,1.97.38,2.81,1.22l1.98-1.98c-1.33-1.33-2.95-2.04-4.79-2.04v2.8Zm2.81,1.22c.84.84,1.22,1.76,1.22,2.81h2.8c0-1.84-.71-3.46-2.04-4.79l-1.98,1.98Zm1.22,2.81v10.86h2.8v-10.86h-2.8Zm0,10.86c0,1.05-.38,1.96-1.22,2.81l1.98,1.98c1.33-1.33,2.04-2.95,2.04-4.79h-2.8Zm-1.21,2.8l-20.09,19.87l1.97,1.99l20.08-19.87-1.96-1.99Zm-20.51,20.86v30.62h2.8v-30.62h-2.8Zm0,30.62c0,1.05-.37,1.97-1.21,2.81l1.98,1.98c1.33-1.33,2.03-2.95,2.03-4.79h-2.8Zm-1.21,2.81c-.85.84-1.76,1.22-2.81,1.22v2.8c1.84,0,3.45-.71,4.79-2.04l-1.98-1.98Zm-2.81,1.22c-1.06,0-1.97-.38-2.81-1.22l-1.98,1.98c1.33,1.33,2.94,2.04,4.79,2.04v-2.8Zm-2.81-1.22c-.85-.84-1.22-1.76-1.22-2.81h-2.8c0,1.84.7,3.46,2.04,4.79l1.98-1.98Zm-1.22-2.81v-30.4h-2.8v30.4h2.8Z" fill="#333"/><mask id="eVrvNtwK0EW24" mask-type="luminance" x="-150%" y="-150%" height="400%" width="400%"><rect width="383" height="80" rx="0" ry="0" transform="translate(1201 1054)" fill="#fff"/><path d="M1213.4,1121.14h38c1.45,0,2.72.55,3.8,1.63c1.09,1.09,1.63,2.35,1.63,3.8s-.54,2.72-1.63,3.8c-1.08,1.09-2.35,1.63-3.8,1.63h-43.42c-1.45,0-2.72-.54-3.8-1.63-1.09-1.08-1.63-2.35-1.63-3.8v-65.14c0-1.45.54-2.72,1.63-3.8c1.08-1.09,2.35-1.63,3.8-1.63c1.44,0,2.71.54,3.8,1.63c1.08,1.08,1.62,2.35,1.62,3.8v59.71Zm92.27-21.71h-27.14v21.71h38c1.45,0,2.72.55,3.8,1.63c1.09,1.09,1.63,2.35,1.63,3.8s-.54,2.72-1.63,3.8c-1.08,1.09-2.35,1.63-3.8,1.63h-43.43c-1.44,0-2.71-.54-3.8-1.63-1.08-1.08-1.63-2.35-1.63-3.8v-65.14c0-1.45.55-2.72,1.63-3.8c1.09-1.09,2.36-1.63,3.8-1.63h43.43c1.45,0,2.72.54,3.8,1.63c1.09,1.08,1.63,2.35,1.63,3.8s-.54,2.71-1.63,3.8c-1.08,1.08-2.35,1.63-3.8,1.63h-38v21.71h27.14c1.45,0,2.72.54,3.8,1.63c1.09,1.09,1.63,2.35,1.63,3.8s-.54,2.71-1.63,3.8c-1.08,1.09-2.35,1.63-3.8,1.63Zm43.42,32.57c-4.35,0-8.15-1.63-11.4-4.89-3.26-3.25-4.89-7.05-4.89-11.4v-43.42c0-4.35,1.63-8.15,4.89-11.4c3.25-3.26,7.05-4.89,11.4-4.89h21.71c4.34,0,8.14,1.63,11.4,4.89c3.26,3.25,4.89,7.05,4.89,11.4c0,1.44-.55,2.71-1.63,3.8-1.09,1.08-2.35,1.62-3.8,1.62s-2.72-.54-3.8-1.62c-1.09-1.09-1.63-2.36-1.63-3.8c0-1.45-.54-2.72-1.63-3.8-1.08-1.09-2.35-1.63-3.8-1.63h-21.71c-1.45,0-2.72.54-3.8,1.63-1.09,1.08-1.63,2.35-1.63,3.8v43.42c0,1.45.54,2.72,1.63,3.8c1.08,1.09,2.35,1.63,3.8,1.63h21.71c1.45,0,2.72-.54,3.8-1.63c1.09-1.08,1.63-2.35,1.63-3.8v-16.28h-5.43c-1.45,0-2.71-.54-3.8-1.63-1.08-1.09-1.63-2.35-1.63-3.8s.55-2.71,1.63-3.8c1.09-1.09,2.35-1.63,3.8-1.63h10.86c1.45,0,2.71.54,3.8,1.63c1.08,1.09,1.63,2.35,1.63,3.8v21.71c0,4.35-1.63,8.15-4.89,11.4-3.26,3.26-7.06,4.89-11.4,4.89h-21.71Zm54.27,0c-1.45,0-2.72-.54-3.8-1.63-1.09-1.08-1.63-2.35-1.63-3.8v-54.28c0-4.35,1.63-8.15,4.88-11.4c3.26-3.26,7.06-4.89,11.4-4.89h21.72c4.34,0,8.14,1.63,11.4,4.89c3.26,3.25,4.88,7.05,4.88,11.4v54.28c0,1.45-.54,2.72-1.62,3.8-1.09,1.09-2.36,1.63-3.8,1.63-1.45,0-2.72-.54-3.8-1.63-1.09-1.08-1.63-2.35-1.63-3.8v-27.14h-32.57v27.14c0,1.45-.55,2.72-1.63,3.8-1.09,1.09-2.36,1.63-3.8,1.63Zm5.43-43.43h32.57v-16.28c0-1.45-.55-2.72-1.63-3.8-1.09-1.09-2.35-1.63-3.8-1.63h-21.72c-1.44,0-2.71.54-3.8,1.63-1.08,1.08-1.62,2.35-1.62,3.8v16.28Zm70.55,43.43c-4.34,0-8.14-1.63-11.4-4.89-3.26-3.25-4.88-7.05-4.88-11.4v-43.42c0-4.35,1.62-8.15,4.88-11.4c3.26-3.26,7.06-4.89,11.4-4.89h21.72c4.34,0,8.14,1.63,11.4,4.89c3.25,3.25,4.88,7.05,4.88,11.4c0,1.44-.54,2.71-1.63,3.8-1.08,1.08-2.35,1.62-3.8,1.62-1.44,0-2.71-.54-3.8-1.62-1.08-1.09-1.63-2.36-1.63-3.8c0-1.45-.54-2.72-1.62-3.8-1.09-1.09-2.36-1.63-3.8-1.63h-21.72c-1.45,0-2.71.54-3.8,1.63-1.08,1.08-1.63,2.35-1.63,3.8v43.42c0,1.45.55,2.72,1.63,3.8c1.09,1.09,2.35,1.63,3.8,1.63h21.72c1.44,0,2.71-.54,3.8-1.63c1.08-1.08,1.62-2.35,1.62-3.8c0-1.44.55-2.71,1.63-3.8c1.09-1.08,2.36-1.62,3.8-1.62c1.45,0,2.72.54,3.8,1.62c1.09,1.09,1.63,2.36,1.63,3.8c0,4.35-1.63,8.15-4.88,11.4-3.26,3.26-7.06,4.89-11.4,4.89h-21.72Zm70.56-35.83l-20.09-20.08c-1.08-1.09-1.63-2.36-1.63-3.8v-10.86c0-1.45.55-2.72,1.63-3.8c1.09-1.09,2.35-1.63,3.8-1.63s2.72.54,3.8,1.63c1.09,1.08,1.63,2.35,1.63,3.8v8.68l16.29,16.29l16.28-16.29v-8.68c0-1.45.54-2.72,1.63-3.8c1.09-1.09,2.35-1.63,3.8-1.63s2.71.54,3.8,1.63c1.09,1.08,1.63,2.35,1.63,3.8v10.86c0,1.44-.54,2.71-1.63,3.8l-20.09,19.86v30.62c0,1.45-.54,2.72-1.62,3.8-1.09,1.09-2.36,1.63-3.8,1.63-1.45,0-2.72-.54-3.8-1.63-1.09-1.08-1.63-2.35-1.63-3.8v-30.4Z"/></mask></g><path d="M4255.83,1099.43c-5.06,0-9.04-1.45-11.94-4.34-2.89-2.9-4.34-6.88-4.34-11.95v-10.85c0-4.35,1.45-8.15,4.34-11.4c2.9-3.26,6.88-4.89,11.94-4.89h21.72c4.34,0,8.14,1.63,11.4,4.89c3.25,3.25,4.88,7.05,4.88,11.4c0,1.44-.54,2.71-1.63,3.8-1.08,1.08-2.35,1.62-3.8,1.62-1.44,0-2.71-.54-3.8-1.62-1.08-1.09-1.62-2.36-1.62-3.8c0-1.45-.55-2.72-1.63-3.8-1.09-1.09-2.35-1.63-3.8-1.63h-21.72c-1.44,0-2.71.54-3.8,1.63-1.08,1.08-1.63,2.35-1.63,3.8v10.85c0,1.45.55,2.72,1.63,3.8c1.09,1.09,2.36,1.63,3.8,1.63h21.72c4.34,0,8.14,1.63,11.4,4.89c3.25,3.25,4.88,7.05,4.88,11.4v10.85c0,5.07-1.63,9.05-4.88,11.95-3.26,2.89-7.06,4.34-11.4,4.34h-21.72c-4.34,0-8.14-1.63-11.4-4.89-3.25-3.25-4.88-7.05-4.88-11.4c0-1.44.54-2.71,1.63-3.8c1.08-1.08,2.35-1.62,3.8-1.62c1.44,0,2.71.54,3.8,1.62c1.08,1.09,1.62,2.36,1.62,3.8c0,1.45.55,2.72,1.63,3.8c1.09,1.09,2.36,1.63,3.8,1.63h21.72c1.45,0,2.71-.54,3.8-1.63c1.08-1.08,1.63-2.35,1.63-3.8v-10.85c0-1.45-.55-2.72-1.63-3.8-1.09-1.09-2.35-1.63-3.8-1.63h-21.72Zm86.84,0h-27.14v21.71h38c1.45,0,2.72.55,3.8,1.63c1.09,1.09,1.63,2.35,1.63,3.8s-.54,2.72-1.63,3.8c-1.08,1.09-2.35,1.63-3.8,1.63h-43.43c-1.44,0-2.71-.54-3.8-1.63-1.08-1.08-1.63-2.35-1.63-3.8v-65.14c0-1.45.55-2.72,1.63-3.8c1.09-1.09,2.36-1.63,3.8-1.63h43.43c1.45,0,2.72.54,3.8,1.63c1.09,1.08,1.63,2.35,1.63,3.8s-.54,2.71-1.63,3.8c-1.08,1.08-2.35,1.63-3.8,1.63h-38v21.71h27.14c1.45,0,2.72.54,3.8,1.63c1.09,1.09,1.63,2.35,1.63,3.8s-.54,2.71-1.63,3.8c-1.08,1.09-2.35,1.63-3.8,1.63Zm43.42,32.57c-4.35,0-8.15-1.63-11.4-4.89-3.26-3.25-4.89-7.05-4.89-11.4v-43.42c0-4.35,1.63-8.15,4.89-11.4c3.25-3.26,7.05-4.89,11.4-4.89h21.71c4.34,0,8.14,1.63,11.4,4.89c3.26,3.25,4.89,7.05,4.89,11.4c0,1.44-.55,2.71-1.63,3.8-1.09,1.08-2.35,1.62-3.8,1.62s-2.72-.54-3.8-1.62c-1.09-1.09-1.63-2.36-1.63-3.8c0-1.45-.54-2.72-1.63-3.8-1.08-1.09-2.35-1.63-3.8-1.63h-21.71c-1.45,0-2.72.54-3.8,1.63-1.09,1.08-1.63,2.35-1.63,3.8v43.42c0,1.45.54,2.72,1.63,3.8c1.08,1.09,2.35,1.63,3.8,1.63h21.71c1.45,0,2.72-.54,3.8-1.63c1.09-1.08,1.63-2.35,1.63-3.8v-16.28h-5.43c-1.45,0-2.71-.54-3.8-1.63-1.08-1.09-1.63-2.35-1.63-3.8s.55-2.71,1.63-3.8c1.09-1.09,2.35-1.63,3.8-1.63h10.86c1.45,0,2.71.54,3.8,1.63c1.08,1.09,1.63,2.35,1.63,3.8v21.71c0,4.35-1.63,8.15-4.89,11.4-3.26,3.26-7.06,4.89-11.4,4.89h-21.71Zm86.84,0c-4.34,0-8.14-1.63-11.4-4.89-2.53,3.26-5.97,4.89-10.32,4.89-4.34,0-8.14-1.63-11.4-4.89-3.25-3.25-4.88-7.05-4.88-11.4v-54.28c0-1.45.54-2.72,1.63-3.8c1.08-1.09,2.35-1.63,3.8-1.63c1.44,0,2.71.54,3.8,1.63c1.08,1.08,1.63,2.35,1.63,3.8v54.28c0,1.45.54,2.72,1.62,3.8c1.09,1.09,2.36,1.63,3.8,1.63c1.45,0,2.72-.54,3.8-1.63c1.09-1.08,1.63-2.35,1.63-3.8v-21.71c0-1.45.55-2.71,1.63-3.8c1.09-1.09,2.35-1.63,3.8-1.63s2.72.54,3.8,1.63c1.09,1.09,1.63,2.35,1.63,3.8v21.71c0,1.45.54,2.72,1.63,3.8c1.08,1.09,2.35,1.63,3.8,1.63s2.71-.54,3.8-1.63c1.08-1.08,1.63-2.35,1.63-3.8v-54.28c0-1.45.54-2.72,1.63-3.8c1.08-1.09,2.35-1.63,3.8-1.63c1.44,0,2.71.54,3.8,1.63c1.08,1.08,1.62,2.35,1.62,3.8v54.28c0,4.35-1.62,8.15-4.88,11.4-3.26,3.26-7.06,4.89-11.4,4.89Zm43.41,0c-1.45,0-2.71-.54-3.8-1.63-1.08-1.08-1.63-2.35-1.63-3.8s.55-2.71,1.63-3.8c1.09-1.08,2.35-1.63,3.8-1.63h5.43v-54.28h-5.43c-1.45,0-2.71-.55-3.8-1.63-1.08-1.09-1.63-2.35-1.63-3.8s.55-2.72,1.63-3.8c1.09-1.09,2.35-1.63,3.8-1.63h21.72c1.44,0,2.71.54,3.8,1.63c1.08,1.08,1.62,2.35,1.62,3.8s-.54,2.71-1.62,3.8c-1.09,1.08-2.36,1.63-3.8,1.63h-5.43v54.28h5.43c1.44,0,2.71.55,3.8,1.63c1.08,1.09,1.62,2.35,1.62,3.8s-.54,2.72-1.62,3.8c-1.09,1.09-2.36,1.63-3.8,1.63h-21.72Zm54.27-65.14c-1.45,0-2.71-.55-3.8-1.63-1.08-1.09-1.63-2.35-1.63-3.8s.55-2.72,1.63-3.8c1.09-1.09,2.35-1.63,3.8-1.63h43.43c1.45,0,2.71.54,3.8,1.63c1.09,1.08,1.63,2.35,1.63,3.8s-.54,2.71-1.63,3.8c-1.09,1.08-2.35,1.63-3.8,1.63h-16.29v59.71c0,1.45-.54,2.72-1.62,3.8-1.09,1.09-2.36,1.63-3.8,1.63-1.45,0-2.72-.54-3.8-1.63-1.09-1.08-1.63-2.35-1.63-3.8v-59.71h-16.29Z" fill="#333"/><g mask="url(#eVrvNtwK0EW30)"><path d="M4243.89,1095.09l.99-.99v0l-.99.99Zm0-34.2l1.05.93v0l-1.05-.93Zm45.06,0l.99-.99v0l-.99.99Zm3.25,15.2l.99.99-.99-.99Zm-7.6,0l.99-.99v0l-.99.99Zm-3.25-7.6l.99-.99v0l-.99.99Zm-29.32,0l-.99-.99v0l.99.99Zm0,18.45l.99-.99v0l-.99.99Zm36.92,6.52l.99-.99v0l-.99.99Zm0,34.2l.93,1.04v0l-.93-1.04Zm-44.52-.55l.99-.99v0l-.99.99Zm-3.25-15.2l.99.99v0l-.99-.99Zm7.6,0l-.99.99v0l.99-.99Zm3.25,7.6l.99-.99v0l-.99.99Zm3.8-21.48c-4.79,0-8.38-1.36-10.95-3.93l-1.98,1.98c3.22,3.21,7.59,4.75,12.93,4.75v-2.8Zm-10.95-3.93c-2.57-2.58-3.93-6.17-3.93-10.96h-2.8c0,5.35,1.53,9.72,4.75,12.94l1.98-1.98Zm-3.93-10.96v-10.85h-2.8v10.85h2.8Zm0-10.85c0-4,1.32-7.47,3.99-10.47l-2.1-1.86c-3.12,3.51-4.69,7.64-4.69,12.33h2.8Zm3.99-10.47c2.58-2.91,6.15-4.42,10.89-4.42v-2.8c-5.39,0-9.78,1.75-12.99,5.36l2.1,1.86Zm10.89-4.42h21.72v-2.8h-21.72v2.8Zm21.72,0c3.94,0,7.4,1.46,10.41,4.48l1.98-1.98c-3.5-3.51-7.65-5.3-12.39-5.3v2.8Zm10.41,4.48c3.01,3.01,4.47,6.46,4.47,10.41h2.8c0-4.74-1.79-8.89-5.29-12.39l-1.98,1.98Zm4.47,10.41c0,1.05-.37,1.96-1.22,2.81l1.98,1.98c1.34-1.33,2.04-2.95,2.04-4.79h-2.8Zm-1.22,2.81c-.84.84-1.75,1.21-2.81,1.21v2.8c1.85,0,3.46-.7,4.79-2.03l-1.98-1.98Zm-2.81,1.21c-1.05,0-1.96-.37-2.81-1.21l-1.98,1.98c1.34,1.33,2.95,2.03,4.79,2.03v-2.8Zm-2.81-1.21c-.84-.85-1.21-1.76-1.21-2.81h-2.8c0,1.84.7,3.46,2.03,4.79l1.98-1.98Zm-1.21-2.81c0-1.85-.71-3.46-2.04-4.79l-1.98,1.98c.84.84,1.22,1.75,1.22,2.81h2.8Zm-2.04-4.79c-1.33-1.33-2.95-2.04-4.79-2.04v2.8c1.05,0,1.97.37,2.81,1.22l1.98-1.98Zm-4.79-2.04h-21.72v2.8h21.72v-2.8Zm-21.72,0c-1.84,0-3.46.71-4.79,2.04l1.98,1.98c.84-.85,1.76-1.22,2.81-1.22v-2.8Zm-4.79,2.04c-1.33,1.33-2.04,2.94-2.04,4.79h2.8c0-1.06.38-1.97,1.22-2.81l-1.98-1.98Zm-2.04,4.79v10.85h2.8v-10.85h-2.8Zm0,10.85c0,1.85.71,3.46,2.04,4.79l1.98-1.98c-.84-.84-1.22-1.76-1.22-2.81h-2.8Zm2.04,4.79c1.33,1.33,2.95,2.04,4.79,2.04v-2.8c-1.05,0-1.97-.38-2.81-1.22l-1.98,1.98Zm4.79,2.04h21.72v-2.8h-21.72v2.8Zm21.72,0c3.94,0,7.4,1.46,10.41,4.48l1.98-1.98c-3.5-3.5-7.65-5.3-12.39-5.3v2.8Zm10.41,4.48c3.01,3.01,4.47,6.46,4.47,10.41h2.8c0-4.74-1.79-8.89-5.29-12.39l-1.98,1.98Zm4.47,10.41v10.85h2.8v-10.85h-2.8Zm0,10.85c0,4.74-1.5,8.32-4.41,10.9l1.86,2.09c3.6-3.2,5.35-7.59,5.35-12.99h-2.8Zm-4.41,10.9c-3,2.67-6.47,3.99-10.47,3.99v2.8c4.68,0,8.82-1.57,12.33-4.7l-1.86-2.09Zm-10.47,3.99h-21.72v2.8h21.72v-2.8Zm-21.72,0c-3.94,0-7.39-1.46-10.41-4.48l-1.98,1.98c3.51,3.51,7.65,5.3,12.39,5.3v-2.8Zm-10.41-4.48c-3.01-3.01-4.47-6.46-4.47-10.41h-2.8c0,4.74,1.79,8.89,5.29,12.39l1.98-1.98Zm-4.47-10.41c0-1.05.38-1.96,1.22-2.81l-1.98-1.98c-1.33,1.33-2.04,2.95-2.04,4.79h2.8Zm1.22-2.81c.84-.84,1.75-1.21,2.81-1.21v-2.8c-1.85,0-3.46.7-4.79,2.03l1.98,1.98Zm2.81-1.21c1.05,0,1.97.37,2.81,1.21l1.98-1.98c-1.33-1.33-2.95-2.03-4.79-2.03v2.8Zm2.81,1.21c.84.85,1.21,1.76,1.21,2.81h2.8c0-1.84-.7-3.46-2.03-4.79l-1.98,1.98Zm1.21,2.81c0,1.85.71,3.46,2.04,4.79l1.98-1.98c-.84-.84-1.22-1.75-1.22-2.81h-2.8Zm2.04,4.79c1.33,1.33,2.95,2.04,4.79,2.04v-2.8c-1.05,0-1.97-.37-2.81-1.22l-1.98,1.98Zm4.79,2.04h21.72v-2.8h-21.72v2.8Zm21.72,0c1.84,0,3.46-.71,4.79-2.04l-1.98-1.98c-.84.85-1.76,1.22-2.81,1.22v2.8Zm4.79-2.04c1.33-1.33,2.04-2.94,2.04-4.79h-2.8c0,1.06-.38,1.97-1.22,2.81l1.98,1.98Zm2.04-4.79v-10.85h-2.8v10.85h2.8Zm0-10.85c0-1.85-.71-3.46-2.04-4.79l-1.98,1.98c.84.84,1.22,1.76,1.22,2.81h2.8Zm-2.04-4.79c-1.33-1.33-2.95-2.04-4.79-2.04v2.8c1.05,0,1.97.38,2.81,1.22l1.98-1.98Zm-4.79-2.04h-21.72v2.8h21.72v-2.8Zm37.98,1.4v-1.4h-1.4v1.4h1.4Zm0,21.71h-1.4v1.4h1.4v-1.4Zm41.8,1.63l.99-.99v0l-.99.99Zm0,7.6l.99.99v0l-.99-.99Zm-51.03,0l.99-.99v0l-.99.99Zm0-72.74l.99.99v0l-.99-.99Zm51.03,0l-.99.99v0l.99-.99Zm0,7.6l-.99-.99v0l.99.99Zm-41.8,1.63v-1.4h-1.4v1.4h1.4Zm0,21.71h-1.4v1.4h1.4v-1.4Zm30.94,9.23l.99.99v0l-.99-.99Zm-3.8.23h-27.14v2.8h27.14v-2.8Zm-28.54,1.4v21.71h2.8v-21.71h-2.8Zm1.4,23.11h38v-2.8h-38v2.8Zm38,0c1.05,0,1.97.38,2.81,1.22l1.98-1.98c-1.33-1.33-2.94-2.04-4.79-2.04v2.8Zm2.81,1.22c.84.84,1.22,1.76,1.22,2.81h2.8c0-1.84-.71-3.46-2.04-4.79l-1.98,1.98Zm1.22,2.81c0,1.05-.38,1.97-1.22,2.81l1.98,1.98c1.33-1.33,2.04-2.95,2.04-4.79h-2.8Zm-1.22,2.81c-.84.84-1.76,1.22-2.81,1.22v2.8c1.85,0,3.46-.71,4.79-2.04l-1.98-1.98Zm-2.81,1.22h-43.43v2.8h43.43v-2.8Zm-43.43,0c-1.05,0-1.97-.38-2.81-1.22l-1.98,1.98c1.33,1.33,2.95,2.04,4.79,2.04v-2.8Zm-2.81-1.22c-.84-.84-1.22-1.76-1.22-2.81h-2.8c0,1.84.71,3.46,2.04,4.79l1.98-1.98Zm-1.22-2.81v-65.14h-2.8v65.14h2.8Zm0-65.14c0-1.05.38-1.97,1.22-2.81l-1.98-1.98c-1.33,1.33-2.04,2.95-2.04,4.79h2.8Zm1.22-2.81c.84-.84,1.76-1.22,2.81-1.22v-2.8c-1.84,0-3.46.71-4.79,2.04l1.98,1.98Zm2.81-1.22h43.43v-2.8h-43.43v2.8Zm43.43,0c1.05,0,1.97.38,2.81,1.22l1.98-1.98c-1.33-1.33-2.94-2.04-4.79-2.04v2.8Zm2.81,1.22c.84.84,1.22,1.76,1.22,2.81h2.8c0-1.84-.71-3.46-2.04-4.79l-1.98,1.98Zm1.22,2.81c0,1.05-.38,1.97-1.22,2.81l1.98,1.98c1.33-1.33,2.04-2.95,2.04-4.79h-2.8Zm-1.22,2.81c-.84.84-1.76,1.22-2.81,1.22v2.8c1.85,0,3.46-.71,4.79-2.04l-1.98-1.98Zm-2.81,1.22h-38v2.8h38v-2.8Zm-39.4,1.4v21.71h2.8v-21.71h-2.8Zm1.4,23.11h27.14v-2.8h-27.14v2.8Zm27.14,0c1.06,0,1.97.38,2.81,1.22l1.98-1.98c-1.33-1.33-2.94-2.04-4.79-2.04v2.8Zm2.81,1.22c.85.84,1.22,1.76,1.22,2.81h2.8c0-1.84-.7-3.46-2.04-4.79l-1.98,1.98Zm1.22,2.81c0,1.05-.37,1.97-1.22,2.81l1.98,1.98c1.34-1.33,2.04-2.95,2.04-4.79h-2.8Zm-1.22,2.81c-.84.84-1.75,1.22-2.81,1.22v2.8c1.85,0,3.46-.71,4.79-2.04l-1.98-1.98Zm29.21,30.3l.99-.99v0l-.99.99Zm0-66.22l.99.99v0l-.99-.99Zm44.51,0l.99-.99v0l-.99.99Zm3.26,15.2l.99.99-.99-.99Zm-7.6,0l.99-.99v0l-.99.99Zm-3.26-7.6l.99-.99v0l-.99.99Zm-29.31,0l-.99-.99v0l.99.99Zm0,51.02l.99-.99v0l-.99.99Zm30.94-20.08h1.4v-1.4h-1.4v1.4Zm-9.23-1.63l-.99.99v0l.99-.99Zm18.46-7.6l.99-.99v0l-.99.99Zm-3.26,36.91l.99.99v0l-.99-.99Zm-33.11,3.49c-3.95,0-7.4-1.46-10.41-4.48l-1.98,1.98c3.5,3.51,7.65,5.3,12.39,5.3v-2.8Zm-10.41-4.48c-3.01-3.01-4.48-6.46-4.48-10.41h-2.8c0,4.74,1.8,8.89,5.3,12.39l1.98-1.98Zm-4.48-10.41v-43.42h-2.8v43.42h2.8Zm0-43.42c0-3.95,1.47-7.4,4.48-10.41l-1.98-1.98c-3.5,3.5-5.3,7.65-5.3,12.39h2.8Zm4.48-10.41c3.01-3.02,6.46-4.48,10.41-4.48v-2.8c-4.74,0-8.89,1.79-12.39,5.3l1.98,1.98Zm10.41-4.48h21.71v-2.8h-21.71v2.8Zm21.71,0c3.95,0,7.4,1.46,10.41,4.48l1.98-1.98c-3.5-3.51-7.65-5.3-12.39-5.3v2.8Zm10.41,4.48c3.01,3.01,4.48,6.46,4.48,10.41h2.8c0-4.74-1.8-8.89-5.3-12.39l-1.98,1.98Zm4.48,10.41c0,1.05-.38,1.96-1.22,2.81l1.98,1.98c1.33-1.33,2.04-2.95,2.04-4.79h-2.8Zm-1.22,2.81c-.84.84-1.76,1.21-2.81,1.21v2.8c1.84,0,3.46-.7,4.79-2.03l-1.98-1.98Zm-2.81,1.21c-1.05,0-1.97-.37-2.81-1.21l-1.98,1.98c1.33,1.33,2.95,2.03,4.79,2.03v-2.8Zm-2.81-1.21c-.84-.85-1.22-1.76-1.22-2.81h-2.8c0,1.84.71,3.46,2.04,4.79l1.98-1.98Zm-1.22-2.81c0-1.85-.71-3.46-2.04-4.79l-1.98,1.98c.84.84,1.22,1.75,1.22,2.81h2.8Zm-2.04-4.79c-1.33-1.33-2.95-2.04-4.79-2.04v2.8c1.05,0,1.97.37,2.81,1.22l1.98-1.98Zm-4.79-2.04h-21.71v2.8h21.71v-2.8Zm-21.71,0c-1.85,0-3.46.71-4.79,2.04l1.98,1.98c.84-.85,1.76-1.22,2.81-1.22v-2.8Zm-4.79,2.04c-1.33,1.33-2.04,2.94-2.04,4.79h2.8c0-1.06.38-1.97,1.22-2.81l-1.98-1.98Zm-2.04,4.79v43.42h2.8v-43.42h-2.8Zm0,43.42c0,1.85.71,3.46,2.04,4.79l1.98-1.98c-.84-.84-1.22-1.75-1.22-2.81h-2.8Zm2.04,4.79c1.33,1.33,2.94,2.04,4.79,2.04v-2.8c-1.05,0-1.97-.37-2.81-1.22l-1.98,1.98Zm4.79,2.04h21.71v-2.8h-21.71v2.8Zm21.71,0c1.84,0,3.46-.71,4.79-2.04l-1.98-1.98c-.84.85-1.76,1.22-2.81,1.22v2.8Zm4.79-2.04c1.33-1.33,2.04-2.94,2.04-4.79h-2.8c0,1.06-.38,1.97-1.22,2.81l1.98,1.98Zm2.04-4.79v-16.28h-2.8v16.28h2.8Zm-1.4-17.68h-5.43v2.8h5.43v-2.8Zm-5.43,0c-1.05,0-1.97-.38-2.81-1.22l-1.98,1.98c1.33,1.33,2.95,2.04,4.79,2.04v-2.8Zm-2.81-1.22c-.84-.84-1.22-1.76-1.22-2.81h-2.8c0,1.84.71,3.46,2.04,4.79l1.98-1.98Zm-1.22-2.81c0-1.05.38-1.97,1.22-2.81l-1.98-1.98c-1.33,1.33-2.04,2.95-2.04,4.79h2.8Zm1.22-2.81c.84-.84,1.76-1.22,2.81-1.22v-2.8c-1.84,0-3.46.71-4.79,2.04l1.98,1.98Zm2.81-1.22h10.86v-2.8h-10.86v2.8Zm10.86,0c1.05,0,1.97.38,2.81,1.22l1.98-1.98c-1.33-1.33-2.95-2.04-4.79-2.04v2.8Zm2.81,1.22c.84.84,1.22,1.76,1.22,2.81h2.8c0-1.84-.71-3.46-2.04-4.79l-1.98,1.98Zm1.22,2.81v21.71h2.8v-21.71h-2.8Zm0,21.71c0,3.95-1.47,7.4-4.48,10.41l1.98,1.98c3.5-3.5,5.3-7.65,5.3-12.39h-2.8Zm-4.48,10.41c-3.01,3.02-6.46,4.48-10.41,4.48v2.8c4.74,0,8.89-1.79,12.39-5.3l-1.98-1.98Zm-10.41,4.48h-21.71v2.8h21.71v-2.8Zm53.73-3.49l.99-.99-1.12-1.12-.98,1.25l1.11.86Zm-21.72,0l.99-.99v0l-.99.99Zm-3.25-69.48l.99.99v0l-.99-.99Zm7.6,0l-.99.99v0l.99-.99Zm3.25,61.88l.99-.99v0l-.99.99Zm10.86-29.31l-.99-.99v0l.99.99Zm7.6,0l.99-.99v0l-.99.99Zm14.12-32.57l.99.99v0l-.99-.99Zm7.6,0l-.99.99v0l.99-.99Zm-3.26,69.48l.99.99v0l-.99-.99Zm-11.4,3.49c-3.95,0-7.4-1.46-10.41-4.48l-1.98,1.98c3.5,3.51,7.65,5.3,12.39,5.3v-2.8Zm-12.51-4.35c-2.25,2.9-5.27,4.35-9.21,4.35v2.8c4.75,0,8.61-1.81,11.42-5.43l-2.21-1.72Zm-9.21,4.35c-3.94,0-7.39-1.46-10.41-4.48l-1.98,1.98c3.51,3.51,7.66,5.3,12.39,5.3v-2.8Zm-10.41-4.48c-3.01-3.01-4.47-6.46-4.47-10.41h-2.8c0,4.74,1.79,8.89,5.29,12.39l1.98-1.98Zm-4.47-10.41v-54.28h-2.8v54.28h2.8Zm0-54.28c0-1.05.38-1.97,1.22-2.81l-1.98-1.98c-1.33,1.33-2.04,2.95-2.04,4.79h2.8Zm1.22-2.81c.84-.84,1.76-1.22,2.81-1.22v-2.8c-1.85,0-3.46.71-4.79,2.04l1.98,1.98Zm2.81-1.22c1.05,0,1.97.38,2.81,1.22l1.98-1.98c-1.33-1.33-2.95-2.04-4.79-2.04v2.8Zm2.81,1.22c.84.84,1.22,1.76,1.22,2.81h2.8c0-1.84-.71-3.46-2.04-4.79l-1.98,1.98Zm1.22,2.81v54.28h2.8v-54.28h-2.8Zm0,54.28c0,1.85.7,3.46,2.03,4.79l1.98-1.98c-.84-.84-1.21-1.75-1.21-2.81h-2.8Zm2.03,4.79c1.33,1.33,2.95,2.04,4.79,2.04v-2.8c-1.05,0-1.96-.37-2.81-1.22l-1.98,1.98Zm4.79,2.04c1.85,0,3.46-.71,4.79-2.04l-1.98-1.98c-.84.85-1.75,1.22-2.81,1.22v2.8Zm4.79-2.04c1.33-1.33,2.04-2.94,2.04-4.79h-2.8c0,1.06-.37,1.97-1.22,2.81l1.98,1.98Zm2.04-4.79v-21.71h-2.8v21.71h2.8Zm0-21.71c0-1.05.38-1.97,1.22-2.81l-1.98-1.98c-1.33,1.33-2.04,2.95-2.04,4.79h2.8Zm1.22-2.81c.84-.84,1.76-1.22,2.81-1.22v-2.8c-1.84,0-3.46.71-4.79,2.04l1.98,1.98Zm2.81-1.22c1.05,0,1.97.38,2.81,1.22l1.98-1.98c-1.33-1.33-2.95-2.04-4.79-2.04v2.8Zm2.81,1.22c.84.84,1.22,1.76,1.22,2.81h2.8c0-1.84-.71-3.46-2.04-4.79l-1.98,1.98Zm1.22,2.81v21.71h2.8v-21.71h-2.8Zm0,21.71c0,1.85.71,3.46,2.04,4.79l1.98-1.98c-.84-.84-1.22-1.75-1.22-2.81h-2.8Zm2.04,4.79c1.33,1.33,2.95,2.04,4.79,2.04v-2.8c-1.05,0-1.97-.37-2.81-1.22l-1.98,1.98Zm4.79,2.04c1.84,0,3.46-.71,4.79-2.04l-1.98-1.98c-.84.85-1.76,1.22-2.81,1.22v2.8Zm4.79-2.04c1.33-1.33,2.04-2.94,2.04-4.79h-2.8c0,1.06-.38,1.97-1.22,2.81l1.98,1.98Zm2.04-4.79v-54.28h-2.8v54.28h2.8Zm0-54.28c0-1.05.37-1.97,1.22-2.81l-1.98-1.98c-1.33,1.33-2.04,2.95-2.04,4.79h2.8Zm1.22-2.81c.84-.84,1.75-1.22,2.81-1.22v-2.8c-1.85,0-3.46.71-4.79,2.04l1.98,1.98Zm2.81-1.22c1.05,0,1.96.38,2.81,1.22l1.98-1.98c-1.33-1.33-2.95-2.04-4.79-2.04v2.8Zm2.81,1.22c.84.84,1.21,1.76,1.21,2.81h2.8c0-1.84-.7-3.46-2.03-4.79l-1.98,1.98Zm1.21,2.81v54.28h2.8v-54.28h-2.8Zm0,54.28c0,3.95-1.46,7.4-4.47,10.41l1.98,1.98c3.5-3.5,5.29-7.65,5.29-12.39h-2.8Zm-4.47,10.41c-3.01,3.02-6.46,4.48-10.41,4.48v2.8c4.74,0,8.89-1.79,12.39-5.3l-1.98-1.98Zm29.2,4.25l.99-.99v0l-.99.99Zm0-7.6l.99.99v0l-.99-.99Zm9.23-1.63v1.4h1.4v-1.4h-1.4Zm0-54.28h1.4v-1.4h-1.4v1.4Zm-9.23-1.63l.99-.99v0l-.99.99Zm0-7.6l.99.99v0l-.99-.99Zm29.32,0l-.99.99v0l.99-.99Zm0,7.6l-.99-.99v0l.99.99Zm-9.23,1.63v-1.4h-1.4v1.4h1.4Zm0,54.28h-1.4v1.4h1.4v-1.4Zm9.23,1.63l.99-.99v0l-.99.99Zm-25.52,7.83c-1.05,0-1.97-.38-2.81-1.22l-1.98,1.98c1.33,1.33,2.95,2.04,4.79,2.04v-2.8Zm-2.81-1.22c-.84-.84-1.22-1.76-1.22-2.81h-2.8c0,1.84.71,3.46,2.04,4.79l1.98-1.98Zm-1.22-2.81c0-1.05.38-1.97,1.22-2.81l-1.98-1.98c-1.33,1.33-2.04,2.95-2.04,4.79h2.8Zm1.22-2.81c.84-.84,1.76-1.22,2.81-1.22v-2.8c-1.84,0-3.46.71-4.79,2.04l1.98,1.98Zm2.81-1.22h5.43v-2.8h-5.43v2.8Zm6.83-1.4v-54.28h-2.8v54.28h2.8Zm-1.4-55.68h-5.43v2.8h5.43v-2.8Zm-5.43,0c-1.05,0-1.97-.38-2.81-1.22l-1.98,1.98c1.33,1.33,2.95,2.04,4.79,2.04v-2.8Zm-2.81-1.22c-.84-.84-1.22-1.76-1.22-2.81h-2.8c0,1.84.71,3.46,2.04,4.79l1.98-1.98Zm-1.22-2.81c0-1.05.38-1.97,1.22-2.81l-1.98-1.98c-1.33,1.33-2.04,2.95-2.04,4.79h2.8Zm1.22-2.81c.84-.84,1.76-1.22,2.81-1.22v-2.8c-1.84,0-3.46.71-4.79,2.04l1.98,1.98Zm2.81-1.22h21.72v-2.8h-21.72v2.8Zm21.72,0c1.05,0,1.96.38,2.81,1.22l1.98-1.98c-1.34-1.33-2.95-2.04-4.79-2.04v2.8Zm2.81,1.22c.84.84,1.21,1.76,1.21,2.81h2.8c0-1.84-.7-3.46-2.03-4.79l-1.98,1.98Zm1.21,2.81c0,1.05-.37,1.97-1.21,2.81l1.98,1.98c1.33-1.33,2.03-2.95,2.03-4.79h-2.8Zm-1.21,2.81c-.85.84-1.76,1.22-2.81,1.22v2.8c1.84,0,3.45-.71,4.79-2.04l-1.98-1.98Zm-2.81,1.22h-5.43v2.8h5.43v-2.8Zm-6.83,1.4v54.28h2.8v-54.28h-2.8Zm1.4,55.68h5.43v-2.8h-5.43v2.8Zm5.43,0c1.05,0,1.96.38,2.81,1.22l1.98-1.98c-1.34-1.33-2.95-2.04-4.79-2.04v2.8Zm2.81,1.22c.84.84,1.21,1.76,1.21,2.81h2.8c0-1.84-.7-3.46-2.03-4.79l-1.98,1.98Zm1.21,2.81c0,1.05-.37,1.97-1.21,2.81l1.98,1.98c1.33-1.33,2.03-2.95,2.03-4.79h-2.8Zm-1.21,2.81c-.85.84-1.76,1.22-2.81,1.22v2.8c1.84,0,3.45-.71,4.79-2.04l-1.98-1.98Zm-2.81,1.22h-21.72v2.8h21.72v-2.8Zm28.75-65.37l.99-.99v0l-.99.99Zm0-7.6l.99.99v0l-.99-.99Zm51.03,0l-.99.99v0l.99-.99Zm0,7.6l-.99-.99v0l.99.99Zm-20.09,1.63v-1.4h-1.4v1.4h1.4Zm-1.62,63.51l.99.99v0l-.99-.99Zm-7.6,0l-.99.99v0l.99-.99Zm-1.63-63.51h1.4v-1.4h-1.4v1.4Zm-16.29-1.4c-1.05,0-1.97-.38-2.81-1.22l-1.98,1.98c1.33,1.33,2.95,2.04,4.79,2.04v-2.8Zm-2.81-1.22c-.84-.84-1.22-1.76-1.22-2.81h-2.8c0,1.84.71,3.46,2.04,4.79l1.98-1.98Zm-1.22-2.81c0-1.05.38-1.97,1.22-2.81l-1.98-1.98c-1.33,1.33-2.04,2.95-2.04,4.79h2.8Zm1.22-2.81c.84-.84,1.76-1.22,2.81-1.22v-2.8c-1.84,0-3.46.71-4.79,2.04l1.98,1.98Zm2.81-1.22h43.43v-2.8h-43.43v2.8Zm43.43,0c1.05,0,1.97.38,2.81,1.22l1.98-1.98c-1.33-1.33-2.95-2.04-4.79-2.04v2.8Zm2.81,1.22c.84.84,1.22,1.76,1.22,2.81h2.8c0-1.84-.71-3.46-2.04-4.79l-1.98,1.98Zm1.22,2.81c0,1.05-.38,1.97-1.22,2.81l1.98,1.98c1.33-1.33,2.04-2.95,2.04-4.79h-2.8Zm-1.22,2.81c-.84.84-1.76,1.22-2.81,1.22v2.8c1.84,0,3.46-.71,4.79-2.04l-1.98-1.98Zm-2.81,1.22h-16.29v2.8h16.29v-2.8Zm-17.69,1.4v59.71h2.8v-59.71h-2.8Zm0,59.71c0,1.05-.37,1.97-1.21,2.81l1.98,1.98c1.33-1.33,2.03-2.95,2.03-4.79h-2.8Zm-1.21,2.81c-.85.84-1.76,1.22-2.81,1.22v2.8c1.84,0,3.45-.71,4.79-2.04l-1.98-1.98Zm-2.81,1.22c-1.06,0-1.97-.38-2.81-1.22l-1.98,1.98c1.33,1.33,2.94,2.04,4.79,2.04v-2.8Zm-2.81-1.22c-.85-.84-1.22-1.76-1.22-2.81h-2.8c0,1.84.7,3.46,2.04,4.79l1.98-1.98Zm-1.22-2.81v-59.71h-2.8v59.71h2.8Zm-1.4-61.11h-16.29v2.8h16.29v-2.8Z" fill="#333"/><mask id="eVrvNtwK0EW30" mask-type="luminance" x="-150%" y="-150%" height="400%" width="400%"><rect width="383" height="80" rx="0" ry="0" transform="translate(4238 1054)" fill="#fff"/><path d="M4255.83,1099.43c-5.06,0-9.04-1.45-11.94-4.34-2.89-2.9-4.34-6.88-4.34-11.95v-10.85c0-4.35,1.45-8.15,4.34-11.4c2.9-3.26,6.88-4.89,11.94-4.89h21.72c4.34,0,8.14,1.63,11.4,4.89c3.25,3.25,4.88,7.05,4.88,11.4c0,1.44-.54,2.71-1.63,3.8-1.08,1.08-2.35,1.62-3.8,1.62-1.44,0-2.71-.54-3.8-1.62-1.08-1.09-1.62-2.36-1.62-3.8c0-1.45-.55-2.72-1.63-3.8-1.09-1.09-2.35-1.63-3.8-1.63h-21.72c-1.44,0-2.71.54-3.8,1.63-1.08,1.08-1.63,2.35-1.63,3.8v10.85c0,1.45.55,2.72,1.63,3.8c1.09,1.09,2.36,1.63,3.8,1.63h21.72c4.34,0,8.14,1.63,11.4,4.89c3.25,3.25,4.88,7.05,4.88,11.4v10.85c0,5.07-1.63,9.05-4.88,11.95-3.26,2.89-7.06,4.34-11.4,4.34h-21.72c-4.34,0-8.14-1.63-11.4-4.89-3.25-3.25-4.88-7.05-4.88-11.4c0-1.44.54-2.71,1.63-3.8c1.08-1.08,2.35-1.62,3.8-1.62c1.44,0,2.71.54,3.8,1.62c1.08,1.09,1.62,2.36,1.62,3.8c0,1.45.55,2.72,1.63,3.8c1.09,1.09,2.36,1.63,3.8,1.63h21.72c1.45,0,2.71-.54,3.8-1.63c1.08-1.08,1.63-2.35,1.63-3.8v-10.85c0-1.45-.55-2.72-1.63-3.8-1.09-1.09-2.35-1.63-3.8-1.63h-21.72Zm86.84,0h-27.14v21.71h38c1.45,0,2.72.55,3.8,1.63c1.09,1.09,1.63,2.35,1.63,3.8s-.54,2.72-1.63,3.8c-1.08,1.09-2.35,1.63-3.8,1.63h-43.43c-1.44,0-2.71-.54-3.8-1.63-1.08-1.08-1.63-2.35-1.63-3.8v-65.14c0-1.45.55-2.72,1.63-3.8c1.09-1.09,2.36-1.63,3.8-1.63h43.43c1.45,0,2.72.54,3.8,1.63c1.09,1.08,1.63,2.35,1.63,3.8s-.54,2.71-1.63,3.8c-1.08,1.08-2.35,1.63-3.8,1.63h-38v21.71h27.14c1.45,0,2.72.54,3.8,1.63c1.09,1.09,1.63,2.35,1.63,3.8s-.54,2.71-1.63,3.8c-1.08,1.09-2.35,1.63-3.8,1.63Zm43.42,32.57c-4.35,0-8.15-1.63-11.4-4.89-3.26-3.25-4.89-7.05-4.89-11.4v-43.42c0-4.35,1.63-8.15,4.89-11.4c3.25-3.26,7.05-4.89,11.4-4.89h21.71c4.34,0,8.14,1.63,11.4,4.89c3.26,3.25,4.89,7.05,4.89,11.4c0,1.44-.55,2.71-1.63,3.8-1.09,1.08-2.35,1.62-3.8,1.62s-2.72-.54-3.8-1.62c-1.09-1.09-1.63-2.36-1.63-3.8c0-1.45-.54-2.72-1.63-3.8-1.08-1.09-2.35-1.63-3.8-1.63h-21.71c-1.45,0-2.72.54-3.8,1.63-1.09,1.08-1.63,2.35-1.63,3.8v43.42c0,1.45.54,2.72,1.63,3.8c1.08,1.09,2.35,1.63,3.8,1.63h21.71c1.45,0,2.72-.54,3.8-1.63c1.09-1.08,1.63-2.35,1.63-3.8v-16.28h-5.43c-1.45,0-2.71-.54-3.8-1.63-1.08-1.09-1.63-2.35-1.63-3.8s.55-2.71,1.63-3.8c1.09-1.09,2.35-1.63,3.8-1.63h10.86c1.45,0,2.71.54,3.8,1.63c1.08,1.09,1.63,2.35,1.63,3.8v21.71c0,4.35-1.63,8.15-4.89,11.4-3.26,3.26-7.06,4.89-11.4,4.89h-21.71Zm86.84,0c-4.34,0-8.14-1.63-11.4-4.89-2.53,3.26-5.97,4.89-10.32,4.89-4.34,0-8.14-1.63-11.4-4.89-3.25-3.25-4.88-7.05-4.88-11.4v-54.28c0-1.45.54-2.72,1.63-3.8c1.08-1.09,2.35-1.63,3.8-1.63c1.44,0,2.71.54,3.8,1.63c1.08,1.08,1.63,2.35,1.63,3.8v54.28c0,1.45.54,2.72,1.62,3.8c1.09,1.09,2.36,1.63,3.8,1.63c1.45,0,2.72-.54,3.8-1.63c1.09-1.08,1.63-2.35,1.63-3.8v-21.71c0-1.45.55-2.71,1.63-3.8c1.09-1.09,2.35-1.63,3.8-1.63s2.72.54,3.8,1.63c1.09,1.09,1.63,2.35,1.63,3.8v21.71c0,1.45.54,2.72,1.63,3.8c1.08,1.09,2.35,1.63,3.8,1.63s2.71-.54,3.8-1.63c1.08-1.08,1.63-2.35,1.63-3.8v-54.28c0-1.45.54-2.72,1.63-3.8c1.08-1.09,2.35-1.63,3.8-1.63c1.44,0,2.71.54,3.8,1.63c1.08,1.08,1.62,2.35,1.62,3.8v54.28c0,4.35-1.62,8.15-4.88,11.4-3.26,3.26-7.06,4.89-11.4,4.89Zm43.41,0c-1.45,0-2.71-.54-3.8-1.63-1.08-1.08-1.63-2.35-1.63-3.8s.55-2.71,1.63-3.8c1.09-1.08,2.35-1.63,3.8-1.63h5.43v-54.28h-5.43c-1.45,0-2.71-.55-3.8-1.63-1.08-1.09-1.63-2.35-1.63-3.8s.55-2.72,1.63-3.8c1.09-1.09,2.35-1.63,3.8-1.63h21.72c1.44,0,2.71.54,3.8,1.63c1.08,1.08,1.62,2.35,1.62,3.8s-.54,2.71-1.62,3.8c-1.09,1.08-2.36,1.63-3.8,1.63h-5.43v54.28h5.43c1.44,0,2.71.55,3.8,1.63c1.08,1.09,1.62,2.35,1.62,3.8s-.54,2.72-1.62,3.8c-1.09,1.09-2.36,1.63-3.8,1.63h-21.72Zm54.27-65.14c-1.45,0-2.71-.55-3.8-1.63-1.08-1.09-1.63-2.35-1.63-3.8s.55-2.72,1.63-3.8c1.09-1.09,2.35-1.63,3.8-1.63h43.43c1.45,0,2.71.54,3.8,1.63c1.09,1.08,1.63,2.35,1.63,3.8s-.54,2.71-1.63,3.8c-1.09,1.08-2.35,1.63-3.8,1.63h-16.29v59.71c0,1.45-.54,2.72-1.62,3.8-1.09,1.09-2.36,1.63-3.8,1.63-1.45,0-2.72-.54-3.8-1.63-1.09-1.08-1.63-2.35-1.63-3.8v-59.71h-16.29Z"/></mask></g><path d="M3069.1,755.714c-1.44,0-2.71-.543-3.8-1.628-1.08-1.086-1.63-2.353-1.63-3.8c0-4.343,1.63-8.143,4.89-11.4s7.06-4.886,11.4-4.886h21.71c4.35,0,8.15,1.629,11.4,4.886c3.26,3.257,4.89,7.057,4.89,11.4v10.857c0,1.447-.54,2.714-1.63,3.8l-34.42,34.2h30.62c1.45,0,2.72.543,3.8,1.628c1.09,1.086,1.63,2.353,1.63,3.8c0,1.448-.54,2.715-1.63,3.8-1.08,1.086-2.35,1.629-3.8,1.629h-43.43c-1.44,0-2.71-.543-3.8-1.629-1.08-1.085-1.63-2.352-1.63-3.8c0-1.447.55-2.714,1.63-3.8l41.8-42.017v-8.468c0-1.448-.54-2.715-1.63-3.8-1.08-1.086-2.35-1.629-3.8-1.629h-21.71c-1.45,0-2.71.543-3.8,1.629-1.09,1.085-1.63,2.352-1.63,3.8c0,1.447-.54,2.714-1.63,3.8-1.08,1.085-2.35,1.628-3.8,1.628ZM3145.09,810c-4.35,0-8.15-1.629-11.4-4.886-3.26-3.257-4.89-7.057-4.89-11.4v-43.428c0-4.343,1.63-8.143,4.89-11.4c3.25-3.257,7.05-4.886,11.4-4.886h21.71c4.34,0,8.14,1.629,11.4,4.886s4.89,7.057,4.89,11.4v43.428c0,4.343-1.63,8.143-4.89,11.4s-7.06,4.886-11.4,4.886h-21.71Zm-5.43-16.286c0,1.448.54,2.715,1.63,3.8c1.08,1.086,2.35,1.629,3.8,1.629h21.71c1.45,0,2.72-.543,3.8-1.629c1.09-1.085,1.63-2.352,1.63-3.8v-29.314l-32.57,29.314Zm0-14.114l32.57-29.314c0-1.448-.54-2.715-1.63-3.8-1.08-1.086-2.35-1.629-3.8-1.629h-21.71c-1.45,0-2.72.543-3.8,1.629-1.09,1.085-1.63,2.352-1.63,3.8v29.314Zm70.55-23.886c-1.44,0-2.71-.543-3.8-1.628-1.08-1.086-1.62-2.353-1.62-3.8c0-1.448.54-2.715,1.62-3.8l10.86-10.857c1.09-1.086,2.35-1.629,3.8-1.629s2.72.543,3.8,1.629c1.09,1.085,1.63,2.352,1.63,3.8v59.714h5.43c1.45,0,2.71.543,3.8,1.628c1.08,1.086,1.63,2.353,1.63,3.8c0,1.448-.55,2.715-1.63,3.8-1.09,1.086-2.35,1.629-3.8,1.629h-21.72c-1.44,0-2.71-.543-3.8-1.629-1.08-1.085-1.62-2.352-1.62-3.8c0-1.447.54-2.714,1.62-3.8c1.09-1.085,2.36-1.628,3.8-1.628h5.43v-46.903l-1.63,1.846c-1.08,1.085-2.35,1.628-3.8,1.628ZM3275.34,810c-4.34,0-8.14-1.629-11.4-4.886s-4.88-7.057-4.88-11.4v-43.428c0-4.343,1.62-8.143,4.88-11.4s7.06-4.886,11.4-4.886h21.72c1.44,0,2.71.543,3.8,1.629c1.08,1.085,1.62,2.352,1.62,3.8c0,1.447-.54,2.714-1.62,3.8-1.09,1.085-2.36,1.628-3.8,1.628h-21.72c-1.45,0-2.71.543-3.8,1.629-1.08,1.085-1.63,2.352-1.63,3.8v16.285h27.15c4.34,0,8.14,1.448,11.4,4.343c3.25,2.896,4.88,6.876,4.88,11.943v10.857c0,4.343-1.63,8.143-4.88,11.4-3.26,3.257-7.06,4.886-11.4,4.886h-21.72Zm-5.43-32.571v16.285c0,1.448.55,2.715,1.63,3.8c1.09,1.086,2.35,1.629,3.8,1.629h21.72c1.44,0,2.71-.543,3.8-1.629c1.08-1.085,1.62-2.352,1.62-3.8v-10.857c0-1.447-.54-2.714-1.62-3.8-1.09-1.086-2.36-1.628-3.8-1.628h-27.15Z" fill="#f1760d"/><path d="M226.835,668.219c3.294,0,6.183.702,8.667,2.106c2.538,1.35,4.482,3.267,5.832,5.751c1.404,2.484,2.106,5.346,2.106,8.586s-.702,6.075-2.106,8.505-3.402,4.32-5.994,5.67c-2.538,1.35-5.481,2.025-8.829,2.025h-14.256c-.216,0-.324.108-.324.324v23.004c0,.54-.27.81-.81.81h-6.156c-.54,0-.81-.27-.81-.81v-55.161c0-.54.27-.81.81-.81h21.87Zm-1.053,26.325c2.97,0,5.346-.891,7.128-2.673c1.836-1.782,2.754-4.131,2.754-7.047c0-2.97-.918-5.346-2.754-7.128-1.782-1.836-4.158-2.754-7.128-2.754h-13.527c-.216,0-.324.108-.324.324v18.954c0,.216.108.324.324.324h13.527Zm34.731,23.328c-.054.108-.054.216,0,.324.054.054.135.081.243.081h24.381c.54,0,.81.27.81.81v5.103c0,.54-.27.81-.81.81h-33.939c-.54,0-.81-.27-.81-.81v-4.941c0-.378.135-.702.405-.972c1.836-2.106,6.048-7.047,12.636-14.823l5.589-6.723c5.022-5.994,7.533-10.638,7.533-13.932c0-2.538-.864-4.563-2.592-6.075-1.674-1.566-3.915-2.349-6.723-2.349s-5.049.783-6.723,2.349-2.484,3.618-2.43,6.156v2.43c0,.54-.27.81-.81.81h-6.237c-.54,0-.81-.27-.81-.81v-3.483c.108-2.808.891-5.292,2.349-7.452c1.512-2.16,3.537-3.807,6.075-4.941c2.538-1.188,5.4-1.782,8.586-1.782c3.456,0,6.48.648,9.072,1.944s4.59,3.078,5.994,5.346s2.106,4.833,2.106,7.695c0,4.482-2.43,9.774-7.29,15.876-2.16,2.754-4.725,5.859-7.695,9.315-2.97,3.402-5.94,6.75-8.91,10.044Zm58.396-49.653c3.294,0,6.183.702,8.667,2.106c2.538,1.35,4.482,3.267,5.832,5.751c1.404,2.484,2.106,5.346,2.106,8.586s-.702,6.075-2.106,8.505-3.402,4.32-5.994,5.67c-2.538,1.35-5.481,2.025-8.829,2.025h-14.256c-.216,0-.324.108-.324.324v23.004c0,.54-.27.81-.81.81h-6.156c-.54,0-.81-.27-.81-.81v-55.161c0-.54.27-.81.81-.81h21.87Zm-1.053,26.325c2.97,0,5.346-.891,7.128-2.673c1.836-1.782,2.754-4.131,2.754-7.047c0-2.97-.918-5.346-2.754-7.128-1.782-1.836-4.158-2.754-7.128-2.754h-13.527c-.216,0-.324.108-.324.324v18.954c0,.216.108.324.324.324h13.527ZM345.54,725c-.54,0-.81-.27-.81-.81v-55.08c0-.54.27-.81.81-.81h6.156c.54,0,.81.27.81.81v25.839c0,.108.054.189.162.243.108,0,.189-.054.243-.162l23.166-26.244c.216-.324.54-.486.972-.486h7.047c.324,0,.54.108.648.324.108.162.054.378-.162.648l-19.278,22.761c-.054.162-.054.324,0,.486l20.655,31.509c.108.216.162.378.162.486c0,.324-.216.486-.648.486h-7.047c-.378,0-.702-.162-.972-.486l-17.496-26.487c-.054-.108-.135-.162-.243-.162s-.189.027-.243.081l-6.804,7.614c-.108.216-.162.351-.162.405v18.225c0,.54-.27.81-.81.81h-6.156Z" fill="#333"/><path d="M698.732,668.219c3.294,0,6.183.702,8.667,2.106c2.538,1.35,4.482,3.267,5.832,5.751c1.404,2.484,2.106,5.346,2.106,8.586s-.702,6.075-2.106,8.505-3.402,4.32-5.994,5.67c-2.538,1.35-5.481,2.025-8.829,2.025h-14.256c-.216,0-.324.108-.324.324v23.004c0,.54-.27.81-.81.81h-6.156c-.54,0-.81-.27-.81-.81v-55.161c0-.54.27-.81.81-.81h21.87Zm-1.053,26.325c2.97,0,5.346-.891,7.128-2.673c1.836-1.782,2.754-4.131,2.754-7.047c0-2.97-.918-5.346-2.754-7.128-1.782-1.836-4.158-2.754-7.128-2.754h-13.527c-.216,0-.324.108-.324.324v18.954c0,.216.108.324.324.324h13.527Zm34.73,23.328c-.054.108-.054.216,0,.324.054.054.135.081.243.081h24.381c.54,0,.81.27.81.81v5.103c0,.54-.27.81-.81.81h-33.939c-.54,0-.81-.27-.81-.81v-4.941c0-.378.135-.702.405-.972c1.836-2.106,6.048-7.047,12.636-14.823l5.589-6.723c5.022-5.994,7.533-10.638,7.533-13.932c0-2.538-.864-4.563-2.592-6.075-1.674-1.566-3.915-2.349-6.723-2.349s-5.049.783-6.723,2.349-2.484,3.618-2.43,6.156v2.43c0,.54-.27.81-.81.81h-6.237c-.54,0-.81-.27-.81-.81v-3.483c.108-2.808.891-5.292,2.349-7.452c1.512-2.16,3.537-3.807,6.075-4.941c2.538-1.188,5.4-1.782,8.586-1.782c3.456,0,6.48.648,9.072,1.944s4.59,3.078,5.994,5.346s2.106,4.833,2.106,7.695c0,4.482-2.43,9.774-7.29,15.876-2.16,2.754-4.725,5.859-7.695,9.315-2.97,3.402-5.94,6.75-8.91,10.044Zm58.397-49.653c3.294,0,6.183.702,8.667,2.106c2.538,1.35,4.482,3.267,5.832,5.751c1.404,2.484,2.106,5.346,2.106,8.586s-.702,6.075-2.106,8.505-3.402,4.32-5.994,5.67c-2.538,1.35-5.481,2.025-8.829,2.025h-14.256c-.216,0-.324.108-.324.324v23.004c0,.54-.27.81-.81.81h-6.156c-.54,0-.81-.27-.81-.81v-55.161c0-.54.27-.81.81-.81h21.87Zm-1.053,26.325c2.97,0,5.346-.891,7.128-2.673c1.836-1.782,2.754-4.131,2.754-7.047c0-2.97-.918-5.346-2.754-7.128-1.782-1.836-4.158-2.754-7.128-2.754h-13.527c-.216,0-.324.108-.324.324v18.954c0,.216.108.324.324.324h13.527ZM817.436,725c-.54,0-.81-.27-.81-.81v-55.08c0-.54.27-.81.81-.81h6.156c.54,0,.81.27.81.81v25.839c0,.108.054.189.162.243.108,0,.189-.054.243-.162l23.166-26.244c.216-.324.54-.486.972-.486h7.047c.324,0,.54.108.648.324.108.162.054.378-.162.648L837.2,692.033c-.054.162-.054.324,0,.486l20.655,31.509c.108.216.162.378.162.486c0,.324-.216.486-.648.486h-7.047c-.378,0-.702-.162-.972-.486l-17.496-26.487c-.054-.108-.135-.162-.243-.162s-.189.027-.243.081l-6.804,7.614c-.108.216-.162.351-.162.405v18.225c0,.54-.27.81-.81.81h-6.156Zm80.612-55.89c0-.54.27-.81.81-.81h6.156c.54,0,.81.27.81.81v55.08c0,.54-.27.81-.81.81h-6.156c-.54,0-.81-.27-.81-.81v-24.057c0-.216-.108-.324-.324-.324h-23.085c-.216,0-.324.108-.324.324v24.057c0,.54-.27.81-.81.81h-6.156c-.54,0-.81-.27-.81-.81v-55.08c0-.54.27-.81.81-.81h6.156c.54,0,.81.27.81.81v23.652c0,.216.108.324.324.324h23.085c.216,0,.324-.108.324-.324v-23.652Z" fill="#333"/><path d="M1256.89,668.219c3.29,0,6.18.702,8.66,2.106c2.54,1.35,4.48,3.267,5.83,5.751c1.41,2.484,2.11,5.346,2.11,8.586s-.7,6.075-2.11,8.505c-1.4,2.43-3.4,4.32-5.99,5.67-2.54,1.35-5.48,2.025-8.83,2.025h-14.25c-.22,0-.33.108-.33.324v23.004c0,.54-.27.81-.81.81h-6.15c-.54,0-.81-.27-.81-.81v-55.161c0-.54.27-.81.81-.81h21.87Zm-1.06,26.325c2.97,0,5.35-.891,7.13-2.673c1.84-1.782,2.75-4.131,2.75-7.047c0-2.97-.91-5.346-2.75-7.128-1.78-1.836-4.16-2.754-7.13-2.754h-13.52c-.22,0-.33.108-.33.324v18.954c0,.216.11.324.33.324h13.52Zm34.73,23.328c-.05.108-.05.216,0,.324.06.054.14.081.25.081h24.38c.54,0,.81.27.81.81v5.103c0,.54-.27.81-.81.81h-33.94c-.54,0-.81-.27-.81-.81v-4.941c0-.378.13-.702.4-.972c1.84-2.106,6.05-7.047,12.64-14.823l5.59-6.723c5.02-5.994,7.53-10.638,7.53-13.932c0-2.538-.86-4.563-2.59-6.075-1.67-1.566-3.92-2.349-6.72-2.349-2.81,0-5.05.783-6.73,2.349-1.67,1.566-2.48,3.618-2.43,6.156v2.43c0,.54-.27.81-.81.81h-6.23c-.54,0-.81-.27-.81-.81v-3.483c.1-2.808.89-5.292,2.35-7.452c1.51-2.16,3.53-3.807,6.07-4.941c2.54-1.188,5.4-1.782,8.59-1.782c3.45,0,6.48.648,9.07,1.944s4.59,3.078,5.99,5.346c1.41,2.268,2.11,4.833,2.11,7.695c0,4.482-2.43,9.774-7.29,15.876-2.16,2.754-4.73,5.859-7.7,9.315-2.97,3.402-5.94,6.75-8.91,10.044Zm53.7,7.776c-4.16,0-7.77-.648-10.85-1.944-3.03-1.296-5.37-3.132-7.05-5.508-1.62-2.376-2.43-5.157-2.43-8.343v-2.349c0-.54.27-.81.81-.81h5.91c.54,0,.81.27.81.81v1.944c0,2.754,1.19,5.022,3.57,6.804c2.37,1.782,5.64,2.673,9.8,2.673c3.73,0,6.53-.783,8.42-2.349s2.84-3.618,2.84-6.156c0-1.674-.49-3.105-1.46-4.293s-2.4-2.268-4.29-3.24c-1.84-1.026-4.54-2.241-8.1-3.645-3.94-1.512-7.08-2.889-9.4-4.131-2.27-1.242-4.16-2.862-5.67-4.86-1.51-2.052-2.27-4.617-2.27-7.695c0-4.644,1.65-8.289,4.94-10.935c3.35-2.646,7.86-3.969,13.53-3.969c4,0,7.51.675,10.53,2.025c3.03,1.35,5.35,3.24,6.97,5.67c1.67,2.43,2.51,5.238,2.51,8.424v1.62c0,.54-.27.81-.81.81h-6.08c-.54,0-.81-.27-.81-.81v-1.215c0-2.808-1.13-5.13-3.4-6.966-2.21-1.89-5.29-2.835-9.23-2.835-3.35,0-5.94.702-7.78,2.106-1.83,1.35-2.75,3.321-2.75,5.913c0,1.782.46,3.24,1.37,4.374.92,1.134,2.27,2.16,4.05,3.078c1.84.864,4.62,1.998,8.35,3.402c3.83,1.512,6.94,2.916,9.31,4.212c2.38,1.242,4.35,2.916,5.92,5.022c1.56,2.052,2.34,4.617,2.34,7.695c0,4.752-1.75,8.532-5.26,11.34-3.46,2.754-8.24,4.131-14.34,4.131Zm61.63-56.538c0-.54.27-.81.81-.81h6.16c.54,0,.81.27.81.81v55.08c0,.54-.27.81-.81.81h-6.16c-.54,0-.81-.27-.81-.81v-24.057c0-.216-.1-.324-.32-.324h-23.08c-.22,0-.33.108-.33.324v24.057c0,.54-.27.81-.81.81h-6.15c-.54,0-.81-.27-.81-.81v-55.08c0-.54.27-.81.81-.81h6.15c.54,0,.81.27.81.81v23.652c0,.216.11.324.33.324h23.08c.22,0,.32-.108.32-.324v-23.652Z" fill="#333"/><path d="M2474.04,661.219c3.29,0,6.18.702,8.67,2.106c2.53,1.35,4.48,3.267,5.83,5.751c1.4,2.484,2.1,5.346,2.1,8.586s-.7,6.075-2.1,8.505c-1.41,2.43-3.4,4.32-6,5.67-2.53,1.35-5.48,2.025-8.83,2.025h-14.25c-.22,0-.33.108-.33.324v23.004c0,.54-.27.81-.81.81h-6.15c-.54,0-.81-.27-.81-.81v-55.161c0-.54.27-.81.81-.81h21.87Zm-1.05,26.325c2.97,0,5.34-.891,7.12-2.673c1.84-1.782,2.76-4.131,2.76-7.047c0-2.97-.92-5.346-2.76-7.128-1.78-1.836-4.15-2.754-7.12-2.754h-13.53c-.22,0-.33.108-.33.324v18.954c0,.216.11.324.33.324h13.53Zm34.73,23.328c-.06.108-.06.216,0,.324.05.054.13.081.24.081h24.38c.54,0,.81.27.81.81v5.103c0,.54-.27.81-.81.81h-33.94c-.54,0-.81-.27-.81-.81v-4.941c0-.378.14-.702.41-.972c1.83-2.106,6.04-7.047,12.63-14.823l5.59-6.723c5.02-5.994,7.53-10.638,7.53-13.932c0-2.538-.86-4.563-2.59-6.075-1.67-1.566-3.91-2.349-6.72-2.349s-5.05.783-6.72,2.349c-1.68,1.566-2.49,3.618-2.43,6.156v2.43c0,.54-.27.81-.81.81h-6.24c-.54,0-.81-.27-.81-.81v-3.483c.11-2.808.89-5.292,2.35-7.452c1.51-2.16,3.53-3.807,6.07-4.941c2.54-1.188,5.4-1.782,8.59-1.782c3.45,0,6.48.648,9.07,1.944s4.59,3.078,5.99,5.346c1.41,2.268,2.11,4.833,2.11,7.695c0,4.482-2.43,9.774-7.29,15.876-2.16,2.754-4.72,5.859-7.69,9.315-2.97,3.402-5.94,6.75-8.91,10.044Zm72.89-49.086c.27-.324.6-.486.97-.486h6.16c.54,0,.81.27.81.81v55.08c0,.54-.27.81-.81.81h-6.16c-.54,0-.81-.27-.81-.81v-41.472c0-.162-.05-.27-.16-.324s-.19,0-.24.162l-11.58,17.658c-.22.324-.54.486-.98.486h-3.07c-.38,0-.71-.162-.98-.486l-11.66-17.496c-.05-.162-.14-.216-.24-.162-.11.054-.17.162-.17.324v41.31c0,.54-.27.81-.81.81h-6.15c-.54,0-.81-.27-.81-.81v-55.08c0-.54.27-.81.81-.81h6.15c.44,0,.76.162.98.486l14.17,21.222c.06.054.14.081.24.081.11,0,.19-.027.25-.081l14.09-21.222Zm38.71,56.862c-4.16,0-7.78-.648-10.86-1.944-3.02-1.296-5.37-3.132-7.04-5.508-1.62-2.376-2.43-5.157-2.43-8.343v-2.349c0-.54.27-.81.81-.81h5.91c.54,0,.81.27.81.81v1.944c0,2.754,1.19,5.022,3.56,6.804c2.38,1.782,5.65,2.673,9.8,2.673c3.73,0,6.54-.783,8.43-2.349s2.83-3.618,2.83-6.156c0-1.674-.48-3.105-1.46-4.293-.97-1.188-2.4-2.268-4.29-3.24-1.83-1.026-4.53-2.241-8.1-3.645-3.94-1.512-7.07-2.889-9.39-4.131-2.27-1.242-4.16-2.862-5.67-4.86-1.52-2.052-2.27-4.617-2.27-7.695c0-4.644,1.64-8.289,4.94-10.935c3.35-2.646,7.86-3.969,13.53-3.969c3.99,0,7.5.675,10.53,2.025c3.02,1.35,5.34,3.24,6.96,5.67c1.68,2.43,2.51,5.238,2.51,8.424v1.62c0,.54-.27.81-.81.81h-6.07c-.54,0-.81-.27-.81-.81v-1.215c0-2.808-1.14-5.13-3.4-6.966-2.22-1.89-5.3-2.835-9.24-2.835-3.35,0-5.94.702-7.77,2.106-1.84,1.35-2.76,3.321-2.76,5.913c0,1.782.46,3.24,1.38,4.374s2.27,2.16,4.05,3.078c1.83.864,4.62,1.998,8.34,3.402c3.84,1.512,6.94,2.916,9.32,4.212c2.37,1.242,4.34,2.916,5.91,5.022c1.57,2.052,2.35,4.617,2.35,7.695c0,4.752-1.76,8.532-5.27,11.34-3.45,2.754-8.23,4.131-14.33,4.131Z" fill="#333"/><path d="M3759.61,668.219c3.29,0,6.18.702,8.67,2.106c2.54,1.35,4.48,3.267,5.83,5.751c1.4,2.484,2.11,5.346,2.11,8.586s-.71,6.075-2.11,8.505-3.4,4.32-5.99,5.67c-2.54,1.35-5.49,2.025-8.83,2.025h-14.26c-.22,0-.32.108-.32.324v23.004c0,.54-.27.81-.81.81h-6.16c-.54,0-.81-.27-.81-.81v-55.161c0-.54.27-.81.81-.81h21.87Zm-1.05,26.325c2.97,0,5.34-.891,7.13-2.673c1.83-1.782,2.75-4.131,2.75-7.047c0-2.97-.92-5.346-2.75-7.128-1.79-1.836-4.16-2.754-7.13-2.754h-13.53c-.22,0-.32.108-.32.324v18.954c0,.216.1.324.32.324h13.53Zm34.73,23.328c-.06.108-.06.216,0,.324.05.054.13.081.24.081h24.38c.54,0,.81.27.81.81v5.103c0,.54-.27.81-.81.81h-33.94c-.54,0-.81-.27-.81-.81v-4.941c0-.378.14-.702.41-.972c1.83-2.106,6.05-7.047,12.63-14.823l5.59-6.723c5.03-5.994,7.54-10.638,7.54-13.932c0-2.538-.87-4.563-2.6-6.075-1.67-1.566-3.91-2.349-6.72-2.349s-5.05.783-6.72,2.349c-1.68,1.566-2.49,3.618-2.43,6.156v2.43c0,.54-.27.81-.81.81h-6.24c-.54,0-.81-.27-.81-.81v-3.483c.11-2.808.89-5.292,2.35-7.452c1.51-2.16,3.54-3.807,6.08-4.941c2.53-1.188,5.4-1.782,8.58-1.782c3.46,0,6.48.648,9.07,1.944c2.6,1.296,4.59,3.078,6,5.346c1.4,2.268,2.1,4.833,2.1,7.695c0,4.482-2.43,9.774-7.29,15.876-2.16,2.754-4.72,5.859-7.69,9.315-2.97,3.402-5.94,6.75-8.91,10.044ZM3841.07,725c-.48,0-.78-.216-.89-.648l-15.23-55.161-.08-.243c0-.432.27-.648.81-.648h6.56c.49,0,.79.243.9.729l10.61,40.338c.05.108.1.162.16.162.11,0,.19-.054.24-.162l10.05-40.338c.1-.486.4-.729.89-.729h6.4c.48,0,.78.243.89.729l10.61,40.419c.05.108.11.162.16.162s.11-.054.16-.162L3884,669.029c.11-.486.41-.729.89-.729h6.16c.27,0,.46.081.57.243.16.162.21.378.16.648l-14.66,55.08c-.11.486-.41.729-.89.729h-6.24c-.49,0-.78-.243-.89-.729l-10.61-41.796c-.06-.162-.11-.243-.16-.243-.06,0-.11.081-.17.243l-10.28,41.796c-.06.486-.35.729-.89.729h-5.92Zm80.86-56.781c3.29,0,6.18.702,8.66,2.106c2.54,1.35,4.49,3.267,5.84,5.751c1.4,2.484,2.1,5.346,2.1,8.586s-.7,6.075-2.1,8.505c-1.41,2.43-3.41,4.32-6,5.67-2.54,1.35-5.48,2.025-8.83,2.025h-14.25c-.22,0-.33.108-.33.324v23.004c0,.54-.27.81-.81.81h-6.15c-.54,0-.81-.27-.81-.81v-55.161c0-.54.27-.81.81-.81h21.87Zm-1.06,26.325c2.97,0,5.35-.891,7.13-2.673c1.84-1.782,2.76-4.131,2.76-7.047c0-2.97-.92-5.346-2.76-7.128-1.78-1.836-4.16-2.754-7.13-2.754h-13.52c-.22,0-.33.108-.33.324v18.954c0,.216.11.324.33.324h13.52ZM3948.56,725c-.54,0-.81-.27-.81-.81v-55.08c0-.54.27-.81.81-.81h6.15c.54,0,.81.27.81.81v25.839c0,.108.06.189.17.243.1,0,.18-.054.24-.162l23.16-26.244c.22-.324.54-.486.98-.486h7.04c.33,0,.54.108.65.324.11.162.06.378-.16.648l-19.28,22.761c-.05.162-.05.324,0,.486l20.66,31.509c.1.216.16.378.16.486c0,.324-.22.486-.65.486h-7.05c-.37,0-.7-.162-.97-.486l-17.49-26.487c-.06-.108-.14-.162-.25-.162s-.19.027-.24.081l-6.8,7.614c-.11.216-.17.351-.17.405v18.225c0,.54-.27.81-.81.81h-6.15Zm80.61-55.89c0-.54.27-.81.81-.81h6.16c.54,0,.81.27.81.81v55.08c0,.54-.27.81-.81.81h-6.16c-.54,0-.81-.27-.81-.81v-24.057c0-.216-.11-.324-.32-.324h-23.09c-.22,0-.32.108-.32.324v24.057c0,.54-.27.81-.81.81h-6.16c-.54,0-.81-.27-.81-.81v-55.08c0-.54.27-.81.81-.81h6.16c.54,0,.81.27.81.81v23.652c0,.216.1.324.32.324h23.09c.21,0,.32-.108.32-.324v-23.652Z" fill="#333"/><path d="M4356.84,668.219c3.3,0,6.19.702,8.67,2.106c2.54,1.35,4.48,3.267,5.83,5.751c1.41,2.484,2.11,5.346,2.11,8.586s-.7,6.075-2.11,8.505c-1.4,2.43-3.4,4.32-5.99,5.67-2.54,1.35-5.48,2.025-8.83,2.025h-14.26c-.21,0-.32.108-.32.324v23.004c0,.54-.27.81-.81.81h-6.16c-.54,0-.81-.27-.81-.81v-55.161c0-.54.27-.81.81-.81h21.87Zm-1.05,26.325c2.97,0,5.35-.891,7.13-2.673c1.83-1.782,2.75-4.131,2.75-7.047c0-2.97-.92-5.346-2.75-7.128-1.78-1.836-4.16-2.754-7.13-2.754h-13.53c-.21,0-.32.108-.32.324v18.954c0,.216.11.324.32.324h13.53Zm34.73,23.328c-.05.108-.05.216,0,.324.06.054.14.081.24.081h24.39c.54,0,.81.27.81.81v5.103c0,.54-.27.81-.81.81h-33.94c-.54,0-.81-.27-.81-.81v-4.941c0-.378.13-.702.4-.972c1.84-2.106,6.05-7.047,12.64-14.823l5.59-6.723c5.02-5.994,7.53-10.638,7.53-13.932c0-2.538-.86-4.563-2.59-6.075-1.68-1.566-3.92-2.349-6.73-2.349-2.8,0-5.04.783-6.72,2.349-1.67,1.566-2.48,3.618-2.43,6.156v2.43c0,.54-.27.81-.81.81h-6.24c-.54,0-.81-.27-.81-.81v-3.483c.11-2.808.9-5.292,2.35-7.452c1.52-2.16,3.54-3.807,6.08-4.941c2.54-1.188,5.4-1.782,8.58-1.782c3.46,0,6.48.648,9.08,1.944c2.59,1.296,4.59,3.078,5.99,5.346s2.11,4.833,2.11,7.695c0,4.482-2.43,9.774-7.29,15.876-2.16,2.754-4.73,5.859-7.7,9.315-2.97,3.402-5.94,6.75-8.91,10.044ZM4438.31,725c-.49,0-.79-.216-.89-.648l-15.23-55.161-.08-.243c0-.432.27-.648.81-.648h6.56c.48,0,.78.243.89.729l10.61,40.338c.05.108.11.162.16.162.11,0,.19-.054.25-.162l10.04-40.338c.11-.486.4-.729.89-.729h6.4c.49,0,.78.243.89.729l10.61,40.419c.06.108.11.162.16.162.06,0,.11-.054.17-.162l10.69-40.419c.11-.486.4-.729.89-.729h6.15c.27,0,.46.081.57.243.16.162.22.378.16.648l-14.66,55.08c-.11.486-.4.729-.89.729h-6.24c-.48,0-.78-.243-.89-.729l-10.61-41.796c-.05-.162-.11-.243-.16-.243s-.11.081-.16.243l-10.29,41.796c-.05.486-.35.729-.89.729h-5.91Zm75.99.648c-4.15,0-7.77-.648-10.85-1.944-3.02-1.296-5.37-3.132-7.05-5.508-1.62-2.376-2.43-5.157-2.43-8.343v-2.349c0-.54.27-.81.81-.81h5.92c.54,0,.81.27.81.81v1.944c0,2.754,1.18,5.022,3.56,6.804s5.64,2.673,9.8,2.673c3.73,0,6.54-.783,8.43-2.349s2.83-3.618,2.83-6.156c0-1.674-.49-3.105-1.46-4.293s-2.4-2.268-4.29-3.24c-1.84-1.026-4.54-2.241-8.1-3.645-3.94-1.512-7.07-2.889-9.4-4.131-2.26-1.242-4.15-2.862-5.67-4.86-1.51-2.052-2.26-4.617-2.26-7.695c0-4.644,1.64-8.289,4.94-10.935c3.34-2.646,7.85-3.969,13.52-3.969c4,0,7.51.675,10.53,2.025c3.03,1.35,5.35,3.24,6.97,5.67c1.67,2.43,2.51,5.238,2.51,8.424v1.62c0,.54-.27.81-.81.81h-6.07c-.54,0-.81-.27-.81-.81v-1.215c0-2.808-1.14-5.13-3.41-6.966-2.21-1.89-5.29-2.835-9.23-2.835-3.35,0-5.94.702-7.78,2.106-1.83,1.35-2.75,3.321-2.75,5.913c0,1.782.46,3.24,1.38,4.374.91,1.134,2.26,2.16,4.05,3.078c1.83.864,4.61,1.998,8.34,3.402c3.83,1.512,6.94,2.916,9.31,4.212c2.38,1.242,4.35,2.916,5.92,5.022c1.56,2.052,2.35,4.617,2.35,7.695c0,4.752-1.76,8.532-5.27,11.34-3.45,2.754-8.23,4.131-14.34,4.131Zm61.64-56.538c0-.54.27-.81.81-.81h6.15c.54,0,.81.27.81.81v55.08c0,.54-.27.81-.81.81h-6.15c-.54,0-.81-.27-.81-.81v-24.057c0-.216-.11-.324-.33-.324h-23.08c-.22,0-.33.108-.33.324v24.057c0,.54-.27.81-.81.81h-6.15c-.54,0-.81-.27-.81-.81v-55.08c0-.54.27-.81.81-.81h6.15c.54,0,.81.27.81.81v23.652c0,.216.11.324.33.324h23.08c.22,0,.33-.108.33-.324v-23.652Z" fill="#333"/><path d="M4937.71,668.219c3.29,0,6.18.702,8.66,2.106c2.54,1.35,4.48,3.267,5.83,5.751c1.41,2.484,2.11,5.346,2.11,8.586s-.7,6.075-2.11,8.505c-1.4,2.43-3.4,4.32-5.99,5.67-2.54,1.35-5.48,2.025-8.83,2.025h-14.25c-.22,0-.33.108-.33.324v23.004c0,.54-.27.81-.81.81h-6.15c-.54,0-.81-.27-.81-.81v-55.161c0-.54.27-.81.81-.81h21.87Zm-1.06,26.325c2.97,0,5.35-.891,7.13-2.673c1.84-1.782,2.75-4.131,2.75-7.047c0-2.97-.91-5.346-2.75-7.128-1.78-1.836-4.16-2.754-7.13-2.754h-13.52c-.22,0-.33.108-.33.324v18.954c0,.216.11.324.33.324h13.52Zm34.73,23.328c-.05.108-.05.216,0,.324.06.054.14.081.25.081h24.38c.54,0,.81.27.81.81v5.103c0,.54-.27.81-.81.81h-33.94c-.54,0-.81-.27-.81-.81v-4.941c0-.378.13-.702.4-.972c1.84-2.106,6.05-7.047,12.64-14.823l5.59-6.723c5.02-5.994,7.53-10.638,7.53-13.932c0-2.538-.86-4.563-2.59-6.075-1.68-1.566-3.92-2.349-6.72-2.349-2.81,0-5.05.783-6.73,2.349-1.67,1.566-2.48,3.618-2.43,6.156v2.43c0,.54-.27.81-.81.81h-6.23c-.54,0-.81-.27-.81-.81v-3.483c.1-2.808.89-5.292,2.34-7.452c1.52-2.16,3.54-3.807,6.08-4.941c2.54-1.188,5.4-1.782,8.59-1.782c3.45,0,6.48.648,9.07,1.944s4.59,3.078,5.99,5.346c1.41,2.268,2.11,4.833,2.11,7.695c0,4.482-2.43,9.774-7.29,15.876-2.16,2.754-4.73,5.859-7.7,9.315-2.97,3.402-5.94,6.75-8.91,10.044Zm72.25-49.572c.54,0,.81.27.81.81v5.184c0,.54-.27.81-.81.81h-15.55c-.22,0-.33.108-.33.324v48.762c0,.54-.27.81-.81.81h-6.15c-.54,0-.81-.27-.81-.81v-48.762c0-.216-.11-.324-.33-.324h-14.82c-.54,0-.81-.27-.81-.81v-5.184c0-.54.27-.81.81-.81h38.8Zm42.79,56.7c-.44,0-.73-.189-.89-.567l-11.34-24.219c-.06-.162-.17-.243-.33-.243h-11.66c-.22,0-.33.108-.33.324v23.895c0,.54-.27.81-.81.81h-6.15c-.54,0-.81-.27-.81-.81v-55.08c0-.54.27-.81.81-.81h21.79c3.24,0,6.07.675,8.5,2.025c2.49,1.35,4.4,3.24,5.75,5.67s2.03,5.238,2.03,8.424c0,3.78-1,6.993-3,9.639-1.94,2.592-4.67,4.347-8.18,5.265-.22.108-.27.243-.16.405l11.74,24.3c.06.108.08.243.08.405c0,.378-.21.567-.64.567h-6.4Zm-24.22-49.977c-.22,0-.33.108-.33.324v18.144c0,.216.11.324.33.324h13.52c2.87,0,5.16-.837,6.89-2.511c1.73-1.728,2.59-3.996,2.59-6.804c0-2.862-.86-5.157-2.59-6.885s-4.02-2.592-6.89-2.592h-13.52Z" fill="#333"/><path d="M1759.41,725.729c-3.95,0-7.43-.81-10.45-2.43-3.03-1.62-5.38-3.888-7.05-6.804-1.67-2.97-2.51-6.372-2.51-10.206v-19.278c0-3.834.84-7.209,2.51-10.125s4.02-5.184,7.05-6.804c3.02-1.62,6.5-2.43,10.45-2.43c3.99,0,7.5.81,10.53,2.43c3.02,1.62,5.37,3.888,7.04,6.804c1.68,2.916,2.51,6.291,2.51,10.125v19.278c0,3.834-.83,7.236-2.51,10.206-1.67,2.916-4.02,5.184-7.04,6.804-3.03,1.62-6.54,2.43-10.53,2.43Zm0-6.723c3.67,0,6.64-1.134,8.91-3.402c2.26-2.268,3.4-5.265,3.4-8.991v-19.683c0-3.78-1.14-6.804-3.4-9.072-2.27-2.322-5.24-3.483-8.91-3.483-3.68,0-6.65,1.161-8.91,3.483-2.22,2.268-3.33,5.292-3.33,9.072v19.683c0,3.726,1.11,6.723,3.33,8.991c2.26,2.268,5.23,3.402,8.91,3.402Zm54.11-50.787c3.29,0,6.18.702,8.67,2.106c2.53,1.35,4.48,3.267,5.83,5.751c1.4,2.484,2.1,5.346,2.1,8.586s-.7,6.075-2.1,8.505c-1.41,2.43-3.4,4.32-6,5.67-2.53,1.35-5.48,2.025-8.82,2.025h-14.26c-.22,0-.32.108-.32.324v23.004c0,.54-.27.81-.81.81h-6.16c-.54,0-.81-.27-.81-.81v-55.161c0-.54.27-.81.81-.81h21.87Zm-1.05,26.325c2.97,0,5.34-.891,7.12-2.673c1.84-1.782,2.76-4.131,2.76-7.047c0-2.97-.92-5.346-2.76-7.128-1.78-1.836-4.15-2.754-7.12-2.754h-13.53c-.22,0-.32.108-.32.324v18.954c0,.216.1.324.32.324h13.53ZM1835.53,725c-.54,0-.81-.27-.81-.81v-4.455c0-.54.27-.81.81-.81h34.67c.54,0,.81.27.81.81v4.455c0,.54-.27.81-.81.81h-34.67Zm76.47,0c-.43,0-.73-.189-.89-.567l-11.34-24.219c-.05-.162-.16-.243-.32-.243h-11.67c-.21,0-.32.108-.32.324v23.895c0,.54-.27.81-.81.81h-6.16c-.54,0-.81-.27-.81-.81v-55.08c0-.54.27-.81.81-.81h21.79c3.24,0,6.08.675,8.51,2.025c2.48,1.35,4.4,3.24,5.75,5.67s2.02,5.238,2.02,8.424c0,3.78-1,6.993-3,9.639-1.94,2.592-4.67,4.347-8.18,5.265-.21.108-.27.243-.16.405l11.75,24.3c.05.108.08.243.08.405c0,.378-.22.567-.65.567h-6.4Zm-24.22-49.977c-.21,0-.32.108-.32.324v18.144c0,.216.11.324.32.324h13.53c2.86,0,5.16-.837,6.88-2.511c1.73-1.728,2.6-3.996,2.6-6.804c0-2.862-.87-5.157-2.6-6.885-1.72-1.728-4.02-2.592-6.88-2.592h-13.53Zm79.24-.81c0,.54-.27.81-.81.81h-28.75c-.22,0-.33.108-.33.324v17.415c0,.216.11.324.33.324h19.76c.54,0,.81.27.81.81v5.103c0,.54-.27.81-.81.81h-19.76c-.22,0-.33.108-.33.324v17.82c0,.216.11.324.33.324h28.75c.54,0,.81.27.81.81v5.103c0,.54-.27.81-.81.81h-36.04c-.54,0-.81-.27-.81-.81v-55.08c0-.54.27-.81.81-.81h36.04c.54,0,.81.27.81.81v5.103Zm46.79-5.913c.54,0,.81.27.81.81v5.184c0,.54-.27.81-.81.81h-15.55c-.22,0-.32.108-.32.324v48.762c0,.54-.27.81-.81.81h-6.16c-.54,0-.81-.27-.81-.81v-48.762c0-.216-.11-.324-.32-.324h-14.83c-.54,0-.81-.27-.81-.81v-5.184c0-.54.27-.81.81-.81h38.8Zm29.83,57.348c-3.94,0-7.43-.756-10.45-2.268-2.97-1.566-5.29-3.753-6.97-6.561-1.67-2.862-2.51-6.129-2.51-9.801v-37.908c0-.54.27-.81.81-.81h6.16c.54,0,.81.27.81.81v38.07c0,3.51,1.11,6.345,3.32,8.505c2.27,2.16,5.21,3.24,8.83,3.24s6.53-1.08,8.75-3.24c2.21-2.16,3.32-4.995,3.32-8.505v-38.07c0-.54.27-.81.81-.81h6.15c.54,0,.81.27.81.81v37.908c0,3.672-.83,6.939-2.51,9.801-1.62,2.808-3.94,4.995-6.96,6.561-2.97,1.512-6.43,2.268-10.37,2.268Zm64.85-.648c-.43,0-.73-.189-.89-.567l-11.34-24.219c-.06-.162-.16-.243-.33-.243h-11.66c-.22,0-.32.108-.32.324v23.895c0,.54-.27.81-.81.81h-6.16c-.54,0-.81-.27-.81-.81v-55.08c0-.54.27-.81.81-.81h21.79c3.24,0,6.07.675,8.5,2.025c2.49,1.35,4.4,3.24,5.75,5.67s2.03,5.238,2.03,8.424c0,3.78-1,6.993-3,9.639-1.94,2.592-4.67,4.347-8.18,5.265-.21.108-.27.243-.16.405l11.74,24.3c.06.108.09.243.09.405c0,.378-.22.567-.65.567h-6.4Zm-24.22-49.977c-.22,0-.32.108-.32.324v18.144c0,.216.1.324.32.324h13.53c2.86,0,5.15-.837,6.88-2.511c1.73-1.728,2.59-3.996,2.59-6.804c0-2.862-.86-5.157-2.59-6.885s-4.02-2.592-6.88-2.592h-13.53Zm74.95-5.913c0-.54.27-.81.81-.81h6.15c.54,0,.81.27.81.81v55.08c0,.54-.27.81-.81.81h-5.91c-.38,0-.7-.189-.97-.567l-25.35-41.391c-.06-.162-.14-.216-.25-.162-.11,0-.16.081-.16.243l.08,41.067c0,.54-.27.81-.81.81h-6.15c-.54,0-.81-.27-.81-.81v-55.08c0-.54.27-.81.81-.81h5.99c.38,0,.7.189.97.567l25.27,41.391c.06.162.14.243.25.243.1-.054.16-.162.16-.324l-.08-41.067Z" fill="#333"/><path d="M151,794v53.421c0,6.075,4.925,11,11,11h1130.34c8.09,0,15.89,2.971,21.94,8.347L1383.09,928l63.35-60.453c6.14-5.858,14.29-9.126,22.78-9.126h1280.78c6.08,0,11-4.925,11-11v-53.421" fill="none" stroke="#333" stroke-width="15"/><path d="M3679,794v53.421c0,6.075,4.92,11,11,11h634.64c11.2,0,21.63,5.681,27.71,15.088L4387.57,928l32.31-53.613c5.97-9.908,16.69-15.966,28.26-15.966h720.86c6.08,0,11-4.925,11-11v-53.421" fill="none" stroke="#333" stroke-width="15"/><g id="eVrvNtwK0EW44_to" transform="translate(3597,355)"><g transform="translate(-3597,-355)"><path d="M3494.02,354c-.76,0-1.43-.286-2-.857-.57-.572-.86-1.238-.86-2v-28.572c0-2.285.86-4.285,2.58-6c1.71-1.714,3.71-2.571,6-2.571h11.42c2.29,0,4.29.857,6,2.571c1.72,1.715,2.58,3.715,2.58,6v28.572c0,.762-.29,1.428-.86,2-.57.571-1.24.857-2,.857s-1.43-.286-2-.857c-.57-.572-.86-1.238-.86-2v-14.286h-17.14v14.286c0,.762-.29,1.428-.86,2-.57.571-1.24.857-2,.857Zm2.86-22.857h17.14v-8.572c0-.761-.28-1.428-.86-2-.57-.571-1.23-.857-2-.857h-11.42c-.77,0-1.43.286-2,.857-.58.572-.86,1.239-.86,2v8.572Zm48.56,0h-2.86v20c0,.762-.28,1.428-.85,2-.57.571-1.24.857-2,.857-.77,0-1.43-.286-2-.857-.57-.572-.86-1.238-.86-2v-20h-2.86c-.76,0-1.43-.286-2-.857-.57-.572-.85-1.238-.85-2s.28-1.429.85-2c.57-.572,1.24-.857,2-.857h2.86v-2.858c0-2.285.86-4.285,2.57-6c1.72-1.714,3.72-2.571,6-2.571h5.72c.76,0,1.42.286,2,.857.57.572.85,1.238.85,2s-.28,1.429-.85,2c-.58.572-1.24.857-2,.857h-5.72c-.76,0-1.43.286-2,.857-.57.572-.86,1.239-.86,2v2.858h2.86c.76,0,1.43.285,2,.857.57.571.86,1.238.86,2s-.29,1.428-.86,2c-.57.571-1.24.857-2,.857Zm22.85,0c-.76,0-1.43-.286-2-.857-.57-.572-.86-1.238-.86-2s.29-1.429.86-2c.57-.572,1.24-.857,2-.857h2.86v-8.572c0-.762.28-1.428.85-2c.58-.571,1.24-.857,2-.857.77,0,1.43.286,2,.857.58.572.86,1.238.86,2v8.572h8.57c.76,0,1.43.285,2,.857.57.571.86,1.238.86,2s-.29,1.428-.86,2c-.57.571-1.24.857-2,.857h-8.57v14.286c0,.761.29,1.428.86,2c.57.571,1.24.857,2,.857h5.71c.76,0,1.43.285,2,.857.57.571.86,1.238.86,2s-.29,1.428-.86,2c-.57.571-1.24.857-2,.857h-5.71c-2.29,0-4.29-.857-6-2.571-1.72-1.715-2.57-3.715-2.57-6v-14.286h-2.86ZM3602.57,354c-2.29,0-4.29-.857-6-2.571-1.72-1.715-2.57-3.715-2.57-6v-11.429c0-2.286.85-4.286,2.57-6c1.71-1.714,3.71-2.571,6-2.571h11.43c2.28,0,4.28.857,6,2.571c1.71,1.714,2.57,3.714,2.57,6v5.714c0,.762-.29,1.429-.86,2-.57.572-1.24.857-2,.857h-20v2.858c0,.761.29,1.428.86,2c.57.571,1.24.857,2,.857h11.43c.76,0,1.42.285,2,.857.57.571.85,1.238.85,2s-.28,1.428-.85,2c-.58.571-1.24.857-2,.857h-11.43Zm-2.86-17.143h17.14v-2.857c0-.762-.28-1.429-.85-2-.58-.571-1.24-.857-2-.857h-11.43c-.76,0-1.43.286-2,.857s-.86,1.238-.86,2v2.857Zm39.99-5.714v20c0,.762-.28,1.428-.86,2-.57.571-1.23.857-2,.857-.76,0-1.42-.286-2-.857-.57-.572-.85-1.238-.85-2v-22.857c0-.762.28-1.429.85-2c.58-.572,1.24-.857,2-.857h11.43c2.29,0,4.29.857,6,2.571c1.72,1.714,2.57,3.714,2.57,6c0,.762-.28,1.429-.85,2s-1.24.857-2,.857-1.43-.286-2-.857-.86-1.238-.86-2-.29-1.429-.86-2-1.23-.857-2-.857h-8.57Z" fill="#e77429"/><path d="M3460,373.753h274m0,0L3701.51,351M3734,373.753L3701.51,396" fill="none" stroke="#f1760d" stroke-width="4"/></g></g></svg>
