<svg id="ewojQ1u5HnV1" xmlns="http://www.w3.org/2000/svg" xmlns:xlink="http://www.w3.org/1999/xlink" viewBox="0 0 935 343" shape-rendering="geometricPrecision" text-rendering="geometricPrecision">
<style><![CDATA[
#ewojQ1u5HnV8_to {animation: ewojQ1u5HnV8_to__to 1000ms linear infinite normal forwards}@keyframes ewojQ1u5HnV8_to__to { 0% {transform: translate(130.25px,84.244183px)} 50% {transform: translate(113.25px,84.244183px)} 100% {transform: translate(130.25px,84.244183px)}} #ewojQ1u5HnV11_tr {animation: ewojQ1u5HnV11_tr__tr 1000ms linear infinite normal forwards}@keyframes ewojQ1u5HnV11_tr__tr { 0% {transform: translate(196px,115.932347px) rotate(0deg)} 50% {transform: translate(196px,115.932347px) rotate(-19.15437deg)} 100% {transform: translate(196px,115.932347px) rotate(0deg)}}
]]></style>
<rect width="611" height="176" rx="0" ry="0" transform="translate(162 84)" fill="#f5f5f6"/><rect width="148" height="112" rx="0" ry="0" transform="translate(196 116)" fill="#696a71" stroke="#696a71" stroke-width="2"/><rect width="148" height="112" rx="0" ry="0" transform="translate(592 116)" fill="none" stroke="#696a71" stroke-width="2" stroke-opacity="0.44" stroke-dasharray="12,12"/><rect width="246" height="2" rx="0" ry="0" transform="translate(345 172)" fill="#696a71" fill-opacity="0.44"/><path d="M245.245,180c-.254,0-.476-.095-.667-.286-.19-.19-.285-.412-.285-.666s.095-.477.285-.667c.191-.191.413-.286.667-.286h.952v-9.524h-.952c-.254,0-.476-.095-.667-.285-.19-.191-.285-.413-.285-.667s.095-.476.285-.667c.191-.19.413-.285.667-.285h3.81c.254,0,.476.095.666.285.191.191.286.413.286.667s-.095.476-.286.667c-.19.19-.412.285-.666.285h-.953v9.524h.953c.254,0,.476.095.666.286.191.19.286.413.286.667s-.095.476-.286.666c-.19.191-.412.286-.666.286h-3.81Zm10.473-7.619v6.667c0,.254-.095.476-.285.666-.191.191-.413.286-.667.286s-.476-.095-.667-.286c-.19-.19-.285-.412-.285-.666v-7.619c0-.254.095-.477.285-.667.191-.191.413-.286.667-.286h5.714c.762,0,1.429.286,2,.857.572.572.858,1.238.858,2v5.715c0,.254-.096.476-.286.666-.191.191-.413.286-.667.286s-.476-.095-.667-.286c-.19-.19-.285-.412-.285-.666v-5.715c0-.254-.095-.476-.286-.666-.19-.191-.413-.286-.667-.286h-4.762Zm16.188,5.714h-4.762v2.857c0,.254-.095.477-.285.667-.191.191-.413.286-.667.286s-.476-.089-.667-.267c-.19-.178-.286-.406-.286-.686v-9.523c0-.254.096-.477.286-.667.191-.191.413-.286.667-.286h5.714c.762,0,1.429.286,2,.857.572.572.857,1.238.857,2v1.905c0,.762-.285,1.429-.857,2-.571.572-1.238.857-2,.857Zm-4.762-1.905h4.762c.254,0,.476-.095.667-.285.19-.191.286-.413.286-.667v-1.905c0-.254-.096-.476-.286-.666-.191-.191-.413-.286-.667-.286h-4.762v3.809Zm17.14,1.905v-6.666c0-.254.096-.477.286-.667.191-.191.413-.286.667-.286s.476.095.666.286c.191.19.286.413.286.667v7.619c0,.254-.095.476-.286.666-.19.191-.412.286-.666.286h-5.715c-.761,0-1.428-.286-2-.857-.571-.572-.857-1.238-.857-2v-5.714c0-.254.096-.477.286-.667.19-.191.413-.286.667-.286s.476.095.666.286c.191.19.286.413.286.667v5.714c0,.254.095.476.286.667.19.19.412.285.666.285h4.762Zm6.664-5.714c-.254,0-.476-.095-.666-.286-.191-.19-.286-.412-.286-.666s.095-.477.286-.667c.19-.191.412-.286.666-.286h.953v-2.857c0-.254.095-.476.285-.667.191-.19.413-.285.667-.285s.476.095.667.285c.19.191.285.413.285.667v2.857h2.857c.254,0,.477.095.667.286.191.19.286.413.286.667s-.095.476-.286.666c-.19.191-.413.286-.667.286h-2.857v4.762c0,.254.096.476.286.667.191.19.413.285.667.285h1.904c.254,0,.477.095.667.286.191.19.286.413.286.667s-.095.476-.286.666c-.19.191-.413.286-.667.286h-1.904c-.762,0-1.429-.286-2-.857-.572-.572-.857-1.238-.857-2v-4.762h-.953Z" fill="#f5f5f6"/><path d="M634.81,179c-.762,0-1.429-.286-2-.857-.572-.572-.858-1.238-.858-2v-7.619c0-.762.286-1.429.858-2c.571-.572,1.238-.857,2-.857h3.809c.762,0,1.429.285,2,.857.571.571.857,1.238.857,2v7.619c0,.762-.286,1.428-.857,2-.571.571-1.238.857-2,.857h-3.809Zm4.761-10.476c0-.254-.095-.476-.285-.667-.191-.19-.413-.286-.667-.286h-3.809c-.254,0-.477.096-.667.286-.191.191-.286.413-.286.667v7.619c0,.254.095.476.286.667.19.19.413.285.667.285h3.809c.254,0,.476-.095.667-.285.19-.191.285-.413.285-.667v-7.619Zm11.426,8.571v-6.666c0-.254.095-.477.286-.667.19-.191.413-.286.667-.286s.476.095.666.286c.191.19.286.413.286.667v7.619c0,.254-.095.476-.286.666-.19.191-.412.286-.666.286h-5.715c-.762,0-1.428-.286-2-.857-.571-.572-.857-1.238-.857-2v-5.714c0-.254.095-.477.286-.667.19-.191.413-.286.667-.286s.476.095.666.286c.191.19.286.413.286.667v5.714c0,.254.095.476.286.667.19.19.412.285.666.285h4.762Zm6.664-5.714c-.254,0-.476-.095-.667-.286-.19-.19-.285-.412-.285-.666s.095-.477.285-.667c.191-.191.413-.286.667-.286h.952v-2.857c0-.254.096-.476.286-.667.191-.19.413-.285.667-.285s.476.095.667.285c.19.191.285.413.285.667v2.857h2.857c.254,0,.477.095.667.286.191.19.286.413.286.667s-.095.476-.286.666c-.19.191-.413.286-.667.286h-2.857v4.762c0,.254.095.476.286.667.19.19.413.285.667.285h1.904c.254,0,.477.095.667.286.191.19.286.413.286.667s-.095.476-.286.666c-.19.191-.413.286-.667.286h-1.904c-.762,0-1.429-.286-2-.857-.572-.572-.858-1.238-.858-2v-4.762h-.952Zm15.235,5.714h-4.762v2.857c0,.254-.095.477-.285.667-.191.191-.413.286-.667.286s-.476-.089-.667-.267c-.19-.178-.285-.406-.285-.686v-9.523c0-.254.095-.477.285-.667.191-.191.413-.286.667-.286h5.714c.762,0,1.429.286,2,.857.572.572.858,1.238.858,2v1.905c0,.762-.286,1.429-.858,2-.571.572-1.238.857-2,.857Zm-4.762-1.905h4.762c.254,0,.477-.095.667-.285.191-.191.286-.413.286-.667v-1.905c0-.254-.095-.476-.286-.666-.19-.191-.413-.286-.667-.286h-4.762v3.809Zm17.141,1.905v-6.666c0-.254.095-.477.285-.667.191-.191.413-.286.667-.286s.476.095.667.286c.19.19.285.413.285.667v7.619c0,.254-.095.476-.285.666-.191.191-.413.286-.667.286h-5.714c-.762,0-1.429-.286-2-.857-.572-.572-.857-1.238-.857-2v-5.714c0-.254.095-.477.285-.667.191-.191.413-.286.667-.286s.476.095.667.286c.19.19.285.413.285.667v5.714c0,.254.096.476.286.667.19.19.413.285.667.285h4.762Zm6.663-5.714c-.254,0-.476-.095-.666-.286-.191-.19-.286-.412-.286-.666s.095-.477.286-.667c.19-.191.412-.286.666-.286h.953v-2.857c0-.254.095-.476.286-.667.19-.19.412-.285.666-.285s.476.095.667.285c.19.191.286.413.286.667v2.857h2.857c.254,0,.476.095.666.286.191.19.286.413.286.667s-.095.476-.286.666c-.19.191-.412.286-.666.286h-2.857v4.762c0,.254.095.476.285.667.191.19.413.285.667.285h1.905c.254,0,.476.095.666.286.191.19.286.413.286.667s-.095.476-.286.666c-.19.191-.412.286-.666.286h-1.905c-.762,0-1.429-.286-2-.857-.571-.572-.857-1.238-.857-2v-4.762h-.953Z" fill="#696a71" fill-opacity="0.44"/><g id="ewojQ1u5HnV8_to" transform="translate(130.25,84.244183)"><g transform="translate(-138.501852,-91.594278)"><path d="M182.706,147.785c.391.39.391,1.024,0,1.414l-6.365,6.363c-.39.391-1.023.391-1.414,0-.39-.391-.39-1.024,0-1.414l5.658-5.656-5.656-5.658c-.391-.39-.39-1.024,0-1.414.391-.391,1.024-.391,1.414,0l6.363,6.365Zm-31.271-14.546l.953-.304-.953.304ZM109.27,97.5011l.942.3371-.942-.3371ZM115.94,81.84l-5.728,15.9982-1.883-.6742l5.728-15.9982l1.883.6742Zm34.322,44.42l2.126,6.675-1.906.607-2.126-6.675l1.906-.607Zm22.035,21.231l9.702.001v2l-9.702-.001v-2Zm-19.909-14.556c2.761,8.668,10.812,14.554,19.909,14.556v2c-9.968-.002-18.79-6.451-21.815-15.949l1.906-.607Zm-23.546-16.933c8.762-3.391,18.568,1.306,21.42,10.258l-1.906.607c-2.502-7.854-11.105-11.975-18.793-9l-.721-1.865Zm-18.63-18.1638c-4.13,11.5338,7.204,22.5848,18.63,18.1638l.721,1.865c-13.023,5.039-25.942-7.556-21.234-20.703l1.883.6742Z" transform="translate(-.462404-18.393185)" fill="#f1760f"/><path d="M33.766,44h-4.7619c-.9524,0-1.7857-.3571-2.5-1.0714s-1.0714-1.5476-1.0714-2.5v-11.9048c0-.3175.119-.5952.3571-.8333s.5159-.3572.8333-.3572.5953.1191.8334.3572.3571.5158.3571.8333v11.9048c0,.3174.1191.5952.3572.8333s.5158.3571.8333.3571h4.7619c.3175,0,.5952-.119.8333-.3571s.3572-.5159.3572-.8333v-11.9048c0-.3175.119-.5952.3571-.8333s.5159-.3572.8333-.3572.5953.1191.8334.3572.3571.5158.3571.8333v11.9048c0,.9524-.3571,1.7857-1.0714,2.5s-1.5476,1.0714-2.5,1.0714Zm8.3298-9.5238v8.3333c0,.3175-.119.5953-.3571.8334s-.5159.3571-.8333.3571c-.3175,0-.5953-.119-.8334-.3571s-.3571-.5159-.3571-.8334v-9.5238c0-.3174.119-.5952.3571-.8333s.5159-.3572.8334-.3572h7.1428c.9524,0,1.7857.3572,2.5,1.0715s1.0715,1.5476,1.0715,2.5v7.1428c0,.3175-.1191.5953-.3572.8334s-.5159.3571-.8333.3571c-.3175,0-.5953-.119-.8334-.3571s-.3571-.5159-.3571-.8334v-7.1428c0-.3175-.119-.5953-.3571-.8334s-.5159-.3571-.8334-.3571h-5.9524ZM56.3781,41.619h8.3333c.3175,0,.5952.1191.8333.3572s.3572.5159.3572.8333c0,.3175-.1191.5953-.3572.8334s-.5158.3571-.8333.3571h-9.5238c-.3175,0-.5952-.119-.8333-.3571s-.3572-.5159-.3572-.8334v-14.2857c0-.3175.1191-.5952.3572-.8333s.5158-.3572.8333-.3572.5952.1191.8333.3572.3572.5158.3572.8333v13.0952ZM71.8508,44c-.9524,0-1.7857-.3571-2.5-1.0714s-1.0715-1.5476-1.0715-2.5v-4.7619c0-.9524.3572-1.7857,1.0715-2.5s1.5476-1.0715,2.5-1.0715h4.7619c.9524,0,1.7857.3572,2.5,1.0715s1.0714,1.5476,1.0714,2.5v4.7619c0,.9524-.3571,1.7857-1.0714,2.5s-1.5476,1.0714-2.5,1.0714h-4.7619Zm5.9524-8.3333c0-.3175-.1191-.5953-.3572-.8334s-.5159-.3571-.8333-.3571h-4.7619c-.3175,0-.5953.119-.8334.3571s-.3571.5159-.3571.8334v4.7619c0,.3174.119.5952.3571.8333s.5159.3571.8334.3571h4.7619c.3174,0,.5952-.119.8333-.3571s.3572-.5159.3572-.8333v-4.7619ZM86.133,44c-.9524,0-1.7857-.3571-2.5-1.0714s-1.0714-1.5476-1.0714-2.5v-4.7619c0-.9524.3571-1.7857,1.0714-2.5s1.5476-1.0715,2.5-1.0715h4.7619c.9524,0,1.7857.3572,2.5,1.0715s1.0714,1.5476,1.0714,2.5c0,.3174-.119.5952-.3571.8333s-.5159.3571-.8333.3571-.5953-.119-.8334-.3571-.3571-.5159-.3571-.8333-.1191-.5953-.3572-.8334-.5158-.3571-.8333-.3571h-4.7619c-.3175,0-.5952.119-.8333.3571s-.3572.5159-.3572.8334v4.7619c0,.3174.1191.5952.3572.8333s.5158.3571.8333.3571h4.7619c.3175,0,.5952-.119.8333-.3571s.3572-.5159.3572-.8333c0-.3175.119-.5953.3571-.8334s.5159-.3571.8334-.3571.5952.119.8333.3571.3571.5159.3571.8334c0,.9524-.3571,1.7857-1.0714,2.5s-1.5476,1.0714-2.5,1.0714h-4.7619Zm21.425,0c-.317,0-.595-.119-.833-.3571l-3.929-3.9286-1.19,1.1905v1.9047c0,.3175-.119.5953-.357.8334-.239.2381-.516.3571-.834.3571-.317,0-.595-.119-.8331-.3571s-.3572-.5159-.3572-.8334v-14.2857c0-.3175.1191-.5952.3572-.8333s.5161-.3572.8331-.3572c.318,0,.595.1191.834.3572.238.2381.357.5158.357.8333v9l5.119-5.0714c.238-.2381.516-.3572.833-.3572.318,0,.595.1191.833.3572.239.2381.358.5159.358.8333c0,.3175-.119.5953-.358.8333L104.463,38l3.928,3.9762c.239.2381.358.5159.358.8333c0,.3175-.119.5953-.358.8334-.238.2381-.515.3571-.833.3571Zm8.33-9.5238h-1.191c-.317,0-.595-.1191-.833-.3572-.238-.238-.357-.5158-.357-.8333c0-.3174.119-.5952.357-.8333s.516-.3572.833-.3572h2.381c.318,0,.596.1191.834.3572s.357.5159.357.8333v8.3333h1.19c.318,0,.596.1191.834.3572s.357.5159.357.8333c0,.3175-.119.5953-.357.8334s-.516.3571-.834.3571h-4.762c-.317,0-.595-.119-.833-.3571s-.357-.5159-.357-.8334c0-.3174.119-.5952.357-.8333s.516-.3572.833-.3572h1.191v-7.1428Zm1.19-4.7619c-.317,0-.595-.1191-.833-.3572s-.357-.5158-.357-.8333.119-.5952.357-.8333.516-.3572.833-.3572c.318,0,.596.1191.834.3572s.357.5158.357.8333-.119.5952-.357.8333-.516.3572-.834.3572Zm10.711,4.7619v8.3333c0,.3175-.119.5953-.357.8334s-.516.3571-.833.3571c-.318,0-.596-.119-.834-.3571s-.357-.5159-.357-.8334v-9.5238c0-.3174.119-.5952.357-.8333s.516-.3572.834-.3572h7.143c.952,0,1.785.3572,2.5,1.0715.714.7143,1.071,1.5476,1.071,2.5v7.1428c0,.3175-.119.5953-.357.8334s-.516.3571-.833.3571c-.318,0-.596-.119-.834-.3571s-.357-.5159-.357-.8334v-7.1428c0-.3175-.119-.5953-.357-.8334s-.516-.3571-.833-.3571h-5.953Zm15.473,7.1428c-.952,0-1.786-.3571-2.5-1.0714s-1.072-1.5476-1.072-2.5v-2.3809c0-.9524.358-1.7857,1.072-2.5s1.548-1.0715,2.5-1.0715h7.143c.317,0,.595.1191.833.3572s.357.5159.357.8333v9.5238c0,.9524-.357,1.7857-1.071,2.5s-1.548,1.0715-2.5,1.0715h-4.762c-.318,0-.595-.1191-.833-.3572-.239-.2381-.358-.5159-.358-.8333c0-.3175.119-.5953.358-.8334.238-.2381.515-.3571.833-.3571h4.762c.317,0,.595-.119.833-.3571s.357-.5159.357-.8334v-1.1905h-5.952Zm5.952-2.3809v-4.7619h-5.952c-.318,0-.595.119-.833.3571-.239.2381-.358.5159-.358.8334v2.3809c0,.3175.119.5953.358.8334.238.238.515.3571.833.3571h5.952Zm22.612-2.381c-1.111,0-1.984-.3174-2.619-.9523-.635-.635-.952-1.508-.952-2.6191v-2.3809c0-.9524.317-1.7858.952-2.5.635-.7143,1.508-1.0715,2.619-1.0715h4.762c.953,0,1.786.3572,2.5,1.0715.715.7142,1.072,1.5476,1.072,2.5c0,.3174-.119.5952-.357.8333-.239.2381-.516.3571-.834.3571-.317,0-.595-.119-.833-.3571s-.357-.5159-.357-.8333c0-.3175-.119-.5953-.357-.8334s-.516-.3571-.834-.3571h-4.762c-.317,0-.595.119-.833.3571s-.357.5159-.357.8334v2.3809c0,.3175.119.5953.357.8333.238.2381.516.3572.833.3572h4.762c.953,0,1.786.3571,2.5,1.0714.715.7143,1.072,1.5476,1.072,2.5v2.381c0,1.1111-.357,1.9841-1.072,2.619-.714.6349-1.547.9524-2.5.9524h-4.762c-.952,0-1.785-.3571-2.5-1.0714-.714-.7143-1.071-1.5476-1.071-2.5c0-.3175.119-.5953.357-.8334s.516-.3571.833-.3571c.318,0,.596.119.834.3571s.357.5159.357.8334c0,.3174.119.5952.357.8333s.516.3571.833.3571h4.762c.318,0,.596-.119.834-.3571s.357-.5159.357-.8333v-2.381c0-.3174-.119-.5952-.357-.8333s-.516-.3572-.834-.3572h-4.762ZM186.109,44c-.953,0-1.786-.3571-2.5-1.0714-.715-.7143-1.072-1.5476-1.072-2.5v-4.7619c0-.9524.357-1.7857,1.072-2.5.714-.7143,1.547-1.0715,2.5-1.0715h4.761c.953,0,1.786.3572,2.5,1.0715.715.7143,1.072,1.5476,1.072,2.5c0,.3174-.119.5952-.357.8333s-.516.3571-.834.3571c-.317,0-.595-.119-.833-.3571s-.357-.5159-.357-.8333-.119-.5953-.357-.8334-.516-.3571-.834-.3571h-4.761c-.318,0-.596.119-.834.3571s-.357.5159-.357.8334v4.7619c0,.3174.119.5952.357.8333s.516.3571.834.3571h4.761c.318,0,.596-.119.834-.3571s.357-.5159.357-.8333c0-.3175.119-.5953.357-.8334s.516-.3571.833-.3571c.318,0,.596.119.834.3571s.357.5159.357.8334c0,.9524-.357,1.7857-1.072,2.5-.714.7143-1.547,1.0714-2.5,1.0714h-4.761Zm15.472-9.5238v8.3333c0,.3175-.119.5953-.357.8334s-.516.3571-.833.3571c-.318,0-.595-.119-.834-.3571-.238-.2381-.357-.5159-.357-.8334v-9.5238c0-.3174.119-.5952.357-.8333.239-.2381.516-.3572.834-.3572h4.762c.952,0,1.785.3572,2.5,1.0715.714.7143,1.071,1.5476,1.071,2.5c0,.3174-.119.5952-.357.8333s-.516.3571-.833.3571c-.318,0-.596-.119-.834-.3571s-.357-.5159-.357-.8333-.119-.5953-.357-.8334-.516-.3571-.833-.3571h-3.572Zm14.283,0h-1.191c-.317,0-.595-.1191-.833-.3572-.238-.238-.357-.5158-.357-.8333c0-.3174.119-.5952.357-.8333s.516-.3572.833-.3572h2.381c.317,0,.595.1191.833.3572s.357.5159.357.8333v8.3333h1.191c.317,0,.595.1191.833.3572s.357.5159.357.8333c0,.3175-.119.5953-.357.8334s-.516.3571-.833.3571h-4.762c-.317,0-.595-.119-.833-.3571s-.357-.5159-.357-.8334c0-.3174.119-.5952.357-.8333s.516-.3572.833-.3572h1.191v-7.1428Zm1.19-4.7619c-.317,0-.595-.1191-.833-.3572s-.357-.5158-.357-.8333.119-.5952.357-.8333.516-.3572.833-.3572.595.1191.833.3572.357.5158.357.8333-.119.5952-.357.8333-.516.3572-.833.3572ZM233.717,41.619h-5.952v3.5715c0,.3174-.119.5952-.357.8333s-.516.3572-.834.3572c-.317,0-.595-.1112-.833-.3334s-.357-.5079-.357-.8571v-11.9048c0-.3174.119-.5952.357-.8333s.516-.3572.833-.3572h7.143c.953,0,1.786.3572,2.5,1.0715s1.072,1.5476,1.072,2.5v2.3809c0,.9524-.358,1.7857-1.072,2.5s-1.547,1.0714-2.5,1.0714Zm-5.952-2.3809h5.952c.318,0,.595-.1191.834-.3571.238-.2381.357-.5159.357-.8334v-2.3809c0-.3175-.119-.5953-.357-.8334-.239-.2381-.516-.3571-.834-.3571h-5.952v4.7619Zm15.472-4.7619c-.317,0-.595-.1191-.833-.3572-.238-.238-.357-.5158-.357-.8333c0-.3174.119-.5952.357-.8333s.516-.3572.833-.3572h1.191v-3.5714c0-.3175.119-.5952.357-.8333s.516-.3572.833-.3572c.318,0,.596.1191.834.3572s.357.5158.357.8333v3.5714h3.571c.318,0,.596.1191.834.3572s.357.5159.357.8333c0,.3175-.119.5953-.357.8333-.238.2381-.516.3572-.834.3572h-3.571v5.9524c0,.3174.119.5952.357.8333s.516.3571.833.3571h2.381c.318,0,.596.1191.834.3572s.357.5159.357.8333c0,.3175-.119.5953-.357.8334s-.516.3571-.834.3571h-2.381c-.952,0-1.785-.3571-2.5-1.0714-.714-.7143-1.071-1.5476-1.071-2.5v-5.9524h-1.191ZM88.7995,62c-.6857,0-1.2857-.2571-1.8-.7714s-.7714-1.1143-.7714-1.8v-6.8572c0-.6857.2571-1.2857.7714-1.8s1.1143-.7714,1.8-.7714c.2286,0,.4286.0857.6.2571.1715.1715.2572.3715.2572.6s-.0857.4286-.2572.6c-.1714.1715-.3714.2572-.6.2572-.2285,0-.4285.0857-.6.2571s-.2571.3715-.2571.6v6.8572c0,.2285.0857.4285.2571.6s.3715.2571.6.2571c.2286,0,.4286.0857.6.2572.1715.1714.2572.3714.2572.6s-.0857.4285-.2572.6c-.1714.1714-.3714.2571-.6.2571Zm6.8547-3.4286c-.6858,0-1.2858-.2571-1.8-.7714-.5143-.5143-.7715-1.1143-.7715-1.8s.2572-1.2857.7715-1.8c.5142-.5143,1.1142-.7714,1.8-.7714h5.1428c.229,0,.429.0857.6.2571s.257.3714.257.6-.086.4286-.257.6-.371.2572-.6.2572c-3.2,0-4.9143,0-5.1428,0-.2286,0-.4286.0857-.6.2571s-.2572.3714-.2572.6.0857.4286.2572.6.3714.2571.6.2571h3.4285c.6857,0,1.2853.2572,1.8003.7715.514.5143.771,1.1143.771,1.8s-.257,1.2857-.771,1.8c-.515.5143-1.1146.7714-1.8003.7714h-5.1428c-.2286,0-.4286-.0857-.6-.2571-.1715-.1715-.2572-.3715-.2572-.6s.0857-.4286.2572-.6c.1714-.1715.3714-.2572.6-.2572h5.1428c.2286,0,.4286-.0857.6-.2571.1715-.1715.2572-.3715.2572-.6c0-.2286-.0857-.4286-.2572-.6-.1714-.1715-.3828-.2572-.6343-.2572h-3.3942ZM105.937,62c-.685,0-1.285-.2571-1.8-.7714-.514-.5143-.771-1.1143-.771-1.8v-3.4286c0-.6857.257-1.2857.771-1.8.515-.5143,1.115-.7714,1.8-.7714h3.429c.686,0,1.286.2571,1.8.7714s.771,1.1143.771,1.8c0,.2286-.085.4286-.257.6-.171.1714-.371.2571-.6.2571-.228,0-.428-.0857-.6-.2571-.171-.1714-.257-.3714-.257-.6s-.086-.4286-.257-.6-.371-.2571-.6-.2571h-3.429c-.228,0-.428.0857-.6.2571-.171.1714-.257.3714-.257.6v3.4286c0,.2285.086.4285.257.6.172.1714.372.2571.6.2571h3.429c.229,0,.429-.0857.6-.2571s.257-.3715.257-.6c0-.2286.086-.4286.257-.6.172-.1715.372-.2572.6-.2572.229,0,.429.0857.6.2572.172.1714.257.3714.257.6c0,.6857-.257,1.2857-.771,1.8s-1.114.7714-1.8.7714h-3.429Zm11.141-6.8571v6c0,.2285-.086.4285-.257.6-.172.1714-.372.2571-.6.2571-.229,0-.429-.0857-.6-.2571-.172-.1715-.258-.3715-.258-.6v-6.8572c0-.2286.086-.4286.258-.6.171-.1714.371-.2571.6-.2571h3.428c.686,0,1.286.2571,1.8.7714s.772,1.1143.772,1.8c0,.2286-.086.4286-.258.6-.171.1714-.371.2571-.6.2571-.228,0-.428-.0857-.6-.2571-.171-.1714-.257-.3714-.257-.6s-.085-.4286-.257-.6c-.171-.1714-.371-.2571-.6-.2571h-2.571Zm10.283,0h-.857c-.229,0-.429-.0858-.6-.2572-.172-.1714-.257-.3714-.257-.6s.085-.4286.257-.6c.171-.1714.371-.2571.6-.2571h1.714c.229,0,.429.0857.6.2571s.257.3714.257.6v6h.857c.229,0,.429.0857.6.2572.172.1714.257.3714.257.6s-.085.4285-.257.6c-.171.1714-.371.2571-.6.2571h-3.428c-.229,0-.429-.0857-.6-.2571-.172-.1715-.257-.3715-.257-.6s.085-.4286.257-.6c.171-.1715.371-.2572.6-.2572h.857v-5.1428Zm.857-3.4286c-.229,0-.429-.0857-.6-.2572-.171-.1714-.257-.3714-.257-.6s.086-.4285.257-.6c.171-.1714.371-.2571.6-.2571s.429.0857.6.2571c.171.1715.257.3715.257.6s-.086.4286-.257.6c-.171.1715-.371.2572-.6.2572Zm11.998,8.5714h-4.286v2.5714c0,.2286-.086.4286-.257.6-.172.1715-.372.2572-.6.2572-.229,0-.429-.08-.6-.24-.172-.16-.257-.3657-.257-.6172v-8.5714c0-.2286.085-.4286.257-.6.171-.1714.371-.2571.6-.2571h5.143c.685,0,1.285.2571,1.8.7714.514.5143.771,1.1143.771,1.8v1.7143c0,.6857-.257,1.2857-.771,1.8-.515.5143-1.115.7714-1.8.7714Zm-4.286-1.7143h4.286c.228,0,.428-.0857.6-.2571.171-.1714.257-.3714.257-.6v-1.7143c0-.2286-.086-.4286-.257-.6-.172-.1714-.372-.2571-.6-.2571h-4.286v3.4285Zm11.14-3.4285c-.228,0-.428-.0858-.6-.2572-.171-.1714-.257-.3714-.257-.6s.086-.4286.257-.6c.172-.1714.372-.2571.6-.2571h.857v-2.5715c0-.2285.086-.4285.257-.6.172-.1714.372-.2571.6-.2571.229,0,.429.0857.6.2571.172.1715.258.3715.258.6v2.5715h2.571c.229,0,.429.0857.6.2571s.257.3714.257.6-.086.4286-.257.6-.371.2572-.6.2572h-2.571v4.2857c0,.2285.085.4285.257.6.171.1714.371.2571.6.2571h1.714c.229,0,.429.0857.6.2572.171.1714.257.3714.257.6s-.086.4285-.257.6c-.171.1714-.371.2571-.6.2571h-1.714c-.686,0-1.286-.2571-1.8-.7714-.515-.5143-.772-1.1143-.772-1.8v-4.2857h-.857Zm10.283,1.7142c-.8,0-1.428-.2285-1.885-.6857-.457-.4571-.686-1.0857-.686-1.8857v-1.7143c0-.6857.229-1.2857.686-1.8s1.085-.7714,1.885-.7714h3.429c.686,0,1.286.2571,1.8.7714s.771,1.1143.771,1.8c0,.2286-.085.4286-.257.6-.171.1715-.371.2572-.6.2572-.228,0-.428-.0857-.6-.2572-.171-.1714-.257-.3714-.257-.6c0-.2285-.086-.4285-.257-.6s-.371-.2571-.6-.2571h-3.429c-.228,0-.428.0857-.6.2571-.171.1715-.257.3715-.257.6v1.7143c0,.2286.086.4286.257.6.172.1714.372.2572.6.2572h3.429c.686,0,1.286.2571,1.8.7714s.771,1.1143.771,1.8v1.7143c0,.8-.257,1.4285-.771,1.8857-.514.4571-1.114.6857-1.8.6857h-3.429c-.685,0-1.285-.2571-1.8-.7714-.514-.5143-.771-1.1143-.771-1.8c0-.2286.086-.4286.257-.6.172-.1715.372-.2572.6-.2572.229,0,.429.0857.6.2572.172.1714.257.3714.257.6c0,.2285.086.4285.257.6.172.1714.372.2571.6.2571h3.429c.229,0,.429-.0857.6-.2571s.257-.3715.257-.6v-1.7143c0-.2286-.086-.4286-.257-.6s-.371-.2572-.6-.2572h-3.429Zm11.141-1.7142h-.857c-.229,0-.429-.0858-.6-.2572-.172-.1714-.258-.3714-.258-.6s.086-.4286.258-.6c.171-.1714.371-.2571.6-.2571h1.714c.228,0,.428.0857.6.2571.171.1714.257.3714.257.6v6h.857c.229,0,.429.0857.6.2572.172.1714.257.3714.257.6s-.085.4285-.257.6c-.171.1714-.371.2571-.6.2571h-3.428c-.229,0-.429-.0857-.6-.2571-.172-.1715-.258-.3715-.258-.6s.086-.4286.258-.6c.171-.1715.371-.2572.6-.2572h.857v-5.1428Zm.857-3.4286c-.229,0-.429-.0857-.6-.2572-.172-.1714-.257-.3714-.257-.6s.085-.4285.257-.6c.171-.1714.371-.2571.6-.2571.228,0,.428.0857.6.2571.171.1715.257.3715.257.6s-.086.4286-.257.6c-.172.1715-.372.2572-.6.2572Zm8.569,8.5714c-.686,0-1.286-.2571-1.8-.7714-.515-.5143-.772-1.1143-.772-1.8v-1.7143c0-.6857.257-1.2857.772-1.8.514-.5143,1.114-.7714,1.8-.7714h5.143c.228,0,.428.0857.6.2571.171.1714.257.3714.257.6v6.8572c0,.6857-.257,1.2857-.772,1.8-.514.5142-1.114.7714-1.8.7714h-3.428c-.229,0-.429-.0857-.6-.2572-.172-.1714-.257-.3714-.257-.6s.085-.4285.257-.6c.171-.1714.371-.2571.6-.2571h3.428c.229,0,.429-.0857.6-.2571.172-.1715.257-.3715.257-.6v-.8572h-4.285Zm4.285-1.7143v-3.4285h-4.285c-.229,0-.429.0857-.6.2571-.172.1714-.257.3714-.257.6v1.7143c0,.2286.085.4286.257.6.171.1714.371.2571.6.2571h4.285ZM188.203,62c-.229,0-.429-.0857-.6-.2571-.171-.1715-.257-.3715-.257-.6s.086-.4286.257-.6c.171-.1715.371-.2572.6-.2572s.429-.0857.6-.2571.257-.3715.257-.6v-6.8572c0-.2285-.086-.4285-.257-.6s-.371-.2571-.6-.2571-.429-.0857-.6-.2572c-.171-.1714-.257-.3714-.257-.6s.086-.4285.257-.6c.171-.1714.371-.2571.6-.2571.686,0,1.286.2571,1.8.7714s.771,1.1143.771,1.8v6.8572c0,.6857-.257,1.2857-.771,1.8s-1.114.7714-1.8.7714Z" transform="translate(20.853376-4.523501)" fill="#f1760f"/></g></g><g id="ewojQ1u5HnV11_tr" transform="translate(196,115.932347) rotate(0)"><g transform="scale(1.101594,1.104197) translate(-196,-122.254414)"><path d="M16.584,6C15.8124,4.2341,14.0503,3,12,3C9.23858,3,7,5.23858,7,8v2.0288M12,14.5v2M7,10.0288C7.47142,10,8.05259,10,8.8,10h6.4c1.6802,0,2.5202,0,3.162.327.5645.2876,1.0234.7465,1.311,1.311C20,12.2798,20,13.1198,20,14.8v1.4c0,1.6802,0,2.5202-.327,3.162-.2876.5645-.7465,1.0234-1.311,1.311C17.7202,21,16.8802,21,15.2,21h-6.4c-1.68016,0-2.52024,0-3.16197-.327-.56449-.2876-1.02343-.7465-1.31105-1.311C4,18.7202,4,17.8802,4,16.2v-1.4c0-1.6802,0-2.5202.32698-3.162.28762-.5645.74656-1.0234,1.31105-1.311.35626-.1815.77365-.2623,1.36197-.2982Z" transform="matrix(1.461825 0 0 1.591403 178.4581 103.157576)" fill="rgba(105,106,113,0.07)" stroke="#f1760f" stroke-width="2" stroke-linecap="round" stroke-linejoin="round"/></g></g></svg>
