<svg width="5206" height="2911" viewBox="0 0 5206 2911" fill="none" xmlns="http://www.w3.org/2000/svg">
<rect width="5206" height="2911" fill="#1E1E1E"/>
<path d="M1633 521C1633 485.654 1661.65 457 1697 457H3509C3544.35 457 3573 485.654 3573 521V2628C3573 2663.35 3544.35 2692 3509 2692H1697C1661.65 2692 1633 2663.35 1633 2628V521Z" fill="#858585" fill-opacity="0.22"/>
<path d="M1854 746C1854 718.386 1876.39 696 1904 696H3301C3328.61 696 3351 718.386 3351 746V876C3351 903.614 3328.61 926 3301 926H1904C1876.39 926 1854 903.614 1854 876V746Z" fill="#F1760D"/>
<path d="M1990.02 774.273H2003.19V821.787C2003.19 826.995 2001.96 831.576 1999.5 835.53C1997.06 839.483 1993.63 842.573 1989.2 844.798C1984.77 847 1979.6 848.101 1973.68 848.101C1967.74 848.101 1962.56 847 1958.13 844.798C1953.7 842.573 1950.27 839.483 1947.83 835.53C1945.39 831.576 1944.17 826.995 1944.17 821.787V774.273H1957.35V820.686C1957.35 823.716 1958.01 826.415 1959.34 828.783C1960.69 831.15 1962.58 833.009 1965.02 834.358C1967.46 835.684 1970.35 836.347 1973.68 836.347C1977.02 836.347 1979.91 835.684 1982.35 834.358C1984.81 833.009 1986.7 831.15 1988.03 828.783C1989.36 826.415 1990.02 823.716 1990.02 820.686V774.273ZM2014.32 785.317V774.273H2072.34V785.317H2049.86V847H2036.8V785.317H2014.32ZM2094.54 774.273L2110.55 800.906H2111.12L2127.21 774.273H2142.23L2119.82 810.636L2142.58 847H2127.31L2111.12 820.544H2110.55L2094.36 847H2079.16L2102.14 810.636L2079.44 774.273H2094.54ZM2214.92 810.636C2214.92 818.473 2213.45 825.184 2210.52 830.771C2207.61 836.335 2203.63 840.596 2198.59 843.555C2193.57 846.515 2187.87 847.994 2181.5 847.994C2175.14 847.994 2169.43 846.515 2164.39 843.555C2159.37 840.572 2155.39 836.299 2152.46 830.736C2149.54 825.149 2148.09 818.449 2148.09 810.636C2148.09 802.8 2149.54 796.1 2152.46 790.537C2155.39 784.95 2159.37 780.677 2164.39 777.717C2169.43 774.758 2175.14 773.278 2181.5 773.278C2187.87 773.278 2193.57 774.758 2198.59 777.717C2203.63 780.677 2207.61 784.95 2210.52 790.537C2213.45 796.1 2214.92 802.8 2214.92 810.636ZM2201.68 810.636C2201.68 805.12 2200.81 800.468 2199.08 796.68C2197.38 792.869 2195.01 789.992 2191.98 788.051C2188.95 786.086 2185.46 785.104 2181.5 785.104C2177.55 785.104 2174.06 786.086 2171.03 788.051C2168 789.992 2165.62 792.869 2163.89 796.68C2162.19 800.468 2161.33 805.12 2161.33 810.636C2161.33 816.152 2162.19 820.816 2163.89 824.628C2165.62 828.416 2168 831.292 2171.03 833.257C2174.06 835.198 2177.55 836.169 2181.5 836.169C2185.46 836.169 2188.95 835.198 2191.98 833.257C2195.01 831.292 2197.38 828.416 2199.08 824.628C2200.81 820.816 2201.68 816.152 2201.68 810.636ZM2279.03 847L2290.96 774.273H2300.9L2288.97 847H2279.03ZM2246.25 828.25L2247.92 818.307H2303.89L2302.22 828.25H2246.25ZM2253.46 847L2265.39 774.273H2275.33L2263.4 847H2253.46ZM2250.48 802.966L2252.11 793.023H2308.08L2306.44 802.966H2250.48ZM2345.41 774.273V847H2332.23V787.092H2331.81L2314.8 797.959V785.885L2332.87 774.273H2345.41Z" fill="white"/>
<path d="M3000.91 833.506V823.03L3031.77 774.273H3040.51V789.188H3035.18L3014.41 822.107V822.675H3057.48V833.506H3000.91ZM3035.61 847V830.31L3035.75 825.622V774.273H3048.18V847H3035.61ZM3094.34 847V774.273H3122.18C3127.44 774.273 3131.81 775.101 3135.29 776.759C3138.79 778.392 3141.41 780.629 3143.13 783.47C3144.89 786.311 3145.76 789.531 3145.76 793.129C3145.76 796.089 3145.19 798.622 3144.06 800.729C3142.92 802.812 3141.39 804.505 3139.48 805.807C3137.56 807.109 3135.42 808.044 3133.05 808.612V809.322C3135.63 809.464 3138.1 810.258 3140.47 811.702C3142.86 813.122 3144.81 815.134 3146.33 817.739C3147.85 820.343 3148.6 823.491 3148.6 827.185C3148.6 830.949 3147.69 834.334 3145.87 837.341C3144.05 840.324 3141.3 842.679 3137.63 844.408C3133.96 846.136 3129.34 847 3123.78 847H3094.34ZM3107.52 835.991H3121.69C3126.47 835.991 3129.91 835.08 3132.02 833.257C3134.15 831.411 3135.21 829.043 3135.21 826.155C3135.21 824 3134.68 822.059 3133.62 820.331C3132.55 818.579 3131.04 817.206 3129.07 816.212C3127.11 815.194 3124.76 814.685 3122.04 814.685H3107.52V835.991ZM3107.52 805.203H3120.55C3122.82 805.203 3124.87 804.789 3126.69 803.96C3128.52 803.108 3129.95 801.912 3130.99 800.374C3132.05 798.811 3132.59 796.964 3132.59 794.834C3132.59 792.017 3131.59 789.696 3129.6 787.874C3127.64 786.051 3124.72 785.139 3120.83 785.139H3107.52V805.203ZM3156.87 785.317V774.273H3214.89V785.317H3192.41V847H3179.35V785.317H3156.87ZM3285.11 798.811H3271.83C3271.45 796.633 3270.75 794.704 3269.73 793.023C3268.71 791.318 3267.45 789.874 3265.93 788.69C3264.42 787.507 3262.69 786.619 3260.75 786.027C3258.83 785.411 3256.76 785.104 3254.53 785.104C3250.58 785.104 3247.08 786.098 3244.02 788.087C3240.97 790.052 3238.58 792.94 3236.85 796.751C3235.12 800.539 3234.26 805.168 3234.26 810.636C3234.26 816.2 3235.12 820.887 3236.85 824.699C3238.6 828.487 3240.99 831.351 3244.02 833.293C3247.08 835.21 3250.57 836.169 3254.5 836.169C3256.68 836.169 3258.71 835.885 3260.61 835.317C3262.52 834.725 3264.24 833.861 3265.75 832.724C3267.29 831.588 3268.58 830.191 3269.63 828.534C3270.69 826.877 3271.42 824.983 3271.83 822.852L3285.11 822.923C3284.61 826.38 3283.53 829.623 3281.88 832.653C3280.24 835.684 3278.1 838.359 3275.45 840.679C3272.8 842.975 3269.7 844.775 3266.15 846.077C3262.59 847.355 3258.65 847.994 3254.32 847.994C3247.93 847.994 3242.22 846.515 3237.2 843.555C3232.18 840.596 3228.23 836.323 3225.34 830.736C3222.45 825.149 3221.01 818.449 3221.01 810.636C3221.01 802.8 3222.47 796.1 3225.38 790.537C3228.29 784.95 3232.26 780.677 3237.27 777.717C3242.29 774.758 3247.98 773.278 3254.32 773.278C3258.37 773.278 3262.13 773.847 3265.61 774.983C3269.09 776.119 3272.19 777.788 3274.92 779.99C3277.64 782.168 3279.88 784.843 3281.63 788.016C3283.4 791.164 3284.56 794.763 3285.11 798.811Z" fill="white"/>
<path d="M1854 1172C1854 1144.39 1876.39 1122 1904 1122H3301C3328.61 1122 3351 1144.39 3351 1172V1302C3351 1329.61 3328.61 1352 3301 1352H1904C1876.39 1352 1854 1329.61 1854 1302V1172Z" fill="#F1760D"/>
<path d="M1990.02 1200.27H2003.19V1247.79C2003.19 1253 2001.96 1257.58 1999.5 1261.53C1997.06 1265.48 1993.63 1268.57 1989.2 1270.8C1984.77 1273 1979.6 1274.1 1973.68 1274.1C1967.74 1274.1 1962.56 1273 1958.13 1270.8C1953.7 1268.57 1950.27 1265.48 1947.83 1261.53C1945.39 1257.58 1944.17 1253 1944.17 1247.79V1200.27H1957.35V1246.69C1957.35 1249.72 1958.01 1252.42 1959.34 1254.78C1960.69 1257.15 1962.58 1259.01 1965.02 1260.36C1967.46 1261.68 1970.35 1262.35 1973.68 1262.35C1977.02 1262.35 1979.91 1261.68 1982.35 1260.36C1984.81 1259.01 1986.7 1257.15 1988.03 1254.78C1989.36 1252.42 1990.02 1249.72 1990.02 1246.69V1200.27ZM2014.32 1211.32V1200.27H2072.34V1211.32H2049.86V1273H2036.8V1211.32H2014.32ZM2094.54 1200.27L2110.55 1226.91H2111.12L2127.21 1200.27H2142.23L2119.82 1236.64L2142.58 1273H2127.31L2111.12 1246.54H2110.55L2094.36 1273H2079.16L2102.14 1236.64L2079.44 1200.27H2094.54ZM2214.92 1236.64C2214.92 1244.47 2213.45 1251.18 2210.52 1256.77C2207.61 1262.33 2203.63 1266.6 2198.59 1269.56C2193.57 1272.51 2187.87 1273.99 2181.5 1273.99C2175.14 1273.99 2169.43 1272.51 2164.39 1269.56C2159.37 1266.57 2155.39 1262.3 2152.46 1256.74C2149.54 1251.15 2148.09 1244.45 2148.09 1236.64C2148.09 1228.8 2149.54 1222.1 2152.46 1216.54C2155.39 1210.95 2159.37 1206.68 2164.39 1203.72C2169.43 1200.76 2175.14 1199.28 2181.5 1199.28C2187.87 1199.28 2193.57 1200.76 2198.59 1203.72C2203.63 1206.68 2207.61 1210.95 2210.52 1216.54C2213.45 1222.1 2214.92 1228.8 2214.92 1236.64ZM2201.68 1236.64C2201.68 1231.12 2200.81 1226.47 2199.08 1222.68C2197.38 1218.87 2195.01 1215.99 2191.98 1214.05C2188.95 1212.09 2185.46 1211.1 2181.5 1211.1C2177.55 1211.1 2174.06 1212.09 2171.03 1214.05C2168 1215.99 2165.62 1218.87 2163.89 1222.68C2162.19 1226.47 2161.33 1231.12 2161.33 1236.64C2161.33 1242.15 2162.19 1246.82 2163.89 1250.63C2165.62 1254.42 2168 1257.29 2171.03 1259.26C2174.06 1261.2 2177.55 1262.17 2181.5 1262.17C2185.46 1262.17 2188.95 1261.2 2191.98 1259.26C2195.01 1257.29 2197.38 1254.42 2199.08 1250.63C2200.81 1246.82 2201.68 1242.15 2201.68 1236.64ZM2279.03 1273L2290.96 1200.27H2300.9L2288.97 1273H2279.03ZM2246.25 1254.25L2247.92 1244.31H2303.89L2302.22 1254.25H2246.25ZM2253.46 1273L2265.39 1200.27H2275.33L2263.4 1273H2253.46ZM2250.48 1228.97L2252.11 1219.02H2308.08L2306.44 1228.97H2250.48ZM2315.83 1273V1263.48L2341.07 1238.73C2343.49 1236.29 2345.5 1234.13 2347.11 1232.23C2348.72 1230.34 2349.93 1228.5 2350.73 1226.73C2351.54 1224.95 2351.94 1223.06 2351.94 1221.05C2351.94 1218.75 2351.42 1216.79 2350.38 1215.15C2349.34 1213.49 2347.9 1212.22 2346.08 1211.32C2344.26 1210.42 2342.19 1209.97 2339.87 1209.97C2337.48 1209.97 2335.38 1210.46 2333.58 1211.46C2331.78 1212.43 2330.39 1213.81 2329.39 1215.61C2328.42 1217.41 2327.94 1219.56 2327.94 1222.04H2315.4C2315.4 1217.42 2316.45 1213.41 2318.56 1210C2320.67 1206.59 2323.57 1203.95 2327.26 1202.08C2330.98 1200.21 2335.24 1199.28 2340.05 1199.28C2344.92 1199.28 2349.21 1200.19 2352.9 1202.01C2356.59 1203.84 2359.46 1206.33 2361.49 1209.51C2363.55 1212.68 2364.58 1216.3 2364.58 1220.37C2364.58 1223.09 2364.06 1225.77 2363.02 1228.4C2361.98 1231.03 2360.14 1233.94 2357.52 1237.13C2354.91 1240.33 2351.25 1244.2 2346.54 1248.75L2334.01 1261.49V1261.99H2365.68V1273H2315.83Z" fill="white"/>
<path d="M3006.72 1273V1263.48L3031.97 1238.73C3034.38 1236.29 3036.39 1234.13 3038 1232.23C3039.61 1230.34 3040.82 1228.5 3041.62 1226.73C3042.43 1224.95 3042.83 1223.06 3042.83 1221.05C3042.83 1218.75 3042.31 1216.79 3041.27 1215.15C3040.23 1213.49 3038.8 1212.22 3036.97 1211.32C3035.15 1210.42 3033.08 1209.97 3030.76 1209.97C3028.37 1209.97 3026.27 1210.46 3024.47 1211.46C3022.67 1212.43 3021.28 1213.81 3020.28 1215.61C3019.31 1217.41 3018.83 1219.56 3018.83 1222.04H3006.29C3006.29 1217.42 3007.34 1213.41 3009.45 1210C3011.56 1206.59 3014.46 1203.95 3018.15 1202.08C3021.87 1200.21 3026.13 1199.28 3030.94 1199.28C3035.81 1199.28 3040.1 1200.19 3043.79 1202.01C3047.48 1203.84 3050.35 1206.33 3052.38 1209.51C3054.44 1212.68 3055.47 1216.3 3055.47 1220.37C3055.47 1223.09 3054.95 1225.77 3053.91 1228.4C3052.87 1231.03 3051.04 1233.94 3048.41 1237.13C3045.8 1240.33 3042.15 1244.2 3037.43 1248.75L3024.9 1261.49V1261.99H3056.57V1273H3006.72ZM3094.34 1273V1200.27H3122.18C3127.44 1200.27 3131.81 1201.1 3135.29 1202.76C3138.79 1204.39 3141.41 1206.63 3143.13 1209.47C3144.89 1212.31 3145.76 1215.53 3145.76 1219.13C3145.76 1222.09 3145.19 1224.62 3144.06 1226.73C3142.92 1228.81 3141.39 1230.5 3139.48 1231.81C3137.56 1233.11 3135.42 1234.04 3133.05 1234.61V1235.32C3135.63 1235.46 3138.1 1236.26 3140.47 1237.7C3142.86 1239.12 3144.81 1241.13 3146.33 1243.74C3147.85 1246.34 3148.6 1249.49 3148.6 1253.18C3148.6 1256.95 3147.69 1260.33 3145.87 1263.34C3144.05 1266.32 3141.3 1268.68 3137.63 1270.41C3133.96 1272.14 3129.34 1273 3123.78 1273H3094.34ZM3107.52 1261.99H3121.69C3126.47 1261.99 3129.91 1261.08 3132.02 1259.26C3134.15 1257.41 3135.21 1255.04 3135.21 1252.15C3135.21 1250 3134.68 1248.06 3133.62 1246.33C3132.55 1244.58 3131.04 1243.21 3129.07 1242.21C3127.11 1241.19 3124.76 1240.68 3122.04 1240.68H3107.52V1261.99ZM3107.52 1231.2H3120.55C3122.82 1231.2 3124.87 1230.79 3126.69 1229.96C3128.52 1229.11 3129.95 1227.91 3130.99 1226.37C3132.05 1224.81 3132.59 1222.96 3132.59 1220.83C3132.59 1218.02 3131.59 1215.7 3129.6 1213.87C3127.64 1212.05 3124.72 1211.14 3120.83 1211.14H3107.52V1231.2ZM3156.87 1211.32V1200.27H3214.89V1211.32H3192.41V1273H3179.35V1211.32H3156.87ZM3285.11 1224.81H3271.83C3271.45 1222.63 3270.75 1220.7 3269.73 1219.02C3268.71 1217.32 3267.45 1215.87 3265.93 1214.69C3264.42 1213.51 3262.69 1212.62 3260.75 1212.03C3258.83 1211.41 3256.76 1211.1 3254.53 1211.1C3250.58 1211.1 3247.08 1212.1 3244.02 1214.09C3240.97 1216.05 3238.58 1218.94 3236.85 1222.75C3235.12 1226.54 3234.26 1231.17 3234.26 1236.64C3234.26 1242.2 3235.12 1246.89 3236.85 1250.7C3238.6 1254.49 3240.99 1257.35 3244.02 1259.29C3247.08 1261.21 3250.57 1262.17 3254.5 1262.17C3256.68 1262.17 3258.71 1261.88 3260.61 1261.32C3262.52 1260.72 3264.24 1259.86 3265.75 1258.72C3267.29 1257.59 3268.58 1256.19 3269.63 1254.53C3270.69 1252.88 3271.42 1250.98 3271.83 1248.85L3285.11 1248.92C3284.61 1252.38 3283.53 1255.62 3281.88 1258.65C3280.24 1261.68 3278.1 1264.36 3275.45 1266.68C3272.8 1268.98 3269.7 1270.77 3266.15 1272.08C3262.59 1273.36 3258.65 1273.99 3254.32 1273.99C3247.93 1273.99 3242.22 1272.51 3237.2 1269.56C3232.18 1266.6 3228.23 1262.32 3225.34 1256.74C3222.45 1251.15 3221.01 1244.45 3221.01 1236.64C3221.01 1228.8 3222.47 1222.1 3225.38 1216.54C3228.29 1210.95 3232.26 1206.68 3237.27 1203.72C3242.29 1200.76 3247.98 1199.28 3254.32 1199.28C3258.37 1199.28 3262.13 1199.85 3265.61 1200.98C3269.09 1202.12 3272.19 1203.79 3274.92 1205.99C3277.64 1208.17 3279.88 1210.84 3281.63 1214.02C3283.4 1217.16 3284.56 1220.76 3285.11 1224.81Z" fill="white"/>
<path d="M1854 1598C1854 1570.39 1876.39 1548 1904 1548H3301C3328.61 1548 3351 1570.39 3351 1598V1728C3351 1755.61 3328.61 1778 3301 1778H1904C1876.39 1778 1854 1755.61 1854 1728V1598Z" fill="#F1760D" fill-opacity="0.22"/>
<path d="M1990.02 1626.27H2003.19V1673.79C2003.19 1679 2001.96 1683.58 1999.5 1687.53C1997.06 1691.48 1993.63 1694.57 1989.2 1696.8C1984.77 1699 1979.6 1700.1 1973.68 1700.1C1967.74 1700.1 1962.56 1699 1958.13 1696.8C1953.7 1694.57 1950.27 1691.48 1947.83 1687.53C1945.39 1683.58 1944.17 1679 1944.17 1673.79V1626.27H1957.35V1672.69C1957.35 1675.72 1958.01 1678.42 1959.34 1680.78C1960.69 1683.15 1962.58 1685.01 1965.02 1686.36C1967.46 1687.68 1970.35 1688.35 1973.68 1688.35C1977.02 1688.35 1979.91 1687.68 1982.35 1686.36C1984.81 1685.01 1986.7 1683.15 1988.03 1680.78C1989.36 1678.42 1990.02 1675.72 1990.02 1672.69V1626.27ZM2014.32 1637.32V1626.27H2072.34V1637.32H2049.86V1699H2036.8V1637.32H2014.32ZM2094.54 1626.27L2110.55 1652.91H2111.12L2127.21 1626.27H2142.23L2119.82 1662.64L2142.58 1699H2127.31L2111.12 1672.54H2110.55L2094.36 1699H2079.16L2102.14 1662.64L2079.44 1626.27H2094.54ZM2214.92 1662.64C2214.92 1670.47 2213.45 1677.18 2210.52 1682.77C2207.61 1688.33 2203.63 1692.6 2198.59 1695.56C2193.57 1698.51 2187.87 1699.99 2181.5 1699.99C2175.14 1699.99 2169.43 1698.51 2164.39 1695.56C2159.37 1692.57 2155.39 1688.3 2152.46 1682.74C2149.54 1677.15 2148.09 1670.45 2148.09 1662.64C2148.09 1654.8 2149.54 1648.1 2152.46 1642.54C2155.39 1636.95 2159.37 1632.68 2164.39 1629.72C2169.43 1626.76 2175.14 1625.28 2181.5 1625.28C2187.87 1625.28 2193.57 1626.76 2198.59 1629.72C2203.63 1632.68 2207.61 1636.95 2210.52 1642.54C2213.45 1648.1 2214.92 1654.8 2214.92 1662.64ZM2201.68 1662.64C2201.68 1657.12 2200.81 1652.47 2199.08 1648.68C2197.38 1644.87 2195.01 1641.99 2191.98 1640.05C2188.95 1638.09 2185.46 1637.1 2181.5 1637.1C2177.55 1637.1 2174.06 1638.09 2171.03 1640.05C2168 1641.99 2165.62 1644.87 2163.89 1648.68C2162.19 1652.47 2161.33 1657.12 2161.33 1662.64C2161.33 1668.15 2162.19 1672.82 2163.89 1676.63C2165.62 1680.42 2168 1683.29 2171.03 1685.26C2174.06 1687.2 2177.55 1688.17 2181.5 1688.17C2185.46 1688.17 2188.95 1687.2 2191.98 1685.26C2195.01 1683.29 2197.38 1680.42 2199.08 1676.63C2200.81 1672.82 2201.68 1668.15 2201.68 1662.64ZM2279.03 1699L2290.96 1626.27H2300.9L2288.97 1699H2279.03ZM2246.25 1680.25L2247.92 1670.31H2303.89L2302.22 1680.25H2246.25ZM2253.46 1699L2265.39 1626.27H2275.33L2263.4 1699H2253.46ZM2250.48 1654.97L2252.11 1645.02H2308.08L2306.44 1654.97H2250.48ZM2341.93 1699.99C2336.81 1699.99 2332.27 1699.12 2328.29 1697.37C2324.34 1695.61 2321.21 1693.18 2318.92 1690.05C2316.62 1686.93 2315.4 1683.32 2315.26 1679.22H2328.61C2328.73 1681.19 2329.38 1682.9 2330.56 1684.37C2331.75 1685.81 2333.32 1686.94 2335.29 1687.74C2337.25 1688.55 2339.45 1688.95 2341.89 1688.95C2344.5 1688.95 2346.8 1688.5 2348.82 1687.6C2350.83 1686.68 2352.4 1685.4 2353.54 1683.77C2354.68 1682.13 2355.23 1680.25 2355.21 1678.12C2355.23 1675.92 2354.66 1673.98 2353.5 1672.3C2352.34 1670.61 2350.66 1669.3 2348.46 1668.35C2346.28 1667.41 2343.66 1666.93 2340.58 1666.93H2334.15V1656.78H2340.58C2343.11 1656.78 2345.32 1656.34 2347.22 1655.46C2349.14 1654.59 2350.64 1653.36 2351.73 1651.77C2352.82 1650.16 2353.35 1648.3 2353.33 1646.19C2353.35 1644.13 2352.89 1642.35 2351.94 1640.83C2351.02 1639.29 2349.7 1638.1 2348 1637.25C2346.32 1636.39 2344.34 1635.97 2342.07 1635.97C2339.84 1635.97 2337.78 1636.37 2335.89 1637.17C2334 1637.98 2332.47 1639.13 2331.31 1640.62C2330.15 1642.09 2329.53 1643.84 2329.46 1645.88H2316.79C2316.88 1641.8 2318.05 1638.23 2320.3 1635.15C2322.57 1632.05 2325.6 1629.63 2329.39 1627.91C2333.18 1626.15 2337.43 1625.28 2342.14 1625.28C2346.99 1625.28 2351.21 1626.19 2354.78 1628.01C2358.38 1629.81 2361.16 1632.24 2363.13 1635.29C2365.09 1638.35 2366.07 1641.72 2366.07 1645.41C2366.1 1649.51 2364.89 1652.94 2362.45 1655.71C2360.04 1658.48 2356.87 1660.29 2352.94 1661.14V1661.71C2358.05 1662.42 2361.97 1664.32 2364.69 1667.39C2367.44 1670.45 2368.8 1674.25 2368.77 1678.79C2368.77 1682.87 2367.61 1686.51 2365.29 1689.73C2363 1692.93 2359.82 1695.44 2355.78 1697.26C2351.75 1699.08 2347.14 1699.99 2341.93 1699.99Z" fill="white" fill-opacity="0.22"/>
<path d="M2963.77 1700.38C2957.93 1700.38 2952.91 1698.91 2948.72 1695.95C2944.55 1692.96 2941.34 1688.67 2939.09 1683.06C2936.87 1677.42 2935.76 1670.64 2935.76 1662.71C2935.78 1654.78 2936.9 1648.03 2939.13 1642.47C2941.38 1636.88 2944.59 1632.62 2948.75 1629.68C2952.94 1626.75 2957.95 1625.28 2963.77 1625.28C2969.6 1625.28 2974.61 1626.75 2978.8 1629.68C2982.99 1632.62 2986.19 1636.88 2988.42 1642.47C2990.67 1648.05 2991.79 1654.8 2991.79 1662.71C2991.79 1670.66 2990.67 1677.46 2988.42 1683.09C2986.19 1688.7 2982.99 1692.99 2978.8 1695.95C2974.63 1698.91 2969.62 1700.38 2963.77 1700.38ZM2963.77 1689.27C2968.32 1689.27 2971.91 1687.03 2974.53 1682.56C2977.19 1678.06 2978.51 1671.44 2978.51 1662.71C2978.51 1656.93 2977.91 1652.08 2976.7 1648.15C2975.49 1644.22 2973.79 1641.26 2971.59 1639.27C2969.39 1637.26 2966.78 1636.25 2963.77 1636.25C2959.25 1636.25 2955.68 1638.5 2953.05 1643C2950.42 1647.47 2949.1 1654.04 2949.07 1662.71C2949.05 1668.51 2949.63 1673.38 2950.81 1677.34C2952.02 1681.29 2953.73 1684.27 2955.93 1686.29C2958.13 1688.28 2960.74 1689.27 2963.77 1689.27ZM3008.82 1699.78C3006.67 1699.78 3004.82 1699.02 3003.28 1697.51C3001.74 1695.99 3000.98 1694.15 3001.01 1691.97C3000.98 1689.84 3001.74 1688.02 3003.28 1686.5C3004.82 1684.98 3006.67 1684.23 3008.82 1684.23C3010.9 1684.23 3012.72 1684.98 3014.25 1686.5C3015.82 1688.02 3016.61 1689.84 3016.63 1691.97C3016.61 1693.41 3016.23 1694.73 3015.5 1695.91C3014.79 1697.09 3013.84 1698.04 3012.66 1698.75C3011.5 1699.44 3010.22 1699.78 3008.82 1699.78ZM3050.36 1626.27V1699H3037.19V1639.09H3036.76L3019.75 1649.96V1637.88L3037.82 1626.27H3050.36ZM3094.34 1699V1626.27H3122.18C3127.44 1626.27 3131.81 1627.1 3135.29 1628.76C3138.79 1630.39 3141.41 1632.63 3143.13 1635.47C3144.89 1638.31 3145.76 1641.53 3145.76 1645.13C3145.76 1648.09 3145.19 1650.62 3144.06 1652.73C3142.92 1654.81 3141.39 1656.5 3139.48 1657.81C3137.56 1659.11 3135.42 1660.04 3133.05 1660.61V1661.32C3135.63 1661.46 3138.1 1662.26 3140.47 1663.7C3142.86 1665.12 3144.81 1667.13 3146.33 1669.74C3147.85 1672.34 3148.6 1675.49 3148.6 1679.18C3148.6 1682.95 3147.69 1686.33 3145.87 1689.34C3144.05 1692.32 3141.3 1694.68 3137.63 1696.41C3133.96 1698.14 3129.34 1699 3123.78 1699H3094.34ZM3107.52 1687.99H3121.69C3126.47 1687.99 3129.91 1687.08 3132.02 1685.26C3134.15 1683.41 3135.21 1681.04 3135.21 1678.15C3135.21 1676 3134.68 1674.06 3133.62 1672.33C3132.55 1670.58 3131.04 1669.21 3129.07 1668.21C3127.11 1667.19 3124.76 1666.68 3122.04 1666.68H3107.52V1687.99ZM3107.52 1657.2H3120.55C3122.82 1657.2 3124.87 1656.79 3126.69 1655.96C3128.52 1655.11 3129.95 1653.91 3130.99 1652.37C3132.05 1650.81 3132.59 1648.96 3132.59 1646.83C3132.59 1644.02 3131.59 1641.7 3129.6 1639.87C3127.64 1638.05 3124.72 1637.14 3120.83 1637.14H3107.52V1657.2ZM3156.87 1637.32V1626.27H3214.89V1637.32H3192.41V1699H3179.35V1637.32H3156.87ZM3285.11 1650.81H3271.83C3271.45 1648.63 3270.75 1646.7 3269.73 1645.02C3268.71 1643.32 3267.45 1641.87 3265.93 1640.69C3264.42 1639.51 3262.69 1638.62 3260.75 1638.03C3258.83 1637.41 3256.76 1637.1 3254.53 1637.1C3250.58 1637.1 3247.08 1638.1 3244.02 1640.09C3240.97 1642.05 3238.58 1644.94 3236.85 1648.75C3235.12 1652.54 3234.26 1657.17 3234.26 1662.64C3234.26 1668.2 3235.12 1672.89 3236.85 1676.7C3238.6 1680.49 3240.99 1683.35 3244.02 1685.29C3247.08 1687.21 3250.57 1688.17 3254.5 1688.17C3256.68 1688.17 3258.71 1687.88 3260.61 1687.32C3262.52 1686.72 3264.24 1685.86 3265.75 1684.72C3267.29 1683.59 3268.58 1682.19 3269.63 1680.53C3270.69 1678.88 3271.42 1676.98 3271.83 1674.85L3285.11 1674.92C3284.61 1678.38 3283.53 1681.62 3281.88 1684.65C3280.24 1687.68 3278.1 1690.36 3275.45 1692.68C3272.8 1694.98 3269.7 1696.77 3266.15 1698.08C3262.59 1699.36 3258.65 1699.99 3254.32 1699.99C3247.93 1699.99 3242.22 1698.51 3237.2 1695.56C3232.18 1692.6 3228.23 1688.32 3225.34 1682.74C3222.45 1677.15 3221.01 1670.45 3221.01 1662.64C3221.01 1654.8 3222.47 1648.1 3225.38 1642.54C3228.29 1636.95 3232.26 1632.68 3237.27 1629.72C3242.29 1626.76 3247.98 1625.28 3254.32 1625.28C3258.37 1625.28 3262.13 1625.85 3265.61 1626.98C3269.09 1628.12 3272.19 1629.79 3274.92 1631.99C3277.64 1634.17 3279.88 1636.84 3281.63 1640.02C3283.4 1643.16 3284.56 1646.76 3285.11 1650.81Z" fill="white" fill-opacity="0.22"/>
<path d="M1854 2024C1854 1996.39 1876.39 1974 1904 1974H3301C3328.61 1974 3351 1996.39 3351 2024V2154C3351 2181.61 3328.61 2204 3301 2204H1904C1876.39 2204 1854 2181.61 1854 2154V2024Z" fill="#F1760D" fill-opacity="0.22"/>
<path d="M1990.02 2052.27H2003.19V2099.79C2003.19 2105 2001.96 2109.58 1999.5 2113.53C1997.06 2117.48 1993.63 2120.57 1989.2 2122.8C1984.77 2125 1979.6 2126.1 1973.68 2126.1C1967.74 2126.1 1962.56 2125 1958.13 2122.8C1953.7 2120.57 1950.27 2117.48 1947.83 2113.53C1945.39 2109.58 1944.17 2105 1944.17 2099.79V2052.27H1957.35V2098.69C1957.35 2101.72 1958.01 2104.42 1959.34 2106.78C1960.69 2109.15 1962.58 2111.01 1965.02 2112.36C1967.46 2113.68 1970.35 2114.35 1973.68 2114.35C1977.02 2114.35 1979.91 2113.68 1982.35 2112.36C1984.81 2111.01 1986.7 2109.15 1988.03 2106.78C1989.36 2104.42 1990.02 2101.72 1990.02 2098.69V2052.27ZM2014.32 2063.32V2052.27H2072.34V2063.32H2049.86V2125H2036.8V2063.32H2014.32ZM2094.54 2052.27L2110.55 2078.91H2111.12L2127.21 2052.27H2142.23L2119.82 2088.64L2142.58 2125H2127.31L2111.12 2098.54H2110.55L2094.36 2125H2079.16L2102.14 2088.64L2079.44 2052.27H2094.54ZM2214.92 2088.64C2214.92 2096.47 2213.45 2103.18 2210.52 2108.77C2207.61 2114.33 2203.63 2118.6 2198.59 2121.56C2193.57 2124.51 2187.87 2125.99 2181.5 2125.99C2175.14 2125.99 2169.43 2124.51 2164.39 2121.56C2159.37 2118.57 2155.39 2114.3 2152.46 2108.74C2149.54 2103.15 2148.09 2096.45 2148.09 2088.64C2148.09 2080.8 2149.54 2074.1 2152.46 2068.54C2155.39 2062.95 2159.37 2058.68 2164.39 2055.72C2169.43 2052.76 2175.14 2051.28 2181.5 2051.28C2187.87 2051.28 2193.57 2052.76 2198.59 2055.72C2203.63 2058.68 2207.61 2062.95 2210.52 2068.54C2213.45 2074.1 2214.92 2080.8 2214.92 2088.64ZM2201.68 2088.64C2201.68 2083.12 2200.81 2078.47 2199.08 2074.68C2197.38 2070.87 2195.01 2067.99 2191.98 2066.05C2188.95 2064.09 2185.46 2063.1 2181.5 2063.1C2177.55 2063.1 2174.06 2064.09 2171.03 2066.05C2168 2067.99 2165.62 2070.87 2163.89 2074.68C2162.19 2078.47 2161.33 2083.12 2161.33 2088.64C2161.33 2094.15 2162.19 2098.82 2163.89 2102.63C2165.62 2106.42 2168 2109.29 2171.03 2111.26C2174.06 2113.2 2177.55 2114.17 2181.5 2114.17C2185.46 2114.17 2188.95 2113.2 2191.98 2111.26C2195.01 2109.29 2197.38 2106.42 2199.08 2102.63C2200.81 2098.82 2201.68 2094.15 2201.68 2088.64ZM2279.03 2125L2290.96 2052.27H2300.9L2288.97 2125H2279.03ZM2246.25 2106.25L2247.92 2096.31H2303.89L2302.22 2106.25H2246.25ZM2253.46 2125L2265.39 2052.27H2275.33L2263.4 2125H2253.46ZM2250.48 2080.97L2252.11 2071.02H2308.08L2306.44 2080.97H2250.48ZM2314.51 2111.51V2101.03L2345.37 2052.27H2354.11V2067.19H2348.78L2328.01 2100.11V2100.67H2371.08V2111.51H2314.51ZM2349.21 2125V2108.31L2349.35 2103.62V2052.27H2361.78V2125H2349.21Z" fill="white" fill-opacity="0.22"/>
<path d="M2875.69 2126.38C2869.84 2126.38 2864.82 2124.91 2860.63 2121.95C2856.47 2118.96 2853.26 2114.67 2851.01 2109.06C2848.78 2103.42 2847.67 2096.64 2847.67 2088.71C2847.69 2080.78 2848.82 2074.03 2851.04 2068.47C2853.29 2062.88 2856.5 2058.62 2860.67 2055.68C2864.86 2052.75 2869.87 2051.28 2875.69 2051.28C2881.51 2051.28 2886.52 2052.75 2890.71 2055.68C2894.9 2058.62 2898.11 2062.88 2900.33 2068.47C2902.58 2074.05 2903.71 2080.8 2903.71 2088.71C2903.71 2096.66 2902.58 2103.46 2900.33 2109.09C2898.11 2114.7 2894.9 2118.99 2890.71 2121.95C2886.54 2124.91 2881.54 2126.38 2875.69 2126.38ZM2875.69 2115.27C2880.23 2115.27 2883.82 2113.03 2886.45 2108.56C2889.1 2104.06 2890.43 2097.44 2890.43 2088.71C2890.43 2082.93 2889.82 2078.08 2888.62 2074.15C2887.41 2070.22 2885.7 2067.26 2883.5 2065.27C2881.3 2063.26 2878.7 2062.25 2875.69 2062.25C2871.17 2062.25 2867.59 2064.5 2864.96 2069C2862.34 2073.47 2861.01 2080.04 2860.99 2088.71C2860.96 2094.51 2861.54 2099.38 2862.73 2103.34C2863.93 2107.29 2865.64 2110.27 2867.84 2112.29C2870.04 2114.28 2872.66 2115.27 2875.69 2115.27ZM2920.74 2125.78C2918.58 2125.78 2916.73 2125.02 2915.2 2123.51C2913.66 2121.99 2912.9 2120.15 2912.92 2117.97C2912.9 2115.84 2913.66 2114.02 2915.2 2112.5C2916.73 2110.98 2918.58 2110.23 2920.74 2110.23C2922.82 2110.23 2924.63 2110.98 2926.17 2112.5C2927.73 2114.02 2928.52 2115.84 2928.55 2117.97C2928.52 2119.41 2928.15 2120.73 2927.41 2121.91C2926.7 2123.09 2925.75 2124.04 2924.57 2124.75C2923.41 2125.44 2922.13 2125.78 2920.74 2125.78ZM2965.73 2126.38C2959.88 2126.38 2954.86 2124.91 2950.67 2121.95C2946.5 2118.96 2943.3 2114.67 2941.05 2109.06C2938.82 2103.42 2937.71 2096.64 2937.71 2088.71C2937.73 2080.78 2938.86 2074.03 2941.08 2068.47C2943.33 2062.88 2946.54 2058.62 2950.71 2055.68C2954.9 2052.75 2959.9 2051.28 2965.73 2051.28C2971.55 2051.28 2976.56 2052.75 2980.75 2055.68C2984.94 2058.62 2988.15 2062.88 2990.37 2068.47C2992.62 2074.05 2993.75 2080.8 2993.75 2088.71C2993.75 2096.66 2992.62 2103.46 2990.37 2109.09C2988.15 2114.7 2984.94 2118.99 2980.75 2121.95C2976.58 2124.91 2971.58 2126.38 2965.73 2126.38ZM2965.73 2115.27C2970.27 2115.27 2973.86 2113.03 2976.49 2108.56C2979.14 2104.06 2980.47 2097.44 2980.47 2088.71C2980.47 2082.93 2979.86 2078.08 2978.65 2074.15C2977.45 2070.22 2975.74 2067.26 2973.54 2065.27C2971.34 2063.26 2968.73 2062.25 2965.73 2062.25C2961.21 2062.25 2957.63 2064.5 2955 2069C2952.38 2073.47 2951.05 2080.04 2951.03 2088.71C2951 2094.51 2951.58 2099.38 2952.77 2103.34C2953.97 2107.29 2955.68 2110.27 2957.88 2112.29C2960.08 2114.28 2962.7 2115.27 2965.73 2115.27ZM3030.83 2125.99C3026.09 2125.99 3021.86 2125.11 3018.12 2123.33C3014.38 2121.53 3011.4 2119.07 3009.2 2115.94C3007.02 2112.82 3005.86 2109.24 3005.72 2105.22H3018.51C3018.74 2108.2 3020.03 2110.64 3022.38 2112.54C3024.72 2114.41 3027.54 2115.34 3030.83 2115.34C3033.41 2115.34 3035.71 2114.75 3037.72 2113.57C3039.73 2112.38 3041.32 2110.74 3042.48 2108.63C3043.64 2106.52 3044.21 2104.12 3044.18 2101.42C3044.21 2098.67 3043.63 2096.24 3042.44 2094.11C3041.26 2091.97 3039.64 2090.31 3037.58 2089.1C3035.52 2087.87 3033.15 2087.25 3030.47 2087.25C3028.3 2087.23 3026.15 2087.63 3024.05 2088.46C3021.94 2089.29 3020.27 2090.38 3019.04 2091.73L3007.14 2089.77L3010.94 2052.27H3053.13V2063.28H3021.84L3019.75 2082.56H3020.18C3021.53 2080.98 3023.43 2079.66 3025.89 2078.62C3028.36 2077.56 3031.05 2077.02 3033.99 2077.02C3038.39 2077.02 3042.32 2078.07 3045.78 2080.15C3049.24 2082.21 3051.96 2085.05 3053.95 2088.67C3055.94 2092.29 3056.93 2096.44 3056.93 2101.1C3056.93 2105.91 3055.82 2110.19 3053.59 2113.96C3051.39 2117.7 3048.32 2120.64 3044.39 2122.8C3040.49 2124.93 3035.97 2125.99 3030.83 2125.99ZM3094.34 2125V2052.27H3122.18C3127.44 2052.27 3131.81 2053.1 3135.29 2054.76C3138.79 2056.39 3141.41 2058.63 3143.13 2061.47C3144.89 2064.31 3145.76 2067.53 3145.76 2071.13C3145.76 2074.09 3145.19 2076.62 3144.06 2078.73C3142.92 2080.81 3141.39 2082.5 3139.48 2083.81C3137.56 2085.11 3135.42 2086.04 3133.05 2086.61V2087.32C3135.63 2087.46 3138.1 2088.26 3140.47 2089.7C3142.86 2091.12 3144.81 2093.13 3146.33 2095.74C3147.85 2098.34 3148.6 2101.49 3148.6 2105.18C3148.6 2108.95 3147.69 2112.33 3145.87 2115.34C3144.05 2118.32 3141.3 2120.68 3137.63 2122.41C3133.96 2124.14 3129.34 2125 3123.78 2125H3094.34ZM3107.52 2113.99H3121.69C3126.47 2113.99 3129.91 2113.08 3132.02 2111.26C3134.15 2109.41 3135.21 2107.04 3135.21 2104.15C3135.21 2102 3134.68 2100.06 3133.62 2098.33C3132.55 2096.58 3131.04 2095.21 3129.07 2094.21C3127.11 2093.19 3124.76 2092.68 3122.04 2092.68H3107.52V2113.99ZM3107.52 2083.2H3120.55C3122.82 2083.2 3124.87 2082.79 3126.69 2081.96C3128.52 2081.11 3129.95 2079.91 3130.99 2078.37C3132.05 2076.81 3132.59 2074.96 3132.59 2072.83C3132.59 2070.02 3131.59 2067.7 3129.6 2065.87C3127.64 2064.05 3124.72 2063.14 3120.83 2063.14H3107.52V2083.2ZM3156.87 2063.32V2052.27H3214.89V2063.32H3192.41V2125H3179.35V2063.32H3156.87ZM3285.11 2076.81H3271.83C3271.45 2074.63 3270.75 2072.7 3269.73 2071.02C3268.71 2069.32 3267.45 2067.87 3265.93 2066.69C3264.42 2065.51 3262.69 2064.62 3260.75 2064.03C3258.83 2063.41 3256.76 2063.1 3254.53 2063.1C3250.58 2063.1 3247.08 2064.1 3244.02 2066.09C3240.97 2068.05 3238.58 2070.94 3236.85 2074.75C3235.12 2078.54 3234.26 2083.17 3234.26 2088.64C3234.26 2094.2 3235.12 2098.89 3236.85 2102.7C3238.6 2106.49 3240.99 2109.35 3244.02 2111.29C3247.08 2113.21 3250.57 2114.17 3254.5 2114.17C3256.68 2114.17 3258.71 2113.88 3260.61 2113.32C3262.52 2112.72 3264.24 2111.86 3265.75 2110.72C3267.29 2109.59 3268.58 2108.19 3269.63 2106.53C3270.69 2104.88 3271.42 2102.98 3271.83 2100.85L3285.11 2100.92C3284.61 2104.38 3283.53 2107.62 3281.88 2110.65C3280.24 2113.68 3278.1 2116.36 3275.45 2118.68C3272.8 2120.98 3269.7 2122.77 3266.15 2124.08C3262.59 2125.36 3258.65 2125.99 3254.32 2125.99C3247.93 2125.99 3242.22 2124.51 3237.2 2121.56C3232.18 2118.6 3228.23 2114.32 3225.34 2108.74C3222.45 2103.15 3221.01 2096.45 3221.01 2088.64C3221.01 2080.8 3222.47 2074.1 3225.38 2068.54C3228.29 2062.95 3232.26 2058.68 3237.27 2055.72C3242.29 2052.76 3247.98 2051.28 3254.32 2051.28C3258.37 2051.28 3262.13 2051.85 3265.61 2052.98C3269.09 2054.12 3272.19 2055.79 3274.92 2057.99C3277.64 2060.17 3279.88 2062.84 3281.63 2066.02C3283.4 2069.16 3284.56 2072.76 3285.11 2076.81Z" fill="white" fill-opacity="0.22"/>
<path d="M2216.26 344H2198.26L2231.03 250.909H2251.85L2284.67 344H2266.67L2241.81 270H2241.08L2216.26 344ZM2216.85 307.5H2265.94V321.045H2216.85V307.5ZM2312.66 250.909V344H2296.2V250.909H2312.66ZM2329.58 344V274.182H2346.03V344H2329.58ZM2337.85 264.273C2335.25 264.273 2333 263.409 2331.12 261.682C2329.25 259.924 2328.31 257.818 2328.31 255.364C2328.31 252.879 2329.25 250.773 2331.12 249.045C2333 247.288 2335.25 246.409 2337.85 246.409C2340.49 246.409 2342.73 247.288 2344.58 249.045C2346.46 250.773 2347.4 252.879 2347.4 255.364C2347.4 257.818 2346.46 259.924 2344.58 261.682C2342.73 263.409 2340.49 264.273 2337.85 264.273ZM2393.41 345.364C2386.44 345.364 2380.45 343.833 2375.45 340.773C2370.48 337.712 2366.65 333.485 2363.95 328.091C2361.29 322.667 2359.95 316.424 2359.95 309.364C2359.95 302.273 2361.32 296.015 2364.05 290.591C2366.77 285.136 2370.62 280.894 2375.59 277.864C2380.59 274.803 2386.5 273.273 2393.32 273.273C2398.98 273.273 2404 274.318 2408.36 276.409C2412.76 278.47 2416.26 281.394 2418.86 285.182C2421.47 288.939 2422.95 293.333 2423.32 298.364H2407.59C2406.95 295 2405.44 292.197 2403.05 289.955C2400.68 287.682 2397.52 286.545 2393.55 286.545C2390.18 286.545 2387.23 287.455 2384.68 289.273C2382.14 291.061 2380.15 293.636 2378.73 297C2377.33 300.364 2376.64 304.394 2376.64 309.091C2376.64 313.848 2377.33 317.939 2378.73 321.364C2380.12 324.758 2382.08 327.379 2384.59 329.227C2387.14 331.045 2390.12 331.955 2393.55 331.955C2395.97 331.955 2398.14 331.5 2400.05 330.591C2401.98 329.652 2403.61 328.303 2404.91 326.545C2406.21 324.788 2407.11 322.652 2407.59 320.136H2423.32C2422.92 325.076 2421.47 329.455 2418.95 333.273C2416.44 337.061 2413.02 340.03 2408.68 342.182C2404.35 344.303 2399.26 345.364 2393.41 345.364ZM2467.74 345.364C2460.74 345.364 2454.69 343.909 2449.6 341C2444.54 338.061 2440.65 333.909 2437.92 328.545C2435.19 323.152 2433.83 316.803 2433.83 309.5C2433.83 302.318 2435.19 296.015 2437.92 290.591C2440.68 285.136 2444.53 280.894 2449.47 277.864C2454.41 274.803 2460.21 273.273 2466.88 273.273C2471.18 273.273 2475.24 273.97 2479.06 275.364C2482.91 276.727 2486.3 278.848 2489.24 281.727C2492.21 284.606 2494.54 288.273 2496.24 292.727C2497.94 297.152 2498.78 302.424 2498.78 308.545V313.591H2441.56V302.5H2483.01C2482.98 299.348 2482.3 296.545 2480.97 294.091C2479.63 291.606 2477.77 289.652 2475.38 288.227C2473.01 286.803 2470.25 286.091 2467.1 286.091C2463.74 286.091 2460.78 286.909 2458.24 288.545C2455.69 290.152 2453.71 292.273 2452.28 294.909C2450.89 297.515 2450.18 300.379 2450.15 303.5V313.182C2450.15 317.242 2450.89 320.727 2452.38 323.636C2453.86 326.515 2455.94 328.727 2458.6 330.273C2461.27 331.788 2464.39 332.545 2467.97 332.545C2470.36 332.545 2472.53 332.212 2474.47 331.545C2476.41 330.848 2478.09 329.833 2479.51 328.5C2480.94 327.167 2482.01 325.515 2482.74 323.545L2498.1 325.273C2497.13 329.333 2495.28 332.879 2492.56 335.909C2489.86 338.909 2486.41 341.242 2482.19 342.909C2477.98 344.545 2473.16 345.364 2467.74 345.364ZM2526.66 250.909V260.182C2526.66 262.848 2526.14 265.621 2525.11 268.5C2524.11 271.348 2522.73 274.076 2520.98 276.682C2519.22 279.258 2517.22 281.47 2514.98 283.318L2507.34 278.364C2509.01 275.848 2510.46 273.136 2511.7 270.227C2512.95 267.288 2513.57 263.97 2513.57 260.273V250.909H2526.66ZM2586.14 292.636L2571.14 294.273C2570.71 292.758 2569.97 291.333 2568.91 290C2567.88 288.667 2566.48 287.591 2564.73 286.773C2562.97 285.955 2560.82 285.545 2558.27 285.545C2554.85 285.545 2551.97 286.288 2549.64 287.773C2547.33 289.258 2546.2 291.182 2546.23 293.545C2546.2 295.576 2546.94 297.227 2548.45 298.5C2550 299.773 2552.55 300.818 2556.09 301.636L2568 304.182C2574.61 305.606 2579.52 307.864 2582.73 310.955C2585.97 314.045 2587.61 318.091 2587.64 323.091C2587.61 327.485 2586.32 331.364 2583.77 334.727C2581.26 338.061 2577.76 340.667 2573.27 342.545C2568.79 344.424 2563.64 345.364 2557.82 345.364C2549.27 345.364 2542.39 343.576 2537.18 340C2531.97 336.394 2528.86 331.379 2527.86 324.955L2543.91 323.409C2544.64 326.561 2546.18 328.939 2548.55 330.545C2550.91 332.152 2553.98 332.955 2557.77 332.955C2561.68 332.955 2564.82 332.152 2567.18 330.545C2569.58 328.939 2570.77 326.955 2570.77 324.591C2570.77 322.591 2570 320.939 2568.45 319.636C2566.94 318.333 2564.58 317.333 2561.36 316.636L2549.45 314.136C2542.76 312.742 2537.8 310.394 2534.59 307.091C2531.38 303.758 2529.79 299.545 2529.82 294.455C2529.79 290.152 2530.95 286.424 2533.32 283.273C2535.71 280.091 2539.03 277.636 2543.27 275.909C2547.55 274.152 2552.47 273.273 2558.05 273.273C2566.23 273.273 2572.67 275.015 2577.36 278.5C2582.09 281.985 2585.02 286.697 2586.14 292.636ZM2653.27 344L2627 250.909H2645.14L2661.91 319.318H2662.77L2680.68 250.909H2697.18L2715.14 319.364H2715.95L2732.73 250.909H2750.86L2724.59 344H2707.95L2689.32 278.682H2688.59L2669.91 344H2653.27ZM2774.8 345.409C2770.37 345.409 2766.39 344.621 2762.84 343.045C2759.33 341.439 2756.54 339.076 2754.48 335.955C2752.45 332.833 2751.43 328.985 2751.43 324.409C2751.43 320.47 2752.16 317.212 2753.61 314.636C2755.07 312.061 2757.05 310 2759.57 308.455C2762.08 306.909 2764.92 305.742 2768.07 304.955C2771.25 304.136 2774.54 303.545 2777.93 303.182C2782.02 302.758 2785.34 302.379 2787.89 302.045C2790.43 301.682 2792.28 301.136 2793.43 300.409C2794.61 299.652 2795.2 298.485 2795.2 296.909V296.636C2795.2 293.212 2794.19 290.561 2792.16 288.682C2790.13 286.803 2787.2 285.864 2783.39 285.864C2779.36 285.864 2776.16 286.742 2773.8 288.5C2771.46 290.258 2769.89 292.333 2769.07 294.727L2753.7 292.545C2754.92 288.303 2756.92 284.758 2759.7 281.909C2762.49 279.03 2765.9 276.879 2769.93 275.455C2773.96 274 2778.42 273.273 2783.3 273.273C2786.66 273.273 2790.01 273.667 2793.34 274.455C2796.67 275.242 2799.72 276.545 2802.48 278.364C2805.23 280.152 2807.45 282.591 2809.11 285.682C2810.81 288.773 2811.66 292.636 2811.66 297.273V344H2795.84V334.409H2795.3C2794.3 336.348 2792.89 338.167 2791.07 339.864C2789.28 341.53 2787.02 342.879 2784.3 343.909C2781.6 344.909 2778.43 345.409 2774.8 345.409ZM2779.07 333.318C2782.37 333.318 2785.23 332.667 2787.66 331.364C2790.08 330.03 2791.95 328.273 2793.25 326.091C2794.58 323.909 2795.25 321.53 2795.25 318.955V310.727C2794.73 311.152 2793.86 311.545 2792.61 311.909C2791.4 312.273 2790.04 312.591 2788.52 312.864C2787.01 313.136 2785.51 313.379 2784.02 313.591C2782.54 313.803 2781.25 313.985 2780.16 314.136C2777.7 314.47 2775.51 315.015 2773.57 315.773C2771.63 316.53 2770.1 317.591 2768.98 318.955C2767.86 320.288 2767.3 322.015 2767.3 324.136C2767.3 327.167 2768.4 329.455 2770.61 331C2772.83 332.545 2775.64 333.318 2779.07 333.318ZM2844.66 250.909V344H2828.2V250.909H2844.66ZM2878.03 250.909V344H2861.58V250.909H2878.03ZM2925.86 345.364C2918.86 345.364 2912.82 343.909 2907.73 341C2902.67 338.061 2898.77 333.909 2896.05 328.545C2893.32 323.152 2891.95 316.803 2891.95 309.5C2891.95 302.318 2893.32 296.015 2896.05 290.591C2898.8 285.136 2902.65 280.894 2907.59 277.864C2912.53 274.803 2918.33 273.273 2925 273.273C2929.3 273.273 2933.36 273.97 2937.18 275.364C2941.03 276.727 2944.42 278.848 2947.36 281.727C2950.33 284.606 2952.67 288.273 2954.36 292.727C2956.06 297.152 2956.91 302.424 2956.91 308.545V313.591H2899.68V302.5H2941.14C2941.11 299.348 2940.42 296.545 2939.09 294.091C2937.76 291.606 2935.89 289.652 2933.5 288.227C2931.14 286.803 2928.38 286.091 2925.23 286.091C2921.86 286.091 2918.91 286.909 2916.36 288.545C2913.82 290.152 2911.83 292.273 2910.41 294.909C2909.02 297.515 2908.3 300.379 2908.27 303.5V313.182C2908.27 317.242 2909.02 320.727 2910.5 323.636C2911.98 326.515 2914.06 328.727 2916.73 330.273C2919.39 331.788 2922.52 332.545 2926.09 332.545C2928.48 332.545 2930.65 332.212 2932.59 331.545C2934.53 330.848 2936.21 329.833 2937.64 328.5C2939.06 327.167 2940.14 325.515 2940.86 323.545L2956.23 325.273C2955.26 329.333 2953.41 332.879 2950.68 335.909C2947.98 338.909 2944.53 341.242 2940.32 342.909C2936.11 344.545 2931.29 345.364 2925.86 345.364ZM3005.69 274.182V286.909H2965.56V274.182H3005.69ZM2975.47 257.455H2991.92V323C2991.92 325.212 2992.25 326.909 2992.92 328.091C2993.62 329.242 2994.53 330.03 2995.65 330.455C2996.77 330.879 2998.01 331.091 2999.38 331.091C3000.41 331.091 3001.34 331.015 3002.19 330.864C3003.07 330.712 3003.74 330.576 3004.19 330.455L3006.97 343.318C3006.09 343.621 3004.83 343.955 3003.19 344.318C3001.59 344.682 2999.62 344.894 2997.28 344.955C2993.16 345.076 2989.45 344.455 2986.15 343.091C2982.84 341.697 2980.22 339.545 2978.28 336.636C2976.38 333.727 2975.44 330.091 2975.47 325.727V257.455Z" fill="#F1760D"/>
</svg>
