<svg width="1609" height="814" viewBox="0 0 1609 814" fill="none" xmlns="http://www.w3.org/2000/svg" style="background-color: #3c3c3c;">
<rect width="1609" height="814" fill="#3C3C3C"/>
<path d="M422.109 397.116C421.912 395.368 421.1 394.014 419.672 393.054C418.244 392.081 416.446 391.595 414.28 391.595C412.729 391.595 411.387 391.841 410.254 392.334C409.122 392.814 408.241 393.479 407.614 394.328C406.998 395.165 406.69 396.119 406.69 397.19C406.69 398.089 406.9 398.865 407.318 399.517C407.749 400.17 408.309 400.717 408.999 401.161C409.7 401.591 410.451 401.955 411.251 402.25C412.052 402.533 412.821 402.767 413.56 402.952L417.253 403.912C418.459 404.207 419.696 404.607 420.964 405.112C422.232 405.617 423.408 406.282 424.491 407.107C425.575 407.931 426.449 408.953 427.114 410.172C427.791 411.391 428.129 412.849 428.129 414.548C428.129 416.69 427.575 418.592 426.467 420.254C425.372 421.916 423.777 423.227 421.685 424.188C419.604 425.148 417.087 425.628 414.132 425.628C411.301 425.628 408.851 425.179 406.783 424.28C404.714 423.381 403.096 422.107 401.926 420.457C400.757 418.795 400.11 416.826 399.987 414.548H405.712C405.822 415.915 406.266 417.054 407.041 417.964C407.829 418.863 408.832 419.534 410.051 419.977C411.282 420.408 412.63 420.624 414.095 420.624C415.708 420.624 417.142 420.371 418.398 419.866C419.666 419.349 420.663 418.635 421.389 417.724C422.116 416.801 422.479 415.724 422.479 414.493C422.479 413.373 422.159 412.455 421.518 411.741C420.891 411.027 420.035 410.437 418.952 409.969C417.881 409.501 416.668 409.089 415.314 408.732L410.845 407.513C407.817 406.688 405.416 405.475 403.643 403.875C401.883 402.275 401.003 400.157 401.003 397.523C401.003 395.344 401.594 393.442 402.776 391.817C403.957 390.192 405.558 388.93 407.577 388.031C409.596 387.12 411.873 386.665 414.409 386.665C416.97 386.665 419.229 387.114 421.186 388.013C423.156 388.911 424.707 390.149 425.839 391.724C426.972 393.288 427.563 395.085 427.612 397.116H422.109ZM447.745 396.636V401.068H432.252V396.636H447.745ZM436.407 389.841H441.928V416.672C441.928 417.743 442.088 418.549 442.408 419.091C442.728 419.62 443.141 419.983 443.645 420.18C444.162 420.365 444.722 420.457 445.326 420.457C445.769 420.457 446.157 420.427 446.489 420.365C446.821 420.304 447.08 420.254 447.265 420.217L448.262 424.778C447.942 424.902 447.486 425.025 446.895 425.148C446.304 425.283 445.566 425.357 444.679 425.369C443.227 425.394 441.873 425.135 440.617 424.594C439.361 424.052 438.346 423.215 437.57 422.082C436.794 420.95 436.407 419.528 436.407 417.817V389.841ZM462.107 425.628C460.309 425.628 458.684 425.295 457.232 424.631C455.779 423.954 454.628 422.975 453.778 421.695C452.941 420.414 452.523 418.845 452.523 416.986C452.523 415.385 452.83 414.068 453.446 413.034C454.062 412 454.893 411.181 455.939 410.578C456.985 409.975 458.155 409.519 459.447 409.212C460.74 408.904 462.057 408.67 463.399 408.51C465.098 408.313 466.477 408.153 467.536 408.03C468.594 407.894 469.364 407.679 469.844 407.384C470.324 407.088 470.564 406.608 470.564 405.943V405.814C470.564 404.201 470.108 402.952 469.197 402.065C468.299 401.179 466.957 400.736 465.172 400.736C463.313 400.736 461.848 401.148 460.777 401.973C459.718 402.786 458.986 403.69 458.58 404.688L453.391 403.506C454.006 401.782 454.905 400.391 456.087 399.332C457.281 398.261 458.653 397.486 460.205 397.006C461.756 396.513 463.387 396.267 465.098 396.267C466.231 396.267 467.431 396.402 468.699 396.673C469.979 396.932 471.173 397.412 472.281 398.114C473.402 398.815 474.319 399.819 475.033 401.124C475.747 402.416 476.104 404.097 476.104 406.165V425H470.712V421.122H470.49C470.133 421.836 469.598 422.538 468.884 423.227C468.17 423.917 467.252 424.489 466.132 424.945C465.012 425.4 463.67 425.628 462.107 425.628ZM463.307 421.196C464.833 421.196 466.138 420.894 467.222 420.291C468.317 419.688 469.148 418.9 469.714 417.928C470.293 416.943 470.582 415.89 470.582 414.77V411.114C470.385 411.311 470.004 411.495 469.438 411.668C468.884 411.828 468.25 411.969 467.536 412.092C466.821 412.203 466.126 412.308 465.449 412.406C464.772 412.492 464.205 412.566 463.75 412.628C462.679 412.763 461.7 412.991 460.814 413.311C459.94 413.631 459.238 414.093 458.709 414.696C458.192 415.287 457.933 416.075 457.933 417.06C457.933 418.426 458.438 419.46 459.447 420.162C460.457 420.851 461.743 421.196 463.307 421.196ZM495.35 436.227C493.097 436.227 491.158 435.932 489.533 435.341C487.92 434.75 486.603 433.968 485.581 432.996C484.56 432.023 483.796 430.958 483.292 429.801L488.037 427.844C488.37 428.385 488.813 428.958 489.367 429.561C489.933 430.177 490.696 430.7 491.657 431.131C492.629 431.562 493.879 431.777 495.405 431.777C497.498 431.777 499.228 431.266 500.594 430.244C501.961 429.235 502.644 427.622 502.644 425.406V419.83H502.293C501.961 420.433 501.48 421.104 500.853 421.842C500.237 422.581 499.388 423.221 498.304 423.763C497.221 424.304 495.811 424.575 494.076 424.575C491.835 424.575 489.816 424.052 488.019 423.006C486.234 421.947 484.818 420.39 483.772 418.334C482.738 416.266 482.221 413.723 482.221 410.707C482.221 407.691 482.731 405.106 483.753 402.952C484.787 400.797 486.203 399.148 488 398.003C489.798 396.846 491.835 396.267 494.113 396.267C495.873 396.267 497.295 396.562 498.378 397.153C499.462 397.732 500.305 398.409 500.908 399.185C501.524 399.96 501.998 400.643 502.33 401.234H502.736V396.636H508.147V425.628C508.147 428.065 507.58 430.066 506.448 431.629C505.315 433.193 503.783 434.35 501.85 435.101C499.929 435.852 497.763 436.227 495.35 436.227ZM495.294 419.996C496.882 419.996 498.224 419.626 499.32 418.888C500.428 418.137 501.265 417.066 501.831 415.675C502.41 414.271 502.699 412.591 502.699 410.634C502.699 408.725 502.416 407.045 501.85 405.592C501.283 404.14 500.453 403.007 499.357 402.195C498.261 401.37 496.907 400.957 495.294 400.957C493.632 400.957 492.248 401.388 491.14 402.25C490.032 403.099 489.194 404.257 488.628 405.722C488.074 407.187 487.797 408.824 487.797 410.634C487.797 412.492 488.08 414.124 488.647 415.527C489.213 416.93 490.05 418.026 491.158 418.814C492.278 419.602 493.657 419.996 495.294 419.996ZM527.776 425.572C524.981 425.572 522.575 424.975 520.556 423.781C518.549 422.575 516.998 420.882 515.902 418.703C514.819 416.512 514.277 413.945 514.277 411.003C514.277 408.098 514.819 405.537 515.902 403.321C516.998 401.105 518.525 399.375 520.482 398.132C522.452 396.889 524.754 396.267 527.388 396.267C528.989 396.267 530.54 396.532 532.042 397.061C533.543 397.59 534.891 398.421 536.086 399.554C537.28 400.687 538.221 402.158 538.911 403.967C539.6 405.765 539.945 407.95 539.945 410.523V412.48H517.398V408.344H534.534C534.534 406.891 534.239 405.605 533.648 404.484C533.057 403.352 532.226 402.459 531.155 401.807C530.096 401.154 528.853 400.828 527.425 400.828C525.874 400.828 524.52 401.21 523.363 401.973C522.218 402.724 521.331 403.709 520.703 404.928C520.088 406.134 519.78 407.445 519.78 408.861V412.092C519.78 413.988 520.113 415.601 520.777 416.93C521.454 418.26 522.396 419.276 523.603 419.977C524.809 420.667 526.219 421.011 527.831 421.011C528.878 421.011 529.832 420.864 530.694 420.568C531.555 420.26 532.3 419.805 532.928 419.202C533.556 418.598 534.036 417.854 534.368 416.967L539.594 417.909C539.176 419.448 538.425 420.796 537.341 421.953C536.27 423.098 534.922 423.991 533.297 424.631C531.685 425.259 529.844 425.572 527.776 425.572ZM574.107 387.182V425H568.382V392.906H568.161L559.113 398.815V393.349L568.549 387.182H574.107ZM588.049 420.31C587.039 420.31 586.171 419.953 585.445 419.239C584.719 418.512 584.355 417.638 584.355 416.616C584.355 415.607 584.719 414.745 585.445 414.031C586.171 413.305 587.039 412.942 588.049 412.942C589.058 412.942 589.926 413.305 590.652 414.031C591.379 414.745 591.742 415.607 591.742 416.616C591.742 417.294 591.569 417.915 591.225 418.482C590.892 419.036 590.449 419.479 589.895 419.811C589.341 420.143 588.726 420.31 588.049 420.31ZM588.049 401.364C587.039 401.364 586.171 401.007 585.445 400.293C584.719 399.566 584.355 398.692 584.355 397.67C584.355 396.661 584.719 395.799 585.445 395.085C586.171 394.359 587.039 393.996 588.049 393.996C589.058 393.996 589.926 394.359 590.652 395.085C591.379 395.799 591.742 396.661 591.742 397.67C591.742 398.348 591.569 398.969 591.225 399.536C590.892 400.089 590.449 400.533 589.895 400.865C589.341 401.197 588.726 401.364 588.049 401.364ZM644.753 399.48H638.991C638.77 398.249 638.357 397.166 637.754 396.23C637.151 395.295 636.412 394.5 635.538 393.848C634.664 393.196 633.686 392.703 632.602 392.371C631.531 392.038 630.393 391.872 629.186 391.872C627.007 391.872 625.056 392.42 623.332 393.516C621.621 394.611 620.267 396.218 619.27 398.335C618.285 400.453 617.793 403.038 617.793 406.091C617.793 409.169 618.285 411.766 619.27 413.884C620.267 416.001 621.627 417.601 623.351 418.685C625.074 419.768 627.013 420.31 629.168 420.31C630.362 420.31 631.494 420.15 632.565 419.83C633.649 419.497 634.627 419.011 635.501 418.371C636.375 417.731 637.114 416.949 637.717 416.026C638.333 415.09 638.758 414.019 638.991 412.812L644.753 412.831C644.445 414.69 643.848 416.401 642.962 417.964C642.088 419.516 640.961 420.857 639.582 421.99C638.216 423.11 636.652 423.978 634.892 424.594C633.132 425.209 631.211 425.517 629.131 425.517C625.856 425.517 622.938 424.741 620.378 423.19C617.817 421.627 615.798 419.393 614.321 416.487C612.856 413.582 612.124 410.116 612.124 406.091C612.124 402.053 612.862 398.588 614.339 395.695C615.817 392.789 617.836 390.561 620.396 389.01C622.957 387.446 625.868 386.665 629.131 386.665C631.137 386.665 633.009 386.954 634.744 387.533C636.492 388.099 638.062 388.936 639.453 390.044C640.844 391.14 641.995 392.482 642.906 394.07C643.817 395.645 644.433 397.449 644.753 399.48ZM651.137 425V396.636H656.474V401.142H656.77C657.287 399.616 658.198 398.415 659.502 397.541C660.82 396.655 662.309 396.212 663.971 396.212C664.316 396.212 664.722 396.224 665.19 396.249C665.67 396.273 666.046 396.304 666.316 396.341V401.622C666.095 401.561 665.701 401.493 665.135 401.419C664.568 401.333 664.002 401.29 663.436 401.29C662.131 401.29 660.967 401.567 659.946 402.121C658.936 402.662 658.136 403.42 657.545 404.392C656.954 405.352 656.659 406.448 656.659 407.679V425H651.137ZM682.303 425.572C679.509 425.572 677.102 424.975 675.083 423.781C673.076 422.575 671.525 420.882 670.43 418.703C669.346 416.512 668.805 413.945 668.805 411.003C668.805 408.098 669.346 405.537 670.43 403.321C671.525 401.105 673.052 399.375 675.009 398.132C676.979 396.889 679.281 396.267 681.915 396.267C683.516 396.267 685.067 396.532 686.569 397.061C688.071 397.59 689.419 398.421 690.613 399.554C691.807 400.687 692.749 402.158 693.438 403.967C694.128 405.765 694.472 407.95 694.472 410.523V412.48H671.925V408.344H689.062C689.062 406.891 688.766 405.605 688.175 404.484C687.585 403.352 686.754 402.459 685.683 401.807C684.624 401.154 683.38 400.828 681.952 400.828C680.401 400.828 679.047 401.21 677.89 401.973C676.745 402.724 675.859 403.709 675.231 404.928C674.615 406.134 674.308 407.445 674.308 408.861V412.092C674.308 413.988 674.64 415.601 675.305 416.93C675.982 418.26 676.924 419.276 678.13 419.977C679.336 420.667 680.746 421.011 682.359 421.011C683.405 421.011 684.359 420.864 685.221 420.568C686.083 420.26 686.827 419.805 687.455 419.202C688.083 418.598 688.563 417.854 688.896 416.967L694.121 417.909C693.703 419.448 692.952 420.796 691.869 421.953C690.798 423.098 689.45 423.991 687.825 424.631C686.212 425.259 684.371 425.572 682.303 425.572ZM708.853 425.628C707.055 425.628 705.43 425.295 703.978 424.631C702.525 423.954 701.374 422.975 700.525 421.695C699.687 420.414 699.269 418.845 699.269 416.986C699.269 415.385 699.577 414.068 700.192 413.034C700.808 412 701.639 411.181 702.685 410.578C703.731 409.975 704.901 409.519 706.194 409.212C707.486 408.904 708.803 408.67 710.145 408.51C711.844 408.313 713.223 408.153 714.282 408.03C715.34 407.894 716.11 407.679 716.59 407.384C717.07 407.088 717.31 406.608 717.31 405.943V405.814C717.31 404.201 716.855 402.952 715.944 402.065C715.045 401.179 713.703 400.736 711.918 400.736C710.059 400.736 708.594 401.148 707.523 401.973C706.464 402.786 705.732 403.69 705.326 404.688L700.137 403.506C700.752 401.782 701.651 400.391 702.833 399.332C704.027 398.261 705.4 397.486 706.951 397.006C708.502 396.513 710.133 396.267 711.844 396.267C712.977 396.267 714.177 396.402 715.445 396.673C716.725 396.932 717.919 397.412 719.027 398.114C720.148 398.815 721.065 399.819 721.779 401.124C722.493 402.416 722.85 404.097 722.85 406.165V425H717.458V421.122H717.236C716.879 421.836 716.344 422.538 715.63 423.227C714.916 423.917 713.998 424.489 712.878 424.945C711.758 425.4 710.416 425.628 708.853 425.628ZM710.053 421.196C711.579 421.196 712.884 420.894 713.968 420.291C715.063 419.688 715.894 418.9 716.461 417.928C717.039 416.943 717.328 415.89 717.328 414.77V411.114C717.132 411.311 716.75 411.495 716.184 411.668C715.63 411.828 714.996 411.969 714.282 412.092C713.568 412.203 712.872 412.308 712.195 412.406C711.518 412.492 710.952 412.566 710.496 412.628C709.425 412.763 708.446 412.991 707.56 413.311C706.686 413.631 705.984 414.093 705.455 414.696C704.938 415.287 704.679 416.075 704.679 417.06C704.679 418.426 705.184 419.46 706.194 420.162C707.203 420.851 708.489 421.196 710.053 421.196ZM743.444 396.636V401.068H727.951V396.636H743.444ZM732.106 389.841H737.627V416.672C737.627 417.743 737.787 418.549 738.107 419.091C738.427 419.62 738.84 419.983 739.344 420.18C739.862 420.365 740.422 420.457 741.025 420.457C741.468 420.457 741.856 420.427 742.188 420.365C742.521 420.304 742.779 420.254 742.964 420.217L743.961 424.778C743.641 424.902 743.185 425.025 742.594 425.148C742.004 425.283 741.265 425.357 740.379 425.369C738.926 425.394 737.572 425.135 736.316 424.594C735.06 424.052 734.045 423.215 733.269 422.082C732.494 420.95 732.106 419.528 732.106 417.817V389.841ZM749.551 425V396.636H755.073V425H749.551ZM752.34 392.26C751.38 392.26 750.555 391.94 749.865 391.3C749.188 390.647 748.85 389.872 748.85 388.973C748.85 388.062 749.188 387.286 749.865 386.646C750.555 385.994 751.38 385.668 752.34 385.668C753.3 385.668 754.119 385.994 754.796 386.646C755.485 387.286 755.83 388.062 755.83 388.973C755.83 389.872 755.485 390.647 754.796 391.3C754.119 391.94 753.3 392.26 752.34 392.26ZM768.022 408.159V425H762.501V396.636H767.8V401.253H768.151C768.804 399.751 769.826 398.545 771.217 397.634C772.62 396.723 774.387 396.267 776.516 396.267C778.449 396.267 780.142 396.673 781.594 397.486C783.047 398.286 784.174 399.48 784.974 401.068C785.774 402.656 786.174 404.62 786.174 406.959V425H780.653V407.624C780.653 405.568 780.117 403.961 779.046 402.804C777.975 401.634 776.504 401.05 774.633 401.05C773.353 401.05 772.214 401.327 771.217 401.881C770.232 402.435 769.45 403.247 768.871 404.318C768.305 405.377 768.022 406.657 768.022 408.159ZM805.471 436.227C803.218 436.227 801.279 435.932 799.654 435.341C798.041 434.75 796.724 433.968 795.702 432.996C794.681 432.023 793.917 430.958 793.413 429.801L798.158 427.844C798.491 428.385 798.934 428.958 799.488 429.561C800.054 430.177 800.817 430.7 801.778 431.131C802.75 431.562 804 431.777 805.526 431.777C807.619 431.777 809.349 431.266 810.715 430.244C812.082 429.235 812.765 427.622 812.765 425.406V419.83H812.414C812.082 420.433 811.602 421.104 810.974 421.842C810.358 422.581 809.509 423.221 808.425 423.763C807.342 424.304 805.933 424.575 804.197 424.575C801.956 424.575 799.937 424.052 798.14 423.006C796.355 421.947 794.939 420.39 793.893 418.334C792.859 416.266 792.342 413.723 792.342 410.707C792.342 407.691 792.853 405.106 793.874 402.952C794.908 400.797 796.324 399.148 798.121 398.003C799.919 396.846 801.956 396.267 804.234 396.267C805.994 396.267 807.416 396.562 808.499 397.153C809.583 397.732 810.426 398.409 811.029 399.185C811.645 399.96 812.119 400.643 812.451 401.234H812.857V396.636H818.268V425.628C818.268 428.065 817.701 430.066 816.569 431.629C815.436 433.193 813.904 434.35 811.971 435.101C810.05 435.852 807.884 436.227 805.471 436.227ZM805.415 419.996C807.004 419.996 808.345 419.626 809.441 418.888C810.549 418.137 811.386 417.066 811.952 415.675C812.531 414.271 812.82 412.591 812.82 410.634C812.82 408.725 812.537 407.045 811.971 405.592C811.405 404.14 810.574 403.007 809.478 402.195C808.382 401.37 807.028 400.957 805.415 400.957C803.754 400.957 802.369 401.388 801.261 402.25C800.153 403.099 799.316 404.257 798.749 405.722C798.195 407.187 797.918 408.824 797.918 410.634C797.918 412.492 798.201 414.124 798.768 415.527C799.334 416.93 800.171 418.026 801.279 418.814C802.399 419.602 803.778 419.996 805.415 419.996ZM852.674 396.636V401.068H837.181V396.636H852.674ZM841.336 389.841H846.858V416.672C846.858 417.743 847.018 418.549 847.338 419.091C847.658 419.62 848.07 419.983 848.575 420.18C849.092 420.365 849.652 420.457 850.255 420.457C850.699 420.457 851.086 420.427 851.419 420.365C851.751 420.304 852.01 420.254 852.194 420.217L853.191 424.778C852.871 424.902 852.416 425.025 851.825 425.148C851.234 425.283 850.495 425.357 849.609 425.369C848.156 425.394 846.802 425.135 845.547 424.594C844.291 424.052 843.275 423.215 842.5 422.082C841.724 420.95 841.336 419.528 841.336 417.817V389.841ZM864.913 408.159V425H859.391V387.182H864.839V401.253H865.19C865.854 399.726 866.87 398.514 868.237 397.615C869.603 396.716 871.388 396.267 873.592 396.267C875.537 396.267 877.236 396.667 878.688 397.467C880.153 398.268 881.286 399.462 882.086 401.05C882.898 402.625 883.305 404.595 883.305 406.959V425H877.783V407.624C877.783 405.543 877.248 403.93 876.177 402.786C875.106 401.628 873.616 401.05 871.708 401.05C870.403 401.05 869.234 401.327 868.2 401.881C867.178 402.435 866.371 403.247 865.781 404.318C865.202 405.377 864.913 406.657 864.913 408.159ZM902.897 425.572C900.103 425.572 897.696 424.975 895.677 423.781C893.67 422.575 892.119 420.882 891.023 418.703C889.94 416.512 889.398 413.945 889.398 411.003C889.398 408.098 889.94 405.537 891.023 403.321C892.119 401.105 893.646 399.375 895.603 398.132C897.573 396.889 899.875 396.267 902.509 396.267C904.11 396.267 905.661 396.532 907.163 397.061C908.665 397.59 910.013 398.421 911.207 399.554C912.401 400.687 913.343 402.158 914.032 403.967C914.721 405.765 915.066 407.95 915.066 410.523V412.48H892.519V408.344H909.656C909.656 406.891 909.36 405.605 908.769 404.484C908.178 403.352 907.347 402.459 906.276 401.807C905.218 401.154 903.974 400.828 902.546 400.828C900.995 400.828 899.641 401.21 898.484 401.973C897.339 402.724 896.452 403.709 895.825 404.928C895.209 406.134 894.901 407.445 894.901 408.861V412.092C894.901 413.988 895.234 415.601 895.898 416.93C896.576 418.26 897.517 419.276 898.724 419.977C899.93 420.667 901.34 421.011 902.952 421.011C903.999 421.011 904.953 420.864 905.815 420.568C906.676 420.26 907.421 419.805 908.049 419.202C908.677 418.598 909.157 417.854 909.489 416.967L914.715 417.909C914.297 419.448 913.546 420.796 912.462 421.953C911.391 423.098 910.043 423.991 908.418 424.631C906.806 425.259 904.965 425.572 902.897 425.572ZM948.194 396.636V401.068H932.701V396.636H948.194ZM936.856 389.841H942.377V416.672C942.377 417.743 942.537 418.549 942.857 419.091C943.177 419.62 943.59 419.983 944.094 420.18C944.612 420.365 945.172 420.457 945.775 420.457C946.218 420.457 946.606 420.427 946.938 420.365C947.271 420.304 947.529 420.254 947.714 420.217L948.711 424.778C948.391 424.902 947.935 425.025 947.344 425.148C946.754 425.283 946.015 425.357 945.129 425.369C943.676 425.394 942.322 425.135 941.066 424.594C939.81 424.052 938.795 423.215 938.019 422.082C937.244 420.95 936.856 419.528 936.856 417.817V389.841ZM954.301 425V396.636H959.638V401.142H959.934C960.451 399.616 961.362 398.415 962.667 397.541C963.984 396.655 965.473 396.212 967.135 396.212C967.48 396.212 967.886 396.224 968.354 396.249C968.834 396.273 969.21 396.304 969.48 396.341V401.622C969.259 401.561 968.865 401.493 968.299 401.419C967.732 401.333 967.166 401.29 966.6 401.29C965.295 401.29 964.132 401.567 963.11 402.121C962.1 402.662 961.3 403.42 960.709 404.392C960.118 405.352 959.823 406.448 959.823 407.679V425H954.301ZM982.259 425.628C980.462 425.628 978.837 425.295 977.384 424.631C975.931 423.954 974.78 422.975 973.931 421.695C973.094 420.414 972.675 418.845 972.675 416.986C972.675 415.385 972.983 414.068 973.598 413.034C974.214 412 975.045 411.181 976.091 410.578C977.138 409.975 978.307 409.519 979.6 409.212C980.892 408.904 982.21 408.67 983.551 408.51C985.25 408.313 986.629 408.153 987.688 408.03C988.747 407.894 989.516 407.679 989.996 407.384C990.476 407.088 990.716 406.608 990.716 405.943V405.814C990.716 404.201 990.261 402.952 989.35 402.065C988.451 401.179 987.109 400.736 985.324 400.736C983.465 400.736 982 401.148 980.929 401.973C979.871 402.786 979.138 403.69 978.732 404.688L973.543 403.506C974.158 401.782 975.057 400.391 976.239 399.332C977.433 398.261 978.806 397.486 980.357 397.006C981.908 396.513 983.539 396.267 985.25 396.267C986.383 396.267 987.583 396.402 988.851 396.673C990.132 396.932 991.326 397.412 992.434 398.114C993.554 398.815 994.471 399.819 995.185 401.124C995.899 402.416 996.256 404.097 996.256 406.165V425H990.864V421.122H990.642C990.285 421.836 989.75 422.538 989.036 423.227C988.322 423.917 987.405 424.489 986.284 424.945C985.164 425.4 983.822 425.628 982.259 425.628ZM983.459 421.196C984.986 421.196 986.291 420.894 987.374 420.291C988.47 419.688 989.301 418.9 989.867 417.928C990.445 416.943 990.735 415.89 990.735 414.77V411.114C990.538 411.311 990.156 411.495 989.59 411.668C989.036 411.828 988.402 411.969 987.688 412.092C986.974 412.203 986.278 412.308 985.601 412.406C984.924 412.492 984.358 412.566 983.902 412.628C982.831 412.763 981.853 412.991 980.966 413.311C980.092 413.631 979.391 414.093 978.861 414.696C978.344 415.287 978.086 416.075 978.086 417.06C978.086 418.426 978.59 419.46 979.6 420.162C980.609 420.851 981.896 421.196 983.459 421.196ZM1009.13 408.159V425H1003.61V396.636H1008.91V401.253H1009.26C1009.91 399.751 1010.93 398.545 1012.33 397.634C1013.73 396.723 1015.5 396.267 1017.63 396.267C1019.56 396.267 1021.25 396.673 1022.7 397.486C1024.16 398.286 1025.28 399.48 1026.08 401.068C1026.88 402.656 1027.28 404.62 1027.28 406.959V425H1021.76V407.624C1021.76 405.568 1021.23 403.961 1020.16 402.804C1019.08 401.634 1017.61 401.05 1015.74 401.05C1014.46 401.05 1013.32 401.327 1012.33 401.881C1011.34 402.435 1010.56 403.247 1009.98 404.318C1009.41 405.377 1009.13 406.657 1009.13 408.159ZM1055.94 403.561L1050.94 404.447C1050.73 403.807 1050.4 403.198 1049.94 402.619C1049.5 402.041 1048.89 401.567 1048.13 401.197C1047.37 400.828 1046.41 400.643 1045.27 400.643C1043.71 400.643 1042.4 400.994 1041.35 401.696C1040.31 402.385 1039.78 403.278 1039.78 404.374C1039.78 405.321 1040.14 406.085 1040.84 406.663C1041.54 407.242 1042.67 407.716 1044.24 408.085L1048.74 409.119C1051.35 409.723 1053.3 410.652 1054.58 411.908C1055.86 413.163 1056.5 414.795 1056.5 416.801C1056.5 418.5 1056 420.014 1055.02 421.344C1054.05 422.661 1052.69 423.695 1050.94 424.446C1049.2 425.197 1047.19 425.572 1044.9 425.572C1041.72 425.572 1039.13 424.895 1037.13 423.541C1035.12 422.175 1033.89 420.236 1033.43 417.724L1038.77 416.912C1039.1 418.303 1039.78 419.356 1040.82 420.07C1041.85 420.771 1043.2 421.122 1044.86 421.122C1046.67 421.122 1048.12 420.747 1049.2 419.996C1050.29 419.232 1050.83 418.303 1050.83 417.207C1050.83 416.321 1050.5 415.576 1049.83 414.973C1049.18 414.37 1048.17 413.914 1046.82 413.607L1042.02 412.554C1039.37 411.951 1037.42 410.991 1036.15 409.673C1034.89 408.356 1034.26 406.688 1034.26 404.669C1034.26 402.995 1034.73 401.53 1035.67 400.274C1036.6 399.018 1037.9 398.04 1039.54 397.338C1041.19 396.624 1043.08 396.267 1045.21 396.267C1048.28 396.267 1050.69 396.932 1052.45 398.261C1054.21 399.579 1055.38 401.345 1055.94 403.561ZM1070.82 425.628C1069.02 425.628 1067.4 425.295 1065.95 424.631C1064.49 423.954 1063.34 422.975 1062.49 421.695C1061.66 420.414 1061.24 418.845 1061.24 416.986C1061.24 415.385 1061.55 414.068 1062.16 413.034C1062.78 412 1063.61 411.181 1064.65 410.578C1065.7 409.975 1066.87 409.519 1068.16 409.212C1069.45 408.904 1070.77 408.67 1072.11 408.51C1073.81 408.313 1075.19 408.153 1076.25 408.03C1077.31 407.894 1078.08 407.679 1078.56 407.384C1079.04 407.088 1079.28 406.608 1079.28 405.943V405.814C1079.28 404.201 1078.82 402.952 1077.91 402.065C1077.01 401.179 1075.67 400.736 1073.89 400.736C1072.03 400.736 1070.56 401.148 1069.49 401.973C1068.43 402.786 1067.7 403.69 1067.29 404.688L1062.11 403.506C1062.72 401.782 1063.62 400.391 1064.8 399.332C1066 398.261 1067.37 397.486 1068.92 397.006C1070.47 396.513 1072.1 396.267 1073.81 396.267C1074.95 396.267 1076.15 396.402 1077.41 396.673C1078.69 396.932 1079.89 397.412 1081 398.114C1082.12 398.815 1083.03 399.819 1083.75 401.124C1084.46 402.416 1084.82 404.097 1084.82 406.165V425H1079.43V421.122H1079.2C1078.85 421.836 1078.31 422.538 1077.6 423.227C1076.88 423.917 1075.97 424.489 1074.85 424.945C1073.73 425.4 1072.38 425.628 1070.82 425.628ZM1072.02 421.196C1073.55 421.196 1074.85 420.894 1075.94 420.291C1077.03 419.688 1077.86 418.9 1078.43 417.928C1079.01 416.943 1079.3 415.89 1079.3 414.77V411.114C1079.1 411.311 1078.72 411.495 1078.15 411.668C1077.6 411.828 1076.96 411.969 1076.25 412.092C1075.54 412.203 1074.84 412.308 1074.16 412.406C1073.49 412.492 1072.92 412.566 1072.46 412.628C1071.39 412.763 1070.42 412.991 1069.53 413.311C1068.65 413.631 1067.95 414.093 1067.42 414.696C1066.91 415.287 1066.65 416.075 1066.65 417.06C1066.65 418.426 1067.15 419.46 1068.16 420.162C1069.17 420.851 1070.46 421.196 1072.02 421.196ZM1104.12 425.572C1101.37 425.572 1099.01 424.951 1097.03 423.707C1095.06 422.452 1093.55 420.722 1092.49 418.518C1091.43 416.315 1090.9 413.791 1090.9 410.947C1090.9 408.067 1091.44 405.525 1092.52 403.321C1093.61 401.105 1095.13 399.375 1097.1 398.132C1099.07 396.889 1101.39 396.267 1104.06 396.267C1106.22 396.267 1108.14 396.667 1109.83 397.467C1111.51 398.255 1112.87 399.363 1113.91 400.791C1114.95 402.219 1115.58 403.887 1115.77 405.795H1110.4C1110.1 404.466 1109.43 403.321 1108.37 402.361C1107.32 401.401 1105.92 400.92 1104.16 400.92C1102.62 400.92 1101.27 401.327 1100.11 402.139C1098.97 402.939 1098.08 404.084 1097.44 405.574C1096.8 407.051 1096.48 408.799 1096.48 410.818C1096.48 412.886 1096.79 414.671 1097.42 416.173C1098.04 417.675 1098.93 418.839 1100.08 419.663C1101.23 420.488 1102.59 420.901 1104.16 420.901C1105.2 420.901 1106.15 420.71 1107 420.328C1107.86 419.934 1108.58 419.374 1109.16 418.648C1109.75 417.921 1110.16 417.047 1110.4 416.026H1115.77C1115.58 417.86 1114.98 419.497 1113.98 420.938C1112.98 422.378 1111.65 423.51 1109.97 424.335C1108.31 425.16 1106.36 425.572 1104.12 425.572ZM1134.92 396.636V401.068H1119.42V396.636H1134.92ZM1123.58 389.841H1129.1V416.672C1129.1 417.743 1129.26 418.549 1129.58 419.091C1129.9 419.62 1130.31 419.983 1130.82 420.18C1131.33 420.365 1131.89 420.457 1132.5 420.457C1132.94 420.457 1133.33 420.427 1133.66 420.365C1133.99 420.304 1134.25 420.254 1134.44 420.217L1135.43 424.778C1135.11 424.902 1134.66 425.025 1134.07 425.148C1133.48 425.283 1132.74 425.357 1131.85 425.369C1130.4 425.394 1129.04 425.135 1127.79 424.594C1126.53 424.052 1125.52 423.215 1124.74 422.082C1123.97 420.95 1123.58 419.528 1123.58 417.817V389.841ZM1141.02 425V396.636H1146.55V425H1141.02ZM1143.81 392.26C1142.85 392.26 1142.03 391.94 1141.34 391.3C1140.66 390.647 1140.32 389.872 1140.32 388.973C1140.32 388.062 1140.66 387.286 1141.34 386.646C1142.03 385.994 1142.85 385.668 1143.81 385.668C1144.77 385.668 1145.59 385.994 1146.27 386.646C1146.96 387.286 1147.3 388.062 1147.3 388.973C1147.3 389.872 1146.96 390.647 1146.27 391.3C1145.59 391.94 1144.77 392.26 1143.81 392.26ZM1165.92 425.572C1163.26 425.572 1160.94 424.963 1158.96 423.744C1156.98 422.526 1155.44 420.821 1154.34 418.629C1153.25 416.438 1152.7 413.877 1152.7 410.947C1152.7 408.005 1153.25 405.432 1154.34 403.229C1155.44 401.025 1156.98 399.314 1158.96 398.095C1160.94 396.876 1163.26 396.267 1165.92 396.267C1168.58 396.267 1170.9 396.876 1172.88 398.095C1174.86 399.314 1176.4 401.025 1177.5 403.229C1178.59 405.432 1179.14 408.005 1179.14 410.947C1179.14 413.877 1178.59 416.438 1177.5 418.629C1176.4 420.821 1174.86 422.526 1172.88 423.744C1170.9 424.963 1168.58 425.572 1165.92 425.572ZM1165.94 420.938C1167.66 420.938 1169.09 420.482 1170.22 419.571C1171.36 418.66 1172.19 417.447 1172.73 415.933C1173.29 414.419 1173.57 412.751 1173.57 410.929C1173.57 409.119 1173.29 407.457 1172.73 405.943C1172.19 404.417 1171.36 403.192 1170.22 402.268C1169.09 401.345 1167.66 400.884 1165.94 400.884C1164.2 400.884 1162.76 401.345 1161.62 402.268C1160.49 403.192 1159.64 404.417 1159.09 405.943C1158.55 407.457 1158.28 409.119 1158.28 410.929C1158.28 412.751 1158.55 414.419 1159.09 415.933C1159.64 417.447 1160.49 418.66 1161.62 419.571C1162.76 420.482 1164.2 420.938 1165.94 420.938ZM1190.83 408.159V425H1185.31V396.636H1190.61V401.253H1190.96C1191.61 399.751 1192.63 398.545 1194.02 397.634C1195.42 396.723 1197.19 396.267 1199.32 396.267C1201.25 396.267 1202.95 396.673 1204.4 397.486C1205.85 398.286 1206.98 399.48 1207.78 401.068C1208.58 402.656 1208.98 404.62 1208.98 406.959V425H1203.46V407.624C1203.46 405.568 1202.92 403.961 1201.85 402.804C1200.78 401.634 1199.31 401.05 1197.44 401.05C1196.16 401.05 1195.02 401.327 1194.02 401.881C1193.04 402.435 1192.25 403.247 1191.68 404.318C1191.11 405.377 1190.83 406.657 1190.83 408.159Z" fill="#F1760D"/>
</svg>
