<svg width="1609" height="814" viewBox="0 0 1609 814" fill="none" xmlns="http://www.w3.org/2000/svg" style="background-color: #3c3c3c;">
<rect width="1609" height="814" fill="#3C3C3C"/>
<path d="M486.435 407H480.379L493.988 369.182H500.58L514.19 407H508.133L497.441 376.051H497.146L486.435 407ZM487.451 392.19H507.099V396.991H487.451V392.19ZM533.413 407V369.182H547.262C549.946 369.182 552.168 369.625 553.928 370.511C555.689 371.385 557.006 372.573 557.88 374.075C558.754 375.565 559.191 377.245 559.191 379.116C559.191 380.692 558.902 382.022 558.323 383.105C557.745 384.176 556.969 385.038 555.996 385.69C555.036 386.33 553.978 386.798 552.82 387.094V387.463C554.076 387.525 555.301 387.931 556.495 388.682C557.701 389.42 558.699 390.473 559.487 391.839C560.274 393.206 560.668 394.868 560.668 396.825C560.668 398.758 560.213 400.494 559.302 402.033C558.403 403.559 557.012 404.772 555.129 405.67C553.245 406.557 550.838 407 547.908 407H533.413ZM539.119 402.107H547.354C550.087 402.107 552.045 401.577 553.227 400.518C554.408 399.46 554.999 398.136 554.999 396.548C554.999 395.354 554.698 394.259 554.094 393.261C553.491 392.264 552.629 391.47 551.509 390.879C550.401 390.288 549.084 389.993 547.558 389.993H539.119V402.107ZM539.119 385.543H546.763C548.044 385.543 549.195 385.296 550.217 384.804C551.251 384.312 552.069 383.622 552.673 382.736C553.288 381.837 553.596 380.778 553.596 379.56C553.596 377.996 553.048 376.685 551.952 375.626C550.857 374.568 549.176 374.038 546.911 374.038H539.119V385.543ZM566.993 407V378.636H572.514V407H566.993ZM569.781 374.26C568.821 374.26 567.996 373.94 567.307 373.3C566.63 372.647 566.291 371.872 566.291 370.973C566.291 370.062 566.63 369.286 567.307 368.646C567.996 367.994 568.821 367.668 569.781 367.668C570.741 367.668 571.56 367.994 572.237 368.646C572.927 369.286 573.271 370.062 573.271 370.973C573.271 371.872 572.927 372.647 572.237 373.3C571.56 373.94 570.741 374.26 569.781 374.26ZM593.182 378.636V383.068H577.689V378.636H593.182ZM581.844 371.841H587.365V398.672C587.365 399.743 587.525 400.549 587.846 401.091C588.166 401.62 588.578 401.983 589.083 402.18C589.6 402.365 590.16 402.457 590.763 402.457C591.206 402.457 591.594 402.427 591.926 402.365C592.259 402.304 592.517 402.254 592.702 402.217L593.699 406.778C593.379 406.902 592.924 407.025 592.333 407.148C591.742 407.283 591.003 407.357 590.117 407.369C588.664 407.394 587.31 407.135 586.054 406.594C584.799 406.052 583.783 405.215 583.007 404.082C582.232 402.95 581.844 401.528 581.844 399.817V371.841ZM610.933 407.572C608.187 407.572 605.824 406.951 603.842 405.707C601.872 404.452 600.358 402.722 599.299 400.518C598.24 398.315 597.711 395.791 597.711 392.947C597.711 390.067 598.253 387.525 599.336 385.321C600.419 383.105 601.946 381.375 603.915 380.132C605.885 378.889 608.206 378.267 610.877 378.267C613.031 378.267 614.952 378.667 616.638 379.467C618.325 380.255 619.685 381.363 620.719 382.791C621.766 384.219 622.388 385.887 622.585 387.795H617.211C616.915 386.466 616.238 385.321 615.18 384.361C614.133 383.401 612.73 382.92 610.969 382.92C609.431 382.92 608.083 383.327 606.925 384.139C605.781 384.939 604.888 386.084 604.248 387.574C603.608 389.051 603.288 390.799 603.288 392.818C603.288 394.886 603.602 396.671 604.229 398.173C604.857 399.675 605.744 400.839 606.888 401.663C608.046 402.488 609.406 402.901 610.969 402.901C612.016 402.901 612.964 402.71 613.813 402.328C614.675 401.934 615.395 401.374 615.974 400.648C616.565 399.921 616.977 399.047 617.211 398.026H622.585C622.388 399.86 621.79 401.497 620.793 402.938C619.796 404.378 618.46 405.51 616.786 406.335C615.124 407.16 613.173 407.572 610.933 407.572ZM640.436 407.572C637.777 407.572 635.457 406.963 633.475 405.744C631.493 404.526 629.954 402.821 628.858 400.629C627.763 398.438 627.215 395.877 627.215 392.947C627.215 390.005 627.763 387.432 628.858 385.229C629.954 383.025 631.493 381.314 633.475 380.095C635.457 378.876 637.777 378.267 640.436 378.267C643.096 378.267 645.416 378.876 647.398 380.095C649.38 381.314 650.919 383.025 652.015 385.229C653.11 387.432 653.658 390.005 653.658 392.947C653.658 395.877 653.11 398.438 652.015 400.629C650.919 402.821 649.38 404.526 647.398 405.744C645.416 406.963 643.096 407.572 640.436 407.572ZM640.455 402.938C642.178 402.938 643.606 402.482 644.739 401.571C645.872 400.66 646.709 399.447 647.25 397.933C647.804 396.419 648.081 394.751 648.081 392.929C648.081 391.119 647.804 389.457 647.25 387.943C646.709 386.417 645.872 385.192 644.739 384.268C643.606 383.345 642.178 382.884 640.455 382.884C638.719 382.884 637.279 383.345 636.134 384.268C635.001 385.192 634.158 386.417 633.604 387.943C633.062 389.457 632.792 391.119 632.792 392.929C632.792 394.751 633.062 396.419 633.604 397.933C634.158 399.447 635.001 400.66 636.134 401.571C637.279 402.482 638.719 402.938 640.455 402.938ZM659.821 407V378.636H665.342V407H659.821ZM662.609 374.26C661.649 374.26 660.824 373.94 660.135 373.3C659.458 372.647 659.119 371.872 659.119 370.973C659.119 370.062 659.458 369.286 660.135 368.646C660.824 367.994 661.649 367.668 662.609 367.668C663.57 367.668 664.388 367.994 665.065 368.646C665.755 369.286 666.099 370.062 666.099 370.973C666.099 371.872 665.755 372.647 665.065 373.3C664.388 373.94 663.57 374.26 662.609 374.26ZM678.292 390.159V407H672.77V378.636H678.07V383.253H678.421C679.073 381.751 680.095 380.545 681.486 379.634C682.89 378.723 684.656 378.267 686.786 378.267C688.719 378.267 690.411 378.673 691.864 379.486C693.317 380.286 694.443 381.48 695.243 383.068C696.043 384.656 696.444 386.62 696.444 388.959V407H690.922V389.624C690.922 387.568 690.387 385.961 689.316 384.804C688.245 383.634 686.774 383.05 684.902 383.05C683.622 383.05 682.483 383.327 681.486 383.881C680.501 384.435 679.72 385.247 679.141 386.318C678.575 387.377 678.292 388.657 678.292 390.159ZM730.85 378.636V383.068H715.357V378.636H730.85ZM719.512 371.841H725.033V398.672C725.033 399.743 725.193 400.549 725.513 401.091C725.834 401.62 726.246 401.983 726.751 402.18C727.268 402.365 727.828 402.457 728.431 402.457C728.874 402.457 729.262 402.427 729.594 402.365C729.927 402.304 730.185 402.254 730.37 402.217L731.367 406.778C731.047 406.902 730.592 407.025 730.001 407.148C729.41 407.283 728.671 407.357 727.785 407.369C726.332 407.394 724.978 407.135 723.722 406.594C722.467 406.052 721.451 405.215 720.675 404.082C719.9 402.95 719.512 401.528 719.512 399.817V371.841ZM736.958 407V378.636H742.294V383.142H742.59C743.107 381.616 744.018 380.415 745.323 379.541C746.64 378.655 748.13 378.212 749.792 378.212C750.136 378.212 750.542 378.224 751.01 378.249C751.49 378.273 751.866 378.304 752.137 378.341V383.622C751.915 383.561 751.521 383.493 750.955 383.419C750.389 383.333 749.822 383.29 749.256 383.29C747.951 383.29 746.788 383.567 745.766 384.121C744.757 384.662 743.956 385.42 743.365 386.392C742.775 387.352 742.479 388.448 742.479 389.679V407H736.958ZM764.915 407.628C763.118 407.628 761.493 407.295 760.04 406.631C758.587 405.954 757.436 404.975 756.587 403.695C755.75 402.414 755.331 400.845 755.331 398.986C755.331 397.385 755.639 396.068 756.255 395.034C756.87 394 757.701 393.181 758.748 392.578C759.794 391.975 760.963 391.519 762.256 391.212C763.549 390.904 764.866 390.67 766.208 390.51C767.907 390.313 769.285 390.153 770.344 390.03C771.403 389.894 772.172 389.679 772.652 389.384C773.132 389.088 773.373 388.608 773.373 387.943V387.814C773.373 386.201 772.917 384.952 772.006 384.065C771.107 383.179 769.766 382.736 767.98 382.736C766.122 382.736 764.657 383.148 763.586 383.973C762.527 384.786 761.794 385.69 761.388 386.688L756.199 385.506C756.815 383.782 757.713 382.391 758.895 381.332C760.089 380.261 761.462 379.486 763.013 379.006C764.564 378.513 766.195 378.267 767.907 378.267C769.039 378.267 770.239 378.402 771.507 378.673C772.788 378.932 773.982 379.412 775.09 380.114C776.21 380.815 777.127 381.819 777.841 383.124C778.555 384.416 778.912 386.097 778.912 388.165V407H773.52V403.122H773.299C772.942 403.836 772.406 404.538 771.692 405.227C770.978 405.917 770.061 406.489 768.941 406.945C767.82 407.4 766.479 407.628 764.915 407.628ZM766.115 403.196C767.642 403.196 768.947 402.894 770.03 402.291C771.126 401.688 771.957 400.9 772.523 399.928C773.102 398.943 773.391 397.89 773.391 396.77V393.114C773.194 393.311 772.812 393.495 772.246 393.668C771.692 393.828 771.058 393.969 770.344 394.092C769.63 394.203 768.935 394.308 768.257 394.406C767.58 394.492 767.014 394.566 766.559 394.628C765.488 394.763 764.509 394.991 763.623 395.311C762.748 395.631 762.047 396.093 761.517 396.696C761 397.287 760.742 398.075 760.742 399.06C760.742 400.426 761.247 401.46 762.256 402.162C763.266 402.851 764.552 403.196 766.115 403.196ZM791.788 390.159V407H786.266V378.636H791.566V383.253H791.917C792.569 381.751 793.591 380.545 794.982 379.634C796.386 378.723 798.152 378.267 800.282 378.267C802.215 378.267 803.907 378.673 805.36 379.486C806.813 380.286 807.939 381.48 808.739 383.068C809.54 384.656 809.94 386.62 809.94 388.959V407H804.418V389.624C804.418 387.568 803.883 385.961 802.812 384.804C801.741 383.634 800.27 383.05 798.398 383.05C797.118 383.05 795.979 383.327 794.982 383.881C793.997 384.435 793.216 385.247 792.637 386.318C792.071 387.377 791.788 388.657 791.788 390.159ZM838.599 385.561L833.594 386.447C833.385 385.807 833.053 385.198 832.597 384.619C832.154 384.041 831.551 383.567 830.788 383.197C830.024 382.828 829.07 382.643 827.925 382.643C826.362 382.643 825.057 382.994 824.011 383.696C822.964 384.385 822.441 385.278 822.441 386.374C822.441 387.321 822.792 388.085 823.494 388.663C824.195 389.242 825.328 389.716 826.891 390.085L831.397 391.119C834.007 391.723 835.952 392.652 837.232 393.908C838.513 395.163 839.153 396.795 839.153 398.801C839.153 400.5 838.66 402.014 837.675 403.344C836.703 404.661 835.343 405.695 833.594 406.446C831.859 407.197 829.846 407.572 827.556 407.572C824.38 407.572 821.789 406.895 819.782 405.541C817.775 404.175 816.544 402.236 816.089 399.724L821.425 398.912C821.758 400.303 822.441 401.356 823.475 402.07C824.509 402.771 825.857 403.122 827.519 403.122C829.329 403.122 830.775 402.747 831.859 401.996C832.942 401.232 833.484 400.303 833.484 399.207C833.484 398.321 833.151 397.576 832.487 396.973C831.834 396.37 830.831 395.914 829.477 395.607L824.675 394.554C822.029 393.951 820.071 392.991 818.803 391.673C817.548 390.356 816.92 388.688 816.92 386.669C816.92 384.995 817.388 383.53 818.323 382.274C819.259 381.018 820.551 380.04 822.201 379.338C823.851 378.624 825.74 378.267 827.87 378.267C830.935 378.267 833.348 378.932 835.109 380.261C836.869 381.579 838.032 383.345 838.599 385.561ZM853.478 407.628C851.68 407.628 850.055 407.295 848.603 406.631C847.15 405.954 845.999 404.975 845.15 403.695C844.312 402.414 843.894 400.845 843.894 398.986C843.894 397.385 844.202 396.068 844.817 395.034C845.433 394 846.264 393.181 847.31 392.578C848.356 391.975 849.526 391.519 850.819 391.212C852.111 390.904 853.428 390.67 854.77 390.51C856.469 390.313 857.848 390.153 858.907 390.03C859.965 389.894 860.735 389.679 861.215 389.384C861.695 389.088 861.935 388.608 861.935 387.943V387.814C861.935 386.201 861.48 384.952 860.569 384.065C859.67 383.179 858.328 382.736 856.543 382.736C854.684 382.736 853.219 383.148 852.148 383.973C851.089 384.786 850.357 385.69 849.951 386.688L844.762 385.506C845.377 383.782 846.276 382.391 847.458 381.332C848.652 380.261 850.025 379.486 851.576 379.006C853.127 378.513 854.758 378.267 856.469 378.267C857.602 378.267 858.802 378.402 860.07 378.673C861.35 378.932 862.544 379.412 863.652 380.114C864.773 380.815 865.69 381.819 866.404 383.124C867.118 384.416 867.475 386.097 867.475 388.165V407H862.083V403.122H861.861C861.504 403.836 860.969 404.538 860.255 405.227C859.541 405.917 858.623 406.489 857.503 406.945C856.383 407.4 855.041 407.628 853.478 407.628ZM854.678 403.196C856.204 403.196 857.509 402.894 858.593 402.291C859.688 401.688 860.519 400.9 861.086 399.928C861.664 398.943 861.953 397.89 861.953 396.77V393.114C861.757 393.311 861.375 393.495 860.809 393.668C860.255 393.828 859.621 393.969 858.907 394.092C858.193 394.203 857.497 394.308 856.82 394.406C856.143 394.492 855.577 394.566 855.121 394.628C854.05 394.763 853.071 394.991 852.185 395.311C851.311 395.631 850.609 396.093 850.08 396.696C849.563 397.287 849.304 398.075 849.304 399.06C849.304 400.426 849.809 401.46 850.819 402.162C851.828 402.851 853.114 403.196 854.678 403.196ZM886.776 407.572C884.031 407.572 881.667 406.951 879.685 405.707C877.716 404.452 876.201 402.722 875.143 400.518C874.084 398.315 873.555 395.791 873.555 392.947C873.555 390.067 874.096 387.525 875.18 385.321C876.263 383.105 877.79 381.375 879.759 380.132C881.729 378.889 884.049 378.267 886.721 378.267C888.875 378.267 890.796 378.667 892.482 379.467C894.169 380.255 895.529 381.363 896.563 382.791C897.61 384.219 898.231 385.887 898.428 387.795H893.055C892.759 386.466 892.082 385.321 891.023 384.361C889.977 383.401 888.574 382.92 886.813 382.92C885.274 382.92 883.926 383.327 882.769 384.139C881.624 384.939 880.732 386.084 880.092 387.574C879.451 389.051 879.131 390.799 879.131 392.818C879.131 394.886 879.445 396.671 880.073 398.173C880.701 399.675 881.587 400.839 882.732 401.663C883.889 402.488 885.25 402.901 886.813 402.901C887.86 402.901 888.808 402.71 889.657 402.328C890.519 401.934 891.239 401.374 891.817 400.648C892.408 399.921 892.821 399.047 893.055 398.026H898.428C898.231 399.86 897.634 401.497 896.637 402.938C895.64 404.378 894.304 405.51 892.63 406.335C890.968 407.16 889.017 407.572 886.776 407.572ZM917.573 378.636V383.068H902.08V378.636H917.573ZM906.235 371.841H911.756V398.672C911.756 399.743 911.916 400.549 912.236 401.091C912.556 401.62 912.969 401.983 913.473 402.18C913.99 402.365 914.551 402.457 915.154 402.457C915.597 402.457 915.985 402.427 916.317 402.365C916.65 402.304 916.908 402.254 917.093 402.217L918.09 406.778C917.77 406.902 917.314 407.025 916.723 407.148C916.132 407.283 915.394 407.357 914.507 407.369C913.055 407.394 911.701 407.135 910.445 406.594C909.189 406.052 908.174 405.215 907.398 404.082C906.623 402.95 906.235 401.528 906.235 399.817V371.841ZM923.68 407V378.636H929.202V407H923.68ZM926.469 374.26C925.509 374.26 924.684 373.94 923.994 373.3C923.317 372.647 922.979 371.872 922.979 370.973C922.979 370.062 923.317 369.286 923.994 368.646C924.684 367.994 925.509 367.668 926.469 367.668C927.429 367.668 928.248 367.994 928.925 368.646C929.614 369.286 929.959 370.062 929.959 370.973C929.959 371.872 929.614 372.647 928.925 373.3C928.248 373.94 927.429 374.26 926.469 374.26ZM948.577 407.572C945.918 407.572 943.597 406.963 941.615 405.744C939.633 404.526 938.095 402.821 936.999 400.629C935.903 398.438 935.355 395.877 935.355 392.947C935.355 390.005 935.903 387.432 936.999 385.229C938.095 383.025 939.633 381.314 941.615 380.095C943.597 378.876 945.918 378.267 948.577 378.267C951.236 378.267 953.557 378.876 955.539 380.095C957.521 381.314 959.06 383.025 960.155 385.229C961.251 387.432 961.799 390.005 961.799 392.947C961.799 395.877 961.251 398.438 960.155 400.629C959.06 402.821 957.521 404.526 955.539 405.744C953.557 406.963 951.236 407.572 948.577 407.572ZM948.596 402.938C950.319 402.938 951.747 402.482 952.88 401.571C954.012 400.66 954.849 399.447 955.391 397.933C955.945 396.419 956.222 394.751 956.222 392.929C956.222 391.119 955.945 389.457 955.391 387.943C954.849 386.417 954.012 385.192 952.88 384.268C951.747 383.345 950.319 382.884 948.596 382.884C946.86 382.884 945.419 383.345 944.275 384.268C943.142 385.192 942.299 386.417 941.745 387.943C941.203 389.457 940.932 391.119 940.932 392.929C940.932 394.751 941.203 396.419 941.745 397.933C942.299 399.447 943.142 400.66 944.275 401.571C945.419 402.482 946.86 402.938 948.596 402.938ZM973.483 390.159V407H967.962V378.636H973.261V383.253H973.612C974.265 381.751 975.286 380.545 976.678 379.634C978.081 378.723 979.848 378.267 981.977 378.267C983.91 378.267 985.603 378.673 987.055 379.486C988.508 380.286 989.634 381.48 990.435 383.068C991.235 384.656 991.635 386.62 991.635 388.959V407H986.114V389.624C986.114 387.568 985.578 385.961 984.507 384.804C983.436 383.634 981.965 383.05 980.094 383.05C978.813 383.05 977.675 383.327 976.678 383.881C975.693 384.435 974.911 385.247 974.332 386.318C973.766 387.377 973.483 388.657 973.483 390.159ZM1024.69 418.227C1022.44 418.227 1020.5 417.932 1018.88 417.341C1017.26 416.75 1015.95 415.968 1014.93 414.996C1013.9 414.023 1013.14 412.958 1012.64 411.801L1017.38 409.844C1017.71 410.385 1018.16 410.958 1018.71 411.561C1019.28 412.177 1020.04 412.7 1021 413.131C1021.97 413.562 1023.22 413.777 1024.75 413.777C1026.84 413.777 1028.57 413.266 1029.94 412.244C1031.3 411.235 1031.99 409.622 1031.99 407.406V401.83H1031.64C1031.3 402.433 1030.82 403.104 1030.2 403.842C1029.58 404.581 1028.73 405.221 1027.65 405.763C1026.56 406.304 1025.16 406.575 1023.42 406.575C1021.18 406.575 1019.16 406.052 1017.36 405.006C1015.58 403.947 1014.16 402.39 1013.12 400.334C1012.08 398.266 1011.56 395.723 1011.56 392.707C1011.56 389.691 1012.08 387.106 1013.1 384.952C1014.13 382.797 1015.55 381.148 1017.34 380.003C1019.14 378.846 1021.18 378.267 1023.46 378.267C1025.22 378.267 1026.64 378.562 1027.72 379.153C1028.81 379.732 1029.65 380.409 1030.25 381.185C1030.87 381.96 1031.34 382.643 1031.67 383.234H1032.08V378.636H1037.49V407.628C1037.49 410.065 1036.92 412.066 1035.79 413.629C1034.66 415.193 1033.13 416.35 1031.19 417.101C1029.27 417.852 1027.11 418.227 1024.69 418.227ZM1024.64 401.996C1026.23 401.996 1027.57 401.626 1028.66 400.888C1029.77 400.137 1030.61 399.066 1031.18 397.675C1031.75 396.271 1032.04 394.591 1032.04 392.634C1032.04 390.725 1031.76 389.045 1031.19 387.592C1030.63 386.14 1029.8 385.007 1028.7 384.195C1027.6 383.37 1026.25 382.957 1024.64 382.957C1022.98 382.957 1021.59 383.388 1020.48 384.25C1019.38 385.099 1018.54 386.257 1017.97 387.722C1017.42 389.187 1017.14 390.824 1017.14 392.634C1017.14 394.492 1017.42 396.124 1017.99 397.527C1018.56 398.93 1019.39 400.026 1020.5 400.814C1021.62 401.602 1023 401.996 1024.64 401.996ZM1056.84 407.572C1054.18 407.572 1051.86 406.963 1049.88 405.744C1047.9 404.526 1046.36 402.821 1045.26 400.629C1044.17 398.438 1043.62 395.877 1043.62 392.947C1043.62 390.005 1044.17 387.432 1045.26 385.229C1046.36 383.025 1047.9 381.314 1049.88 380.095C1051.86 378.876 1054.18 378.267 1056.84 378.267C1059.5 378.267 1061.82 378.876 1063.8 380.095C1065.79 381.314 1067.33 383.025 1068.42 385.229C1069.52 387.432 1070.06 390.005 1070.06 392.947C1070.06 395.877 1069.52 398.438 1068.42 400.629C1067.33 402.821 1065.79 404.526 1063.8 405.744C1061.82 406.963 1059.5 407.572 1056.84 407.572ZM1056.86 402.938C1058.58 402.938 1060.01 402.482 1061.15 401.571C1062.28 400.66 1063.11 399.447 1063.66 397.933C1064.21 396.419 1064.49 394.751 1064.49 392.929C1064.49 391.119 1064.21 389.457 1063.66 387.943C1063.11 386.417 1062.28 385.192 1061.15 384.268C1060.01 383.345 1058.58 382.884 1056.86 382.884C1055.13 382.884 1053.69 383.345 1052.54 384.268C1051.41 385.192 1050.56 386.417 1050.01 387.943C1049.47 389.457 1049.2 391.119 1049.2 392.929C1049.2 394.751 1049.47 396.419 1050.01 397.933C1050.56 399.447 1051.41 400.66 1052.54 401.571C1053.69 402.482 1055.13 402.938 1056.86 402.938ZM1088.45 407.572C1085.66 407.572 1083.25 406.975 1081.23 405.781C1079.22 404.575 1077.67 402.882 1076.58 400.703C1075.49 398.512 1074.95 395.945 1074.95 393.003C1074.95 390.098 1075.49 387.537 1076.58 385.321C1077.67 383.105 1079.2 381.375 1081.16 380.132C1083.13 378.889 1085.43 378.267 1088.06 378.267C1089.66 378.267 1091.22 378.532 1092.72 379.061C1094.22 379.59 1095.57 380.421 1096.76 381.554C1097.96 382.687 1098.9 384.158 1099.59 385.967C1100.28 387.765 1100.62 389.95 1100.62 392.523V394.48H1078.07V390.344H1095.21C1095.21 388.891 1094.91 387.605 1094.32 386.484C1093.73 385.352 1092.9 384.459 1091.83 383.807C1090.77 383.154 1089.53 382.828 1088.1 382.828C1086.55 382.828 1085.2 383.21 1084.04 383.973C1082.89 384.724 1082.01 385.709 1081.38 386.928C1080.76 388.134 1080.46 389.445 1080.46 390.861V394.092C1080.46 395.988 1080.79 397.601 1081.45 398.93C1082.13 400.26 1083.07 401.276 1084.28 401.977C1085.48 402.667 1086.89 403.011 1088.51 403.011C1089.55 403.011 1090.51 402.864 1091.37 402.568C1092.23 402.26 1092.98 401.805 1093.6 401.202C1094.23 400.598 1094.71 399.854 1095.04 398.967L1100.27 399.909C1099.85 401.448 1099.1 402.796 1098.02 403.953C1096.95 405.098 1095.6 405.991 1093.97 406.631C1092.36 407.259 1090.52 407.572 1088.45 407.572ZM1128 385.561L1123 386.447C1122.79 385.807 1122.46 385.198 1122 384.619C1121.56 384.041 1120.95 383.567 1120.19 383.197C1119.43 382.828 1118.47 382.643 1117.33 382.643C1115.76 382.643 1114.46 382.994 1113.41 383.696C1112.37 384.385 1111.84 385.278 1111.84 386.374C1111.84 387.321 1112.19 388.085 1112.9 388.663C1113.6 389.242 1114.73 389.716 1116.29 390.085L1120.8 391.119C1123.41 391.723 1125.35 392.652 1126.63 393.908C1127.91 395.163 1128.56 396.795 1128.56 398.801C1128.56 400.5 1128.06 402.014 1127.08 403.344C1126.11 404.661 1124.74 405.695 1123 406.446C1121.26 407.197 1119.25 407.572 1116.96 407.572C1113.78 407.572 1111.19 406.895 1109.18 405.541C1107.18 404.175 1105.95 402.236 1105.49 399.724L1110.83 398.912C1111.16 400.303 1111.84 401.356 1112.88 402.07C1113.91 402.771 1115.26 403.122 1116.92 403.122C1118.73 403.122 1120.18 402.747 1121.26 401.996C1122.34 401.232 1122.89 400.303 1122.89 399.207C1122.89 398.321 1122.55 397.576 1121.89 396.973C1121.24 396.37 1120.23 395.914 1118.88 395.607L1114.08 394.554C1111.43 393.951 1109.47 392.991 1108.21 391.673C1106.95 390.356 1106.32 388.688 1106.32 386.669C1106.32 384.995 1106.79 383.53 1107.73 382.274C1108.66 381.018 1109.95 380.04 1111.6 379.338C1113.25 378.624 1115.14 378.267 1117.27 378.267C1120.34 378.267 1122.75 378.932 1124.51 380.261C1126.27 381.579 1127.43 383.345 1128 385.561ZM505.508 441.636V446.068H490.015V441.636H505.508ZM494.17 434.841H499.692V461.672C499.692 462.743 499.852 463.549 500.172 464.091C500.492 464.62 500.904 464.983 501.409 465.18C501.926 465.365 502.486 465.457 503.089 465.457C503.532 465.457 503.92 465.427 504.253 465.365C504.585 465.304 504.844 465.254 505.028 465.217L506.025 469.778C505.705 469.902 505.25 470.025 504.659 470.148C504.068 470.283 503.329 470.357 502.443 470.369C500.99 470.394 499.636 470.135 498.381 469.594C497.125 469.052 496.109 468.215 495.334 467.082C494.558 465.95 494.17 464.528 494.17 462.817V434.841ZM517.747 453.159V470H512.225V432.182H517.673V446.253H518.024C518.688 444.726 519.704 443.514 521.07 442.615C522.437 441.716 524.222 441.267 526.426 441.267C528.371 441.267 530.07 441.667 531.522 442.467C532.987 443.268 534.12 444.462 534.92 446.05C535.732 447.625 536.139 449.595 536.139 451.959V470H530.617V452.624C530.617 450.543 530.082 448.93 529.011 447.786C527.94 446.628 526.45 446.05 524.542 446.05C523.237 446.05 522.068 446.327 521.034 446.881C520.012 447.435 519.205 448.247 518.615 449.318C518.036 450.377 517.747 451.657 517.747 453.159ZM543.507 470V441.636H548.843V446.142H549.139C549.656 444.616 550.567 443.415 551.872 442.541C553.189 441.655 554.678 441.212 556.34 441.212C556.685 441.212 557.091 441.224 557.559 441.249C558.039 441.273 558.415 441.304 558.686 441.341V446.622C558.464 446.561 558.07 446.493 557.504 446.419C556.937 446.333 556.371 446.29 555.805 446.29C554.5 446.29 553.337 446.567 552.315 447.121C551.305 447.662 550.505 448.42 549.914 449.392C549.323 450.352 549.028 451.448 549.028 452.679V470H543.507ZM574.395 470.572C571.736 470.572 569.416 469.963 567.434 468.744C565.452 467.526 563.913 465.821 562.817 463.629C561.722 461.438 561.174 458.877 561.174 455.947C561.174 453.005 561.722 450.432 562.817 448.229C563.913 446.025 565.452 444.314 567.434 443.095C569.416 441.876 571.736 441.267 574.395 441.267C577.055 441.267 579.375 441.876 581.357 443.095C583.339 444.314 584.878 446.025 585.974 448.229C587.069 450.432 587.617 453.005 587.617 455.947C587.617 458.877 587.069 461.438 585.974 463.629C584.878 465.821 583.339 467.526 581.357 468.744C579.375 469.963 577.055 470.572 574.395 470.572ZM574.414 465.938C576.137 465.938 577.565 465.482 578.698 464.571C579.831 463.66 580.668 462.447 581.209 460.933C581.763 459.419 582.04 457.751 582.04 455.929C582.04 454.119 581.763 452.457 581.209 450.943C580.668 449.417 579.831 448.192 578.698 447.268C577.565 446.345 576.137 445.884 574.414 445.884C572.678 445.884 571.238 446.345 570.093 447.268C568.96 448.192 568.117 449.417 567.563 450.943C567.021 452.457 566.751 454.119 566.751 455.929C566.751 457.751 567.021 459.419 567.563 460.933C568.117 462.447 568.96 463.66 570.093 464.571C571.238 465.482 572.678 465.938 574.414 465.938ZM611.747 458.237V441.636H617.287V470H611.858V465.088H611.563C610.91 466.602 609.864 467.864 608.423 468.874C606.995 469.871 605.217 470.369 603.087 470.369C601.265 470.369 599.652 469.969 598.249 469.169C596.858 468.357 595.762 467.156 594.962 465.568C594.174 463.98 593.78 462.017 593.78 459.678V441.636H599.301V459.013C599.301 460.946 599.837 462.484 600.908 463.629C601.979 464.774 603.37 465.347 605.081 465.347C606.115 465.347 607.143 465.088 608.165 464.571C609.199 464.054 610.055 463.272 610.732 462.226C611.421 461.179 611.76 459.85 611.747 458.237ZM636.598 481.227C634.345 481.227 632.406 480.932 630.781 480.341C629.168 479.75 627.851 478.968 626.829 477.996C625.808 477.023 625.044 475.958 624.54 474.801L629.285 472.844C629.618 473.385 630.061 473.958 630.615 474.561C631.181 475.177 631.944 475.7 632.905 476.131C633.877 476.562 635.127 476.777 636.653 476.777C638.746 476.777 640.476 476.266 641.842 475.244C643.209 474.235 643.892 472.622 643.892 470.406V464.83H643.541C643.209 465.433 642.729 466.104 642.101 466.842C641.485 467.581 640.636 468.221 639.552 468.763C638.469 469.304 637.059 469.575 635.324 469.575C633.083 469.575 631.064 469.052 629.267 468.006C627.482 466.947 626.066 465.39 625.02 463.334C623.986 461.266 623.469 458.723 623.469 455.707C623.469 452.691 623.979 450.106 625.001 447.952C626.035 445.797 627.451 444.148 629.248 443.003C631.046 441.846 633.083 441.267 635.361 441.267C637.121 441.267 638.543 441.562 639.626 442.153C640.71 442.732 641.553 443.409 642.156 444.185C642.772 444.96 643.246 445.643 643.578 446.234H643.984V441.636H649.395V470.628C649.395 473.065 648.828 475.066 647.696 476.629C646.563 478.193 645.031 479.35 643.098 480.101C641.177 480.852 639.011 481.227 636.598 481.227ZM636.542 464.996C638.131 464.996 639.472 464.626 640.568 463.888C641.676 463.137 642.513 462.066 643.079 460.675C643.658 459.271 643.947 457.591 643.947 455.634C643.947 453.725 643.664 452.045 643.098 450.592C642.532 449.14 641.701 448.007 640.605 447.195C639.509 446.37 638.155 445.957 636.542 445.957C634.881 445.957 633.496 446.388 632.388 447.25C631.28 448.099 630.443 449.257 629.876 450.722C629.322 452.187 629.045 453.824 629.045 455.634C629.045 457.492 629.328 459.124 629.895 460.527C630.461 461.93 631.298 463.026 632.406 463.814C633.526 464.602 634.905 464.996 636.542 464.996ZM662.321 453.159V470H656.8V432.182H662.247V446.253H662.598C663.263 444.726 664.278 443.514 665.645 442.615C667.011 441.716 668.796 441.267 671 441.267C672.945 441.267 674.644 441.667 676.096 442.467C677.561 443.268 678.694 444.462 679.494 446.05C680.307 447.625 680.713 449.595 680.713 451.959V470H675.192V452.624C675.192 450.543 674.656 448.93 673.585 447.786C672.514 446.628 671.024 446.05 669.116 446.05C667.811 446.05 666.642 446.327 665.608 446.881C664.586 447.435 663.78 448.247 663.189 449.318C662.61 450.377 662.321 451.657 662.321 453.159ZM723.097 448.561L718.093 449.447C717.883 448.807 717.551 448.198 717.095 447.619C716.652 447.041 716.049 446.567 715.286 446.197C714.522 445.828 713.568 445.643 712.423 445.643C710.86 445.643 709.555 445.994 708.509 446.696C707.462 447.385 706.939 448.278 706.939 449.374C706.939 450.321 707.29 451.085 707.992 451.663C708.693 452.242 709.826 452.716 711.389 453.085L715.895 454.119C718.505 454.723 720.45 455.652 721.73 456.908C723.011 458.163 723.651 459.795 723.651 461.801C723.651 463.5 723.158 465.014 722.173 466.344C721.201 467.661 719.841 468.695 718.093 469.446C716.357 470.197 714.344 470.572 712.054 470.572C708.878 470.572 706.287 469.895 704.28 468.541C702.273 467.175 701.042 465.236 700.587 462.724L705.923 461.912C706.256 463.303 706.939 464.356 707.973 465.07C709.007 465.771 710.355 466.122 712.017 466.122C713.827 466.122 715.273 465.747 716.357 464.996C717.44 464.232 717.982 463.303 717.982 462.207C717.982 461.321 717.649 460.576 716.985 459.973C716.332 459.37 715.329 458.914 713.975 458.607L709.173 457.554C706.527 456.951 704.569 455.991 703.301 454.673C702.046 453.356 701.418 451.688 701.418 449.669C701.418 447.995 701.886 446.53 702.821 445.274C703.757 444.018 705.049 443.04 706.699 442.338C708.349 441.624 710.238 441.267 712.368 441.267C715.433 441.267 717.846 441.932 719.607 443.261C721.367 444.579 722.53 446.345 723.097 448.561ZM741.946 470.572C739.151 470.572 736.745 469.975 734.726 468.781C732.719 467.575 731.168 465.882 730.072 463.703C728.989 461.512 728.447 458.945 728.447 456.003C728.447 453.098 728.989 450.537 730.072 448.321C731.168 446.105 732.694 444.375 734.652 443.132C736.622 441.889 738.924 441.267 741.558 441.267C743.158 441.267 744.71 441.532 746.211 442.061C747.713 442.59 749.061 443.421 750.256 444.554C751.45 445.687 752.391 447.158 753.081 448.967C753.77 450.765 754.115 452.95 754.115 455.523V457.48H731.568V453.344H748.704C748.704 451.891 748.409 450.605 747.818 449.484C747.227 448.352 746.396 447.459 745.325 446.807C744.266 446.154 743.023 445.828 741.595 445.828C740.044 445.828 738.69 446.21 737.532 446.973C736.388 447.724 735.501 448.709 734.873 449.928C734.258 451.134 733.95 452.445 733.95 453.861V457.092C733.95 458.988 734.282 460.601 734.947 461.93C735.624 463.26 736.566 464.276 737.773 464.977C738.979 465.667 740.389 466.011 742.001 466.011C743.048 466.011 744.002 465.864 744.863 465.568C745.725 465.26 746.47 464.805 747.098 464.202C747.726 463.598 748.206 462.854 748.538 461.967L753.764 462.909C753.345 464.448 752.595 465.796 751.511 466.953C750.44 468.098 749.092 468.991 747.467 469.631C745.854 470.259 744.014 470.572 741.946 470.572ZM783.693 441.636L773.407 470H767.498L757.194 441.636H763.122L770.305 463.463H770.6L777.765 441.636H783.693ZM800.141 470.572C797.347 470.572 794.94 469.975 792.921 468.781C790.914 467.575 789.363 465.882 788.268 463.703C787.184 461.512 786.643 458.945 786.643 456.003C786.643 453.098 787.184 450.537 788.268 448.321C789.363 446.105 790.89 444.375 792.847 443.132C794.817 441.889 797.119 441.267 799.753 441.267C801.354 441.267 802.905 441.532 804.407 442.061C805.909 442.59 807.257 443.421 808.451 444.554C809.645 445.687 810.587 447.158 811.276 448.967C811.965 450.765 812.31 452.95 812.31 455.523V457.48H789.763V453.344H806.9C806.9 451.891 806.604 450.605 806.013 449.484C805.422 448.352 804.591 447.459 803.52 446.807C802.462 446.154 801.218 445.828 799.79 445.828C798.239 445.828 796.885 446.21 795.728 446.973C794.583 447.724 793.697 448.709 793.069 449.928C792.453 451.134 792.145 452.445 792.145 453.861V457.092C792.145 458.988 792.478 460.601 793.143 461.93C793.82 463.26 794.761 464.276 795.968 464.977C797.174 465.667 798.584 466.011 800.197 466.011C801.243 466.011 802.197 465.864 803.059 465.568C803.921 465.26 804.665 464.805 805.293 464.202C805.921 463.598 806.401 462.854 806.733 461.967L811.959 462.909C811.541 464.448 810.79 465.796 809.706 466.953C808.635 468.098 807.287 468.991 805.662 469.631C804.05 470.259 802.209 470.572 800.141 470.572ZM818.436 470V441.636H823.773V446.142H824.068C824.585 444.616 825.496 443.415 826.801 442.541C828.119 441.655 829.608 441.212 831.27 441.212C831.615 441.212 832.021 441.224 832.489 441.249C832.969 441.273 833.344 441.304 833.615 441.341V446.622C833.394 446.561 833 446.493 832.433 446.419C831.867 446.333 831.301 446.29 830.735 446.29C829.43 446.29 828.266 446.567 827.244 447.121C826.235 447.662 825.435 448.42 824.844 449.392C824.253 450.352 823.958 451.448 823.958 452.679V470H818.436ZM846.394 470.628C844.596 470.628 842.971 470.295 841.519 469.631C840.066 468.954 838.915 467.975 838.066 466.695C837.228 465.414 836.81 463.845 836.81 461.986C836.81 460.385 837.118 459.068 837.733 458.034C838.349 457 839.18 456.181 840.226 455.578C841.272 454.975 842.442 454.519 843.735 454.212C845.027 453.904 846.344 453.67 847.686 453.51C849.385 453.313 850.764 453.153 851.823 453.03C852.881 452.894 853.651 452.679 854.131 452.384C854.611 452.088 854.851 451.608 854.851 450.943V450.814C854.851 449.201 854.396 447.952 853.485 447.065C852.586 446.179 851.244 445.736 849.459 445.736C847.6 445.736 846.135 446.148 845.064 446.973C844.005 447.786 843.273 448.69 842.867 449.688L837.678 448.506C838.293 446.782 839.192 445.391 840.374 444.332C841.568 443.261 842.941 442.486 844.492 442.006C846.043 441.513 847.674 441.267 849.385 441.267C850.518 441.267 851.718 441.402 852.986 441.673C854.266 441.932 855.46 442.412 856.568 443.114C857.689 443.815 858.606 444.819 859.32 446.124C860.034 447.416 860.391 449.097 860.391 451.165V470H854.999V466.122H854.777C854.42 466.836 853.885 467.538 853.171 468.227C852.457 468.917 851.539 469.489 850.419 469.945C849.299 470.4 847.957 470.628 846.394 470.628ZM847.594 466.196C849.12 466.196 850.425 465.894 851.509 465.291C852.604 464.688 853.435 463.9 854.002 462.928C854.58 461.943 854.869 460.89 854.869 459.77V456.114C854.673 456.311 854.291 456.495 853.725 456.668C853.171 456.828 852.537 456.969 851.823 457.092C851.109 457.203 850.413 457.308 849.736 457.406C849.059 457.492 848.493 457.566 848.037 457.628C846.966 457.763 845.987 457.991 845.101 458.311C844.227 458.631 843.525 459.093 842.996 459.696C842.479 460.287 842.22 461.075 842.22 462.06C842.22 463.426 842.725 464.46 843.735 465.162C844.744 465.851 846.03 466.196 847.594 466.196ZM873.266 432.182V470H867.745V432.182H873.266ZM915.71 448.561L910.706 449.447C910.497 448.807 910.164 448.198 909.709 447.619C909.265 447.041 908.662 446.567 907.899 446.197C907.136 445.828 906.182 445.643 905.037 445.643C903.473 445.643 902.168 445.994 901.122 446.696C900.076 447.385 899.552 448.278 899.552 449.374C899.552 450.321 899.903 451.085 900.605 451.663C901.307 452.242 902.439 452.716 904.003 453.085L908.508 454.119C911.118 454.723 913.063 455.652 914.344 456.908C915.624 458.163 916.264 459.795 916.264 461.801C916.264 463.5 915.772 465.014 914.787 466.344C913.814 467.661 912.454 468.695 910.706 469.446C908.97 470.197 906.957 470.572 904.667 470.572C901.491 470.572 898.9 469.895 896.893 468.541C894.887 467.175 893.656 465.236 893.2 462.724L898.537 461.912C898.869 463.303 899.552 464.356 900.586 465.07C901.621 465.771 902.969 466.122 904.631 466.122C906.44 466.122 907.887 465.747 908.97 464.996C910.053 464.232 910.595 463.303 910.595 462.207C910.595 461.321 910.263 460.576 909.598 459.973C908.945 459.37 907.942 458.914 906.588 458.607L901.787 457.554C899.14 456.951 897.183 455.991 895.915 454.673C894.659 453.356 894.031 451.688 894.031 449.669C894.031 447.995 894.499 446.53 895.434 445.274C896.37 444.018 897.663 443.04 899.312 442.338C900.962 441.624 902.852 441.267 904.981 441.267C908.047 441.267 910.46 441.932 912.22 443.261C913.98 444.579 915.144 446.345 915.71 448.561ZM935.575 441.636V446.068H920.082V441.636H935.575ZM924.237 434.841H929.758V461.672C929.758 462.743 929.918 463.549 930.238 464.091C930.558 464.62 930.971 464.983 931.475 465.18C931.992 465.365 932.552 465.457 933.156 465.457C933.599 465.457 933.987 465.427 934.319 465.365C934.651 465.304 934.91 465.254 935.095 465.217L936.092 469.778C935.772 469.902 935.316 470.025 934.725 470.148C934.134 470.283 933.396 470.357 932.509 470.369C931.057 470.394 929.703 470.135 928.447 469.594C927.191 469.052 926.176 468.215 925.4 467.082C924.624 465.95 924.237 464.528 924.237 462.817V434.841ZM949.937 470.628C948.139 470.628 946.514 470.295 945.062 469.631C943.609 468.954 942.458 467.975 941.608 466.695C940.771 465.414 940.353 463.845 940.353 461.986C940.353 460.385 940.661 459.068 941.276 458.034C941.892 457 942.723 456.181 943.769 455.578C944.815 454.975 945.985 454.519 947.278 454.212C948.57 453.904 949.887 453.67 951.229 453.51C952.928 453.313 954.307 453.153 955.366 453.03C956.424 452.894 957.194 452.679 957.674 452.384C958.154 452.088 958.394 451.608 958.394 450.943V450.814C958.394 449.201 957.939 447.952 957.028 447.065C956.129 446.179 954.787 445.736 953.002 445.736C951.143 445.736 949.678 446.148 948.607 446.973C947.548 447.786 946.816 448.69 946.41 449.688L941.221 448.506C941.836 446.782 942.735 445.391 943.917 444.332C945.111 443.261 946.483 442.486 948.035 442.006C949.586 441.513 951.217 441.267 952.928 441.267C954.061 441.267 955.261 441.402 956.529 441.673C957.809 441.932 959.003 442.412 960.111 443.114C961.232 443.815 962.149 444.819 962.863 446.124C963.577 447.416 963.934 449.097 963.934 451.165V470H958.542V466.122H958.32C957.963 466.836 957.428 467.538 956.714 468.227C956 468.917 955.082 469.489 953.962 469.945C952.842 470.4 951.5 470.628 949.937 470.628ZM951.137 466.196C952.663 466.196 953.968 465.894 955.052 465.291C956.147 464.688 956.978 463.9 957.545 462.928C958.123 461.943 958.412 460.89 958.412 459.77V456.114C958.215 456.311 957.834 456.495 957.268 456.668C956.714 456.828 956.08 456.969 955.366 457.092C954.652 457.203 953.956 457.308 953.279 457.406C952.602 457.492 952.036 457.566 951.58 457.628C950.509 457.763 949.53 457.991 948.644 458.311C947.77 458.631 947.068 459.093 946.539 459.696C946.022 460.287 945.763 461.075 945.763 462.06C945.763 463.426 946.268 464.46 947.278 465.162C948.287 465.851 949.573 466.196 951.137 466.196ZM983.18 481.227C980.927 481.227 978.988 480.932 977.363 480.341C975.75 479.75 974.433 478.968 973.411 477.996C972.39 477.023 971.626 475.958 971.122 474.801L975.867 472.844C976.2 473.385 976.643 473.958 977.197 474.561C977.763 475.177 978.526 475.7 979.487 476.131C980.459 476.562 981.709 476.777 983.235 476.777C985.328 476.777 987.058 476.266 988.424 475.244C989.791 474.235 990.474 472.622 990.474 470.406V464.83H990.123C989.791 465.433 989.311 466.104 988.683 466.842C988.067 467.581 987.218 468.221 986.134 468.763C985.051 469.304 983.642 469.575 981.906 469.575C979.665 469.575 977.646 469.052 975.849 468.006C974.064 466.947 972.648 465.39 971.602 463.334C970.568 461.266 970.051 458.723 970.051 455.707C970.051 452.691 970.561 450.106 971.583 447.952C972.617 445.797 974.033 444.148 975.83 443.003C977.628 441.846 979.665 441.267 981.943 441.267C983.703 441.267 985.125 441.562 986.208 442.153C987.292 442.732 988.135 443.409 988.738 444.185C989.354 444.96 989.828 445.643 990.16 446.234H990.566V441.636H995.977V470.628C995.977 473.065 995.41 475.066 994.278 476.629C993.145 478.193 991.613 479.35 989.68 480.101C987.759 480.852 985.593 481.227 983.18 481.227ZM983.124 464.996C984.713 464.996 986.054 464.626 987.15 463.888C988.258 463.137 989.095 462.066 989.661 460.675C990.24 459.271 990.529 457.591 990.529 455.634C990.529 453.725 990.246 452.045 989.68 450.592C989.114 449.14 988.283 448.007 987.187 447.195C986.091 446.37 984.737 445.957 983.124 445.957C981.463 445.957 980.078 446.388 978.97 447.25C977.862 448.099 977.025 449.257 976.458 450.722C975.904 452.187 975.627 453.824 975.627 455.634C975.627 457.492 975.91 459.124 976.477 460.527C977.043 461.93 977.88 463.026 978.988 463.814C980.108 464.602 981.487 464.996 983.124 464.996ZM1015.61 470.572C1012.81 470.572 1010.4 469.975 1008.39 468.781C1006.38 467.575 1004.83 465.882 1003.73 463.703C1002.65 461.512 1002.11 458.945 1002.11 456.003C1002.11 453.098 1002.65 450.537 1003.73 448.321C1004.83 446.105 1006.35 444.375 1008.31 443.132C1010.28 441.889 1012.58 441.267 1015.22 441.267C1016.82 441.267 1018.37 441.532 1019.87 442.061C1021.37 442.59 1022.72 443.421 1023.92 444.554C1025.11 445.687 1026.05 447.158 1026.74 448.967C1027.43 450.765 1027.78 452.95 1027.78 455.523V457.48H1005.23V453.344H1022.36C1022.36 451.891 1022.07 450.605 1021.48 449.484C1020.89 448.352 1020.06 447.459 1018.99 446.807C1017.93 446.154 1016.68 445.828 1015.26 445.828C1013.7 445.828 1012.35 446.21 1011.19 446.973C1010.05 447.724 1009.16 448.709 1008.53 449.928C1007.92 451.134 1007.61 452.445 1007.61 453.861V457.092C1007.61 458.988 1007.94 460.601 1008.61 461.93C1009.28 463.26 1010.23 464.276 1011.43 464.977C1012.64 465.667 1014.05 466.011 1015.66 466.011C1016.71 466.011 1017.66 465.864 1018.52 465.568C1019.39 465.26 1020.13 464.805 1020.76 464.202C1021.39 463.598 1021.87 462.854 1022.2 461.967L1027.42 462.909C1027.01 464.448 1026.25 465.796 1025.17 466.953C1024.1 468.098 1022.75 468.991 1021.13 469.631C1019.51 470.259 1017.67 470.572 1015.61 470.572ZM1055.16 448.561L1050.15 449.447C1049.94 448.807 1049.61 448.198 1049.15 447.619C1048.71 447.041 1048.11 446.567 1047.34 446.197C1046.58 445.828 1045.63 445.643 1044.48 445.643C1042.92 445.643 1041.61 445.994 1040.57 446.696C1039.52 447.385 1039 448.278 1039 449.374C1039 450.321 1039.35 451.085 1040.05 451.663C1040.75 452.242 1041.88 452.716 1043.45 453.085L1047.95 454.119C1050.56 454.723 1052.51 455.652 1053.79 456.908C1055.07 458.163 1055.71 459.795 1055.71 461.801C1055.71 463.5 1055.22 465.014 1054.23 466.344C1053.26 467.661 1051.9 468.695 1050.15 469.446C1048.42 470.197 1046.4 470.572 1044.11 470.572C1040.94 470.572 1038.35 469.895 1036.34 468.541C1034.33 467.175 1033.1 465.236 1032.65 462.724L1037.98 461.912C1038.31 463.303 1039 464.356 1040.03 465.07C1041.07 465.771 1042.41 466.122 1044.08 466.122C1045.89 466.122 1047.33 465.747 1048.42 464.996C1049.5 464.232 1050.04 463.303 1050.04 462.207C1050.04 461.321 1049.71 460.576 1049.04 459.973C1048.39 459.37 1047.39 458.914 1046.03 458.607L1041.23 457.554C1038.59 456.951 1036.63 455.991 1035.36 454.673C1034.1 453.356 1033.48 451.688 1033.48 449.669C1033.48 447.995 1033.94 446.53 1034.88 445.274C1035.82 444.018 1037.11 443.04 1038.76 442.338C1040.41 441.624 1042.3 441.267 1044.43 441.267C1047.49 441.267 1049.9 441.932 1051.67 443.261C1053.43 444.579 1054.59 446.345 1055.16 448.561ZM1099.1 470.683L1095.78 467.396L1109.72 453.455L1095.78 439.531L1099.1 436.226L1116.33 453.455L1099.1 470.683ZM1078.33 460.398V455.689H1110.94L1106.21 460.398H1078.33ZM1078.33 451.22V446.511H1106.21L1110.94 451.22H1078.33Z" fill="white"/>
</svg>
