<svg width="1609" height="814" viewBox="0 0 1609 814" fill="none" xmlns="http://www.w3.org/2000/svg" style="background-color: #3c3c3c;">
<rect width="1609" height="814" fill="#3C3C3C"/>
<path d="M399.117 136H393.06L406.67 98.1818H413.262L426.871 136H420.814L410.123 105.051H409.827L399.117 136ZM400.133 121.19H419.78V125.991H400.133V121.19ZM437.411 98.1818V136H431.889V98.1818H437.411ZM444.839 136V107.636H450.36V136H444.839ZM447.627 103.26C446.667 103.26 445.842 102.94 445.153 102.3C444.475 101.647 444.137 100.872 444.137 99.973C444.137 99.062 444.475 98.2865 445.153 97.6463C445.842 96.9938 446.667 96.6676 447.627 96.6676C448.587 96.6676 449.406 96.9938 450.083 97.6463C450.772 98.2865 451.117 99.062 451.117 99.973C451.117 100.872 450.772 101.647 450.083 102.3C449.406 102.94 448.587 103.26 447.627 103.26ZM469.735 136.572C466.99 136.572 464.626 135.951 462.644 134.707C460.675 133.452 459.16 131.722 458.102 129.518C457.043 127.315 456.514 124.791 456.514 121.947C456.514 119.067 457.055 116.525 458.139 114.321C459.222 112.105 460.749 110.375 462.718 109.132C464.688 107.889 467.008 107.267 469.68 107.267C471.834 107.267 473.755 107.667 475.441 108.467C477.128 109.255 478.488 110.363 479.522 111.791C480.569 113.219 481.19 114.887 481.387 116.795H476.014C475.718 115.466 475.041 114.321 473.982 113.361C472.936 112.401 471.533 111.92 469.772 111.92C468.233 111.92 466.885 112.327 465.728 113.139C464.583 113.939 463.691 115.084 463.051 116.574C462.41 118.051 462.09 119.799 462.09 121.818C462.09 123.886 462.404 125.671 463.032 127.173C463.66 128.675 464.546 129.839 465.691 130.663C466.848 131.488 468.209 131.901 469.772 131.901C470.819 131.901 471.767 131.71 472.616 131.328C473.478 130.934 474.198 130.374 474.776 129.648C475.367 128.921 475.78 128.047 476.014 127.026H481.387C481.19 128.86 480.593 130.497 479.596 131.938C478.599 133.378 477.263 134.51 475.589 135.335C473.927 136.16 471.976 136.572 469.735 136.572ZM499.516 136.572C496.722 136.572 494.315 135.975 492.296 134.781C490.289 133.575 488.738 131.882 487.643 129.703C486.559 127.512 486.018 124.945 486.018 122.003C486.018 119.098 486.559 116.537 487.643 114.321C488.738 112.105 490.265 110.375 492.222 109.132C494.192 107.889 496.494 107.267 499.128 107.267C500.729 107.267 502.28 107.532 503.782 108.061C505.284 108.59 506.632 109.421 507.826 110.554C509.02 111.687 509.962 113.158 510.651 114.967C511.34 116.765 511.685 118.95 511.685 121.523V123.48H489.138V119.344H506.275C506.275 117.891 505.979 116.605 505.388 115.484C504.797 114.352 503.966 113.459 502.895 112.807C501.837 112.154 500.593 111.828 499.165 111.828C497.614 111.828 496.26 112.21 495.103 112.973C493.958 113.724 493.072 114.709 492.444 115.928C491.828 117.134 491.52 118.445 491.52 119.861V123.092C491.52 124.988 491.853 126.601 492.518 127.93C493.195 129.26 494.136 130.276 495.343 130.977C496.549 131.667 497.959 132.011 499.572 132.011C500.618 132.011 501.572 131.864 502.434 131.568C503.296 131.26 504.04 130.805 504.668 130.202C505.296 129.598 505.776 128.854 506.108 127.967L511.334 128.909C510.916 130.448 510.165 131.796 509.081 132.953C508.01 134.098 506.662 134.991 505.037 135.631C503.425 136.259 501.584 136.572 499.516 136.572ZM537.722 136L529.376 107.636H535.081L540.64 128.466H540.917L546.493 107.636H552.199L557.739 128.374H558.016L563.537 107.636H569.243L560.915 136H555.283L549.522 115.521H549.097L543.336 136H537.722ZM582.737 136.628C580.94 136.628 579.315 136.295 577.862 135.631C576.41 134.954 575.259 133.975 574.409 132.695C573.572 131.414 573.154 129.845 573.154 127.986C573.154 126.385 573.461 125.068 574.077 124.034C574.692 123 575.523 122.181 576.57 121.578C577.616 120.975 578.786 120.519 580.078 120.212C581.371 119.904 582.688 119.67 584.03 119.51C585.729 119.313 587.108 119.153 588.166 119.03C589.225 118.894 589.994 118.679 590.475 118.384C590.955 118.088 591.195 117.608 591.195 116.943V116.814C591.195 115.201 590.739 113.952 589.828 113.065C588.93 112.179 587.588 111.736 585.803 111.736C583.944 111.736 582.479 112.148 581.408 112.973C580.349 113.786 579.617 114.69 579.21 115.688L574.021 114.506C574.637 112.782 575.536 111.391 576.718 110.332C577.912 109.261 579.284 108.486 580.835 108.006C582.387 107.513 584.018 107.267 585.729 107.267C586.861 107.267 588.062 107.402 589.33 107.673C590.61 107.932 591.804 108.412 592.912 109.114C594.032 109.815 594.95 110.819 595.664 112.124C596.378 113.416 596.735 115.097 596.735 117.165V136H591.343V132.122H591.121C590.764 132.836 590.228 133.538 589.514 134.227C588.8 134.917 587.883 135.489 586.763 135.945C585.643 136.4 584.301 136.628 582.737 136.628ZM583.938 132.196C585.464 132.196 586.769 131.894 587.852 131.291C588.948 130.688 589.779 129.9 590.345 128.928C590.924 127.943 591.213 126.89 591.213 125.77V122.114C591.016 122.311 590.635 122.495 590.068 122.668C589.514 122.828 588.88 122.969 588.166 123.092C587.452 123.203 586.757 123.308 586.08 123.406C585.403 123.492 584.836 123.566 584.381 123.628C583.31 123.763 582.331 123.991 581.445 124.311C580.571 124.631 579.869 125.093 579.34 125.696C578.823 126.287 578.564 127.075 578.564 128.06C578.564 129.426 579.069 130.46 580.078 131.162C581.088 131.851 582.374 132.196 583.938 132.196ZM609.61 119.159V136H604.089V107.636H609.388V112.253H609.739C610.392 110.751 611.413 109.545 612.805 108.634C614.208 107.723 615.974 107.267 618.104 107.267C620.037 107.267 621.73 107.673 623.182 108.486C624.635 109.286 625.761 110.48 626.562 112.068C627.362 113.656 627.762 115.62 627.762 117.959V136H622.241V118.624C622.241 116.568 621.705 114.961 620.634 113.804C619.563 112.634 618.092 112.05 616.221 112.05C614.94 112.05 613.802 112.327 612.805 112.881C611.82 113.435 611.038 114.247 610.459 115.318C609.893 116.377 609.61 117.657 609.61 119.159ZM648.407 107.636V112.068H632.914V107.636H648.407ZM637.069 100.841H642.59V127.672C642.59 128.743 642.75 129.549 643.07 130.091C643.39 130.62 643.803 130.983 644.307 131.18C644.824 131.365 645.385 131.457 645.988 131.457C646.431 131.457 646.819 131.427 647.151 131.365C647.483 131.304 647.742 131.254 647.927 131.217L648.924 135.778C648.604 135.902 648.148 136.025 647.557 136.148C646.966 136.283 646.228 136.357 645.341 136.369C643.889 136.394 642.535 136.135 641.279 135.594C640.023 135.052 639.008 134.215 638.232 133.082C637.456 131.95 637.069 130.528 637.069 128.817V100.841ZM675.312 114.561L670.307 115.447C670.098 114.807 669.766 114.198 669.31 113.619C668.867 113.041 668.264 112.567 667.501 112.197C666.737 111.828 665.783 111.643 664.638 111.643C663.075 111.643 661.77 111.994 660.724 112.696C659.677 113.385 659.154 114.278 659.154 115.374C659.154 116.321 659.505 117.085 660.206 117.663C660.908 118.242 662.041 118.716 663.604 119.085L668.11 120.119C670.72 120.723 672.665 121.652 673.945 122.908C675.225 124.163 675.866 125.795 675.866 127.801C675.866 129.5 675.373 131.014 674.388 132.344C673.416 133.661 672.055 134.695 670.307 135.446C668.572 136.197 666.559 136.572 664.269 136.572C661.093 136.572 658.501 135.895 656.495 134.541C654.488 133.175 653.257 131.236 652.802 128.724L658.138 127.912C658.471 129.303 659.154 130.356 660.188 131.07C661.222 131.771 662.57 132.122 664.232 132.122C666.042 132.122 667.488 131.747 668.572 130.996C669.655 130.232 670.197 129.303 670.197 128.207C670.197 127.321 669.864 126.576 669.199 125.973C668.547 125.37 667.544 124.914 666.189 124.607L661.388 123.554C658.742 122.951 656.784 121.991 655.516 120.673C654.26 119.356 653.633 117.688 653.633 115.669C653.633 113.995 654.1 112.53 655.036 111.274C655.972 110.018 657.264 109.04 658.914 108.338C660.564 107.624 662.453 107.267 664.583 107.267C667.648 107.267 670.061 107.932 671.822 109.261C673.582 110.579 674.745 112.345 675.312 114.561ZM708.938 107.636V112.068H693.445V107.636H708.938ZM697.6 100.841H703.121V127.672C703.121 128.743 703.281 129.549 703.601 130.091C703.921 130.62 704.334 130.983 704.839 131.18C705.356 131.365 705.916 131.457 706.519 131.457C706.962 131.457 707.35 131.427 707.682 131.365C708.015 131.304 708.273 131.254 708.458 131.217L709.455 135.778C709.135 135.902 708.68 136.025 708.089 136.148C707.498 136.283 706.759 136.357 705.873 136.369C704.42 136.394 703.066 136.135 701.81 135.594C700.555 135.052 699.539 134.215 698.763 133.082C697.988 131.95 697.6 130.528 697.6 128.817V100.841ZM726.688 136.572C724.029 136.572 721.709 135.963 719.727 134.744C717.745 133.526 716.206 131.821 715.11 129.629C714.015 127.438 713.467 124.877 713.467 121.947C713.467 119.005 714.015 116.432 715.11 114.229C716.206 112.025 717.745 110.314 719.727 109.095C721.709 107.876 724.029 107.267 726.688 107.267C729.347 107.267 731.668 107.876 733.65 109.095C735.632 110.314 737.171 112.025 738.267 114.229C739.362 116.432 739.91 119.005 739.91 121.947C739.91 124.877 739.362 127.438 738.267 129.629C737.171 131.821 735.632 133.526 733.65 134.744C731.668 135.963 729.347 136.572 726.688 136.572ZM726.707 131.938C728.43 131.938 729.858 131.482 730.991 130.571C732.124 129.66 732.961 128.447 733.502 126.933C734.056 125.419 734.333 123.751 734.333 121.929C734.333 120.119 734.056 118.457 733.502 116.943C732.961 115.417 732.124 114.192 730.991 113.268C729.858 112.345 728.43 111.884 726.707 111.884C724.971 111.884 723.531 112.345 722.386 113.268C721.253 114.192 720.41 115.417 719.856 116.943C719.314 118.457 719.044 120.119 719.044 121.929C719.044 123.751 719.314 125.419 719.856 126.933C720.41 128.447 721.253 129.66 722.386 130.571C723.531 131.482 724.971 131.938 726.707 131.938ZM781.089 114.561L776.085 115.447C775.875 114.807 775.543 114.198 775.088 113.619C774.644 113.041 774.041 112.567 773.278 112.197C772.515 111.828 771.561 111.643 770.416 111.643C768.852 111.643 767.547 111.994 766.501 112.696C765.454 113.385 764.931 114.278 764.931 115.374C764.931 116.321 765.282 117.085 765.984 117.663C766.686 118.242 767.818 118.716 769.382 119.085L773.887 120.119C776.497 120.723 778.442 121.652 779.722 122.908C781.003 124.163 781.643 125.795 781.643 127.801C781.643 129.5 781.151 131.014 780.166 132.344C779.193 133.661 777.833 134.695 776.085 135.446C774.349 136.197 772.336 136.572 770.046 136.572C766.87 136.572 764.279 135.895 762.272 134.541C760.266 133.175 759.035 131.236 758.579 128.724L763.916 127.912C764.248 129.303 764.931 130.356 765.965 131.07C766.999 131.771 768.347 132.122 770.009 132.122C771.819 132.122 773.266 131.747 774.349 130.996C775.432 130.232 775.974 129.303 775.974 128.207C775.974 127.321 775.642 126.576 774.977 125.973C774.324 125.37 773.321 124.914 771.967 124.607L767.166 123.554C764.519 122.951 762.561 121.991 761.294 120.673C760.038 119.356 759.41 117.688 759.41 115.669C759.41 113.995 759.878 112.53 760.813 111.274C761.749 110.018 763.042 109.04 764.691 108.338C766.341 107.624 768.231 107.267 770.36 107.267C773.426 107.267 775.838 107.932 777.599 109.261C779.359 110.579 780.523 112.345 781.089 114.561ZM799.938 136.572C797.144 136.572 794.737 135.975 792.718 134.781C790.711 133.575 789.16 131.882 788.064 129.703C786.981 127.512 786.439 124.945 786.439 122.003C786.439 119.098 786.981 116.537 788.064 114.321C789.16 112.105 790.687 110.375 792.644 109.132C794.614 107.889 796.916 107.267 799.55 107.267C801.151 107.267 802.702 107.532 804.204 108.061C805.706 108.59 807.054 109.421 808.248 110.554C809.442 111.687 810.384 113.158 811.073 114.967C811.762 116.765 812.107 118.95 812.107 121.523V123.48H789.56V119.344H806.697C806.697 117.891 806.401 116.605 805.81 115.484C805.219 114.352 804.388 113.459 803.317 112.807C802.259 112.154 801.015 111.828 799.587 111.828C798.036 111.828 796.682 112.21 795.525 112.973C794.38 113.724 793.493 114.709 792.866 115.928C792.25 117.134 791.942 118.445 791.942 119.861V123.092C791.942 124.988 792.275 126.601 792.939 127.93C793.617 129.26 794.558 130.276 795.765 130.977C796.971 131.667 798.381 132.011 799.993 132.011C801.04 132.011 801.994 131.864 802.856 131.568C803.717 131.26 804.462 130.805 805.09 130.202C805.718 129.598 806.198 128.854 806.53 127.967L811.756 128.909C811.338 130.448 810.587 131.796 809.503 132.953C808.432 134.098 807.084 134.991 805.459 135.631C803.847 136.259 802.006 136.572 799.938 136.572ZM823.754 119.159V136H818.233V107.636H823.533V112.253H823.884C824.536 110.751 825.558 109.545 826.949 108.634C828.352 107.723 830.119 107.267 832.249 107.267C834.182 107.267 835.874 107.673 837.327 108.486C838.78 109.286 839.906 110.48 840.706 112.068C841.506 113.656 841.906 115.62 841.906 117.959V136H836.385V118.624C836.385 116.568 835.85 114.961 834.779 113.804C833.708 112.634 832.236 112.05 830.365 112.05C829.085 112.05 827.946 112.327 826.949 112.881C825.964 113.435 825.182 114.247 824.604 115.318C824.038 116.377 823.754 117.657 823.754 119.159ZM859.929 136.554C857.639 136.554 855.596 135.969 853.798 134.8C852.013 133.618 850.61 131.937 849.588 129.759C848.579 127.567 848.074 124.939 848.074 121.874C848.074 118.808 848.585 116.186 849.607 114.007C850.641 111.828 852.057 110.16 853.854 109.003C855.651 107.846 857.689 107.267 859.966 107.267C861.727 107.267 863.142 107.562 864.213 108.153C865.297 108.732 866.134 109.409 866.725 110.185C867.328 110.96 867.796 111.643 868.128 112.234H868.46V98.1818H873.982V136H868.59V131.587H868.128C867.796 132.19 867.316 132.879 866.688 133.655C866.072 134.43 865.223 135.107 864.139 135.686C863.056 136.265 861.653 136.554 859.929 136.554ZM861.148 131.845C862.736 131.845 864.078 131.427 865.173 130.589C866.281 129.74 867.119 128.564 867.685 127.062C868.263 125.561 868.553 123.812 868.553 121.818C868.553 119.848 868.27 118.125 867.703 116.648C867.137 115.17 866.306 114.019 865.21 113.195C864.115 112.37 862.761 111.957 861.148 111.957C859.486 111.957 858.101 112.388 856.993 113.25C855.885 114.112 855.048 115.287 854.482 116.777C853.928 118.267 853.651 119.947 853.651 121.818C853.651 123.714 853.934 125.419 854.5 126.933C855.066 128.447 855.904 129.648 857.012 130.534C858.132 131.408 859.511 131.845 861.148 131.845ZM908.033 136.517C905.718 136.517 903.638 136.074 901.791 135.188C899.957 134.289 898.492 133.058 897.396 131.494C896.301 129.931 895.716 128.146 895.642 126.139H901.182C901.317 127.764 902.038 129.1 903.343 130.146C904.647 131.193 906.211 131.716 908.033 131.716C909.486 131.716 910.772 131.384 911.892 130.719C913.025 130.042 913.911 129.112 914.551 127.93C915.204 126.749 915.53 125.401 915.53 123.886C915.53 122.348 915.198 120.975 914.533 119.768C913.868 118.562 912.951 117.614 911.781 116.925C910.624 116.235 909.295 115.884 907.793 115.872C906.648 115.872 905.497 116.069 904.34 116.463C903.182 116.857 902.247 117.374 901.533 118.014L896.307 117.239L898.431 98.1818H919.223V103.075H903.176L901.976 113.656H902.198C902.936 112.942 903.915 112.345 905.134 111.865C906.365 111.385 907.682 111.145 909.085 111.145C911.387 111.145 913.437 111.693 915.235 112.788C917.044 113.884 918.466 115.38 919.5 117.276C920.547 119.159 921.064 121.326 921.051 123.776C921.064 126.225 920.51 128.411 919.389 130.331C918.281 132.251 916.743 133.766 914.773 134.874C912.816 135.969 910.569 136.517 908.033 136.517ZM942.075 136V98.1818H955.924C958.608 98.1818 960.83 98.625 962.59 99.5114C964.351 100.385 965.668 101.573 966.542 103.075C967.416 104.565 967.853 106.245 967.853 108.116C967.853 109.692 967.564 111.022 966.985 112.105C966.407 113.176 965.631 114.038 964.659 114.69C963.698 115.33 962.64 115.798 961.482 116.094V116.463C962.738 116.525 963.963 116.931 965.157 117.682C966.364 118.42 967.361 119.473 968.149 120.839C968.936 122.206 969.33 123.868 969.33 125.825C969.33 127.758 968.875 129.494 967.964 131.033C967.065 132.559 965.674 133.772 963.791 134.67C961.907 135.557 959.5 136 956.57 136H942.075ZM947.781 131.107H956.017C958.749 131.107 960.707 130.577 961.889 129.518C963.07 128.46 963.661 127.136 963.661 125.548C963.661 124.354 963.36 123.259 962.757 122.261C962.153 121.264 961.292 120.47 960.171 119.879C959.063 119.288 957.746 118.993 956.22 118.993H947.781V131.107ZM947.781 114.543H955.426C956.706 114.543 957.857 114.296 958.879 113.804C959.913 113.312 960.731 112.622 961.335 111.736C961.95 110.837 962.258 109.778 962.258 108.56C962.258 106.996 961.71 105.685 960.615 104.626C959.519 103.568 957.838 103.038 955.573 103.038H947.781V114.543ZM974.233 103.094V98.1818H1003.5V103.094H991.702V136H986.014V103.094H974.233ZM1039.75 110.48H1033.99C1033.77 109.249 1033.36 108.166 1032.76 107.23C1032.15 106.295 1031.41 105.5 1030.54 104.848C1029.67 104.196 1028.69 103.703 1027.6 103.371C1026.53 103.038 1025.39 102.872 1024.19 102.872C1022.01 102.872 1020.06 103.42 1018.33 104.516C1016.62 105.611 1015.27 107.218 1014.27 109.335C1013.29 111.453 1012.79 114.038 1012.79 117.091C1012.79 120.169 1013.29 122.766 1014.27 124.884C1015.27 127.001 1016.63 128.601 1018.35 129.685C1020.08 130.768 1022.02 131.31 1024.17 131.31C1025.36 131.31 1026.5 131.15 1027.57 130.83C1028.65 130.497 1029.63 130.011 1030.5 129.371C1031.38 128.731 1032.12 127.949 1032.72 127.026C1033.33 126.09 1033.76 125.019 1033.99 123.812L1039.75 123.831C1039.45 125.69 1038.85 127.401 1037.96 128.964C1037.09 130.516 1035.96 131.857 1034.58 132.99C1033.22 134.11 1031.65 134.978 1029.89 135.594C1028.13 136.209 1026.21 136.517 1024.13 136.517C1020.86 136.517 1017.94 135.741 1015.38 134.19C1012.82 132.627 1010.8 130.393 1009.32 127.487C1007.86 124.582 1007.13 121.116 1007.13 117.091C1007.13 113.053 1007.86 109.588 1009.34 106.695C1010.82 103.789 1012.84 101.561 1015.4 100.01C1017.96 98.4465 1020.87 97.6648 1024.13 97.6648C1026.14 97.6648 1028.01 97.9541 1029.75 98.5327C1031.49 99.099 1033.06 99.9361 1034.46 101.044C1035.85 102.14 1037 103.482 1037.91 105.07C1038.82 106.645 1039.43 108.449 1039.75 110.48ZM1073.14 107.636V112.068H1057.65V107.636H1073.14ZM1061.8 100.841H1067.32V127.672C1067.32 128.743 1067.48 129.549 1067.8 130.091C1068.12 130.62 1068.54 130.983 1069.04 131.18C1069.56 131.365 1070.12 131.457 1070.72 131.457C1071.17 131.457 1071.55 131.427 1071.89 131.365C1072.22 131.304 1072.48 131.254 1072.66 131.217L1073.66 135.778C1073.34 135.902 1072.88 136.025 1072.29 136.148C1071.7 136.283 1070.96 136.357 1070.08 136.369C1068.62 136.394 1067.27 136.135 1066.01 135.594C1064.76 135.052 1063.74 134.215 1062.97 133.082C1062.19 131.95 1061.8 130.528 1061.8 128.817V100.841ZM1090.89 136.572C1088.23 136.572 1085.91 135.963 1083.93 134.744C1081.95 133.526 1080.41 131.821 1079.31 129.629C1078.22 127.438 1077.67 124.877 1077.67 121.947C1077.67 119.005 1078.22 116.432 1079.31 114.229C1080.41 112.025 1081.95 110.314 1083.93 109.095C1085.91 107.876 1088.23 107.267 1090.89 107.267C1093.55 107.267 1095.87 107.876 1097.85 109.095C1099.84 110.314 1101.37 112.025 1102.47 114.229C1103.57 116.432 1104.11 119.005 1104.11 121.947C1104.11 124.877 1103.57 127.438 1102.47 129.629C1101.37 131.821 1099.84 133.526 1097.85 134.744C1095.87 135.963 1093.55 136.572 1090.89 136.572ZM1090.91 131.938C1092.63 131.938 1094.06 131.482 1095.19 130.571C1096.33 129.66 1097.16 128.447 1097.71 126.933C1098.26 125.419 1098.54 123.751 1098.54 121.929C1098.54 120.119 1098.26 118.457 1097.71 116.943C1097.16 115.417 1096.33 114.192 1095.19 113.268C1094.06 112.345 1092.63 111.884 1090.91 111.884C1089.17 111.884 1087.73 112.345 1086.59 113.268C1085.46 114.192 1084.61 115.417 1084.06 116.943C1083.52 118.457 1083.25 120.119 1083.25 121.929C1083.25 123.751 1083.52 125.419 1084.06 126.933C1084.61 128.447 1085.46 129.66 1086.59 130.571C1087.73 131.482 1089.17 131.938 1090.91 131.938ZM1124.48 136V98.1818H1138.33C1141.01 98.1818 1143.24 98.625 1145 99.5114C1146.76 100.385 1148.07 101.573 1148.95 103.075C1149.82 104.565 1150.26 106.245 1150.26 108.116C1150.26 109.692 1149.97 111.022 1149.39 112.105C1148.81 113.176 1148.04 114.038 1147.06 114.69C1146.1 115.33 1145.05 115.798 1143.89 116.094V116.463C1145.14 116.525 1146.37 116.931 1147.56 117.682C1148.77 118.42 1149.77 119.473 1150.55 120.839C1151.34 122.206 1151.74 123.868 1151.74 125.825C1151.74 127.758 1151.28 129.494 1150.37 131.033C1149.47 132.559 1148.08 133.772 1146.2 134.67C1144.31 135.557 1141.91 136 1138.98 136H1124.48ZM1130.19 131.107H1138.42C1141.16 131.107 1143.11 130.577 1144.29 129.518C1145.48 128.46 1146.07 127.136 1146.07 125.548C1146.07 124.354 1145.77 123.259 1145.16 122.261C1144.56 121.264 1143.7 120.47 1142.58 119.879C1141.47 119.288 1140.15 118.993 1138.63 118.993H1130.19V131.107ZM1130.19 114.543H1137.83C1139.11 114.543 1140.26 114.296 1141.28 113.804C1142.32 113.312 1143.14 112.622 1143.74 111.736C1144.36 110.837 1144.66 109.778 1144.66 108.56C1144.66 106.996 1144.12 105.685 1143.02 104.626C1141.93 103.568 1140.24 103.038 1137.98 103.038H1130.19V114.543ZM1170.01 136.572C1167.35 136.572 1165.03 135.963 1163.05 134.744C1161.07 133.526 1159.53 131.821 1158.43 129.629C1157.33 127.438 1156.79 124.877 1156.79 121.947C1156.79 119.005 1157.33 116.432 1158.43 114.229C1159.53 112.025 1161.07 110.314 1163.05 109.095C1165.03 107.876 1167.35 107.267 1170.01 107.267C1172.67 107.267 1174.99 107.876 1176.97 109.095C1178.95 110.314 1180.49 112.025 1181.59 114.229C1182.68 116.432 1183.23 119.005 1183.23 121.947C1183.23 124.877 1182.68 127.438 1181.59 129.629C1180.49 131.821 1178.95 133.526 1176.97 134.744C1174.99 135.963 1172.67 136.572 1170.01 136.572ZM1170.03 131.938C1171.75 131.938 1173.18 131.482 1174.31 130.571C1175.44 129.66 1176.28 128.447 1176.82 126.933C1177.38 125.419 1177.65 123.751 1177.65 121.929C1177.65 120.119 1177.38 118.457 1176.82 116.943C1176.28 115.417 1175.44 114.192 1174.31 113.268C1173.18 112.345 1171.75 111.884 1170.03 111.884C1168.29 111.884 1166.85 112.345 1165.71 113.268C1164.57 114.192 1163.73 115.417 1163.18 116.943C1162.63 118.457 1162.36 120.119 1162.36 121.929C1162.36 123.751 1162.63 125.419 1163.18 126.933C1163.73 128.447 1164.57 129.66 1165.71 130.571C1166.85 131.482 1168.29 131.938 1170.03 131.938ZM1189.84 136V98.1818H1195.36V112.234H1195.69C1196.01 111.643 1196.47 110.96 1197.08 110.185C1197.68 109.409 1198.52 108.732 1199.59 108.153C1200.66 107.562 1202.07 107.267 1203.83 107.267C1206.12 107.267 1208.17 107.846 1209.96 109.003C1211.76 110.16 1213.17 111.828 1214.19 114.007C1215.23 116.186 1215.74 118.808 1215.74 121.874C1215.74 124.939 1215.23 127.567 1214.21 129.759C1213.19 131.937 1211.79 133.618 1210 134.8C1208.22 135.969 1206.18 136.554 1203.89 136.554C1202.17 136.554 1200.76 136.265 1199.66 135.686C1198.58 135.107 1197.73 134.43 1197.11 133.655C1196.5 132.879 1196.02 132.19 1195.69 131.587H1195.23V136H1189.84ZM1195.25 121.818C1195.25 123.812 1195.54 125.561 1196.11 127.062C1196.69 128.564 1197.53 129.74 1198.63 130.589C1199.72 131.427 1201.06 131.845 1202.65 131.845C1204.3 131.845 1205.68 131.408 1206.79 130.534C1207.9 129.648 1208.73 128.447 1209.3 126.933C1209.88 125.419 1210.17 123.714 1210.17 121.818C1210.17 119.947 1209.88 118.267 1209.32 116.777C1208.76 115.287 1207.93 114.112 1206.81 113.25C1205.7 112.388 1204.31 111.957 1202.65 111.957C1201.05 111.957 1199.7 112.37 1198.59 113.195C1197.49 114.019 1196.66 115.17 1196.1 116.648C1195.53 118.125 1195.25 119.848 1195.25 121.818Z" fill="white"/>
<path d="M683.156 475.261C682.974 473.648 682.224 472.398 680.906 471.511C679.588 470.614 677.929 470.165 675.929 470.165C674.497 470.165 673.259 470.392 672.213 470.847C671.168 471.29 670.355 471.903 669.776 472.688C669.207 473.46 668.923 474.341 668.923 475.33C668.923 476.159 669.116 476.875 669.503 477.477C669.901 478.08 670.418 478.585 671.054 478.994C671.702 479.392 672.395 479.727 673.134 480C673.872 480.261 674.582 480.477 675.264 480.648L678.673 481.534C679.787 481.807 680.929 482.176 682.099 482.642C683.27 483.108 684.355 483.722 685.355 484.483C686.355 485.244 687.162 486.188 687.776 487.312C688.401 488.438 688.713 489.784 688.713 491.352C688.713 493.33 688.202 495.085 687.179 496.619C686.168 498.153 684.696 499.364 682.764 500.25C680.844 501.136 678.52 501.58 675.793 501.58C673.179 501.58 670.918 501.165 669.009 500.335C667.099 499.506 665.605 498.33 664.526 496.807C663.446 495.273 662.849 493.455 662.736 491.352H668.02C668.122 492.614 668.531 493.665 669.247 494.506C669.974 495.335 670.901 495.955 672.026 496.364C673.162 496.761 674.406 496.96 675.759 496.96C677.247 496.96 678.571 496.727 679.73 496.261C680.901 495.784 681.821 495.125 682.491 494.284C683.162 493.432 683.497 492.437 683.497 491.301C683.497 490.267 683.202 489.42 682.611 488.761C682.031 488.102 681.241 487.557 680.241 487.125C679.253 486.693 678.134 486.312 676.884 485.983L672.759 484.858C669.963 484.097 667.747 482.977 666.111 481.5C664.486 480.023 663.673 478.068 663.673 475.636C663.673 473.625 664.219 471.869 665.31 470.369C666.401 468.869 667.878 467.705 669.741 466.875C671.605 466.034 673.707 465.614 676.048 465.614C678.412 465.614 680.497 466.028 682.304 466.858C684.122 467.688 685.554 468.83 686.599 470.284C687.645 471.727 688.19 473.386 688.236 475.261H683.156ZM705.882 501.528C703.303 501.528 701.081 500.977 699.217 499.875C697.365 498.761 695.933 497.199 694.922 495.188C693.922 493.165 693.422 490.795 693.422 488.08C693.422 485.398 693.922 483.034 694.922 480.989C695.933 478.943 697.342 477.347 699.149 476.199C700.967 475.051 703.092 474.477 705.524 474.477C707.001 474.477 708.433 474.722 709.82 475.21C711.206 475.699 712.45 476.466 713.553 477.511C714.655 478.557 715.524 479.915 716.161 481.585C716.797 483.244 717.115 485.261 717.115 487.636V489.443H696.303V485.625H712.121C712.121 484.284 711.848 483.097 711.303 482.062C710.757 481.017 709.99 480.193 709.001 479.591C708.024 478.989 706.876 478.688 705.558 478.688C704.126 478.688 702.876 479.04 701.808 479.744C700.751 480.437 699.933 481.347 699.354 482.472C698.786 483.585 698.501 484.795 698.501 486.102V489.085C698.501 490.835 698.808 492.324 699.422 493.551C700.047 494.778 700.916 495.716 702.03 496.364C703.143 497 704.445 497.318 705.933 497.318C706.899 497.318 707.78 497.182 708.575 496.909C709.371 496.625 710.058 496.205 710.638 495.648C711.217 495.091 711.661 494.403 711.967 493.585L716.791 494.455C716.405 495.875 715.712 497.119 714.712 498.188C713.723 499.244 712.479 500.068 710.979 500.659C709.49 501.239 707.791 501.528 705.882 501.528ZM727.866 485.455V501H722.77V474.818H727.662V479.08H727.986C728.588 477.693 729.531 476.58 730.815 475.739C732.111 474.898 733.741 474.477 735.707 474.477C737.491 474.477 739.054 474.852 740.395 475.602C741.736 476.341 742.776 477.443 743.514 478.909C744.253 480.375 744.622 482.187 744.622 484.347V501H739.526V484.96C739.526 483.062 739.031 481.58 738.043 480.511C737.054 479.432 735.696 478.892 733.969 478.892C732.787 478.892 731.736 479.148 730.815 479.659C729.906 480.17 729.185 480.92 728.651 481.909C728.128 482.886 727.866 484.068 727.866 485.455ZM761.259 501.511C759.145 501.511 757.259 500.972 755.599 499.892C753.952 498.801 752.656 497.25 751.713 495.239C750.781 493.216 750.315 490.79 750.315 487.96C750.315 485.131 750.787 482.71 751.73 480.699C752.685 478.687 753.991 477.148 755.651 476.08C757.31 475.011 759.19 474.477 761.293 474.477C762.918 474.477 764.224 474.75 765.213 475.295C766.213 475.83 766.986 476.455 767.531 477.17C768.088 477.886 768.52 478.517 768.827 479.062H769.134V466.091H774.23V501H769.253V496.926H768.827C768.52 497.483 768.077 498.119 767.497 498.835C766.929 499.551 766.145 500.176 765.145 500.71C764.145 501.244 762.849 501.511 761.259 501.511ZM762.384 497.165C763.849 497.165 765.088 496.778 766.099 496.006C767.122 495.222 767.895 494.136 768.418 492.75C768.952 491.364 769.219 489.75 769.219 487.909C769.219 486.091 768.957 484.5 768.435 483.136C767.912 481.773 767.145 480.71 766.134 479.949C765.122 479.187 763.872 478.807 762.384 478.807C760.849 478.807 759.571 479.205 758.548 480C757.526 480.795 756.753 481.881 756.23 483.256C755.719 484.631 755.463 486.182 755.463 487.909C755.463 489.659 755.724 491.233 756.247 492.631C756.77 494.028 757.543 495.136 758.565 495.955C759.599 496.761 760.872 497.165 762.384 497.165ZM805.662 501.477C803.526 501.477 801.605 501.068 799.901 500.25C798.207 499.42 796.855 498.284 795.844 496.841C794.832 495.398 794.293 493.75 794.224 491.898H799.338C799.463 493.398 800.128 494.631 801.332 495.597C802.537 496.562 803.98 497.045 805.662 497.045C807.003 497.045 808.19 496.739 809.224 496.125C810.27 495.5 811.088 494.642 811.679 493.551C812.281 492.46 812.582 491.216 812.582 489.818C812.582 488.398 812.276 487.131 811.662 486.017C811.048 484.903 810.202 484.028 809.122 483.392C808.054 482.756 806.827 482.432 805.44 482.42C804.384 482.42 803.321 482.602 802.253 482.966C801.185 483.33 800.321 483.807 799.662 484.398L794.838 483.682L796.798 466.091H815.991V470.608H801.179L800.071 480.375H800.276C800.957 479.716 801.861 479.165 802.986 478.722C804.122 478.278 805.338 478.057 806.634 478.057C808.759 478.057 810.651 478.562 812.31 479.574C813.98 480.585 815.293 481.966 816.247 483.716C817.213 485.455 817.69 487.455 817.679 489.716C817.69 491.977 817.179 493.994 816.145 495.767C815.122 497.54 813.702 498.937 811.884 499.96C810.077 500.972 808.003 501.477 805.662 501.477ZM837.085 501V466.091H849.869C852.347 466.091 854.398 466.5 856.023 467.318C857.648 468.125 858.864 469.222 859.67 470.608C860.477 471.983 860.881 473.534 860.881 475.261C860.881 476.716 860.614 477.943 860.08 478.943C859.545 479.932 858.83 480.727 857.932 481.33C857.045 481.92 856.068 482.352 855 482.625V482.966C856.159 483.023 857.29 483.398 858.392 484.091C859.506 484.773 860.426 485.744 861.153 487.006C861.881 488.267 862.244 489.801 862.244 491.608C862.244 493.392 861.824 494.994 860.983 496.415C860.153 497.824 858.869 498.943 857.131 499.773C855.392 500.591 853.17 501 850.466 501H837.085ZM842.352 496.483H849.955C852.477 496.483 854.284 495.994 855.375 495.017C856.466 494.04 857.011 492.818 857.011 491.352C857.011 490.25 856.733 489.239 856.176 488.318C855.619 487.398 854.824 486.665 853.79 486.119C852.767 485.574 851.551 485.301 850.142 485.301H842.352V496.483ZM842.352 481.193H849.409C850.591 481.193 851.653 480.966 852.597 480.511C853.551 480.057 854.307 479.42 854.864 478.602C855.432 477.773 855.716 476.795 855.716 475.67C855.716 474.227 855.21 473.017 854.199 472.04C853.188 471.062 851.636 470.574 849.545 470.574H842.352V481.193ZM866.77 470.625V466.091H893.787V470.625H882.895V501H877.645V470.625H866.77ZM927.251 477.443H921.933C921.729 476.307 921.348 475.307 920.791 474.443C920.234 473.58 919.553 472.847 918.746 472.244C917.939 471.642 917.036 471.187 916.036 470.881C915.047 470.574 913.996 470.42 912.882 470.42C910.871 470.42 909.07 470.926 907.479 471.938C905.899 472.949 904.649 474.432 903.729 476.386C902.82 478.341 902.365 480.727 902.365 483.545C902.365 486.386 902.82 488.784 903.729 490.739C904.649 492.693 905.905 494.17 907.496 495.17C909.087 496.17 910.876 496.67 912.865 496.67C913.967 496.67 915.013 496.523 916.001 496.227C917.001 495.92 917.905 495.472 918.712 494.881C919.518 494.29 920.2 493.568 920.757 492.716C921.325 491.852 921.717 490.864 921.933 489.75L927.251 489.767C926.967 491.483 926.416 493.062 925.598 494.506C924.791 495.938 923.751 497.176 922.479 498.222C921.217 499.256 919.774 500.057 918.149 500.625C916.524 501.193 914.751 501.477 912.831 501.477C909.808 501.477 907.115 500.761 904.751 499.33C902.388 497.886 900.524 495.824 899.161 493.142C897.808 490.46 897.132 487.261 897.132 483.545C897.132 479.818 897.814 476.619 899.178 473.949C900.541 471.267 902.405 469.21 904.768 467.778C907.132 466.335 909.82 465.614 912.831 465.614C914.683 465.614 916.411 465.881 918.013 466.415C919.626 466.937 921.075 467.71 922.359 468.733C923.643 469.744 924.706 470.983 925.547 472.449C926.388 473.903 926.956 475.568 927.251 477.443Z" fill="white"/>
<path d="M199.764 573H192.31L209.06 526.455H217.173L233.923 573H226.469L213.31 534.909H212.946L199.764 573ZM201.014 554.773H225.196V560.682H201.014V554.773ZM246.895 526.455V573H240.099V526.455H246.895ZM256.037 573V538.091H262.832V573H256.037ZM259.469 532.705C258.287 532.705 257.272 532.311 256.423 531.523C255.59 530.72 255.173 529.765 255.173 528.659C255.173 527.538 255.59 526.583 256.423 525.795C257.272 524.992 258.287 524.591 259.469 524.591C260.651 524.591 261.658 524.992 262.491 525.795C263.34 526.583 263.764 527.538 263.764 528.659C263.764 529.765 263.34 530.72 262.491 531.523C261.658 532.311 260.651 532.705 259.469 532.705ZM286.679 573.705C283.3 573.705 280.391 572.939 277.952 571.409C275.527 569.864 273.664 567.735 272.361 565.023C271.058 562.311 270.406 559.205 270.406 555.705C270.406 552.159 271.073 549.03 272.406 546.318C273.74 543.591 275.618 541.462 278.043 539.932C280.467 538.402 283.323 537.636 286.611 537.636C289.262 537.636 291.626 538.129 293.702 539.114C295.777 540.083 297.452 541.447 298.724 543.205C300.012 544.962 300.777 547.015 301.02 549.364H294.406C294.043 547.727 293.209 546.318 291.906 545.136C290.618 543.955 288.891 543.364 286.724 543.364C284.83 543.364 283.171 543.864 281.747 544.864C280.338 545.848 279.24 547.258 278.452 549.091C277.664 550.909 277.27 553.061 277.27 555.545C277.27 558.091 277.656 560.288 278.429 562.136C279.202 563.985 280.293 565.417 281.702 566.432C283.126 567.447 284.8 567.955 286.724 567.955C288.012 567.955 289.179 567.72 290.224 567.25C291.285 566.765 292.171 566.076 292.884 565.182C293.611 564.288 294.118 563.212 294.406 561.955H301.02C300.777 564.212 300.043 566.227 298.815 568C297.588 569.773 295.944 571.167 293.884 572.182C291.838 573.197 289.437 573.705 286.679 573.705ZM323.332 573.705C319.893 573.705 316.931 572.97 314.446 571.5C311.976 570.015 310.067 567.932 308.719 565.25C307.385 562.553 306.719 559.394 306.719 555.773C306.719 552.197 307.385 549.045 308.719 546.318C310.067 543.591 311.946 541.462 314.355 539.932C316.779 538.402 319.613 537.636 322.855 537.636C324.825 537.636 326.734 537.962 328.582 538.614C330.431 539.265 332.09 540.288 333.56 541.682C335.029 543.076 336.188 544.886 337.037 547.114C337.885 549.326 338.31 552.015 338.31 555.182V557.591H310.56V552.5H331.651C331.651 550.712 331.287 549.129 330.56 547.75C329.832 546.356 328.81 545.258 327.491 544.455C326.188 543.652 324.658 543.25 322.901 543.25C320.991 543.25 319.325 543.72 317.901 544.659C316.491 545.583 315.401 546.795 314.628 548.295C313.87 549.78 313.491 551.394 313.491 553.136V557.114C313.491 559.447 313.901 561.432 314.719 563.068C315.552 564.705 316.711 565.955 318.196 566.818C319.681 567.667 321.416 568.091 323.401 568.091C324.688 568.091 325.863 567.909 326.923 567.545C327.984 567.167 328.901 566.606 329.673 565.864C330.446 565.121 331.037 564.205 331.446 563.114L337.878 564.273C337.363 566.167 336.438 567.826 335.105 569.25C333.787 570.659 332.128 571.758 330.128 572.545C328.143 573.318 325.878 573.705 323.332 573.705Z" fill="white"/>
<path d="M1288.86 573V526.455H1305.91C1309.21 526.455 1311.95 527 1314.11 528.091C1316.28 529.167 1317.9 530.629 1318.98 532.477C1320.05 534.311 1320.59 536.379 1320.59 538.682C1320.59 540.621 1320.23 542.258 1319.52 543.591C1318.81 544.909 1317.86 545.97 1316.66 546.773C1315.48 547.561 1314.17 548.136 1312.75 548.5V548.955C1314.3 549.03 1315.8 549.53 1317.27 550.455C1318.76 551.364 1319.98 552.659 1320.95 554.341C1321.92 556.023 1322.41 558.068 1322.41 560.477C1322.41 562.856 1321.85 564.992 1320.73 566.886C1319.62 568.765 1317.91 570.258 1315.59 571.364C1313.27 572.455 1310.31 573 1306.7 573H1288.86ZM1295.89 566.977H1306.02C1309.39 566.977 1311.8 566.326 1313.25 565.023C1314.7 563.72 1315.43 562.091 1315.43 560.136C1315.43 558.667 1315.06 557.318 1314.32 556.091C1313.58 554.864 1312.52 553.886 1311.14 553.159C1309.77 552.432 1308.15 552.068 1306.27 552.068H1295.89V566.977ZM1295.89 546.591H1305.3C1306.87 546.591 1308.29 546.288 1309.55 545.682C1310.82 545.076 1311.83 544.227 1312.57 543.136C1313.33 542.03 1313.7 540.727 1313.7 539.227C1313.7 537.303 1313.03 535.689 1311.68 534.386C1310.33 533.083 1308.27 532.432 1305.48 532.432H1295.89V546.591ZM1344.9 573.705C1341.63 573.705 1338.77 572.955 1336.33 571.455C1333.89 569.955 1332 567.856 1330.65 565.159C1329.3 562.462 1328.62 559.311 1328.62 555.705C1328.62 552.083 1329.3 548.917 1330.65 546.205C1332 543.492 1333.89 541.386 1336.33 539.886C1338.77 538.386 1341.63 537.636 1344.9 537.636C1348.17 537.636 1351.03 538.386 1353.47 539.886C1355.91 541.386 1357.8 543.492 1359.15 546.205C1360.5 548.917 1361.17 552.083 1361.17 555.705C1361.17 559.311 1360.5 562.462 1359.15 565.159C1357.8 567.856 1355.91 569.955 1353.47 571.455C1351.03 572.955 1348.17 573.705 1344.9 573.705ZM1344.92 568C1347.04 568 1348.8 567.439 1350.19 566.318C1351.59 565.197 1352.62 563.705 1353.28 561.841C1353.97 559.977 1354.31 557.924 1354.31 555.682C1354.31 553.455 1353.97 551.409 1353.28 549.545C1352.62 547.667 1351.59 546.159 1350.19 545.023C1348.8 543.886 1347.04 543.318 1344.92 543.318C1342.78 543.318 1341.01 543.886 1339.6 545.023C1338.21 546.159 1337.17 547.667 1336.49 549.545C1335.82 551.409 1335.49 553.455 1335.49 555.682C1335.49 557.924 1335.82 559.977 1336.49 561.841C1337.17 563.705 1338.21 565.197 1339.6 566.318C1341.01 567.439 1342.78 568 1344.92 568ZM1369.3 573V526.455H1376.1V543.75H1376.51C1376.9 543.023 1377.47 542.182 1378.21 541.227C1378.95 540.273 1379.98 539.439 1381.3 538.727C1382.62 538 1384.36 537.636 1386.53 537.636C1389.35 537.636 1391.86 538.348 1394.07 539.773C1396.29 541.197 1398.02 543.25 1399.28 545.932C1400.55 548.614 1401.19 551.841 1401.19 555.614C1401.19 559.386 1400.56 562.621 1399.3 565.318C1398.04 568 1396.32 570.068 1394.12 571.523C1391.92 572.962 1389.41 573.682 1386.6 573.682C1384.48 573.682 1382.74 573.326 1381.39 572.614C1380.06 571.902 1379.01 571.068 1378.26 570.114C1377.5 569.159 1376.91 568.311 1376.51 567.568H1375.94V573H1369.3ZM1375.96 555.545C1375.96 558 1376.32 560.152 1377.03 562C1377.74 563.848 1378.77 565.295 1380.12 566.341C1381.47 567.371 1383.12 567.886 1385.07 567.886C1387.1 567.886 1388.8 567.348 1390.16 566.273C1391.53 565.182 1392.56 563.705 1393.26 561.841C1393.97 559.977 1394.32 557.879 1394.32 555.545C1394.32 553.242 1393.98 551.174 1393.28 549.341C1392.6 547.508 1391.57 546.061 1390.19 545C1388.82 543.939 1387.12 543.409 1385.07 543.409C1383.1 543.409 1381.44 543.917 1380.07 544.932C1378.73 545.947 1377.7 547.364 1377.01 549.182C1376.31 551 1375.96 553.121 1375.96 555.545Z" fill="white"/>
<path d="M1148 559L1123 544.566V573.434L1148 559ZM469 561.5L1125.5 561.5V556.5L469 556.5V561.5Z" fill="white"/>
</svg>
