<svg width="1609" height="814" viewBox="0 0 1609 814" fill="none" xmlns="http://www.w3.org/2000/svg" style="background-color: #3c3c3c;">
<rect width="1609" height="814" fill="#3C3C3C"/>
<path d="M477.613 397.116C477.416 395.368 476.604 394.014 475.176 393.054C473.748 392.081 471.95 391.595 469.784 391.595C468.233 391.595 466.891 391.841 465.758 392.334C464.626 392.814 463.745 393.479 463.118 394.328C462.502 395.165 462.194 396.119 462.194 397.19C462.194 398.089 462.404 398.865 462.822 399.517C463.253 400.17 463.813 400.717 464.502 401.161C465.204 401.591 465.955 401.955 466.755 402.25C467.556 402.533 468.325 402.767 469.064 402.952L472.757 403.912C473.963 404.207 475.2 404.607 476.468 405.112C477.736 405.617 478.912 406.282 479.995 407.107C481.079 407.931 481.953 408.953 482.618 410.172C483.295 411.391 483.633 412.849 483.633 414.548C483.633 416.69 483.079 418.592 481.971 420.254C480.876 421.916 479.281 423.227 477.189 424.188C475.108 425.148 472.591 425.628 469.636 425.628C466.805 425.628 464.355 425.179 462.287 424.28C460.218 423.381 458.6 422.107 457.43 420.457C456.261 418.795 455.614 416.826 455.491 414.548H461.216C461.326 415.915 461.77 417.054 462.545 417.964C463.333 418.863 464.336 419.534 465.555 419.977C466.786 420.408 468.134 420.624 469.599 420.624C471.212 420.624 472.646 420.371 473.902 419.866C475.17 419.349 476.167 418.635 476.893 417.724C477.619 416.801 477.983 415.724 477.983 414.493C477.983 413.373 477.663 412.455 477.022 411.741C476.395 411.027 475.539 410.437 474.456 409.969C473.385 409.501 472.172 409.089 470.818 408.732L466.349 407.513C463.321 406.688 460.92 405.475 459.147 403.875C457.387 402.275 456.507 400.157 456.507 397.523C456.507 395.344 457.098 393.442 458.279 391.817C459.461 390.192 461.062 388.93 463.081 388.031C465.1 387.12 467.377 386.665 469.913 386.665C472.474 386.665 474.733 387.114 476.69 388.013C478.66 388.911 480.211 390.149 481.343 391.724C482.476 393.288 483.067 395.085 483.116 397.116H477.613ZM503.249 396.636V401.068H487.756V396.636H503.249ZM491.911 389.841H497.432V416.672C497.432 417.743 497.592 418.549 497.912 419.091C498.232 419.62 498.644 419.983 499.149 420.18C499.666 420.365 500.226 420.457 500.83 420.457C501.273 420.457 501.661 420.427 501.993 420.365C502.325 420.304 502.584 420.254 502.768 420.217L503.766 424.778C503.446 424.902 502.99 425.025 502.399 425.148C501.808 425.283 501.07 425.357 500.183 425.369C498.731 425.394 497.376 425.135 496.121 424.594C494.865 424.052 493.849 423.215 493.074 422.082C492.298 420.95 491.911 419.528 491.911 417.817V389.841ZM517.61 425.628C515.813 425.628 514.188 425.295 512.735 424.631C511.283 423.954 510.132 422.975 509.282 421.695C508.445 420.414 508.027 418.845 508.027 416.986C508.027 415.385 508.334 414.068 508.95 413.034C509.565 412 510.396 411.181 511.443 410.578C512.489 409.975 513.659 409.519 514.951 409.212C516.244 408.904 517.561 408.67 518.903 408.51C520.602 408.313 521.981 408.153 523.039 408.03C524.098 407.894 524.868 407.679 525.348 407.384C525.828 407.088 526.068 406.608 526.068 405.943V405.814C526.068 404.201 525.612 402.952 524.701 402.065C523.803 401.179 522.461 400.736 520.676 400.736C518.817 400.736 517.352 401.148 516.281 401.973C515.222 402.786 514.49 403.69 514.083 404.688L508.895 403.506C509.51 401.782 510.409 400.391 511.591 399.332C512.785 398.261 514.157 397.486 515.708 397.006C517.26 396.513 518.891 396.267 520.602 396.267C521.734 396.267 522.935 396.402 524.203 396.673C525.483 396.932 526.677 397.412 527.785 398.114C528.905 398.815 529.823 399.819 530.537 401.124C531.251 402.416 531.608 404.097 531.608 406.165V425H526.216V421.122H525.994C525.637 421.836 525.101 422.538 524.387 423.227C523.673 423.917 522.756 424.489 521.636 424.945C520.516 425.4 519.174 425.628 517.61 425.628ZM518.811 421.196C520.337 421.196 521.642 420.894 522.725 420.291C523.821 419.688 524.652 418.9 525.218 417.928C525.797 416.943 526.086 415.89 526.086 414.77V411.114C525.889 411.311 525.508 411.495 524.941 411.668C524.387 411.828 523.753 411.969 523.039 412.092C522.325 412.203 521.63 412.308 520.953 412.406C520.276 412.492 519.709 412.566 519.254 412.628C518.183 412.763 517.204 412.991 516.318 413.311C515.444 413.631 514.742 414.093 514.213 414.696C513.696 415.287 513.437 416.075 513.437 417.06C513.437 418.426 513.942 419.46 514.951 420.162C515.961 420.851 517.247 421.196 518.811 421.196ZM550.854 436.227C548.601 436.227 546.662 435.932 545.037 435.341C543.424 434.75 542.107 433.968 541.085 432.996C540.063 432.023 539.3 430.958 538.795 429.801L543.541 427.844C543.874 428.385 544.317 428.958 544.871 429.561C545.437 430.177 546.2 430.7 547.161 431.131C548.133 431.562 549.383 431.777 550.909 431.777C553.002 431.777 554.732 431.266 556.098 430.244C557.464 429.235 558.148 427.622 558.148 425.406V419.83H557.797C557.464 420.433 556.984 421.104 556.357 421.842C555.741 422.581 554.892 423.221 553.808 423.763C552.725 424.304 551.315 424.575 549.58 424.575C547.339 424.575 545.32 424.052 543.523 423.006C541.738 421.947 540.322 420.39 539.276 418.334C538.241 416.266 537.724 413.723 537.724 410.707C537.724 407.691 538.235 405.106 539.257 402.952C540.291 400.797 541.707 399.148 543.504 398.003C545.302 396.846 547.339 396.267 549.616 396.267C551.377 396.267 552.799 396.562 553.882 397.153C554.965 397.732 555.809 398.409 556.412 399.185C557.027 399.96 557.501 400.643 557.834 401.234H558.24V396.636H563.651V425.628C563.651 428.065 563.084 430.066 561.952 431.629C560.819 433.193 559.286 434.35 557.354 435.101C555.433 435.852 553.267 436.227 550.854 436.227ZM550.798 419.996C552.386 419.996 553.728 419.626 554.824 418.888C555.932 418.137 556.769 417.066 557.335 415.675C557.914 414.271 558.203 412.591 558.203 410.634C558.203 408.725 557.92 407.045 557.354 405.592C556.787 404.14 555.956 403.007 554.861 402.195C553.765 401.37 552.411 400.957 550.798 400.957C549.136 400.957 547.751 401.388 546.643 402.25C545.536 403.099 544.698 404.257 544.132 405.722C543.578 407.187 543.301 408.824 543.301 410.634C543.301 412.492 543.584 414.124 544.151 415.527C544.717 416.93 545.554 418.026 546.662 418.814C547.782 419.602 549.161 419.996 550.798 419.996ZM583.28 425.572C580.485 425.572 578.079 424.975 576.06 423.781C574.053 422.575 572.502 420.882 571.406 418.703C570.323 416.512 569.781 413.945 569.781 411.003C569.781 408.098 570.323 405.537 571.406 403.321C572.502 401.105 574.028 399.375 575.986 398.132C577.955 396.889 580.258 396.267 582.892 396.267C584.492 396.267 586.044 396.532 587.545 397.061C589.047 397.59 590.395 398.421 591.589 399.554C592.784 400.687 593.725 402.158 594.415 403.967C595.104 405.765 595.449 407.95 595.449 410.523V412.48H572.902V408.344H590.038C590.038 406.891 589.743 405.605 589.152 404.484C588.561 403.352 587.73 402.459 586.659 401.807C585.6 401.154 584.357 400.828 582.929 400.828C581.378 400.828 580.024 401.21 578.866 401.973C577.722 402.724 576.835 403.709 576.207 404.928C575.592 406.134 575.284 407.445 575.284 408.861V412.092C575.284 413.988 575.616 415.601 576.281 416.93C576.958 418.26 577.9 419.276 579.107 419.977C580.313 420.667 581.723 421.011 583.335 421.011C584.382 421.011 585.336 420.864 586.197 420.568C587.059 420.26 587.804 419.805 588.432 419.202C589.06 418.598 589.54 417.854 589.872 416.967L595.098 417.909C594.679 419.448 593.929 420.796 592.845 421.953C591.774 423.098 590.426 423.991 588.801 424.631C587.188 425.259 585.348 425.572 583.28 425.572ZM629.611 387.182V425H623.886V392.906H623.665L614.616 398.815V393.349L624.053 387.182H629.611ZM643.553 420.31C642.543 420.31 641.675 419.953 640.949 419.239C640.223 418.512 639.859 417.638 639.859 416.616C639.859 415.607 640.223 414.745 640.949 414.031C641.675 413.305 642.543 412.942 643.553 412.942C644.562 412.942 645.43 413.305 646.156 414.031C646.883 414.745 647.246 415.607 647.246 416.616C647.246 417.294 647.073 417.915 646.729 418.482C646.396 419.036 645.953 419.479 645.399 419.811C644.845 420.143 644.23 420.31 643.553 420.31ZM643.553 401.364C642.543 401.364 641.675 401.007 640.949 400.293C640.223 399.566 639.859 398.692 639.859 397.67C639.859 396.661 640.223 395.799 640.949 395.085C641.675 394.359 642.543 393.996 643.553 393.996C644.562 393.996 645.43 394.359 646.156 395.085C646.883 395.799 647.246 396.661 647.246 397.67C647.246 398.348 647.073 398.969 646.729 399.536C646.396 400.089 645.953 400.533 645.399 400.865C644.845 401.197 644.23 401.364 643.553 401.364ZM689.473 397.116C689.276 395.368 688.463 394.014 687.035 393.054C685.607 392.081 683.81 391.595 681.643 391.595C680.092 391.595 678.75 391.841 677.618 392.334C676.485 392.814 675.605 393.479 674.977 394.328C674.361 395.165 674.054 396.119 674.054 397.19C674.054 398.089 674.263 398.865 674.681 399.517C675.112 400.17 675.672 400.717 676.362 401.161C677.064 401.591 677.815 401.955 678.615 402.25C679.415 402.533 680.184 402.767 680.923 402.952L684.616 403.912C685.823 404.207 687.06 404.607 688.328 405.112C689.596 405.617 690.771 406.282 691.855 407.107C692.938 407.931 693.812 408.953 694.477 410.172C695.154 411.391 695.493 412.849 695.493 414.548C695.493 416.69 694.939 418.592 693.831 420.254C692.735 421.916 691.141 423.227 689.048 424.188C686.967 425.148 684.45 425.628 681.495 425.628C678.664 425.628 676.214 425.179 674.146 424.28C672.078 423.381 670.459 422.107 669.289 420.457C668.12 418.795 667.474 416.826 667.35 414.548H673.075C673.186 415.915 673.629 417.054 674.404 417.964C675.192 418.863 676.196 419.534 677.414 419.977C678.645 420.408 679.993 420.624 681.458 420.624C683.071 420.624 684.505 420.371 685.761 419.866C687.029 419.349 688.026 418.635 688.752 417.724C689.479 416.801 689.842 415.724 689.842 414.493C689.842 413.373 689.522 412.455 688.882 411.741C688.254 411.027 687.398 410.437 686.315 409.969C685.244 409.501 684.031 409.089 682.677 408.732L678.208 407.513C675.18 406.688 672.779 405.475 671.007 403.875C669.246 402.275 668.366 400.157 668.366 397.523C668.366 395.344 668.957 393.442 670.139 391.817C671.321 390.192 672.921 388.93 674.94 388.031C676.959 387.12 679.236 386.665 681.772 386.665C684.333 386.665 686.592 387.114 688.549 388.013C690.519 388.911 692.07 390.149 693.203 391.724C694.335 393.288 694.926 395.085 694.975 397.116H689.473ZM701.868 425V396.636H707.389V425H701.868ZM704.656 392.26C703.696 392.26 702.871 391.94 702.182 391.3C701.505 390.647 701.166 389.872 701.166 388.973C701.166 388.062 701.505 387.286 702.182 386.646C702.871 385.994 703.696 385.668 704.656 385.668C705.616 385.668 706.435 385.994 707.112 386.646C707.802 387.286 708.146 388.062 708.146 388.973C708.146 389.872 707.802 390.647 707.112 391.3C706.435 391.94 705.616 392.26 704.656 392.26ZM726.709 436.227C724.456 436.227 722.517 435.932 720.892 435.341C719.28 434.75 717.962 433.968 716.941 432.996C715.919 432.023 715.156 430.958 714.651 429.801L719.397 427.844C719.729 428.385 720.172 428.958 720.726 429.561C721.292 430.177 722.056 430.7 723.016 431.131C723.989 431.562 725.238 431.777 726.765 431.777C728.857 431.777 730.587 431.266 731.953 430.244C733.32 429.235 734.003 427.622 734.003 425.406V419.83H733.652C733.32 420.433 732.84 421.104 732.212 421.842C731.596 422.581 730.747 423.221 729.664 423.763C728.58 424.304 727.171 424.575 725.435 424.575C723.194 424.575 721.176 424.052 719.378 423.006C717.593 421.947 716.177 420.39 715.131 418.334C714.097 416.266 713.58 413.723 713.58 410.707C713.58 407.691 714.091 405.106 715.113 402.952C716.147 400.797 717.562 399.148 719.36 398.003C721.157 396.846 723.194 396.267 725.472 396.267C727.232 396.267 728.654 396.562 729.738 397.153C730.821 397.732 731.664 398.409 732.267 399.185C732.883 399.96 733.357 400.643 733.689 401.234H734.096V396.636H739.506V425.628C739.506 428.065 738.94 430.066 737.807 431.629C736.675 433.193 735.142 434.35 733.209 435.101C731.289 435.852 729.122 436.227 726.709 436.227ZM726.654 419.996C728.242 419.996 729.584 419.626 730.679 418.888C731.787 418.137 732.624 417.066 733.191 415.675C733.769 414.271 734.059 412.591 734.059 410.634C734.059 408.725 733.775 407.045 733.209 405.592C732.643 404.14 731.812 403.007 730.716 402.195C729.621 401.37 728.266 400.957 726.654 400.957C724.992 400.957 723.607 401.388 722.499 402.25C721.391 403.099 720.554 404.257 719.988 405.722C719.434 407.187 719.157 408.824 719.157 410.634C719.157 412.492 719.44 414.124 720.006 415.527C720.572 416.93 721.409 418.026 722.517 418.814C723.638 419.602 725.016 419.996 726.654 419.996ZM752.432 408.159V425H746.911V396.636H752.211V401.253H752.561C753.214 399.751 754.236 398.545 755.627 397.634C757.03 396.723 758.797 396.267 760.926 396.267C762.859 396.267 764.552 396.673 766.005 397.486C767.457 398.286 768.584 399.48 769.384 401.068C770.184 402.656 770.584 404.62 770.584 406.959V425H765.063V407.624C765.063 405.568 764.527 403.961 763.456 402.804C762.385 401.634 760.914 401.05 759.043 401.05C757.763 401.05 756.624 401.327 755.627 401.881C754.642 402.435 753.86 403.247 753.282 404.318C752.715 405.377 752.432 406.657 752.432 408.159ZM777.989 425V396.636H783.51V425H777.989ZM780.777 392.26C779.817 392.26 778.992 391.94 778.303 391.3C777.626 390.647 777.287 389.872 777.287 388.973C777.287 388.062 777.626 387.286 778.303 386.646C778.992 385.994 779.817 385.668 780.777 385.668C781.738 385.668 782.556 385.994 783.233 386.646C783.923 387.286 784.267 388.062 784.267 388.973C784.267 389.872 783.923 390.647 783.233 391.3C782.556 391.94 781.738 392.26 780.777 392.26ZM796.46 408.159V425H790.938V396.636H796.238V401.253H796.589C797.241 399.751 798.263 398.545 799.654 397.634C801.058 396.723 802.824 396.267 804.954 396.267C806.887 396.267 808.579 396.673 810.032 397.486C811.485 398.286 812.611 399.48 813.411 401.068C814.211 402.656 814.612 404.62 814.612 406.959V425H809.09V407.624C809.09 405.568 808.555 403.961 807.484 402.804C806.413 401.634 804.942 401.05 803.07 401.05C801.79 401.05 800.651 401.327 799.654 401.881C798.669 402.435 797.888 403.247 797.309 404.318C796.743 405.377 796.46 406.657 796.46 408.159ZM833.908 436.227C831.656 436.227 829.717 435.932 828.092 435.341C826.479 434.75 825.162 433.968 824.14 432.996C823.118 432.023 822.355 430.958 821.85 429.801L826.596 427.844C826.928 428.385 827.371 428.958 827.925 429.561C828.492 430.177 829.255 430.7 830.215 431.131C831.188 431.562 832.437 431.777 833.964 431.777C836.057 431.777 837.786 431.266 839.153 430.244C840.519 429.235 841.202 427.622 841.202 425.406V419.83H840.852C840.519 420.433 840.039 421.104 839.411 421.842C838.796 422.581 837.946 423.221 836.863 423.763C835.78 424.304 834.37 424.575 832.634 424.575C830.394 424.575 828.375 424.052 826.577 423.006C824.792 421.947 823.377 420.39 822.33 418.334C821.296 416.266 820.779 413.723 820.779 410.707C820.779 407.691 821.29 405.106 822.312 402.952C823.346 400.797 824.762 399.148 826.559 398.003C828.356 396.846 830.394 396.267 832.671 396.267C834.432 396.267 835.853 396.562 836.937 397.153C838.02 397.732 838.863 398.409 839.467 399.185C840.082 399.96 840.556 400.643 840.888 401.234H841.295V396.636H846.705V425.628C846.705 428.065 846.139 430.066 845.006 431.629C843.874 433.193 842.341 434.35 840.408 435.101C838.488 435.852 836.321 436.227 833.908 436.227ZM833.853 419.996C835.441 419.996 836.783 419.626 837.879 418.888C838.987 418.137 839.824 417.066 840.39 415.675C840.969 414.271 841.258 412.591 841.258 410.634C841.258 408.725 840.975 407.045 840.408 405.592C839.842 404.14 839.011 403.007 837.915 402.195C836.82 401.37 835.466 400.957 833.853 400.957C832.191 400.957 830.806 401.388 829.698 402.25C828.59 403.099 827.753 404.257 827.187 405.722C826.633 407.187 826.356 408.824 826.356 410.634C826.356 412.492 826.639 414.124 827.205 415.527C827.772 416.93 828.609 418.026 829.717 418.814C830.837 419.602 832.216 419.996 833.853 419.996ZM866.45 392.094V387.182H895.718V392.094H883.919V425H878.231V392.094H866.45ZM898.798 425V396.636H904.134V401.142H904.43C904.947 399.616 905.858 398.415 907.163 397.541C908.48 396.655 909.969 396.212 911.631 396.212C911.976 396.212 912.382 396.224 912.85 396.249C913.33 396.273 913.706 396.304 913.977 396.341V401.622C913.755 401.561 913.361 401.493 912.795 401.419C912.228 401.333 911.662 401.29 911.096 401.29C909.791 401.29 908.628 401.567 907.606 402.121C906.596 402.662 905.796 403.42 905.205 404.392C904.614 405.352 904.319 406.448 904.319 407.679V425H898.798ZM926.755 425.628C924.958 425.628 923.333 425.295 921.88 424.631C920.427 423.954 919.276 422.975 918.427 421.695C917.59 420.414 917.171 418.845 917.171 416.986C917.171 415.385 917.479 414.068 918.094 413.034C918.71 412 919.541 411.181 920.587 410.578C921.634 409.975 922.803 409.519 924.096 409.212C925.388 408.904 926.706 408.67 928.048 408.51C929.746 408.313 931.125 408.153 932.184 408.03C933.243 407.894 934.012 407.679 934.492 407.384C934.972 407.088 935.212 406.608 935.212 405.943V405.814C935.212 404.201 934.757 402.952 933.846 402.065C932.947 401.179 931.605 400.736 929.82 400.736C927.961 400.736 926.496 401.148 925.425 401.973C924.367 402.786 923.634 403.69 923.228 404.688L918.039 403.506C918.655 401.782 919.553 400.391 920.735 399.332C921.929 398.261 923.302 397.486 924.853 397.006C926.404 396.513 928.035 396.267 929.746 396.267C930.879 396.267 932.079 396.402 933.347 396.673C934.628 396.932 935.822 397.412 936.93 398.114C938.05 398.815 938.967 399.819 939.681 401.124C940.395 402.416 940.752 404.097 940.752 406.165V425H935.36V421.122H935.138C934.781 421.836 934.246 422.538 933.532 423.227C932.818 423.917 931.901 424.489 930.781 424.945C929.66 425.4 928.318 425.628 926.755 425.628ZM927.955 421.196C929.482 421.196 930.787 420.894 931.87 420.291C932.966 419.688 933.797 418.9 934.363 417.928C934.942 416.943 935.231 415.89 935.231 414.77V411.114C935.034 411.311 934.652 411.495 934.086 411.668C933.532 411.828 932.898 411.969 932.184 412.092C931.47 412.203 930.774 412.308 930.097 412.406C929.42 412.492 928.854 412.566 928.398 412.628C927.327 412.763 926.349 412.991 925.462 413.311C924.588 413.631 923.887 414.093 923.357 414.696C922.84 415.287 922.582 416.075 922.582 417.06C922.582 418.426 923.086 419.46 924.096 420.162C925.105 420.851 926.392 421.196 927.955 421.196ZM953.627 408.159V425H948.106V396.636H953.406V401.253H953.757C954.409 399.751 955.431 398.545 956.822 397.634C958.225 396.723 959.992 396.267 962.122 396.267C964.055 396.267 965.747 396.673 967.2 397.486C968.653 398.286 969.779 399.48 970.579 401.068C971.379 402.656 971.779 404.62 971.779 406.959V425H966.258V407.624C966.258 405.568 965.723 403.961 964.652 402.804C963.581 401.634 962.109 401.05 960.238 401.05C958.958 401.05 957.819 401.327 956.822 401.881C955.837 402.435 955.056 403.247 954.477 404.318C953.911 405.377 953.627 406.657 953.627 408.159ZM1000.44 403.561L995.434 404.447C995.225 403.807 994.893 403.198 994.437 402.619C993.994 402.041 993.391 401.567 992.627 401.197C991.864 400.828 990.91 400.643 989.765 400.643C988.202 400.643 986.897 400.994 985.85 401.696C984.804 402.385 984.281 403.278 984.281 404.374C984.281 405.321 984.632 406.085 985.333 406.663C986.035 407.242 987.168 407.716 988.731 408.085L993.237 409.119C995.847 409.723 997.792 410.652 999.072 411.908C1000.35 413.163 1000.99 414.795 1000.99 416.801C1000.99 418.5 1000.5 420.014 999.515 421.344C998.543 422.661 997.182 423.695 995.434 424.446C993.699 425.197 991.686 425.572 989.396 425.572C986.22 425.572 983.628 424.895 981.622 423.541C979.615 422.175 978.384 420.236 977.929 417.724L983.265 416.912C983.598 418.303 984.281 419.356 985.315 420.07C986.349 420.771 987.697 421.122 989.359 421.122C991.169 421.122 992.615 420.747 993.699 419.996C994.782 419.232 995.324 418.303 995.324 417.207C995.324 416.321 994.991 415.576 994.326 414.973C993.674 414.37 992.671 413.914 991.316 413.607L986.515 412.554C983.868 411.951 981.911 410.991 980.643 409.673C979.387 408.356 978.76 406.688 978.76 404.669C978.76 402.995 979.227 401.53 980.163 400.274C981.099 399.018 982.391 398.04 984.041 397.338C985.69 396.624 987.58 396.267 989.71 396.267C992.775 396.267 995.188 396.932 996.949 398.261C998.709 399.579 999.872 401.345 1000.44 403.561ZM1015.32 425.628C1013.52 425.628 1011.9 425.295 1010.44 424.631C1008.99 423.954 1007.84 422.975 1006.99 421.695C1006.15 420.414 1005.73 418.845 1005.73 416.986C1005.73 415.385 1006.04 414.068 1006.66 413.034C1007.27 412 1008.1 411.181 1009.15 410.578C1010.2 409.975 1011.37 409.519 1012.66 409.212C1013.95 408.904 1015.27 408.67 1016.61 408.51C1018.31 408.313 1019.69 408.153 1020.75 408.03C1021.81 407.894 1022.57 407.679 1023.05 407.384C1023.53 407.088 1023.77 406.608 1023.77 405.943V405.814C1023.77 404.201 1023.32 402.952 1022.41 402.065C1021.51 401.179 1020.17 400.736 1018.38 400.736C1016.52 400.736 1015.06 401.148 1013.99 401.973C1012.93 402.786 1012.2 403.69 1011.79 404.688L1006.6 403.506C1007.22 401.782 1008.12 400.391 1009.3 399.332C1010.49 398.261 1011.86 397.486 1013.42 397.006C1014.97 396.513 1016.6 396.267 1018.31 396.267C1019.44 396.267 1020.64 396.402 1021.91 396.673C1023.19 396.932 1024.38 397.412 1025.49 398.114C1026.61 398.815 1027.53 399.819 1028.24 401.124C1028.96 402.416 1029.31 404.097 1029.31 406.165V425H1023.92V421.122H1023.7C1023.34 421.836 1022.81 422.538 1022.09 423.227C1021.38 423.917 1020.46 424.489 1019.34 424.945C1018.22 425.4 1016.88 425.628 1015.32 425.628ZM1016.52 421.196C1018.04 421.196 1019.35 420.894 1020.43 420.291C1021.53 419.688 1022.36 418.9 1022.93 417.928C1023.5 416.943 1023.79 415.89 1023.79 414.77V411.114C1023.6 411.311 1023.21 411.495 1022.65 411.668C1022.09 411.828 1021.46 411.969 1020.75 412.092C1020.03 412.203 1019.34 412.308 1018.66 412.406C1017.98 412.492 1017.42 412.566 1016.96 412.628C1015.89 412.763 1014.91 412.991 1014.02 413.311C1013.15 413.631 1012.45 414.093 1011.92 414.696C1011.4 415.287 1011.14 416.075 1011.14 417.06C1011.14 418.426 1011.65 419.46 1012.66 420.162C1013.67 420.851 1014.95 421.196 1016.52 421.196ZM1048.62 425.572C1045.87 425.572 1043.51 424.951 1041.53 423.707C1039.56 422.452 1038.04 420.722 1036.98 418.518C1035.92 416.315 1035.39 413.791 1035.39 410.947C1035.39 408.067 1035.94 405.525 1037.02 403.321C1038.1 401.105 1039.63 399.375 1041.6 398.132C1043.57 396.889 1045.89 396.267 1048.56 396.267C1050.72 396.267 1052.64 396.667 1054.32 397.467C1056.01 398.255 1057.37 399.363 1058.4 400.791C1059.45 402.219 1060.07 403.887 1060.27 405.795H1054.89C1054.6 404.466 1053.92 403.321 1052.86 402.361C1051.82 401.401 1050.41 400.92 1048.65 400.92C1047.11 400.92 1045.77 401.327 1044.61 402.139C1043.46 402.939 1042.57 404.084 1041.93 405.574C1041.29 407.051 1040.97 408.799 1040.97 410.818C1040.97 412.886 1041.29 414.671 1041.91 416.173C1042.54 417.675 1043.43 418.839 1044.57 419.663C1045.73 420.488 1047.09 420.901 1048.65 420.901C1049.7 420.901 1050.65 420.71 1051.5 420.328C1052.36 419.934 1053.08 419.374 1053.66 418.648C1054.25 417.921 1054.66 417.047 1054.89 416.026H1060.27C1060.07 417.86 1059.47 419.497 1058.48 420.938C1057.48 422.378 1056.14 423.51 1054.47 424.335C1052.81 425.16 1050.86 425.572 1048.62 425.572ZM1079.41 396.636V401.068H1063.92V396.636H1079.41ZM1068.07 389.841H1073.6V416.672C1073.6 417.743 1073.76 418.549 1074.08 419.091C1074.4 419.62 1074.81 419.983 1075.31 420.18C1075.83 420.365 1076.39 420.457 1076.99 420.457C1077.44 420.457 1077.82 420.427 1078.16 420.365C1078.49 420.304 1078.75 420.254 1078.93 420.217L1079.93 424.778C1079.61 424.902 1079.15 425.025 1078.56 425.148C1077.97 425.283 1077.23 425.357 1076.35 425.369C1074.89 425.394 1073.54 425.135 1072.28 424.594C1071.03 424.052 1070.01 423.215 1069.24 422.082C1068.46 420.95 1068.07 419.528 1068.07 417.817V389.841ZM1085.52 425V396.636H1091.04V425H1085.52ZM1088.31 392.26C1087.35 392.26 1086.52 391.94 1085.83 391.3C1085.16 390.647 1084.82 389.872 1084.82 388.973C1084.82 388.062 1085.16 387.286 1085.83 386.646C1086.52 385.994 1087.35 385.668 1088.31 385.668C1089.27 385.668 1090.09 385.994 1090.76 386.646C1091.45 387.286 1091.8 388.062 1091.8 388.973C1091.8 389.872 1091.45 390.647 1090.76 391.3C1090.09 391.94 1089.27 392.26 1088.31 392.26ZM1110.42 425.572C1107.76 425.572 1105.44 424.963 1103.46 423.744C1101.47 422.526 1099.93 420.821 1098.84 418.629C1097.74 416.438 1097.2 413.877 1097.2 410.947C1097.2 408.005 1097.74 405.432 1098.84 403.229C1099.93 401.025 1101.47 399.314 1103.46 398.095C1105.44 396.876 1107.76 396.267 1110.42 396.267C1113.08 396.267 1115.4 396.876 1117.38 398.095C1119.36 399.314 1120.9 401.025 1122 403.229C1123.09 405.432 1123.64 408.005 1123.64 410.947C1123.64 413.877 1123.09 416.438 1122 418.629C1120.9 420.821 1119.36 422.526 1117.38 423.744C1115.4 424.963 1113.08 425.572 1110.42 425.572ZM1110.44 420.938C1112.16 420.938 1113.59 420.482 1114.72 419.571C1115.85 418.66 1116.69 417.447 1117.23 415.933C1117.78 414.419 1118.06 412.751 1118.06 410.929C1118.06 409.119 1117.78 407.457 1117.23 405.943C1116.69 404.417 1115.85 403.192 1114.72 402.268C1113.59 401.345 1112.16 400.884 1110.44 400.884C1108.7 400.884 1107.26 401.345 1106.11 402.268C1104.98 403.192 1104.14 404.417 1103.58 405.943C1103.04 407.457 1102.77 409.119 1102.77 410.929C1102.77 412.751 1103.04 414.419 1103.58 415.933C1104.14 417.447 1104.98 418.66 1106.11 419.571C1107.26 420.482 1108.7 420.938 1110.44 420.938ZM1135.32 408.159V425H1129.8V396.636H1135.1V401.253H1135.45C1136.1 399.751 1137.13 398.545 1138.52 397.634C1139.92 396.723 1141.69 396.267 1143.82 396.267C1145.75 396.267 1147.44 396.673 1148.9 397.486C1150.35 398.286 1151.47 399.48 1152.27 401.068C1153.07 402.656 1153.47 404.62 1153.47 406.959V425H1147.95V407.624C1147.95 405.568 1147.42 403.961 1146.35 402.804C1145.28 401.634 1143.8 401.05 1141.93 401.05C1140.65 401.05 1139.51 401.327 1138.52 401.881C1137.53 402.435 1136.75 403.247 1136.17 404.318C1135.61 405.377 1135.32 406.657 1135.32 408.159Z" fill="#F1760D"/>
</svg>
