<svg width="1609" height="814" viewBox="0 0 1609 814" fill="none" xmlns="http://www.w3.org/2000/svg" style="background-color: #3c3c3c;">
<rect width="1609" height="814" fill="#3C3C3C"/>
<path d="M790.26 425.351C789.25 425.351 788.382 424.994 787.656 424.28C786.93 423.554 786.566 422.679 786.566 421.658C786.566 420.648 786.93 419.786 787.656 419.072C788.382 418.346 789.25 417.983 790.26 417.983C791.269 417.983 792.137 418.346 792.863 419.072C793.59 419.786 793.953 420.648 793.953 421.658C793.953 422.335 793.78 422.956 793.436 423.523C793.103 424.077 792.66 424.52 792.106 424.852C791.552 425.185 790.937 425.351 790.26 425.351ZM804.986 425.351C803.977 425.351 803.109 424.994 802.382 424.28C801.656 423.554 801.293 422.679 801.293 421.658C801.293 420.648 801.656 419.786 802.382 419.072C803.109 418.346 803.977 417.983 804.986 417.983C805.996 417.983 806.864 418.346 807.59 419.072C808.316 419.786 808.679 420.648 808.679 421.658C808.679 422.335 808.507 422.956 808.162 423.523C807.83 424.077 807.387 424.52 806.833 424.852C806.279 425.185 805.663 425.351 804.986 425.351ZM819.713 425.351C818.703 425.351 817.835 424.994 817.109 424.28C816.383 423.554 816.02 422.679 816.02 421.658C816.02 420.648 816.383 419.786 817.109 419.072C817.835 418.346 818.703 417.983 819.713 417.983C820.722 417.983 821.59 418.346 822.316 419.072C823.043 419.786 823.406 420.648 823.406 421.658C823.406 422.335 823.234 422.956 822.889 423.523C822.556 424.077 822.113 424.52 821.559 424.852C821.005 425.185 820.39 425.351 819.713 425.351Z" fill="#F1760D"/>
</svg>
