<svg width="1609" height="814" viewBox="0 0 1609 814" fill="none" xmlns="http://www.w3.org/2000/svg" style="background-color: #3c3c3c;">
<rect width="1609" height="814" fill="#3C3C3C"/>
<path d="M312.167 407V369.182H326.016C328.7 369.182 330.922 369.625 332.682 370.511C334.443 371.385 335.76 372.573 336.634 374.075C337.508 375.565 337.945 377.245 337.945 379.116C337.945 380.692 337.656 382.022 337.077 383.105C336.498 384.176 335.723 385.038 334.75 385.69C333.79 386.33 332.731 386.798 331.574 387.094V387.463C332.83 387.525 334.055 387.931 335.249 388.682C336.455 389.42 337.453 390.473 338.24 391.839C339.028 393.206 339.422 394.868 339.422 396.825C339.422 398.758 338.967 400.494 338.056 402.033C337.157 403.559 335.766 404.772 333.882 405.67C331.999 406.557 329.592 407 326.662 407H312.167ZM317.873 402.107H326.108C328.841 402.107 330.799 401.577 331.98 400.518C333.162 399.46 333.753 398.136 333.753 396.548C333.753 395.354 333.452 394.259 332.848 393.261C332.245 392.264 331.383 391.47 330.263 390.879C329.155 390.288 327.838 389.993 326.311 389.993H317.873V402.107ZM317.873 385.543H325.517C326.798 385.543 327.949 385.296 328.971 384.804C330.005 384.312 330.823 383.622 331.426 382.736C332.042 381.837 332.35 380.778 332.35 379.56C332.35 377.996 331.802 376.685 330.706 375.626C329.611 374.568 327.93 374.038 325.665 374.038H317.873V385.543ZM363.714 395.237V378.636H369.254V407H363.825V402.088H363.529C362.877 403.602 361.831 404.864 360.39 405.874C358.962 406.871 357.183 407.369 355.054 407.369C353.232 407.369 351.619 406.969 350.216 406.169C348.824 405.357 347.729 404.156 346.929 402.568C346.141 400.98 345.747 399.017 345.747 396.678V378.636H351.268V396.013C351.268 397.946 351.804 399.484 352.875 400.629C353.946 401.774 355.337 402.347 357.048 402.347C358.082 402.347 359.11 402.088 360.132 401.571C361.166 401.054 362.021 400.272 362.699 399.226C363.388 398.179 363.726 396.85 363.714 395.237ZM389.913 378.636V383.068H374.42V378.636H389.913ZM378.575 371.841H384.096V398.672C384.096 399.743 384.256 400.549 384.576 401.091C384.896 401.62 385.308 401.983 385.813 402.18C386.33 402.365 386.89 402.457 387.494 402.457C387.937 402.457 388.325 402.427 388.657 402.365C388.989 402.304 389.248 402.254 389.433 402.217L390.43 406.778C390.11 406.902 389.654 407.025 389.063 407.148C388.472 407.283 387.734 407.357 386.847 407.369C385.395 407.394 384.04 407.135 382.785 406.594C381.529 406.052 380.513 405.215 379.738 404.082C378.962 402.95 378.575 401.528 378.575 399.817V371.841ZM415.931 407L407.585 378.636H413.29L418.849 399.466H419.126L424.702 378.636H430.408L435.948 399.374H436.225L441.746 378.636H447.452L439.124 407H433.492L427.731 386.521H427.306L421.545 407H415.931ZM458.213 390.159V407H452.692V369.182H458.14V383.253H458.49C459.155 381.726 460.171 380.514 461.537 379.615C462.904 378.716 464.689 378.267 466.892 378.267C468.837 378.267 470.536 378.667 471.989 379.467C473.454 380.268 474.587 381.462 475.387 383.05C476.199 384.625 476.605 386.595 476.605 388.959V407H471.084V389.624C471.084 387.543 470.549 385.93 469.478 384.786C468.407 383.628 466.917 383.05 465.009 383.05C463.704 383.05 462.534 383.327 461.5 383.881C460.479 384.435 459.672 385.247 459.081 386.318C458.503 387.377 458.213 388.657 458.213 390.159ZM496.198 407.572C493.403 407.572 490.997 406.975 488.978 405.781C486.971 404.575 485.42 402.882 484.324 400.703C483.241 398.512 482.699 395.945 482.699 393.003C482.699 390.098 483.241 387.537 484.324 385.321C485.42 383.105 486.946 381.375 488.904 380.132C490.873 378.889 493.176 378.267 495.81 378.267C497.41 378.267 498.962 378.532 500.463 379.061C501.965 379.59 503.313 380.421 504.507 381.554C505.702 382.687 506.643 384.158 507.333 385.967C508.022 387.765 508.367 389.95 508.367 392.523V394.48H485.82V390.344H502.956C502.956 388.891 502.661 387.605 502.07 386.484C501.479 385.352 500.648 384.459 499.577 383.807C498.518 383.154 497.275 382.828 495.847 382.828C494.296 382.828 492.942 383.21 491.784 383.973C490.64 384.724 489.753 385.709 489.125 386.928C488.51 388.134 488.202 389.445 488.202 390.861V394.092C488.202 395.988 488.534 397.601 489.199 398.93C489.876 400.26 490.818 401.276 492.025 401.977C493.231 402.667 494.641 403.011 496.253 403.011C497.3 403.011 498.254 402.864 499.115 402.568C499.977 402.26 500.722 401.805 501.35 401.202C501.978 400.598 502.458 399.854 502.79 398.967L508.016 399.909C507.597 401.448 506.846 402.796 505.763 403.953C504.692 405.098 503.344 405.991 501.719 406.631C500.106 407.259 498.266 407.572 496.198 407.572ZM514.493 407V378.636H519.83V383.142H520.125C520.642 381.616 521.553 380.415 522.858 379.541C524.175 378.655 525.665 378.212 527.327 378.212C527.671 378.212 528.078 378.224 528.545 378.249C529.026 378.273 529.401 378.304 529.672 378.341V383.622C529.45 383.561 529.056 383.493 528.49 383.419C527.924 383.333 527.357 383.29 526.791 383.29C525.486 383.29 524.323 383.567 523.301 384.121C522.292 384.662 521.491 385.42 520.901 386.392C520.31 387.352 520.014 388.448 520.014 389.679V407H514.493ZM545.659 407.572C542.864 407.572 540.458 406.975 538.439 405.781C536.432 404.575 534.881 402.882 533.785 400.703C532.702 398.512 532.16 395.945 532.16 393.003C532.16 390.098 532.702 387.537 533.785 385.321C534.881 383.105 536.407 381.375 538.365 380.132C540.334 378.889 542.636 378.267 545.271 378.267C546.871 378.267 548.422 378.532 549.924 379.061C551.426 379.59 552.774 380.421 553.968 381.554C555.163 382.687 556.104 384.158 556.794 385.967C557.483 387.765 557.828 389.95 557.828 392.523V394.48H535.281V390.344H552.417C552.417 388.891 552.122 387.605 551.531 386.484C550.94 385.352 550.109 384.459 549.038 383.807C547.979 383.154 546.736 382.828 545.308 382.828C543.757 382.828 542.403 383.21 541.245 383.973C540.1 384.724 539.214 385.709 538.586 386.928C537.971 388.134 537.663 389.445 537.663 390.861V394.092C537.663 395.988 537.995 397.601 538.66 398.93C539.337 400.26 540.279 401.276 541.485 401.977C542.692 402.667 544.101 403.011 545.714 403.011C546.761 403.011 547.715 402.864 548.576 402.568C549.438 402.26 550.183 401.805 550.811 401.202C551.439 400.598 551.919 399.854 552.251 398.967L557.477 399.909C557.058 401.448 556.307 402.796 555.224 403.953C554.153 405.098 552.805 405.991 551.18 406.631C549.567 407.259 547.727 407.572 545.659 407.572ZM588.333 407.554C586.044 407.554 584 406.969 582.203 405.8C580.418 404.618 579.014 402.937 577.993 400.759C576.983 398.567 576.478 395.939 576.478 392.874C576.478 389.808 576.989 387.186 578.011 385.007C579.045 382.828 580.461 381.16 582.258 380.003C584.056 378.846 586.093 378.267 588.37 378.267C590.131 378.267 591.547 378.562 592.618 379.153C593.701 379.732 594.538 380.409 595.129 381.185C595.732 381.96 596.2 382.643 596.532 383.234H596.865V369.182H602.386V407H596.994V402.587H596.532C596.2 403.19 595.72 403.879 595.092 404.655C594.476 405.43 593.627 406.107 592.544 406.686C591.46 407.265 590.057 407.554 588.333 407.554ZM589.552 402.845C591.14 402.845 592.482 402.427 593.578 401.589C594.686 400.74 595.523 399.564 596.089 398.062C596.668 396.561 596.957 394.812 596.957 392.818C596.957 390.848 596.674 389.125 596.108 387.648C595.541 386.17 594.71 385.019 593.615 384.195C592.519 383.37 591.165 382.957 589.552 382.957C587.89 382.957 586.505 383.388 585.397 384.25C584.289 385.112 583.452 386.287 582.886 387.777C582.332 389.267 582.055 390.947 582.055 392.818C582.055 394.714 582.338 396.419 582.904 397.933C583.471 399.447 584.308 400.648 585.416 401.534C586.536 402.408 587.915 402.845 589.552 402.845ZM610.266 407V378.636H615.788V407H610.266ZM613.055 374.26C612.094 374.26 611.27 373.94 610.58 373.3C609.903 372.647 609.565 371.872 609.565 370.973C609.565 370.062 609.903 369.286 610.58 368.646C611.27 367.994 612.094 367.668 613.055 367.668C614.015 367.668 614.834 367.994 615.511 368.646C616.2 369.286 616.545 370.062 616.545 370.973C616.545 371.872 616.2 372.647 615.511 373.3C614.834 373.94 614.015 374.26 613.055 374.26ZM633.833 407.554C631.544 407.554 629.5 406.969 627.703 405.8C625.918 404.618 624.514 402.937 623.493 400.759C622.483 398.567 621.978 395.939 621.978 392.874C621.978 389.808 622.489 387.186 623.511 385.007C624.545 382.828 625.961 381.16 627.758 380.003C629.556 378.846 631.593 378.267 633.87 378.267C635.631 378.267 637.047 378.562 638.118 379.153C639.201 379.732 640.038 380.409 640.629 381.185C641.232 381.96 641.7 382.643 642.032 383.234H642.365V369.182H647.886V407H642.494V402.587H642.032C641.7 403.19 641.22 403.879 640.592 404.655C639.976 405.43 639.127 406.107 638.044 406.686C636.96 407.265 635.557 407.554 633.833 407.554ZM635.052 402.845C636.64 402.845 637.982 402.427 639.078 401.589C640.186 400.74 641.023 399.564 641.589 398.062C642.168 396.561 642.457 394.812 642.457 392.818C642.457 390.848 642.174 389.125 641.608 387.648C641.041 386.17 640.21 385.019 639.115 384.195C638.019 383.37 636.665 382.957 635.052 382.957C633.39 382.957 632.005 383.388 630.897 384.25C629.789 385.112 628.952 386.287 628.386 387.777C627.832 389.267 627.555 390.947 627.555 392.818C627.555 394.714 627.838 396.419 628.404 397.933C628.971 399.447 629.808 400.648 630.916 401.534C632.036 402.408 633.415 402.845 635.052 402.845ZM682.768 378.636V383.068H667.275V378.636H682.768ZM671.43 371.841H676.951V398.672C676.951 399.743 677.111 400.549 677.431 401.091C677.752 401.62 678.164 401.983 678.669 402.18C679.186 402.365 679.746 402.457 680.349 402.457C680.792 402.457 681.18 402.427 681.512 402.365C681.845 402.304 682.103 402.254 682.288 402.217L683.285 406.778C682.965 406.902 682.51 407.025 681.919 407.148C681.328 407.283 680.589 407.357 679.703 407.369C678.25 407.394 676.896 407.135 675.64 406.594C674.385 406.052 673.369 405.215 672.593 404.082C671.818 402.95 671.43 401.528 671.43 399.817V371.841ZM695.006 390.159V407H689.485V369.182H694.933V383.253H695.283C695.948 381.726 696.964 380.514 698.33 379.615C699.697 378.716 701.482 378.267 703.685 378.267C705.63 378.267 707.329 378.667 708.782 379.467C710.247 380.268 711.379 381.462 712.18 383.05C712.992 384.625 713.398 386.595 713.398 388.959V407H707.877V389.624C707.877 387.543 707.342 385.93 706.271 384.786C705.2 383.628 703.71 383.05 701.802 383.05C700.497 383.05 699.327 383.327 698.293 383.881C697.272 384.435 696.465 385.247 695.874 386.318C695.296 387.377 695.006 388.657 695.006 390.159ZM732.991 407.572C730.196 407.572 727.79 406.975 725.771 405.781C723.764 404.575 722.213 402.882 721.117 400.703C720.034 398.512 719.492 395.945 719.492 393.003C719.492 390.098 720.034 387.537 721.117 385.321C722.213 383.105 723.739 381.375 725.697 380.132C727.666 378.889 729.969 378.267 732.603 378.267C734.203 378.267 735.754 378.532 737.256 379.061C738.758 379.59 740.106 380.421 741.3 381.554C742.495 382.687 743.436 384.158 744.126 385.967C744.815 387.765 745.16 389.95 745.16 392.523V394.48H722.613V390.344H739.749C739.749 388.891 739.454 387.605 738.863 386.484C738.272 385.352 737.441 384.459 736.37 383.807C735.311 383.154 734.068 382.828 732.64 382.828C731.089 382.828 729.735 383.21 728.577 383.973C727.433 384.724 726.546 385.709 725.918 386.928C725.303 388.134 724.995 389.445 724.995 390.861V394.092C724.995 395.988 725.327 397.601 725.992 398.93C726.669 400.26 727.611 401.276 728.817 401.977C730.024 402.667 731.433 403.011 733.046 403.011C734.093 403.011 735.047 402.864 735.908 402.568C736.77 402.26 737.515 401.805 738.143 401.202C738.771 400.598 739.251 399.854 739.583 398.967L744.809 399.909C744.39 401.448 743.639 402.796 742.556 403.953C741.485 405.098 740.137 405.991 738.512 406.631C736.899 407.259 735.059 407.572 732.991 407.572ZM772.54 385.561L767.536 386.447C767.327 385.807 766.994 385.198 766.539 384.619C766.096 384.041 765.492 383.567 764.729 383.197C763.966 382.828 763.012 382.643 761.867 382.643C760.303 382.643 758.998 382.994 757.952 383.696C756.906 384.385 756.382 385.278 756.382 386.374C756.382 387.321 756.733 388.085 757.435 388.663C758.137 389.242 759.269 389.716 760.833 390.085L765.338 391.119C767.948 391.723 769.893 392.652 771.174 393.908C772.454 395.163 773.094 396.795 773.094 398.801C773.094 400.5 772.602 402.014 771.617 403.344C770.644 404.661 769.284 405.695 767.536 406.446C765.8 407.197 763.787 407.572 761.498 407.572C758.321 407.572 755.73 406.895 753.723 405.541C751.717 404.175 750.486 402.236 750.03 399.724L755.367 398.912C755.699 400.303 756.382 401.356 757.417 402.07C758.451 402.771 759.799 403.122 761.461 403.122C763.27 403.122 764.717 402.747 765.8 401.996C766.883 401.232 767.425 400.303 767.425 399.207C767.425 398.321 767.093 397.576 766.428 396.973C765.775 396.37 764.772 395.914 763.418 395.607L758.617 394.554C755.97 393.951 754.013 392.991 752.745 391.673C751.489 390.356 750.861 388.688 750.861 386.669C750.861 384.995 751.329 383.53 752.265 382.274C753.2 381.018 754.493 380.04 756.142 379.338C757.792 378.624 759.682 378.267 761.811 378.267C764.877 378.267 767.29 378.932 769.05 380.261C770.81 381.579 771.974 383.345 772.54 385.561ZM791.389 407.572C788.595 407.572 786.188 406.975 784.169 405.781C782.162 404.575 780.611 402.882 779.516 400.703C778.432 398.512 777.891 395.945 777.891 393.003C777.891 390.098 778.432 387.537 779.516 385.321C780.611 383.105 782.138 381.375 784.095 380.132C786.065 378.889 788.367 378.267 791.001 378.267C792.602 378.267 794.153 378.532 795.655 379.061C797.157 379.59 798.505 380.421 799.699 381.554C800.893 382.687 801.835 384.158 802.524 385.967C803.214 387.765 803.558 389.95 803.558 392.523V394.48H781.011V390.344H798.148C798.148 388.891 797.852 387.605 797.261 386.484C796.67 385.352 795.839 384.459 794.768 383.807C793.71 383.154 792.466 382.828 791.038 382.828C789.487 382.828 788.133 383.21 786.976 383.973C785.831 384.724 784.945 385.709 784.317 386.928C783.701 388.134 783.393 389.445 783.393 390.861V394.092C783.393 395.988 783.726 397.601 784.391 398.93C785.068 400.26 786.009 401.276 787.216 401.977C788.422 402.667 789.832 403.011 791.445 403.011C792.491 403.011 793.445 402.864 794.307 402.568C795.169 402.26 795.913 401.805 796.541 401.202C797.169 400.598 797.649 399.854 797.982 398.967L803.207 399.909C802.789 401.448 802.038 402.796 800.955 403.953C799.884 405.098 798.536 405.991 796.911 406.631C795.298 407.259 793.457 407.572 791.389 407.572ZM848.209 369.182H853.933V394.055C853.933 396.702 853.312 399.047 852.068 401.091C850.825 403.122 849.077 404.723 846.824 405.892C844.571 407.049 841.93 407.628 838.902 407.628C835.886 407.628 833.251 407.049 830.999 405.892C828.746 404.723 826.998 403.122 825.754 401.091C824.511 399.047 823.889 396.702 823.889 394.055V369.182H829.595V393.594C829.595 395.305 829.971 396.825 830.722 398.155C831.485 399.484 832.562 400.531 833.953 401.294C835.344 402.045 836.994 402.42 838.902 402.42C840.822 402.42 842.478 402.045 843.869 401.294C845.273 400.531 846.344 399.484 847.082 398.155C847.833 396.825 848.209 395.305 848.209 393.594V369.182ZM860.364 374.094V369.182H889.632V374.094H877.833V407H872.145V374.094H860.364ZM900.07 369.182L909.119 383.973H909.414L918.462 369.182H925.073L913.292 388.091L925.147 407H918.499L909.414 392.412H909.119L900.033 407H893.386L905.444 388.091L893.46 369.182H900.07ZM962.568 388.091C962.568 392.129 961.83 395.6 960.352 398.506C958.875 401.399 956.85 403.627 954.277 405.19C951.716 406.741 948.805 407.517 945.543 407.517C942.268 407.517 939.344 406.741 936.771 405.19C934.211 403.627 932.192 401.393 930.714 398.487C929.237 395.582 928.499 392.116 928.499 388.091C928.499 384.053 929.237 380.588 930.714 377.695C932.192 374.789 934.211 372.561 936.771 371.01C939.344 369.446 942.268 368.665 945.543 368.665C948.805 368.665 951.716 369.446 954.277 371.01C956.85 372.561 958.875 374.789 960.352 377.695C961.83 380.588 962.568 384.053 962.568 388.091ZM956.918 388.091C956.918 385.013 956.419 382.422 955.422 380.317C954.437 378.199 953.083 376.599 951.359 375.516C949.648 374.42 947.709 373.872 945.543 373.872C943.364 373.872 941.419 374.42 939.707 375.516C937.996 376.599 936.642 378.199 935.645 380.317C934.66 382.422 934.168 385.013 934.168 388.091C934.168 391.169 934.66 393.766 935.645 395.884C936.642 397.989 937.996 399.589 939.707 400.685C941.419 401.768 943.364 402.31 945.543 402.31C947.709 402.31 949.648 401.768 951.359 400.685C953.083 399.589 954.437 397.989 955.422 395.884C956.419 393.766 956.918 391.169 956.918 388.091ZM990.493 385.561L985.489 386.447C985.28 385.807 984.947 385.198 984.492 384.619C984.049 384.041 983.445 383.567 982.682 383.197C981.919 382.828 980.965 382.643 979.82 382.643C978.257 382.643 976.952 382.994 975.905 383.696C974.859 384.385 974.336 385.278 974.336 386.374C974.336 387.321 974.686 388.085 975.388 388.663C976.09 389.242 977.222 389.716 978.786 390.085L983.292 391.119C985.901 391.723 987.846 392.652 989.127 393.908C990.407 395.163 991.047 396.795 991.047 398.801C991.047 400.5 990.555 402.014 989.57 403.344C988.597 404.661 987.237 405.695 985.489 406.446C983.753 407.197 981.74 407.572 979.451 407.572C976.275 407.572 973.683 406.895 971.676 405.541C969.67 404.175 968.439 402.236 967.983 399.724L973.32 398.912C973.652 400.303 974.336 401.356 975.37 402.07C976.404 402.771 977.752 403.122 979.414 403.122C981.223 403.122 982.67 402.747 983.753 401.996C984.837 401.232 985.378 400.303 985.378 399.207C985.378 398.321 985.046 397.576 984.381 396.973C983.729 396.37 982.725 395.914 981.371 395.607L976.57 394.554C973.923 393.951 971.966 392.991 970.698 391.673C969.442 390.356 968.814 388.688 968.814 386.669C968.814 384.995 969.282 383.53 970.218 382.274C971.153 381.018 972.446 380.04 974.096 379.338C975.745 378.624 977.635 378.267 979.765 378.267C982.83 378.267 985.243 378.932 987.003 380.261C988.764 381.579 989.927 383.345 990.493 385.561ZM1022.83 407.572C1020.08 407.572 1017.72 406.951 1015.74 405.707C1013.77 404.452 1012.25 402.722 1011.19 400.518C1010.13 398.315 1009.61 395.791 1009.61 392.947C1009.61 390.067 1010.15 387.525 1011.23 385.321C1012.31 383.105 1013.84 381.375 1015.81 380.132C1017.78 378.889 1020.1 378.267 1022.77 378.267C1024.93 378.267 1026.85 378.667 1028.53 379.467C1030.22 380.255 1031.58 381.363 1032.61 382.791C1033.66 384.219 1034.28 385.887 1034.48 387.795H1029.11C1028.81 386.466 1028.13 385.321 1027.07 384.361C1026.03 383.401 1024.62 382.92 1022.86 382.92C1021.33 382.92 1019.98 383.327 1018.82 384.139C1017.68 384.939 1016.78 386.084 1016.14 387.574C1015.5 389.051 1015.18 390.799 1015.18 392.818C1015.18 394.886 1015.5 396.671 1016.12 398.173C1016.75 399.675 1017.64 400.839 1018.78 401.663C1019.94 402.488 1021.3 402.901 1022.86 402.901C1023.91 402.901 1024.86 402.71 1025.71 402.328C1026.57 401.934 1027.29 401.374 1027.87 400.648C1028.46 399.921 1028.87 399.047 1029.11 398.026H1034.48C1034.28 399.86 1033.69 401.497 1032.69 402.938C1031.69 404.378 1030.35 405.51 1028.68 406.335C1027.02 407.16 1025.07 407.572 1022.83 407.572ZM1052.33 407.572C1049.67 407.572 1047.35 406.963 1045.37 405.744C1043.39 404.526 1041.85 402.821 1040.75 400.629C1039.66 398.438 1039.11 395.877 1039.11 392.947C1039.11 390.005 1039.66 387.432 1040.75 385.229C1041.85 383.025 1043.39 381.314 1045.37 380.095C1047.35 378.876 1049.67 378.267 1052.33 378.267C1054.99 378.267 1057.31 378.876 1059.29 380.095C1061.27 381.314 1062.81 383.025 1063.91 385.229C1065 387.432 1065.55 390.005 1065.55 392.947C1065.55 395.877 1065 398.438 1063.91 400.629C1062.81 402.821 1061.27 404.526 1059.29 405.744C1057.31 406.963 1054.99 407.572 1052.33 407.572ZM1052.35 402.938C1054.07 402.938 1055.5 402.482 1056.63 401.571C1057.77 400.66 1058.6 399.447 1059.14 397.933C1059.7 396.419 1059.98 394.751 1059.98 392.929C1059.98 391.119 1059.7 389.457 1059.14 387.943C1058.6 386.417 1057.77 385.192 1056.63 384.268C1055.5 383.345 1054.07 382.884 1052.35 382.884C1050.61 382.884 1049.17 383.345 1048.03 384.268C1046.9 385.192 1046.05 386.417 1045.5 387.943C1044.96 389.457 1044.69 391.119 1044.69 392.929C1044.69 394.751 1044.96 396.419 1045.5 397.933C1046.05 399.447 1046.9 400.66 1048.03 401.571C1049.17 402.482 1050.61 402.938 1052.35 402.938ZM1071.72 407V378.636H1077.02V383.253H1077.37C1077.96 381.689 1078.92 380.471 1080.27 379.597C1081.61 378.71 1083.21 378.267 1085.08 378.267C1086.98 378.267 1088.57 378.71 1089.85 379.597C1091.14 380.483 1092.1 381.702 1092.71 383.253H1093.01C1093.68 381.739 1094.76 380.532 1096.24 379.634C1097.72 378.723 1099.48 378.267 1101.52 378.267C1104.09 378.267 1106.19 379.073 1107.82 380.686C1109.45 382.299 1110.27 384.73 1110.27 387.98V407H1104.75V388.497C1104.75 386.577 1104.23 385.186 1103.18 384.324C1102.14 383.462 1100.89 383.031 1099.43 383.031C1097.64 383.031 1096.24 383.585 1095.24 384.693C1094.24 385.789 1093.75 387.198 1093.75 388.922V407H1088.24V388.146C1088.24 386.607 1087.76 385.37 1086.8 384.435C1085.84 383.499 1084.59 383.031 1083.05 383.031C1082.01 383.031 1081.04 383.308 1080.15 383.862C1079.28 384.404 1078.57 385.161 1078.03 386.134C1077.5 387.106 1077.24 388.232 1077.24 389.513V407H1071.72ZM1129.9 407.572C1127.1 407.572 1124.7 406.975 1122.68 405.781C1120.67 404.575 1119.12 402.882 1118.02 400.703C1116.94 398.512 1116.4 395.945 1116.4 393.003C1116.4 390.098 1116.94 387.537 1118.02 385.321C1119.12 383.105 1120.65 381.375 1122.6 380.132C1124.57 378.889 1126.87 378.267 1129.51 378.267C1131.11 378.267 1132.66 378.532 1134.16 379.061C1135.66 379.59 1137.01 380.421 1138.21 381.554C1139.4 382.687 1140.34 384.158 1141.03 385.967C1141.72 387.765 1142.07 389.95 1142.07 392.523V394.48H1119.52V390.344H1136.66C1136.66 388.891 1136.36 387.605 1135.77 386.484C1135.18 385.352 1134.35 384.459 1133.28 383.807C1132.22 383.154 1130.97 382.828 1129.55 382.828C1128 382.828 1126.64 383.21 1125.48 383.973C1124.34 384.724 1123.45 385.709 1122.82 386.928C1122.21 388.134 1121.9 389.445 1121.9 390.861V394.092C1121.9 395.988 1122.23 397.601 1122.9 398.93C1123.58 400.26 1124.52 401.276 1125.72 401.977C1126.93 402.667 1128.34 403.011 1129.95 403.011C1131 403.011 1131.95 402.864 1132.81 402.568C1133.68 402.26 1134.42 401.805 1135.05 401.202C1135.68 400.598 1136.16 399.854 1136.49 398.967L1141.72 399.909C1141.3 401.448 1140.55 402.796 1139.46 403.953C1138.39 405.098 1137.04 405.991 1135.42 406.631C1133.81 407.259 1131.97 407.572 1129.9 407.572ZM1175.45 378.636V383.068H1159.42V378.636H1175.45ZM1163.82 407V375.349C1163.82 373.577 1164.21 372.106 1164.98 370.936C1165.76 369.754 1166.79 368.874 1168.07 368.295C1169.35 367.705 1170.74 367.409 1172.24 367.409C1173.35 367.409 1174.3 367.501 1175.08 367.686C1175.87 367.858 1176.46 368.018 1176.84 368.166L1175.54 372.635C1175.29 372.561 1174.95 372.475 1174.55 372.376C1174.14 372.266 1173.65 372.21 1173.07 372.21C1171.73 372.21 1170.77 372.543 1170.19 373.207C1169.62 373.872 1169.34 374.832 1169.34 376.088V407H1163.82ZM1181.15 407V378.636H1186.49V383.142H1186.78C1187.3 381.616 1188.21 380.415 1189.51 379.541C1190.83 378.655 1192.32 378.212 1193.98 378.212C1194.33 378.212 1194.73 378.224 1195.2 378.249C1195.68 378.273 1196.06 378.304 1196.33 378.341V383.622C1196.11 383.561 1195.71 383.493 1195.15 383.419C1194.58 383.333 1194.01 383.29 1193.45 383.29C1192.14 383.29 1190.98 383.567 1189.96 384.121C1188.95 384.662 1188.15 385.42 1187.56 386.392C1186.97 387.352 1186.67 388.448 1186.67 389.679V407H1181.15ZM1212.04 407.572C1209.38 407.572 1207.06 406.963 1205.08 405.744C1203.09 404.526 1201.56 402.821 1200.46 400.629C1199.36 398.438 1198.82 395.877 1198.82 392.947C1198.82 390.005 1199.36 387.432 1200.46 385.229C1201.56 383.025 1203.09 381.314 1205.08 380.095C1207.06 378.876 1209.38 378.267 1212.04 378.267C1214.7 378.267 1217.02 378.876 1219 380.095C1220.98 381.314 1222.52 383.025 1223.62 385.229C1224.71 387.432 1225.26 390.005 1225.26 392.947C1225.26 395.877 1224.71 398.438 1223.62 400.629C1222.52 402.821 1220.98 404.526 1219 405.744C1217.02 406.963 1214.7 407.572 1212.04 407.572ZM1212.06 402.938C1213.78 402.938 1215.21 402.482 1216.34 401.571C1217.47 400.66 1218.31 399.447 1218.85 397.933C1219.41 396.419 1219.68 394.751 1219.68 392.929C1219.68 391.119 1219.41 389.457 1218.85 387.943C1218.31 386.417 1217.47 385.192 1216.34 384.268C1215.21 383.345 1213.78 382.884 1212.06 382.884C1210.32 382.884 1208.88 383.345 1207.74 384.268C1206.6 385.192 1205.76 386.417 1205.21 387.943C1204.66 389.457 1204.39 391.119 1204.39 392.929C1204.39 394.751 1204.66 396.419 1205.21 397.933C1205.76 399.447 1206.6 400.66 1207.74 401.571C1208.88 402.482 1210.32 402.938 1212.06 402.938ZM1231.42 407V378.636H1236.72V383.253H1237.07C1237.66 381.689 1238.63 380.471 1239.97 379.597C1241.31 378.71 1242.92 378.267 1244.79 378.267C1246.69 378.267 1248.28 378.71 1249.56 379.597C1250.85 380.483 1251.8 381.702 1252.42 383.253H1252.71C1253.39 381.739 1254.47 380.532 1255.95 379.634C1257.42 378.723 1259.18 378.267 1261.23 378.267C1263.8 378.267 1265.9 379.073 1267.52 380.686C1269.16 382.299 1269.98 384.73 1269.98 387.98V407H1264.46V388.497C1264.46 386.577 1263.93 385.186 1262.89 384.324C1261.84 383.462 1260.59 383.031 1259.14 383.031C1257.34 383.031 1255.95 383.585 1254.95 384.693C1253.95 385.789 1253.45 387.198 1253.45 388.922V407H1247.95V388.146C1247.95 386.607 1247.47 385.37 1246.51 384.435C1245.55 383.499 1244.3 383.031 1242.76 383.031C1241.71 383.031 1240.75 383.308 1239.86 383.862C1238.99 384.404 1238.28 385.161 1237.74 386.134C1237.21 387.106 1236.94 388.232 1236.94 389.513V407H1231.42ZM1283.42 396.124V395.773C1283.44 393.483 1283.67 391.661 1284.1 390.307C1284.54 388.953 1285.17 387.857 1285.98 387.02C1286.8 386.183 1287.78 385.42 1288.92 384.73C1289.66 384.262 1290.32 383.739 1290.92 383.161C1291.51 382.582 1291.97 381.917 1292.32 381.166C1292.66 380.415 1292.84 379.584 1292.84 378.673C1292.84 377.578 1292.58 376.63 1292.06 375.83C1291.54 375.029 1290.85 374.414 1289.99 373.983C1289.14 373.54 1288.19 373.318 1287.15 373.318C1286.2 373.318 1285.3 373.515 1284.43 373.909C1283.57 374.303 1282.86 374.919 1282.29 375.756C1281.73 376.58 1281.4 377.645 1281.31 378.95H1275.7C1275.79 376.734 1276.35 374.863 1277.38 373.337C1278.41 371.798 1279.78 370.634 1281.48 369.847C1283.19 369.059 1285.08 368.665 1287.15 368.665C1289.41 368.665 1291.4 369.089 1293.09 369.939C1294.79 370.776 1296.11 371.952 1297.05 373.466C1297.99 374.968 1298.47 376.722 1298.47 378.729C1298.47 380.107 1298.25 381.351 1297.82 382.459C1297.39 383.554 1296.77 384.533 1295.97 385.395C1295.19 386.257 1294.24 387.02 1293.13 387.685C1292.08 388.337 1291.24 389.014 1290.58 389.716C1289.94 390.418 1289.47 391.249 1289.18 392.209C1288.88 393.169 1288.72 394.357 1288.7 395.773V396.124H1283.42ZM1286.21 407.351C1285.2 407.351 1284.33 406.994 1283.6 406.28C1282.88 405.554 1282.51 404.679 1282.51 403.658C1282.51 402.648 1282.88 401.786 1283.6 401.072C1284.33 400.346 1285.2 399.983 1286.21 399.983C1287.2 399.983 1288.07 400.346 1288.79 401.072C1289.53 401.786 1289.9 402.648 1289.9 403.658C1289.9 404.335 1289.73 404.956 1289.38 405.523C1289.05 406.077 1288.61 406.52 1288.05 406.852C1287.5 407.185 1286.88 407.351 1286.21 407.351Z" fill="white"/>
</svg>
