<svg width="1609" height="814" viewBox="0 0 1609 814" fill="none" xmlns="http://www.w3.org/2000/svg" style="background-color: #3c3c3c;">
<rect width="1609" height="814" fill="#3C3C3C"/>
<path d="M272.46 79.1818V117H267.216L247.993 89.2642H247.642V117H241.936V79.1818H247.217L266.459 106.955H266.81V79.1818H272.46ZM292.288 117.572C289.629 117.572 287.308 116.963 285.326 115.744C283.344 114.526 281.806 112.821 280.71 110.629C279.614 108.438 279.066 105.877 279.066 102.947C279.066 100.005 279.614 97.4323 280.71 95.2287C281.806 93.0251 283.344 91.3139 285.326 90.0952C287.308 88.8764 289.629 88.267 292.288 88.267C294.947 88.267 297.268 88.8764 299.25 90.0952C301.232 91.3139 302.77 93.0251 303.866 95.2287C304.962 97.4323 305.51 100.005 305.51 102.947C305.51 105.877 304.962 108.438 303.866 110.629C302.77 112.821 301.232 114.526 299.25 115.744C297.268 116.963 294.947 117.572 292.288 117.572ZM292.306 112.938C294.03 112.938 295.458 112.482 296.591 111.571C297.723 110.66 298.56 109.447 299.102 107.933C299.656 106.419 299.933 104.751 299.933 102.929C299.933 101.119 299.656 99.4574 299.102 97.9432C298.56 96.4167 297.723 95.1918 296.591 94.2685C295.458 93.3452 294.03 92.8835 292.306 92.8835C290.571 92.8835 289.13 93.3452 287.985 94.2685C286.853 95.1918 286.01 96.4167 285.456 97.9432C284.914 99.4574 284.643 101.119 284.643 102.929C284.643 104.751 284.914 106.419 285.456 107.933C286.01 109.447 286.853 110.66 287.985 111.571C289.13 112.482 290.571 112.938 292.306 112.938ZM316.958 117L308.612 88.6364H314.318L319.876 109.466H320.153L325.73 88.6364H331.436L336.975 109.374H337.252L342.774 88.6364H348.48L340.152 117H334.52L328.758 96.5213H328.333L322.572 117H316.958ZM373.002 79.1818V117H367.481V79.1818H373.002ZM392.655 117.572C389.86 117.572 387.454 116.975 385.435 115.781C383.428 114.575 381.877 112.882 380.781 110.703C379.698 108.512 379.156 105.945 379.156 103.003C379.156 100.098 379.698 97.5369 380.781 95.321C381.877 93.1051 383.403 91.3755 385.361 90.1321C387.33 88.8887 389.633 88.267 392.267 88.267C393.867 88.267 395.419 88.5317 396.92 89.0611C398.422 89.5904 399.77 90.4214 400.964 91.554C402.159 92.6866 403.1 94.1577 403.79 95.9673C404.479 97.7647 404.824 99.9498 404.824 102.523V104.48H382.277V100.344H399.413C399.413 98.8911 399.118 97.6046 398.527 96.4844C397.936 95.3518 397.105 94.4593 396.034 93.8068C394.975 93.1544 393.732 92.8281 392.304 92.8281C390.753 92.8281 389.399 93.2098 388.241 93.973C387.097 94.724 386.21 95.7088 385.582 96.9276C384.967 98.134 384.659 99.4451 384.659 100.861V104.092C384.659 105.988 384.991 107.601 385.656 108.93C386.333 110.26 387.275 111.276 388.482 111.977C389.688 112.667 391.098 113.011 392.71 113.011C393.757 113.011 394.711 112.864 395.572 112.568C396.434 112.26 397.179 111.805 397.807 111.202C398.435 110.598 398.915 109.854 399.247 108.967L404.473 109.909C404.054 111.448 403.304 112.796 402.22 113.953C401.149 115.098 399.801 115.991 398.176 116.631C396.563 117.259 394.723 117.572 392.655 117.572ZM424.19 88.6364V93.0682H408.697V88.6364H424.19ZM412.852 81.8409H418.373V108.672C418.373 109.743 418.533 110.549 418.853 111.091C419.173 111.62 419.586 111.983 420.091 112.18C420.608 112.365 421.168 112.457 421.771 112.457C422.214 112.457 422.602 112.427 422.934 112.365C423.267 112.304 423.525 112.254 423.71 112.217L424.707 116.778C424.387 116.902 423.931 117.025 423.341 117.148C422.75 117.283 422.011 117.357 421.125 117.369C419.672 117.394 418.318 117.135 417.062 116.594C415.806 116.052 414.791 115.215 414.015 114.082C413.24 112.95 412.852 111.528 412.852 109.817V81.8409ZM436.465 79.1818V82.7273C436.465 83.7737 436.268 84.8755 435.874 86.0327C435.493 87.1776 434.951 88.2794 434.249 89.3381C433.548 90.3968 432.723 91.3078 431.775 92.071L429.042 90.1136C429.768 89.0549 430.396 87.9285 430.925 86.7344C431.467 85.5402 431.738 84.223 431.738 82.7827V79.1818H436.465ZM459.474 95.5611L454.469 96.4474C454.26 95.8073 453.928 95.1979 453.472 94.6193C453.029 94.0407 452.426 93.5668 451.663 93.1974C450.899 92.8281 449.945 92.6435 448.8 92.6435C447.237 92.6435 445.932 92.9943 444.886 93.696C443.839 94.3854 443.316 95.2779 443.316 96.3736C443.316 97.3215 443.667 98.0848 444.369 98.6634C445.07 99.242 446.203 99.7159 447.766 100.085L452.272 101.119C454.882 101.723 456.827 102.652 458.107 103.908C459.388 105.163 460.028 106.795 460.028 108.801C460.028 110.5 459.535 112.014 458.55 113.344C457.578 114.661 456.218 115.695 454.469 116.446C452.734 117.197 450.721 117.572 448.431 117.572C445.255 117.572 442.664 116.895 440.657 115.541C438.65 114.175 437.419 112.236 436.964 109.724L442.3 108.912C442.633 110.303 443.316 111.356 444.35 112.07C445.384 112.771 446.732 113.122 448.394 113.122C450.204 113.122 451.65 112.747 452.734 111.996C453.817 111.232 454.359 110.303 454.359 109.207C454.359 108.321 454.026 107.576 453.362 106.973C452.709 106.37 451.706 105.914 450.352 105.607L445.55 104.554C442.904 103.951 440.946 102.991 439.678 101.673C438.423 100.356 437.795 98.688 437.795 96.669C437.795 94.9948 438.263 93.5298 439.198 92.2741C440.134 91.0185 441.426 90.0398 443.076 89.3381C444.726 88.6241 446.615 88.267 448.745 88.267C451.81 88.267 454.223 88.9318 455.984 90.2614C457.744 91.5786 458.907 93.3452 459.474 95.5611ZM491.808 117.572C489.062 117.572 486.699 116.951 484.717 115.707C482.747 114.452 481.233 112.722 480.174 110.518C479.115 108.315 478.586 105.791 478.586 102.947C478.586 100.067 479.128 97.5246 480.211 95.321C481.294 93.1051 482.821 91.3755 484.79 90.1321C486.76 88.8887 489.081 88.267 491.752 88.267C493.906 88.267 495.827 88.6671 497.513 89.4673C499.2 90.2552 500.56 91.3632 501.594 92.7912C502.641 94.2192 503.263 95.8873 503.46 97.7955H498.086C497.79 96.4659 497.113 95.321 496.055 94.3608C495.008 93.4006 493.605 92.9205 491.844 92.9205C490.306 92.9205 488.958 93.3267 487.8 94.1392C486.656 94.9394 485.763 96.0843 485.123 97.5739C484.483 99.0511 484.163 100.799 484.163 102.818C484.163 104.886 484.477 106.671 485.104 108.173C485.732 109.675 486.619 110.839 487.763 111.663C488.921 112.488 490.281 112.901 491.844 112.901C492.891 112.901 493.839 112.71 494.688 112.328C495.55 111.934 496.27 111.374 496.849 110.648C497.44 109.921 497.852 109.047 498.086 108.026H503.46C503.263 109.86 502.665 111.497 501.668 112.938C500.671 114.378 499.335 115.51 497.661 116.335C495.999 117.16 494.048 117.572 491.808 117.572ZM509.364 117V88.6364H514.701V93.142H514.996C515.513 91.6155 516.424 90.4152 517.729 89.5412C519.046 88.6548 520.536 88.2116 522.198 88.2116C522.542 88.2116 522.949 88.224 523.417 88.2486C523.897 88.2732 524.272 88.304 524.543 88.3409V93.6222C524.321 93.5606 523.927 93.4929 523.361 93.419C522.795 93.3329 522.229 93.2898 521.662 93.2898C520.357 93.2898 519.194 93.5668 518.172 94.1207C517.163 94.6624 516.363 95.4195 515.772 96.392C515.181 97.3523 514.885 98.4479 514.885 99.679V117H509.364ZM540.53 117.572C537.735 117.572 535.329 116.975 533.31 115.781C531.303 114.575 529.752 112.882 528.656 110.703C527.573 108.512 527.031 105.945 527.031 103.003C527.031 100.098 527.573 97.5369 528.656 95.321C529.752 93.1051 531.278 91.3755 533.236 90.1321C535.205 88.8887 537.508 88.267 540.142 88.267C541.742 88.267 543.294 88.5317 544.795 89.0611C546.297 89.5904 547.645 90.4214 548.839 91.554C550.034 92.6866 550.975 94.1577 551.665 95.9673C552.354 97.7647 552.699 99.9498 552.699 102.523V104.48H530.152V100.344H547.288C547.288 98.8911 546.993 97.6046 546.402 96.4844C545.811 95.3518 544.98 94.4593 543.909 93.8068C542.85 93.1544 541.607 92.8281 540.179 92.8281C538.628 92.8281 537.274 93.2098 536.116 93.973C534.972 94.724 534.085 95.7088 533.457 96.9276C532.842 98.134 532.534 99.4451 532.534 100.861V104.092C532.534 105.988 532.866 107.601 533.531 108.93C534.208 110.26 535.15 111.276 536.357 111.977C537.563 112.667 538.973 113.011 540.585 113.011C541.632 113.011 542.586 112.864 543.447 112.568C544.309 112.26 545.054 111.805 545.682 111.202C546.31 110.598 546.79 109.854 547.122 108.967L552.348 109.909C551.929 111.448 551.179 112.796 550.095 113.953C549.024 115.098 547.676 115.991 546.051 116.631C544.438 117.259 542.598 117.572 540.53 117.572ZM567.079 117.628C565.282 117.628 563.657 117.295 562.204 116.631C560.752 115.954 559.6 114.975 558.751 113.695C557.914 112.414 557.495 110.845 557.495 108.986C557.495 107.385 557.803 106.068 558.419 105.034C559.034 104 559.865 103.181 560.912 102.578C561.958 101.975 563.127 101.519 564.42 101.212C565.713 100.904 567.03 100.67 568.372 100.51C570.071 100.313 571.449 100.153 572.508 100.03C573.567 99.8944 574.336 99.679 574.816 99.3835C575.297 99.0881 575.537 98.608 575.537 97.9432V97.8139C575.537 96.2012 575.081 94.9517 574.17 94.0653C573.271 93.179 571.93 92.7358 570.145 92.7358C568.286 92.7358 566.821 93.1482 565.75 93.973C564.691 94.7855 563.958 95.6903 563.552 96.6875L558.363 95.5057C558.979 93.7822 559.877 92.3911 561.059 91.3324C562.253 90.2614 563.626 89.4858 565.177 89.0057C566.728 88.5133 568.359 88.267 570.071 88.267C571.203 88.267 572.404 88.4025 573.672 88.6733C574.952 88.9318 576.146 89.4119 577.254 90.1136C578.374 90.8153 579.291 91.8187 580.005 93.1236C580.719 94.4162 581.076 96.0966 581.076 98.1648V117H575.684V113.122H575.463C575.106 113.836 574.57 114.538 573.856 115.227C573.142 115.917 572.225 116.489 571.105 116.945C569.984 117.4 568.643 117.628 567.079 117.628ZM568.279 113.196C569.806 113.196 571.111 112.894 572.194 112.291C573.29 111.688 574.121 110.9 574.687 109.928C575.266 108.943 575.555 107.89 575.555 106.77V103.114C575.358 103.311 574.976 103.495 574.41 103.668C573.856 103.828 573.222 103.969 572.508 104.092C571.794 104.203 571.099 104.308 570.422 104.406C569.744 104.492 569.178 104.566 568.723 104.628C567.652 104.763 566.673 104.991 565.787 105.311C564.913 105.631 564.211 106.093 563.681 106.696C563.164 107.287 562.906 108.075 562.906 109.06C562.906 110.426 563.411 111.46 564.42 112.162C565.43 112.851 566.716 113.196 568.279 113.196ZM601.67 88.6364V93.0682H586.178V88.6364H601.67ZM590.332 81.8409H595.854V108.672C595.854 109.743 596.014 110.549 596.334 111.091C596.654 111.62 597.066 111.983 597.571 112.18C598.088 112.365 598.648 112.457 599.251 112.457C599.695 112.457 600.082 112.427 600.415 112.365C600.747 112.304 601.006 112.254 601.19 112.217L602.188 116.778C601.867 116.902 601.412 117.025 600.821 117.148C600.23 117.283 599.491 117.357 598.605 117.369C597.152 117.394 595.798 117.135 594.543 116.594C593.287 116.052 592.271 115.215 591.496 114.082C590.72 112.95 590.332 111.528 590.332 109.817V81.8409ZM619.698 117.572C616.903 117.572 614.497 116.975 612.478 115.781C610.471 114.575 608.92 112.882 607.824 110.703C606.741 108.512 606.199 105.945 606.199 103.003C606.199 100.098 606.741 97.5369 607.824 95.321C608.92 93.1051 610.446 91.3755 612.404 90.1321C614.373 88.8887 616.676 88.267 619.31 88.267C620.91 88.267 622.462 88.5317 623.963 89.0611C625.465 89.5904 626.813 90.4214 628.007 91.554C629.202 92.6866 630.143 94.1577 630.833 95.9673C631.522 97.7647 631.867 99.9498 631.867 102.523V104.48H609.32V100.344H626.456C626.456 98.8911 626.161 97.6046 625.57 96.4844C624.979 95.3518 624.148 94.4593 623.077 93.8068C622.018 93.1544 620.775 92.8281 619.347 92.8281C617.796 92.8281 616.442 93.2098 615.284 93.973C614.14 94.724 613.253 95.7088 612.625 96.9276C612.01 98.134 611.702 99.4451 611.702 100.861V104.092C611.702 105.988 612.034 107.601 612.699 108.93C613.376 110.26 614.318 111.276 615.525 111.977C616.731 112.667 618.141 113.011 619.753 113.011C620.8 113.011 621.754 112.864 622.615 112.568C623.477 112.26 624.222 111.805 624.85 111.202C625.478 110.598 625.958 109.854 626.29 108.967L631.516 109.909C631.097 111.448 630.346 112.796 629.263 113.953C628.192 115.098 626.844 115.991 625.219 116.631C623.606 117.259 621.766 117.572 619.698 117.572ZM664.995 88.6364V93.0682H649.502V88.6364H664.995ZM653.657 81.8409H659.178V108.672C659.178 109.743 659.338 110.549 659.658 111.091C659.978 111.62 660.391 111.983 660.895 112.18C661.412 112.365 661.972 112.457 662.576 112.457C663.019 112.457 663.407 112.427 663.739 112.365C664.071 112.304 664.33 112.254 664.515 112.217L665.512 116.778C665.192 116.902 664.736 117.025 664.145 117.148C663.554 117.283 662.816 117.357 661.929 117.369C660.477 117.394 659.123 117.135 657.867 116.594C656.611 116.052 655.596 115.215 654.82 114.082C654.044 112.95 653.657 111.528 653.657 109.817V81.8409ZM677.233 100.159V117H671.712V79.1818H677.159V93.2528H677.51C678.175 91.7263 679.19 90.5137 680.557 89.6151C681.923 88.7164 683.708 88.267 685.912 88.267C687.857 88.267 689.556 88.6671 691.009 89.4673C692.473 90.2675 693.606 91.4616 694.406 93.0497C695.219 94.6255 695.625 96.5952 695.625 98.9588V117H690.104V99.6236C690.104 97.5431 689.568 95.9304 688.497 94.7855C687.426 93.6283 685.937 93.0497 684.028 93.0497C682.723 93.0497 681.554 93.3267 680.52 93.8807C679.498 94.4347 678.692 95.2472 678.101 96.3182C677.522 97.3769 677.233 98.6572 677.233 100.159ZM715.217 117.572C712.423 117.572 710.016 116.975 707.997 115.781C705.991 114.575 704.439 112.882 703.344 110.703C702.26 108.512 701.719 105.945 701.719 103.003C701.719 100.098 702.26 97.5369 703.344 95.321C704.439 93.1051 705.966 91.3755 707.923 90.1321C709.893 88.8887 712.195 88.267 714.83 88.267C716.43 88.267 717.981 88.5317 719.483 89.0611C720.985 89.5904 722.333 90.4214 723.527 91.554C724.721 92.6866 725.663 94.1577 726.352 95.9673C727.042 97.7647 727.386 99.9498 727.386 102.523V104.48H704.839V100.344H721.976C721.976 98.8911 721.68 97.6046 721.089 96.4844C720.499 95.3518 719.668 94.4593 718.597 93.8068C717.538 93.1544 716.295 92.8281 714.866 92.8281C713.315 92.8281 711.961 93.2098 710.804 93.973C709.659 94.724 708.773 95.7088 708.145 96.9276C707.529 98.134 707.222 99.4451 707.222 100.861V104.092C707.222 105.988 707.554 107.601 708.219 108.93C708.896 110.26 709.838 111.276 711.044 111.977C712.25 112.667 713.66 113.011 715.273 113.011C716.319 113.011 717.273 112.864 718.135 112.568C718.997 112.26 719.741 111.805 720.369 111.202C720.997 110.598 721.477 109.854 721.81 108.967L727.036 109.909C726.617 111.448 725.866 112.796 724.783 113.953C723.712 115.098 722.364 115.991 720.739 116.631C719.126 117.259 717.286 117.572 715.217 117.572ZM747.274 117V88.6364H752.795V117H747.274ZM750.062 84.2599C749.102 84.2599 748.277 83.9399 747.588 83.2997C746.911 82.6473 746.572 81.8717 746.572 80.973C746.572 80.062 746.911 79.2865 747.588 78.6463C748.277 77.9938 749.102 77.6676 750.062 77.6676C751.023 77.6676 751.841 77.9938 752.518 78.6463C753.208 79.2865 753.553 80.062 753.553 80.973C753.553 81.8717 753.208 82.6473 752.518 83.2997C751.841 83.9399 751.023 84.2599 750.062 84.2599ZM765.745 100.159V117H760.223V88.6364H765.523V93.2528H765.874C766.526 91.7509 767.548 90.5445 768.939 89.6335C770.343 88.7225 772.109 88.267 774.239 88.267C776.172 88.267 777.864 88.6733 779.317 89.4858C780.77 90.286 781.896 91.4801 782.696 93.0682C783.497 94.6562 783.897 96.6198 783.897 98.9588V117H778.375V99.6236C778.375 97.5677 777.84 95.9612 776.769 94.804C775.698 93.6345 774.227 93.0497 772.355 93.0497C771.075 93.0497 769.936 93.3267 768.939 93.8807C767.954 94.4347 767.173 95.2472 766.594 96.3182C766.028 97.3769 765.745 98.6572 765.745 100.159ZM791.301 127.636V88.6364H796.694V93.2344H797.155C797.475 92.6435 797.937 91.9602 798.54 91.1847C799.143 90.4091 799.98 89.732 801.051 89.1534C802.123 88.5625 803.538 88.267 805.299 88.267C807.588 88.267 809.632 88.8456 811.429 90.0028C813.227 91.16 814.636 92.8281 815.658 95.0071C816.692 97.1861 817.209 99.8082 817.209 102.874C817.209 105.939 816.698 108.567 815.676 110.759C814.655 112.937 813.251 114.618 811.466 115.8C809.681 116.969 807.644 117.554 805.354 117.554C803.631 117.554 802.221 117.265 801.125 116.686C800.042 116.107 799.193 115.43 798.577 114.655C797.962 113.879 797.488 113.19 797.155 112.587H796.823V127.636H791.301ZM796.712 102.818C796.712 104.812 797.001 106.561 797.58 108.062C798.158 109.564 798.996 110.74 800.091 111.589C801.187 112.427 802.529 112.845 804.117 112.845C805.766 112.845 807.145 112.408 808.253 111.534C809.361 110.648 810.198 109.447 810.765 107.933C811.343 106.419 811.632 104.714 811.632 102.818C811.632 100.947 811.349 99.2666 810.783 97.777C810.229 96.2874 809.392 95.1117 808.272 94.25C807.164 93.3883 805.779 92.9574 804.117 92.9574C802.516 92.9574 801.162 93.3698 800.054 94.1946C798.959 95.0194 798.128 96.1705 797.561 97.6477C796.995 99.125 796.712 100.848 796.712 102.818ZM841.363 105.237V88.6364H846.902V117H841.473V112.088H841.178C840.525 113.602 839.479 114.864 838.039 115.874C836.611 116.871 834.832 117.369 832.702 117.369C830.88 117.369 829.267 116.969 827.864 116.169C826.473 115.357 825.377 114.156 824.577 112.568C823.789 110.98 823.395 109.017 823.395 106.678V88.6364H828.917V106.013C828.917 107.946 829.452 109.484 830.523 110.629C831.594 111.774 832.985 112.347 834.696 112.347C835.73 112.347 836.758 112.088 837.78 111.571C838.814 111.054 839.67 110.272 840.347 109.226C841.036 108.179 841.375 106.85 841.363 105.237ZM867.561 88.6364V93.0682H852.068V88.6364H867.561ZM856.223 81.8409H861.744V108.672C861.744 109.743 861.904 110.549 862.224 111.091C862.545 111.62 862.957 111.983 863.462 112.18C863.979 112.365 864.539 112.457 865.142 112.457C865.585 112.457 865.973 112.427 866.305 112.365C866.638 112.304 866.896 112.254 867.081 112.217L868.078 116.778C867.758 116.902 867.303 117.025 866.712 117.148C866.121 117.283 865.382 117.357 864.496 117.369C863.043 117.394 861.689 117.135 860.433 116.594C859.178 116.052 858.162 115.215 857.386 114.082C856.611 112.95 856.223 111.528 856.223 109.817V81.8409ZM894.466 95.5611L889.462 96.4474C889.252 95.8073 888.92 95.1979 888.464 94.6193C888.021 94.0407 887.418 93.5668 886.655 93.1974C885.892 92.8281 884.938 92.6435 883.793 92.6435C882.229 92.6435 880.924 92.9943 879.878 93.696C878.831 94.3854 878.308 95.2779 878.308 96.3736C878.308 97.3215 878.659 98.0848 879.361 98.6634C880.063 99.242 881.195 99.7159 882.759 100.085L887.264 101.119C889.874 101.723 891.819 102.652 893.099 103.908C894.38 105.163 895.02 106.795 895.02 108.801C895.02 110.5 894.527 112.014 893.543 113.344C892.57 114.661 891.21 115.695 889.462 116.446C887.726 117.197 885.713 117.572 883.423 117.572C880.247 117.572 877.656 116.895 875.649 115.541C873.643 114.175 872.411 112.236 871.956 109.724L877.293 108.912C877.625 110.303 878.308 111.356 879.342 112.07C880.376 112.771 881.724 113.122 883.386 113.122C885.196 113.122 886.643 112.747 887.726 111.996C888.809 111.232 889.351 110.303 889.351 109.207C889.351 108.321 889.018 107.576 888.354 106.973C887.701 106.37 886.698 105.914 885.344 105.607L880.543 104.554C877.896 103.951 875.938 102.991 874.67 101.673C873.415 100.356 872.787 98.688 872.787 96.669C872.787 94.9948 873.255 93.5298 874.19 92.2741C875.126 91.0185 876.419 90.0398 878.068 89.3381C879.718 88.6241 881.607 88.267 883.737 88.267C886.803 88.267 889.215 88.9318 890.976 90.2614C892.736 91.5786 893.9 93.3452 894.466 95.5611ZM928.351 88.6364V93.0682H912.322V88.6364H928.351ZM916.717 117V85.3494C916.717 83.5767 917.105 82.1056 917.881 80.9361C918.656 79.7543 919.684 78.8741 920.964 78.2955C922.245 77.7045 923.636 77.4091 925.138 77.4091C926.246 77.4091 927.194 77.5014 927.982 77.6861C928.769 77.8584 929.354 78.0185 929.736 78.1662L928.443 82.6349C928.185 82.5611 927.852 82.4749 927.446 82.3764C927.04 82.2656 926.547 82.2102 925.969 82.2102C924.627 82.2102 923.667 82.5426 923.088 83.2074C922.522 83.8722 922.239 84.8324 922.239 86.0881V117H916.717ZM944.878 117.572C942.219 117.572 939.898 116.963 937.916 115.744C935.934 114.526 934.395 112.821 933.3 110.629C932.204 108.438 931.656 105.877 931.656 102.947C931.656 100.005 932.204 97.4323 933.3 95.2287C934.395 93.0251 935.934 91.3139 937.916 90.0952C939.898 88.8764 942.219 88.267 944.878 88.267C947.537 88.267 949.857 88.8764 951.839 90.0952C953.821 91.3139 955.36 93.0251 956.456 95.2287C957.552 97.4323 958.099 100.005 958.099 102.947C958.099 105.877 957.552 108.438 956.456 110.629C955.36 112.821 953.821 114.526 951.839 115.744C949.857 116.963 947.537 117.572 944.878 117.572ZM944.896 112.938C946.62 112.938 948.048 112.482 949.18 111.571C950.313 110.66 951.15 109.447 951.692 107.933C952.246 106.419 952.523 104.751 952.523 102.929C952.523 101.119 952.246 99.4574 951.692 97.9432C951.15 96.4167 950.313 95.1918 949.18 94.2685C948.048 93.3452 946.62 92.8835 944.896 92.8835C943.161 92.8835 941.72 93.3452 940.575 94.2685C939.443 95.1918 938.599 96.4167 938.045 97.9432C937.504 99.4574 937.233 101.119 937.233 102.929C937.233 104.751 937.504 106.419 938.045 107.933C938.599 109.447 939.443 110.66 940.575 111.571C941.72 112.482 943.161 112.938 944.896 112.938ZM964.262 117V88.6364H969.599V93.142H969.895C970.412 91.6155 971.323 90.4152 972.627 89.5412C973.945 88.6548 975.434 88.2116 977.096 88.2116C977.441 88.2116 977.847 88.224 978.315 88.2486C978.795 88.2732 979.171 88.304 979.441 88.3409V93.6222C979.22 93.5606 978.826 93.4929 978.26 93.419C977.693 93.3329 977.127 93.2898 976.561 93.2898C975.256 93.2898 974.092 93.5668 973.071 94.1207C972.061 94.6624 971.261 95.4195 970.67 96.392C970.079 97.3523 969.784 98.4479 969.784 99.679V117H964.262ZM1011.22 88.6364V93.0682H995.728V88.6364H1011.22ZM999.883 81.8409H1005.4V108.672C1005.4 109.743 1005.56 110.549 1005.88 111.091C1006.2 111.62 1006.62 111.983 1007.12 112.18C1007.64 112.365 1008.2 112.457 1008.8 112.457C1009.25 112.457 1009.63 112.427 1009.97 112.365C1010.3 112.304 1010.56 112.254 1010.74 112.217L1011.74 116.778C1011.42 116.902 1010.96 117.025 1010.37 117.148C1009.78 117.283 1009.04 117.357 1008.16 117.369C1006.7 117.394 1005.35 117.135 1004.09 116.594C1002.84 116.052 1001.82 115.215 1001.05 114.082C1000.27 112.95 999.883 111.528 999.883 109.817V81.8409ZM1023.46 100.159V117H1017.94V79.1818H1023.39V93.2528H1023.74C1024.4 91.7263 1025.42 90.5137 1026.78 89.6151C1028.15 88.7164 1029.93 88.267 1032.14 88.267C1034.08 88.267 1035.78 88.6671 1037.24 89.4673C1038.7 90.2675 1039.83 91.4616 1040.63 93.0497C1041.45 94.6255 1041.85 96.5952 1041.85 98.9588V117H1036.33V99.6236C1036.33 97.5431 1035.79 95.9304 1034.72 94.7855C1033.65 93.6283 1032.16 93.0497 1030.25 93.0497C1028.95 93.0497 1027.78 93.3267 1026.75 93.8807C1025.72 94.4347 1024.92 95.2472 1024.33 96.3182C1023.75 97.3769 1023.46 98.6572 1023.46 100.159ZM1061.44 117.572C1058.65 117.572 1056.24 116.975 1054.22 115.781C1052.22 114.575 1050.67 112.882 1049.57 110.703C1048.49 108.512 1047.95 105.945 1047.95 103.003C1047.95 100.098 1048.49 97.5369 1049.57 95.321C1050.67 93.1051 1052.19 91.3755 1054.15 90.1321C1056.12 88.8887 1058.42 88.267 1061.06 88.267C1062.66 88.267 1064.21 88.5317 1065.71 89.0611C1067.21 89.5904 1068.56 90.4214 1069.75 91.554C1070.95 92.6866 1071.89 94.1577 1072.58 95.9673C1073.27 97.7647 1073.61 99.9498 1073.61 102.523V104.48H1051.07V100.344H1068.2C1068.2 98.8911 1067.91 97.6046 1067.32 96.4844C1066.73 95.3518 1065.89 94.4593 1064.82 93.8068C1063.76 93.1544 1062.52 92.8281 1061.09 92.8281C1059.54 92.8281 1058.19 93.2098 1057.03 93.973C1055.89 94.724 1055 95.7088 1054.37 96.9276C1053.76 98.134 1053.45 99.4451 1053.45 100.861V104.092C1053.45 105.988 1053.78 107.601 1054.45 108.93C1055.12 110.26 1056.06 111.276 1057.27 111.977C1058.48 112.667 1059.89 113.011 1061.5 113.011C1062.55 113.011 1063.5 112.864 1064.36 112.568C1065.22 112.26 1065.97 111.805 1066.6 111.202C1067.22 110.598 1067.7 109.854 1068.04 108.967L1073.26 109.909C1072.84 111.448 1072.09 112.796 1071.01 113.953C1069.94 115.098 1068.59 115.991 1066.97 116.631C1065.35 117.259 1063.51 117.572 1061.44 117.572ZM1106.74 88.6364V93.0682H1091.25V88.6364H1106.74ZM1095.4 81.8409H1100.92V108.672C1100.92 109.743 1101.08 110.549 1101.4 111.091C1101.72 111.62 1102.14 111.983 1102.64 112.18C1103.16 112.365 1103.72 112.457 1104.32 112.457C1104.76 112.457 1105.15 112.427 1105.49 112.365C1105.82 112.304 1106.08 112.254 1106.26 112.217L1107.26 116.778C1106.94 116.902 1106.48 117.025 1105.89 117.148C1105.3 117.283 1104.56 117.357 1103.68 117.369C1102.22 117.394 1100.87 117.135 1099.61 116.594C1098.36 116.052 1097.34 115.215 1096.57 114.082C1095.79 112.95 1095.4 111.528 1095.4 109.817V81.8409ZM1112.85 117V88.6364H1118.19V93.142H1118.48C1119 91.6155 1119.91 90.4152 1121.21 89.5412C1122.53 88.6548 1124.02 88.2116 1125.68 88.2116C1126.03 88.2116 1126.43 88.224 1126.9 88.2486C1127.38 88.2732 1127.76 88.304 1128.03 88.3409V93.6222C1127.81 93.5606 1127.41 93.4929 1126.85 93.419C1126.28 93.3329 1125.71 93.2898 1125.15 93.2898C1123.84 93.2898 1122.68 93.5668 1121.66 94.1207C1120.65 94.6624 1119.85 95.4195 1119.26 96.392C1118.67 97.3523 1118.37 98.4479 1118.37 99.679V117H1112.85ZM1140.81 117.628C1139.01 117.628 1137.38 117.295 1135.93 116.631C1134.48 115.954 1133.33 114.975 1132.48 113.695C1131.64 112.414 1131.22 110.845 1131.22 108.986C1131.22 107.385 1131.53 106.068 1132.15 105.034C1132.76 104 1133.59 103.181 1134.64 102.578C1135.68 101.975 1136.85 101.519 1138.15 101.212C1139.44 100.904 1140.76 100.67 1142.1 100.51C1143.8 100.313 1145.18 100.153 1146.23 100.03C1147.29 99.8944 1148.06 99.679 1148.54 99.3835C1149.02 99.0881 1149.26 98.608 1149.26 97.9432V97.8139C1149.26 96.2012 1148.81 94.9517 1147.9 94.0653C1147 93.179 1145.66 92.7358 1143.87 92.7358C1142.01 92.7358 1140.55 93.1482 1139.48 93.973C1138.42 94.7855 1137.69 95.6903 1137.28 96.6875L1132.09 95.5057C1132.71 93.7822 1133.6 92.3911 1134.79 91.3324C1135.98 90.2614 1137.35 89.4858 1138.9 89.0057C1140.45 88.5133 1142.09 88.267 1143.8 88.267C1144.93 88.267 1146.13 88.4025 1147.4 88.6733C1148.68 88.9318 1149.87 89.4119 1150.98 90.1136C1152.1 90.8153 1153.02 91.8187 1153.73 93.1236C1154.45 94.4162 1154.8 96.0966 1154.8 98.1648V117H1149.41V113.122H1149.19C1148.83 113.836 1148.3 114.538 1147.58 115.227C1146.87 115.917 1145.95 116.489 1144.83 116.945C1143.71 117.4 1142.37 117.628 1140.81 117.628ZM1142.01 113.196C1143.53 113.196 1144.84 112.894 1145.92 112.291C1147.02 111.688 1147.85 110.9 1148.41 109.928C1148.99 108.943 1149.28 107.89 1149.28 106.77V103.114C1149.08 103.311 1148.7 103.495 1148.14 103.668C1147.58 103.828 1146.95 103.969 1146.23 104.092C1145.52 104.203 1144.83 104.308 1144.15 104.406C1143.47 104.492 1142.9 104.566 1142.45 104.628C1141.38 104.763 1140.4 104.991 1139.51 105.311C1138.64 105.631 1137.94 106.093 1137.41 106.696C1136.89 107.287 1136.63 108.075 1136.63 109.06C1136.63 110.426 1137.14 111.46 1138.15 112.162C1139.16 112.851 1140.44 113.196 1142.01 113.196ZM1167.68 100.159V117H1162.16V88.6364H1167.46V93.2528H1167.81C1168.46 91.7509 1169.48 90.5445 1170.87 89.6335C1172.28 88.7225 1174.04 88.267 1176.17 88.267C1178.11 88.267 1179.8 88.6733 1181.25 89.4858C1182.7 90.286 1183.83 91.4801 1184.63 93.0682C1185.43 94.6562 1185.83 96.6198 1185.83 98.9588V117H1180.31V99.6236C1180.31 97.5677 1179.77 95.9612 1178.7 94.804C1177.63 93.6345 1176.16 93.0497 1174.29 93.0497C1173.01 93.0497 1171.87 93.3267 1170.87 93.8807C1169.89 94.4347 1169.11 95.2472 1168.53 96.3182C1167.96 97.3769 1167.68 98.6572 1167.68 100.159ZM1214.49 95.5611L1209.49 96.4474C1209.28 95.8073 1208.94 95.1979 1208.49 94.6193C1208.04 94.0407 1207.44 93.5668 1206.68 93.1974C1205.92 92.8281 1204.96 92.6435 1203.82 92.6435C1202.25 92.6435 1200.95 92.9943 1199.9 93.696C1198.85 94.3854 1198.33 95.2779 1198.33 96.3736C1198.33 97.3215 1198.68 98.0848 1199.38 98.6634C1200.09 99.242 1201.22 99.7159 1202.78 100.085L1207.29 101.119C1209.9 101.723 1211.84 102.652 1213.12 103.908C1214.4 105.163 1215.04 106.795 1215.04 108.801C1215.04 110.5 1214.55 112.014 1213.57 113.344C1212.59 114.661 1211.23 115.695 1209.49 116.446C1207.75 117.197 1205.74 117.572 1203.45 117.572C1200.27 117.572 1197.68 116.895 1195.67 115.541C1193.67 114.175 1192.43 112.236 1191.98 109.724L1197.32 108.912C1197.65 110.303 1198.33 111.356 1199.37 112.07C1200.4 112.771 1201.75 113.122 1203.41 113.122C1205.22 113.122 1206.67 112.747 1207.75 111.996C1208.83 111.232 1209.37 110.303 1209.37 109.207C1209.37 108.321 1209.04 107.576 1208.38 106.973C1207.72 106.37 1206.72 105.914 1205.37 105.607L1200.57 104.554C1197.92 103.951 1195.96 102.991 1194.69 101.673C1193.44 100.356 1192.81 98.688 1192.81 96.669C1192.81 94.9948 1193.28 93.5298 1194.21 92.2741C1195.15 91.0185 1196.44 90.0398 1198.09 89.3381C1199.74 88.6241 1201.63 88.267 1203.76 88.267C1206.83 88.267 1209.24 88.9318 1211 90.2614C1212.76 91.5786 1213.92 93.3452 1214.49 95.5611ZM1229.37 117.628C1227.57 117.628 1225.95 117.295 1224.49 116.631C1223.04 115.954 1221.89 114.975 1221.04 113.695C1220.2 112.414 1219.78 110.845 1219.78 108.986C1219.78 107.385 1220.09 106.068 1220.71 105.034C1221.32 104 1222.15 103.181 1223.2 102.578C1224.25 101.975 1225.42 101.519 1226.71 101.212C1228 100.904 1229.32 100.67 1230.66 100.51C1232.36 100.313 1233.74 100.153 1234.8 100.03C1235.86 99.8944 1236.63 99.679 1237.11 99.3835C1237.59 99.0881 1237.83 98.608 1237.83 97.9432V97.8139C1237.83 96.2012 1237.37 94.9517 1236.46 94.0653C1235.56 93.179 1234.22 92.7358 1232.43 92.7358C1230.57 92.7358 1229.11 93.1482 1228.04 93.973C1226.98 94.7855 1226.25 95.6903 1225.84 96.6875L1220.65 95.5057C1221.27 93.7822 1222.17 92.3911 1223.35 91.3324C1224.54 90.2614 1225.92 89.4858 1227.47 89.0057C1229.02 88.5133 1230.65 88.267 1232.36 88.267C1233.49 88.267 1234.69 88.4025 1235.96 88.6733C1237.24 88.9318 1238.44 89.4119 1239.54 90.1136C1240.66 90.8153 1241.58 91.8187 1242.29 93.1236C1243.01 94.4162 1243.37 96.0966 1243.37 98.1648V117H1237.97V113.122H1237.75C1237.39 113.836 1236.86 114.538 1236.15 115.227C1235.43 115.917 1234.51 116.489 1233.39 116.945C1232.27 117.4 1230.93 117.628 1229.37 117.628ZM1230.57 113.196C1232.1 113.196 1233.4 112.894 1234.48 112.291C1235.58 111.688 1236.41 110.9 1236.98 109.928C1237.55 108.943 1237.84 107.89 1237.84 106.77V103.114C1237.65 103.311 1237.27 103.495 1236.7 103.668C1236.15 103.828 1235.51 103.969 1234.8 104.092C1234.08 104.203 1233.39 104.308 1232.71 104.406C1232.03 104.492 1231.47 104.566 1231.01 104.628C1229.94 104.763 1228.96 104.991 1228.08 105.311C1227.2 105.631 1226.5 106.093 1225.97 106.696C1225.45 107.287 1225.19 108.075 1225.19 109.06C1225.19 110.426 1225.7 111.46 1226.71 112.162C1227.72 112.851 1229.01 113.196 1230.57 113.196ZM1262.67 117.572C1259.92 117.572 1257.56 116.951 1255.58 115.707C1253.61 114.452 1252.09 112.722 1251.03 110.518C1249.97 108.315 1249.45 105.791 1249.45 102.947C1249.45 100.067 1249.99 97.5246 1251.07 95.321C1252.15 93.1051 1253.68 91.3755 1255.65 90.1321C1257.62 88.8887 1259.94 88.267 1262.61 88.267C1264.77 88.267 1266.69 88.6671 1268.37 89.4673C1270.06 90.2552 1271.42 91.3632 1272.45 92.7912C1273.5 94.2192 1274.12 95.8873 1274.32 97.7955H1268.95C1268.65 96.4659 1267.97 95.321 1266.91 94.3608C1265.87 93.4006 1264.46 92.9205 1262.7 92.9205C1261.17 92.9205 1259.82 93.3267 1258.66 94.1392C1257.51 94.9394 1256.62 96.0843 1255.98 97.5739C1255.34 99.0511 1255.02 100.799 1255.02 102.818C1255.02 104.886 1255.34 106.671 1255.96 108.173C1256.59 109.675 1257.48 110.839 1258.62 111.663C1259.78 112.488 1261.14 112.901 1262.7 112.901C1263.75 112.901 1264.7 112.71 1265.55 112.328C1266.41 111.934 1267.13 111.374 1267.71 110.648C1268.3 109.921 1268.71 109.047 1268.95 108.026H1274.32C1274.12 109.86 1273.52 111.497 1272.53 112.938C1271.53 114.378 1270.19 115.51 1268.52 116.335C1266.86 117.16 1264.91 117.572 1262.67 117.572ZM1293.46 88.6364V93.0682H1277.97V88.6364H1293.46ZM1282.13 81.8409H1287.65V108.672C1287.65 109.743 1287.81 110.549 1288.13 111.091C1288.45 111.62 1288.86 111.983 1289.36 112.18C1289.88 112.365 1290.44 112.457 1291.04 112.457C1291.49 112.457 1291.88 112.427 1292.21 112.365C1292.54 112.304 1292.8 112.254 1292.98 112.217L1293.98 116.778C1293.66 116.902 1293.2 117.025 1292.61 117.148C1292.02 117.283 1291.28 117.357 1290.4 117.369C1288.95 117.394 1287.59 117.135 1286.34 116.594C1285.08 116.052 1284.06 115.215 1283.29 114.082C1282.51 112.95 1282.13 111.528 1282.13 109.817V81.8409ZM1299.57 117V88.6364H1305.09V117H1299.57ZM1302.36 84.2599C1301.4 84.2599 1300.57 83.9399 1299.88 83.2997C1299.21 82.6473 1298.87 81.8717 1298.87 80.973C1298.87 80.062 1299.21 79.2865 1299.88 78.6463C1300.57 77.9938 1301.4 77.6676 1302.36 77.6676C1303.32 77.6676 1304.14 77.9938 1304.82 78.6463C1305.5 79.2865 1305.85 80.062 1305.85 80.973C1305.85 81.8717 1305.5 82.6473 1304.82 83.2997C1304.14 83.9399 1303.32 84.2599 1302.36 84.2599ZM1324.47 117.572C1321.81 117.572 1319.49 116.963 1317.51 115.744C1315.52 114.526 1313.99 112.821 1312.89 110.629C1311.79 108.438 1311.25 105.877 1311.25 102.947C1311.25 100.005 1311.79 97.4323 1312.89 95.2287C1313.99 93.0251 1315.52 91.3139 1317.51 90.0952C1319.49 88.8764 1321.81 88.267 1324.47 88.267C1327.13 88.267 1329.45 88.8764 1331.43 90.0952C1333.41 91.3139 1334.95 93.0251 1336.05 95.2287C1337.14 97.4323 1337.69 100.005 1337.69 102.947C1337.69 105.877 1337.14 108.438 1336.05 110.629C1334.95 112.821 1333.41 114.526 1331.43 115.744C1329.45 116.963 1327.13 117.572 1324.47 117.572ZM1324.49 112.938C1326.21 112.938 1327.64 112.482 1328.77 111.571C1329.9 110.66 1330.74 109.447 1331.28 107.933C1331.84 106.419 1332.11 104.751 1332.11 102.929C1332.11 101.119 1331.84 99.4574 1331.28 97.9432C1330.74 96.4167 1329.9 95.1918 1328.77 94.2685C1327.64 93.3452 1326.21 92.8835 1324.49 92.8835C1322.75 92.8835 1321.31 93.3452 1320.17 94.2685C1319.03 95.1918 1318.19 96.4167 1317.64 97.9432C1317.09 99.4574 1316.82 101.119 1316.82 102.929C1316.82 104.751 1317.09 106.419 1317.64 107.933C1318.19 109.447 1319.03 110.66 1320.17 111.571C1321.31 112.482 1322.75 112.938 1324.49 112.938ZM1349.37 100.159V117H1343.85V88.6364H1349.15V93.2528H1349.5C1350.16 91.7509 1351.18 90.5445 1352.57 89.6335C1353.97 88.7225 1355.74 88.267 1357.87 88.267C1359.8 88.267 1361.49 88.6733 1362.95 89.4858C1364.4 90.286 1365.53 91.4801 1366.33 93.0682C1367.13 94.6562 1367.53 96.6198 1367.53 98.9588V117H1362V99.6236C1362 97.5677 1361.47 95.9612 1360.4 94.804C1359.33 93.6345 1357.86 93.0497 1355.98 93.0497C1354.7 93.0497 1353.57 93.3267 1352.57 93.8807C1351.58 94.4347 1350.8 95.2472 1350.22 96.3182C1349.66 97.3769 1349.37 98.6572 1349.37 100.159Z" fill="white"/>
<path d="M612.01 254L603.013 221.273H605.09L613.08 250.916H613.272L621.134 221.273H623.563L631.425 250.916H631.617L639.607 221.273H641.669L632.672 254H630.371L622.429 224.549H622.253L614.311 254H612.01ZM654.177 254.511C651.961 254.511 650.033 253.963 648.392 252.865C646.752 251.768 645.484 250.266 644.589 248.359C643.694 246.452 643.247 244.279 643.247 241.839C643.247 239.389 643.694 237.205 644.589 235.287C645.495 233.37 646.736 231.857 648.312 230.749C649.889 229.641 651.689 229.087 653.714 229.087C655.088 229.087 656.388 229.364 657.613 229.918C658.849 230.461 659.935 231.25 660.873 232.283C661.821 233.316 662.561 234.563 663.094 236.022C663.637 237.482 663.909 239.123 663.909 240.944V242.159H644.477V240.385H661.959C661.959 238.606 661.597 237.002 660.873 235.575C660.148 234.147 659.163 233.013 657.916 232.171C656.67 231.33 655.269 230.909 653.714 230.909C652.084 230.909 650.629 231.367 649.351 232.283C648.083 233.189 647.077 234.414 646.331 235.958C645.596 237.503 645.212 239.229 645.18 241.136V241.935C645.18 243.98 645.537 245.818 646.251 247.448C646.975 249.067 648.009 250.351 649.351 251.299C650.693 252.237 652.302 252.706 654.177 252.706C655.519 252.706 656.665 252.482 657.613 252.034C658.572 251.576 659.355 251.022 659.962 250.373C660.569 249.723 661.027 249.094 661.336 248.487L663.11 249.206C662.737 250.026 662.156 250.847 661.368 251.667C660.59 252.477 659.6 253.153 658.396 253.696C657.203 254.24 655.796 254.511 654.177 254.511ZM685.226 238.084V254H683.277V221.273H685.226V233.338H685.418C685.993 232.059 686.91 231.042 688.167 230.286C689.435 229.518 690.953 229.135 692.721 229.135C694.372 229.135 695.827 229.487 697.084 230.19C698.341 230.882 699.321 231.878 700.024 233.178C700.738 234.467 701.095 236.012 701.095 237.812V254H699.161V237.892C699.161 235.793 698.538 234.11 697.291 232.842C696.045 231.575 694.399 230.941 692.354 230.941C690.979 230.941 689.754 231.239 688.678 231.836C687.602 232.432 686.755 233.268 686.137 234.344C685.53 235.41 685.226 236.656 685.226 238.084ZM715.665 254.527C714.248 254.527 712.948 254.245 711.765 253.68C710.594 253.116 709.651 252.29 708.937 251.203C708.234 250.117 707.882 248.796 707.882 247.24C707.882 246.218 708.063 245.317 708.426 244.54C708.788 243.762 709.347 243.091 710.103 242.526C710.86 241.962 711.829 241.498 713.012 241.136C714.194 240.763 715.606 240.475 717.247 240.273C718.493 240.124 719.606 239.98 720.586 239.842C721.567 239.692 722.334 239.463 722.888 239.154C723.452 238.846 723.735 238.377 723.735 237.748V236.725C723.735 234.936 723.17 233.513 722.041 232.459C720.911 231.404 719.356 230.877 717.374 230.877C715.617 230.877 714.136 231.266 712.932 232.043C711.739 232.81 710.902 233.801 710.423 235.016L708.585 234.328C709.054 233.157 709.731 232.182 710.615 231.404C711.51 230.626 712.532 230.046 713.683 229.662C714.844 229.279 716.059 229.087 717.326 229.087C718.424 229.087 719.468 229.241 720.459 229.55C721.46 229.859 722.35 230.328 723.127 230.957C723.916 231.585 724.539 232.39 724.997 233.37C725.455 234.339 725.684 235.5 725.684 236.853V254H723.735V249.574H723.591C723.165 250.49 722.579 251.326 721.833 252.082C721.098 252.828 720.208 253.425 719.164 253.872C718.131 254.309 716.964 254.527 715.665 254.527ZM715.856 252.722C717.39 252.722 718.749 252.349 719.931 251.603C721.124 250.847 722.057 249.813 722.728 248.503C723.399 247.192 723.735 245.706 723.735 244.044V240.433C723.489 240.646 723.133 240.838 722.664 241.008C722.206 241.168 721.684 241.312 721.098 241.44C720.523 241.557 719.915 241.663 719.276 241.759C718.648 241.844 718.035 241.924 717.438 241.999C715.649 242.212 714.189 242.542 713.06 242.99C711.941 243.426 711.121 244.002 710.599 244.716C710.087 245.429 709.832 246.292 709.832 247.304C709.832 248.977 710.407 250.298 711.558 251.267C712.708 252.237 714.141 252.722 715.856 252.722ZM750.925 229.455L742.056 254H739.85L730.981 229.455H733.075L740.873 251.491H741.033L748.831 229.455H750.925ZM765.71 254.511C763.494 254.511 761.566 253.963 759.925 252.865C758.285 251.768 757.017 250.266 756.122 248.359C755.227 246.452 754.78 244.279 754.78 241.839C754.78 239.389 755.227 237.205 756.122 235.287C757.028 233.37 758.269 231.857 759.846 230.749C761.422 229.641 763.223 229.087 765.247 229.087C766.621 229.087 767.921 229.364 769.146 229.918C770.382 230.461 771.468 231.25 772.406 232.283C773.354 233.316 774.095 234.563 774.627 236.022C775.171 237.482 775.442 239.123 775.442 240.944V242.159H756.01V240.385H773.493C773.493 238.606 773.13 237.002 772.406 235.575C771.682 234.147 770.696 233.013 769.45 232.171C768.203 231.33 766.802 230.909 765.247 230.909C763.617 230.909 762.163 231.367 760.884 232.283C759.617 233.189 758.61 234.414 757.864 235.958C757.129 237.503 756.745 239.229 756.713 241.136V241.935C756.713 243.98 757.07 245.818 757.784 247.448C758.509 249.067 759.542 250.351 760.884 251.299C762.227 252.237 763.835 252.706 765.71 252.706C767.053 252.706 768.198 252.482 769.146 252.034C770.105 251.576 770.888 251.022 771.495 250.373C772.102 249.723 772.56 249.094 772.869 248.487L774.643 249.206C774.27 250.026 773.69 250.847 772.901 251.667C772.124 252.477 771.133 253.153 769.929 253.696C768.736 254.24 767.33 254.511 765.71 254.511ZM803.487 229.455V231.196H792.765V229.455H803.487ZM796.392 223.574H798.326V248.199C798.326 249.201 798.517 250.021 798.901 250.66C799.295 251.289 799.807 251.757 800.435 252.066C801.074 252.365 801.756 252.514 802.481 252.514C802.832 252.514 803.136 252.487 803.391 252.434C803.658 252.381 803.908 252.311 804.142 252.226L804.622 254C804.324 254.107 803.993 254.197 803.631 254.272C803.269 254.357 802.843 254.4 802.353 254.4C801.33 254.4 800.36 254.17 799.444 253.712C798.539 253.254 797.804 252.588 797.239 251.715C796.674 250.841 796.392 249.787 796.392 248.551V223.574ZM816.072 254L808.721 229.455H810.766L817.094 251.14H817.27L823.614 229.455H825.644L831.972 251.124H832.132L838.46 229.455H840.505L833.154 254H830.981L824.717 232.635H824.509L818.245 254H816.072ZM854.867 254.511C852.843 254.511 851.043 253.968 849.466 252.881C847.889 251.784 846.648 250.277 845.743 248.359C844.837 246.441 844.384 244.257 844.384 241.807C844.384 239.346 844.837 237.162 845.743 235.255C846.648 233.338 847.889 231.83 849.466 230.733C851.043 229.636 852.843 229.087 854.867 229.087C856.891 229.087 858.692 229.636 860.269 230.733C861.845 231.83 863.086 233.338 863.992 235.255C864.898 237.173 865.35 239.357 865.35 241.807C865.35 244.257 864.898 246.441 863.992 248.359C863.086 250.277 861.845 251.784 860.269 252.881C858.692 253.968 856.891 254.511 854.867 254.511ZM854.867 252.706C856.583 252.706 858.079 252.221 859.358 251.251C860.647 250.282 861.643 248.972 862.346 247.32C863.06 245.669 863.417 243.831 863.417 241.807C863.417 239.783 863.06 237.951 862.346 236.31C861.632 234.659 860.636 233.348 859.358 232.379C858.079 231.399 856.583 230.909 854.867 230.909C853.152 230.909 851.655 231.399 850.377 232.379C849.098 233.348 848.102 234.659 847.389 236.31C846.675 237.951 846.318 239.783 846.318 241.807C846.318 243.831 846.67 245.669 847.373 247.32C848.086 248.972 849.083 250.282 850.361 251.251C851.65 252.221 853.152 252.706 854.867 252.706ZM884.818 254V229.455H886.752V254H884.818ZM885.793 225.108C885.367 225.108 884.994 224.959 884.674 224.661C884.365 224.362 884.211 224 884.211 223.574C884.211 223.148 884.365 222.786 884.674 222.487C884.983 222.189 885.356 222.04 885.793 222.04C886.219 222.04 886.587 222.189 886.895 222.487C887.215 222.786 887.375 223.148 887.375 223.574C887.375 224 887.22 224.362 886.911 224.661C886.602 224.959 886.23 225.108 885.793 225.108ZM896.867 238.084V254H894.917V229.455H896.819V233.338H897.011C897.586 232.07 898.508 231.053 899.775 230.286C901.043 229.518 902.551 229.135 904.298 229.135C905.949 229.135 907.398 229.487 908.644 230.19C909.902 230.893 910.882 231.894 911.585 233.194C912.299 234.483 912.655 236.022 912.655 237.812V254H910.706V237.892C910.706 235.804 910.083 234.126 908.836 232.858C907.6 231.58 905.965 230.941 903.93 230.941C902.567 230.941 901.352 231.239 900.287 231.836C899.221 232.432 898.385 233.268 897.778 234.344C897.171 235.41 896.867 236.656 896.867 238.084ZM920.757 263.205V229.455H922.659V234.936H922.899C923.282 233.881 923.82 232.912 924.513 232.027C925.216 231.143 926.084 230.435 927.117 229.902C928.161 229.359 929.387 229.087 930.793 229.087C932.774 229.087 934.5 229.63 935.97 230.717C937.441 231.804 938.58 233.306 939.39 235.223C940.2 237.13 940.605 239.32 940.605 241.791C940.605 244.263 940.194 246.457 939.374 248.375C938.564 250.282 937.425 251.784 935.954 252.881C934.495 253.968 932.785 254.511 930.825 254.511C929.429 254.511 928.204 254.245 927.149 253.712C926.105 253.18 925.226 252.471 924.513 251.587C923.81 250.692 923.272 249.712 922.899 248.647H922.707V263.205H920.757ZM922.675 241.775C922.675 243.863 922.995 245.733 923.634 247.384C924.273 249.025 925.189 250.325 926.382 251.283C927.576 252.232 928.998 252.706 930.649 252.706C932.322 252.706 933.754 252.226 934.948 251.267C936.152 250.298 937.068 248.988 937.696 247.336C938.335 245.685 938.655 243.831 938.655 241.775C938.655 239.719 938.341 237.871 937.712 236.23C937.084 234.589 936.173 233.295 934.98 232.347C933.786 231.388 932.343 230.909 930.649 230.909C928.976 230.909 927.544 231.383 926.35 232.331C925.168 233.268 924.257 234.558 923.618 236.198C922.989 237.828 922.675 239.687 922.675 241.775ZM963.069 245.291V229.455H965.018V254H963.069V250.021H962.909C962.334 251.289 961.401 252.322 960.112 253.121C958.834 253.92 957.321 254.32 955.574 254.32C953.965 254.32 952.543 253.968 951.307 253.265C950.072 252.562 949.102 251.566 948.399 250.277C947.696 248.977 947.344 247.432 947.344 245.642V229.455H949.294V245.562C949.294 247.608 949.912 249.265 951.148 250.532C952.394 251.789 954.003 252.418 955.974 252.418C957.252 252.418 958.429 252.13 959.505 251.555C960.581 250.98 961.444 250.159 962.094 249.094C962.744 248.018 963.069 246.75 963.069 245.291ZM981.773 229.455V231.196H971.051V229.455H981.773ZM974.678 223.574H976.612V248.199C976.612 249.201 976.804 250.021 977.187 250.66C977.581 251.289 978.093 251.757 978.721 252.066C979.36 252.365 980.042 252.514 980.767 252.514C981.118 252.514 981.422 252.487 981.678 252.434C981.944 252.381 982.194 252.311 982.429 252.226L982.908 254C982.61 254.107 982.279 254.197 981.917 254.272C981.555 254.357 981.129 254.4 980.639 254.4C979.616 254.4 978.647 254.17 977.73 253.712C976.825 253.254 976.09 252.588 975.525 251.715C974.961 250.841 974.678 249.787 974.678 248.551V223.574ZM1004.16 234.744L1002.36 235.223C1002.07 234.328 1001.66 233.556 1001.13 232.906C1000.59 232.256 999.921 231.756 999.112 231.404C998.313 231.042 997.354 230.861 996.235 230.861C994.435 230.861 992.959 231.308 991.809 232.203C990.669 233.098 990.099 234.265 990.099 235.703C990.099 236.875 990.488 237.844 991.266 238.611C992.043 239.368 993.231 239.943 994.829 240.337L998.6 241.28C1000.54 241.759 1002 242.537 1002.98 243.613C1003.96 244.678 1004.45 246.005 1004.45 247.592C1004.45 248.945 1004.08 250.143 1003.35 251.188C1002.61 252.232 1001.59 253.047 1000.29 253.632C999.005 254.218 997.503 254.511 995.788 254.511C993.497 254.511 991.617 253.979 990.147 252.913C988.677 251.837 987.734 250.298 987.318 248.295L989.188 247.816C989.54 249.414 990.269 250.634 991.377 251.475C992.496 252.306 993.961 252.722 995.772 252.722C997.775 252.722 999.389 252.248 1000.61 251.299C1001.85 250.351 1002.47 249.137 1002.47 247.656C1002.47 246.527 1002.11 245.573 1001.38 244.795C1000.66 244.018 999.559 243.448 998.089 243.086L994.174 242.127C992.171 241.637 990.669 240.854 989.668 239.778C988.666 238.691 988.165 237.354 988.165 235.767C988.165 234.446 988.512 233.284 989.204 232.283C989.897 231.282 990.85 230.499 992.065 229.934C993.279 229.369 994.669 229.087 996.235 229.087C998.313 229.087 1000.01 229.577 1001.32 230.557C1002.63 231.537 1003.58 232.933 1004.16 234.744Z" fill="white"/>
<rect x="204.5" y="310.5" width="1201" height="334" rx="12.5" fill="#1E1E1E" stroke="white" stroke-width="3"/>
<path d="M215 310.5H790.5V644.5H215C209.201 644.5 204.5 639.799 204.5 634V321C204.5 315.201 209.201 310.5 215 310.5Z" fill="#1E1E1E" stroke="white" stroke-width="3"/>
<path d="M203 477H792" stroke="#FFFDFD" stroke-width="3"/>
<path d="M1060.3 479C1060.3 482.302 1059.73 485.187 1058.58 487.656C1057.44 490.115 1055.84 492.026 1053.8 493.391C1051.77 494.755 1049.43 495.437 1046.77 495.437C1044.1 495.437 1041.75 494.755 1039.71 493.391C1037.68 492.016 1036.09 490.099 1034.94 487.641C1033.8 485.172 1033.22 482.292 1033.22 479C1033.22 475.698 1033.8 472.818 1034.94 470.359C1036.1 467.901 1037.69 465.99 1039.72 464.625C1041.76 463.25 1044.1 462.562 1046.77 462.562C1049.43 462.562 1051.77 463.245 1053.8 464.609C1055.84 465.974 1057.44 467.891 1058.58 470.359C1059.73 472.818 1060.3 475.698 1060.3 479ZM1058.4 479C1058.4 476.031 1057.9 473.458 1056.9 471.281C1055.91 469.104 1054.54 467.422 1052.79 466.234C1051.04 465.036 1049.03 464.437 1046.77 464.437C1044.51 464.437 1042.51 465.031 1040.76 466.219C1039.01 467.396 1037.63 469.078 1036.63 471.266C1035.64 473.443 1035.15 476.021 1035.15 479C1035.15 481.948 1035.64 484.516 1036.62 486.703C1037.6 488.88 1038.97 490.568 1040.72 491.766C1042.47 492.964 1044.49 493.562 1046.77 493.562C1049.03 493.562 1051.04 492.969 1052.79 491.781C1054.54 490.583 1055.91 488.896 1056.9 486.719C1057.9 484.542 1058.4 481.969 1058.4 479ZM1082.64 486.484V471H1084.54V495H1082.64V491.109H1082.48C1081.92 492.349 1081.01 493.359 1079.75 494.141C1078.5 494.922 1077.02 495.313 1075.31 495.313C1073.74 495.313 1072.35 494.969 1071.14 494.281C1069.93 493.594 1068.98 492.62 1068.29 491.359C1067.61 490.089 1067.26 488.578 1067.26 486.828V471H1069.17V486.75C1069.17 488.75 1069.77 490.37 1070.98 491.609C1072.2 492.839 1073.77 493.453 1075.7 493.453C1076.95 493.453 1078.1 493.172 1079.15 492.609C1080.21 492.047 1081.05 491.245 1081.69 490.203C1082.32 489.151 1082.64 487.911 1082.64 486.484ZM1100.93 471V472.703H1090.44V471H1100.93ZM1093.99 465.25H1095.88V489.328C1095.88 490.307 1096.07 491.109 1096.44 491.734C1096.83 492.349 1097.33 492.807 1097.94 493.109C1098.57 493.401 1099.24 493.547 1099.94 493.547C1100.29 493.547 1100.58 493.521 1100.83 493.469C1101.09 493.417 1101.34 493.349 1101.57 493.266L1102.04 495C1101.75 495.104 1101.42 495.193 1101.07 495.266C1100.71 495.349 1100.3 495.391 1099.82 495.391C1098.82 495.391 1097.87 495.167 1096.97 494.719C1096.09 494.271 1095.37 493.62 1094.82 492.766C1094.27 491.911 1093.99 490.88 1093.99 489.672V465.25ZM1108 504V471H1109.86V476.359H1110.09C1110.47 475.328 1110.99 474.38 1111.67 473.516C1112.36 472.651 1113.21 471.958 1114.22 471.437C1115.24 470.906 1116.44 470.641 1117.81 470.641C1119.75 470.641 1121.44 471.172 1122.87 472.234C1124.31 473.297 1125.43 474.766 1126.22 476.641C1127.01 478.505 1127.4 480.646 1127.4 483.063C1127.4 485.479 1127 487.625 1126.2 489.5C1125.41 491.365 1124.29 492.833 1122.86 493.906C1121.43 494.969 1119.76 495.5 1117.84 495.5C1116.48 495.5 1115.28 495.24 1114.25 494.719C1113.23 494.198 1112.37 493.505 1111.67 492.641C1110.98 491.766 1110.46 490.807 1110.09 489.766H1109.9V504H1108ZM1109.87 483.047C1109.87 485.089 1110.19 486.917 1110.81 488.531C1111.44 490.135 1112.33 491.406 1113.5 492.344C1114.66 493.271 1116.06 493.734 1117.67 493.734C1119.31 493.734 1120.71 493.266 1121.87 492.328C1123.05 491.38 1123.95 490.099 1124.56 488.484C1125.19 486.87 1125.5 485.057 1125.5 483.047C1125.5 481.036 1125.19 479.229 1124.58 477.625C1123.96 476.021 1123.07 474.755 1121.9 473.828C1120.74 472.891 1119.33 472.422 1117.67 472.422C1116.03 472.422 1114.63 472.885 1113.47 473.812C1112.31 474.729 1111.42 475.99 1110.79 477.594C1110.18 479.187 1109.87 481.005 1109.87 483.047ZM1149.37 486.484V471H1151.28V495H1149.37V491.109H1149.21C1148.65 492.349 1147.74 493.359 1146.48 494.141C1145.23 494.922 1143.75 495.313 1142.04 495.313C1140.47 495.313 1139.08 494.969 1137.87 494.281C1136.66 493.594 1135.71 492.62 1135.03 491.359C1134.34 490.089 1133.99 488.578 1133.99 486.828V471H1135.9V486.75C1135.9 488.75 1136.5 490.37 1137.71 491.609C1138.93 492.839 1140.5 493.453 1142.43 493.453C1143.68 493.453 1144.83 493.172 1145.88 492.609C1146.94 492.047 1147.78 491.245 1148.42 490.203C1149.05 489.151 1149.37 487.911 1149.37 486.484ZM1167.66 471V472.703H1157.17V471H1167.66ZM1160.72 465.25H1162.61V489.328C1162.61 490.307 1162.8 491.109 1163.17 491.734C1163.56 492.349 1164.06 492.807 1164.67 493.109C1165.3 493.401 1165.97 493.547 1166.67 493.547C1167.02 493.547 1167.31 493.521 1167.56 493.469C1167.82 493.417 1168.07 493.349 1168.3 493.266L1168.77 495C1168.48 495.104 1168.15 495.193 1167.8 495.266C1167.44 495.349 1167.03 495.391 1166.55 495.391C1165.55 495.391 1164.6 495.167 1163.71 494.719C1162.82 494.271 1162.1 493.62 1161.55 492.766C1161 491.911 1160.72 490.88 1160.72 489.672V465.25Z" fill="white"/>
</svg>
