<svg width="1609" height="814" viewBox="0 0 1609 814" fill="none" xmlns="http://www.w3.org/2000/svg" style="background-color: #3c3c3c;">
<rect width="1609" height="814" fill="#3C3C3C"/>
<path d="M557.085 117V79.1818H580.795V84.0938H562.79V95.6165H579.558V100.51H562.79V112.088H581.016V117H557.085ZM596.228 117.628C594.43 117.628 592.805 117.295 591.353 116.631C589.9 115.954 588.749 114.975 587.9 113.695C587.062 112.414 586.644 110.845 586.644 108.986C586.644 107.385 586.952 106.068 587.567 105.034C588.183 104 589.014 103.181 590.06 102.578C591.106 101.975 592.276 101.519 593.569 101.212C594.861 100.904 596.178 100.67 597.52 100.51C599.219 100.313 600.598 100.153 601.657 100.03C602.715 99.8944 603.485 99.679 603.965 99.3835C604.445 99.0881 604.685 98.608 604.685 97.9432V97.8139C604.685 96.2012 604.23 94.9517 603.319 94.0653C602.42 93.179 601.078 92.7358 599.293 92.7358C597.434 92.7358 595.969 93.1482 594.898 93.973C593.839 94.7855 593.107 95.6903 592.701 96.6875L587.512 95.5057C588.127 93.7822 589.026 92.3911 590.208 91.3324C591.402 90.2614 592.775 89.4858 594.326 89.0057C595.877 88.5133 597.508 88.267 599.219 88.267C600.352 88.267 601.552 88.4025 602.82 88.6733C604.1 88.9318 605.294 89.4119 606.402 90.1136C607.523 90.8153 608.44 91.8187 609.154 93.1236C609.868 94.4162 610.225 96.0966 610.225 98.1648V117H604.833V113.122H604.611C604.254 113.836 603.719 114.538 603.005 115.227C602.291 115.917 601.373 116.489 600.253 116.945C599.133 117.4 597.791 117.628 596.228 117.628ZM597.428 113.196C598.954 113.196 600.259 112.894 601.343 112.291C602.438 111.688 603.269 110.9 603.836 109.928C604.414 108.943 604.703 107.89 604.703 106.77V103.114C604.507 103.311 604.125 103.495 603.559 103.668C603.005 103.828 602.371 103.969 601.657 104.092C600.943 104.203 600.247 104.308 599.57 104.406C598.893 104.492 598.327 104.566 597.871 104.628C596.8 104.763 595.821 104.991 594.935 105.311C594.061 105.631 593.359 106.093 592.83 106.696C592.313 107.287 592.054 108.075 592.054 109.06C592.054 110.426 592.559 111.46 593.569 112.162C594.578 112.851 595.864 113.196 597.428 113.196ZM629.526 117.572C626.781 117.572 624.417 116.951 622.435 115.707C620.466 114.452 618.951 112.722 617.893 110.518C616.834 108.315 616.305 105.791 616.305 102.947C616.305 100.067 616.846 97.5246 617.93 95.321C619.013 93.1051 620.54 91.3755 622.509 90.1321C624.479 88.8887 626.799 88.267 629.471 88.267C631.625 88.267 633.546 88.6671 635.232 89.4673C636.919 90.2552 638.279 91.3632 639.313 92.7912C640.36 94.2192 640.981 95.8873 641.178 97.7955H635.805C635.509 96.4659 634.832 95.321 633.773 94.3608C632.727 93.4006 631.324 92.9205 629.563 92.9205C628.024 92.9205 626.676 93.3267 625.519 94.1392C624.374 94.9394 623.482 96.0843 622.842 97.5739C622.201 99.0511 621.881 100.799 621.881 102.818C621.881 104.886 622.195 106.671 622.823 108.173C623.451 109.675 624.337 110.839 625.482 111.663C626.639 112.488 628 112.901 629.563 112.901C630.61 112.901 631.558 112.71 632.407 112.328C633.269 111.934 633.989 111.374 634.567 110.648C635.158 109.921 635.571 109.047 635.805 108.026H641.178C640.981 109.86 640.384 111.497 639.387 112.938C638.39 114.378 637.054 115.51 635.38 116.335C633.718 117.16 631.767 117.572 629.526 117.572ZM652.604 100.159V117H647.083V79.1818H652.53V93.2528H652.881C653.546 91.7263 654.561 90.5137 655.928 89.6151C657.294 88.7164 659.079 88.267 661.283 88.267C663.228 88.267 664.927 88.6671 666.38 89.4673C667.845 90.2675 668.977 91.4616 669.777 93.0497C670.59 94.6255 670.996 96.5952 670.996 98.9588V117H665.475V99.6236C665.475 97.5431 664.939 95.9304 663.868 94.7855C662.797 93.6283 661.308 93.0497 659.4 93.0497C658.095 93.0497 656.925 93.3267 655.891 93.8807C654.869 94.4347 654.063 95.2472 653.472 96.3182C652.893 97.3769 652.604 98.6572 652.604 100.159ZM692.126 117V88.6364H697.647V117H692.126ZM694.914 84.2599C693.954 84.2599 693.129 83.9399 692.44 83.2997C691.763 82.6473 691.424 81.8717 691.424 80.973C691.424 80.062 691.763 79.2865 692.44 78.6463C693.129 77.9938 693.954 77.6676 694.914 77.6676C695.874 77.6676 696.693 77.9938 697.37 78.6463C698.059 79.2865 698.404 80.062 698.404 80.973C698.404 81.8717 698.059 82.6473 697.37 83.2997C696.693 83.9399 695.874 84.2599 694.914 84.2599ZM710.596 100.159V117H705.075V88.6364H710.375V93.2528H710.725C711.378 91.7509 712.4 90.5445 713.791 89.6335C715.194 88.7225 716.961 88.267 719.091 88.267C721.023 88.267 722.716 88.6733 724.169 89.4858C725.621 90.286 726.748 91.4801 727.548 93.0682C728.348 94.6562 728.748 96.6198 728.748 98.9588V117H723.227V99.6236C723.227 97.5677 722.691 95.9612 721.62 94.804C720.549 93.6345 719.078 93.0497 717.207 93.0497C715.927 93.0497 714.788 93.3267 713.791 93.8807C712.806 94.4347 712.024 95.2472 711.446 96.3182C710.879 97.3769 710.596 98.6572 710.596 100.159ZM736.153 127.636V88.6364H741.545V93.2344H742.007C742.327 92.6435 742.788 91.9602 743.392 91.1847C743.995 90.4091 744.832 89.732 745.903 89.1534C746.974 88.5625 748.39 88.267 750.15 88.267C752.44 88.267 754.484 88.8456 756.281 90.0028C758.078 91.16 759.488 92.8281 760.51 95.0071C761.544 97.1861 762.061 99.8082 762.061 102.874C762.061 105.939 761.55 108.567 760.528 110.759C759.506 112.937 758.103 114.618 756.318 115.8C754.533 116.969 752.495 117.554 750.206 117.554C748.482 117.554 747.073 117.265 745.977 116.686C744.894 116.107 744.044 115.43 743.429 114.655C742.813 113.879 742.339 113.19 742.007 112.587H741.674V127.636H736.153ZM741.564 102.818C741.564 104.812 741.853 106.561 742.431 108.062C743.01 109.564 743.847 110.74 744.943 111.589C746.038 112.427 747.38 112.845 748.968 112.845C750.618 112.845 751.997 112.408 753.105 111.534C754.213 110.648 755.05 109.447 755.616 107.933C756.195 106.419 756.484 104.714 756.484 102.818C756.484 100.947 756.201 99.2666 755.635 97.777C755.081 96.2874 754.243 95.1117 753.123 94.25C752.015 93.3883 750.63 92.9574 748.968 92.9574C747.368 92.9574 746.014 93.3698 744.906 94.1946C743.81 95.0194 742.979 96.1705 742.413 97.6477C741.847 99.125 741.564 100.848 741.564 102.818ZM786.214 105.237V88.6364H791.754V117H786.325V112.088H786.029C785.377 113.602 784.331 114.864 782.89 115.874C781.462 116.871 779.683 117.369 777.554 117.369C775.732 117.369 774.119 116.969 772.716 116.169C771.324 115.357 770.229 114.156 769.429 112.568C768.641 110.98 768.247 109.017 768.247 106.678V88.6364H773.768V106.013C773.768 107.946 774.304 109.484 775.375 110.629C776.446 111.774 777.837 112.347 779.548 112.347C780.582 112.347 781.61 112.088 782.632 111.571C783.666 111.054 784.521 110.272 785.199 109.226C785.888 108.179 786.226 106.85 786.214 105.237ZM812.413 88.6364V93.0682H796.92V88.6364H812.413ZM801.075 81.8409H806.596V108.672C806.596 109.743 806.756 110.549 807.076 111.091C807.396 111.62 807.808 111.983 808.313 112.18C808.83 112.365 809.39 112.457 809.994 112.457C810.437 112.457 810.825 112.427 811.157 112.365C811.489 112.304 811.748 112.254 811.933 112.217L812.93 116.778C812.61 116.902 812.154 117.025 811.563 117.148C810.972 117.283 810.234 117.357 809.347 117.369C807.895 117.394 806.54 117.135 805.285 116.594C804.029 116.052 803.013 115.215 802.238 114.082C801.462 112.95 801.075 111.528 801.075 109.817V81.8409ZM844.229 117.572C841.484 117.572 839.121 116.951 837.138 115.707C835.169 114.452 833.655 112.722 832.596 110.518C831.537 108.315 831.008 105.791 831.008 102.947C831.008 100.067 831.549 97.5246 832.633 95.321C833.716 93.1051 835.243 91.3755 837.212 90.1321C839.182 88.8887 841.503 88.267 844.174 88.267C846.328 88.267 848.249 88.6671 849.935 89.4673C851.622 90.2552 852.982 91.3632 854.016 92.7912C855.063 94.2192 855.684 95.8873 855.881 97.7955H850.508C850.212 96.4659 849.535 95.321 848.477 94.3608C847.43 93.4006 846.027 92.9205 844.266 92.9205C842.728 92.9205 841.379 93.3267 840.222 94.1392C839.077 94.9394 838.185 96.0843 837.545 97.5739C836.905 99.0511 836.585 100.799 836.585 102.818C836.585 104.886 836.898 106.671 837.526 108.173C838.154 109.675 839.04 110.839 840.185 111.663C841.343 112.488 842.703 112.901 844.266 112.901C845.313 112.901 846.261 112.71 847.11 112.328C847.972 111.934 848.692 111.374 849.271 110.648C849.862 109.921 850.274 109.047 850.508 108.026H855.881C855.684 109.86 855.087 111.497 854.09 112.938C853.093 114.378 851.757 115.51 850.083 116.335C848.421 117.16 846.47 117.572 844.229 117.572ZM873.733 117.572C871.074 117.572 868.754 116.963 866.772 115.744C864.79 114.526 863.251 112.821 862.155 110.629C861.06 108.438 860.512 105.877 860.512 102.947C860.512 100.005 861.06 97.4323 862.155 95.2287C863.251 93.0251 864.79 91.3139 866.772 90.0952C868.754 88.8764 871.074 88.267 873.733 88.267C876.392 88.267 878.713 88.8764 880.695 90.0952C882.677 91.3139 884.216 93.0251 885.311 95.2287C886.407 97.4323 886.955 100.005 886.955 102.947C886.955 105.877 886.407 108.438 885.311 110.629C884.216 112.821 882.677 114.526 880.695 115.744C878.713 116.963 876.392 117.572 873.733 117.572ZM873.752 112.938C875.475 112.938 876.903 112.482 878.036 111.571C879.168 110.66 880.006 109.447 880.547 107.933C881.101 106.419 881.378 104.751 881.378 102.929C881.378 101.119 881.101 99.4574 880.547 97.9432C880.006 96.4167 879.168 95.1918 878.036 94.2685C876.903 93.3452 875.475 92.8835 873.752 92.8835C872.016 92.8835 870.576 93.3452 869.431 94.2685C868.298 95.1918 867.455 96.4167 866.901 97.9432C866.359 99.4574 866.088 101.119 866.088 102.929C866.088 104.751 866.359 106.419 866.901 107.933C867.455 109.447 868.298 110.66 869.431 111.571C870.576 112.482 872.016 112.938 873.752 112.938ZM898.639 100.159V117H893.118V88.6364H898.418V93.2528H898.768C899.421 91.7509 900.443 90.5445 901.834 89.6335C903.237 88.7225 905.004 88.267 907.134 88.267C909.066 88.267 910.759 88.6733 912.212 89.4858C913.664 90.286 914.791 91.4801 915.591 93.0682C916.391 94.6562 916.791 96.6198 916.791 98.9588V117H911.27V99.6236C911.27 97.5677 910.734 95.9612 909.663 94.804C908.592 93.6345 907.121 93.0497 905.25 93.0497C903.97 93.0497 902.831 93.3267 901.834 93.8807C900.849 94.4347 900.067 95.2472 899.489 96.3182C898.922 97.3769 898.639 98.6572 898.639 100.159ZM937.436 88.6364V93.0682H921.943V88.6364H937.436ZM926.098 81.8409H931.619V108.672C931.619 109.743 931.779 110.549 932.099 111.091C932.42 111.62 932.832 111.983 933.337 112.18C933.854 112.365 934.414 112.457 935.017 112.457C935.46 112.457 935.848 112.427 936.18 112.365C936.513 112.304 936.771 112.254 936.956 112.217L937.953 116.778C937.633 116.902 937.178 117.025 936.587 117.148C935.996 117.283 935.257 117.357 934.371 117.369C932.918 117.394 931.564 117.135 930.308 116.594C929.053 116.052 928.037 115.215 927.261 114.082C926.486 112.95 926.098 111.528 926.098 109.817V81.8409ZM951.798 117.628C950.001 117.628 948.376 117.295 946.923 116.631C945.47 115.954 944.319 114.975 943.47 113.695C942.633 112.414 942.214 110.845 942.214 108.986C942.214 107.385 942.522 106.068 943.137 105.034C943.753 104 944.584 103.181 945.63 102.578C946.677 101.975 947.846 101.519 949.139 101.212C950.431 100.904 951.749 100.67 953.091 100.51C954.789 100.313 956.168 100.153 957.227 100.03C958.286 99.8944 959.055 99.679 959.535 99.3835C960.015 99.0881 960.255 98.608 960.255 97.9432V97.8139C960.255 96.2012 959.8 94.9517 958.889 94.0653C957.99 93.179 956.648 92.7358 954.863 92.7358C953.004 92.7358 951.539 93.1482 950.468 93.973C949.41 94.7855 948.677 95.6903 948.271 96.6875L943.082 95.5057C943.698 93.7822 944.596 92.3911 945.778 91.3324C946.972 90.2614 948.345 89.4858 949.896 89.0057C951.447 88.5133 953.078 88.267 954.789 88.267C955.922 88.267 957.122 88.4025 958.39 88.6733C959.671 88.9318 960.865 89.4119 961.973 90.1136C963.093 90.8153 964.01 91.8187 964.724 93.1236C965.438 94.4162 965.795 96.0966 965.795 98.1648V117H960.403V113.122H960.181C959.824 113.836 959.289 114.538 958.575 115.227C957.861 115.917 956.944 116.489 955.824 116.945C954.703 117.4 953.361 117.628 951.798 117.628ZM952.998 113.196C954.525 113.196 955.83 112.894 956.913 112.291C958.009 111.688 958.84 110.9 959.406 109.928C959.984 108.943 960.274 107.89 960.274 106.77V103.114C960.077 103.311 959.695 103.495 959.129 103.668C958.575 103.828 957.941 103.969 957.227 104.092C956.513 104.203 955.817 104.308 955.14 104.406C954.463 104.492 953.897 104.566 953.441 104.628C952.37 104.763 951.392 104.991 950.505 105.311C949.631 105.631 948.93 106.093 948.4 106.696C947.883 107.287 947.625 108.075 947.625 109.06C947.625 110.426 948.129 111.46 949.139 112.162C950.148 112.851 951.435 113.196 952.998 113.196ZM973.149 117V88.6364H978.67V117H973.149ZM975.938 84.2599C974.977 84.2599 974.152 83.9399 973.463 83.2997C972.786 82.6473 972.447 81.8717 972.447 80.973C972.447 80.062 972.786 79.2865 973.463 78.6463C974.152 77.9938 974.977 77.6676 975.938 77.6676C976.898 77.6676 977.716 77.9938 978.393 78.6463C979.083 79.2865 979.428 80.062 979.428 80.973C979.428 81.8717 979.083 82.6473 978.393 83.2997C977.716 83.9399 976.898 84.2599 975.938 84.2599ZM991.62 100.159V117H986.098V88.6364H991.398V93.2528H991.749C992.401 91.7509 993.423 90.5445 994.814 89.6335C996.218 88.7225 997.984 88.267 1000.11 88.267C1002.05 88.267 1003.74 88.6733 1005.19 89.4858C1006.64 90.286 1007.77 91.4801 1008.57 93.0682C1009.37 94.6562 1009.77 96.6198 1009.77 98.9588V117H1004.25V99.6236C1004.25 97.5677 1003.71 95.9612 1002.64 94.804C1001.57 93.6345 1000.1 93.0497 998.23 93.0497C996.95 93.0497 995.811 93.3267 994.814 93.8807C993.829 94.4347 993.048 95.2472 992.469 96.3182C991.903 97.3769 991.62 98.6572 991.62 100.159ZM1038.43 95.5611L1033.43 96.4474C1033.22 95.8073 1032.88 95.1979 1032.43 94.6193C1031.99 94.0407 1031.38 93.5668 1030.62 93.1974C1029.86 92.8281 1028.9 92.6435 1027.76 92.6435C1026.19 92.6435 1024.89 92.9943 1023.84 93.696C1022.8 94.3854 1022.27 95.2779 1022.27 96.3736C1022.27 97.3215 1022.62 98.0848 1023.33 98.6634C1024.03 99.242 1025.16 99.7159 1026.72 100.085L1031.23 101.119C1033.84 101.723 1035.78 102.652 1037.06 103.908C1038.34 105.163 1038.98 106.795 1038.98 108.801C1038.98 110.5 1038.49 112.014 1037.51 113.344C1036.53 114.661 1035.17 115.695 1033.43 116.446C1031.69 117.197 1029.68 117.572 1027.39 117.572C1024.21 117.572 1021.62 116.895 1019.61 115.541C1017.61 114.175 1016.38 112.236 1015.92 109.724L1021.26 108.912C1021.59 110.303 1022.27 111.356 1023.31 112.07C1024.34 112.771 1025.69 113.122 1027.35 113.122C1029.16 113.122 1030.61 112.747 1031.69 111.996C1032.77 111.232 1033.32 110.303 1033.32 109.207C1033.32 108.321 1032.98 107.576 1032.32 106.973C1031.67 106.37 1030.66 105.914 1029.31 105.607L1024.51 104.554C1021.86 103.951 1019.9 102.991 1018.64 101.673C1017.38 100.356 1016.75 98.688 1016.75 96.669C1016.75 94.9948 1017.22 93.5298 1018.16 92.2741C1019.09 91.0185 1020.38 90.0398 1022.03 89.3381C1023.68 88.6241 1025.57 88.267 1027.7 88.267C1030.77 88.267 1033.18 88.9318 1034.94 90.2614C1036.7 91.5786 1037.86 93.3452 1038.43 95.5611ZM1048.69 117.351C1047.68 117.351 1046.82 116.994 1046.09 116.28C1045.36 115.554 1045 114.679 1045 113.658C1045 112.648 1045.36 111.786 1046.09 111.072C1046.82 110.346 1047.68 109.983 1048.69 109.983C1049.7 109.983 1050.57 110.346 1051.3 111.072C1052.02 111.786 1052.39 112.648 1052.39 113.658C1052.39 114.335 1052.21 114.956 1051.87 115.523C1051.54 116.077 1051.09 116.52 1050.54 116.852C1049.99 117.185 1049.37 117.351 1048.69 117.351ZM1048.69 96.706C1047.68 96.706 1046.82 96.3428 1046.09 95.6165C1045.36 94.8902 1045 94.0223 1045 93.0128C1045 92.0033 1045.36 91.1416 1046.09 90.4276C1046.82 89.7012 1047.68 89.3381 1048.69 89.3381C1049.7 89.3381 1050.57 89.7012 1051.3 90.4276C1052.02 91.1416 1052.39 92.0033 1052.39 93.0128C1052.39 93.6899 1052.21 94.3116 1051.87 94.8778C1051.54 95.4318 1051.09 95.875 1050.54 96.2074C1049.99 96.5398 1049.37 96.706 1048.69 96.706Z" fill="white"/>
<path d="M672.5 177.266C671.708 177.266 670.989 177.077 670.341 176.7C669.693 176.313 669.176 175.795 668.789 175.148C668.411 174.491 668.222 173.771 668.222 172.989C668.222 172.197 668.411 171.477 668.789 170.83C669.176 170.182 669.693 169.669 670.341 169.291C670.989 168.904 671.708 168.711 672.5 168.711C673.283 168.711 673.998 168.904 674.646 169.291C675.302 169.669 675.824 170.182 676.211 170.83C676.598 171.477 676.787 172.197 676.778 172.989C676.778 173.771 676.584 174.491 676.197 175.148C675.811 175.795 675.293 176.313 674.646 176.7C673.998 177.077 673.283 177.266 672.5 177.266ZM704.994 184V156.364H713.509C715.263 156.364 716.766 156.723 718.016 157.443C719.276 158.163 720.243 159.148 720.918 160.398C721.592 161.649 721.93 163.075 721.93 164.676C721.93 166.259 721.592 167.676 720.918 168.927C720.243 170.177 719.276 171.167 718.016 171.896C716.766 172.615 715.268 172.975 713.523 172.975H706.182V171.41H713.482C714.904 171.41 716.118 171.122 717.126 170.546C718.133 169.961 718.907 169.165 719.447 168.158C719.987 167.141 720.256 165.981 720.256 164.676C720.256 163.363 719.987 162.198 719.447 161.181C718.907 160.165 718.129 159.368 717.112 158.793C716.105 158.217 714.89 157.929 713.469 157.929H706.681V184H704.994ZM727.83 184V163.273H729.436V166.511H729.584C730.034 165.45 730.794 164.6 731.865 163.961C732.935 163.313 734.154 162.989 735.522 162.989C735.666 162.989 735.81 162.989 735.954 162.989C736.098 162.989 736.233 162.994 736.358 163.003V164.663C736.251 164.654 736.12 164.64 735.967 164.622C735.823 164.595 735.643 164.582 735.427 164.582C734.276 164.582 733.25 164.829 732.351 165.324C731.46 165.819 730.758 166.502 730.246 167.375C729.733 168.239 729.476 169.228 729.476 170.344V184H727.83ZM748.233 184.432C746.362 184.432 744.734 183.969 743.349 183.042C741.963 182.115 740.893 180.847 740.137 179.237C739.381 177.626 739.003 175.791 739.003 173.731C739.003 171.662 739.381 169.817 740.137 168.198C740.902 166.579 741.95 165.301 743.281 164.366C744.613 163.43 746.133 162.962 747.842 162.962C749.003 162.962 750.1 163.196 751.135 163.664C752.178 164.123 753.096 164.789 753.888 165.661C754.688 166.534 755.314 167.586 755.763 168.819C756.222 170.051 756.452 171.437 756.452 172.975V174.001H740.042V172.503H754.805C754.805 171 754.499 169.647 753.888 168.441C753.276 167.236 752.444 166.277 751.391 165.567C750.339 164.856 749.156 164.501 747.842 164.501C746.466 164.501 745.238 164.888 744.158 165.661C743.088 166.426 742.238 167.46 741.608 168.765C740.987 170.069 740.663 171.527 740.636 173.137V173.812C740.636 175.539 740.938 177.091 741.54 178.467C742.152 179.835 743.025 180.919 744.158 181.719C745.292 182.511 746.65 182.907 748.233 182.907C749.367 182.907 750.334 182.718 751.135 182.34C751.944 181.953 752.606 181.486 753.118 180.937C753.631 180.388 754.018 179.857 754.279 179.344L755.777 179.952C755.462 180.644 754.972 181.337 754.306 182.03C753.649 182.714 752.813 183.285 751.796 183.744C750.788 184.202 749.601 184.432 748.233 184.432ZM776.642 163.273L769.153 184H767.291L759.801 163.273H761.569L768.154 181.881H768.289L774.875 163.273H776.642ZM781.868 184V163.273H783.501V184H781.868ZM782.691 159.602C782.331 159.602 782.017 159.476 781.747 159.224C781.486 158.973 781.355 158.667 781.355 158.307C781.355 157.947 781.486 157.641 781.747 157.389C782.008 157.137 782.322 157.011 782.691 157.011C783.051 157.011 783.361 157.137 783.622 157.389C783.892 157.641 784.027 157.947 784.027 158.307C784.027 158.667 783.897 158.973 783.636 159.224C783.375 159.476 783.06 159.602 782.691 159.602ZM798.102 184.432C796.392 184.432 794.872 183.973 793.541 183.055C792.209 182.129 791.161 180.856 790.396 179.237C789.632 177.617 789.249 175.773 789.249 173.704C789.249 171.626 789.632 169.781 790.396 168.171C791.161 166.552 792.209 165.279 793.541 164.352C794.872 163.426 796.392 162.962 798.102 162.962C799.811 162.962 801.331 163.426 802.663 164.352C803.994 165.279 805.042 166.552 805.807 168.171C806.572 169.79 806.954 171.635 806.954 173.704C806.954 175.773 806.572 177.617 805.807 179.237C805.042 180.856 803.994 182.129 802.663 183.055C801.331 183.973 799.811 184.432 798.102 184.432ZM798.102 182.907C799.55 182.907 800.814 182.498 801.894 181.679C802.982 180.86 803.823 179.754 804.417 178.359C805.02 176.965 805.321 175.413 805.321 173.704C805.321 171.995 805.02 170.447 804.417 169.062C803.814 167.667 802.973 166.561 801.894 165.742C800.814 164.915 799.55 164.501 798.102 164.501C796.653 164.501 795.389 164.915 794.31 165.742C793.23 166.561 792.389 167.667 791.786 169.062C791.184 170.447 790.882 171.995 790.882 173.704C790.882 175.413 791.179 176.965 791.773 178.359C792.376 179.754 793.217 180.86 794.296 181.679C795.385 182.498 796.653 182.907 798.102 182.907ZM825.903 176.646V163.273H827.55V184H825.903V180.64H825.768C825.283 181.71 824.496 182.583 823.407 183.258C822.327 183.933 821.05 184.27 819.575 184.27C818.216 184.27 817.015 183.973 815.972 183.379C814.928 182.786 814.109 181.944 813.516 180.856C812.922 179.758 812.625 178.454 812.625 176.942V163.273H814.271V176.875C814.271 178.602 814.793 180.001 815.837 181.072C816.889 182.133 818.248 182.664 819.912 182.664C820.991 182.664 821.986 182.421 822.894 181.935C823.803 181.45 824.531 180.757 825.08 179.857C825.629 178.949 825.903 177.878 825.903 176.646ZM847.542 167.739L846.017 168.144C845.774 167.388 845.427 166.736 844.978 166.188C844.528 165.639 843.961 165.216 843.277 164.919C842.603 164.613 841.793 164.46 840.848 164.46C839.328 164.46 838.082 164.838 837.11 165.594C836.148 166.349 835.667 167.335 835.667 168.549C835.667 169.539 835.995 170.357 836.652 171.005C837.308 171.644 838.311 172.129 839.661 172.462L842.846 173.259C844.483 173.663 845.715 174.32 846.543 175.229C847.371 176.128 847.784 177.248 847.784 178.589C847.784 179.731 847.474 180.743 846.853 181.625C846.233 182.507 845.373 183.195 844.276 183.69C843.187 184.184 841.919 184.432 840.471 184.432C838.536 184.432 836.949 183.982 835.707 183.082C834.466 182.174 833.669 180.874 833.319 179.183L834.897 178.778C835.194 180.127 835.81 181.157 836.746 181.868C837.691 182.57 838.928 182.92 840.457 182.92C842.148 182.92 843.511 182.52 844.546 181.719C845.589 180.919 846.111 179.893 846.111 178.643C846.111 177.689 845.805 176.884 845.194 176.227C844.582 175.571 843.655 175.089 842.414 174.783L839.108 173.974C837.416 173.56 836.148 172.899 835.302 171.99C834.457 171.072 834.034 169.943 834.034 168.603C834.034 167.487 834.326 166.507 834.911 165.661C835.496 164.816 836.301 164.154 837.326 163.678C838.352 163.201 839.526 162.962 840.848 162.962C842.603 162.962 844.033 163.376 845.14 164.204C846.246 165.031 847.047 166.21 847.542 167.739ZM871.497 163.273V164.744H862.443V163.273H871.497ZM865.506 158.307H867.139V179.102C867.139 179.947 867.301 180.64 867.624 181.18C867.957 181.71 868.389 182.106 868.92 182.367C869.46 182.619 870.035 182.745 870.647 182.745C870.944 182.745 871.2 182.723 871.416 182.678C871.641 182.633 871.853 182.574 872.051 182.502L872.455 184C872.204 184.09 871.925 184.166 871.619 184.229C871.313 184.301 870.953 184.337 870.539 184.337C869.676 184.337 868.857 184.144 868.083 183.757C867.319 183.37 866.698 182.808 866.221 182.07C865.744 181.333 865.506 180.442 865.506 179.398V158.307ZM878.224 163.273L883.946 172.489L889.667 163.273H891.57L884.931 173.636L891.57 184H889.667L883.946 174.932L878.224 184H876.308L882.92 173.636L876.308 163.273H878.224ZM907.854 184V163.273H909.487V184H907.854ZM908.678 159.602C908.318 159.602 908.003 159.476 907.733 159.224C907.472 158.973 907.342 158.667 907.342 158.307C907.342 157.947 907.472 157.641 907.733 157.389C907.994 157.137 908.309 157.011 908.678 157.011C909.037 157.011 909.348 157.137 909.609 157.389C909.879 157.641 910.013 157.947 910.013 158.307C910.013 158.667 909.883 158.973 909.622 159.224C909.361 159.476 909.046 159.602 908.678 159.602ZM923.494 184.432C921.83 184.432 920.377 183.973 919.136 183.055C917.894 182.138 916.932 180.874 916.248 179.263C915.573 177.644 915.236 175.786 915.236 173.69C915.236 171.612 915.578 169.768 916.261 168.158C916.954 166.538 917.921 165.27 919.163 164.352C920.404 163.426 921.853 162.962 923.508 162.962C924.695 162.962 925.725 163.192 926.598 163.651C927.48 164.1 928.217 164.699 928.811 165.445C929.414 166.192 929.873 167.011 930.188 167.901H930.349V156.364H931.982V184H930.39V179.479H930.188C929.855 180.37 929.391 181.193 928.798 181.949C928.204 182.696 927.466 183.298 926.585 183.757C925.703 184.207 924.673 184.432 923.494 184.432ZM923.643 182.907C925.046 182.907 926.247 182.507 927.246 181.706C928.253 180.896 929.022 179.799 929.553 178.413C930.093 177.019 930.363 175.44 930.363 173.677C930.363 171.914 930.093 170.344 929.553 168.967C929.022 167.582 928.253 166.493 927.246 165.702C926.247 164.901 925.046 164.501 923.643 164.501C922.221 164.501 921.002 164.906 919.986 165.715C918.978 166.516 918.205 167.609 917.665 168.994C917.134 170.38 916.869 171.941 916.869 173.677C916.869 175.413 917.134 176.978 917.665 178.373C918.205 179.767 918.978 180.874 919.986 181.692C921.002 182.502 922.221 182.907 923.643 182.907ZM672.5 223.266C671.708 223.266 670.989 223.077 670.341 222.7C669.693 222.313 669.176 221.795 668.789 221.148C668.411 220.491 668.222 219.771 668.222 218.989C668.222 218.197 668.411 217.477 668.789 216.83C669.176 216.182 669.693 215.669 670.341 215.291C670.989 214.904 671.708 214.711 672.5 214.711C673.283 214.711 673.998 214.904 674.646 215.291C675.302 215.669 675.824 216.182 676.211 216.83C676.598 217.477 676.787 218.197 676.778 218.989C676.778 219.771 676.584 220.491 676.197 221.148C675.811 221.795 675.293 222.313 674.646 222.7C673.998 223.077 673.283 223.266 672.5 223.266ZM726.977 216.182C726.977 219.034 726.482 221.526 725.492 223.658C724.503 225.781 723.126 227.432 721.363 228.61C719.609 229.789 717.585 230.378 715.29 230.378C712.987 230.378 710.954 229.789 709.191 228.61C707.437 227.423 706.065 225.767 705.075 223.644C704.086 221.512 703.591 219.025 703.591 216.182C703.591 213.33 704.086 210.843 705.075 208.719C706.074 206.596 707.45 204.946 709.205 203.767C710.959 202.58 712.987 201.986 715.29 201.986C717.585 201.986 719.609 202.575 721.363 203.754C723.126 204.932 724.503 206.587 725.492 208.719C726.482 210.843 726.977 213.33 726.977 216.182ZM725.33 216.182C725.33 213.618 724.898 211.396 724.035 209.516C723.18 207.635 721.997 206.183 720.486 205.157C718.974 204.122 717.243 203.605 715.29 203.605C713.338 203.605 711.607 204.118 710.095 205.143C708.584 206.16 707.396 207.613 706.533 209.502C705.678 211.382 705.251 213.609 705.251 216.182C705.251 218.728 705.674 220.945 706.519 222.835C707.374 224.715 708.557 226.172 710.068 227.207C711.58 228.241 713.32 228.759 715.29 228.759C717.243 228.759 718.974 228.246 720.486 227.22C721.997 226.186 723.18 224.728 724.035 222.848C724.898 220.968 725.33 218.746 725.33 216.182ZM746.267 222.646V209.273H747.913V230H746.267V226.64H746.132C745.646 227.71 744.859 228.583 743.77 229.258C742.691 229.933 741.413 230.27 739.938 230.27C738.579 230.27 737.378 229.973 736.335 229.379C735.291 228.786 734.473 227.944 733.879 226.856C733.285 225.758 732.988 224.454 732.988 222.942V209.273H734.635V222.875C734.635 224.602 735.156 226.001 736.2 227.072C737.252 228.133 738.611 228.664 740.275 228.664C741.355 228.664 742.349 228.421 743.257 227.935C744.166 227.45 744.895 226.757 745.444 225.857C745.992 224.949 746.267 223.878 746.267 222.646ZM762.062 209.273V210.744H753.007V209.273H762.062ZM756.07 204.307H757.703V225.102C757.703 225.947 757.865 226.64 758.189 227.18C758.522 227.71 758.954 228.106 759.484 228.367C760.024 228.619 760.6 228.745 761.212 228.745C761.509 228.745 761.765 228.723 761.981 228.678C762.206 228.633 762.417 228.574 762.615 228.502L763.02 230C762.768 230.09 762.489 230.166 762.183 230.229C761.877 230.301 761.518 230.337 761.104 230.337C760.24 230.337 759.421 230.144 758.648 229.757C757.883 229.37 757.262 228.808 756.786 228.07C756.309 227.333 756.07 226.442 756.07 225.398V204.307ZM768.168 237.773V209.273H769.774V213.901H769.976C770.3 213.011 770.754 212.192 771.339 211.445C771.933 210.699 772.666 210.1 773.539 209.651C774.42 209.192 775.455 208.962 776.642 208.962C778.316 208.962 779.773 209.421 781.015 210.339C782.256 211.256 783.219 212.525 783.902 214.144C784.586 215.754 784.928 217.603 784.928 219.69C784.928 221.777 784.582 223.631 783.889 225.25C783.205 226.86 782.243 228.129 781.001 229.055C779.769 229.973 778.325 230.432 776.669 230.432C775.491 230.432 774.456 230.207 773.566 229.757C772.684 229.307 771.942 228.709 771.339 227.962C770.745 227.207 770.291 226.379 769.976 225.479H769.814V237.773H768.168ZM769.787 219.677C769.787 221.44 770.057 223.019 770.597 224.413C771.137 225.799 771.91 226.896 772.918 227.706C773.926 228.507 775.127 228.907 776.521 228.907C777.933 228.907 779.143 228.502 780.151 227.692C781.167 226.874 781.941 225.767 782.472 224.373C783.012 222.978 783.282 221.413 783.282 219.677C783.282 217.941 783.016 216.38 782.485 214.994C781.955 213.609 781.185 212.516 780.178 211.715C779.17 210.906 777.951 210.501 776.521 210.501C775.109 210.501 773.899 210.901 772.891 211.702C771.892 212.493 771.123 213.582 770.583 214.967C770.053 216.344 769.787 217.914 769.787 219.677ZM803.898 222.646V209.273H805.544V230H803.898V226.64H803.763C803.277 227.71 802.49 228.583 801.401 229.258C800.322 229.933 799.044 230.27 797.569 230.27C796.21 230.27 795.009 229.973 793.966 229.379C792.922 228.786 792.104 227.944 791.51 226.856C790.916 225.758 790.619 224.454 790.619 222.942V209.273H792.265V222.875C792.265 224.602 792.787 226.001 793.831 227.072C794.883 228.133 796.242 228.664 797.906 228.664C798.986 228.664 799.98 228.421 800.888 227.935C801.797 227.45 802.526 226.757 803.074 225.857C803.623 224.949 803.898 223.878 803.898 222.646ZM819.693 209.273V210.744H810.638V209.273H819.693ZM813.701 204.307H815.334V225.102C815.334 225.947 815.496 226.64 815.82 227.18C816.153 227.71 816.584 228.106 817.115 228.367C817.655 228.619 818.231 228.745 818.843 228.745C819.139 228.745 819.396 228.723 819.612 228.678C819.837 228.633 820.048 228.574 820.246 228.502L820.651 230C820.399 230.09 820.12 230.166 819.814 230.229C819.508 230.301 819.148 230.337 818.735 230.337C817.871 230.337 817.052 230.144 816.279 229.757C815.514 229.37 814.893 228.808 814.416 228.07C813.94 227.333 813.701 226.442 813.701 225.398V204.307ZM838.753 202.364V230H837.067V202.364H838.753ZM847.818 216.56V230H846.172V209.273H847.778V212.552H847.94C848.425 211.481 849.204 210.622 850.274 209.974C851.345 209.327 852.618 209.003 854.093 209.003C855.487 209.003 856.711 209.3 857.763 209.893C858.825 210.487 859.653 211.333 860.246 212.43C860.849 213.519 861.151 214.819 861.151 216.33V230H859.504V216.398C859.504 214.634 858.978 213.218 857.925 212.147C856.882 211.067 855.501 210.528 853.783 210.528C852.631 210.528 851.606 210.78 850.706 211.283C849.806 211.787 849.1 212.493 848.587 213.402C848.075 214.302 847.818 215.354 847.818 216.56ZM875.104 230.432C873.439 230.432 871.987 229.973 870.745 229.055C869.504 228.138 868.541 226.874 867.857 225.263C867.183 223.644 866.845 221.786 866.845 219.69C866.845 217.612 867.187 215.768 867.871 214.158C868.563 212.538 869.531 211.27 870.772 210.352C872.013 209.426 873.462 208.962 875.117 208.962C876.305 208.962 877.335 209.192 878.207 209.651C879.089 210.1 879.827 210.699 880.42 211.445C881.023 212.192 881.482 213.011 881.797 213.901H881.959V202.364H883.592V230H881.999V225.479H881.797C881.464 226.37 881.001 227.193 880.407 227.949C879.813 228.696 879.076 229.298 878.194 229.757C877.312 230.207 876.282 230.432 875.104 230.432ZM875.252 228.907C876.656 228.907 877.857 228.507 878.855 227.706C879.863 226.896 880.632 225.799 881.163 224.413C881.702 223.019 881.972 221.44 881.972 219.677C881.972 217.914 881.702 216.344 881.163 214.967C880.632 213.582 879.863 212.493 878.855 211.702C877.857 210.901 876.656 210.501 875.252 210.501C873.831 210.501 872.612 210.906 871.595 211.715C870.588 212.516 869.814 213.609 869.274 214.994C868.743 216.38 868.478 217.941 868.478 219.677C868.478 221.413 868.743 222.978 869.274 224.373C869.814 225.767 870.588 226.874 871.595 227.692C872.612 228.502 873.831 228.907 875.252 228.907ZM899.083 230.432C897.212 230.432 895.584 229.969 894.198 229.042C892.813 228.115 891.742 226.847 890.987 225.237C890.231 223.626 889.853 221.791 889.853 219.731C889.853 217.662 890.231 215.817 890.987 214.198C891.751 212.579 892.799 211.301 894.131 210.366C895.462 209.43 896.982 208.962 898.692 208.962C899.852 208.962 900.95 209.196 901.984 209.664C903.028 210.123 903.946 210.789 904.737 211.661C905.538 212.534 906.163 213.586 906.613 214.819C907.072 216.051 907.301 217.437 907.301 218.975V220.001H890.892V218.503H905.655C905.655 217 905.349 215.647 904.737 214.441C904.125 213.236 903.293 212.277 902.241 211.567C901.188 210.856 900.005 210.501 898.692 210.501C897.315 210.501 896.087 210.888 895.008 211.661C893.937 212.426 893.087 213.46 892.457 214.765C891.837 216.069 891.513 217.527 891.486 219.137V219.812C891.486 221.539 891.787 223.091 892.39 224.467C893.002 225.835 893.874 226.919 895.008 227.719C896.141 228.511 897.5 228.907 899.083 228.907C900.217 228.907 901.184 228.718 901.984 228.34C902.794 227.953 903.455 227.486 903.968 226.937C904.481 226.388 904.868 225.857 905.129 225.344L906.626 225.952C906.312 226.644 905.821 227.337 905.156 228.03C904.499 228.714 903.662 229.285 902.646 229.744C901.638 230.202 900.451 230.432 899.083 230.432ZM913.033 209.273L918.754 218.489L924.476 209.273H926.379L919.74 219.636L926.379 230H924.476L918.754 220.932L913.033 230H911.117L917.729 219.636L911.117 209.273H913.033ZM672.5 269.266C671.708 269.266 670.989 269.077 670.341 268.7C669.693 268.313 669.176 267.795 668.789 267.148C668.411 266.491 668.222 265.771 668.222 264.989C668.222 264.197 668.411 263.477 668.789 262.83C669.176 262.182 669.693 261.669 670.341 261.291C670.989 260.904 671.708 260.711 672.5 260.711C673.283 260.711 673.998 260.904 674.646 261.291C675.302 261.669 675.824 262.182 676.211 262.83C676.598 263.477 676.787 264.197 676.778 264.989C676.778 265.771 676.584 266.491 676.197 267.148C675.811 267.795 675.293 268.313 674.646 268.7C673.998 269.077 673.283 269.266 672.5 269.266ZM719.892 255.273C719.748 253.554 719.046 252.165 717.787 251.103C716.536 250.041 714.917 249.511 712.929 249.511C711.589 249.511 710.397 249.758 709.353 250.253C708.309 250.748 707.491 251.422 706.897 252.277C706.303 253.132 706.006 254.112 706.006 255.219C706.006 255.929 706.141 256.573 706.411 257.148C706.69 257.715 707.081 258.223 707.585 258.673C708.089 259.114 708.687 259.501 709.38 259.834C710.073 260.167 710.837 260.459 711.674 260.711L714.697 261.602C715.731 261.916 716.685 262.281 717.558 262.695C718.439 263.108 719.204 263.603 719.852 264.179C720.508 264.746 721.017 265.411 721.376 266.176C721.745 266.941 721.93 267.822 721.93 268.821C721.93 270.278 721.552 271.583 720.796 272.734C720.049 273.886 718.983 274.795 717.598 275.46C716.222 276.117 714.598 276.445 712.727 276.445C710.945 276.445 709.393 276.144 708.071 275.541C706.758 274.938 705.719 274.102 704.954 273.031C704.189 271.952 703.757 270.71 703.658 269.307H705.386C705.476 270.449 705.84 271.439 706.479 272.276C707.126 273.103 707.986 273.742 709.056 274.192C710.127 274.642 711.35 274.866 712.727 274.866C714.211 274.866 715.52 274.615 716.653 274.111C717.787 273.598 718.673 272.887 719.312 271.979C719.951 271.07 720.27 270.013 720.27 268.808C720.27 267.836 720.04 267.004 719.582 266.311C719.123 265.618 718.444 265.02 717.544 264.516C716.653 264.013 715.547 263.563 714.224 263.167L710.999 262.195C708.84 261.539 707.189 260.643 706.047 259.51C704.913 258.376 704.347 256.964 704.347 255.273C704.347 253.851 704.724 252.592 705.48 251.494C706.236 250.388 707.261 249.52 708.557 248.89C709.861 248.26 711.332 247.945 712.969 247.945C714.616 247.945 716.069 248.265 717.328 248.903C718.588 249.533 719.586 250.401 720.324 251.508C721.062 252.605 721.471 253.86 721.552 255.273H719.892ZM728.097 276V255.273H729.729V276H728.097ZM728.92 251.602C728.56 251.602 728.245 251.476 727.975 251.224C727.714 250.973 727.584 250.667 727.584 250.307C727.584 249.947 727.714 249.641 727.975 249.389C728.236 249.137 728.551 249.011 728.92 249.011C729.28 249.011 729.59 249.137 729.851 249.389C730.121 249.641 730.256 249.947 730.256 250.307C730.256 250.667 730.125 250.973 729.864 251.224C729.603 251.476 729.289 251.602 728.92 251.602ZM744.101 284.205C742.814 284.205 741.658 284.034 740.633 283.692C739.607 283.359 738.735 282.882 738.015 282.261C737.304 281.641 736.76 280.903 736.382 280.048L737.759 279.239C738.064 279.904 738.501 280.498 739.067 281.02C739.634 281.542 740.336 281.951 741.173 282.248C742.018 282.545 742.994 282.693 744.101 282.693C746.098 282.693 747.677 282.176 748.837 281.141C750.007 280.116 750.592 278.541 750.592 276.418V271.263H750.43C750.115 272.163 749.647 272.964 749.026 273.665C748.415 274.358 747.663 274.902 746.773 275.298C745.882 275.694 744.87 275.892 743.737 275.892C742.099 275.892 740.66 275.469 739.418 274.624C738.177 273.778 737.21 272.59 736.517 271.061C735.824 269.523 735.478 267.714 735.478 265.636C735.478 263.558 735.815 261.719 736.49 260.117C737.174 258.507 738.136 257.247 739.378 256.339C740.619 255.421 742.077 254.962 743.75 254.962C744.946 254.962 745.981 255.192 746.854 255.651C747.735 256.1 748.473 256.699 749.067 257.445C749.661 258.192 750.119 259.011 750.443 259.901H750.632V255.273H752.224V276.486C752.224 278.213 751.883 279.648 751.199 280.79C750.524 281.933 749.575 282.788 748.352 283.354C747.137 283.921 745.72 284.205 744.101 284.205ZM743.885 274.367C745.27 274.367 746.462 274.016 747.461 273.315C748.469 272.604 749.242 271.596 749.782 270.292C750.331 268.978 750.605 267.422 750.605 265.623C750.605 263.878 750.34 262.317 749.809 260.94C749.278 259.564 748.509 258.48 747.501 257.688C746.494 256.897 745.288 256.501 743.885 256.501C742.455 256.501 741.236 256.906 740.228 257.715C739.22 258.516 738.447 259.604 737.907 260.981C737.376 262.357 737.111 263.905 737.111 265.623C737.111 267.35 737.381 268.871 737.92 270.184C738.46 271.488 739.234 272.514 740.241 273.261C741.249 273.998 742.464 274.367 743.885 274.367ZM760.797 262.56V276H759.15V255.273H760.756V258.552H760.918C761.404 257.481 762.182 256.622 763.253 255.974C764.323 255.327 765.596 255.003 767.072 255.003C768.466 255.003 769.689 255.3 770.742 255.893C771.804 256.487 772.631 257.333 773.225 258.43C773.828 259.519 774.129 260.819 774.129 262.33V276H772.483V262.398C772.483 260.634 771.956 259.218 770.904 258.147C769.86 257.067 768.479 256.528 766.761 256.528C765.61 256.528 764.584 256.78 763.684 257.283C762.785 257.787 762.079 258.493 761.566 259.402C761.053 260.302 760.797 261.354 760.797 262.56ZM786.463 276.445C785.266 276.445 784.169 276.207 783.17 275.73C782.181 275.253 781.385 274.556 780.782 273.638C780.188 272.721 779.891 271.605 779.891 270.292C779.891 269.428 780.044 268.668 780.35 268.011C780.656 267.355 781.128 266.788 781.767 266.311C782.406 265.834 783.224 265.443 784.223 265.137C785.221 264.822 786.413 264.579 787.799 264.408C788.851 264.282 789.791 264.161 790.619 264.044C791.447 263.918 792.095 263.725 792.562 263.464C793.039 263.203 793.278 262.807 793.278 262.276V261.413C793.278 259.901 792.801 258.7 791.847 257.81C790.894 256.919 789.58 256.474 787.907 256.474C786.422 256.474 785.172 256.802 784.155 257.459C783.148 258.107 782.442 258.943 782.037 259.969L780.485 259.388C780.881 258.399 781.452 257.576 782.199 256.919C782.954 256.262 783.818 255.772 784.79 255.448C785.77 255.124 786.796 254.962 787.866 254.962C788.793 254.962 789.675 255.093 790.511 255.354C791.357 255.615 792.108 256.01 792.765 256.541C793.43 257.072 793.957 257.751 794.344 258.579C794.73 259.397 794.924 260.378 794.924 261.521V276H793.278V272.262H793.156C792.796 273.036 792.301 273.742 791.672 274.381C791.051 275.01 790.3 275.514 789.418 275.892C788.546 276.261 787.56 276.445 786.463 276.445ZM786.625 274.92C787.92 274.92 789.067 274.606 790.066 273.976C791.073 273.337 791.861 272.464 792.427 271.358C792.994 270.251 793.278 268.996 793.278 267.593V264.543C793.071 264.723 792.769 264.885 792.373 265.029C791.987 265.164 791.546 265.286 791.051 265.393C790.565 265.492 790.052 265.582 789.513 265.663C788.982 265.735 788.465 265.803 787.961 265.866C786.449 266.046 785.217 266.325 784.263 266.702C783.319 267.071 782.626 267.557 782.185 268.16C781.753 268.763 781.537 269.491 781.537 270.346C781.537 271.758 782.023 272.874 782.995 273.692C783.966 274.511 785.176 274.92 786.625 274.92ZM809.154 255.273V256.744H800.099V255.273H809.154ZM803.162 250.307H804.795V271.102C804.795 271.947 804.957 272.64 805.281 273.18C805.614 273.71 806.045 274.106 806.576 274.367C807.116 274.619 807.692 274.745 808.303 274.745C808.6 274.745 808.857 274.723 809.073 274.678C809.298 274.633 809.509 274.574 809.707 274.502L810.112 276C809.86 276.09 809.581 276.166 809.275 276.229C808.969 276.301 808.609 276.337 808.195 276.337C807.332 276.337 806.513 276.144 805.74 275.757C804.975 275.37 804.354 274.808 803.877 274.07C803.401 273.333 803.162 272.442 803.162 271.398V250.307ZM828.538 268.646V255.273H830.184V276H828.538V272.64H828.403C827.917 273.71 827.13 274.583 826.042 275.258C824.962 275.933 823.685 276.27 822.209 276.27C820.851 276.27 819.65 275.973 818.606 275.379C817.563 274.786 816.744 273.944 816.15 272.856C815.557 271.758 815.26 270.454 815.26 268.942V255.273H816.906V268.875C816.906 270.602 817.428 272.001 818.471 273.072C819.524 274.133 820.882 274.664 822.547 274.664C823.626 274.664 824.62 274.421 825.529 273.935C826.438 273.45 827.166 272.757 827.715 271.857C828.264 270.949 828.538 269.878 828.538 268.646ZM837.006 276V255.273H838.612V258.511H838.76C839.21 257.45 839.97 256.6 841.041 255.961C842.111 255.313 843.33 254.989 844.698 254.989C844.842 254.989 844.985 254.989 845.129 254.989C845.273 254.989 845.408 254.994 845.534 255.003V256.663C845.426 256.654 845.296 256.64 845.143 256.622C844.999 256.595 844.819 256.582 844.603 256.582C843.452 256.582 842.426 256.829 841.526 257.324C840.636 257.819 839.934 258.502 839.421 259.375C838.909 260.239 838.652 261.228 838.652 262.344V276H837.006ZM857.409 276.432C855.538 276.432 853.91 275.969 852.524 275.042C851.139 274.115 850.068 272.847 849.313 271.237C848.557 269.626 848.179 267.791 848.179 265.731C848.179 263.662 848.557 261.817 849.313 260.198C850.077 258.579 851.125 257.301 852.457 256.366C853.788 255.43 855.309 254.962 857.018 254.962C858.178 254.962 859.276 255.196 860.311 255.664C861.354 256.123 862.272 256.789 863.063 257.661C863.864 258.534 864.489 259.586 864.939 260.819C865.398 262.051 865.627 263.437 865.627 264.975V266.001H849.218V264.503H863.981C863.981 263 863.675 261.647 863.063 260.441C862.452 259.236 861.619 258.277 860.567 257.567C859.514 256.856 858.331 256.501 857.018 256.501C855.642 256.501 854.414 256.888 853.334 257.661C852.263 258.426 851.413 259.46 850.784 260.765C850.163 262.069 849.839 263.527 849.812 265.137V265.812C849.812 267.539 850.113 269.091 850.716 270.467C851.328 271.835 852.2 272.919 853.334 273.719C854.468 274.511 855.826 274.907 857.409 274.907C858.543 274.907 859.51 274.718 860.311 274.34C861.12 273.953 861.781 273.486 862.294 272.937C862.807 272.388 863.194 271.857 863.455 271.344L864.953 271.952C864.638 272.644 864.147 273.337 863.482 274.03C862.825 274.714 861.988 275.285 860.972 275.744C859.964 276.202 858.777 276.432 857.409 276.432Z" fill="white"/>
<rect x="204.5" y="310.5" width="1201" height="334" rx="12.5" fill="#1E1E1E" stroke="white" stroke-width="3"/>
<path d="M215 310.5H790.5V644.5H215C209.201 644.5 204.5 639.799 204.5 634V321C204.5 315.201 209.201 310.5 215 310.5Z" fill="#1E1E1E" stroke="white" stroke-width="3"/>
<path d="M203 477H792" stroke="#FFFDFD" stroke-width="3"/>
<rect x="227.3" y="371.3" width="172.4" height="52.4" rx="6.7" stroke="white" stroke-width="0.6" stroke-dasharray="12 12"/>
<rect x="419.3" y="371.3" width="89.4" height="52.4" rx="6.7" stroke="white" stroke-width="0.6" stroke-dasharray="12 12"/>
<rect x="526.3" y="371.3" width="223.4" height="52.4" rx="6.7" stroke="white" stroke-width="0.6" stroke-dasharray="12 12"/>
<path d="M281.622 355.068L283.497 343.818H284.131L283.832 345.645H283.912C284.097 345.294 284.328 344.971 284.605 344.676C284.885 344.381 285.214 344.145 285.59 343.967C285.97 343.786 286.394 343.696 286.863 343.696C287.524 343.696 288.069 343.877 288.498 344.239C288.928 344.601 289.225 345.1 289.388 345.736C289.551 346.371 289.566 347.103 289.431 347.93C289.292 348.754 289.033 349.486 288.653 350.125C288.277 350.761 287.815 351.261 287.268 351.627C286.721 351.989 286.121 352.17 285.468 352.17C285.002 352.17 284.608 352.082 284.285 351.904C283.965 351.727 283.713 351.49 283.529 351.196C283.344 350.897 283.216 350.571 283.145 350.216H283.081L282.272 355.068H281.622ZM283.454 347.925C283.34 348.621 283.34 349.244 283.454 349.795C283.571 350.342 283.799 350.775 284.136 351.094C284.477 351.411 284.922 351.569 285.473 351.569C286.03 351.569 286.536 351.409 286.991 351.089C287.449 350.766 287.833 350.329 288.142 349.779C288.454 349.228 288.667 348.61 288.781 347.925C288.894 347.24 288.894 346.624 288.781 346.077C288.667 345.53 288.442 345.098 288.104 344.782C287.767 344.463 287.316 344.303 286.751 344.303C286.197 344.303 285.691 344.461 285.233 344.777C284.775 345.089 284.392 345.519 284.083 346.066C283.777 346.609 283.568 347.229 283.454 347.925ZM290.985 352L292.348 343.818H292.982L292.769 345.097H292.828C293.069 344.678 293.424 344.342 293.893 344.09C294.362 343.834 294.866 343.706 295.406 343.706C295.466 343.706 295.523 343.706 295.576 343.706C295.63 343.706 295.683 343.708 295.736 343.712L295.624 344.367C295.582 344.363 295.53 344.358 295.47 344.351C295.413 344.34 295.342 344.335 295.257 344.335C294.802 344.335 294.381 344.433 293.994 344.628C293.607 344.823 293.284 345.093 293.025 345.438C292.766 345.778 292.6 346.169 292.529 346.609L291.635 352H290.985ZM299.017 352.17C298.279 352.17 297.666 351.988 297.18 351.622C296.693 351.256 296.354 350.755 296.162 350.12C295.97 349.484 295.942 348.76 296.077 347.946C296.212 347.13 296.482 346.402 296.887 345.762C297.292 345.123 297.787 344.619 298.373 344.25C298.959 343.88 299.591 343.696 300.269 343.696C300.727 343.696 301.144 343.788 301.521 343.973C301.901 344.157 302.22 344.422 302.48 344.766C302.739 345.107 302.918 345.521 303.018 346.007C303.117 346.494 303.117 347.041 303.018 347.648L302.943 348.053H296.466L296.567 347.462H302.389C302.489 346.872 302.46 346.339 302.304 345.864C302.148 345.384 301.888 345.004 301.526 344.724C301.168 344.443 300.727 344.303 300.205 344.303C299.673 344.303 299.165 344.457 298.682 344.766C298.202 345.072 297.79 345.48 297.446 345.991C297.105 346.503 296.878 347.066 296.764 347.68L296.7 348.01C296.587 348.713 296.601 349.333 296.743 349.869C296.888 350.402 297.158 350.819 297.553 351.121C297.947 351.419 298.462 351.569 299.097 351.569C299.541 351.569 299.935 351.494 300.28 351.345C300.628 351.192 300.923 351.007 301.164 350.791C301.409 350.574 301.601 350.365 301.739 350.162L302.277 350.402C302.114 350.675 301.88 350.949 301.574 351.222C301.269 351.492 300.901 351.718 300.472 351.899C300.042 352.08 299.557 352.17 299.017 352.17ZM311.631 343.818L307.311 352H306.576L304.983 343.818H305.649L307.023 351.164H307.082L310.901 343.818H311.631ZM320.773 343.818L320.672 344.399H317.103L317.199 343.818H320.773ZM318.727 341.858H319.372L318.019 350.066C317.962 350.4 317.98 350.674 318.072 350.887C318.168 351.096 318.312 351.252 318.504 351.355C318.699 351.455 318.921 351.505 319.17 351.505C319.28 351.505 319.379 351.496 319.468 351.478C319.557 351.457 319.645 351.434 319.734 351.409L319.793 352C319.683 352.039 319.566 352.071 319.441 352.096C319.317 352.121 319.173 352.133 319.01 352.133C318.669 352.133 318.36 352.057 318.083 351.904C317.81 351.751 317.602 351.529 317.46 351.238C317.321 350.947 317.288 350.596 317.359 350.184L318.727 341.858ZM323.407 343.818L325.069 347.456L327.935 343.818H328.712L325.389 347.936L327.317 352H326.587L324.925 348.436L322.075 352H321.298L324.6 347.893L322.672 343.818H323.407ZM333.761 352L335.124 343.818H335.769L334.405 352H333.761ZM335.753 342.364C335.6 342.364 335.472 342.312 335.369 342.21C335.27 342.103 335.227 341.973 335.242 341.821C335.249 341.693 335.306 341.581 335.412 341.485C335.519 341.389 335.641 341.341 335.78 341.341C335.932 341.341 336.058 341.395 336.158 341.501C336.257 341.604 336.302 341.73 336.291 341.879C336.28 342.011 336.222 342.124 336.115 342.22C336.012 342.316 335.891 342.364 335.753 342.364ZM339.918 352.17C339.258 352.17 338.713 351.989 338.283 351.627C337.853 351.265 337.557 350.766 337.394 350.13C337.23 349.491 337.216 348.758 337.351 347.93C337.489 347.11 337.747 346.382 338.123 345.746C338.5 345.107 338.963 344.607 339.514 344.244C340.064 343.879 340.666 343.696 341.319 343.696C341.788 343.696 342.181 343.786 342.497 343.967C342.816 344.145 343.068 344.381 343.253 344.676C343.441 344.971 343.569 345.294 343.636 345.645H343.7L344.457 341.091H345.101L343.29 352H342.656L342.955 350.216H342.88C342.692 350.567 342.456 350.892 342.172 351.19C341.888 351.485 341.557 351.723 341.181 351.904C340.804 352.082 340.384 352.17 339.918 352.17ZM340.02 351.569C340.574 351.569 341.08 351.411 341.538 351.094C341.996 350.775 342.379 350.342 342.688 349.795C342.997 349.244 343.21 348.621 343.328 347.925C343.445 347.229 343.443 346.609 343.322 346.066C343.205 345.519 342.976 345.089 342.635 344.777C342.294 344.461 341.847 344.303 341.293 344.303C340.732 344.303 340.224 344.463 339.769 344.782C339.315 345.098 338.935 345.53 338.629 346.077C338.324 346.624 338.114 347.24 338.001 347.925C337.887 348.61 337.885 349.228 337.996 349.779C338.109 350.329 338.335 350.766 338.672 351.089C339.009 351.409 339.459 351.569 340.02 351.569Z" fill="white"/>
<path d="M450.509 336.572C450.325 337.694 449.97 338.674 449.444 339.512C448.919 340.347 448.272 340.995 447.505 341.457C446.742 341.918 445.909 342.149 445.007 342.149C444.084 342.149 443.311 341.915 442.69 341.446C442.072 340.977 441.637 340.32 441.385 339.475C441.136 338.63 441.102 337.645 441.284 336.519C441.475 335.397 441.834 334.418 442.36 333.584C442.889 332.746 443.537 332.096 444.304 331.634C445.071 331.173 445.907 330.942 446.813 330.942C447.718 330.942 448.482 331.176 449.103 331.645C449.725 332.11 450.161 332.765 450.414 333.61C450.669 334.452 450.701 335.439 450.509 336.572ZM449.865 336.519C450.035 335.503 450.016 334.626 449.806 333.887C449.6 333.149 449.238 332.581 448.72 332.183C448.205 331.782 447.566 331.581 446.802 331.581C446.021 331.581 445.293 331.785 444.618 332.194C443.943 332.602 443.37 333.181 442.898 333.93C442.429 334.676 442.107 335.556 441.933 336.572C441.763 337.588 441.781 338.465 441.987 339.203C442.193 339.939 442.555 340.507 443.073 340.908C443.592 341.309 444.236 341.51 445.007 341.51C445.795 341.51 446.527 341.306 447.202 340.897C447.88 340.485 448.453 339.907 448.922 339.161C449.391 338.412 449.705 337.531 449.865 336.519ZM457.714 339.097L458.593 333.818H459.243L457.879 342H457.229L457.453 340.674H457.394C457.139 341.096 456.773 341.441 456.297 341.707C455.821 341.973 455.292 342.107 454.71 342.107C454.173 342.107 453.719 341.989 453.346 341.755C452.973 341.521 452.705 341.189 452.542 340.759C452.382 340.326 452.352 339.811 452.451 339.214L453.351 333.818H454.001L453.106 339.188C452.996 339.869 453.113 340.422 453.458 340.844C453.802 341.263 454.303 341.473 454.96 341.473C455.386 341.473 455.793 341.377 456.18 341.185C456.57 340.993 456.902 340.72 457.176 340.365C457.453 340.006 457.632 339.583 457.714 339.097ZM464.828 333.818L464.726 334.399H461.158L461.253 333.818H464.828ZM462.782 331.858H463.427L462.074 340.066C462.017 340.4 462.035 340.674 462.127 340.887C462.223 341.096 462.367 341.252 462.558 341.355C462.754 341.455 462.976 341.505 463.224 341.505C463.334 341.505 463.434 341.496 463.523 341.478C463.611 341.457 463.7 341.434 463.789 341.409L463.848 342C463.737 342.039 463.62 342.071 463.496 342.096C463.372 342.121 463.228 342.133 463.064 342.133C462.724 342.133 462.415 342.057 462.138 341.904C461.864 341.751 461.656 341.529 461.514 341.238C461.376 340.947 461.342 340.596 461.413 340.184L462.782 331.858ZM465.374 345.068L467.249 333.818H467.883L467.584 335.645H467.664C467.849 335.294 468.08 334.971 468.357 334.676C468.637 334.381 468.966 334.145 469.342 333.967C469.722 333.786 470.146 333.696 470.615 333.696C471.276 333.696 471.821 333.877 472.25 334.239C472.68 334.601 472.977 335.1 473.14 335.736C473.303 336.371 473.318 337.103 473.183 337.93C473.044 338.754 472.785 339.486 472.405 340.125C472.028 340.761 471.567 341.261 471.02 341.627C470.473 341.989 469.873 342.17 469.22 342.17C468.754 342.17 468.36 342.082 468.037 341.904C467.717 341.727 467.465 341.49 467.281 341.196C467.096 340.897 466.968 340.571 466.897 340.216H466.833L466.023 345.068H465.374ZM467.206 337.925C467.092 338.621 467.092 339.244 467.206 339.795C467.323 340.342 467.55 340.775 467.888 341.094C468.229 341.411 468.674 341.569 469.225 341.569C469.782 341.569 470.288 341.409 470.743 341.089C471.201 340.766 471.585 340.329 471.894 339.779C472.206 339.228 472.419 338.61 472.533 337.925C472.646 337.24 472.646 336.624 472.533 336.077C472.419 335.53 472.194 335.098 471.856 334.782C471.519 334.463 471.068 334.303 470.503 334.303C469.949 334.303 469.443 334.461 468.985 334.777C468.527 335.089 468.144 335.519 467.835 336.066C467.529 336.609 467.32 337.229 467.206 337.925ZM480.463 339.097L481.342 333.818H481.992L480.628 342H479.978L480.202 340.674H480.143C479.888 341.096 479.522 341.441 479.046 341.707C478.57 341.973 478.041 342.107 477.459 342.107C476.922 342.107 476.468 341.989 476.095 341.755C475.722 341.521 475.454 341.189 475.291 340.759C475.131 340.326 475.101 339.811 475.2 339.214L476.1 333.818H476.75L475.855 339.188C475.745 339.869 475.862 340.422 476.207 340.844C476.551 341.263 477.052 341.473 477.709 341.473C478.135 341.473 478.542 341.377 478.929 341.185C479.319 340.993 479.651 340.72 479.925 340.365C480.202 340.006 480.381 339.583 480.463 339.097ZM487.577 333.818L487.475 334.399H483.907L484.002 333.818H487.577ZM485.531 331.858H486.176L484.823 340.066C484.766 340.4 484.784 340.674 484.876 340.887C484.972 341.096 485.116 341.252 485.307 341.355C485.503 341.455 485.725 341.505 485.973 341.505C486.083 341.505 486.183 341.496 486.272 341.478C486.36 341.457 486.449 341.434 486.538 341.409L486.597 342C486.486 342.039 486.369 342.071 486.245 342.096C486.121 342.121 485.977 342.133 485.814 342.133C485.473 342.133 485.164 342.057 484.887 341.904C484.613 341.751 484.405 341.529 484.263 341.238C484.125 340.947 484.091 340.596 484.162 340.184L485.531 331.858ZM446.072 360L447.436 351.818H448.08L446.717 360H446.072ZM448.064 350.364C447.912 350.364 447.784 350.312 447.681 350.21C447.582 350.103 447.539 349.973 447.553 349.821C447.56 349.693 447.617 349.581 447.724 349.485C447.83 349.389 447.953 349.341 448.091 349.341C448.244 349.341 448.37 349.395 448.469 349.501C448.569 349.604 448.613 349.73 448.602 349.879C448.592 350.011 448.533 350.124 448.427 350.22C448.324 350.316 448.203 350.364 448.064 350.364ZM450.968 354.695L450.089 360H449.439L450.802 351.818H451.436L451.223 353.113H451.287C451.543 352.69 451.905 352.351 452.374 352.095C452.843 351.839 453.368 351.712 453.951 351.712C454.497 351.712 454.961 351.829 455.341 352.063C455.721 352.298 455.992 352.631 456.156 353.065C456.319 353.494 456.351 354.007 456.252 354.604L455.351 360H454.702L455.596 354.631C455.71 353.935 455.6 353.375 455.266 352.953C454.936 352.527 454.432 352.314 453.753 352.314C453.295 352.314 452.869 352.413 452.475 352.612C452.084 352.811 451.756 353.089 451.49 353.448C451.223 353.803 451.049 354.219 450.968 354.695ZM460.843 360.17C460.183 360.17 459.638 359.989 459.208 359.627C458.778 359.265 458.482 358.766 458.318 358.13C458.155 357.491 458.141 356.758 458.276 355.93C458.414 355.11 458.672 354.382 459.048 353.746C459.425 353.107 459.888 352.607 460.438 352.244C460.989 351.879 461.591 351.696 462.244 351.696C462.713 351.696 463.105 351.786 463.421 351.967C463.741 352.145 463.993 352.381 464.178 352.676C464.366 352.971 464.494 353.294 464.561 353.645H464.625L465.382 349.091H466.026L464.215 360H463.581L463.879 358.216H463.805C463.617 358.567 463.381 358.892 463.096 359.19C462.812 359.485 462.482 359.723 462.106 359.904C461.729 360.082 461.308 360.17 460.843 360.17ZM460.944 359.569C461.498 359.569 462.004 359.411 462.463 359.094C462.921 358.775 463.304 358.342 463.613 357.795C463.922 357.244 464.135 356.621 464.252 355.925C464.37 355.229 464.368 354.609 464.247 354.066C464.13 353.519 463.901 353.089 463.56 352.777C463.219 352.461 462.772 352.303 462.218 352.303C461.656 352.303 461.149 352.463 460.694 352.782C460.24 353.098 459.86 353.53 459.554 354.077C459.249 354.624 459.039 355.24 458.926 355.925C458.812 356.61 458.81 357.228 458.92 357.779C459.034 358.329 459.259 358.766 459.597 359.089C459.934 359.409 460.383 359.569 460.944 359.569ZM470.303 360.17C469.565 360.17 468.952 359.988 468.466 359.622C467.979 359.256 467.64 358.755 467.448 358.12C467.257 357.484 467.228 356.76 467.363 355.946C467.498 355.13 467.768 354.402 468.173 353.762C468.578 353.123 469.073 352.619 469.659 352.25C470.245 351.88 470.877 351.696 471.555 351.696C472.013 351.696 472.431 351.788 472.807 351.973C473.187 352.157 473.507 352.422 473.766 352.766C474.025 353.107 474.204 353.521 474.304 354.007C474.403 354.494 474.403 355.041 474.304 355.648L474.229 356.053H467.752L467.853 355.462H473.675C473.775 354.872 473.746 354.339 473.59 353.864C473.434 353.384 473.175 353.004 472.812 352.724C472.454 352.443 472.013 352.303 471.491 352.303C470.959 352.303 470.451 352.457 469.968 352.766C469.489 353.072 469.077 353.48 468.732 353.991C468.391 354.503 468.164 355.066 468.05 355.68L467.986 356.01C467.873 356.713 467.887 357.333 468.029 357.869C468.175 358.402 468.444 358.819 468.839 359.121C469.233 359.419 469.748 359.569 470.383 359.569C470.827 359.569 471.221 359.494 471.566 359.345C471.914 359.192 472.209 359.007 472.45 358.791C472.695 358.574 472.887 358.365 473.025 358.162L473.563 358.402C473.4 358.675 473.166 358.949 472.86 359.222C472.555 359.492 472.187 359.718 471.758 359.899C471.328 360.08 470.843 360.17 470.303 360.17ZM477.188 351.818L478.85 355.456L481.716 351.818H482.494L479.17 355.936L481.098 360H480.368L478.706 356.436L475.857 360H475.079L478.381 355.893L476.453 351.818H477.188Z" fill="white"/>
<path d="M613.19 343.845C613.232 343.152 613.044 342.597 612.625 342.178C612.209 341.755 611.609 341.544 610.824 341.544C610.292 341.544 609.804 341.641 609.36 341.837C608.916 342.032 608.546 342.3 608.252 342.641C607.96 342.978 607.778 343.364 607.703 343.797C607.657 344.077 607.669 344.331 607.74 344.559C607.815 344.782 607.937 344.981 608.108 345.155C608.278 345.329 608.49 345.484 608.742 345.619C608.994 345.75 609.276 345.865 609.589 345.965L610.723 346.316C611.11 346.441 611.464 346.585 611.783 346.748C612.106 346.911 612.378 347.107 612.598 347.334C612.818 347.558 612.975 347.82 613.067 348.122C613.163 348.424 613.177 348.772 613.11 349.166C613.014 349.752 612.783 350.272 612.417 350.727C612.051 351.181 611.577 351.537 610.995 351.792C610.413 352.048 609.741 352.176 608.981 352.176C608.282 352.176 607.689 352.057 607.202 351.819C606.719 351.581 606.362 351.251 606.132 350.828C605.901 350.402 605.812 349.912 605.865 349.358H606.547C606.508 349.809 606.588 350.2 606.787 350.53C606.986 350.857 607.282 351.109 607.676 351.286C608.074 351.464 608.545 351.553 609.088 351.553C609.677 351.553 610.21 351.451 610.686 351.249C611.165 351.047 611.56 350.766 611.869 350.407C612.181 350.049 612.376 349.633 612.454 349.161C612.518 348.777 612.483 348.447 612.348 348.17C612.213 347.893 611.984 347.655 611.661 347.456C611.341 347.254 610.935 347.076 610.441 346.924L609.216 346.54C608.406 346.281 607.815 345.929 607.442 345.485C607.069 345.038 606.936 344.482 607.043 343.818C607.142 343.246 607.375 342.744 607.74 342.311C608.106 341.877 608.566 341.538 609.12 341.293C609.674 341.048 610.278 340.926 610.931 340.926C611.581 340.926 612.133 341.052 612.588 341.304C613.046 341.553 613.383 341.897 613.6 342.337C613.82 342.778 613.9 343.28 613.839 343.845H613.19ZM615.07 352L616.434 343.818H617.078L615.714 352H615.07ZM617.062 342.364C616.909 342.364 616.782 342.312 616.679 342.21C616.579 342.103 616.536 341.973 616.551 341.821C616.558 341.693 616.615 341.581 616.721 341.485C616.828 341.389 616.95 341.341 617.089 341.341C617.241 341.341 617.367 341.395 617.467 341.501C617.566 341.604 617.611 341.73 617.6 341.879C617.589 342.011 617.531 342.124 617.424 342.22C617.321 342.316 617.201 342.364 617.062 342.364ZM620.876 355.239C620.368 355.239 619.922 355.171 619.539 355.036C619.155 354.905 618.839 354.717 618.591 354.472C618.346 354.227 618.177 353.935 618.085 353.598L618.671 353.294C618.749 353.557 618.88 353.79 619.065 353.992C619.25 354.195 619.495 354.353 619.8 354.466C620.109 354.583 620.484 354.642 620.924 354.642C621.712 354.642 622.376 354.438 622.916 354.029C623.456 353.625 623.795 353.003 623.934 352.165L624.264 350.13H624.2C624.019 350.485 623.783 350.801 623.491 351.078C623.204 351.352 622.872 351.567 622.495 351.723C622.119 351.879 621.707 351.957 621.259 351.957C620.61 351.957 620.068 351.79 619.635 351.457C619.202 351.123 618.898 350.654 618.724 350.05C618.554 349.443 618.536 348.729 618.671 347.909C618.809 347.089 619.065 346.363 619.438 345.73C619.811 345.095 620.271 344.598 620.817 344.239C621.368 343.877 621.973 343.696 622.634 343.696C623.106 343.696 623.5 343.786 623.816 343.967C624.132 344.145 624.383 344.381 624.567 344.676C624.752 344.971 624.882 345.294 624.956 345.645H625.031L625.329 343.818H625.958L624.573 352.192C624.459 352.877 624.232 353.444 623.891 353.891C623.55 354.342 623.12 354.679 622.602 354.903C622.087 355.127 621.512 355.239 620.876 355.239ZM621.366 351.355C621.909 351.355 622.407 351.217 622.858 350.94C623.312 350.659 623.694 350.262 624.003 349.747C624.312 349.228 624.527 348.614 624.647 347.904C624.761 347.215 624.757 346.599 624.637 346.055C624.516 345.512 624.283 345.084 623.939 344.772C623.598 344.459 623.149 344.303 622.591 344.303C622.03 344.303 621.522 344.463 621.068 344.782C620.617 345.098 620.24 345.528 619.938 346.071C619.637 346.615 619.431 347.225 619.321 347.904C619.207 348.586 619.209 349.186 619.326 349.704C619.443 350.219 619.672 350.624 620.013 350.919C620.354 351.21 620.805 351.355 621.366 351.355ZM628.857 346.695L627.978 352H627.328L628.692 343.818H629.325L629.112 345.113H629.176C629.432 344.69 629.794 344.351 630.263 344.095C630.732 343.839 631.257 343.712 631.84 343.712C632.387 343.712 632.85 343.829 633.23 344.063C633.61 344.298 633.882 344.631 634.045 345.065C634.208 345.494 634.24 346.007 634.141 346.604L633.241 352H632.591L633.486 346.631C633.599 345.935 633.489 345.375 633.155 344.953C632.825 344.527 632.321 344.314 631.643 344.314C631.184 344.314 630.758 344.413 630.364 344.612C629.974 344.811 629.645 345.089 629.379 345.448C629.112 345.803 628.938 346.219 628.857 346.695ZM638.088 352.176C637.616 352.176 637.198 352.082 636.836 351.893C636.477 351.705 636.209 351.43 636.032 351.068C635.854 350.706 635.806 350.265 635.888 349.747C635.948 349.406 636.06 349.106 636.224 348.847C636.387 348.587 636.611 348.364 636.895 348.175C637.179 347.987 637.527 347.833 637.939 347.712C638.354 347.588 638.839 347.492 639.393 347.424C639.819 347.375 640.199 347.325 640.533 347.275C640.867 347.225 641.137 347.149 641.343 347.046C641.548 346.943 641.669 346.789 641.705 346.583L641.758 346.242C641.857 345.649 641.756 345.176 641.454 344.825C641.153 344.47 640.671 344.292 640.011 344.292C639.428 344.292 638.906 344.424 638.445 344.686C637.983 344.946 637.639 345.274 637.411 345.672L636.847 345.443C637.067 345.052 637.346 344.727 637.683 344.468C638.024 344.209 638.397 344.015 638.802 343.887C639.21 343.76 639.626 343.696 640.048 343.696C640.414 343.696 640.755 343.747 641.071 343.85C641.387 343.953 641.657 344.109 641.881 344.319C642.108 344.528 642.269 344.797 642.365 345.123C642.465 345.446 642.475 345.833 642.397 346.284L641.449 352H640.799L641.05 350.525H641.002C640.81 350.83 640.568 351.109 640.277 351.361C639.99 351.609 639.661 351.808 639.292 351.957C638.922 352.103 638.521 352.176 638.088 352.176ZM638.21 351.574C638.722 351.574 639.198 351.45 639.638 351.201C640.082 350.949 640.455 350.604 640.757 350.168C641.062 349.731 641.259 349.235 641.348 348.681L641.556 347.478C641.46 347.549 641.33 347.613 641.167 347.669C641.003 347.723 640.82 347.771 640.618 347.813C640.419 347.852 640.211 347.888 639.995 347.92C639.782 347.948 639.574 347.975 639.372 348C638.764 348.071 638.262 348.181 637.864 348.33C637.466 348.475 637.159 348.667 636.943 348.905C636.73 349.143 636.593 349.431 636.532 349.768C636.444 350.326 636.557 350.766 636.873 351.089C637.193 351.412 637.639 351.574 638.21 351.574ZM648.43 343.818L648.328 344.399H644.76L644.855 343.818H648.43ZM646.384 341.858H647.029L645.676 350.066C645.619 350.4 645.637 350.674 645.729 350.887C645.825 351.096 645.969 351.252 646.161 351.355C646.356 351.455 646.578 351.505 646.826 351.505C646.936 351.505 647.036 351.496 647.125 351.478C647.213 351.457 647.302 351.434 647.391 351.409L647.45 352C647.339 352.039 647.222 352.071 647.098 352.096C646.974 352.121 646.83 352.133 646.667 352.133C646.326 352.133 646.017 352.057 645.74 351.904C645.466 351.751 645.259 351.529 645.116 351.238C644.978 350.947 644.944 350.596 645.015 350.184L646.384 341.858ZM655.203 349.097L656.081 343.818H656.731L655.368 352H654.718L654.942 350.674H654.883C654.627 351.096 654.262 351.441 653.786 351.707C653.31 351.973 652.781 352.107 652.198 352.107C651.662 352.107 651.208 351.989 650.835 351.755C650.462 351.521 650.194 351.189 650.03 350.759C649.871 350.326 649.84 349.811 649.94 349.214L650.84 343.818H651.49L650.595 349.188C650.485 349.869 650.602 350.422 650.947 350.844C651.291 351.263 651.792 351.473 652.449 351.473C652.875 351.473 653.281 351.377 653.669 351.185C654.059 350.993 654.391 350.72 654.665 350.365C654.942 350.006 655.121 349.583 655.203 349.097ZM658.06 352L659.424 343.818H660.058L659.845 345.097H659.903C660.145 344.678 660.5 344.342 660.969 344.09C661.438 343.834 661.942 343.706 662.482 343.706C662.542 343.706 662.599 343.706 662.652 343.706C662.705 343.706 662.759 343.708 662.812 343.712L662.7 344.367C662.657 344.363 662.606 344.358 662.545 344.351C662.489 344.34 662.418 344.335 662.332 344.335C661.878 344.335 661.457 344.433 661.07 344.628C660.683 344.823 660.36 345.093 660.1 345.438C659.841 345.778 659.676 346.169 659.605 346.609L658.71 352H658.06ZM666.093 352.17C665.354 352.17 664.742 351.988 664.255 351.622C663.769 351.256 663.43 350.755 663.238 350.12C663.046 349.484 663.018 348.76 663.153 347.946C663.288 347.13 663.558 346.402 663.962 345.762C664.367 345.123 664.863 344.619 665.449 344.25C666.034 343.88 666.667 343.696 667.345 343.696C667.803 343.696 668.22 343.788 668.597 343.973C668.977 344.157 669.296 344.422 669.555 344.766C669.815 345.107 669.994 345.521 670.093 346.007C670.193 346.494 670.193 347.041 670.093 347.648L670.019 348.053H663.542L663.643 347.462H669.465C669.564 346.872 669.536 346.339 669.38 345.864C669.223 345.384 668.964 345.004 668.602 344.724C668.243 344.443 667.803 344.303 667.281 344.303C666.748 344.303 666.24 344.457 665.757 344.766C665.278 345.072 664.866 345.48 664.522 345.991C664.181 346.503 663.953 347.066 663.84 347.68L663.776 348.01C663.662 348.713 663.676 349.333 663.819 349.869C663.964 350.402 664.234 350.819 664.628 351.121C665.022 351.419 665.537 351.569 666.173 351.569C666.617 351.569 667.011 351.494 667.355 351.345C667.703 351.192 667.998 351.007 668.24 350.791C668.485 350.574 668.676 350.365 668.815 350.162L669.353 350.402C669.19 350.675 668.955 350.949 668.65 351.222C668.344 351.492 667.977 351.718 667.547 351.899C667.118 352.08 666.633 352.17 666.093 352.17Z" fill="white"/>
<rect x="227.3" y="534.3" width="172.4" height="51.4" rx="6.7" stroke="white" stroke-width="0.6" stroke-dasharray="12 12"/>
<rect x="419.3" y="534.3" width="89.4" height="51.4" rx="6.7" stroke="white" stroke-width="0.6" stroke-dasharray="12 12"/>
<rect x="526.3" y="534.3" width="223.4" height="51.4" rx="6.7" stroke="white" stroke-width="0.6" stroke-dasharray="12 12"/>
<path d="M281.622 518.068L283.497 506.818H284.131L283.832 508.645H283.912C284.097 508.294 284.328 507.971 284.605 507.676C284.885 507.381 285.214 507.145 285.59 506.967C285.97 506.786 286.394 506.696 286.863 506.696C287.524 506.696 288.069 506.877 288.498 507.239C288.928 507.601 289.225 508.1 289.388 508.736C289.551 509.371 289.566 510.103 289.431 510.93C289.292 511.754 289.033 512.486 288.653 513.125C288.277 513.761 287.815 514.261 287.268 514.627C286.721 514.989 286.121 515.17 285.468 515.17C285.002 515.17 284.608 515.082 284.285 514.904C283.965 514.727 283.713 514.49 283.529 514.196C283.344 513.897 283.216 513.571 283.145 513.216H283.081L282.272 518.068H281.622ZM283.454 510.925C283.34 511.621 283.34 512.244 283.454 512.795C283.571 513.342 283.799 513.775 284.136 514.094C284.477 514.411 284.922 514.569 285.473 514.569C286.03 514.569 286.536 514.409 286.991 514.089C287.449 513.766 287.833 513.329 288.142 512.779C288.454 512.228 288.667 511.61 288.781 510.925C288.894 510.24 288.894 509.624 288.781 509.077C288.667 508.53 288.442 508.098 288.104 507.782C287.767 507.463 287.316 507.303 286.751 507.303C286.197 507.303 285.691 507.461 285.233 507.777C284.775 508.089 284.392 508.519 284.083 509.066C283.777 509.609 283.568 510.229 283.454 510.925ZM290.985 515L292.348 506.818H292.982L292.769 508.097H292.828C293.069 507.678 293.424 507.342 293.893 507.09C294.362 506.834 294.866 506.706 295.406 506.706C295.466 506.706 295.523 506.706 295.576 506.706C295.63 506.706 295.683 506.708 295.736 506.712L295.624 507.367C295.582 507.363 295.53 507.358 295.47 507.351C295.413 507.34 295.342 507.335 295.257 507.335C294.802 507.335 294.381 507.433 293.994 507.628C293.607 507.823 293.284 508.093 293.025 508.438C292.766 508.778 292.6 509.169 292.529 509.609L291.635 515H290.985ZM299.017 515.17C298.279 515.17 297.666 514.988 297.18 514.622C296.693 514.256 296.354 513.755 296.162 513.12C295.97 512.484 295.942 511.76 296.077 510.946C296.212 510.13 296.482 509.402 296.887 508.762C297.292 508.123 297.787 507.619 298.373 507.25C298.959 506.88 299.591 506.696 300.269 506.696C300.727 506.696 301.144 506.788 301.521 506.973C301.901 507.157 302.22 507.422 302.48 507.766C302.739 508.107 302.918 508.521 303.018 509.007C303.117 509.494 303.117 510.041 303.018 510.648L302.943 511.053H296.466L296.567 510.462H302.389C302.489 509.872 302.46 509.339 302.304 508.864C302.148 508.384 301.888 508.004 301.526 507.724C301.168 507.443 300.727 507.303 300.205 507.303C299.673 507.303 299.165 507.457 298.682 507.766C298.202 508.072 297.79 508.48 297.446 508.991C297.105 509.503 296.878 510.066 296.764 510.68L296.7 511.01C296.587 511.713 296.601 512.333 296.743 512.869C296.888 513.402 297.158 513.819 297.553 514.121C297.947 514.419 298.462 514.569 299.097 514.569C299.541 514.569 299.935 514.494 300.28 514.345C300.628 514.192 300.923 514.007 301.164 513.791C301.409 513.574 301.601 513.365 301.739 513.162L302.277 513.402C302.114 513.675 301.88 513.949 301.574 514.222C301.269 514.492 300.901 514.718 300.472 514.899C300.042 515.08 299.557 515.17 299.017 515.17ZM311.631 506.818L307.311 515H306.576L304.983 506.818H305.649L307.023 514.164H307.082L310.901 506.818H311.631ZM320.773 506.818L320.672 507.399H317.103L317.199 506.818H320.773ZM318.727 504.858H319.372L318.019 513.066C317.962 513.4 317.98 513.674 318.072 513.887C318.168 514.096 318.312 514.252 318.504 514.355C318.699 514.455 318.921 514.505 319.17 514.505C319.28 514.505 319.379 514.496 319.468 514.478C319.557 514.457 319.645 514.434 319.734 514.409L319.793 515C319.683 515.039 319.566 515.071 319.441 515.096C319.317 515.121 319.173 515.133 319.01 515.133C318.669 515.133 318.36 515.057 318.083 514.904C317.81 514.751 317.602 514.529 317.46 514.238C317.321 513.947 317.288 513.596 317.359 513.184L318.727 504.858ZM323.407 506.818L325.069 510.456L327.935 506.818H328.712L325.389 510.936L327.317 515H326.587L324.925 511.436L322.075 515H321.298L324.6 510.893L322.672 506.818H323.407ZM333.761 515L335.124 506.818H335.769L334.405 515H333.761ZM335.753 505.364C335.6 505.364 335.472 505.312 335.369 505.21C335.27 505.103 335.227 504.973 335.242 504.821C335.249 504.693 335.306 504.581 335.412 504.485C335.519 504.389 335.641 504.341 335.78 504.341C335.932 504.341 336.058 504.395 336.158 504.501C336.257 504.604 336.302 504.73 336.291 504.879C336.28 505.011 336.222 505.124 336.115 505.22C336.012 505.316 335.891 505.364 335.753 505.364ZM339.918 515.17C339.258 515.17 338.713 514.989 338.283 514.627C337.853 514.265 337.557 513.766 337.394 513.13C337.23 512.491 337.216 511.758 337.351 510.93C337.489 510.11 337.747 509.382 338.123 508.746C338.5 508.107 338.963 507.607 339.514 507.244C340.064 506.879 340.666 506.696 341.319 506.696C341.788 506.696 342.181 506.786 342.497 506.967C342.816 507.145 343.068 507.381 343.253 507.676C343.441 507.971 343.569 508.294 343.636 508.645H343.7L344.457 504.091H345.101L343.29 515H342.656L342.955 513.216H342.88C342.692 513.567 342.456 513.892 342.172 514.19C341.888 514.485 341.557 514.723 341.181 514.904C340.804 515.082 340.384 515.17 339.918 515.17ZM340.02 514.569C340.574 514.569 341.08 514.411 341.538 514.094C341.996 513.775 342.379 513.342 342.688 512.795C342.997 512.244 343.21 511.621 343.328 510.925C343.445 510.229 343.443 509.609 343.322 509.066C343.205 508.519 342.976 508.089 342.635 507.777C342.294 507.461 341.847 507.303 341.293 507.303C340.732 507.303 340.224 507.463 339.769 507.782C339.315 508.098 338.935 508.53 338.629 509.077C338.324 509.624 338.114 510.24 338.001 510.925C337.887 511.61 337.885 512.228 337.996 512.779C338.109 513.329 338.335 513.766 338.672 514.089C339.009 514.409 339.459 514.569 340.02 514.569Z" fill="white"/>
<path d="M450.509 498.572C450.325 499.694 449.97 500.674 449.444 501.512C448.919 502.347 448.272 502.995 447.505 503.457C446.742 503.918 445.909 504.149 445.007 504.149C444.084 504.149 443.311 503.915 442.69 503.446C442.072 502.977 441.637 502.32 441.385 501.475C441.136 500.63 441.102 499.645 441.284 498.519C441.475 497.397 441.834 496.418 442.36 495.584C442.889 494.746 443.537 494.096 444.304 493.634C445.071 493.173 445.907 492.942 446.813 492.942C447.718 492.942 448.482 493.176 449.103 493.645C449.725 494.11 450.161 494.765 450.414 495.61C450.669 496.452 450.701 497.439 450.509 498.572ZM449.865 498.519C450.035 497.503 450.016 496.626 449.806 495.887C449.6 495.149 449.238 494.581 448.72 494.183C448.205 493.782 447.566 493.581 446.802 493.581C446.021 493.581 445.293 493.785 444.618 494.194C443.943 494.602 443.37 495.181 442.898 495.93C442.429 496.676 442.107 497.556 441.933 498.572C441.763 499.588 441.781 500.465 441.987 501.203C442.193 501.939 442.555 502.507 443.073 502.908C443.592 503.309 444.236 503.51 445.007 503.51C445.795 503.51 446.527 503.306 447.202 502.897C447.88 502.485 448.453 501.907 448.922 501.161C449.391 500.412 449.705 499.531 449.865 498.519ZM457.714 501.097L458.593 495.818H459.243L457.879 504H457.229L457.453 502.674H457.394C457.139 503.096 456.773 503.441 456.297 503.707C455.821 503.973 455.292 504.107 454.71 504.107C454.173 504.107 453.719 503.989 453.346 503.755C452.973 503.521 452.705 503.189 452.542 502.759C452.382 502.326 452.352 501.811 452.451 501.214L453.351 495.818H454.001L453.106 501.188C452.996 501.869 453.113 502.422 453.458 502.844C453.802 503.263 454.303 503.473 454.96 503.473C455.386 503.473 455.793 503.377 456.18 503.185C456.57 502.993 456.902 502.72 457.176 502.365C457.453 502.006 457.632 501.583 457.714 501.097ZM464.828 495.818L464.726 496.399H461.158L461.253 495.818H464.828ZM462.782 493.858H463.427L462.074 502.066C462.017 502.4 462.035 502.674 462.127 502.887C462.223 503.096 462.367 503.252 462.558 503.355C462.754 503.455 462.976 503.505 463.224 503.505C463.334 503.505 463.434 503.496 463.523 503.478C463.611 503.457 463.7 503.434 463.789 503.409L463.848 504C463.737 504.039 463.62 504.071 463.496 504.096C463.372 504.121 463.228 504.133 463.064 504.133C462.724 504.133 462.415 504.057 462.138 503.904C461.864 503.751 461.656 503.529 461.514 503.238C461.376 502.947 461.342 502.596 461.413 502.184L462.782 493.858ZM465.374 507.068L467.249 495.818H467.883L467.584 497.645H467.664C467.849 497.294 468.08 496.971 468.357 496.676C468.637 496.381 468.966 496.145 469.342 495.967C469.722 495.786 470.146 495.696 470.615 495.696C471.276 495.696 471.821 495.877 472.25 496.239C472.68 496.601 472.977 497.1 473.14 497.736C473.303 498.371 473.318 499.103 473.183 499.93C473.044 500.754 472.785 501.486 472.405 502.125C472.028 502.761 471.567 503.261 471.02 503.627C470.473 503.989 469.873 504.17 469.22 504.17C468.754 504.17 468.36 504.082 468.037 503.904C467.717 503.727 467.465 503.49 467.281 503.196C467.096 502.897 466.968 502.571 466.897 502.216H466.833L466.023 507.068H465.374ZM467.206 499.925C467.092 500.621 467.092 501.244 467.206 501.795C467.323 502.342 467.55 502.775 467.888 503.094C468.229 503.411 468.674 503.569 469.225 503.569C469.782 503.569 470.288 503.409 470.743 503.089C471.201 502.766 471.585 502.329 471.894 501.779C472.206 501.228 472.419 500.61 472.533 499.925C472.646 499.24 472.646 498.624 472.533 498.077C472.419 497.53 472.194 497.098 471.856 496.782C471.519 496.463 471.068 496.303 470.503 496.303C469.949 496.303 469.443 496.461 468.985 496.777C468.527 497.089 468.144 497.519 467.835 498.066C467.529 498.609 467.32 499.229 467.206 499.925ZM480.463 501.097L481.342 495.818H481.992L480.628 504H479.978L480.202 502.674H480.143C479.888 503.096 479.522 503.441 479.046 503.707C478.57 503.973 478.041 504.107 477.459 504.107C476.922 504.107 476.468 503.989 476.095 503.755C475.722 503.521 475.454 503.189 475.291 502.759C475.131 502.326 475.101 501.811 475.2 501.214L476.1 495.818H476.75L475.855 501.188C475.745 501.869 475.862 502.422 476.207 502.844C476.551 503.263 477.052 503.473 477.709 503.473C478.135 503.473 478.542 503.377 478.929 503.185C479.319 502.993 479.651 502.72 479.925 502.365C480.202 502.006 480.381 501.583 480.463 501.097ZM487.577 495.818L487.475 496.399H483.907L484.002 495.818H487.577ZM485.531 493.858H486.176L484.823 502.066C484.766 502.4 484.784 502.674 484.876 502.887C484.972 503.096 485.116 503.252 485.307 503.355C485.503 503.455 485.725 503.505 485.973 503.505C486.083 503.505 486.183 503.496 486.272 503.478C486.36 503.457 486.449 503.434 486.538 503.409L486.597 504C486.486 504.039 486.369 504.071 486.245 504.096C486.121 504.121 485.977 504.133 485.814 504.133C485.473 504.133 485.164 504.057 484.887 503.904C484.613 503.751 484.405 503.529 484.263 503.238C484.125 502.947 484.091 502.596 484.162 502.184L485.531 493.858ZM446.072 522L447.436 513.818H448.08L446.717 522H446.072ZM448.064 512.364C447.912 512.364 447.784 512.312 447.681 512.21C447.582 512.103 447.539 511.973 447.553 511.821C447.56 511.693 447.617 511.581 447.724 511.485C447.83 511.389 447.953 511.341 448.091 511.341C448.244 511.341 448.37 511.395 448.469 511.501C448.569 511.604 448.613 511.73 448.602 511.879C448.592 512.011 448.533 512.124 448.427 512.22C448.324 512.316 448.203 512.364 448.064 512.364ZM450.968 516.695L450.089 522H449.439L450.802 513.818H451.436L451.223 515.113H451.287C451.543 514.69 451.905 514.351 452.374 514.095C452.843 513.839 453.368 513.712 453.951 513.712C454.497 513.712 454.961 513.829 455.341 514.063C455.721 514.298 455.992 514.631 456.156 515.065C456.319 515.494 456.351 516.007 456.252 516.604L455.351 522H454.702L455.596 516.631C455.71 515.935 455.6 515.375 455.266 514.953C454.936 514.527 454.432 514.314 453.753 514.314C453.295 514.314 452.869 514.413 452.475 514.612C452.084 514.811 451.756 515.089 451.49 515.448C451.223 515.803 451.049 516.219 450.968 516.695ZM460.843 522.17C460.183 522.17 459.638 521.989 459.208 521.627C458.778 521.265 458.482 520.766 458.318 520.13C458.155 519.491 458.141 518.758 458.276 517.93C458.414 517.11 458.672 516.382 459.048 515.746C459.425 515.107 459.888 514.607 460.438 514.244C460.989 513.879 461.591 513.696 462.244 513.696C462.713 513.696 463.105 513.786 463.421 513.967C463.741 514.145 463.993 514.381 464.178 514.676C464.366 514.971 464.494 515.294 464.561 515.645H464.625L465.382 511.091H466.026L464.215 522H463.581L463.879 520.216H463.805C463.617 520.567 463.381 520.892 463.096 521.19C462.812 521.485 462.482 521.723 462.106 521.904C461.729 522.082 461.308 522.17 460.843 522.17ZM460.944 521.569C461.498 521.569 462.004 521.411 462.463 521.094C462.921 520.775 463.304 520.342 463.613 519.795C463.922 519.244 464.135 518.621 464.252 517.925C464.37 517.229 464.368 516.609 464.247 516.066C464.13 515.519 463.901 515.089 463.56 514.777C463.219 514.461 462.772 514.303 462.218 514.303C461.656 514.303 461.149 514.463 460.694 514.782C460.24 515.098 459.86 515.53 459.554 516.077C459.249 516.624 459.039 517.24 458.926 517.925C458.812 518.61 458.81 519.228 458.92 519.779C459.034 520.329 459.259 520.766 459.597 521.089C459.934 521.409 460.383 521.569 460.944 521.569ZM470.303 522.17C469.565 522.17 468.952 521.988 468.466 521.622C467.979 521.256 467.64 520.755 467.448 520.12C467.257 519.484 467.228 518.76 467.363 517.946C467.498 517.13 467.768 516.402 468.173 515.762C468.578 515.123 469.073 514.619 469.659 514.25C470.245 513.88 470.877 513.696 471.555 513.696C472.013 513.696 472.431 513.788 472.807 513.973C473.187 514.157 473.507 514.422 473.766 514.766C474.025 515.107 474.204 515.521 474.304 516.007C474.403 516.494 474.403 517.041 474.304 517.648L474.229 518.053H467.752L467.853 517.462H473.675C473.775 516.872 473.746 516.339 473.59 515.864C473.434 515.384 473.175 515.004 472.812 514.724C472.454 514.443 472.013 514.303 471.491 514.303C470.959 514.303 470.451 514.457 469.968 514.766C469.489 515.072 469.077 515.48 468.732 515.991C468.391 516.503 468.164 517.066 468.05 517.68L467.986 518.01C467.873 518.713 467.887 519.333 468.029 519.869C468.175 520.402 468.444 520.819 468.839 521.121C469.233 521.419 469.748 521.569 470.383 521.569C470.827 521.569 471.221 521.494 471.566 521.345C471.914 521.192 472.209 521.007 472.45 520.791C472.695 520.574 472.887 520.365 473.025 520.162L473.563 520.402C473.4 520.675 473.166 520.949 472.86 521.222C472.555 521.492 472.187 521.718 471.758 521.899C471.328 522.08 470.843 522.17 470.303 522.17ZM477.188 513.818L478.85 517.456L481.716 513.818H482.494L479.17 517.936L481.098 522H480.368L478.706 518.436L475.857 522H475.079L478.381 517.893L476.453 513.818H477.188Z" fill="white"/>
<path d="M613.19 506.845C613.232 506.152 613.044 505.597 612.625 505.178C612.209 504.755 611.609 504.544 610.824 504.544C610.292 504.544 609.804 504.641 609.36 504.837C608.916 505.032 608.546 505.3 608.252 505.641C607.96 505.978 607.778 506.364 607.703 506.797C607.657 507.077 607.669 507.331 607.74 507.559C607.815 507.782 607.937 507.981 608.108 508.155C608.278 508.329 608.49 508.484 608.742 508.619C608.994 508.75 609.276 508.865 609.589 508.965L610.723 509.316C611.11 509.441 611.464 509.585 611.783 509.748C612.106 509.911 612.378 510.107 612.598 510.334C612.818 510.558 612.975 510.82 613.067 511.122C613.163 511.424 613.177 511.772 613.11 512.166C613.014 512.752 612.783 513.272 612.417 513.727C612.051 514.181 611.577 514.537 610.995 514.792C610.413 515.048 609.741 515.176 608.981 515.176C608.282 515.176 607.689 515.057 607.202 514.819C606.719 514.581 606.362 514.251 606.132 513.828C605.901 513.402 605.812 512.912 605.865 512.358H606.547C606.508 512.809 606.588 513.2 606.787 513.53C606.986 513.857 607.282 514.109 607.676 514.286C608.074 514.464 608.545 514.553 609.088 514.553C609.677 514.553 610.21 514.451 610.686 514.249C611.165 514.047 611.56 513.766 611.869 513.407C612.181 513.049 612.376 512.633 612.454 512.161C612.518 511.777 612.483 511.447 612.348 511.17C612.213 510.893 611.984 510.655 611.661 510.456C611.341 510.254 610.935 510.076 610.441 509.924L609.216 509.54C608.406 509.281 607.815 508.929 607.442 508.485C607.069 508.038 606.936 507.482 607.043 506.818C607.142 506.246 607.375 505.744 607.74 505.311C608.106 504.877 608.566 504.538 609.12 504.293C609.674 504.048 610.278 503.926 610.931 503.926C611.581 503.926 612.133 504.052 612.588 504.304C613.046 504.553 613.383 504.897 613.6 505.337C613.82 505.778 613.9 506.28 613.839 506.845H613.19ZM615.07 515L616.434 506.818H617.078L615.714 515H615.07ZM617.062 505.364C616.909 505.364 616.782 505.312 616.679 505.21C616.579 505.103 616.536 504.973 616.551 504.821C616.558 504.693 616.615 504.581 616.721 504.485C616.828 504.389 616.95 504.341 617.089 504.341C617.241 504.341 617.367 504.395 617.467 504.501C617.566 504.604 617.611 504.73 617.6 504.879C617.589 505.011 617.531 505.124 617.424 505.22C617.321 505.316 617.201 505.364 617.062 505.364ZM620.876 518.239C620.368 518.239 619.922 518.171 619.539 518.036C619.155 517.905 618.839 517.717 618.591 517.472C618.346 517.227 618.177 516.935 618.085 516.598L618.671 516.294C618.749 516.557 618.88 516.79 619.065 516.992C619.25 517.195 619.495 517.353 619.8 517.466C620.109 517.583 620.484 517.642 620.924 517.642C621.712 517.642 622.376 517.438 622.916 517.029C623.456 516.625 623.795 516.003 623.934 515.165L624.264 513.13H624.2C624.019 513.485 623.783 513.801 623.491 514.078C623.204 514.352 622.872 514.567 622.495 514.723C622.119 514.879 621.707 514.957 621.259 514.957C620.61 514.957 620.068 514.79 619.635 514.457C619.202 514.123 618.898 513.654 618.724 513.05C618.554 512.443 618.536 511.729 618.671 510.909C618.809 510.089 619.065 509.363 619.438 508.73C619.811 508.095 620.271 507.598 620.817 507.239C621.368 506.877 621.973 506.696 622.634 506.696C623.106 506.696 623.5 506.786 623.816 506.967C624.132 507.145 624.383 507.381 624.567 507.676C624.752 507.971 624.882 508.294 624.956 508.645H625.031L625.329 506.818H625.958L624.573 515.192C624.459 515.877 624.232 516.444 623.891 516.891C623.55 517.342 623.12 517.679 622.602 517.903C622.087 518.127 621.512 518.239 620.876 518.239ZM621.366 514.355C621.909 514.355 622.407 514.217 622.858 513.94C623.312 513.659 623.694 513.262 624.003 512.747C624.312 512.228 624.527 511.614 624.647 510.904C624.761 510.215 624.757 509.599 624.637 509.055C624.516 508.512 624.283 508.084 623.939 507.772C623.598 507.459 623.149 507.303 622.591 507.303C622.03 507.303 621.522 507.463 621.068 507.782C620.617 508.098 620.24 508.528 619.938 509.071C619.637 509.615 619.431 510.225 619.321 510.904C619.207 511.586 619.209 512.186 619.326 512.704C619.443 513.219 619.672 513.624 620.013 513.919C620.354 514.21 620.805 514.355 621.366 514.355ZM628.857 509.695L627.978 515H627.328L628.692 506.818H629.325L629.112 508.113H629.176C629.432 507.69 629.794 507.351 630.263 507.095C630.732 506.839 631.257 506.712 631.84 506.712C632.387 506.712 632.85 506.829 633.23 507.063C633.61 507.298 633.882 507.631 634.045 508.065C634.208 508.494 634.24 509.007 634.141 509.604L633.241 515H632.591L633.486 509.631C633.599 508.935 633.489 508.375 633.155 507.953C632.825 507.527 632.321 507.314 631.643 507.314C631.184 507.314 630.758 507.413 630.364 507.612C629.974 507.811 629.645 508.089 629.379 508.448C629.112 508.803 628.938 509.219 628.857 509.695ZM638.088 515.176C637.616 515.176 637.198 515.082 636.836 514.893C636.477 514.705 636.209 514.43 636.032 514.068C635.854 513.706 635.806 513.265 635.888 512.747C635.948 512.406 636.06 512.106 636.224 511.847C636.387 511.587 636.611 511.364 636.895 511.175C637.179 510.987 637.527 510.833 637.939 510.712C638.354 510.588 638.839 510.492 639.393 510.424C639.819 510.375 640.199 510.325 640.533 510.275C640.867 510.225 641.137 510.149 641.343 510.046C641.548 509.943 641.669 509.789 641.705 509.583L641.758 509.242C641.857 508.649 641.756 508.176 641.454 507.825C641.153 507.47 640.671 507.292 640.011 507.292C639.428 507.292 638.906 507.424 638.445 507.686C637.983 507.946 637.639 508.274 637.411 508.672L636.847 508.443C637.067 508.052 637.346 507.727 637.683 507.468C638.024 507.209 638.397 507.015 638.802 506.887C639.21 506.76 639.626 506.696 640.048 506.696C640.414 506.696 640.755 506.747 641.071 506.85C641.387 506.953 641.657 507.109 641.881 507.319C642.108 507.528 642.269 507.797 642.365 508.123C642.465 508.446 642.475 508.833 642.397 509.284L641.449 515H640.799L641.05 513.525H641.002C640.81 513.83 640.568 514.109 640.277 514.361C639.99 514.609 639.661 514.808 639.292 514.957C638.922 515.103 638.521 515.176 638.088 515.176ZM638.21 514.574C638.722 514.574 639.198 514.45 639.638 514.201C640.082 513.949 640.455 513.604 640.757 513.168C641.062 512.731 641.259 512.235 641.348 511.681L641.556 510.478C641.46 510.549 641.33 510.613 641.167 510.669C641.003 510.723 640.82 510.771 640.618 510.813C640.419 510.852 640.211 510.888 639.995 510.92C639.782 510.948 639.574 510.975 639.372 511C638.764 511.071 638.262 511.181 637.864 511.33C637.466 511.475 637.159 511.667 636.943 511.905C636.73 512.143 636.593 512.431 636.532 512.768C636.444 513.326 636.557 513.766 636.873 514.089C637.193 514.412 637.639 514.574 638.21 514.574ZM648.43 506.818L648.328 507.399H644.76L644.855 506.818H648.43ZM646.384 504.858H647.029L645.676 513.066C645.619 513.4 645.637 513.674 645.729 513.887C645.825 514.096 645.969 514.252 646.161 514.355C646.356 514.455 646.578 514.505 646.826 514.505C646.936 514.505 647.036 514.496 647.125 514.478C647.213 514.457 647.302 514.434 647.391 514.409L647.45 515C647.339 515.039 647.222 515.071 647.098 515.096C646.974 515.121 646.83 515.133 646.667 515.133C646.326 515.133 646.017 515.057 645.74 514.904C645.466 514.751 645.259 514.529 645.116 514.238C644.978 513.947 644.944 513.596 645.015 513.184L646.384 504.858ZM655.203 512.097L656.081 506.818H656.731L655.368 515H654.718L654.942 513.674H654.883C654.627 514.096 654.262 514.441 653.786 514.707C653.31 514.973 652.781 515.107 652.198 515.107C651.662 515.107 651.208 514.989 650.835 514.755C650.462 514.521 650.194 514.189 650.03 513.759C649.871 513.326 649.84 512.811 649.94 512.214L650.84 506.818H651.49L650.595 512.188C650.485 512.869 650.602 513.422 650.947 513.844C651.291 514.263 651.792 514.473 652.449 514.473C652.875 514.473 653.281 514.377 653.669 514.185C654.059 513.993 654.391 513.72 654.665 513.365C654.942 513.006 655.121 512.583 655.203 512.097ZM658.06 515L659.424 506.818H660.058L659.845 508.097H659.903C660.145 507.678 660.5 507.342 660.969 507.09C661.438 506.834 661.942 506.706 662.482 506.706C662.542 506.706 662.599 506.706 662.652 506.706C662.705 506.706 662.759 506.708 662.812 506.712L662.7 507.367C662.657 507.363 662.606 507.358 662.545 507.351C662.489 507.34 662.418 507.335 662.332 507.335C661.878 507.335 661.457 507.433 661.07 507.628C660.683 507.823 660.36 508.093 660.1 508.438C659.841 508.778 659.676 509.169 659.605 509.609L658.71 515H658.06ZM666.093 515.17C665.354 515.17 664.742 514.988 664.255 514.622C663.769 514.256 663.43 513.755 663.238 513.12C663.046 512.484 663.018 511.76 663.153 510.946C663.288 510.13 663.558 509.402 663.962 508.762C664.367 508.123 664.863 507.619 665.449 507.25C666.034 506.88 666.667 506.696 667.345 506.696C667.803 506.696 668.22 506.788 668.597 506.973C668.977 507.157 669.296 507.422 669.555 507.766C669.815 508.107 669.994 508.521 670.093 509.007C670.193 509.494 670.193 510.041 670.093 510.648L670.019 511.053H663.542L663.643 510.462H669.465C669.564 509.872 669.536 509.339 669.38 508.864C669.223 508.384 668.964 508.004 668.602 507.724C668.243 507.443 667.803 507.303 667.281 507.303C666.748 507.303 666.24 507.457 665.757 507.766C665.278 508.072 664.866 508.48 664.522 508.991C664.181 509.503 663.953 510.066 663.84 510.68L663.776 511.01C663.662 511.713 663.676 512.333 663.819 512.869C663.964 513.402 664.234 513.819 664.628 514.121C665.022 514.419 665.537 514.569 666.173 514.569C666.617 514.569 667.011 514.494 667.355 514.345C667.703 514.192 667.998 514.007 668.24 513.791C668.485 513.574 668.676 513.365 668.815 513.162L669.353 513.402C669.19 513.675 668.955 513.949 668.65 514.222C668.344 514.492 667.977 514.718 667.547 514.899C667.118 515.08 666.633 515.17 666.093 515.17Z" fill="white"/>
<path d="M1060.3 479C1060.3 482.302 1059.73 485.187 1058.58 487.656C1057.44 490.115 1055.84 492.026 1053.8 493.391C1051.77 494.755 1049.43 495.437 1046.77 495.437C1044.1 495.437 1041.75 494.755 1039.71 493.391C1037.68 492.016 1036.09 490.099 1034.94 487.641C1033.8 485.172 1033.22 482.292 1033.22 479C1033.22 475.698 1033.8 472.818 1034.94 470.359C1036.1 467.901 1037.69 465.99 1039.72 464.625C1041.76 463.25 1044.1 462.562 1046.77 462.562C1049.43 462.562 1051.77 463.245 1053.8 464.609C1055.84 465.974 1057.44 467.891 1058.58 470.359C1059.73 472.818 1060.3 475.698 1060.3 479ZM1058.4 479C1058.4 476.031 1057.9 473.458 1056.9 471.281C1055.91 469.104 1054.54 467.422 1052.79 466.234C1051.04 465.036 1049.03 464.437 1046.77 464.437C1044.51 464.437 1042.51 465.031 1040.76 466.219C1039.01 467.396 1037.63 469.078 1036.63 471.266C1035.64 473.443 1035.15 476.021 1035.15 479C1035.15 481.948 1035.64 484.516 1036.62 486.703C1037.6 488.88 1038.97 490.568 1040.72 491.766C1042.47 492.964 1044.49 493.562 1046.77 493.562C1049.03 493.562 1051.04 492.969 1052.79 491.781C1054.54 490.583 1055.91 488.896 1056.9 486.719C1057.9 484.542 1058.4 481.969 1058.4 479ZM1082.64 486.484V471H1084.54V495H1082.64V491.109H1082.48C1081.92 492.349 1081.01 493.359 1079.75 494.141C1078.5 494.922 1077.02 495.313 1075.31 495.313C1073.74 495.313 1072.35 494.969 1071.14 494.281C1069.93 493.594 1068.98 492.62 1068.29 491.359C1067.61 490.089 1067.26 488.578 1067.26 486.828V471H1069.17V486.75C1069.17 488.75 1069.77 490.37 1070.98 491.609C1072.2 492.839 1073.77 493.453 1075.7 493.453C1076.95 493.453 1078.1 493.172 1079.15 492.609C1080.21 492.047 1081.05 491.245 1081.69 490.203C1082.32 489.151 1082.64 487.911 1082.64 486.484ZM1100.93 471V472.703H1090.44V471H1100.93ZM1093.99 465.25H1095.88V489.328C1095.88 490.307 1096.07 491.109 1096.44 491.734C1096.83 492.349 1097.33 492.807 1097.94 493.109C1098.57 493.401 1099.24 493.547 1099.94 493.547C1100.29 493.547 1100.58 493.521 1100.83 493.469C1101.09 493.417 1101.34 493.349 1101.57 493.266L1102.04 495C1101.75 495.104 1101.42 495.193 1101.07 495.266C1100.71 495.349 1100.3 495.391 1099.82 495.391C1098.82 495.391 1097.87 495.167 1096.97 494.719C1096.09 494.271 1095.37 493.62 1094.82 492.766C1094.27 491.911 1093.99 490.88 1093.99 489.672V465.25ZM1108 504V471H1109.86V476.359H1110.09C1110.47 475.328 1110.99 474.38 1111.67 473.516C1112.36 472.651 1113.21 471.958 1114.22 471.437C1115.24 470.906 1116.44 470.641 1117.81 470.641C1119.75 470.641 1121.44 471.172 1122.87 472.234C1124.31 473.297 1125.43 474.766 1126.22 476.641C1127.01 478.505 1127.4 480.646 1127.4 483.063C1127.4 485.479 1127 487.625 1126.2 489.5C1125.41 491.365 1124.29 492.833 1122.86 493.906C1121.43 494.969 1119.76 495.5 1117.84 495.5C1116.48 495.5 1115.28 495.24 1114.25 494.719C1113.23 494.198 1112.37 493.505 1111.67 492.641C1110.98 491.766 1110.46 490.807 1110.09 489.766H1109.9V504H1108ZM1109.87 483.047C1109.87 485.089 1110.19 486.917 1110.81 488.531C1111.44 490.135 1112.33 491.406 1113.5 492.344C1114.66 493.271 1116.06 493.734 1117.67 493.734C1119.31 493.734 1120.71 493.266 1121.87 492.328C1123.05 491.38 1123.95 490.099 1124.56 488.484C1125.19 486.87 1125.5 485.057 1125.5 483.047C1125.5 481.036 1125.19 479.229 1124.58 477.625C1123.96 476.021 1123.07 474.755 1121.9 473.828C1120.74 472.891 1119.33 472.422 1117.67 472.422C1116.03 472.422 1114.63 472.885 1113.47 473.812C1112.31 474.729 1111.42 475.99 1110.79 477.594C1110.18 479.187 1109.87 481.005 1109.87 483.047ZM1149.37 486.484V471H1151.28V495H1149.37V491.109H1149.21C1148.65 492.349 1147.74 493.359 1146.48 494.141C1145.23 494.922 1143.75 495.313 1142.04 495.313C1140.47 495.313 1139.08 494.969 1137.87 494.281C1136.66 493.594 1135.71 492.62 1135.03 491.359C1134.34 490.089 1133.99 488.578 1133.99 486.828V471H1135.9V486.75C1135.9 488.75 1136.5 490.37 1137.71 491.609C1138.93 492.839 1140.5 493.453 1142.43 493.453C1143.68 493.453 1144.83 493.172 1145.88 492.609C1146.94 492.047 1147.78 491.245 1148.42 490.203C1149.05 489.151 1149.37 487.911 1149.37 486.484ZM1167.66 471V472.703H1157.17V471H1167.66ZM1160.72 465.25H1162.61V489.328C1162.61 490.307 1162.8 491.109 1163.17 491.734C1163.56 492.349 1164.06 492.807 1164.67 493.109C1165.3 493.401 1165.97 493.547 1166.67 493.547C1167.02 493.547 1167.31 493.521 1167.56 493.469C1167.82 493.417 1168.07 493.349 1168.3 493.266L1168.77 495C1168.48 495.104 1168.15 495.193 1167.8 495.266C1167.44 495.349 1167.03 495.391 1166.55 495.391C1165.55 495.391 1164.6 495.167 1163.71 494.719C1162.82 494.271 1162.1 493.62 1161.55 492.766C1161 491.911 1160.72 490.88 1160.72 489.672V465.25Z" fill="white"/>
</svg>
