<svg width="768" height="263" viewBox="0 0 768 263" fill="none" xmlns="http://www.w3.org/2000/svg">
<path d="M724.783 9L738.891 53.3619C742.567 64.9213 743.17 77.2386 740.641 89.1019V89.1019C732.109 129.128 691.156 153.283 651.998 141.386L548.467 109.931C462.002 83.6608 367.697 154.857 277.7 163.029C274.868 163.287 271.978 163.446 269.029 163.5C226.051 164.291 161.658 166.446 148.013 166.911C146.25 166.971 144.535 167.063 142.776 167.188L76.9738 171.869C54.8219 173.445 36.0775 188.832 30.2151 210.252V210.252C28.1 217.981 27.7878 226.092 29.3028 233.96L33.354 255" stroke="#6B6B6B" stroke-width="5" stroke-dasharray="15 15"/>
<path d="M724.783 9L738.891 53.3619C742.567 64.9213 743.17 77.2386 740.641 89.1019V89.1019C732.109 129.128 691.156 153.283 651.998 141.386L548.467 109.931C462.002 83.6608 367.697 154.857 277.7 163.029C274.868 163.287 271.978 163.446 269.029 163.5C226.051 164.291 161.658 166.446 148.013 166.911C146.25 166.971 144.535 167.063 142.776 167.188L76.9738 171.869C54.8219 173.445 36.0775 188.832 30.2151 210.252V210.252C28.1 217.981 27.7878 226.092 29.3028 233.96L33.354 255" stroke="#F1760F" stroke-width="5" stroke-dasharray="15 15"/>
</svg>
