<svg width="768" height="263" viewBox="0 0 768 263" fill="none" xmlns="http://www.w3.org/2000/svg">
<path d="M40 15.5L43.6735 31.1269C59.2391 97.3425 124.154 139.586 191 127V127L206.289 124.573C235.996 119.858 266.05 130.678 285.934 153.249L291.105 159.119C313.115 184.103 348.69 192.112 379.283 178.969L451.039 148.142C459.007 144.719 461.805 134.831 456.813 127.741L447.084 113.924C442.42 107.299 432 110.599 432 118.701V118.701C432 123.285 435.715 127 440.299 127H498.61C508.416 127 518.1 129.165 526.973 133.34L580.741 158.643C597.815 166.678 616.981 169.15 635.536 165.711L637.286 165.387C684.804 156.579 730.576 187.601 740 235V235" stroke="#F1760F" stroke-width="5" stroke-miterlimit="1" stroke-dasharray="15 15"/>
</svg>
