<svg width="768" height="263" viewBox="0 0 768 263" fill="none" xmlns="http://www.w3.org/2000/svg">
<path d="M43.2172 9L29.1093 53.3619C25.4332 64.9213 24.8298 77.2386 27.3586 89.1019V89.1019C35.8905 129.128 76.8436 153.283 116.002 141.386L219.533 109.931C305.998 83.6608 400.303 154.857 490.3 163.029C493.132 163.287 496.022 163.446 498.971 163.5C541.949 164.291 606.342 166.446 619.987 166.911C621.75 166.971 623.465 167.063 625.224 167.188L691.026 171.869C713.178 173.445 731.923 188.832 737.785 210.252V210.252C739.9 217.981 740.212 226.092 738.697 233.96L734.646 255" stroke="#F1760F" stroke-width="5" stroke-dasharray="15 15"/>
</svg>
