<svg width="5878" height="2013" viewBox="0 0 5878 2013" fill="none" xmlns="http://www.w3.org/2000/svg">
<rect width="5878" height="2013" fill="#1E1E1E"/>
<rect x="979.5" y="1605.5" width="710" height="233" rx="17.5" stroke="#F1760D" stroke-width="9" stroke-dasharray="44 44"/>
<rect x="943" y="592" width="4127" height="1029" rx="62" fill="#1E1E1E" stroke="white" stroke-width="8"/>
<path d="M1157.11 1750L1130.47 1667.44H1139.23L1161.67 1738.48H1159.03L1181.23 1667.44H1187.83L1210.15 1738.48H1207.39L1229.83 1667.44H1238.71L1211.95 1750H1205.47L1183.27 1679.08H1185.79L1163.59 1750H1157.11ZM1251.73 1750V1693.6H1260.25V1750H1251.73ZM1255.93 1681.36C1254.33 1681.36 1252.97 1680.8 1251.85 1679.68C1250.73 1678.48 1250.17 1677.08 1250.17 1675.48C1250.17 1673.8 1250.73 1672.4 1251.85 1671.28C1252.97 1670.16 1254.33 1669.6 1255.93 1669.6C1257.69 1669.6 1259.09 1670.16 1260.13 1671.28C1261.25 1672.4 1261.81 1673.8 1261.81 1675.48C1261.81 1677.08 1261.25 1678.48 1260.13 1679.68C1259.09 1680.8 1257.69 1681.36 1255.93 1681.36ZM1286.04 1750V1669.84H1294.44V1750H1286.04ZM1271.76 1701.16V1693.6H1308.6V1701.16H1271.76ZM1361.21 1750V1716.88C1361.21 1711.92 1359.73 1707.92 1356.77 1704.88C1353.89 1701.76 1350.05 1700.2 1345.25 1700.2C1341.97 1700.2 1339.09 1700.92 1336.61 1702.36C1334.13 1703.8 1332.17 1705.76 1330.73 1708.24C1329.29 1710.72 1328.57 1713.56 1328.57 1716.76L1324.73 1714.6C1324.73 1710.36 1325.73 1706.56 1327.73 1703.2C1329.73 1699.84 1332.41 1697.2 1335.77 1695.28C1339.21 1693.36 1343.13 1692.4 1347.53 1692.4C1351.85 1692.4 1355.69 1693.44 1359.05 1695.52C1362.41 1697.6 1365.01 1700.4 1366.85 1703.92C1368.77 1707.44 1369.73 1711.28 1369.73 1715.44V1750H1361.21ZM1320.17 1750V1693.6H1328.57V1750H1320.17ZM1411.48 1751.2C1405.8 1751.2 1400.72 1749.92 1396.24 1747.36C1391.76 1744.8 1388.2 1741.28 1385.56 1736.8C1383 1732.32 1381.72 1727.28 1381.72 1721.68C1381.72 1716.16 1383 1711.2 1385.56 1706.8C1388.12 1702.32 1391.6 1698.8 1396 1696.24C1400.4 1693.68 1405.32 1692.4 1410.76 1692.4C1415.88 1692.4 1420.4 1693.56 1424.32 1695.88C1428.32 1698.2 1431.44 1701.44 1433.68 1705.6C1436 1709.68 1437.16 1714.4 1437.16 1719.76C1437.16 1720.4 1437.12 1721.16 1437.04 1722.04C1436.96 1722.84 1436.8 1723.8 1436.56 1724.92H1387.72V1717.72H1432L1429 1720.36C1429.08 1716.2 1428.36 1712.64 1426.84 1709.68C1425.4 1706.64 1423.28 1704.32 1420.48 1702.72C1417.76 1701.04 1414.44 1700.2 1410.52 1700.2C1406.44 1700.2 1402.88 1701.08 1399.84 1702.84C1396.8 1704.6 1394.4 1707.08 1392.64 1710.28C1390.96 1713.4 1390.12 1717.12 1390.12 1721.44C1390.12 1725.76 1391 1729.56 1392.76 1732.84C1394.6 1736.12 1397.12 1738.68 1400.32 1740.52C1403.6 1742.36 1407.36 1743.28 1411.6 1743.28C1415.04 1743.28 1418.2 1742.68 1421.08 1741.48C1423.96 1740.2 1426.4 1738.32 1428.4 1735.84L1433.8 1741.36C1431.16 1744.48 1427.88 1746.92 1423.96 1748.68C1420.12 1750.36 1415.96 1751.2 1411.48 1751.2ZM1467.29 1751.2C1464.25 1751.2 1461.33 1750.8 1458.53 1750C1455.73 1749.12 1453.17 1747.92 1450.85 1746.4C1448.61 1744.88 1446.65 1743.08 1444.97 1741L1450.37 1735.48C1452.61 1738.2 1455.13 1740.24 1457.93 1741.6C1460.81 1742.88 1464.01 1743.52 1467.53 1743.52C1471.29 1743.52 1474.21 1742.8 1476.29 1741.36C1478.45 1739.92 1479.53 1737.92 1479.53 1735.36C1479.53 1732.96 1478.77 1731.08 1477.25 1729.72C1475.73 1728.36 1473.77 1727.28 1471.37 1726.48C1469.05 1725.68 1466.57 1724.92 1463.93 1724.2C1461.29 1723.4 1458.77 1722.44 1456.37 1721.32C1453.97 1720.12 1452.01 1718.48 1450.49 1716.4C1449.05 1714.32 1448.33 1711.6 1448.33 1708.24C1448.33 1705.04 1449.09 1702.28 1450.61 1699.96C1452.21 1697.56 1454.45 1695.72 1457.33 1694.44C1460.29 1693.08 1463.77 1692.4 1467.77 1692.4C1472.01 1692.4 1475.85 1693.16 1479.29 1694.68C1482.73 1696.2 1485.49 1698.44 1487.57 1701.4L1482.17 1706.8C1480.49 1704.64 1478.37 1703 1475.81 1701.88C1473.33 1700.68 1470.53 1700.08 1467.41 1700.08C1463.81 1700.08 1461.05 1700.8 1459.13 1702.24C1457.29 1703.6 1456.37 1705.4 1456.37 1707.64C1456.37 1709.8 1457.13 1711.52 1458.65 1712.8C1460.17 1714 1462.09 1715 1464.41 1715.8C1466.81 1716.52 1469.33 1717.28 1471.97 1718.08C1474.61 1718.8 1477.13 1719.8 1479.53 1721.08C1481.93 1722.28 1483.85 1723.96 1485.29 1726.12C1486.81 1728.2 1487.57 1731.04 1487.57 1734.64C1487.57 1739.68 1485.73 1743.72 1482.05 1746.76C1478.45 1749.72 1473.53 1751.2 1467.29 1751.2ZM1518.15 1751.2C1515.11 1751.2 1512.19 1750.8 1509.39 1750C1506.59 1749.12 1504.03 1747.92 1501.71 1746.4C1499.47 1744.88 1497.51 1743.08 1495.83 1741L1501.23 1735.48C1503.47 1738.2 1505.99 1740.24 1508.79 1741.6C1511.67 1742.88 1514.87 1743.52 1518.39 1743.52C1522.15 1743.52 1525.07 1742.8 1527.15 1741.36C1529.31 1739.92 1530.39 1737.92 1530.39 1735.36C1530.39 1732.96 1529.63 1731.08 1528.11 1729.72C1526.59 1728.36 1524.63 1727.28 1522.23 1726.48C1519.91 1725.68 1517.43 1724.92 1514.79 1724.2C1512.15 1723.4 1509.63 1722.44 1507.23 1721.32C1504.83 1720.12 1502.87 1718.48 1501.35 1716.4C1499.91 1714.32 1499.19 1711.6 1499.19 1708.24C1499.19 1705.04 1499.95 1702.28 1501.47 1699.96C1503.07 1697.56 1505.31 1695.72 1508.19 1694.44C1511.15 1693.08 1514.63 1692.4 1518.63 1692.4C1522.87 1692.4 1526.71 1693.16 1530.15 1694.68C1533.59 1696.2 1536.35 1698.44 1538.43 1701.4L1533.03 1706.8C1531.35 1704.64 1529.23 1703 1526.67 1701.88C1524.19 1700.68 1521.39 1700.08 1518.27 1700.08C1514.67 1700.08 1511.91 1700.8 1509.99 1702.24C1508.15 1703.6 1507.23 1705.4 1507.23 1707.64C1507.23 1709.8 1507.99 1711.52 1509.51 1712.8C1511.03 1714 1512.95 1715 1515.27 1715.8C1517.67 1716.52 1520.19 1717.28 1522.83 1718.08C1525.47 1718.8 1527.99 1719.8 1530.39 1721.08C1532.79 1722.28 1534.71 1723.96 1536.15 1726.12C1537.67 1728.2 1538.43 1731.04 1538.43 1734.64C1538.43 1739.68 1536.59 1743.72 1532.91 1746.76C1529.31 1749.72 1524.39 1751.2 1518.15 1751.2Z" fill="#F1760D"/>
<path d="M947 1112L5058 1112" stroke="white" stroke-width="4"/>
<path d="M2989 588V1625" stroke="white" stroke-width="4"/>
<path d="M194.312 703.727L179.824 791H171.855L186.344 703.727H194.312ZM215.811 750.091L209.036 791H201.45L212.359 725.545H219.732L218.027 735.815H218.709C220.754 732.463 223.581 729.778 227.189 727.761C230.825 725.716 235.044 724.693 239.845 724.693C244.22 724.693 247.913 725.616 250.925 727.463C253.964 729.281 256.124 731.966 257.402 735.517C258.709 739.068 258.936 743.429 258.084 748.599L250.967 791H243.382L250.371 749.068C251.251 743.727 250.47 739.494 248.027 736.369C245.612 733.216 241.876 731.639 236.82 731.639C233.382 731.639 230.186 732.378 227.232 733.855C224.305 735.332 221.834 737.463 219.817 740.247C217.8 743.003 216.464 746.284 215.811 750.091ZM266.852 815.545L281.937 725.545H289.309L287.263 738.031H288.158C289.352 736.071 290.9 734.054 292.803 731.98C294.735 729.906 297.136 728.173 300.005 726.781C302.903 725.361 306.369 724.651 310.403 724.651C315.8 724.651 320.275 726.057 323.826 728.869C327.406 731.682 329.906 735.631 331.326 740.716C332.775 745.801 332.931 751.71 331.795 758.443C330.687 765.205 328.57 771.128 325.445 776.213C322.32 781.298 318.499 785.261 313.982 788.102C309.494 790.943 304.579 792.364 299.238 792.364C295.289 792.364 292.093 791.653 289.65 790.233C287.235 788.812 285.388 787.065 284.11 784.991C282.832 782.889 281.908 780.844 281.34 778.855H280.658L274.522 815.545H266.852ZM283.982 758.315C283.13 763.599 283.13 768.287 283.982 772.378C284.835 776.44 286.553 779.636 289.138 781.966C291.724 784.267 295.133 785.418 299.366 785.418C303.712 785.418 307.59 784.224 310.999 781.838C314.408 779.423 317.249 776.17 319.522 772.08C321.795 767.989 323.357 763.401 324.21 758.315C325.005 753.287 324.977 748.756 324.124 744.722C323.272 740.687 321.567 737.491 319.011 735.134C316.454 732.747 312.974 731.554 308.57 731.554C304.309 731.554 300.474 732.705 297.065 735.006C293.684 737.278 290.871 740.432 288.627 744.466C286.383 748.472 284.835 753.088 283.982 758.315ZM388.737 765.986L395.513 725.545H403.098L392.189 791H384.604L386.393 780.134H385.839C383.794 783.486 380.896 786.284 377.146 788.528C373.425 790.744 369.163 791.852 364.362 791.852C360.186 791.852 356.621 790.943 353.666 789.125C350.74 787.278 348.652 784.58 347.402 781.028C346.152 777.477 345.953 773.116 346.805 767.946L353.922 725.545H361.507L354.518 767.477C353.695 772.591 354.518 776.71 356.99 779.835C359.49 782.932 363.098 784.48 367.814 784.48C370.768 784.48 373.723 783.77 376.678 782.349C379.661 780.929 382.246 778.855 384.433 776.128C386.649 773.372 388.084 769.991 388.737 765.986ZM448.961 725.545L447.896 732.151H416.617L417.725 725.545H448.961ZM430.04 709.864H437.668L427.015 773.912C426.56 776.639 426.674 778.784 427.356 780.347C428.038 781.881 429.089 782.974 430.509 783.628C431.93 784.253 433.492 784.565 435.197 784.565C436.191 784.565 437.043 784.509 437.754 784.395C438.492 784.253 439.146 784.111 439.714 783.969L440.268 790.83C439.444 791.114 438.464 791.369 437.327 791.597C436.191 791.852 434.827 791.98 433.237 791.98C430.452 791.98 427.881 791.369 425.523 790.148C423.165 788.926 421.376 787.108 420.154 784.693C418.933 782.278 418.606 779.281 419.174 775.702L430.04 709.864ZM525.719 725.545L524.653 732.151H493.375L494.483 725.545H525.719ZM506.798 709.864H514.426L503.773 773.912C503.318 776.639 503.432 778.784 504.114 780.347C504.795 781.881 505.847 782.974 507.267 783.628C508.688 784.253 510.25 784.565 511.955 784.565C512.949 784.565 513.801 784.509 514.511 784.395C515.25 784.253 515.903 784.111 516.472 783.969L517.026 790.83C516.202 791.114 515.222 791.369 514.085 791.597C512.949 791.852 511.585 791.98 509.994 791.98C507.21 791.98 504.639 791.369 502.281 790.148C499.923 788.926 498.134 787.108 496.912 784.693C495.69 782.278 495.364 779.281 495.932 775.702L506.798 709.864ZM557.072 792.364C551.333 792.364 546.504 790.915 542.583 788.017C538.663 785.091 535.893 781.043 534.273 775.872C532.654 770.702 532.384 764.736 533.464 757.974C534.543 751.384 536.688 745.588 539.898 740.588C543.137 735.56 547.114 731.653 551.83 728.869C556.546 726.057 561.674 724.651 567.214 724.651C572.981 724.651 577.81 726.114 581.702 729.04C585.623 731.966 588.393 736.014 590.012 741.185C591.66 746.355 591.944 752.335 590.864 759.125C589.785 765.688 587.626 771.469 584.387 776.469C581.148 781.44 577.171 785.332 572.455 788.145C567.768 790.957 562.64 792.364 557.072 792.364ZM557.157 785.418C561.816 785.418 565.964 784.182 569.6 781.71C573.265 779.21 576.29 775.886 578.677 771.739C581.063 767.562 582.668 762.974 583.492 757.974C584.259 753.202 584.174 748.812 583.237 744.807C582.299 740.801 580.495 737.591 577.825 735.176C575.154 732.761 571.603 731.554 567.171 731.554C562.54 731.554 558.393 732.818 554.728 735.347C551.063 737.847 548.038 741.199 545.651 745.403C543.265 749.58 541.674 754.153 540.879 759.125C540.083 763.926 540.14 768.315 541.049 772.293C541.987 776.27 543.79 779.452 546.461 781.838C549.16 784.224 552.725 785.418 557.157 785.418ZM688.482 739.906L681.195 741.781C680.825 739.821 680.143 738.06 679.149 736.497C678.183 734.906 676.777 733.656 674.93 732.747C673.112 731.81 670.726 731.341 667.771 731.341C663.339 731.341 659.518 732.42 656.308 734.58C653.098 736.71 651.223 739.437 650.683 742.761C650.229 745.545 650.811 747.804 652.43 749.537C654.078 751.27 656.834 752.634 660.697 753.628L670.243 756.057C675.527 757.42 679.291 759.551 681.536 762.449C683.808 765.347 684.589 769.011 683.879 773.443C683.254 777.136 681.678 780.403 679.149 783.244C676.649 786.085 673.439 788.315 669.518 789.935C665.626 791.554 661.28 792.364 656.479 792.364C650.03 792.364 644.959 790.915 641.266 788.017C637.601 785.119 635.641 780.943 635.385 775.489L643.013 773.784C643.24 777.648 644.561 780.574 646.976 782.562C649.419 784.551 652.857 785.545 657.288 785.545C662.345 785.545 666.592 784.395 670.03 782.094C673.467 779.793 675.442 776.952 675.953 773.571C676.436 770.901 675.939 768.685 674.462 766.923C673.013 765.162 670.541 763.855 667.047 763.003L656.862 760.446C651.379 759.054 647.501 756.881 645.229 753.926C642.984 750.943 642.232 747.264 642.97 742.889C643.567 739.281 645.072 736.114 647.487 733.386C649.902 730.659 652.956 728.528 656.649 726.994C660.342 725.432 664.376 724.651 668.751 724.651C674.774 724.651 679.362 726.014 682.516 728.741C685.669 731.44 687.658 735.162 688.482 739.906ZM697.59 791L708.499 725.545H716.127L705.218 791H697.59ZM715.062 714.168C713.471 714.168 712.121 713.628 711.013 712.548C709.934 711.469 709.408 710.162 709.437 708.628C709.494 707.179 710.076 705.929 711.184 704.878C712.32 703.798 713.656 703.259 715.19 703.259C716.781 703.259 718.13 703.812 719.238 704.92C720.346 706 720.871 707.307 720.815 708.841C720.786 710.29 720.204 711.54 719.067 712.591C717.931 713.642 716.596 714.168 715.062 714.168ZM746.159 816.909C741.699 816.909 737.878 816.327 734.696 815.162C731.514 814.026 728.929 812.463 726.94 810.474C724.98 808.486 723.545 806.256 722.636 803.784L729.54 799.736C730.165 801.384 731.116 803.003 732.395 804.594C733.673 806.185 735.477 807.491 737.807 808.514C740.136 809.565 743.19 810.091 746.969 810.091C752.736 810.091 757.693 808.628 761.841 805.702C765.989 802.804 768.574 798.315 769.597 792.236L771.898 777.491H771.216C770.051 779.48 768.489 781.469 766.528 783.457C764.568 785.418 762.139 787.051 759.241 788.358C756.372 789.665 752.977 790.318 749.057 790.318C743.83 790.318 739.398 789.026 735.761 786.44C732.125 783.855 729.554 780.162 728.048 775.361C726.543 770.531 726.358 764.778 727.494 758.102C728.574 751.483 730.648 745.659 733.716 740.631C736.813 735.602 740.619 731.682 745.136 728.869C749.682 726.057 754.653 724.651 760.051 724.651C764.057 724.651 767.267 725.361 769.682 726.781C772.097 728.173 773.929 729.906 775.179 731.98C776.457 734.054 777.381 736.071 777.949 738.031H778.716L780.761 725.545H788.176L777.097 792.705C776.159 798.244 774.227 802.804 771.301 806.384C768.375 809.963 764.739 812.605 760.392 814.31C756.074 816.043 751.33 816.909 746.159 816.909ZM750.761 783.372C754.966 783.372 758.744 782.364 762.097 780.347C765.477 778.301 768.304 775.389 770.577 771.611C772.878 767.804 774.455 763.259 775.307 757.974C776.159 752.861 776.116 748.33 775.179 744.381C774.27 740.403 772.494 737.278 769.852 735.006C767.239 732.705 763.801 731.554 759.54 731.554C755.136 731.554 751.244 732.733 747.864 735.091C744.511 737.449 741.741 740.631 739.554 744.636C737.395 748.614 735.903 753.06 735.08 757.974C734.284 762.974 734.313 767.392 735.165 771.227C736.045 775.034 737.778 778.017 740.364 780.176C742.949 782.307 746.415 783.372 750.761 783.372ZM811.71 750.091L804.934 791H797.349L808.258 725.545H815.63L813.925 735.815H814.607C816.653 732.463 819.479 729.778 823.087 727.761C826.724 725.716 830.942 724.693 835.744 724.693C840.119 724.693 843.812 725.616 846.823 727.463C849.863 729.281 852.022 731.966 853.3 735.517C854.607 739.068 854.835 743.429 853.982 748.599L846.866 791H839.281L846.269 749.068C847.15 743.727 846.369 739.494 843.925 736.369C841.511 733.216 837.775 731.639 832.718 731.639C829.281 731.639 826.085 732.378 823.13 733.855C820.204 735.332 817.732 737.463 815.715 740.247C813.698 743.003 812.363 746.284 811.71 750.091ZM270 936L284.488 848.727H312.656C318.849 848.727 323.835 849.906 327.613 852.264C331.392 854.622 333.991 857.832 335.412 861.895C336.86 865.957 337.159 870.545 336.306 875.659C335.483 880.716 333.664 885.29 330.852 889.381C328.068 893.443 324.389 896.668 319.815 899.054C315.27 901.44 309.929 902.634 303.792 902.634H281.633L282.826 895.474H304.772C309.346 895.474 313.281 894.622 316.576 892.918C319.9 891.185 322.556 888.827 324.545 885.844C326.534 882.832 327.841 879.437 328.466 875.659C329.091 871.824 328.892 868.415 327.869 865.432C326.875 862.449 325 860.119 322.244 858.443C319.517 856.739 315.852 855.886 311.25 855.886H291.264L277.968 936H270ZM343.125 936L344.147 930.162L377.897 898.116C382.301 893.912 385.895 890.318 388.679 887.335C391.463 884.324 393.593 881.568 395.071 879.068C396.548 876.54 397.514 873.912 397.968 871.185C398.508 867.861 398.224 864.963 397.116 862.491C396.037 859.991 394.289 858.045 391.875 856.653C389.488 855.261 386.591 854.565 383.181 854.565C379.602 854.565 376.321 855.332 373.338 856.866C370.355 858.401 367.869 860.517 365.88 863.216C363.92 865.886 362.642 868.94 362.045 872.378H354.417C355.213 867.548 357.045 863.273 359.914 859.551C362.812 855.801 366.392 852.861 370.653 850.73C374.914 848.599 379.502 847.534 384.417 847.534C389.304 847.534 393.451 848.585 396.86 850.688C400.27 852.761 402.741 855.588 404.275 859.168C405.809 862.747 406.207 866.753 405.468 871.185C404.9 874.423 403.806 877.548 402.187 880.56C400.568 883.543 398.082 886.881 394.73 890.574C391.377 894.267 386.846 898.784 381.136 904.125L355.525 928.287L355.397 928.841H398.565L397.372 936H343.125ZM433.412 936L423.995 848.727H432.091L439.378 923.77H440.06L472.319 848.727H481.523L488.853 923.77H489.534L521.75 848.727H529.932L491.537 936H482.972L475.046 861.98H474.492L441.935 936H433.412ZM529.804 936L544.293 848.727H572.461C578.654 848.727 583.64 849.906 587.418 852.264C591.196 854.622 593.796 857.832 595.216 861.895C596.665 865.957 596.963 870.545 596.111 875.659C595.287 880.716 593.469 885.29 590.657 889.381C587.873 893.443 584.194 896.668 579.62 899.054C575.074 901.44 569.733 902.634 563.597 902.634H541.438L542.631 895.474H564.577C569.151 895.474 573.086 894.622 576.381 892.918C579.705 891.185 582.361 888.827 584.35 885.844C586.338 882.832 587.645 879.437 588.27 875.659C588.895 871.824 588.696 868.415 587.674 865.432C586.679 862.449 584.804 860.119 582.049 858.443C579.321 856.739 575.657 855.886 571.054 855.886H551.069L537.773 936H529.804ZM604.804 936L619.293 848.727H627.262L619.463 895.73H620.273L670.642 848.727H681.125L637.191 889.082L666.466 936H656.75L631.353 894.622L617.546 907.662L612.773 936H604.804ZM681.679 936L696.168 848.727H704.137L697.489 888.741H747.006L753.654 848.727H761.623L747.134 936H739.165L745.813 895.901H696.296L689.648 936H681.679Z" fill="#F1760D"/>
<path d="M947 1114H2987V1617H1004C972.52 1617 947 1591.48 947 1560V1114Z" fill="#F1760D"/>
<path d="M3578.76 902.2C3572.76 902.2 3567.16 901.08 3561.96 898.84C3556.76 896.6 3552.2 893.52 3548.28 889.6C3544.36 885.6 3541.28 881 3539.04 875.8C3536.88 870.52 3535.8 864.88 3535.8 858.88C3535.8 852.88 3536.88 847.28 3539.04 842.08C3541.28 836.88 3544.32 832.32 3548.16 828.4C3552.08 824.4 3556.6 821.32 3561.72 819.16C3566.92 816.92 3572.52 815.8 3578.52 815.8C3584.52 815.8 3590.08 816.92 3595.2 819.16C3600.4 821.32 3604.96 824.4 3608.88 828.4C3612.8 832.32 3615.84 836.92 3618 842.2C3620.24 847.4 3621.36 853 3621.36 859C3621.36 865 3620.24 870.64 3618 875.92C3615.84 881.12 3612.8 885.68 3608.88 889.6C3605.04 893.52 3600.52 896.6 3595.32 898.84C3590.2 901.08 3584.68 902.2 3578.76 902.2ZM3578.52 889C3584.2 889 3589.16 887.72 3593.4 885.16C3597.72 882.6 3601.08 879.08 3603.48 874.6C3605.96 870.04 3607.2 864.8 3607.2 858.88C3607.2 854.48 3606.48 850.48 3605.04 846.88C3603.68 843.2 3601.72 840.04 3599.16 837.4C3596.6 834.68 3593.56 832.6 3590.04 831.16C3586.6 829.72 3582.76 829 3578.52 829C3572.92 829 3567.96 830.28 3563.64 832.84C3559.4 835.32 3556.04 838.8 3553.56 843.28C3551.16 847.76 3549.96 852.96 3549.96 858.88C3549.96 863.28 3550.64 867.36 3552 871.12C3553.44 874.8 3555.4 877.96 3557.88 880.6C3560.44 883.24 3563.48 885.32 3567 886.84C3570.52 888.28 3574.36 889 3578.52 889ZM3657.23 902.2C3652.35 902.2 3647.99 901.12 3644.15 898.96C3640.39 896.8 3637.43 893.84 3635.27 890.08C3633.19 886.24 3632.15 881.84 3632.15 876.88V843.4H3645.35V876.28C3645.35 879.08 3645.79 881.48 3646.67 883.48C3647.63 885.4 3648.99 886.88 3650.75 887.92C3652.59 888.96 3654.75 889.48 3657.23 889.48C3661.07 889.48 3663.99 888.36 3665.99 886.12C3668.07 883.8 3669.11 880.52 3669.11 876.28V843.4H3682.31V876.88C3682.31 881.92 3681.23 886.36 3679.07 890.2C3676.99 893.96 3674.07 896.92 3670.31 899.08C3666.55 901.16 3662.19 902.2 3657.23 902.2ZM3704.35 901V819.4H3717.55V901H3704.35ZM3690.55 855.4V843.4H3731.35V855.4H3690.55ZM3771.78 902.2C3767.38 902.2 3763.46 901.28 3760.02 899.44C3756.58 897.52 3753.86 894.92 3751.86 891.64C3749.94 888.36 3748.98 884.64 3748.98 880.48V863.92C3748.98 859.76 3749.98 856.04 3751.98 852.76C3753.98 849.48 3756.7 846.92 3760.14 845.08C3763.58 843.16 3767.46 842.2 3771.78 842.2C3776.98 842.2 3781.66 843.56 3785.82 846.28C3790.06 848.92 3793.38 852.52 3795.78 857.08C3798.26 861.56 3799.5 866.64 3799.5 872.32C3799.5 877.92 3798.26 883 3795.78 887.56C3793.38 892.04 3790.06 895.6 3785.82 898.24C3781.66 900.88 3776.98 902.2 3771.78 902.2ZM3740.94 925V843.4H3754.14V858.88L3751.86 872.92L3754.14 886.84V925H3740.94ZM3769.62 889.72C3772.82 889.72 3775.62 889 3778.02 887.56C3780.5 886.04 3782.42 883.96 3783.78 881.32C3785.22 878.68 3785.94 875.64 3785.94 872.2C3785.94 868.76 3785.22 865.72 3783.78 863.08C3782.42 860.44 3780.5 858.4 3778.02 856.96C3775.62 855.44 3772.82 854.68 3769.62 854.68C3766.42 854.68 3763.58 855.44 3761.1 856.96C3758.62 858.4 3756.7 860.44 3755.34 863.08C3753.98 865.72 3753.3 868.76 3753.3 872.2C3753.3 875.64 3753.98 878.68 3755.34 881.32C3756.7 883.96 3758.62 886.04 3761.1 887.56C3763.58 889 3766.42 889.72 3769.62 889.72ZM3834.19 902.2C3829.31 902.2 3824.95 901.12 3821.11 898.96C3817.35 896.8 3814.39 893.84 3812.23 890.08C3810.15 886.24 3809.11 881.84 3809.11 876.88V843.4H3822.31V876.28C3822.31 879.08 3822.75 881.48 3823.63 883.48C3824.59 885.4 3825.95 886.88 3827.71 887.92C3829.55 888.96 3831.71 889.48 3834.19 889.48C3838.03 889.48 3840.95 888.36 3842.95 886.12C3845.03 883.8 3846.07 880.52 3846.07 876.28V843.4H3859.27V876.88C3859.27 881.92 3858.19 886.36 3856.03 890.2C3853.95 893.96 3851.03 896.92 3847.27 899.08C3843.51 901.16 3839.15 902.2 3834.19 902.2ZM3881.3 901V819.4H3894.5V901H3881.3ZM3867.5 855.4V843.4H3908.3V855.4H3867.5ZM3973.47 901L3986.67 817H3997.83L3984.63 901H3973.47ZM3939.75 875.8V865.24H4002.51V875.8H3939.75ZM3947.55 901L3960.75 817H3971.91L3958.71 901H3947.55ZM3943.47 850.96V840.4H4006.35V850.96H3943.47ZM4031.39 901V817H4044.95V901H4031.39ZM4014.59 829.36V817H4043.75V829.36H4014.59ZM4095.28 908.992C4092.45 906.784 4090.08 904.096 4088.16 900.928C4086.24 897.76 4084.77 894.304 4083.76 890.56C4082.8 886.768 4082.32 882.88 4082.32 878.896C4082.32 874.912 4082.8 871.048 4083.76 867.304C4084.77 863.512 4086.24 860.032 4088.16 856.864C4090.08 853.696 4092.45 851.008 4095.28 848.8L4097.52 850.888C4093.58 854.056 4090.6 858.064 4088.59 862.912C4086.62 867.76 4085.64 873.088 4085.64 878.896C4085.64 884.656 4086.62 889.96 4088.59 894.808C4090.6 899.656 4093.58 903.688 4097.52 906.904L4095.28 908.992ZM4109.44 880.696V877.312H4124.99C4127.25 877.312 4129.24 876.88 4130.97 876.016C4132.69 875.104 4134.06 873.832 4135.07 872.2C4136.08 870.52 4136.58 868.552 4136.58 866.296C4136.58 864.04 4136.08 862.096 4135.07 860.464C4134.06 858.784 4132.69 857.512 4130.97 856.648C4129.24 855.736 4127.25 855.28 4124.99 855.28H4109.44V851.896H4125.42C4128.3 851.896 4130.85 852.496 4133.05 853.696C4135.31 854.848 4137.09 856.504 4138.38 858.664C4139.73 860.824 4140.4 863.368 4140.4 866.296C4140.4 869.224 4139.73 871.768 4138.38 873.928C4137.09 876.04 4135.31 877.696 4133.05 878.896C4130.85 880.096 4128.3 880.696 4125.42 880.696H4109.44ZM4107.13 901V851.896H4110.95V901H4107.13ZM4147.41 898.552L4165.62 879.688C4168.07 877.192 4169.92 875.128 4171.17 873.496C4172.46 871.816 4173.35 870.304 4173.83 868.96C4174.31 867.616 4174.55 866.2 4174.55 864.712C4174.55 861.592 4173.57 859.144 4171.6 857.368C4169.68 855.592 4167.09 854.704 4163.82 854.704C4160.99 854.704 4158.52 855.352 4156.41 856.648C4154.3 857.944 4152.42 859.864 4150.79 862.408L4148.06 859.96C4150.02 857.08 4152.3 854.896 4154.9 853.408C4157.49 851.92 4160.49 851.176 4163.9 851.176C4166.82 851.176 4169.34 851.752 4171.46 852.904C4173.62 854.008 4175.3 855.568 4176.5 857.584C4177.7 859.6 4178.3 862 4178.3 864.784C4178.3 866.704 4178.01 868.48 4177.43 870.112C4176.9 871.696 4175.94 873.4 4174.55 875.224C4173.21 877 4171.26 879.184 4168.72 881.776L4152.52 898.336L4147.41 898.552ZM4147.41 901V898.552L4150.36 897.616H4179.59V901H4147.41ZM4192.2 880.696V877.312H4207.75C4210 877.312 4212 876.88 4213.72 876.016C4215.45 875.104 4216.82 873.832 4217.83 872.2C4218.84 870.52 4219.34 868.552 4219.34 866.296C4219.34 864.04 4218.84 862.096 4217.83 860.464C4216.82 858.784 4215.45 857.512 4213.72 856.648C4212 855.736 4210 855.28 4207.75 855.28H4192.2V851.896H4208.18C4211.06 851.896 4213.6 852.496 4215.81 853.696C4218.07 854.848 4219.84 856.504 4221.14 858.664C4222.48 860.824 4223.16 863.368 4223.16 866.296C4223.16 869.224 4222.48 871.768 4221.14 873.928C4219.84 876.04 4218.07 877.696 4215.81 878.896C4213.6 880.096 4211.06 880.696 4208.18 880.696H4192.2ZM4189.89 901V851.896H4193.71V901H4189.89ZM4265.03 901L4236.09 875.44L4264.38 851.896H4269.71L4240.05 876.448V874.216L4270.43 901H4265.03ZM4233.13 901V851.896H4236.95V901H4233.13ZM4278.91 901V851.896H4282.72V901H4278.91ZM4311.59 901V851.896H4315.41V901H4311.59ZM4281.35 877.456V874H4312.96V877.456H4281.35ZM4327.24 908.992L4325.08 906.904C4328.97 903.688 4331.92 899.656 4333.94 894.808C4335.96 889.96 4336.96 884.656 4336.96 878.896C4336.96 873.088 4335.96 867.76 4333.94 862.912C4331.92 858.064 4328.97 854.056 4325.08 850.888L4327.24 848.8C4330.08 851.008 4332.45 853.696 4334.37 856.864C4336.29 860.032 4337.76 863.512 4338.76 867.304C4339.77 871.048 4340.28 874.912 4340.28 878.896C4340.28 882.88 4339.77 886.768 4338.76 890.56C4337.76 894.304 4336.29 897.76 4334.37 900.928C4332.45 904.096 4330.08 906.784 4327.24 908.992Z" fill="white"/>
<path d="M3578.76 1380.2C3572.76 1380.2 3567.16 1379.08 3561.96 1376.84C3556.76 1374.6 3552.2 1371.52 3548.28 1367.6C3544.36 1363.6 3541.28 1359 3539.04 1353.8C3536.88 1348.52 3535.8 1342.88 3535.8 1336.88C3535.8 1330.88 3536.88 1325.28 3539.04 1320.08C3541.28 1314.88 3544.32 1310.32 3548.16 1306.4C3552.08 1302.4 3556.6 1299.32 3561.72 1297.16C3566.92 1294.92 3572.52 1293.8 3578.52 1293.8C3584.52 1293.8 3590.08 1294.92 3595.2 1297.16C3600.4 1299.32 3604.96 1302.4 3608.88 1306.4C3612.8 1310.32 3615.84 1314.92 3618 1320.2C3620.24 1325.4 3621.36 1331 3621.36 1337C3621.36 1343 3620.24 1348.64 3618 1353.92C3615.84 1359.12 3612.8 1363.68 3608.88 1367.6C3605.04 1371.52 3600.52 1374.6 3595.32 1376.84C3590.2 1379.08 3584.68 1380.2 3578.76 1380.2ZM3578.52 1367C3584.2 1367 3589.16 1365.72 3593.4 1363.16C3597.72 1360.6 3601.08 1357.08 3603.48 1352.6C3605.96 1348.04 3607.2 1342.8 3607.2 1336.88C3607.2 1332.48 3606.48 1328.48 3605.04 1324.88C3603.68 1321.2 3601.72 1318.04 3599.16 1315.4C3596.6 1312.68 3593.56 1310.6 3590.04 1309.16C3586.6 1307.72 3582.76 1307 3578.52 1307C3572.92 1307 3567.96 1308.28 3563.64 1310.84C3559.4 1313.32 3556.04 1316.8 3553.56 1321.28C3551.16 1325.76 3549.96 1330.96 3549.96 1336.88C3549.96 1341.28 3550.64 1345.36 3552 1349.12C3553.44 1352.8 3555.4 1355.96 3557.88 1358.6C3560.44 1361.24 3563.48 1363.32 3567 1364.84C3570.52 1366.28 3574.36 1367 3578.52 1367ZM3657.23 1380.2C3652.35 1380.2 3647.99 1379.12 3644.15 1376.96C3640.39 1374.8 3637.43 1371.84 3635.27 1368.08C3633.19 1364.24 3632.15 1359.84 3632.15 1354.88V1321.4H3645.35V1354.28C3645.35 1357.08 3645.79 1359.48 3646.67 1361.48C3647.63 1363.4 3648.99 1364.88 3650.75 1365.92C3652.59 1366.96 3654.75 1367.48 3657.23 1367.48C3661.07 1367.48 3663.99 1366.36 3665.99 1364.12C3668.07 1361.8 3669.11 1358.52 3669.11 1354.28V1321.4H3682.31V1354.88C3682.31 1359.92 3681.23 1364.36 3679.07 1368.2C3676.99 1371.96 3674.07 1374.92 3670.31 1377.08C3666.55 1379.16 3662.19 1380.2 3657.23 1380.2ZM3704.35 1379V1297.4H3717.55V1379H3704.35ZM3690.55 1333.4V1321.4H3731.35V1333.4H3690.55ZM3771.78 1380.2C3767.38 1380.2 3763.46 1379.28 3760.02 1377.44C3756.58 1375.52 3753.86 1372.92 3751.86 1369.64C3749.94 1366.36 3748.98 1362.64 3748.98 1358.48V1341.92C3748.98 1337.76 3749.98 1334.04 3751.98 1330.76C3753.98 1327.48 3756.7 1324.92 3760.14 1323.08C3763.58 1321.16 3767.46 1320.2 3771.78 1320.2C3776.98 1320.2 3781.66 1321.56 3785.82 1324.28C3790.06 1326.92 3793.38 1330.52 3795.78 1335.08C3798.26 1339.56 3799.5 1344.64 3799.5 1350.32C3799.5 1355.92 3798.26 1361 3795.78 1365.56C3793.38 1370.04 3790.06 1373.6 3785.82 1376.24C3781.66 1378.88 3776.98 1380.2 3771.78 1380.2ZM3740.94 1403V1321.4H3754.14V1336.88L3751.86 1350.92L3754.14 1364.84V1403H3740.94ZM3769.62 1367.72C3772.82 1367.72 3775.62 1367 3778.02 1365.56C3780.5 1364.04 3782.42 1361.96 3783.78 1359.32C3785.22 1356.68 3785.94 1353.64 3785.94 1350.2C3785.94 1346.76 3785.22 1343.72 3783.78 1341.08C3782.42 1338.44 3780.5 1336.4 3778.02 1334.96C3775.62 1333.44 3772.82 1332.68 3769.62 1332.68C3766.42 1332.68 3763.58 1333.44 3761.1 1334.96C3758.62 1336.4 3756.7 1338.44 3755.34 1341.08C3753.98 1343.72 3753.3 1346.76 3753.3 1350.2C3753.3 1353.64 3753.98 1356.68 3755.34 1359.32C3756.7 1361.96 3758.62 1364.04 3761.1 1365.56C3763.58 1367 3766.42 1367.72 3769.62 1367.72ZM3834.19 1380.2C3829.31 1380.2 3824.95 1379.12 3821.11 1376.96C3817.35 1374.8 3814.39 1371.84 3812.23 1368.08C3810.15 1364.24 3809.11 1359.84 3809.11 1354.88V1321.4H3822.31V1354.28C3822.31 1357.08 3822.75 1359.48 3823.63 1361.48C3824.59 1363.4 3825.95 1364.88 3827.71 1365.92C3829.55 1366.96 3831.71 1367.48 3834.19 1367.48C3838.03 1367.48 3840.95 1366.36 3842.95 1364.12C3845.03 1361.8 3846.07 1358.52 3846.07 1354.28V1321.4H3859.27V1354.88C3859.27 1359.92 3858.19 1364.36 3856.03 1368.2C3853.95 1371.96 3851.03 1374.92 3847.27 1377.08C3843.51 1379.16 3839.15 1380.2 3834.19 1380.2ZM3881.3 1379V1297.4H3894.5V1379H3881.3ZM3867.5 1333.4V1321.4H3908.3V1333.4H3867.5ZM3973.47 1379L3986.67 1295H3997.83L3984.63 1379H3973.47ZM3939.75 1353.8V1343.24H4002.51V1353.8H3939.75ZM3947.55 1379L3960.75 1295H3971.91L3958.71 1379H3947.55ZM3943.47 1328.96V1318.4H4006.35V1328.96H3943.47ZM4014.83 1370.84L4045.79 1337.96C4048.35 1335.24 4050.43 1332.8 4052.03 1330.64C4053.63 1328.48 4054.79 1326.44 4055.51 1324.52C4056.23 1322.6 4056.59 1320.64 4056.59 1318.64C4056.59 1314.88 4055.35 1311.96 4052.87 1309.88C4050.47 1307.72 4047.39 1306.64 4043.63 1306.64C4039.63 1306.64 4036.11 1307.64 4033.07 1309.64C4030.03 1311.64 4027.31 1314.76 4024.91 1319L4015.31 1311.08C4018.59 1305.4 4022.63 1301.12 4027.43 1298.24C4032.23 1295.28 4037.79 1293.8 4044.11 1293.8C4049.31 1293.8 4053.87 1294.84 4057.79 1296.92C4061.71 1299 4064.75 1301.92 4066.91 1305.68C4069.07 1309.36 4070.15 1313.64 4070.15 1318.52C4070.15 1322.04 4069.71 1325.2 4068.83 1328C4068.03 1330.72 4066.63 1333.48 4064.63 1336.28C4062.63 1339 4059.87 1342.2 4056.35 1345.88L4032.59 1370.48L4014.83 1370.84ZM4014.83 1379V1370.84L4026.71 1366.64H4071.83V1379H4014.83ZM4117.55 1386.99C4114.72 1384.78 4112.34 1382.1 4110.42 1378.93C4108.5 1375.76 4107.04 1372.3 4106.03 1368.56C4105.07 1364.77 4104.59 1360.88 4104.59 1356.9C4104.59 1352.91 4105.07 1349.05 4106.03 1345.3C4107.04 1341.51 4108.5 1338.03 4110.42 1334.86C4112.34 1331.7 4114.72 1329.01 4117.55 1326.8L4119.78 1328.89C4115.85 1332.06 4112.87 1336.06 4110.85 1340.91C4108.89 1345.76 4107.9 1351.09 4107.9 1356.9C4107.9 1362.66 4108.89 1367.96 4110.85 1372.81C4112.87 1377.66 4115.85 1381.69 4119.78 1384.9L4117.55 1386.99ZM4131.7 1358.7V1355.31H4147.26C4149.51 1355.31 4151.5 1354.88 4153.23 1354.02C4154.96 1353.1 4156.33 1351.83 4157.34 1350.2C4158.34 1348.52 4158.85 1346.55 4158.85 1344.3C4158.85 1342.04 4158.34 1340.1 4157.34 1338.46C4156.33 1336.78 4154.96 1335.51 4153.23 1334.65C4151.5 1333.74 4149.51 1333.28 4147.26 1333.28H4131.7V1329.9H4147.69C4150.57 1329.9 4153.11 1330.5 4155.32 1331.7C4157.58 1332.85 4159.35 1334.5 4160.65 1336.66C4161.99 1338.82 4162.66 1341.37 4162.66 1344.3C4162.66 1347.22 4161.99 1349.77 4160.65 1351.93C4159.35 1354.04 4157.58 1355.7 4155.32 1356.9C4153.11 1358.1 4150.57 1358.7 4147.69 1358.7H4131.7ZM4129.4 1379V1329.9H4133.22V1379H4129.4ZM4169.67 1376.55L4187.89 1357.69C4190.34 1355.19 4192.19 1353.13 4193.43 1351.5C4194.73 1349.82 4195.62 1348.3 4196.1 1346.96C4196.58 1345.62 4196.82 1344.2 4196.82 1342.71C4196.82 1339.59 4195.83 1337.14 4193.87 1335.37C4191.95 1333.59 4189.35 1332.7 4186.09 1332.7C4183.26 1332.7 4180.79 1333.35 4178.67 1334.65C4176.56 1335.94 4174.69 1337.86 4173.06 1340.41L4170.32 1337.96C4172.29 1335.08 4174.57 1332.9 4177.16 1331.41C4179.75 1329.92 4182.75 1329.18 4186.16 1329.18C4189.09 1329.18 4191.61 1329.75 4193.72 1330.9C4195.88 1332.01 4197.56 1333.57 4198.76 1335.58C4199.96 1337.6 4200.56 1340 4200.56 1342.78C4200.56 1344.7 4200.27 1346.48 4199.7 1348.11C4199.17 1349.7 4198.21 1351.4 4196.82 1353.22C4195.47 1355 4193.53 1357.18 4190.99 1359.78L4174.79 1376.34L4169.67 1376.55ZM4169.67 1379V1376.55L4172.63 1375.62H4201.86V1379H4169.67ZM4214.46 1358.7V1355.31H4230.01C4232.27 1355.31 4234.26 1354.88 4235.99 1354.02C4237.72 1353.1 4239.08 1351.83 4240.09 1350.2C4241.1 1348.52 4241.6 1346.55 4241.6 1344.3C4241.6 1342.04 4241.1 1340.1 4240.09 1338.46C4239.08 1336.78 4237.72 1335.51 4235.99 1334.65C4234.26 1333.74 4232.27 1333.28 4230.01 1333.28H4214.46V1329.9H4230.44C4233.32 1329.9 4235.87 1330.5 4238.08 1331.7C4240.33 1332.85 4242.11 1334.5 4243.4 1336.66C4244.75 1338.82 4245.42 1341.37 4245.42 1344.3C4245.42 1347.22 4244.75 1349.77 4243.4 1351.93C4242.11 1354.04 4240.33 1355.7 4238.08 1356.9C4235.87 1358.1 4233.32 1358.7 4230.44 1358.7H4214.46ZM4212.16 1379V1329.9H4215.97V1379H4212.16ZM4287.3 1379L4258.35 1353.44L4286.65 1329.9H4291.98L4262.31 1354.45V1352.22L4292.7 1379H4287.3ZM4255.4 1379V1329.9H4259.22V1379H4255.4ZM4301.17 1379V1329.9H4304.99V1379H4301.17ZM4333.86 1379V1329.9H4337.68V1379H4333.86ZM4303.62 1355.46V1352H4335.23V1355.46H4303.62ZM4349.51 1386.99L4347.35 1384.9C4351.24 1381.69 4354.19 1377.66 4356.21 1372.81C4358.22 1367.96 4359.23 1362.66 4359.23 1356.9C4359.23 1351.09 4358.22 1345.76 4356.21 1340.91C4354.19 1336.06 4351.24 1332.06 4347.35 1328.89L4349.51 1326.8C4352.34 1329.01 4354.72 1331.7 4356.64 1334.86C4358.56 1338.03 4360.02 1341.51 4361.03 1345.3C4362.04 1349.05 4362.54 1352.91 4362.54 1356.9C4362.54 1360.88 4362.04 1364.77 4361.03 1368.56C4360.02 1372.3 4358.56 1375.76 4356.64 1378.93C4354.72 1382.1 4352.34 1384.78 4349.51 1386.99Z" fill="white"/>
<path d="M1648.12 1379V1295H1661.92V1379H1648.12ZM1717.79 1379V1345.76C1717.79 1341.92 1716.55 1338.76 1714.07 1336.28C1711.67 1333.8 1708.55 1332.56 1704.71 1332.56C1702.15 1332.56 1699.87 1333.12 1697.87 1334.24C1695.87 1335.36 1694.31 1336.92 1693.19 1338.92C1692.07 1340.92 1691.51 1343.2 1691.51 1345.76L1686.35 1342.88C1686.35 1338.48 1687.31 1334.6 1689.23 1331.24C1691.15 1327.8 1693.79 1325.12 1697.15 1323.2C1700.59 1321.2 1704.43 1320.2 1708.67 1320.2C1712.99 1320.2 1716.83 1321.32 1720.19 1323.56C1723.55 1325.72 1726.19 1328.56 1728.11 1332.08C1730.03 1335.52 1730.99 1339.12 1730.99 1342.88V1379H1717.79ZM1678.31 1379V1321.4H1691.51V1379H1678.31ZM1775.25 1380.2C1770.85 1380.2 1766.93 1379.28 1763.49 1377.44C1760.05 1375.52 1757.33 1372.92 1755.33 1369.64C1753.41 1366.36 1752.45 1362.64 1752.45 1358.48V1341.92C1752.45 1337.76 1753.45 1334.04 1755.45 1330.76C1757.45 1327.48 1760.17 1324.92 1763.61 1323.08C1767.05 1321.16 1770.93 1320.2 1775.25 1320.2C1780.45 1320.2 1785.13 1321.56 1789.29 1324.28C1793.53 1326.92 1796.85 1330.52 1799.25 1335.08C1801.73 1339.56 1802.97 1344.64 1802.97 1350.32C1802.97 1355.92 1801.73 1361 1799.25 1365.56C1796.85 1370.04 1793.53 1373.6 1789.29 1376.24C1785.13 1378.88 1780.45 1380.2 1775.25 1380.2ZM1744.41 1403V1321.4H1757.61V1336.88L1755.33 1350.92L1757.61 1364.84V1403H1744.41ZM1773.09 1367.72C1776.29 1367.72 1779.09 1367 1781.49 1365.56C1783.97 1364.04 1785.89 1361.96 1787.25 1359.32C1788.69 1356.68 1789.41 1353.64 1789.41 1350.2C1789.41 1346.76 1788.69 1343.72 1787.25 1341.08C1785.89 1338.44 1783.97 1336.4 1781.49 1334.96C1779.09 1333.44 1776.29 1332.68 1773.09 1332.68C1769.89 1332.68 1767.05 1333.44 1764.57 1334.96C1762.09 1336.4 1760.17 1338.44 1758.81 1341.08C1757.45 1343.72 1756.77 1346.76 1756.77 1350.2C1756.77 1353.64 1757.45 1356.68 1758.81 1359.32C1760.17 1361.96 1762.09 1364.04 1764.57 1365.56C1767.05 1367 1769.89 1367.72 1773.09 1367.72ZM1837.66 1380.2C1832.78 1380.2 1828.42 1379.12 1824.58 1376.96C1820.82 1374.8 1817.86 1371.84 1815.7 1368.08C1813.62 1364.24 1812.58 1359.84 1812.58 1354.88V1321.4H1825.78V1354.28C1825.78 1357.08 1826.22 1359.48 1827.1 1361.48C1828.06 1363.4 1829.42 1364.88 1831.18 1365.92C1833.02 1366.96 1835.18 1367.48 1837.66 1367.48C1841.5 1367.48 1844.42 1366.36 1846.42 1364.12C1848.5 1361.8 1849.54 1358.52 1849.54 1354.28V1321.4H1862.74V1354.88C1862.74 1359.92 1861.66 1364.36 1859.5 1368.2C1857.42 1371.96 1854.5 1374.92 1850.74 1377.08C1846.98 1379.16 1842.62 1380.2 1837.66 1380.2ZM1884.77 1379V1297.4H1897.97V1379H1884.77ZM1870.97 1333.4V1321.4H1911.77V1333.4H1870.97ZM1976.94 1379L1990.14 1295H2001.3L1988.1 1379H1976.94ZM1943.22 1353.8V1343.24H2005.98V1353.8H1943.22ZM1951.02 1379L1964.22 1295H1975.38L1962.18 1379H1951.02ZM1946.94 1328.96V1318.4H2009.82V1328.96H1946.94ZM2018.3 1370.84L2049.26 1337.96C2051.82 1335.24 2053.9 1332.8 2055.5 1330.64C2057.1 1328.48 2058.26 1326.44 2058.98 1324.52C2059.7 1322.6 2060.06 1320.64 2060.06 1318.64C2060.06 1314.88 2058.82 1311.96 2056.34 1309.88C2053.94 1307.72 2050.86 1306.64 2047.1 1306.64C2043.1 1306.64 2039.58 1307.64 2036.54 1309.64C2033.5 1311.64 2030.78 1314.76 2028.38 1319L2018.78 1311.08C2022.06 1305.4 2026.1 1301.12 2030.9 1298.24C2035.7 1295.28 2041.26 1293.8 2047.58 1293.8C2052.78 1293.8 2057.34 1294.84 2061.26 1296.92C2065.18 1299 2068.22 1301.92 2070.38 1305.68C2072.54 1309.36 2073.62 1313.64 2073.62 1318.52C2073.62 1322.04 2073.18 1325.2 2072.3 1328C2071.5 1330.72 2070.1 1333.48 2068.1 1336.28C2066.1 1339 2063.34 1342.2 2059.82 1345.88L2036.06 1370.48L2018.3 1370.84ZM2018.3 1379V1370.84L2030.18 1366.64H2075.3V1379H2018.3ZM2121.02 1386.99C2118.19 1384.78 2115.81 1382.1 2113.89 1378.93C2111.97 1375.76 2110.51 1372.3 2109.5 1368.56C2108.54 1364.77 2108.06 1360.88 2108.06 1356.9C2108.06 1352.91 2108.54 1349.05 2109.5 1345.3C2110.51 1341.51 2111.97 1338.03 2113.89 1334.86C2115.81 1331.7 2118.19 1329.01 2121.02 1326.8L2123.25 1328.89C2119.31 1332.06 2116.34 1336.06 2114.32 1340.91C2112.35 1345.76 2111.37 1351.09 2111.37 1356.9C2111.37 1362.66 2112.35 1367.96 2114.32 1372.81C2116.34 1377.66 2119.31 1381.69 2123.25 1384.9L2121.02 1386.99ZM2135.17 1358.7V1355.31H2150.72C2152.98 1355.31 2154.97 1354.88 2156.7 1354.02C2158.43 1353.1 2159.8 1351.83 2160.8 1350.2C2161.81 1348.52 2162.32 1346.55 2162.32 1344.3C2162.32 1342.04 2161.81 1340.1 2160.8 1338.46C2159.8 1336.78 2158.43 1335.51 2156.7 1334.65C2154.97 1333.74 2152.98 1333.28 2150.72 1333.28H2135.17V1329.9H2151.16C2154.04 1329.9 2156.58 1330.5 2158.79 1331.7C2161.04 1332.85 2162.82 1334.5 2164.12 1336.66C2165.46 1338.82 2166.13 1341.37 2166.13 1344.3C2166.13 1347.22 2165.46 1349.77 2164.12 1351.93C2162.82 1354.04 2161.04 1355.7 2158.79 1356.9C2156.58 1358.1 2154.04 1358.7 2151.16 1358.7H2135.17ZM2132.87 1379V1329.9H2136.68V1379H2132.87ZM2173.14 1376.55L2191.36 1357.69C2193.81 1355.19 2195.65 1353.13 2196.9 1351.5C2198.2 1349.82 2199.09 1348.3 2199.57 1346.96C2200.05 1345.62 2200.29 1344.2 2200.29 1342.71C2200.29 1339.59 2199.3 1337.14 2197.33 1335.37C2195.41 1333.59 2192.82 1332.7 2189.56 1332.7C2186.73 1332.7 2184.25 1333.35 2182.14 1334.65C2180.03 1335.94 2178.16 1337.86 2176.53 1340.41L2173.79 1337.96C2175.76 1335.08 2178.04 1332.9 2180.63 1331.41C2183.22 1329.92 2186.22 1329.18 2189.63 1329.18C2192.56 1329.18 2195.08 1329.75 2197.19 1330.9C2199.35 1332.01 2201.03 1333.57 2202.23 1335.58C2203.43 1337.6 2204.03 1340 2204.03 1342.78C2204.03 1344.7 2203.74 1346.48 2203.17 1348.11C2202.64 1349.7 2201.68 1351.4 2200.29 1353.22C2198.94 1355 2197 1357.18 2194.45 1359.78L2178.25 1376.34L2173.14 1376.55ZM2173.14 1379V1376.55L2176.09 1375.62H2205.33V1379H2173.14ZM2227.94 1379L2212.17 1329.9H2216.06L2230.03 1374.46H2228.66L2242.55 1329.9H2245.65L2259.62 1374.46H2258.18L2272.22 1329.9H2276.11L2260.34 1379H2257.39L2243.49 1334.5H2244.71L2230.89 1379H2227.94ZM2288.31 1358.7V1355.31H2303.86C2306.12 1355.31 2308.11 1354.88 2309.84 1354.02C2311.57 1353.1 2312.94 1351.83 2313.94 1350.2C2314.95 1348.52 2315.46 1346.55 2315.46 1344.3C2315.46 1342.04 2314.95 1340.1 2313.94 1338.46C2312.94 1336.78 2311.57 1335.51 2309.84 1334.65C2308.11 1333.74 2306.12 1333.28 2303.86 1333.28H2288.31V1329.9H2304.3C2307.18 1329.9 2309.72 1330.5 2311.93 1331.7C2314.18 1332.85 2315.96 1334.5 2317.26 1336.66C2318.6 1338.82 2319.27 1341.37 2319.27 1344.3C2319.27 1347.22 2318.6 1349.77 2317.26 1351.93C2315.96 1354.04 2314.18 1355.7 2311.93 1356.9C2309.72 1358.1 2307.18 1358.7 2304.3 1358.7H2288.31ZM2286.01 1379V1329.9H2289.82V1379H2286.01ZM2361.15 1379L2332.2 1353.44L2360.5 1329.9H2365.83L2336.16 1354.45V1352.22L2366.55 1379H2361.15ZM2329.25 1379V1329.9H2333.07V1379H2329.25ZM2375.02 1379V1329.9H2378.84V1379H2375.02ZM2407.71 1379V1329.9H2411.53V1379H2407.71ZM2377.47 1355.46V1352H2409.08V1355.46H2377.47ZM2423.36 1386.99L2421.2 1384.9C2425.09 1381.69 2428.04 1377.66 2430.06 1372.81C2432.07 1367.96 2433.08 1362.66 2433.08 1356.9C2433.08 1351.09 2432.07 1345.76 2430.06 1340.91C2428.04 1336.06 2425.09 1332.06 2421.2 1328.89L2423.36 1326.8C2426.19 1329.01 2428.57 1331.7 2430.49 1334.86C2432.41 1338.03 2433.87 1341.51 2434.88 1345.3C2435.89 1349.05 2436.39 1352.91 2436.39 1356.9C2436.39 1360.88 2435.89 1364.77 2434.88 1368.56C2433.87 1372.3 2432.41 1375.76 2430.49 1378.93C2428.57 1382.1 2426.19 1384.78 2423.36 1386.99Z" fill="black"/>
<path d="M1648.12 901V817H1661.92V901H1648.12ZM1717.79 901V867.76C1717.79 863.92 1716.55 860.76 1714.07 858.28C1711.67 855.8 1708.55 854.56 1704.71 854.56C1702.15 854.56 1699.87 855.12 1697.87 856.24C1695.87 857.36 1694.31 858.92 1693.19 860.92C1692.07 862.92 1691.51 865.2 1691.51 867.76L1686.35 864.88C1686.35 860.48 1687.31 856.6 1689.23 853.24C1691.15 849.8 1693.79 847.12 1697.15 845.2C1700.59 843.2 1704.43 842.2 1708.67 842.2C1712.99 842.2 1716.83 843.32 1720.19 845.56C1723.55 847.72 1726.19 850.56 1728.11 854.08C1730.03 857.52 1730.99 861.12 1730.99 864.88V901H1717.79ZM1678.31 901V843.4H1691.51V901H1678.31ZM1775.25 902.2C1770.85 902.2 1766.93 901.28 1763.49 899.44C1760.05 897.52 1757.33 894.92 1755.33 891.64C1753.41 888.36 1752.45 884.64 1752.45 880.48V863.92C1752.45 859.76 1753.45 856.04 1755.45 852.76C1757.45 849.48 1760.17 846.92 1763.61 845.08C1767.05 843.16 1770.93 842.2 1775.25 842.2C1780.45 842.2 1785.13 843.56 1789.29 846.28C1793.53 848.92 1796.85 852.52 1799.25 857.08C1801.73 861.56 1802.97 866.64 1802.97 872.32C1802.97 877.92 1801.73 883 1799.25 887.56C1796.85 892.04 1793.53 895.6 1789.29 898.24C1785.13 900.88 1780.45 902.2 1775.25 902.2ZM1744.41 925V843.4H1757.61V858.88L1755.33 872.92L1757.61 886.84V925H1744.41ZM1773.09 889.72C1776.29 889.72 1779.09 889 1781.49 887.56C1783.97 886.04 1785.89 883.96 1787.25 881.32C1788.69 878.68 1789.41 875.64 1789.41 872.2C1789.41 868.76 1788.69 865.72 1787.25 863.08C1785.89 860.44 1783.97 858.4 1781.49 856.96C1779.09 855.44 1776.29 854.68 1773.09 854.68C1769.89 854.68 1767.05 855.44 1764.57 856.96C1762.09 858.4 1760.17 860.44 1758.81 863.08C1757.45 865.72 1756.77 868.76 1756.77 872.2C1756.77 875.64 1757.45 878.68 1758.81 881.32C1760.17 883.96 1762.09 886.04 1764.57 887.56C1767.05 889 1769.89 889.72 1773.09 889.72ZM1837.66 902.2C1832.78 902.2 1828.42 901.12 1824.58 898.96C1820.82 896.8 1817.86 893.84 1815.7 890.08C1813.62 886.24 1812.58 881.84 1812.58 876.88V843.4H1825.78V876.28C1825.78 879.08 1826.22 881.48 1827.1 883.48C1828.06 885.4 1829.42 886.88 1831.18 887.92C1833.02 888.96 1835.18 889.48 1837.66 889.48C1841.5 889.48 1844.42 888.36 1846.42 886.12C1848.5 883.8 1849.54 880.52 1849.54 876.28V843.4H1862.74V876.88C1862.74 881.92 1861.66 886.36 1859.5 890.2C1857.42 893.96 1854.5 896.92 1850.74 899.08C1846.98 901.16 1842.62 902.2 1837.66 902.2ZM1884.77 901V819.4H1897.97V901H1884.77ZM1870.97 855.4V843.4H1911.77V855.4H1870.97ZM1976.94 901L1990.14 817H2001.3L1988.1 901H1976.94ZM1943.22 875.8V865.24H2005.98V875.8H1943.22ZM1951.02 901L1964.22 817H1975.38L1962.18 901H1951.02ZM1946.94 850.96V840.4H2009.82V850.96H1946.94ZM2034.86 901V817H2048.42V901H2034.86ZM2018.06 829.36V817H2047.22V829.36H2018.06ZM2098.75 908.992C2095.92 906.784 2093.55 904.096 2091.63 900.928C2089.71 897.76 2088.24 894.304 2087.23 890.56C2086.27 886.768 2085.79 882.88 2085.79 878.896C2085.79 874.912 2086.27 871.048 2087.23 867.304C2088.24 863.512 2089.71 860.032 2091.63 856.864C2093.55 853.696 2095.92 851.008 2098.75 848.8L2100.99 850.888C2097.05 854.056 2094.07 858.064 2092.06 862.912C2090.09 867.76 2089.11 873.088 2089.11 878.896C2089.11 884.656 2090.09 889.96 2092.06 894.808C2094.07 899.656 2097.05 903.688 2100.99 906.904L2098.75 908.992ZM2112.91 880.696V877.312H2128.46C2130.71 877.312 2132.71 876.88 2134.43 876.016C2136.16 875.104 2137.53 873.832 2138.54 872.2C2139.55 870.52 2140.05 868.552 2140.05 866.296C2140.05 864.04 2139.55 862.096 2138.54 860.464C2137.53 858.784 2136.16 857.512 2134.43 856.648C2132.71 855.736 2130.71 855.28 2128.46 855.28H2112.91V851.896H2128.89C2131.77 851.896 2134.31 852.496 2136.52 853.696C2138.78 854.848 2140.55 856.504 2141.85 858.664C2143.19 860.824 2143.87 863.368 2143.87 866.296C2143.87 869.224 2143.19 871.768 2141.85 873.928C2140.55 876.04 2138.78 877.696 2136.52 878.896C2134.31 880.096 2131.77 880.696 2128.89 880.696H2112.91ZM2110.6 901V851.896H2114.42V901H2110.6ZM2150.88 898.552L2169.09 879.688C2171.54 877.192 2173.39 875.128 2174.64 873.496C2175.93 871.816 2176.82 870.304 2177.3 868.96C2177.78 867.616 2178.02 866.2 2178.02 864.712C2178.02 861.592 2177.04 859.144 2175.07 857.368C2173.15 855.592 2170.56 854.704 2167.29 854.704C2164.46 854.704 2161.99 855.352 2159.88 856.648C2157.77 857.944 2155.89 859.864 2154.26 862.408L2151.53 859.96C2153.49 857.08 2155.77 854.896 2158.37 853.408C2160.96 851.92 2163.96 851.176 2167.37 851.176C2170.29 851.176 2172.81 851.752 2174.93 852.904C2177.09 854.008 2178.77 855.568 2179.97 857.584C2181.17 859.6 2181.77 862 2181.77 864.784C2181.77 866.704 2181.48 868.48 2180.9 870.112C2180.37 871.696 2179.41 873.4 2178.02 875.224C2176.68 877 2174.73 879.184 2172.19 881.776L2155.99 898.336L2150.88 898.552ZM2150.88 901V898.552L2153.83 897.616H2183.06V901H2150.88ZM2195.66 880.696V877.312H2211.22C2213.47 877.312 2215.46 876.88 2217.19 876.016C2218.92 875.104 2220.29 873.832 2221.3 872.2C2222.3 870.52 2222.81 868.552 2222.81 866.296C2222.81 864.04 2222.3 862.096 2221.3 860.464C2220.29 858.784 2218.92 857.512 2217.19 856.648C2215.46 855.736 2213.47 855.28 2211.22 855.28H2195.66V851.896H2211.65C2214.53 851.896 2217.07 852.496 2219.28 853.696C2221.54 854.848 2223.31 856.504 2224.61 858.664C2225.95 860.824 2226.62 863.368 2226.62 866.296C2226.62 869.224 2225.95 871.768 2224.61 873.928C2223.31 876.04 2221.54 877.696 2219.28 878.896C2217.07 880.096 2214.53 880.696 2211.65 880.696H2195.66ZM2193.36 901V851.896H2197.18V901H2193.36ZM2268.5 901L2239.55 875.44L2267.85 851.896H2273.18L2243.51 876.448V874.216L2273.9 901H2268.5ZM2236.6 901V851.896H2240.42V901H2236.6ZM2282.06 908.992L2279.9 906.904C2283.79 903.688 2286.74 899.656 2288.75 894.808C2290.77 889.96 2291.78 884.656 2291.78 878.896C2291.78 873.088 2290.77 867.76 2288.75 862.912C2286.74 858.064 2283.79 854.056 2279.9 850.888L2282.06 848.8C2284.89 851.008 2287.27 853.696 2289.19 856.864C2291.11 860.032 2292.57 863.512 2293.58 867.304C2294.59 871.048 2295.09 874.912 2295.09 878.896C2295.09 882.88 2294.59 886.768 2293.58 890.56C2292.57 894.304 2291.11 897.76 2289.19 900.928C2287.27 904.096 2284.89 906.784 2282.06 908.992Z" fill="white"/>
<path d="M896 1351L855.474 1373.16L856.547 1326.98L896 1351ZM517.583 1024.05C464.653 1068.81 444.415 1110.11 446.436 1146.72C448.46 1183.38 472.887 1216.8 512.742 1245.6C592.464 1303.21 731.223 1340.26 860.201 1346.17L859.835 1354.16C730.034 1348.21 589.527 1310.96 508.056 1252.09C467.315 1222.65 440.664 1187.29 438.448 1147.16C436.229 1106.97 458.59 1063.46 512.417 1017.95L517.583 1024.05Z" fill="#F1760D"/>
</svg>
